<svg xmlns="http://www.w3.org/2000/svg" width="181.028" height="181.1" viewBox="0 0 181.028 181.1">
  <g id="template_21_web_development_step3" transform="translate(-0.397 -0.4)">
    <path id="Path_374" data-name="Path 374" d="M91.366,103.788A13.039,13.039,0,1,0,78.326,90.749,13.038,13.038,0,0,0,91.366,103.788Z" fill="none" stroke="#bec6d3" stroke-width="1"/>
    <path id="Path_375" data-name="Path 375" d="M131.311,81.716h-8.036a32.554,32.554,0,0,0-2.96-7.135l5.679-5.679a3.487,3.487,0,0,0,0-4.939l-7.843-7.843a3.486,3.486,0,0,0-4.939,0L107.534,61.8a33.562,33.562,0,0,0-7.135-2.96V50.8a3.488,3.488,0,0,0-3.491-3.491H85.815A3.488,3.488,0,0,0,82.324,50.8V58.84a32.558,32.558,0,0,0-7.135,2.96l-5.679-5.679a3.486,3.486,0,0,0-4.939,0l-7.843,7.843a3.486,3.486,0,0,0,0,4.939l5.679,5.679a33.53,33.53,0,0,0-2.96,7.135H51.412a3.488,3.488,0,0,0-3.491,3.491V96.3a3.488,3.488,0,0,0,3.491,3.491h8.036a32.557,32.557,0,0,0,2.96,7.134L56.729,112.6a3.486,3.486,0,0,0,0,4.939l7.843,7.843a3.487,3.487,0,0,0,4.939,0l5.679-5.679a33.522,33.522,0,0,0,7.135,2.96V130.7a3.488,3.488,0,0,0,3.491,3.491H96.908A3.488,3.488,0,0,0,100.4,130.7v-8.036a32.585,32.585,0,0,0,7.135-2.96l5.678,5.679a3.487,3.487,0,0,0,4.939,0l7.843-7.843a3.487,3.487,0,0,0,0-4.939l-5.679-5.679a33.522,33.522,0,0,0,2.96-7.134h8.036A3.488,3.488,0,0,0,134.8,96.3V85.207A3.493,3.493,0,0,0,131.311,81.716Z" fill="none" stroke="#bec6d3" stroke-width="1"/>
    <path id="Path_376" data-name="Path 376" d="M56.447,42.18V56.554H42.073" fill="none" stroke="#bec6d3" stroke-width="1"/>
    <path id="Path_377" data-name="Path 377" d="M56.447,56.555,37.971,38.07" fill="none" stroke="#bec6d3" stroke-width="1"/>
    <path id="Path_378" data-name="Path 378" d="M125.56,139.326V124.943h14.374" fill="none" stroke="#bec6d3" stroke-width="1"/>
    <path id="Path_379" data-name="Path 379" d="M125.56,124.943l18.484,18.485" fill="none" stroke="#bec6d3" stroke-width="1"/>
    <path id="Path_380" data-name="Path 380" d="M138.6,56.554H124.224V42.18" fill="none" stroke="#bec6d3" stroke-width="1"/>
    <path id="Path_381" data-name="Path 381" d="M124.224,56.555,142.709,38.07" fill="none" stroke="#bec6d3" stroke-width="1"/>
    <path id="Path_382" data-name="Path 382" d="M45.515,135.79H59.889v14.374" fill="none" stroke="#bec6d3" stroke-width="1"/>
    <path id="Path_383" data-name="Path 383" d="M59.889,135.79,41.412,154.275" fill="none" stroke="#bec6d3" stroke-width="1"/>
    <path id="Path_384" data-name="Path 384" d="M25.133,32.633a7.5,7.5,0,1,0-7.5-7.5A7.5,7.5,0,0,0,25.133,32.633Z" fill="none" stroke="#bec6d3" stroke-width="1"/>
    <path id="Path_385" data-name="Path 385" d="M45.974,17.639H41.969A18.481,18.481,0,0,0,32.63,8.3V4.286A3.386,3.386,0,0,0,29.243.9H21.023a3.387,3.387,0,0,0-3.386,3.386V8.292a18.573,18.573,0,0,0-9.347,9.347H4.284A3.387,3.387,0,0,0,.9,21.025v8.213a3.387,3.387,0,0,0,3.386,3.386H8.289a18.482,18.482,0,0,0,9.339,9.339v4.006a3.387,3.387,0,0,0,3.386,3.386h8.213a3.387,3.387,0,0,0,3.386-3.386V41.963a18.482,18.482,0,0,0,9.339-9.339h4.006a3.386,3.386,0,0,0,3.386-3.386V21.025A3.353,3.353,0,0,0,45.974,17.639Z" fill="none" stroke="#bec6d3" stroke-width="1"/>
    <path id="Path_386" data-name="Path 386" d="M156.7,32.633a7.5,7.5,0,1,0-7.5-7.5A7.5,7.5,0,0,0,156.7,32.633Z" fill="none" stroke="#bec6d3" stroke-width="1"/>
    <path id="Path_387" data-name="Path 387" d="M177.538,17.639h-4A18.483,18.483,0,0,0,164.194,8.3V4.286A3.386,3.386,0,0,0,160.807.9H152.6a3.387,3.387,0,0,0-3.387,3.386V8.292a18.487,18.487,0,0,0-9.339,9.339h-4.005a3.386,3.386,0,0,0-3.387,3.386V29.23a3.387,3.387,0,0,0,3.387,3.386h4.005a18.487,18.487,0,0,0,9.339,9.339v4.006a3.387,3.387,0,0,0,3.387,3.386h8.212a3.387,3.387,0,0,0,3.387-3.386V41.955a18.483,18.483,0,0,0,9.339-9.339h4a3.387,3.387,0,0,0,3.387-3.386v-8.2A3.381,3.381,0,0,0,177.538,17.639Z" fill="none" stroke="#bec6d3" stroke-width="1"/>
    <path id="Path_388" data-name="Path 388" d="M25.133,164.277a7.5,7.5,0,1,0-7.5-7.5A7.5,7.5,0,0,0,25.133,164.277Z" fill="none" stroke="#bec6d3" stroke-width="1"/>
    <path id="Path_389" data-name="Path 389" d="M45.974,149.283H41.969a18.487,18.487,0,0,0-9.339-9.339v-4.005a3.386,3.386,0,0,0-3.386-3.387H21.023a3.387,3.387,0,0,0-3.386,3.387v4.005A18.487,18.487,0,0,0,8.3,149.283H4.284A3.387,3.387,0,0,0,.9,152.67v8.212a3.387,3.387,0,0,0,3.386,3.387H8.289a18.484,18.484,0,0,0,9.339,9.339v4.005A3.387,3.387,0,0,0,21.015,181h8.213a3.387,3.387,0,0,0,3.386-3.387v-4.005a18.484,18.484,0,0,0,9.339-9.339h4.006a3.386,3.386,0,0,0,3.386-3.387V152.67A3.353,3.353,0,0,0,45.974,149.283Z" fill="none" stroke="#bec6d3" stroke-width="1"/>
    <path id="Path_390" data-name="Path 390" d="M156.7,164.277a7.5,7.5,0,1,0-7.5-7.5A7.5,7.5,0,0,0,156.7,164.277Z" fill="none" stroke="#bec6d3" stroke-width="1"/>
    <path id="Path_391" data-name="Path 391" d="M177.538,149.283h-4a18.49,18.49,0,0,0-9.339-9.339v-4.005a3.386,3.386,0,0,0-3.387-3.387H152.6a3.388,3.388,0,0,0-3.387,3.387v4.005a18.493,18.493,0,0,0-9.339,9.339h-4.005a3.387,3.387,0,0,0-3.387,3.387v8.212a3.387,3.387,0,0,0,3.387,3.387h4.005a18.489,18.489,0,0,0,9.339,9.339v4.005A3.387,3.387,0,0,0,152.6,181h8.212a3.386,3.386,0,0,0,3.387-3.387v-4.005a18.486,18.486,0,0,0,9.339-9.339h4a3.386,3.386,0,0,0,3.387-3.387V152.67A3.382,3.382,0,0,0,177.538,149.283Z" fill="none" stroke="#bec6d3" stroke-width="1"/>
  </g>
</svg>
