<svg xmlns="http://www.w3.org/2000/svg" width="823.75" height="741.923" viewBox="0 0 823.75 741.923">
  <g id="Static_assets-rafiki_1_" data-name="Static assets-rafiki (1)" transform="translate(-56.11 -78.3)">
    <g id="freepik--Shadow--inject-42" transform="translate(56.11 772.13)">
      <ellipse id="freepik--path--inject-42" cx="411.875" cy="24.047" rx="411.875" ry="24.047" fill="#f5f5f5"/>
    </g>
    <g id="freepik--character-1--inject-42" transform="translate(226.229 216.871)">
      <circle id="Ellipse_95" data-name="Ellipse 95" cx="23.898" cy="23.898" r="23.898" transform="translate(146.228 34.685)" fill="#263238"/>
      <path id="Path_274" data-name="Path 274" d="M229.952,185.287c-6.373,5.842-15.571,6.2-20.52.786s-3.824-14.594,2.549-20.351,15.571-6.2,20.52-.786S236.325,179.445,229.952,185.287Z" transform="translate(-57.319 -123.751)" fill="#15ace5"/>
      <circle id="Ellipse_96" data-name="Ellipse 96" cx="22.199" cy="22.199" r="22.199" transform="translate(101.397 53.219) rotate(-45)" fill="#263238"/>
      <path id="Path_275" data-name="Path 275" d="M238.167,197.026a190.033,190.033,0,0,1-7.9,17.716,189.377,189.377,0,0,1-9.5,16.8A148.313,148.313,0,0,1,209.426,247.5q-3.123,3.824-6.606,7.456c-1.147,1.232-2.358,2.4-3.59,3.569-.595.595-1.253,1.147-1.869,1.721l-.956.871a18.774,18.774,0,0,1-2,1.487,13.469,13.469,0,0,1-5.226,1.975,13.746,13.746,0,0,1-4.992-.17,18.565,18.565,0,0,1-6.67-2.931,42.721,42.721,0,0,1-7.945-7.393,116.572,116.572,0,0,1-11.046-15.635,247.664,247.664,0,0,1-16.378-33.16l7.8-3.972c3.08,5.035,6.245,10.154,9.517,15.1s6.543,9.9,10.027,14.573a113.8,113.8,0,0,0,10.855,13.086,27.787,27.787,0,0,0,5.587,4.525,3.824,3.824,0,0,0,1.614.616H187.1a2.422,2.422,0,0,0-.935.3h-.149l.744-.743c.489-.489,1-.956,1.466-1.487q1.466-1.508,2.868-3.123c1.869-2.124,3.675-4.376,5.374-6.713,3.441-4.652,6.628-9.58,9.665-14.636s5.778-10.345,8.5-15.656,5.162-10.876,7.308-16.038Z" transform="translate(-129.496 -90.031)" fill="#ff8b7b"/>
      <path id="Path_276" data-name="Path 276" d="M217.79,207.976c-2.507,4.992-9.9,13.617-15.7,19.989-4.249,4.567-7.5,7.987-7.5,7.987l-2.57-2.124L170.78,215.517c6.118-12.958,13.787-26.745,30.59-29.018C211.863,184.991,222.23,199.1,217.79,207.976Z" transform="translate(-97.308 -95.351)" fill="#263238"/>
      <path id="Path_277" data-name="Path 277" d="M190.849,211.509c-4.249,4.567-7.5,7.987-7.5,7.987l-2.57-2.124c2.124-5.226,5.757-13.319,9.814-16.272A24.493,24.493,0,0,1,190.849,211.509Z" transform="translate(-86.066 -78.81)" opacity="0.3"/>
      <path id="Path_278" data-name="Path 278" d="M154.38,205.5l2.655-14.636-17.865.68s3.484,11.79,8.115,16.994Z" transform="translate(-132.847 -90.323)" fill="#ff8b7b"/>
      <path id="Path_279" data-name="Path 279" d="M152.3,187.7l-13.255,2.974.276,4.418,17.865-.68Z" transform="translate(-132.993 -93.876)" fill="#ff8b7b"/>
      <path id="Path_280" data-name="Path 280" d="M207.538,429.269l-17.228,1.615.3-39.3,17.228-1.614Z" transform="translate(-75.351 133.531)" fill="#ff8b7b"/>
      <path id="Path_281" data-name="Path 281" d="M255.841,424.881l-16.973,2.592L228.48,389.193l16.973-2.613Z" transform="translate(-32.438 129.72)" fill="#ff8b7b"/>
      <path id="Path_282" data-name="Path 282" d="M245.537,404.936l18.927-3.866a1.275,1.275,0,0,1,1.529.871l4.8,14.445a2.825,2.825,0,0,1-2.124,3.526c-6.628,1.232-9.857,1.487-18.184,3.186-5.12,1.062-16.314,4.121-23.367,5.565s-8.667-5.438-5.842-6.67c12.746-5.523,17.908-10.834,21.689-15.465a4.525,4.525,0,0,1,2.57-1.593Z" transform="translate(-42.017 145.968)" fill="#263238"/>
      <path id="Path_283" data-name="Path 283" d="M205.657,406.83h20.329a1.614,1.614,0,0,1,1.572,1.232l3.951,16.038a2.571,2.571,0,0,1-2.549,3.208c-7.159,0-10.621-.489-19.458-.489-5.481,0-19.692.531-27.254.531s-8.752-7.5-5.672-8.179c13.829-3.038,21.88-7.223,26.235-11.237A4.249,4.249,0,0,1,205.657,406.83Z" transform="translate(-92.568 152.486)" fill="#263238"/>
      <path id="Path_284" data-name="Path 284" d="M190.54,391.584l-.17,20.266H207.6l.17-21.88Z" transform="translate(-75.284 133.531)" opacity="0.2"/>
      <path id="Path_285" data-name="Path 285" d="M245.474,386.59l-16.994,2.592,5.353,19.734,16.994-2.592Z" transform="translate(-32.438 129.731)" opacity="0.2"/>
      <path id="Path_286" data-name="Path 286" d="M261.955,291.081l-69.442,1.933c-16.314-99.841-8.625-102.645-8.625-102.645s11.917-2.889,23.919-4.695c1.827-.276,3.654-.531,5.438-.743a220.751,220.751,0,0,1,31.546-.892c1.551,0,3.1,0,4.652.149A211.176,211.176,0,0,1,274.3,187.1c-2.847,12.342-5.12,22.836-6.883,32.013-2.294,11.96-3.781,21.625-4.673,30.1a260.3,260.3,0,0,0-.786,41.869Z" transform="translate(-84.607 -98.223)" fill="#263238"/>
      <path id="Path_287" data-name="Path 287" d="M221.23,235.4c-3.356-10.43-2.847-32.161,1.02-39.278L225.9,205.3C223.609,217.257,222.122,226.922,221.23,235.4Z" transform="translate(-43.095 -84.409)" opacity="0.3"/>
      <path id="Path_288" data-name="Path 288" d="M226.544,176.858c-.446,8.5.446,17.377,4.886,21.476,0,0-4.461,21.052-29.74,33.436-16.251-20.181-1.763-32.565-1.763-32.565,11.322-3.016,11.535-10.621,8.5-22.942l8.964-3.7a5.459,5.459,0,0,1,9.156,4.291Z" transform="translate(-71.225 -112.518)" fill="#ff8b7b"/>
      <path id="Path_289" data-name="Path 289" d="M209.767,172.577a5.438,5.438,0,0,1,9.134,3.505,35.624,35.624,0,0,1-16.676,13.659,36.664,36.664,0,0,0-1.466-13.468Z" transform="translate(-63.603 -112.528)" opacity="0.2"/>
      <path id="Path_290" data-name="Path 290" d="M244.8,178.534c-6.373,15.932-8.6,22.793-19.437,28.678-16.314,8.858-34.307-1.784-32.863-19.118,1.3-15.613,11.344-39.044,29.209-40.786A22.517,22.517,0,0,1,244.8,178.534Z" transform="translate(-72.977 -139.43)" fill="#ff8b7b"/>
      <path id="Path_291" data-name="Path 291" d="M231.976,168.4c-16.378,2.655-40.149-8.093-35.56-20.329,3.165-8.5,14.169-2.464,14.169-2.464s17.61-4.907,30.08,4.758,15.741,31.864-7.435,46.373C225.922,188.541,225.263,174.606,231.976,168.4Z" transform="translate(-69.136 -143.532)" fill="#263238"/>
      <path id="Path_292" data-name="Path 292" d="M223.316,174.148a12.851,12.851,0,0,1-7.711,5.693c-4.249,1.062-6.139-2.74-4.758-6.649,1.232-3.526,4.95-8.327,9.113-7.647S225.419,170.664,223.316,174.148Z" transform="translate(-52.765 -118.858)" fill="#ff8b7b"/>
      <path id="Path_293" data-name="Path 293" d="M190.98,236.2s-7.52,103.473-7.52,170.367c0,53.107,11.514,172.279,11.514,172.279l24.875-2.464s4.1-127.839-.722-165.693c15.359-74.817,43.441-145.98,27.616-176.315Z" transform="translate(-83.053 -41.406)" fill="#263238"/>
      <path id="Path_294" data-name="Path 294" d="M219.849,392.52l-32.8,1,1.784,11.195,30.674-.467Z" transform="translate(-79.016 136.398)" fill="#15ace5"/>
      <path id="Path_295" data-name="Path 295" d="M211.821,256.946l-8.157,9.092c-7.8,23.2-2.634,55.4,6.67,85.29,9.5-37.663,19.522-72.416,22.05-98.97V250Z" transform="translate(-64.616 -23.833)" opacity="0.3"/>
      <path id="Path_296" data-name="Path 296" d="M194.13,236.018S219.3,350.113,229.584,415.944c16.527,53.107,37.217,155.5,37.217,155.5l22.963-5.481s-10.621-121.445-23.558-159.32c-.744-74.838,4.461-141.944-17.8-172.3Z" transform="translate(-71.057 -41.439)" fill="#263238"/>
      <path id="Path_297" data-name="Path 297" d="M229.4,404.934l29.145-5.842-.382-11.832-32.523,7.5Z" transform="translate(-35.631 130.484)" fill="#15ace5"/>
      <path id="Path_298" data-name="Path 298" d="M258.62,232.654l3.144,6.118c.234.489-.34,1-1.126,1.02l-72.863,2.018c-.616,0-1.147-.276-1.168-.659l-.637-6.2c0-.425.51-.807,1.19-.828l70.335-1.954A1.19,1.19,0,0,1,258.62,232.654Z" transform="translate(-80.231 -43.896)" fill="#15ace5"/>
      <path id="Path_299" data-name="Path 299" d="M216.585,240.922h1.869c.382,0,.659-.212.637-.446l-.871-8.051c0-.234-.361-.425-.744-.4h-1.869c-.382,0-.658.212-.637.446l.871,8.051C215.884,240.752,216.2,240.943,216.585,240.922Z" transform="translate(-47.627 -44.049)" fill="#263238"/>
      <path id="Path_300" data-name="Path 300" d="M190.175,241.711h1.869c.382,0,.659-.212.637-.446l-.871-8.051c0-.234-.361-.4-.743-.4H189.2c-.382,0-.659.212-.637.446l.871,8.051A.923.923,0,0,0,190.175,241.711Z" transform="translate(-77.319 -43.16)" fill="#263238"/>
      <path id="Path_301" data-name="Path 301" d="M203.375,241.3h1.891c.361,0,.659-.212.637-.467l-.892-8.03c0-.234-.34-.425-.722-.425H202.4c-.361,0-.659.212-.637.446l.892,8.051C202.674,241.132,202.993,241.323,203.375,241.3Z" transform="translate(-62.479 -43.643)" fill="#263238"/>
      <path id="Path_302" data-name="Path 302" d="M206.96,162.293c-.425,1.317-1.466,2.124-2.337,1.933s-1.19-1.551-.765-2.868,1.466-2.124,2.337-1.933S207.385,160.975,206.96,162.293Z" transform="translate(-60.329 -125.696)" fill="#263238"/>
      <path id="Path_303" data-name="Path 303" d="M199.993,160.185c-.446,1.338-1.487,2.124-2.337,1.933s-1.211-1.529-.765-2.868,1.466-2.124,2.315-1.912S200.418,158.783,199.993,160.185Z" transform="translate(-68.168 -128.049)" fill="#263238"/>
      <path id="Path_304" data-name="Path 304" d="M199.557,158.4l-2.847-1.869S197.517,159.5,199.557,158.4Z" transform="translate(-68.156 -128.919)" fill="#263238"/>
      <path id="Path_305" data-name="Path 305" d="M202.645,159.81a38.468,38.468,0,0,1-7.435,7.031,5.757,5.757,0,0,0,4.4,2.273Z" transform="translate(-69.842 -125.231)" fill="#ff5652"/>
      <path id="Path_306" data-name="Path 306" d="M199.366,168.861a.4.4,0,0,1-.127-.425.446.446,0,0,1,.531-.276,11.089,11.089,0,0,0,9.793-1.551.4.4,0,1,1,.51.616,11.769,11.769,0,0,1-10.621,1.721Z" transform="translate(-65.332 -117.734)" fill="#263238"/>
      <path id="Path_307" data-name="Path 307" d="M209.289,161.76a.807.807,0,0,1-.234-.34,6.161,6.161,0,0,0-4.079-4.057.807.807,0,0,1-.595-.977.85.85,0,0,1,1-.616,7.8,7.8,0,0,1,5.226,5.1.85.85,0,0,1-.51,1.041.786.786,0,0,1-.807-.149Z" transform="translate(-59.556 -129.795)" fill="#263238"/>
      <path id="Path_308" data-name="Path 308" d="M195.007,154.894v-.149a.828.828,0,0,1,.659-.956,7.9,7.9,0,0,1,7.1,1.933.807.807,0,0,1,0,1.147.828.828,0,0,1-1.147,0,6.224,6.224,0,0,0-5.629-1.466A.828.828,0,0,1,195.007,154.894Z" transform="translate(-70.085 -132.211)" fill="#263238"/>
      <path id="Path_309" data-name="Path 309" d="M228.779,406.759l-.234-.127a2.124,2.124,0,0,1-1.041-1.976,1.36,1.36,0,0,1,.595-1.275c1.806-1.3,7.5.956,8.136,1.211a.382.382,0,0,1,.255.361.425.425,0,0,1-.255.382C234.238,406.249,230.691,407.609,228.779,406.759ZM235,405c-2.294-.829-5.5-1.636-6.373-.977a.616.616,0,0,0-.234.574,1.487,1.487,0,0,0,.658,1.338c.892.595,3.123.255,5.884-.935Z" transform="translate(-33.544 148.16)" fill="#15ace5"/>
      <path id="Path_310" data-name="Path 310" d="M233.934,407.636c-1.869-.85-5.056-3.548-5.013-5.374a1.466,1.466,0,0,1,1.147-1.381,2.124,2.124,0,0,1,1.784.191c2.124,1.232,3,6.054,3.038,6.267a.467.467,0,0,1-.149.382.446.446,0,0,1-.4,0Zm-2.655-5.948a1.4,1.4,0,0,0-.977,0c-.489.17-.574.425-.574.616,0,1.19,2.358,3.526,4.249,4.461a8.943,8.943,0,0,0-2.485-4.95Z" transform="translate(-31.943 145.669)" fill="#15ace5"/>
      <path id="Path_311" data-name="Path 311" d="M187.759,410.686a6.692,6.692,0,0,1-3.951-.956,2.464,2.464,0,0,1-.956-1.954,1.211,1.211,0,0,1,.531-1.1c1.869-1.232,8.688,1.891,10.048,2.549a.4.4,0,0,1-.106.744,26.428,26.428,0,0,1-5.566.722Zm-3.144-3.505a1.465,1.465,0,0,0-.807.17.361.361,0,0,0-.149.382,1.721,1.721,0,0,0,.658,1.36c1.168.892,3.972,1,7.626.34a24.6,24.6,0,0,0-7.329-2.252Z" transform="translate(-83.741 151.987)" fill="#15ace5"/>
      <path id="Path_312" data-name="Path 312" d="M191.216,412.117h-.17c-2.252-.935-6.776-4.631-6.373-6.543,0-.425.382-.935,1.423-1.062,4.036-.489,5.544,6.84,5.608,7.159a.4.4,0,0,1-.149.382.445.445,0,0,1-.34.064Zm-4.865-6.861h-.276c-.425,0-.658.17-.68.361-.191,1.1,2.932,4.036,5.226,5.311-.489-1.742-1.848-5.672-4.27-5.672Z" transform="translate(-81.717 149.854)" fill="#15ace5"/>
      <path id="Path_313" data-name="Path 313" d="M206.507,160.478l-2.847-1.848S204.51,161.54,206.507,160.478Z" transform="translate(-60.342 -126.558)" fill="#263238"/>
      <path id="Path_314" data-name="Path 314" d="M235.457,190.59c1.827,2.762,3.293,5.247,4.78,7.9s2.889,5.289,4.249,7.987c2.655,5.4,5.077,10.919,7.222,16.591a146.56,146.56,0,0,1,5.459,17.483c.4,1.466.659,3.016,1,4.525s.637,3.016.871,4.567.51,2.974.722,4.695l.255,2.74v2.7a60.714,60.714,0,0,1-4.142,19.628,111.057,111.057,0,0,1-8.306,16.994,180.866,180.866,0,0,1-10.239,15.295,175.064,175.064,0,0,1-11.811,14.041L218.93,320.3c3.165-4.673,6.373-9.6,9.241-14.573s5.672-10.005,8.051-15.125a110.593,110.593,0,0,0,6.012-15.422,69.187,69.187,0,0,0,1.784-7.626,40.363,40.363,0,0,0,.467-7.222v-1.678l-.255-1.593c-.191-1.168-.552-2.613-.807-3.887s-.616-2.634-.977-3.951-.68-2.613-1.1-3.93c-1.551-5.226-3.569-10.345-5.608-15.465s-4.461-10.112-7.01-15.04c-1.232-2.464-2.528-4.907-3.866-7.329s-2.783-4.865-4.057-6.968Z" transform="translate(-43.175 -90.626)" fill="#ff8b7b"/>
      <path id="Path_315" data-name="Path 315" d="M235.315,185.626c8.327,2,18.056,26.978,18.056,26.978l-24.238,19.118s-14.063-20.5-12.215-31.482C218.491,190.852,224.715,183.1,235.315,185.626Z" transform="translate(-45.624 -96.751)" fill="#263238"/>
      <rect id="Rectangle_196" data-name="Rectangle 196" width="30.929" height="2.124" transform="matrix(0.017, -1, 1, 0.017, 0.31, 179.173)" fill="#15ace5"/>
      <rect id="Rectangle_197" data-name="Rectangle 197" width="10.515" height="2.124" transform="matrix(0.017, -1, 1, 0.017, 0, 198.419)" fill="#15ace5"/>
      <path id="Path_316" data-name="Path 316" d="M142.1,191.18,138.96,384.744l74.519,31.885L292.651,399.1l32.777-190.781Z" transform="translate(-133.083 -89.963)" fill="#15ace5"/>
      <path id="Path_317" data-name="Path 317" d="M191.845,203.18,174.83,385.358,237.5,371.486l27.743-161.445Z" transform="translate(-92.755 -76.472)" fill="#fff" opacity="0.2"/>
      <path id="Path_318" data-name="Path 318" d="M272.863,223.618,156.3,212.72l-2.294,72.756,88.221,8.242-4.312,27.616L204.61,324.8l-32.077-9.58h-.021l.616-19.034-19.395-1.806-1.253,39.639,49.878,14.891,51.769-5.4,11.237-71.949-91.195-8.518.765-24.259,94.19,8.816Z" transform="translate(-117.883 -65.746)" fill="#fff"/>
      <path id="Path_319" data-name="Path 319" d="M209.91,264.292l10.728,7.9,9.92-7.477L218.6,251.78Z" transform="translate(-53.316 -21.832)" fill="#ff8b7b"/>
      <path id="Path_320" data-name="Path 320" d="M228.679,249.6,214,254.231l11.981,12.937s7.265-6.373,8.242-13.468Z" transform="translate(-48.717 -24.283)" fill="#ff8b7b"/>
    </g>
    <g id="freepik--character-2--inject-42" transform="translate(478.1 78.3)">
      <path id="Path_321" data-name="Path 321" d="M339.944,426.951l14.976-4.865-9.3-35.327-14.976,4.865Z" transform="translate(-169.454 268.493)" fill="#ffb573"/>
      <path id="Path_322" data-name="Path 322" d="M351.522,402.563l-16.846,5.417a1.126,1.126,0,0,0-.765,1.381l3.505,13.6a2.783,2.783,0,0,0,3.484,1.806c5.82-2,8.5-3.25,15.911-5.651,4.546-1.487,15.55-4.822,21.838-6.861s4.1-8.2,1.253-7.9c-12.746,1.36-20.2.212-25.491-1.742a4.589,4.589,0,0,0-2.889-.042Z" transform="translate(-165.821 286.02)" fill="#263238"/>
      <path id="Path_323" data-name="Path 323" d="M330.64,391.646l14.976-4.886,4.8,18.226-15,4.865Z" transform="translate(-169.454 268.493)" opacity="0.2"/>
      <path id="Path_324" data-name="Path 324" d="M343.232,220.72s21.243,128.2,27.616,172.916c6.9,48.964,33.988,192.183,33.988,192.183l-27.807,7.69S337.305,454.73,326.047,407.125c-12.215-51.684-39.087-186.4-39.087-186.4Z" transform="translate(-218.562 81.819)" fill="#263238"/>
      <path id="Path_325" data-name="Path 325" d="M304,251.515c10.876,27.169,12.108,73.351,7.69,92.278-6.67-31.078-14.318-68.253-20.2-97.164C293.593,239.216,297.4,234.988,304,251.515Z" transform="translate(-213.469 103.599)" opacity="0.3"/>
      <path id="Path_326" data-name="Path 326" d="M331.324,407.229l29.782-8.2-.595-12.13L326.99,398.477Z" transform="translate(-173.557 268.65)" fill="#15ace5"/>
      <path id="Path_327" data-name="Path 327" d="M347.537,405.232a20.632,20.632,0,0,1-4.249.765.382.382,0,0,1-.34-.191.4.4,0,0,1,0-.4c.382-.489,3.675-4.758,5.736-4.631a1.317,1.317,0,0,1,1.126.722,2,2,0,0,1,.191,2.124A4.249,4.249,0,0,1,347.537,405.232Zm-3.378,0c2.846-.34,4.8-1.062,5.268-1.976a1.36,1.36,0,0,0-.149-1.338.68.68,0,0,0-.552-.361c-1.1-.128-3.186,1.954-4.567,3.611Z" transform="translate(-155.676 284.243)" fill="#15ace5"/>
      <path id="Path_328" data-name="Path 328" d="M343.962,407.254h-.17a.34.34,0,0,1-.276-.234c0-.17-1.806-4.376-.765-6.373a1.805,1.805,0,0,1,1.317-.956,1.4,1.4,0,0,1,1.615.637c.871,1.529-.34,5.374-1.551,6.755Zm0-6.734a1.062,1.062,0,0,0-.658.552,8.178,8.178,0,0,0,.573,5.077,7.477,7.477,0,0,0,1.083-5.374c-.106-.191-.3-.4-.828-.3Z" transform="translate(-156.201 282.965)" fill="#15ace5"/>
      <path id="Path_329" data-name="Path 329" d="M325.8,164.176c.489,1.041,1.232,2.528,1.891,3.824l2.124,4.015c1.4,2.7,2.868,5.353,4.376,7.966,3.017,5.268,6.2,10.388,9.538,15.273a131.515,131.515,0,0,0,10.728,13.638A63.6,63.6,0,0,0,366.371,219.3l-3.229-1.253a5.821,5.821,0,0,0,3.059.255,17.655,17.655,0,0,0,5.226-1.742,57.889,57.889,0,0,0,12.215-8.5,148.705,148.705,0,0,0,11.854-11.641c3.824-4.121,7.626-8.625,11.131-12.894l.212-.255a6.883,6.883,0,0,1,11.62,7.116,136.671,136.671,0,0,1-8.794,16.676,127.611,127.611,0,0,1-11.174,15.528,73.2,73.2,0,0,1-15.38,13.935,42.293,42.293,0,0,1-11.152,5.183,30.165,30.165,0,0,1-14.594.574,9.88,9.88,0,0,1-2.655-.956l-.574-.3A81.784,81.784,0,0,1,335.7,227.394a128.194,128.194,0,0,1-14.126-16.123,175.446,175.446,0,0,1-11.492-17.377c-1.721-3-3.356-5.99-4.95-9.071-.786-1.529-1.572-3.059-2.316-4.631s-1.423-3.059-2.23-4.971a13.808,13.808,0,0,1,25.151-11.365Z" transform="translate(-204.42 9.228)" fill="#15ace5"/>
      <path id="Path_330" data-name="Path 330" d="M330.608,187.12c-6.67-17.716-20.839-18.014-26.978-13.319.446.828.913,1.657,1.381,2.485a180.392,180.392,0,0,0,10.94,16.8,138.837,138.837,0,0,0,13.319,15.677c1.529,1.508,3.1,3,4.737,4.44A67.976,67.976,0,0,0,330.608,187.12Z" transform="translate(-199.82 26.179)" opacity="0.3"/>
      <path id="Path_331" data-name="Path 331" d="M360.045,180.506l13.638,2.124-1.636-15.061s-19.395-1.593-20.457,3.7l2.252,4.61A8.5,8.5,0,0,0,360.045,180.506Z" transform="translate(-145.9 21.81)" fill="#ffb573"/>
      <path id="Path_332" data-name="Path 332" d="M374.157,176.131l-2.592-10.791-10.345,4.546,1.636,15.04Z" transform="translate(-135.073 19.557)" fill="#ffb573"/>
      <path id="Path_333" data-name="Path 333" d="M279.51,428.224h15.741l2.039-36.474H281.549Z" transform="translate(-226.938 274.103)" fill="#ffb573"/>
      <path id="Path_334" data-name="Path 334" d="M297.721,408.06H280.068a1.126,1.126,0,0,0-1.168,1.083l-.85,14a2.783,2.783,0,0,0,2.74,2.8c6.16-.106,9.113-.467,16.888-.467,4.78,0,20.8.489,27.4.489s6.373-6.543,3.611-7.138c-12.555-2.634-23.771-6.373-28.232-9.793A4.248,4.248,0,0,0,297.721,408.06Z" transform="translate(-228.579 292.44)" fill="#263238"/>
      <path id="Path_335" data-name="Path 335" d="M281.032,391.76h15.741l-1.062,18.8H279.97Z" transform="translate(-226.42 274.114)" opacity="0.2"/>
      <path id="Path_336" data-name="Path 336" d="M327.781,220.362s-1.36,137.632-3.909,182.687c-2.8,49.368-13.957,195.667-13.957,195.667H281.047s-1.976-142.326-3.717-191.185c-1.891-53.107-3.93-187.212-3.93-187.212Z" transform="translate(-233.807 81.369)" fill="#263238"/>
      <path id="Path_337" data-name="Path 337" d="M277.238,404.26H308.4l1.742-10.94-34.413,1.7Z" transform="translate(-231.187 275.868)" fill="#15ace5"/>
      <path id="Path_338" data-name="Path 338" d="M292.336,411.45a20.2,20.2,0,0,1-4.249-.552.361.361,0,0,1-.276-.3.4.4,0,0,1,.149-.361c.51-.361,4.971-3.4,6.883-2.634a1.36,1.36,0,0,1,.85,1.02,2.125,2.125,0,0,1-.446,2A4.25,4.25,0,0,1,292.336,411.45Zm-3.186-1.083c2.8.552,4.886.467,5.608-.255a1.317,1.317,0,0,0,.276-1.317.637.637,0,0,0-.4-.51C293.589,407.881,290.977,409.2,289.15,410.367Z" transform="translate(-217.608 291.79)" fill="#15ace5"/>
      <path id="Path_339" data-name="Path 339" d="M288.212,412.831a.255.255,0,0,1-.17,0,.34.34,0,0,1-.191-.3c0-.191-.382-4.716,1.211-6.245a1.891,1.891,0,0,1,1.551-.51,1.4,1.4,0,0,1,1.338,1.1c.361,1.721-1.976,5.013-3.548,5.948a.318.318,0,0,1-.191,0Zm2.124-6.373a1.126,1.126,0,0,0-.786.319,8.115,8.115,0,0,0-1.041,4.992c1.381-1.147,2.931-3.654,2.7-4.78,0-.212-.17-.467-.7-.531Z" transform="translate(-217.605 289.857)" fill="#15ace5"/>
      <path id="Path_340" data-name="Path 340" d="M270.16,168.349a10.048,10.048,0,0,1,8.5-11.683h.191c5.077-.743,11.45-1.508,17.7-1.806a314.163,314.163,0,0,1,35.794,0c5.5.51,10.876,1.423,15.167,2.252h.17a15.082,15.082,0,0,1,11.45,10.494c5.141,17.313,11.259,52.661,3.25,127.711H278.062c-.595-7.52,1.083-31.992-.149-63.155a494.591,494.591,0,0,0-7.754-63.813Z" transform="translate(-237.619 7.201)" fill="#15ace5"/>
      <path id="Path_341" data-name="Path 341" d="M270.46,164.082c1.763,10.069,3.909,23.771,5.4,38.237,0,0,7.69-15.082,9.092-27.977S275.346,160.471,270.46,164.082Z" transform="translate(-237.112 16.099)" opacity="0.3"/>
      <path id="Path_342" data-name="Path 342" d="M281.81,154.721s6.691,11.79,24.259,16.8c15.507-8.5,11.216-16.994,11.216-16.994" transform="translate(-224.352 7.403)" fill="#f5f5f5"/>
      <path id="Path_343" data-name="Path 343" d="M317.274,175.7c-10.409-2.464-12.236-8.9-11.535-15.975a42.309,42.309,0,0,1,.828-5.268l-13.043-10.834-9.581-7.945c2.655,11.535,5.651,32.544-2.124,40.234,0,0,6.373,10.621,24.259,9.687C321.119,184.772,317.274,175.7,317.274,175.7Z" transform="translate(-224.34 -13.789)" fill="#ffb573"/>
      <path id="Path_344" data-name="Path 344" d="M298.088,161.222l-2.974-3.8-6.9,5.438Z" transform="translate(-217.156 10.652)" fill="#f5f5f5"/>
      <path id="Path_345" data-name="Path 345" d="M300.906,174.418a30.8,30.8,0,0,1,3.038-12.13c-5.268-1.487-18.651-9.2-18.651-9.2l-4.992,3.038A33.988,33.988,0,0,0,300.906,174.418Z" transform="translate(-226.049 5.784)" fill="#fff"/>
      <path id="Path_346" data-name="Path 346" d="M292.86,161.222l3.441-3.8,6.415,5.438Z" transform="translate(-211.928 10.652)" fill="#f5f5f5"/>
      <path id="Path_347" data-name="Path 347" d="M299.26,172.986a66.571,66.571,0,0,0-4.78-10.855c5.268-1.487,3.5-8.9,3.5-8.9l5.608,2.358S312.43,168.737,299.26,172.986Z" transform="translate(-210.107 5.942)" fill="#fff"/>
      <path id="Path_348" data-name="Path 348" d="M294.558,161.611c.234.913,0,1.742-.531,1.869s-1.126-.489-1.36-1.4,0-1.742.552-1.869S294.346,160.7,294.558,161.611Z" transform="translate(-212.246 13.769)" fill="#15ace5"/>
      <path id="Path_349" data-name="Path 349" d="M300.408,150.254a42.311,42.311,0,0,0-.828,5.268c-4.865-.977-11.365-6.16-12.045-11.131a22.646,22.646,0,0,1-.17-4.971Z" transform="translate(-218.18 -9.584)" opacity="0.2"/>
      <path id="Path_350" data-name="Path 350" d="M305.4,144.575c6.479,1.529,7.626-13.872,3.632-21.5-3.208-6.139-12.087-3.909-14.4-1.338s5.077,19.926,5.077,19.926Z" transform="translate(-210.446 -32.392)" fill="#263238"/>
      <path id="Path_351" data-name="Path 351" d="M281.294,141.288c3.335,15.316,4.5,24.429,13.553,31.418a20.372,20.372,0,0,0,32.947-14.679c1.19-14.254-4.461-36.9-20.563-41.232a20.605,20.605,0,0,0-25.937,24.493Z" transform="translate(-225.556 -35.987)" fill="#ffb573"/>
      <path id="Path_352" data-name="Path 352" d="M290.122,147.569c4.822-.4,10.621-10.515,3.632-21.5-3.739-5.842-12.066-3.887-14.4-1.338-6.373,6.925,5.077,19.9,5.077,19.9Z" transform="translate(-229.286 -28.886)" fill="#263238"/>
      <path id="Path_353" data-name="Path 353" d="M293.043,142.128c9.538-.467,29.464-7.35,32.331-16.633,5.587-18.014-14.318-18.524-25.194-8.837-7.159,6.373-13.85,15.592-26.851,17.929C275.072,137.858,282.443,142.659,293.043,142.128Z" transform="translate(-233.886 -42.224)" fill="#263238"/>
      <path id="Path_354" data-name="Path 354" d="M288.713,138.793c6.713-1.147,14.211-7.414,15.443-14.233,2.443-13.192-6.606-9.92-14.551-2.124-4.928,4.758-6.373,10.027-15.465,12.746C275.563,137.264,281.171,140.047,288.713,138.793Z" transform="translate(-232.975 -36.34)" fill="#263238"/>
      <path id="Path_355" data-name="Path 355" d="M294.453,123.486c6.033,6.373,15.613,12.406,18.524,8.5s-2.7-18.205-10.112-18.821S290.077,118.834,294.453,123.486Z" transform="translate(-211.907 -39.153)" fill="#263238"/>
      <path id="Path_356" data-name="Path 356" d="M280.4,140.816a17,17,0,0,0,9.708,5.778c4.843.807,5.927-3.654,3.463-7.987-2.124-3.887-7.371-9.007-11.684-7.86S277.281,137.035,280.4,140.816Z" transform="translate(-228.277 -19.52)" fill="#ffb573"/>
      <ellipse id="Ellipse_97" data-name="Ellipse 97" cx="1.508" cy="2.294" rx="1.508" ry="2.294" transform="translate(79.412 104.647) rotate(-10.24)" fill="#263238"/>
      <path id="Path_357" data-name="Path 357" d="M299.059,129.094c.191,1.253,1.02,2.124,1.827,2.124s1.338-1.211,1.147-2.464-1.02-2.124-1.848-2.124S298.953,127.841,299.059,129.094Z" transform="translate(-204.978 -23.964)" fill="#263238"/>
      <path id="Path_358" data-name="Path 358" d="M297,128.34a47.327,47.327,0,0,0,7.669,10.027,7.18,7.18,0,0,1-5.842,1.827Z" transform="translate(-207.274 -22.041)" fill="#ed893e"/>
      <path id="Path_359" data-name="Path 359" d="M299.883,137.866a10.876,10.876,0,0,1-7.924-3.271.369.369,0,0,1,.552-.489,10.621,10.621,0,0,0,8.752,2.932.364.364,0,1,1,.085.722,11.9,11.9,0,0,1-1.466.106Z" transform="translate(-213.046 -15.699)" fill="#263238"/>
      <path id="Path_360" data-name="Path 360" d="M290.329,129.267a.723.723,0,0,1-.361-.106.744.744,0,0,1-.3-1.02,7.159,7.159,0,0,1,5.587-3.76.722.722,0,0,1,.765.7.743.743,0,0,1-.7.786,5.651,5.651,0,0,0-4.249,3.016A.744.744,0,0,1,290.329,129.267Z" transform="translate(-215.622 -26.494)" fill="#263238"/>
      <path id="Path_361" data-name="Path 361" d="M305.045,127.623a.765.765,0,0,1-.616-.34,6.246,6.246,0,0,0-4.716-2.847.743.743,0,1,1,0-1.487h0a7.732,7.732,0,0,1,5.948,3.505.743.743,0,0,1-.191,1.041A.828.828,0,0,1,305.045,127.623Z" transform="translate(-205.059 -28.101)" fill="#263238"/>
      <path id="Path_362" data-name="Path 362" d="M305.868,180.467h0l-.212.191-.51.467-1.02,1.126c-.743.765-1.529,1.593-2.273,2.422-1.508,1.7-3.017,3.484-4.418,5.374a88.915,88.915,0,0,0-7.6,12.066,102.368,102.368,0,0,0-9.623,27.616,35.3,35.3,0,0,0-.871,6.118,31.862,31.862,0,0,0,.3,6.267,69,69,0,0,0,3.569,13.85,175.363,175.363,0,0,0,13.489,28.253l.191.34a6.883,6.883,0,0,1-10.621,8.5,112.122,112.122,0,0,1-12.129-13.192,117.044,117.044,0,0,1-10.09-15.061,78.345,78.345,0,0,1-7.35-17.78,54.447,54.447,0,0,1-1.827-10.345,58.141,58.141,0,0,1,.34-10.621,109.673,109.673,0,0,1,3.42-18.375,106.4,106.4,0,0,1,6.543-17.78,100.2,100.2,0,0,1,9.814-16.527,83.61,83.61,0,0,1,6.245-7.562c1.126-1.211,2.273-2.422,3.526-3.59l1.976-1.784,1.062-.892,1.423-1.126a13.808,13.808,0,1,1,16.654,22.007Z" transform="translate(-254.762 8.295)" fill="#15ace5"/>
      <path id="Path_363" data-name="Path 363" d="M282.475,214.948l8.646-1.508-8.051,18.184s-14.3,0-13.638-7.456l1.7-2.273A18.141,18.141,0,0,1,282.475,214.948Z" transform="translate(-238.293 73.634)" fill="#ffb573"/>
      <path id="Path_364" data-name="Path 364" d="M295.6,222.553l-7.371,14.657-12.385-5.629,8.051-18.141Z" transform="translate(-231.064 73.634)" fill="#ffb573"/>
      <path id="Path_365" data-name="Path 365" d="M327.25,96.229l29.719,140.244,59.076,10.706,54.233-25.725L462.418,78.3Z" transform="translate(-173.265 -78.3)" fill="#15ace5"/>
      <path id="Path_366" data-name="Path 366" d="M327.25,96.229l29.719,140.244,59.076,10.706,54.233-25.725L462.418,78.3Z" transform="translate(-173.265 -78.3)" fill="#fff" opacity="0.3"/>
      <path id="Path_367" data-name="Path 367" d="M359.84,92.2l17.823,134.318,42.953-20.372L413.945,85.02Z" transform="translate(-136.625 -70.745)" fill="#fff" opacity="0.2"/>
      <path id="Path_368" data-name="Path 368" d="M426.738,94.64,340.79,106.047l3.463,17.61,69.464-9.2,3.951,56.484-23.473,8.009-24.748-1.614-2.7-13.829L352.431,165.4l5.651,28.826,38.471,2.507,36.495-12.448Z" transform="translate(-158.042 -59.929)" fill="#fff"/>
    </g>
  </g>
</svg>
