<svg xmlns="http://www.w3.org/2000/svg" width="179.683" height="171.08" viewBox="0 0 179.683 171.08">
  <g id="template_21_web_development_step5" transform="translate(-0.5 -0.5)">
    <path id="Path_408" data-name="Path 408" d="M40.473,123.5H21.3" fill="none" stroke="#bec6d3" stroke-width="1"/>
    <path id="Path_409" data-name="Path 409" d="M159.379,123.5H138.57" fill="none" stroke="#bec6d3" stroke-width="1"/>
    <path id="Path_410" data-name="Path 410" d="M159.379,42.778H21.3" fill="none" stroke="#bec6d3" stroke-width="1"/>
    <path id="Path_411" data-name="Path 411" d="M169.531,113.377V52.9" fill="none" stroke="#bec6d3" stroke-width="1"/>
    <path id="Path_412" data-name="Path 412" d="M11.152,113.377V52.9" fill="none" stroke="#bec6d3" stroke-width="1"/>
    <path id="Path_413" data-name="Path 413" d="M11.152,52.9A10.125,10.125,0,1,0,1,42.778,10.138,10.138,0,0,0,11.152,52.9Z" fill="none" stroke="#bec6d3" stroke-width="1"/>
    <path id="Path_414" data-name="Path 414" d="M169.531,52.9a10.125,10.125,0,1,0-10.152-10.125A10.138,10.138,0,0,0,169.531,52.9Z" fill="none" stroke="#bec6d3" stroke-width="1"/>
    <path id="Path_415" data-name="Path 415" d="M11.152,133.626A10.125,10.125,0,1,0,1,123.5,10.138,10.138,0,0,0,11.152,133.626Z" fill="none" stroke="#bec6d3" stroke-width="1"/>
    <path id="Path_416" data-name="Path 416" d="M169.531,133.626A10.125,10.125,0,1,0,159.379,123.5,10.138,10.138,0,0,0,169.531,133.626Z" fill="none" stroke="#bec6d3" stroke-width="1"/>
    <path id="Path_417" data-name="Path 417" d="M89.522,121,40.473,92.177,89.522,63.365l49.057,28.812Z" fill="none" stroke="#bec6d3" stroke-width="1"/>
    <path id="Path_418" data-name="Path 418" d="M40.473,92.177v50.012L89.522,171l49.057-28.811V92.177" fill="none" stroke="#bec6d3" stroke-width="1"/>
    <path id="Path_419" data-name="Path 419" d="M89.522,121v50" fill="none" stroke="#bec6d3" stroke-width="1"/>
    <path id="Path_420" data-name="Path 420" d="M49.288,65.413H35.1a4.2,4.2,0,1,1,0-8.407H49.288a4.2,4.2,0,1,1,0,8.407Z" fill="none" stroke="#bec6d3" stroke-width="1"/>
    <path id="Path_421" data-name="Path 421" d="M146.487,65.413H118.265a4.2,4.2,0,1,1,0-8.407h28.222a4.2,4.2,0,1,1,0,8.407Z" fill="none" stroke="#bec6d3" stroke-width="1"/>
    <path id="Path_422" data-name="Path 422" d="M61.9,65.413a4.2,4.2,0,1,0-4.215-4.2A4.209,4.209,0,0,0,61.9,65.413Z" fill="none" stroke="#bec6d3" stroke-width="1"/>
    <path id="Path_423" data-name="Path 423" d="M9.75,9.416a4.2,4.2,0,1,0-4.215-4.2A4.209,4.209,0,0,0,9.75,9.416Z" fill="none" stroke="#bec6d3" stroke-width="1"/>
    <path id="Path_424" data-name="Path 424" d="M85.765,29.51a4.2,4.2,0,1,0-4.215-4.2A4.209,4.209,0,0,0,85.765,29.51Z" fill="none" stroke="#bec6d3" stroke-width="1"/>
    <path id="Path_425" data-name="Path 425" d="M154.916,13.619a4.2,4.2,0,1,0-4.215-4.2A4.209,4.209,0,0,0,154.916,13.619Z" fill="none" stroke="#bec6d3" stroke-width="1"/>
    <path id="Path_426" data-name="Path 426" d="M169.531,153.629a4.2,4.2,0,1,0-4.215-4.2A4.209,4.209,0,0,0,169.531,153.629Z" fill="none" stroke="#bec6d3" stroke-width="1"/>
    <path id="Path_427" data-name="Path 427" d="M152.03,168.7a9.76,9.76,0,1,0-9.786-9.76A9.773,9.773,0,0,0,152.03,168.7Z" fill="none" stroke="#bec6d3" stroke-width="1"/>
    <path id="Path_428" data-name="Path 428" d="M15.331,161.241a9.76,9.76,0,1,0-9.786-9.76A9.773,9.773,0,0,0,15.331,161.241Z" fill="none" stroke="#bec6d3" stroke-width="1"/>
    <path id="Path_429" data-name="Path 429" d="M49.05,33.914A12.811,12.811,0,1,0,36.2,21.1,12.829,12.829,0,0,0,49.05,33.914Z" fill="none" stroke="#bec6d3" stroke-width="1"/>
    <path id="Path_430" data-name="Path 430" d="M123.79,30.479a14.739,14.739,0,1,0-14.779-14.739A14.76,14.76,0,0,0,123.79,30.479Z" fill="none" stroke="#bec6d3" stroke-width="1"/>
    <path id="Path_431" data-name="Path 431" d="M74.027,65.413a4.2,4.2,0,1,0-4.215-4.2A4.209,4.209,0,0,0,74.027,65.413Z" fill="none" stroke="#bec6d3" stroke-width="1"/>
  </g>
</svg>
