<svg xmlns="http://www.w3.org/2000/svg" width="185.813" height="183.263" viewBox="0 0 185.813 183.263">
  <g id="template_21_web_development_step1" transform="translate(-0.14 -0.102)">
    <circle id="Ellipse_99" data-name="Ellipse 99" cx="65.175" cy="65.175" r="65.175" transform="translate(0.64 0.602)" fill="none" stroke="#bec6d3" stroke-width="1"/>
    <circle id="Ellipse_100" data-name="Ellipse 100" cx="44.351" cy="44.351" r="44.351" transform="translate(21.464 21.425)" fill="none" stroke="#bec6d3" stroke-width="1"/>
    <path id="Path_369" data-name="Path 369" d="M127.4,118.053a9.5,9.5,0,0,1,13.435,0l38.321,38.321a15.518,15.518,0,1,1-21.946,21.946L118.892,140a9.5,9.5,0,0,1,0-13.435Z" fill="none" stroke="#bec6d3" stroke-width="1"/>
    <line id="Line_45" data-name="Line 45" x2="10.411" y2="11.213" transform="translate(112.635 111.089)" fill="none" stroke="#bec6d3" stroke-width="1"/>
    <line id="Line_46" data-name="Line 46" y1="22.426" x2="22.426" transform="translate(125.53 124.999)" fill="none" stroke="#bec6d3" stroke-width="1"/>
    <circle id="Ellipse_101" data-name="Ellipse 101" cx="21.926" cy="21.926" r="21.926" transform="translate(141.601 3.805)" fill="none" stroke="#bec6d3" stroke-width="1"/>
    <circle id="Ellipse_102" data-name="Ellipse 102" cx="2.704" cy="2.704" r="2.704" transform="translate(148.008 61.471)" fill="none" stroke="#bec6d3" stroke-width="1"/>
    <circle id="Ellipse_103" data-name="Ellipse 103" cx="2.704" cy="2.704" r="2.704" transform="translate(176.841 125.544)" fill="none" stroke="#bec6d3" stroke-width="1"/>
    <circle id="Ellipse_104" data-name="Ellipse 104" cx="2.704" cy="2.704" r="2.704" transform="translate(99.953 160.785)" fill="none" stroke="#bec6d3" stroke-width="1"/>
    <circle id="Ellipse_105" data-name="Ellipse 105" cx="23.528" cy="23.528" r="23.528" transform="translate(16.658 135.156)" fill="none" stroke="#bec6d3" stroke-width="1"/>
    <path id="Path_370" data-name="Path 370" d="M73.324,158.683c0,1.329-.808,2.675-2.453,3.972a23.723,23.723,0,0,1-7.058,3.482c-6.024,2.008-14.378,3.259-23.628,3.259s-17.6-1.251-23.628-3.259A23.724,23.724,0,0,1,9.5,162.655c-1.645-1.3-2.453-2.643-2.453-3.972s.808-2.675,2.453-3.972a23.748,23.748,0,0,1,7.058-3.482c6.024-2.008,14.378-3.259,23.628-3.259s17.6,1.251,23.628,3.259a23.747,23.747,0,0,1,7.058,3.482C72.516,156.008,73.324,157.354,73.324,158.683Z" fill="none" stroke="#bec6d3" stroke-width="1"/>
    <rect id="Rectangle_214" data-name="Rectangle 214" width="24.629" height="24.629" transform="translate(161.627 76.896) rotate(45)" fill="none" stroke="#bec6d3" stroke-width="1"/>
    <path id="Path_371" data-name="Path 371" d="M21.765,56.566H49V71.784H71.822m34.039-23.227H71.822M105.861,87.8H60.209" fill="none" stroke="#bec6d3" stroke-width="1"/>
    <circle id="Ellipse_106" data-name="Ellipse 106" cx="2.704" cy="2.704" r="2.704" transform="translate(80.732 67.879)" fill="none" stroke="#bec6d3" stroke-width="1"/>
  </g>
</svg>
