<svg xmlns="http://www.w3.org/2000/svg" width="186.038" height="183.53" viewBox="0 0 186.038 183.53">
  <g id="template_21_web_development_step4" transform="translate(-0.134 -0.5)">
    <path id="Path_392" data-name="Path 392" d="M136.016,157.012A75.158,75.158,0,0,1,52.1,158.85" fill="none" stroke="#bec6d3" stroke-width="1"/>
    <path id="Path_393" data-name="Path 393" d="M125.958,28.287a75.117,75.117,0,0,1,41.757,63.578" fill="none" stroke="#bec6d3" stroke-width="1"/>
    <path id="Path_394" data-name="Path 394" d="M17.806,101.334q-.208-2.818-.212-5.686A75.108,75.108,0,0,1,59.9,28.059" fill="none" stroke="#bec6d3" stroke-width="1"/>
    <path id="Path_395" data-name="Path 395" d="M92.7,50.509A24.755,24.755,0,1,0,67.944,25.755,24.755,24.755,0,0,0,92.7,50.509Z" fill="none" stroke="#bec6d3" stroke-width="1"/>
    <path id="Path_396" data-name="Path 396" d="M185.672,97.985H134.5v51.176h51.176Z" fill="none" stroke="#bec6d3" stroke-width="1"/>
    <path id="Path_397" data-name="Path 397" d="M32.323,149.161H1l15.662-27.132L32.323,94.9l15.662,27.132,15.67,27.132Z" fill="none" stroke="#bec6d3" stroke-width="1"/>
    <path id="Path_398" data-name="Path 398" d="M106.449,69.668a26.106,26.106,0,0,1-13.742,48.3" fill="none" stroke="#bec6d3" stroke-width="1"/>
    <path id="Path_399" data-name="Path 399" d="M80.191,114.79a26.109,26.109,0,0,1,12.5-49.027" fill="none" stroke="#bec6d3" stroke-width="1"/>
    <path id="Path_400" data-name="Path 400" d="M53.328,3.941,63.655,14.268,53.328,24.594" fill="none" stroke="#bec6d3" stroke-width="1"/>
    <path id="Path_401" data-name="Path 401" d="M63.655,14.268H37.1" fill="none" stroke="#bec6d3" stroke-width="1"/>
    <path id="Path_402" data-name="Path 402" d="M185.01,55.436,174.684,65.763,164.357,55.436" fill="none" stroke="#bec6d3" stroke-width="1"/>
    <path id="Path_403" data-name="Path 403" d="M174.684,65.763V39.211" fill="none" stroke="#bec6d3" stroke-width="1"/>
    <path id="Path_404" data-name="Path 404" d="M22,167.8l10.327-10.318L42.65,167.8" fill="none" stroke="#bec6d3" stroke-width="1"/>
    <path id="Path_405" data-name="Path 405" d="M32.323,157.486V184.03" fill="none" stroke="#bec6d3" stroke-width="1"/>
    <path id="Path_406" data-name="Path 406" d="M82.658,55.436,92.985,65.763,82.658,76.09" fill="none" stroke="#bec6d3" stroke-width="1"/>
    <path id="Path_407" data-name="Path 407" d="M103.026,128.3,92.7,117.977l10.327-10.327" fill="none" stroke="#bec6d3" stroke-width="1"/>
  </g>
</svg>
