<svg id="Outer_space-cuate" data-name="Outer space-cuate" xmlns="http://www.w3.org/2000/svg" width="607.559" height="641" viewBox="0 0 607.559 641">
  <g id="freepik--background-complete--inject-11" transform="translate(0 0)">
    <ellipse id="Ellipse_136" data-name="Ellipse 136" cx="28.91" cy="28.91" rx="28.91" ry="28.91" transform="translate(248.444 417.056)" fill="#ebebeb"/>
    <path id="Path_2106" data-name="Path 2106" d="M267.208,321.37a6.54,6.54,0,0,0,1.073,3.924,7.878,7.878,0,0,0,3.145,2.778,5.688,5.688,0,0,0,4.248.353,5.879,5.879,0,0,0,3.233-2.484,8.569,8.569,0,0,1-3.469,1.47,4.821,4.821,0,0,1-1.778,0,5.219,5.219,0,0,1-1.676-.544c-.279-.132-.544-.279-.808-.426a5.457,5.457,0,0,1-.764-.529,9.048,9.048,0,0,1-1.337-1.264,10.01,10.01,0,0,1-1.867-3.278Z" transform="translate(-0.377 107.444)" fill="#c7c7c7"/>
    <path id="Path_2107" data-name="Path 2107" d="M276.022,324.151a4.2,4.2,0,0,0-.6-2.763,5.335,5.335,0,0,0-2.175-1.984,4.012,4.012,0,0,0-3.028-.22,3.866,3.866,0,0,0-2.16,1.852,6.583,6.583,0,0,1,2.4-.9,4.027,4.027,0,0,1,2.234.4,6.908,6.908,0,0,1,3.336,3.615Z" transform="translate(1.214 106.324)" fill="#c7c7c7"/>
    <path id="Path_2108" data-name="Path 2108" d="M263.606,342.28a3.968,3.968,0,0,0-.073,2.763,4.939,4.939,0,0,0,1.676,2.337,3.777,3.777,0,0,0,2.851.764,3.836,3.836,0,0,0,2.425-1.323,6.807,6.807,0,0,1-2.469.338,3.763,3.763,0,0,1-2.043-.779,5.775,5.775,0,0,1-1.47-1.734A7.156,7.156,0,0,1,263.606,342.28Z" transform="translate(13.748 117.267)" fill="#c7c7c7"/>
    <path id="Path_2109" data-name="Path 2109" d="M268.388,345.861a2.528,2.528,0,0,0,.191-1.94,3.233,3.233,0,0,0-1.161-1.69,2.646,2.646,0,0,0-2.072-.529,2.5,2.5,0,0,0-1.631,1.073,5.615,5.615,0,0,1,1.69-.073,2.514,2.514,0,0,1,1.249.529,4.982,4.982,0,0,1,1.734,2.631Z" transform="translate(14.963 116.978)" fill="#c7c7c7"/>
    <path id="Path_2110" data-name="Path 2110" d="M259.053,324.59a2.587,2.587,0,0,0-.823,1.852,2.851,2.851,0,0,0,.823,2.043,2.484,2.484,0,0,0,2.116.72,2.939,2.939,0,0,0,1.822-.867,9.747,9.747,0,0,1-1.808-.118,2.293,2.293,0,0,1-1.235-.617,2.939,2.939,0,0,1-.735-1.264,5.406,5.406,0,0,1-.162-1.749Z" transform="translate(28.721 108.957)" fill="#c7c7c7"/>
    <path id="Path_2111" data-name="Path 2111" d="M260.654,327.547a1.661,1.661,0,0,0,.72-1.279,1.969,1.969,0,0,0-.573-1.47,1.764,1.764,0,0,0-1.573-.5,1.852,1.852,0,0,0-1.249.75,8.583,8.583,0,0,1,1.22.235,1.47,1.47,0,0,1,.706.412,2.072,2.072,0,0,1,.485.735A4.233,4.233,0,0,1,260.654,327.547Z" transform="translate(30.707 108.807)" fill="#c7c7c7"/>
    <path id="Path_2112" data-name="Path 2112" d="M271.142,346.231a2.558,2.558,0,0,0,1.6,1.249,2.778,2.778,0,0,0,2.19-.25,2.528,2.528,0,0,0,1.235-1.867,3.072,3.072,0,0,0-.412-1.984,8.148,8.148,0,0,1-.558,1.72,2.116,2.116,0,0,1-.9,1.044,2.822,2.822,0,0,1-1.4.412,5.263,5.263,0,0,1-1.764-.323Z" transform="translate(-3.459 117.784)" fill="#c7c7c7"/>
    <path id="Path_2113" data-name="Path 2113" d="M275.7,343.785a1.646,1.646,0,0,0-1.058-1.014,1.969,1.969,0,0,0-1.617.176,1.808,1.808,0,0,0-.882,1.47,1.882,1.882,0,0,0,.426,1.4,12.331,12.331,0,0,1,.529-1.132,1.572,1.572,0,0,1,.573-.588,2.584,2.584,0,0,1,.823-.294A4.321,4.321,0,0,1,275.7,343.785Z" transform="translate(-4.413 117.452)" fill="#c7c7c7"/>
    <path id="Path_2114" data-name="Path 2114" d="M277.629,331.48a2.675,2.675,0,0,0,.617,1.94,2.94,2.94,0,0,0,1.969.985,2.572,2.572,0,0,0,2.072-.867,3.058,3.058,0,0,0,.779-1.867,8.9,8.9,0,0,1-1.47,1.1,2.263,2.263,0,0,1-1.337.367,2.939,2.939,0,0,1-1.382-.456,5.438,5.438,0,0,1-1.249-1.205Z" transform="translate(-19.852 112.194)" fill="#c7c7c7"/>
    <path id="Path_2115" data-name="Path 2115" d="M281.873,332a1.617,1.617,0,0,0-.309-1.47,1.94,1.94,0,0,0-1.47-.75,1.778,1.778,0,0,0-1.47.676,1.837,1.837,0,0,0-.426,1.382,7.435,7.435,0,0,1,1.073-.632,1.47,1.47,0,0,1,.794-.162,2.161,2.161,0,0,1,.852.221A4.791,4.791,0,0,1,281.873,332Z" transform="translate(-19.554 111.394)" fill="#c7c7c7"/>
    <path id="Path_2116" data-name="Path 2116" d="M251.571,335.94a2.587,2.587,0,0,0,.617,1.925,2.807,2.807,0,0,0,1.969.985,2.528,2.528,0,0,0,2.072-.867,3.072,3.072,0,0,0,.779-1.852,9.611,9.611,0,0,1-1.47,1.1,2.234,2.234,0,0,1-1.337.353,2.939,2.939,0,0,1-1.382-.441A5.44,5.44,0,0,1,251.571,335.94Z" transform="translate(44.508 114.289)" fill="#c7c7c7"/>
    <path id="Path_2117" data-name="Path 2117" d="M255.814,336.45a1.646,1.646,0,0,0-.309-1.47,2,2,0,0,0-1.47-.75,1.793,1.793,0,0,0-1.47.661,1.867,1.867,0,0,0-.426,1.382,8.82,8.82,0,0,1,1.073-.617,1.469,1.469,0,0,1,.794-.176,2.293,2.293,0,0,1,.838.22,4.41,4.41,0,0,1,.97.75Z" transform="translate(44.806 113.485)" fill="#c7c7c7"/>
    <g id="Group_224" data-name="Group 224" opacity="0.4">
      <path id="Path_2118" data-name="Path 2118" d="M356.983,368.108a85.686,85.686,0,0,1-6.276,32.555c-4.248,10.185-10.964,19.21-19.665,24.883a42.947,42.947,0,0,1-6.7,3.63,39.226,39.226,0,0,1-7.114,2.175,38.315,38.315,0,0,1-14.4.206c-9.465-1.631-18.2-6.32-25.926-12.493-.47-.4-1-.794-1.47-1.161l-1.088-1.044c-.705-.735-1.47-1.47-2.087-2.249a40.888,40.888,0,0,1-3.836-5.129,76.5,76.5,0,0,1-6.393-12.331A213.6,213.6,0,0,1,252.661,368c-5.247-20.576-9.421-42.373-14.389-64.507q-1.852-8.319-3.954-16.7c-1.352-5.6-2.851-11.214-4.409-16.873a237.569,237.569,0,0,0-12.169-34.421c-1.352-2.94-2.837-5.879-4.6-8.921-.867-1.47-1.852-3.042-2.939-4.542s-2.146-2.94-3.307-4.248a72.84,72.84,0,0,0-15.3-13.433c-10.788-7.246-21.87-11.758-32.511-16.344s-21.135-8.818-31.056-13.889A146.123,146.123,0,0,1,100.5,156.185a95.858,95.858,0,0,1-20.679-24.236c-5.409-9.1-9.348-19.019-10.479-28.675a47.281,47.281,0,0,1,.191-13.86A32.144,32.144,0,0,1,73.94,77.862,26.838,26.838,0,0,1,91.694,65.825a36.744,36.744,0,0,1,11.244-.441A49.883,49.883,0,0,1,114.7,68.324c.985.367,1.955.779,2.939,1.19l3.469,1.47c2.293,1.029,4.571,2.1,6.79,3.248,4.409,2.278,8.818,4.733,13.1,7.481,8.569,5.423,16.99,11.993,26.367,19.107A253.272,253.272,0,0,0,198.4,121.264a200.152,200.152,0,0,0,35.377,14.742c1.47.5,3.028.9,4.542,1.338l4.071,1.161c2.249.661,4.527,1.382,6.79,2.161,4.512,1.587,8.98,3.4,13.331,5.409,17.387,8.113,32.584,19.489,43.4,34.274a112.2,112.2,0,0,1,13.772,24.442,114.887,114.887,0,0,1,4.835,13.963,145.075,145.075,0,0,1,3.439,14.962c.882,5.129,1.573,10.391,2,15.741.22,2.513.382,5.791.588,8.818s.514,6.041.867,9.039a255.416,255.416,0,0,0,6.687,35.142c2.939,11.42,6.584,22.472,10.288,33.334,1.867,5.438,3.733,10.832,5.394,16.167A61.391,61.391,0,0,1,356.983,368.108Zm4.409,0a46.779,46.779,0,0,0-.911-8.951c-.514-2.94-1.19-5.717-1.852-8.51-1.323-5.6-2.748-11.126-3.924-16.682s-2.219-11.1-2.94-16.667-1.19-11.155-1.47-16.726a165.449,165.449,0,0,1,2.116-33c.412-2.7.941-5.379,1.47-8.04s1.161-5.129,1.778-8.289a168.153,168.153,0,0,0,2.748-18.431,135.568,135.568,0,0,0-1.778-38.537,118.623,118.623,0,0,0-14.286-37.64,131.66,131.66,0,0,0-26.117-31.159,148.783,148.783,0,0,0-33.319-22.046,154.839,154.839,0,0,0-18.284-7.554c-3.116-1.1-6.29-2.058-9.524-2.939l-7.848-2.1a176.475,176.475,0,0,1-28.087-10.288,224.193,224.193,0,0,1-27.146-15.359c-9.333-5.879-19.43-12.743-30.629-18.7a180.771,180.771,0,0,0-17.3-8.157c-2.94-1.22-5.879-2.322-8.965-3.38l-4.527-1.47c-1.72-.514-3.454-1.014-5.2-1.47a78.308,78.308,0,0,0-21.958-2.366,65.992,65.992,0,0,0-22.384,4.674A58.261,58.261,0,0,0,61.609,47.174a54.381,54.381,0,0,0-12.463,19.3,58.6,58.6,0,0,0-3.719,21.444A70.184,70.184,0,0,0,48.6,108.007a108.85,108.85,0,0,0,17.71,33.187A134.43,134.43,0,0,0,78.349,154.95a154.818,154.818,0,0,0,13.6,11.9c18.945,14.7,40.462,24.457,59.907,35.818,9.7,5.614,18.945,11.758,25.956,18.842a48.5,48.5,0,0,1,8.289,11.17q.75,1.47,1.367,2.939c.4.955.764,1.925,1.132,2.939.72,2.116,1.382,4.409,1.984,6.849,1.19,4.835,2.116,10.053,2.939,15.374s1.558,10.773,2.308,16.27L198,293.724c.735,5.6,1.47,11.244,2.352,16.917,3.469,22.634,7.878,45.724,16.167,68.711a160.279,160.279,0,0,0,16.608,34c1.867,2.734,3.807,5.438,5.967,8.084a76.033,76.033,0,0,0,7.025,7.657,69.328,69.328,0,0,0,8.319,6.864,51.269,51.269,0,0,0,4.674,2.939l2.469,1.323c.794.412,1.47.706,2.249,1.058a91.473,91.473,0,0,0,18.636,6.32,69.64,69.64,0,0,0,19.915,1.47,57.512,57.512,0,0,0,19.224-4.791,53.129,53.129,0,0,0,8.5-4.747,57.6,57.6,0,0,0,7.349-5.967,73.8,73.8,0,0,0,18.533-30.865,119.343,119.343,0,0,0,5.409-34.465Z" transform="translate(243.097 -29.609)" fill="#ebebeb"/>
      <path id="Path_2119" data-name="Path 2119" d="M537.971,346.028a148.751,148.751,0,0,1-13.448-36.744c-3.072-12.743-5.027-25.75-6.937-38.9-1.014-6.57-1.925-13.228-3.131-19.886a179.807,179.807,0,0,0-4.556-20.3,90.05,90.05,0,0,0-8.671-20.576,56.835,56.835,0,0,0-17.343-18.46c-1.9-1.249-3.939-2.293-5.879-3.41a46.922,46.922,0,0,0-6.349-2.66,57.807,57.807,0,0,0-6.555-1.881c-2.146-.559-4.409-.808-6.6-1.176a87.7,87.7,0,0,0-25.412.338A102.2,102.2,0,0,0,409.1,189.28a141.963,141.963,0,0,0-20.709,11.067,296.219,296.219,0,0,0-34.01,26.264l-15.05,13.228c-2.454,2.161-4.938,4.218-7.349,6.29l-3.66,3.072-3.66,2.94a181.267,181.267,0,0,1-14.815,10.685,101.939,101.939,0,0,1-15.227,8.2,103.868,103.868,0,0,1-17.4,5.379c-6.2,1.47-12.669,2.557-19.3,3.527-13.228,1.955-27.043,3.189-41.021,4.806L206.4,286.048c-3.542.514-7.055,1.044-10.612,1.69A143.244,143.244,0,0,0,174.5,293a71.621,71.621,0,0,0-20.282,10.362A51.337,51.337,0,0,0,139.346,321a57.79,57.79,0,0,0-4.086,10.465l-1.323,5.335c-.367,1.764-.6,3.469-.911,5.218a116.485,116.485,0,0,0-1.19,21.12,110.059,110.059,0,0,0,3.116,21.076c.47,1.72.823,3.483,1.382,5.174l1.646,5.1c1.264,3.336,2.543,6.687,4.057,9.921a145.052,145.052,0,0,0,23.648,35.788,183.407,183.407,0,0,0,15.109,15.315c5.262,4.894,10.876,9.348,16.579,13.683,2.94,2.087,5.761,4.277,8.745,6.246l4.409,3.028,4.512,2.94q9.1,5.7,18.578,10.729c3.16,1.661,6.349,3.263,9.539,4.88s6.452,3.057,9.7,4.512,6.511,2.939,9.818,4.248,6.584,2.7,9.936,3.924l19.107,7.143c3.116,1.161,6.173,2.41,9.245,3.616l4.615,1.823,4.571,1.9A643.564,643.564,0,0,1,380.869,558.6c11.479,6.482,22.855,13.228,35.2,20.047,6.158,3.454,12.684,6.8,19.827,9.994a131.633,131.633,0,0,0,23.516,8.025,103.385,103.385,0,0,0,26.455,2.66,119.572,119.572,0,0,0,25.089-3.454c4-.867,7.716-2.028,11.493-3.131,1.867-.588,3.66-1.235,5.482-1.837s3.616-1.22,5.5-2l5.556-2.234,2.763-1.146,2.748-1.337a108.427,108.427,0,0,0,10.832-5.791c1.764-1.088,3.527-2.146,5.276-3.278l5.085-3.748,2.5-1.9c.838-.647,1.6-1.4,2.41-2.1l4.7-4.292c1.47-1.47,2.94-3.175,4.321-4.747l2.116-2.41c.676-.823,1.279-1.7,1.925-2.572,1.249-1.734,2.513-3.454,3.719-5.2s2.131-3.674,3.16-5.526a81.465,81.465,0,0,0,8.157-23.134l.6-2.94c.162-.985.265-1.955.382-2.94.235-1.94.485-3.88.647-5.879a113.483,113.483,0,0,0,.073-11.391,128.889,128.889,0,0,0-2.851-21.723,187.037,187.037,0,0,0-5.761-20.312,329.367,329.367,0,0,0-15.976-37.728c-1.47-3.013-2.94-6.07-4.527-9.039s-2.94-6-4.6-8.951-3.145-5.879-4.733-8.818l-4.747-8.818Zm-3.91,2c6.291,11.64,12.14,23.516,17.343,35.641l1.94,4.541,1.823,4.586c1.249,3.042,2.352,6.144,3.469,9.23,2.278,6.158,4.248,12.419,6.07,18.7a213.405,213.405,0,0,1,7.466,37.934,157.788,157.788,0,0,1,.838,18.71,110.963,110.963,0,0,1-1.837,17.813,84.189,84.189,0,0,1-1.94,8.333l-1.337,3.924c-.235.647-.426,1.293-.661,1.925l-.838,1.852a55.35,55.35,0,0,1-7.863,13.228c-.808.97-1.617,1.911-2.366,2.939l-2.646,2.646c-.441.441-.852.911-1.308,1.323l-1.47,1.19c-.985.779-1.9,1.617-2.94,2.381l-3.16,2.175c-.529.367-1.014.764-1.573,1.088l-1.72.985-3.4,1.984L534.3,542.9a114.631,114.631,0,0,1-15.682,6.07c-1.323.47-2.807.867-4.277,1.264s-2.94.838-4.409,1.19c-2.866.632-5.747,1.4-8.51,1.822a78.991,78.991,0,0,1-15.814,1.47,61.538,61.538,0,0,1-14.374-1.925c-9.509-2.425-20.121-7.6-31.629-13.757-5.747-3.042-11.611-6.276-17.637-9.553s-12.184-6.467-18.372-9.671a598.669,598.669,0,0,0-77.764-32.967l-4.909-1.734-5.012-1.646c-3.336-1.088-6.673-2.219-10.024-3.248l-19.621-5.982c-6.246-1.925-12.434-3.968-18.592-6.07l-9.157-3.307c-3.028-1.161-6.055-2.308-9.068-3.5-5.952-2.469-11.964-4.894-17.755-7.657l-4.409-2.028-4.306-2.131c-2.939-1.382-5.659-2.94-8.5-4.409a195.547,195.547,0,0,1-31.394-21.194A133.078,133.078,0,0,1,169.7,410.962a97.208,97.208,0,0,1-11.038-14.7A83.026,83.026,0,0,1,146.622,362a84.8,84.8,0,0,1,.088-18.416c.22-1.47.367-3.086.632-4.586l.911-4.409a46.194,46.194,0,0,1,3.057-8.142A34.8,34.8,0,0,1,162.3,313.474a51.443,51.443,0,0,1,16.461-7.54,109.508,109.508,0,0,1,19.107-3.233c6.555-.544,13.228-.735,19.989-.676,13.492.073,27.249.911,41.432,1.205,7.114.1,14.345,0,21.782-.441a135.661,135.661,0,0,0,22.913-3.263c16.035-3.924,29.851-11.111,42.358-19.107,24.839-16.079,44.4-35.274,64.272-49.4,9.891-7.04,19.68-12.654,29.762-15.741a63.037,63.037,0,0,1,15.609-2.7,30.865,30.865,0,0,1,25.838,10.288,68.934,68.934,0,0,1,10.185,14.345,166.091,166.091,0,0,1,8.04,17.152c2.366,6.041,4.615,12.228,6.658,18.489,4.2,12.522,7.893,25.324,12.111,37.978a234.887,234.887,0,0,0,15.212,37.2Z" transform="translate(-122.931 41.633)" fill="#ebebeb"/>
      <path id="Path_2120" data-name="Path 2120" d="M286.848,112.006a95.341,95.341,0,0,0,6.335,11.449c1.088,1.764,2.234,3.425,3.38,5.1s2.352,3.248,3.557,4.791c2.381,3.145,4.88,6.041,7.349,8.936,10.082,11.391,21.061,21.164,31.82,30.865l3.807,3.454,1.676,1.47,1.631,1.72c1.1,1.1,2.072,2.366,3.1,3.571s1.94,2.587,2.94,3.939a44.508,44.508,0,0,1,2.7,4.2c.852,1.47,1.72,2.939,2.528,4.409,1.573,2.939,3.175,6.129,4.571,9.333,5.879,12.846,10.288,26.646,17.064,40.477a76.971,76.971,0,0,0,13.919,19.989,56.994,56.994,0,0,0,10.288,8.172,61.551,61.551,0,0,0,5.879,3.175c1.014.47,2.028.97,3.057,1.382l3.116,1.161a76.145,76.145,0,0,0,12.728,3.2c2.175.4,4.527.514,6.834.72s4.556,0,6.864,0a62.3,62.3,0,0,0,6.746-.647,33.1,33.1,0,0,0,3.278-.559l3.263-.661,1.631-.353,1.573-.456,3.145-.941a53.78,53.78,0,0,0,6.114-2.161,99.666,99.666,0,0,0,21.943-12.169,120.872,120.872,0,0,0,17.975-16.373A118.379,118.379,0,0,0,521.6,229.762c.985-1.734,1.925-3.483,2.851-5.218s1.7-3.6,2.543-5.394,1.6-3.616,2.307-5.467,1.47-3.66,2.058-5.57a146.191,146.191,0,0,0,5.761-22.855,144.578,144.578,0,0,0,2.116-23.075,119.76,119.76,0,0,0-1.705-22.561,76.267,76.267,0,0,0-6.937-21.164,49.972,49.972,0,0,0-14.7-17.167,84.364,84.364,0,0,0-20.341-10.714,224.959,224.959,0,0,0-44.607-11.141c-7.51-1.146-14.977-1.911-22.369-2.381a12.6,12.6,0,0,1-2.131-.279l-1.72-.309c-1.176-.353-2.293-.456-3.454-.867l-1.7-.485c-.573-.206-1.146-.441-1.72-.6-1.146-.309-2.352-.911-3.513-1.279a138.5,138.5,0,0,1-15.462-7.452l-8.716-4.894L385.5,58.257l-5-2.631c-3.322-1.822-7.04-3.571-10.861-5.306a106.6,106.6,0,0,0-12.757-4.63,72.915,72.915,0,0,0-15.035-2.734,61.215,61.215,0,0,0-16.623,1l-2.087.4-2.028.544c-1.338.382-2.7.75-4.042,1.176a66.14,66.14,0,0,0-7.51,3.175l-3.542,1.837L302.765,53.1a71.011,71.011,0,0,0-6.07,4.409c-.514.382-.911.676-1.47,1.161s-1.47,1.293-2.219,1.969a34.627,34.627,0,0,0-4.189,4.512c-.309.4-.647.808-.955,1.235l-.9,1.367c-.573.926-1.117,1.837-1.661,2.778a42.731,42.731,0,0,0-2.484,5.879c-.294,1-.558,1.984-.808,2.939-.132.5-.25,1.014-.338,1.47l-.235,1.47c-.132.941-.235,1.9-.338,2.851s-.073,1.778-.1,2.675,0,1.778,0,2.631l.206,2.41c.088.779.147,1.631.279,2.366l.426,2.263a66.133,66.133,0,0,0,4.938,14.521Z" transform="translate(-280.985 -23.423)" fill="#ebebeb"/>
      <path id="Path_2121" data-name="Path 2121" d="M44.257,362.879a63.684,63.684,0,0,0-.9,12.728,89.538,89.538,0,0,0,3.968,22.9,147.458,147.458,0,0,0,7.628,21.179A94.062,94.062,0,0,0,66.715,439a88.712,88.712,0,0,0,16.931,16.358,55.85,55.85,0,0,0,23.883,9.509,53.841,53.841,0,0,0,13.757.279,43.828,43.828,0,0,0,12.816-3.454,44.712,44.712,0,0,0,10.053-6.232,88.332,88.332,0,0,0,7.775-7.349,30.569,30.569,0,0,0,3.4-4.409,34.892,34.892,0,0,0,2.4-5.144,57.172,57.172,0,0,0,2.557-11.3,96.474,96.474,0,0,0,.265-24.1,54.454,54.454,0,0,0-7.349-21.767,55.115,55.115,0,0,0-14.9-16.079,95.177,95.177,0,0,0-19.842-10.288c-6.967-2.763-13.713-5.365-20.121-8.392s-12.61-6.393-20.415-8.818a35,35,0,0,0-6.393-1.382,25.618,25.618,0,0,0-7.613.117,19.827,19.827,0,0,0-9.142,4.409,23.981,23.981,0,0,0-1.852,1.808c-.544.617-1.088,1.249-1.6,1.911a30.862,30.862,0,0,0-2.425,3.851,36.27,36.27,0,0,0-1.764,3.792c-.441,1.176-.941,2.469-1.249,3.6l-.514,1.778-.426,1.72C44.654,360.659,44.463,361.747,44.257,362.879Z" transform="translate(446.386 114.408)" fill="#ebebeb"/>
    </g>
    <g id="Group_225" data-name="Group 225" transform="translate(6.171 208.532)" opacity="0.4">
      <path id="Path_2122" data-name="Path 2122" d="M456.193,193.521c-34.554-26.838-69.313-21.62-69.313-21.62s-.162,35.156,31.379,65.477c26.617,25.588,51.882,24.133,60.6,14.08S485.352,216.155,456.193,193.521Z" transform="translate(-386.879 -171.492)" fill="#ebebeb"/>
      <path id="Path_2123" data-name="Path 2123" d="M434.962,202.752c-21.9-17.02-43.931-13.7-43.931-13.7s-.1,22.267,19.886,41.506c16.873,16.167,32.908,15.3,38.419,8.921S453.451,217.1,434.962,202.752Z" transform="translate(-361.812 -163.365)" fill="#fff"/>
    </g>
    <path id="Path_2124" data-name="Path 2124" d="M414.11,206.194l2.616-2.087a1.735,1.735,0,0,0,.279-2.44h0a1.734,1.734,0,0,0-2.44-.265l-2.616,2.087a1.72,1.72,0,0,0-.265,2.425h0a1.72,1.72,0,0,0,2.425.279Z" transform="translate(-350.648 50.91)" fill="#ebebeb"/>
    <path id="Path_2125" data-name="Path 2125" d="M395.216,224.6l1.822-2.807a1.734,1.734,0,0,0-.5-2.4h0a1.734,1.734,0,0,0-2.41.5l-1.822,2.807a1.734,1.734,0,0,0,.514,2.4h0A1.734,1.734,0,0,0,395.216,224.6Z" transform="translate(-302.256 59.41)" fill="#ebebeb"/>
    <path id="Path_2126" data-name="Path 2126" d="M404.589,202.019H406.4a1.734,1.734,0,0,0,1.676-1.793h0a1.734,1.734,0,0,0-1.793-1.676h-1.793a1.72,1.72,0,0,0-1.676,1.778h0a1.734,1.734,0,0,0,1.778,1.69Z" transform="translate(-328.854 49.75)" fill="#ebebeb"/>
    <path id="Path_2127" data-name="Path 2127" d="M419.968,216.809v-1.793a1.72,1.72,0,0,0-1.778-1.676h0a1.734,1.734,0,0,0-1.69,1.778v1.808a1.72,1.72,0,0,0,1.778,1.675h0a1.734,1.734,0,0,0,1.69-1.793Z" transform="translate(-360.872 56.697)" fill="#ebebeb"/>
    <path id="Path_2128" data-name="Path 2128" d="M393.675,217.247l.206-1.778a1.749,1.749,0,0,0-1.47-1.925h0a1.749,1.749,0,0,0-1.925,1.543l-.191,1.778a1.72,1.72,0,0,0,1.47,1.911h0a1.72,1.72,0,0,0,1.911-1.529Z" transform="translate(-296.262 56.789)" fill="#ebebeb"/>
    <path id="Path_2129" data-name="Path 2129" d="M408.637,227.788l1.676.661a1.734,1.734,0,0,0,2.249-.985h0a1.734,1.734,0,0,0-.985-2.249l-1.676-.647a1.734,1.734,0,0,0-2.249.97h0a1.72,1.72,0,0,0,.985,2.249Z" transform="translate(-340.399 61.915)" fill="#ebebeb"/>
    <ellipse id="Ellipse_137" data-name="Ellipse 137" cx="20.003" cy="20.003" rx="20.003" ry="20.003" transform="translate(94.14 292.088) rotate(-173.63)" fill="#ebebeb"/>
    <path id="Path_2130" data-name="Path 2130" d="M407.217,205.86a4.409,4.409,0,0,1-1.043,2.616,5.424,5.424,0,0,1-2.366,1.675,3.954,3.954,0,0,1-2.939-.088,4.1,4.1,0,0,1-2.028-1.955,5.952,5.952,0,0,0,2.263,1.323,3.5,3.5,0,0,0,1.22.132,3.806,3.806,0,0,0,1.205-.235l.588-.235c.191-.1.382-.191.559-.309a6.325,6.325,0,0,0,1.014-.764,6.644,6.644,0,0,0,1.528-2.161Z" transform="translate(-322.165 53.184)" fill="#c7c7c7"/>
    <path id="Path_2131" data-name="Path 2131" d="M399.9,207.134a2.939,2.939,0,0,1,.632-1.867,3.616,3.616,0,0,1,1.646-1.191,2.69,2.69,0,0,1,3.439,1.47,4.409,4.409,0,0,0-1.587-.794,2.675,2.675,0,0,0-1.558.088,4.733,4.733,0,0,0-2.572,2.293Z" transform="translate(-322.123 52.263)" fill="#c7c7c7"/>
    <path id="Path_2132" data-name="Path 2132" d="M414.42,214.87a2.7,2.7,0,0,1-.162,1.911,3.2,3.2,0,0,1-1.323,1.47,2.558,2.558,0,0,1-2.014.309,2.66,2.66,0,0,1-1.573-1.1,4.983,4.983,0,0,0,1.676.441,2.646,2.646,0,0,0,1.47-.4,3.91,3.91,0,0,0,1.19-1.058A4.734,4.734,0,0,0,414.42,214.87Z" transform="translate(-344.917 57.417)" fill="#c7c7c7"/>
    <path id="Path_2133" data-name="Path 2133" d="M410.188,216.948a1.69,1.69,0,0,1,0-1.337,2.205,2.205,0,0,1,.926-1.073,1.852,1.852,0,0,1,1.47-.206,1.719,1.719,0,0,1,1.043.867,3.893,3.893,0,0,0-1.161-.191,1.9,1.9,0,0,0-.9.279,3.4,3.4,0,0,0-1.382,1.661Z" transform="translate(-345.05 57.132)" fill="#c7c7c7"/>
    <path id="Path_2134" data-name="Path 2134" d="M416.574,211.32a1.793,1.793,0,0,1,.426,1.337,1.94,1.94,0,0,1-.72,1.337,1.749,1.749,0,0,1-1.47.338,2.058,2.058,0,0,1-1.176-.735,7.352,7.352,0,0,0,1.234,0,1.47,1.47,0,0,0,.911-.338,1.956,1.956,0,0,0,.588-.808A3.557,3.557,0,0,0,416.574,211.32Z" transform="translate(-353.7 55.749)" fill="#c7c7c7"/>
    <path id="Path_2135" data-name="Path 2135" d="M414.771,213.146a1.073,1.073,0,0,1-.4-.926,1.323,1.323,0,0,1,.514-1,1.22,1.22,0,0,1,1.117-.235,1.264,1.264,0,0,1,.794.617,6.363,6.363,0,0,0-.852.074,1.116,1.116,0,0,0-.514.22,1.6,1.6,0,0,0-.4.47A3.189,3.189,0,0,0,414.771,213.146Z" transform="translate(-354.571 55.569)" fill="#c7c7c7"/>
    <path id="Path_2136" data-name="Path 2136" d="M398.721,209.479a1.808,1.808,0,0,1-.573,1.293,1.94,1.94,0,0,1-1.47.514,1.734,1.734,0,0,1-1.352-.75,2.117,2.117,0,0,1-.382-1.337,6.921,6.921,0,0,0,.882.867,1.69,1.69,0,0,0,.9.353,1.984,1.984,0,0,0,.985-.206,3.9,3.9,0,0,0,1.014-.735Z" transform="translate(-307.936 54.753)" fill="#c7c7c7"/>
    <path id="Path_2137" data-name="Path 2137" d="M395.309,209.437a1.132,1.132,0,0,1,.323-.955,1.367,1.367,0,0,1,1.043-.411,1.279,1.279,0,0,1,1.176,1.558c-.265-.206-.47-.382-.676-.514a1.368,1.368,0,0,0-.544-.176,1.47,1.47,0,0,0-.6.1A2.94,2.94,0,0,0,395.309,209.437Z" transform="translate(-307.626 54.222)" fill="#c7c7c7"/>
    <path id="Path_2138" data-name="Path 2138" d="M401.218,220.355a4.409,4.409,0,1,0-2.038-2.7A4.409,4.409,0,0,0,401.218,220.355Z" transform="translate(-323.102 56.135)" fill="#dbdbdb"/>
    <path id="Path_2139" data-name="Path 2139" d="M405.728,214.693a4.012,4.012,0,0,1,1.955,3.057,4.409,4.409,0,1,0-7.907,1.264,4.012,4.012,0,0,1,5.879-4.321Z" transform="translate(-323.071 56.138)" fill="#c7c7c7"/>
    <path id="Path_2140" data-name="Path 2140" d="M408.288,216.1a5.776,5.776,0,0,1-1.337,3.175,6.8,6.8,0,0,1-2.94,2.014,4.88,4.88,0,0,1-3.586,0,5.247,5.247,0,0,1-2.425-2.4,6.775,6.775,0,0,0,2.763,1.7,4.769,4.769,0,0,0,.764.176,3.458,3.458,0,0,0,.779,0,4.541,4.541,0,0,0,1.47-.294l.735-.294c.235-.132.47-.235.691-.382a7.513,7.513,0,0,0,1.279-.97,8.376,8.376,0,0,0,1.808-2.734Z" transform="translate(-322.001 57.994)" fill="#c7c7c7"/>
    <path id="Path_2141" data-name="Path 2141" d="M394.405,218.623a1.653,1.653,0,1,0,1.1-3.116,1.675,1.675,0,0,0-2.1,1.014,1.646,1.646,0,0,0,1,2.1Z" transform="translate(-303.429 57.676)" fill="#dbdbdb"/>
    <path id="Path_2142" data-name="Path 2142" d="M395.721,216.258a1.47,1.47,0,0,1,.926.985,1.632,1.632,0,0,0-1.088-1.7,1.675,1.675,0,0,0-2.1,1.014,1.646,1.646,0,0,0,.4,1.72,1.511,1.511,0,0,1,1.867-2.014Z" transform="translate(-303.555 57.69)" fill="#c7c7c7"/>
    <path id="Path_2143" data-name="Path 2143" d="M396.455,216.61a2.057,2.057,0,0,1-.22,1.279,2.586,2.586,0,0,1-.941.97,1.822,1.822,0,0,1-1.352.22,1.867,1.867,0,0,1-1.088-.72,2.939,2.939,0,0,0,1.146.382,1.823,1.823,0,0,0,1.073-.265A2.94,2.94,0,0,0,396.455,216.61Z" transform="translate(-302.628 58.234)" fill="#c7c7c7"/>
    <path id="Path_2144" data-name="Path 2144" d="M403.381,225.493a2.337,2.337,0,1,0-1.526-.951,2.352,2.352,0,0,0,1.526.951Z" transform="translate(-324.869 60.213)" fill="#dbdbdb"/>
    <path id="Path_2145" data-name="Path 2145" d="M404.573,221.823a2.117,2.117,0,0,1,1.543,1.146,2.337,2.337,0,0,0-4.644-.191,2.366,2.366,0,0,0,.97,2.322,2.19,2.19,0,0,1-.323-1.47,2.131,2.131,0,0,1,2.455-1.808Z" transform="translate(-324.885 60.193)" fill="#c7c7c7"/>
    <path id="Path_2146" data-name="Path 2146" d="M405.36,222.11a3.087,3.087,0,0,1-.073,1.822,3.483,3.483,0,0,1-1.044,1.543,2.69,2.69,0,0,1-1.778.647,2.793,2.793,0,0,1-1.7-.676,3.63,3.63,0,0,0,1.69.338,2.6,2.6,0,0,0,1.47-.632,3.984,3.984,0,0,0,1.029-1.337,4.192,4.192,0,0,0,.411-1.7Z" transform="translate(-323.232 60.818)" fill="#c7c7c7"/>
    <path id="Path_2147" data-name="Path 2147" d="M415.507,209.818a3.983,3.983,0,1,1-.823-5.218A3.748,3.748,0,0,1,415.507,209.818Z" transform="translate(-344.872 52.165)" fill="#dbdbdb"/>
    <path id="Path_2148" data-name="Path 2148" d="M409.531,206.4a3.072,3.072,0,0,0-.5,2.939,3.63,3.63,0,0,1-.132-4.527,3.763,3.763,0,0,1,5.276-.176,4.012,4.012,0,0,1,1.47,3.821,3.851,3.851,0,0,0-1.337-2.2,3.4,3.4,0,0,0-4.777.147Z" transform="translate(-344.364 52.143)" fill="#c7c7c7"/>
    <path id="Path_2149" data-name="Path 2149" d="M414.665,206.15a3.866,3.866,0,0,1,.191,2.94,3.616,3.616,0,0,1-.808,1.323,3.66,3.66,0,0,1-2.778,1.249,4.63,4.63,0,0,1-1.47-.206,6.172,6.172,0,0,1-2.5-1.47,12.874,12.874,0,0,0,2.645.779,4.644,4.644,0,0,0,2.513-.25,4.129,4.129,0,0,0,1.029-.705,3.175,3.175,0,0,0,.764-1A5.071,5.071,0,0,0,414.665,206.15Z" transform="translate(-342.443 53.32)" fill="#c7c7c7"/>
  </g>
  <g id="freepik--Moon--inject-11" transform="translate(403.59 407.492)">
    <path id="Path_2150" data-name="Path 2150" d="M70.229,348.825,58.912,337.508a8.289,8.289,0,0,1,0-11.758h0a8.3,8.3,0,0,1,11.758,0l11.317,11.317a8.289,8.289,0,0,1,0,11.758h0a8.3,8.3,0,0,1-11.758,0Z" transform="translate(100.232 -299.136)" fill="#ebebeb"/>
    <path id="Path_2151" data-name="Path 2151" d="M168.687,425.415l-7.187-14.3a8.3,8.3,0,0,1,3.689-11.141h0a8.289,8.289,0,0,1,11.141,3.689l7.187,14.3a8.289,8.289,0,0,1-3.689,11.141h0a8.289,8.289,0,0,1-11.141-3.689Z" transform="translate(-152.814 -263.54)" fill="#ebebeb"/>
    <path id="Path_2152" data-name="Path 2152" d="M113.076,324.6l-8.51-1.22a8.3,8.3,0,0,1-7.04-9.392h0a8.289,8.289,0,0,1,9.392-7.04l8.51,1.22a8.289,8.289,0,0,1,7.04,9.392h0a8.3,8.3,0,0,1-9.392,7.04Z" transform="translate(1.887 -306.862)" fill="#ebebeb"/>
    <path id="Path_2153" data-name="Path 2153" d="M45.956,400.337l1.22-8.51a8.289,8.289,0,0,1,9.392-7.04h0a8.275,8.275,0,0,1,7.025,9.377l-1.205,8.525A8.319,8.319,0,0,1,53,409.729h0a8.3,8.3,0,0,1-7.04-9.392Z" transform="translate(136.557 -270.297)" fill="#ebebeb"/>
    <rect id="Rectangle_446" data-name="Rectangle 446" width="25.191" height="16.593" rx="2.16" transform="translate(16.593 95.207) rotate(90)" fill="#ebebeb"/>
    <path id="Path_2154" data-name="Path 2154" d="M107.956,449.641l-8.3,2.219A8.289,8.289,0,0,1,89.5,445.981h0a8.3,8.3,0,0,1,5.879-10.171l8.3-2.219a8.3,8.3,0,0,1,10.171,5.879h0a8.333,8.333,0,0,1-5.894,10.171Z" transform="translate(22.41 -247.466)" fill="#ebebeb"/>
    <ellipse id="Ellipse_138" data-name="Ellipse 138" cx="95.739" cy="95.739" rx="95.739" ry="95.739" transform="translate(5.879 8.463)" fill="#ebebeb"/>
    <path id="Path_2155" data-name="Path 2155" d="M110.359,339.12a21.5,21.5,0,0,0,3.542,12.992,25.911,25.911,0,0,0,10.406,9.2,18.989,18.989,0,0,0,14.065,1.19,19.753,19.753,0,0,0,10.7-8.231,28.587,28.587,0,0,1-11.479,5.071,16.8,16.8,0,0,1-5.879,0,18.564,18.564,0,0,1-5.57-1.793c-.9-.441-1.808-.926-2.69-1.47a21.5,21.5,0,0,1-2.484-1.749,27.778,27.778,0,0,1-4.409-4.174A32.775,32.775,0,0,1,110.359,339.12Z" transform="translate(-43.574 -291.709)" fill="#c7c7c7"/>
    <path id="Path_2156" data-name="Path 2156" d="M139.521,348.336a13.772,13.772,0,0,0-2-9.157,17.239,17.239,0,0,0-7.2-6.555,13.052,13.052,0,0,0-9.994-.72,12.713,12.713,0,0,0-7.158,6.114,21.429,21.429,0,0,1,7.937-2.939,12.889,12.889,0,0,1,7.349,1.308A22.707,22.707,0,0,1,139.521,348.336Z" transform="translate(-38.314 -295.414)" fill="#c7c7c7"/>
    <path id="Path_2157" data-name="Path 2157" d="M76.67,387.61a12.993,12.993,0,0,0-.235,9.127,15.888,15.888,0,0,0,5.526,7.746,12.552,12.552,0,0,0,9.421,2.543,12.816,12.816,0,0,0,8.025-4.409,23.106,23.106,0,0,1-8.172,1.146,12.347,12.347,0,0,1-6.731-2.6,19.563,19.563,0,0,1-5.085-5.717A23.779,23.779,0,0,1,76.67,387.61Z" transform="translate(56.959 -268.931)" fill="#c7c7c7"/>
    <path id="Path_2158" data-name="Path 2158" d="M92.489,399.433a8.319,8.319,0,0,0,.647-6.408,10.656,10.656,0,0,0-3.851-5.6,8.642,8.642,0,0,0-6.834-1.734,8.231,8.231,0,0,0-5.438,3.527,18.9,18.9,0,0,1,5.585-.25,8.819,8.819,0,0,1,4.159,1.778,16.256,16.256,0,0,1,5.732,8.686Z" transform="translate(60.967 -269.892)" fill="#c7c7c7"/>
    <path id="Path_2159" data-name="Path 2159" d="M61.715,373.11a8.627,8.627,0,0,0-2.734,6.158,9.362,9.362,0,0,0,2.719,6.761,8.363,8.363,0,0,0,7.011,2.4,9.936,9.936,0,0,0,6.011-2.94,31.093,31.093,0,0,1-5.908-.338,7.349,7.349,0,0,1-4.1-2.058,9.715,9.715,0,0,1-2.425-4.159A17.636,17.636,0,0,1,61.715,373.11Z" transform="translate(106.247 -275.742)" fill="#c7c7c7"/>
    <path id="Path_2160" data-name="Path 2160" d="M66.993,382.963a5.467,5.467,0,0,0,2.381-4.233,6.511,6.511,0,0,0-1.9-5.027,5.967,5.967,0,0,0-5.247-1.675,6.217,6.217,0,0,0-4.1,2.484,32.238,32.238,0,0,1,4.027.808,4.983,4.983,0,0,1,2.337,1.338,7.5,7.5,0,0,1,1.6,2.425,14.037,14.037,0,0,1,.9,3.88Z" transform="translate(112.83 -276.292)" fill="#c7c7c7"/>
    <path id="Path_2161" data-name="Path 2161" d="M144.889,353.82a8.51,8.51,0,0,0,2.058,6.408,9.392,9.392,0,0,0,6.511,3.263,8.378,8.378,0,0,0,6.834-2.866,9.994,9.994,0,0,0,2.587-6.158,31.39,31.39,0,0,1-4.718,3.66,7.51,7.51,0,0,1-4.409,1.19,9.788,9.788,0,0,1-4.571-1.47A18.139,18.139,0,0,1,144.889,353.82Z" transform="translate(-108.116 -284.804)" fill="#c7c7c7"/>
    <path id="Path_2162" data-name="Path 2162" d="M159.051,355.511a5.468,5.468,0,0,0-1.044-4.747,6.54,6.54,0,0,0-4.747-2.5,5.879,5.879,0,0,0-5.027,2.219,6.188,6.188,0,0,0-1.47,4.586,29.4,29.4,0,0,1,3.557-2.087,4.894,4.894,0,0,1,2.631-.544,7.452,7.452,0,0,1,2.807.735,14.255,14.255,0,0,1,3.292,2.337Z" transform="translate(-107.228 -287.42)" fill="#c7c7c7"/>
    <path id="Path_2163" data-name="Path 2163" d="M142.026,411.034a21.208,21.208,0,1,1,10.641-27.925,21.208,21.208,0,0,1-10.641,27.925Z" transform="translate(-51.578 -276.967)" fill="#dbdbdb"/>
    <path id="Path_2164" data-name="Path 2164" d="M123.246,381.638a19.107,19.107,0,0,0-10.906,13.507,21.12,21.12,0,1,1,36.905,10.288,19.239,19.239,0,0,0-26-23.751Z" transform="translate(-51.346 -276.922)" fill="#c7c7c7"/>
    <path id="Path_2165" data-name="Path 2165" d="M113.835,387.32a27.308,27.308,0,0,0,4.674,15.814,32.334,32.334,0,0,0,12.757,11.126,23.281,23.281,0,0,0,17.049,1.558,25.059,25.059,0,0,0,13.316-9.788,33.687,33.687,0,0,1-14.095,6.614,31.9,31.9,0,0,1-3.718.4,20.427,20.427,0,0,1-3.674-.294,23.517,23.517,0,0,1-7.04-2.234c-1.132-.573-2.263-1.176-3.351-1.822a22.854,22.854,0,0,1-3.116-2.19,33.406,33.406,0,0,1-5.5-5.291A38.58,38.58,0,0,1,113.835,387.32Z" transform="translate(-61.277 -269.067)" fill="#c7c7c7"/>
    <path id="Path_2166" data-name="Path 2166" d="M167.738,397.795a7.922,7.922,0,1,1,5.879-9.495A7.922,7.922,0,0,1,167.738,397.795Z" transform="translate(-138.358 -271.488)" fill="#dbdbdb"/>
    <path id="Path_2167" data-name="Path 2167" d="M162.925,385.694a7.158,7.158,0,0,0-4.953,4.174,7.878,7.878,0,1,1,12.787,6.379,7.069,7.069,0,0,0,.75-5.159,7.172,7.172,0,0,0-8.583-5.394Z" transform="translate(-138.248 -271.468)" fill="#c7c7c7"/>
    <path id="Path_2168" data-name="Path 2168" d="M160.122,387a9.745,9.745,0,0,0,.4,6.217,11.758,11.758,0,0,0,3.91,5.1,8.818,8.818,0,0,0,6.291,1.778,8.966,8.966,0,0,0,5.57-2.837,13.376,13.376,0,0,1-5.644,1.205,8.554,8.554,0,0,1-4.968-1.808A14.359,14.359,0,0,1,160.122,387Z" transform="translate(-143.484 -269.218)" fill="#c7c7c7"/>
    <path id="Path_2169" data-name="Path 2169" d="M129.871,434.841a11.244,11.244,0,1,1,10.567-11.832A11.244,11.244,0,0,1,129.871,434.841Z" transform="translate(-46.184 -257.299)" fill="#dbdbdb"/>
    <path id="Path_2170" data-name="Path 2170" d="M125.928,416.772a10.112,10.112,0,0,0-7.966,4.615,11.2,11.2,0,1,1,16.329,12.067,10.038,10.038,0,0,0,2.322-7.04,10.171,10.171,0,0,0-10.685-9.642Z" transform="translate(-45.856 -257.278)" fill="#c7c7c7"/>
    <path id="Path_2171" data-name="Path 2171" d="M123.225,417.44a14.7,14.7,0,0,0-.632,8.7,17.151,17.151,0,0,0,4.189,7.907,12.449,12.449,0,0,0,8.113,4,13.448,13.448,0,0,0,8.436-2.278,17.637,17.637,0,0,1-8.231.661,12.257,12.257,0,0,1-6.79-3.807,19.107,19.107,0,0,1-4.159-6.908,20.209,20.209,0,0,1-.926-8.275Z" transform="translate(-55.293 -254.919)" fill="#c7c7c7"/>
    <path id="Path_2172" data-name="Path 2172" d="M70.329,362.752c5.071,7.746,16.27,9.392,24.986,3.674s11.758-16.638,6.673-24.383S85.732,332.652,77,338.369,65.273,355.007,70.329,362.752Z" transform="translate(63.447 -293.662)" fill="#dbdbdb"/>
    <path id="Path_2173" data-name="Path 2173" d="M98.077,349.3a14.7,14.7,0,0,1,.823,14.124c5.879-6.026,7.349-14.83,3.028-21.4-5.056-7.731-16.255-9.377-24.986-3.66A19.18,19.18,0,0,0,67.859,355.7a18.269,18.269,0,0,1,7.54-9.744C83.306,340.78,93.476,342.264,98.077,349.3Z" transform="translate(63.537 -293.663)" fill="#c7c7c7"/>
    <path id="Path_2174" data-name="Path 2174" d="M75.694,345.17a17.99,17.99,0,0,0-2.513,13.654,17.079,17.079,0,0,0,3.16,6.673,21.15,21.15,0,0,0,5.482,5.041,20.357,20.357,0,0,0,7.069,2.4,23.678,23.678,0,0,0,7.216-.206,29.586,29.586,0,0,0,12.684-5.5,59.013,59.013,0,0,1-13.037,2.249A21.4,21.4,0,0,1,84,366.952a18.153,18.153,0,0,1-4.527-3.91,16.433,16.433,0,0,1-3.1-5.159A23.648,23.648,0,0,1,75.694,345.17Z" transform="translate(51.909 -288.867)" fill="#c7c7c7"/>
  </g>
  <g id="freepik--Stars--inject-11" transform="translate(13.365 40.081)">
    <path id="Path_2175" data-name="Path 2175" d="M406.562,343.078l-8.1,1.484-1.808,8.539-1.808-8.539-8.1-1.5,8.069-1.969,1.837-8.054,1.852,8.054Z" transform="translate(-317.106 72.845)" fill="#c7c7c7"/>
    <path id="Path_2176" data-name="Path 2176" d="M179.272,311.714l-8.1,1.5-1.808,8.539-1.808-8.539-8.1-1.5,8.054-1.969,1.852-8.054,1.837,8.054Z" transform="translate(244.243 58.118)" fill="#c7c7c7"/>
    <path id="Path_2177" data-name="Path 2177" d="M350.292,249.648l-8.1,1.5-1.808,8.525-1.808-8.525-8.1-1.5,8.054-1.984,1.852-8.054,1.837,8.054Z" transform="translate(-178.133 28.957)" fill="#c7c7c7"/>
    <path id="Path_2178" data-name="Path 2178" d="M450.177,307.47l-4.527.838-1.014,4.777-1.014-4.777-4.512-.838,4.5-1.1,1.029-4.5,1.029,4.5Z" transform="translate(-437.677 58.203)" fill="#c7c7c7"/>
    <path id="Path_2179" data-name="Path 2179" d="M216.537,430.97l-4.512.838-1.014,4.777L210,431.807l-4.527-.838,4.512-1.1,1.029-4.5,1.029,4.5Z" transform="translate(139.355 116.216)" fill="#c7c7c7"/>
    <path id="Path_2180" data-name="Path 2180" d="M442.647,161.384l-4.527.838-1.014,4.762-1-4.762-4.527-.852,4.5-1.088,1.029-4.512,1.044,4.512Z" transform="translate(-419.079 -10.427)" fill="#c7c7c7"/>
    <path id="Path_2181" data-name="Path 2181" d="M79.457,231.194l-4.527.838-1.014,4.762-1-4.762-4.527-.838,4.5-1.1,1.029-4.512,1.029,4.512Z" transform="translate(477.907 22.366)" fill="#c7c7c7"/>
    <path id="Path_2182" data-name="Path 2182" d="M95.977,396.384l-4.527.838-1.014,4.762-1-4.762-4.527-.838,4.5-1.1,1.029-4.512,1.044,4.512Z" transform="translate(437.107 99.963)" fill="#c7c7c7"/>
    <path id="Path_2183" data-name="Path 2183" d="M430.767,243.594l-4.527.838-1,4.762-1.014-4.762-4.527-.838,4.5-1.1,1.044-4.512,1.029,4.512Z" transform="translate(-389.739 28.191)" fill="#c7c7c7"/>
    <path id="Path_2184" data-name="Path 2184" d="M300.912,348.48l-4.527.838-1.014,4.777-1.014-4.777-4.527-.838,4.512-1.1,1.029-4.5,1.029,4.5Z" transform="translate(-69.008 77.467)" fill="#c7c7c7"/>
    <path id="Path_2185" data-name="Path 2185" d="M188.857,87.864l-4.527.838-1.014,4.762L182.3,88.7l-4.512-.838,4.5-1.1,1.029-4.512,1.029,4.512Z" transform="translate(207.717 -44.963)" fill="#c7c7c7"/>
    <path id="Path_2186" data-name="Path 2186" d="M309.4,336.694l-4.527.838-1.014,4.777-1.014-4.777-4.527-.838,4.512-1.1,1.029-4.512,1.029,4.512Z" transform="translate(-89.976 71.924)" fill="#c7c7c7"/>
    <path id="Path_2187" data-name="Path 2187" d="M198.558,436.2a1.323,1.323,0,1,0,1.184,1.315A1.323,1.323,0,0,0,198.558,436.2Z" transform="translate(168.048 121.304)" fill="#c7c7c7"/>
    <path id="Path_2188" data-name="Path 2188" d="M357.768,268.81a1.323,1.323,0,1,0,1.184,1.315,1.323,1.323,0,0,0-1.184-1.315Z" transform="translate(-225.16 42.673)" fill="#c7c7c7"/>
    <path id="Path_2189" data-name="Path 2189" d="M281.658,344a1.308,1.308,0,1,0,1.308,1.308A1.308,1.308,0,0,0,281.658,344Z" transform="translate(-37.129 77.993)" fill="#c7c7c7"/>
    <path id="Path_2190" data-name="Path 2190" d="M149.288,429.51a1.308,1.308,0,1,0,1.308,1.308,1.308,1.308,0,0,0-1.308-1.308Z" transform="translate(289.791 118.161)" fill="#c7c7c7"/>
    <path id="Path_2191" data-name="Path 2191" d="M447.188,441.33a1.323,1.323,0,1,0,1.184,1.315,1.323,1.323,0,0,0-1.184-1.315Z" transform="translate(-446.005 123.714)" fill="#c7c7c7"/>
    <path id="Path_2192" data-name="Path 2192" d="M400.278,280.51a1.308,1.308,0,1,0,1.308,1.308,1.308,1.308,0,0,0-1.308-1.308Z" transform="translate(-330.09 48.169)" fill="#c7c7c7"/>
    <path id="Path_2193" data-name="Path 2193" d="M220.836,420.15a.926.926,0,1,0,.926.926.926.926,0,0,0-.926-.926Z" transform="translate(112.907 113.764)" fill="#c7c7c7"/>
    <path id="Path_2194" data-name="Path 2194" d="M94.723,92.32a.941.941,0,1,0,.823.933.941.941,0,0,0-.823-.933Z" transform="translate(424.325 -40.232)" fill="#c7c7c7"/>
    <path id="Path_2195" data-name="Path 2195" d="M338.3,295.25a.926.926,0,1,0,.926.926A.926.926,0,0,0,338.3,295.25Z" transform="translate(-177.189 55.093)" fill="#c7c7c7"/>
    <path id="Path_2196" data-name="Path 2196" d="M307.756,349.88a.926.926,0,1,0,.926.926A.926.926,0,0,0,307.756,349.88Z" transform="translate(-101.763 80.755)" fill="#c7c7c7"/>
    <path id="Path_2197" data-name="Path 2197" d="M257.773,339.23a.941.941,0,1,0,.823.933.941.941,0,0,0-.823-.933Z" transform="translate(21.633 75.753)" fill="#c7c7c7"/>
    <path id="Path_2198" data-name="Path 2198" d="M317.363,283.78a2.513,2.513,0,1,0,2.513,2.513,2.513,2.513,0,0,0-2.513-2.513Z" transform="translate(-124.745 49.705)" fill="#c7c7c7"/>
    <path id="Path_2199" data-name="Path 2199" d="M248.8,114.178l-8.1,1.5L238.9,124.2l-1.808-8.525-8.1-1.5,8.069-1.969,1.837-8.069,1.852,8.069Z" transform="translate(72.521 -34.68)" fill="#c7c7c7"/>
    <path id="Path_2200" data-name="Path 2200" d="M261.047,62.494l-4.527.838-1.014,4.762-1.014-4.762-4.512-.838,4.5-1.1,1.029-4.512,1.029,4.512Z" transform="translate(29.426 -56.88)" fill="#c7c7c7"/>
    <path id="Path_2201" data-name="Path 2201" d="M63.758,144a1.308,1.308,0,1,0,1.308,1.308A1.308,1.308,0,0,0,63.758,144Z" transform="translate(501.029 -15.956)" fill="#c7c7c7"/>
    <path id="Path_2202" data-name="Path 2202" d="M77.738,380.7a1.323,1.323,0,1,0,1.184,1.315,1.323,1.323,0,0,0-1.184-1.315Z" transform="translate(466.443 95.233)" fill="#c7c7c7"/>
    <path id="Path_2203" data-name="Path 2203" d="M53.568,425a1.323,1.323,0,1,0,1.184,1.315A1.323,1.323,0,0,0,53.568,425Z" transform="translate(526.136 116.043)" fill="#c7c7c7"/>
    <path id="Path_2204" data-name="Path 2204" d="M99.278,218.82a1.323,1.323,0,1,0,1.184,1.315A1.323,1.323,0,0,0,99.278,218.82Z" transform="translate(413.244 19.191)" fill="#c7c7c7"/>
    <path id="Path_2205" data-name="Path 2205" d="M53.568,64.77a1.323,1.323,0,1,0,1.184,1.315,1.323,1.323,0,0,0-1.184-1.315Z" transform="translate(526.136 -53.174)" fill="#c7c7c7"/>
    <path id="Path_2206" data-name="Path 2206" d="M134.473,338.15a.941.941,0,1,0,.823.933A.941.941,0,0,0,134.473,338.15Z" transform="translate(326.153 75.245)" fill="#c7c7c7"/>
    <path id="Path_2207" data-name="Path 2207" d="M267.686,419.08a.926.926,0,1,0,.926.926A.926.926,0,0,0,267.686,419.08Z" transform="translate(-2.801 113.262)" fill="#c7c7c7"/>
    <path id="Path_2208" data-name="Path 2208" d="M361.413,130.23a.941.941,0,1,0,.823.933A.941.941,0,0,0,361.413,130.23Z" transform="translate(-234.331 -22.424)" fill="#c7c7c7"/>
    <path id="Path_2209" data-name="Path 2209" d="M247.4,91.57a.926.926,0,1,0,.926.926.926.926,0,0,0-.926-.926Z" transform="translate(47.31 -40.585)" fill="#c7c7c7"/>
    <path id="Path_2210" data-name="Path 2210" d="M210.033,315.72a2.513,2.513,0,1,0,2.513,2.513,2.513,2.513,0,0,0-2.513-2.513Z" transform="translate(140.332 64.709)" fill="#c7c7c7"/>
    <path id="Path_2211" data-name="Path 2211" d="M435.336,186.45a2.528,2.528,0,1,0,2.335,2.521A2.528,2.528,0,0,0,435.336,186.45Z" transform="translate(-416.193 3.985)" fill="#c7c7c7"/>
    <path id="Path_2212" data-name="Path 2212" d="M85.273,336.44a2.513,2.513,0,1,0,2.513,2.513A2.513,2.513,0,0,0,85.273,336.44Z" transform="translate(448.458 74.442)" fill="#c7c7c7"/>
    <path id="Path_2213" data-name="Path 2213" d="M239.272,272.394l-4.527.838-1.014,4.762-1.014-4.762-4.527-.838,4.512-1.1,1.029-4.512,1.029,4.512Z" transform="translate(83.227 41.72)" fill="#c7c7c7"/>
    <path id="Path_2214" data-name="Path 2214" d="M304.667,427.664l-4.527.838-1.014,4.762-1-4.762-4.527-.852,4.5-1.088,1.029-4.512,1.043,4.512Z" transform="translate(-78.304 114.657)" fill="#c7c7c7"/>
    <path id="Path_2215" data-name="Path 2215" d="M307.618,385.88A1.323,1.323,0,1,0,308.8,387.2a1.323,1.323,0,0,0-1.184-1.315Z" transform="translate(-101.302 97.666)" fill="#c7c7c7"/>
    <path id="Path_2216" data-name="Path 2216" d="M342.378,362.14a1.323,1.323,0,1,0,1.183,1.315,1.323,1.323,0,0,0-1.183-1.315Z" transform="translate(-187.151 86.514)" fill="#c7c7c7"/>
    <path id="Path_2217" data-name="Path 2217" d="M243.042,404.924l-4.527.838-1.014,4.777-1.014-4.777-4.527-.838,4.512-1.1,1.029-4.512,1.029,4.512Z" transform="translate(73.916 103.975)" fill="#c7c7c7"/>
    <path id="Path_2218" data-name="Path 2218" d="M359.078,115.68A1.323,1.323,0,1,0,360.262,117,1.323,1.323,0,0,0,359.078,115.68Z" transform="translate(-228.396 -29.259)" fill="#c7c7c7"/>
    <path id="Path_2219" data-name="Path 2219" d="M380.466,365a.926.926,0,1,0,.926.926.926.926,0,0,0-.926-.926Z" transform="translate(-281.339 87.858)" fill="#c7c7c7"/>
    <path id="Path_2220" data-name="Path 2220" d="M122.587,259.414l-4.527.838-1,4.762-1.014-4.762-4.527-.838,4.5-1.1,1.044-4.512,1.029,4.512Z" transform="translate(371.387 35.622)" fill="#c7c7c7"/>
    <path id="Path_2221" data-name="Path 2221" d="M76.338,306.73a1.308,1.308,0,1,0,1.308,1.308,1.308,1.308,0,0,0-1.308-1.308Z" transform="translate(469.959 60.486)" fill="#c7c7c7"/>
    <path id="Path_2222" data-name="Path 2222" d="M199.418,241a1.308,1.308,0,1,0,1.308,1.308A1.308,1.308,0,0,0,199.418,241Z" transform="translate(165.983 29.609)" fill="#c7c7c7"/>
    <path id="Path_2223" data-name="Path 2223" d="M94.723,150.83a.941.941,0,1,0,.823.933.941.941,0,0,0-.823-.933Z" transform="translate(424.325 -12.747)" fill="#c7c7c7"/>
    <path id="Path_2224" data-name="Path 2224" d="M87.173,145a2.513,2.513,0,1,0,2.513,2.513A2.513,2.513,0,0,0,87.173,145Z" transform="translate(443.765 -15.486)" fill="#c7c7c7"/>
    <path id="Path_2225" data-name="Path 2225" d="M437.043,69.49A2.513,2.513,0,1,0,439.557,72,2.513,2.513,0,0,0,437.043,69.49Z" transform="translate(-420.325 -50.957)" fill="#c7c7c7"/>
  </g>
  <g id="freepik--Planets--inject-11" transform="translate(31.866 45.59)">
    <ellipse id="Ellipse_139" data-name="Ellipse 139" cx="47.899" cy="47.899" rx="47.899" ry="47.899" transform="matrix(-0.727, -0.686, 0.686, -0.727, 96.141, 552.926)" fill="#455a64"/>
    <path id="Path_2226" data-name="Path 2226" d="M415.46,422.7A56.324,56.324,0,0,0,401.307,412.2c-9.127-4.938-34.495-11.567-45.929-18.548-16.079-9.8-17.431-19.107-16.961-23.78a48.163,48.163,0,0,1,15.609-9.583c.808,4.924,4.086,20.341,31.115,32.334,13.963,6.217,27.925,3.939,32.746,3.175A47.737,47.737,0,0,1,415.46,422.7Z" transform="translate(-276.705 80.137)" fill="#37474f"/>
    <path id="Path_2227" data-name="Path 2227" d="M414.673,423.849a47.987,47.987,0,0,1-59.363-10.862,38.213,38.213,0,0,1,8.818-2.719c13.1-2.087,26.735,5.2,31.658,8.51a28.132,28.132,0,0,0,18.886,5.071Z" transform="translate(-297.508 103.44)" fill="#37474f"/>
    <path id="Path_2228" data-name="Path 2228" d="M432.03,421.689l-.691,1.117-.647.985c-.5.75-1,1.47-1.47,2.19a22.336,22.336,0,0,1-1.47,1.867l-.573.676-.661.75c-.22.25-.441.5-.676.735l-.823.852-.823.823-.735.691c-.544.5-1.1.985-1.661,1.47h0c-3.042.661-7,0-12.625-2.822-8.407-4.1-17.093-13.037-33.363-20.415a59.863,59.863,0,0,0-32.055-4.644h0a47.767,47.767,0,0,1,3.557-28.763c3.057.132,12.772,2.322,32.334,21.282a124.927,124.927,0,0,0,19.915,16.167c17.123,10.8,27.69,8.818,32.173,7.04h.294Z" transform="translate(-296.684 88.08)" fill="#37474f"/>
    <path id="Path_2229" data-name="Path 2229" d="M382.43,374.242c-1.029,1.867-4.057,2.175-6.776.691s-4.071-4.218-3.057-6.085,4.057-2.161,6.776-.676S383.444,372.3,382.43,374.242Z" transform="translate(-290.516 83.396)" fill="#263238"/>
    <path id="Path_2230" data-name="Path 2230" d="M387.841,374.746c-.573,1.044-2.366,1.176-4,.279s-2.469-2.469-1.9-3.513,2.366-1.191,4-.294S388.414,373.688,387.841,374.746Z" transform="translate(-309.742 84.994)" fill="#263238"/>
    <path id="Path_2231" data-name="Path 2231" d="M369.037,417.525c-.882,1.6-3.513,1.837-5.879.529s-3.586-3.645-2.719-5.247,3.513-1.822,5.879-.529S369.9,415.938,369.037,417.525Z" transform="translate(-259.28 104.164)" fill="#263238"/>
    <path id="Path_2232" data-name="Path 2232" d="M371.078,417.1a2.4,2.4,0,1,1-1.19-2.645,2.1,2.1,0,0,1,1.191,2.645Z" transform="translate(-270.257 105.443)" fill="#263238"/>
    <path id="Path_2233" data-name="Path 2233" d="M369.737,413.663a1.323,1.323,0,0,1-1.793.22c-.72-.4-1.073-1.132-.794-1.631a1.338,1.338,0,0,1,1.808-.221C369.664,412.428,370.016,413.163,369.737,413.663Z" transform="translate(-269.93 104.323)" fill="#263238"/>
    <path id="Path_2234" data-name="Path 2234" d="M394.338,412.731c-.779,1.47-2.939,1.734-4.85.691s-2.807-3.042-2.028-4.409,2.939-1.734,4.85-.691S395.117,411.306,394.338,412.731Z" transform="translate(-324.293 102.417)" fill="#263238"/>
    <path id="Path_2235" data-name="Path 2235" d="M389.716,407.614a1.9,1.9,0,1,1-.852-2.381,1.793,1.793,0,0,1,.852,2.381Z" transform="translate(-317.923 101.141)" fill="#263238"/>
    <path id="Path_2236" data-name="Path 2236" d="M435.154,428.893a413.879,413.879,0,0,1-86.2-28.425c-21.458-10.082-34.7-19.739-32.908-25.191s17.887-5.526,40.565-1.161c-.617.955-1.19,1.925-1.749,2.939-.206.382-.4.764-.6,1.132-12.067-1.543-20.062-.838-21.15,2.484s5.115,8.818,16.064,14.815a265.282,265.282,0,0,0,43.2,18.019,265.732,265.732,0,0,0,45.562,11.1c12.331,1.631,20.576.941,21.635-2.425s-4.924-8.6-15.491-14.492a44.922,44.922,0,0,0,.529-4.85c21.429,10.053,34.862,20.047,33.011,25.485S458.994,433.7,435.154,428.893Z" transform="translate(-302.675 85.168)" fill="#263238"/>
    <path id="Path_2237" data-name="Path 2237" d="M437.217,434.075a423.533,423.533,0,0,1-42.373-11.405h0a425.112,425.112,0,0,1-40.83-15.418c-29.806-13.228-48.84-26.705-46.356-34.436s25.4-7.569,56.791-1.029c-.456.573-.911,1.161-1.352,1.764-26.367-5.056-45.268-4.777-47.4,1.852s13.331,18.137,38.125,29.571a384.2,384.2,0,0,0,41.579,16.02,382.323,382.323,0,0,0,43.313,11.346c26.676,5.173,45.841,4.924,47.987-1.764s-12.934-17.828-37.155-29.1a19.431,19.431,0,0,0-.088-2.249c29.189,13.007,47.737,26.309,45.283,33.951S468.979,440.748,437.217,434.075Z" transform="translate(-307.442 83.263)" fill="#37474f"/>
    <ellipse id="Ellipse_140" data-name="Ellipse 140" cx="28.263" cy="28.263" rx="28.263" ry="28.263" transform="translate(319.329 269.17) rotate(-161.15)" fill="#ebebeb"/>
    <path id="Path_2238" data-name="Path 2238" d="M216.821,235.748a33.248,33.248,0,0,1,8.818-5.5c5.6-2.469,20.841-5.174,27.925-8.745,9.921-5,11.155-10.391,11.1-13.228a28.2,28.2,0,0,0-8.716-6.379c-.705,2.851-3.366,11.758-19.842,17.637-8.51,2.939-16.652,1-19.415.323A28.116,28.116,0,0,0,216.821,235.748Z" transform="translate(57.827 5.734)" fill="#dbdbdb"/>
    <path id="Path_2239" data-name="Path 2239" d="M216.2,237.364a28.278,28.278,0,0,0,35.436-3.557,22.207,22.207,0,0,0-5.071-2.014c-7.6-1.852-15.961,1.778-19.019,3.5a16.608,16.608,0,0,1-11.346,2.072Z" transform="translate(69.986 19.536)" fill="#dbdbdb"/>
    <path id="Path_2240" data-name="Path 2240" d="M210.508,234.914l.353.676c.1.22.22.412.338.617q.382.705.794,1.367c.25.4.514.779.779,1.161l.309.426.367.426.367.47q.206.265.441.529t.441.529l.412.441c.294.323.588.632.9.941h0c1.749.544,4.115.309,7.555-1.058,5.144-2.014,10.67-6.864,20.576-10.421a35.348,35.348,0,0,1,19.019-1.22h0a28.131,28.131,0,0,0-.735-17.078c-1.793-.073-7.613.75-19.989,10.979a74.519,74.519,0,0,1-12.478,8.539c-10.6,5.541-16.711,3.895-19.268,2.616h-.176Z" transform="translate(65.845 10.815)" fill="#dbdbdb"/>
    <path id="Path_2241" data-name="Path 2241" d="M234.838,235.412c-.5-1.146-2.263-1.47-3.939-.75s-2.616,2.249-2.116,3.4,2.263,1.47,3.939.764S235.338,236.573,234.838,235.412Z" transform="translate(68.352 20.944)" fill="#c7c7c7"/>
    <path id="Path_2242" data-name="Path 2242" d="M237.852,233.877c-.279-.647-1.323-.808-2.337-.367s-1.587,1.308-1.308,1.955,1.337.823,2.337.382S238.116,234.538,237.852,233.877Z" transform="translate(57.343 20.466)" fill="#c7c7c7"/>
    <path id="Path_2243" data-name="Path 2243" d="M224.609,210.368c-.426-.97-1.955-1.264-3.425-.617s-2.308,1.955-1.867,2.94,1.955,1.264,3.425.617S225.006,211.352,224.609,210.368Z" transform="translate(92.499 9.26)" fill="#c7c7c7"/>
    <path id="Path_2244" data-name="Path 2244" d="M225.343,209.582a1.22,1.22,0,0,0-1.661-.4,1.235,1.235,0,0,0-.838,1.47,1.47,1.47,0,0,0,2.5-1.088Z" transform="translate(86.563 9.075)" fill="#c7c7c7"/>
    <path id="Path_2245" data-name="Path 2245" d="M224.99,211.287a.779.779,0,0,0-1.044-.22c-.441.191-.676.6-.544.911a.764.764,0,0,0,1.044.235.779.779,0,0,0,.544-.926Z" transform="translate(86.078 9.987)" fill="#c7c7c7"/>
    <path id="Path_2246" data-name="Path 2246" d="M240.142,211.909a2.41,2.41,0,1,0-1.47,2.513A2.087,2.087,0,0,0,240.142,211.909Z" transform="translate(53.29 9.438)" fill="#c7c7c7"/>
    <path id="Path_2247" data-name="Path 2247" d="M236.986,214.047a1.117,1.117,0,1,0-.6,1.418,1.117,1.117,0,0,0,.6-1.418Z" transform="translate(57.121 11.151)" fill="#c7c7c7"/>
    <ellipse id="Ellipse_141" data-name="Ellipse 141" cx="28.263" cy="28.263" rx="28.263" ry="28.263" transform="matrix(-0.928, -0.372, 0.372, -0.928, 515.855, 73.487)" fill="#15ace5"/>
    <ellipse id="Ellipse_142" data-name="Ellipse 142" cx="28.263" cy="28.263" rx="28.263" ry="28.263" transform="matrix(-0.928, -0.372, 0.372, -0.928, 515.855, 73.487)" opacity="0.1"/>
    <g id="Group_226" data-name="Group 226" transform="translate(471.843 11.129)" opacity="0.1">
      <path id="Path_2248" data-name="Path 2248" d="M81.839,102.034a33.407,33.407,0,0,1,8.818-5.5c5.614-2.469,20.812-5.115,27.91-8.73,9.921-5.012,11.155-10.406,11.1-13.228a28.086,28.086,0,0,0-8.73-6.379c-.705,2.851-3.351,11.758-19.827,17.637-8.51,2.939-16.652.985-19.415.309A28.116,28.116,0,0,0,81.839,102.034Z" transform="translate(-80.619 -68.2)"/>
      <path id="Path_2249" data-name="Path 2249" d="M81.19,103.658a28.307,28.307,0,0,0,35.436-3.571,22.487,22.487,0,0,0-5.071-2.014c-7.6-1.852-15.976,1.793-19.107,3.5A16.564,16.564,0,0,1,81.19,103.658Z" transform="translate(-68.417 -54.407)"/>
      <path id="Path_2250" data-name="Path 2250" d="M75.509,101.209a7.672,7.672,0,0,0,.353.691c.1.206.206.412.323.617.265.456.529.911.808,1.352s.5.794.779,1.176l.309.412a5.6,5.6,0,0,0,.353.47l.353.47.441.544.456.514.4.456c.294.323.6.632.911.926h0c1.764.529,4.115.294,7.569-1.058,5.129-2.014,10.67-6.864,20.576-10.435a35.45,35.45,0,0,1,19-1.22h0A28.131,28.131,0,0,0,127.421,79c-1.808-.073-7.613.75-20,10.979A72.488,72.488,0,0,1,94.939,98.52c-10.612,5.614-16.711,4-19.268,2.675h-.162Z" transform="translate(-72.584 -63.128)"/>
    </g>
    <g id="Group_227" data-name="Group 227" transform="translate(487.076 21.572)" opacity="0.1">
      <path id="Path_2251" data-name="Path 2251" d="M99.843,101.714c-.5-1.161-2.263-1.47-3.939-.764s-2.631,2.249-2.131,3.4,2.278,1.47,3.939.764S100.343,102.861,99.843,101.714Z" transform="translate(-85.298 -63.435)"/>
      <path id="Path_2252" data-name="Path 2252" d="M102.835,100.2c-.279-.647-1.323-.823-2.322-.382s-1.587,1.323-1.308,1.969,1.323.808,2.337.382S103.1,100.817,102.835,100.2Z" transform="translate(-96.3 -63.905)"/>
      <path id="Path_2253" data-name="Path 2253" d="M89.611,76.67c-.426-.985-1.955-1.264-3.425-.632s-2.307,1.955-1.881,2.939,1.969,1.264,3.439.617S89.993,77.611,89.611,76.67Z" transform="translate(-61.148 -75.119)"/>
      <path id="Path_2254" data-name="Path 2254" d="M90.36,75.871a1.235,1.235,0,0,0-1.661-.4,1.073,1.073,0,1,0,.823,1.9,1.249,1.249,0,0,0,.838-1.5Z" transform="translate(-67.1 -75.305)"/>
      <path id="Path_2255" data-name="Path 2255" d="M89.983,77.59a.779.779,0,0,0-1.044-.235c-.441.206-.691.6-.558.926a.794.794,0,0,0,1.043.22A.766.766,0,0,0,89.983,77.59Z" transform="translate(-67.56 -74.393)"/>
      <path id="Path_2256" data-name="Path 2256" d="M105.107,78.187a2.4,2.4,0,1,0-1.47,2.528A2.087,2.087,0,0,0,105.107,78.187Z" transform="translate(-100.336 -74.931)"/>
      <path id="Path_2257" data-name="Path 2257" d="M101.976,80.337a1.117,1.117,0,1,0-.6,1.418A1.117,1.117,0,0,0,101.976,80.337Z" transform="translate(-96.514 -73.231)"/>
    </g>
  </g>
  <g id="freepik--Rocket--inject-11" transform="translate(100.237 43.229)">
    <path id="Path_2258" data-name="Path 2258" d="M112.011,126.152c1.044-1.249,61.509-29.292,116.272,12.493,50.339,38.419,67.814,110.628,61.127,112.362-8.186,2.116-30.615-32.334-73.664-51.279-15.271-6.717-39.566,0-39.566,0Z" transform="translate(115.606 -32.355)" fill="#15ace5"/>
    <path id="Path_2259" data-name="Path 2259" d="M239.213,199.7a95.651,95.651,0,0,1,22.046-2.939c-9.495-19.871-27.22-56.938-38.728-80.954-27.087.25-46.929,9.642-47.532,10.288Z" transform="translate(52.544 -32.346)" opacity="0.1"/>
    <path id="Path_2260" data-name="Path 2260" d="M201.763,202.77c-1.058,1.235-18.842,65.477,31.35,112.656,46.135,43.387,120.225,48.81,120.842,41.932.75-8.422-36.92-24.912-62.641-64.287-9.112-13.963-6.482-39.036-6.482-39.036Z" transform="translate(-73.75 8.503)" fill="#15ace5"/>
    <path id="Path_2261" data-name="Path 2261" d="M245.921,251.683l86.215,25.089a95.755,95.755,0,0,1-.75-22.737l-83.07-51.265C247.655,203.475,241.512,224.772,245.921,251.683Z" transform="translate(-120.245 8.503)" opacity="0.1"/>
    <path id="Path_2262" data-name="Path 2262" d="M434.23,348.819l59.054-69.651s-30.865-82.585-104-138.053c-36.553-27.675-79.366-48.384-117.829-62.082-52.984-18.989-97.312-24.457-104.176-16.4s5.879,50.941,33.187,100.134c19.827,35.583,47.282,74.5,80.557,106.042C347.721,331.946,434.23,348.819,434.23,348.819Z" transform="translate(-165.445 -59.017)" fill="#c7c7c7"/>
    <path id="Path_2263" data-name="Path 2263" d="M262.8,211.134a52.661,52.661,0,1,0-6.114-74.178,52.661,52.661,0,0,0,6.114,74.178Z" transform="translate(-137.481 -31.166)" fill="#a6a6a6"/>
    <path id="Path_2264" data-name="Path 2264" d="M264.8,207.809a52.661,52.661,0,1,0-6.114-74.222,52.661,52.661,0,0,0,6.114,74.222Z" transform="translate(-142.359 -32.736)" fill="#15ace5"/>
    <path id="Path_2265" data-name="Path 2265" d="M270.029,190.317a36.523,36.523,0,1,0-4.2-51.441,36.523,36.523,0,0,0,4.2,51.441Z" transform="translate(-137.167 -27.574)" fill="#fff"/>
    <path id="Path_2266" data-name="Path 2266" d="M265.986,173.748a36.494,36.494,0,0,0,11.684,6.687l29.395-2.4a36.273,36.273,0,0,0,10.435-8.5,35.8,35.8,0,0,0,5.306-8.3L259.46,166.4a36,36,0,0,0,6.526,7.349Z" transform="translate(-133.138 -11.005)" fill="#ebebeb"/>
    <path id="Path_2267" data-name="Path 2267" d="M263.34,143.18l58.467-4.762a35.71,35.71,0,0,0-3.821-3.777,36.508,36.508,0,0,0-51.441,4.2,35.437,35.437,0,0,0-3.2,4.336Z" transform="translate(-137.841 -27.572)" fill="#ebebeb"/>
    <path id="Path_2268" data-name="Path 2268" d="M258.344,162.465l69.96-5.717a29.41,29.41,0,0,0,.514-3.248l-71.488,5.879C257.609,160.378,257.962,161.422,258.344,162.465Z" transform="translate(-136.02 -14.641)" fill="#ebebeb"/>
    <path id="Path_2269" data-name="Path 2269" d="M351.4,162.764,422.39,78.989C369.406,60.044,325.079,54.576,318.215,62.63S324.035,113.572,351.4,162.764Z" transform="translate(-316.38 -59.017)" fill="#15ace5"/>
    <path id="Path_2270" data-name="Path 2270" d="M328.213,79.179a3.072,3.072,0,1,0-.353-4.321A3.072,3.072,0,0,0,328.213,79.179Z" transform="translate(-243.073 -52.094)" fill="#fff"/>
    <path id="Path_2271" data-name="Path 2271" d="M336.817,89.321a3.071,3.071,0,1,0-.36-4.329,3.071,3.071,0,0,0,.36,4.329Z" transform="translate(-264.303 -47.333)" fill="#fff"/>
    <path id="Path_2272" data-name="Path 2272" d="M345.488,99.463a3.057,3.057,0,1,0-1.128-2.126A3.072,3.072,0,0,0,345.488,99.463Z" transform="translate(-285.599 -42.586)" fill="#fff"/>
    <path id="Path_2273" data-name="Path 2273" d="M354.067,109.6a3.072,3.072,0,1,0-1.113-2.13A3.072,3.072,0,0,0,354.067,109.6Z" transform="translate(-306.817 -37.821)" fill="#fff"/>
    <path id="Path_2274" data-name="Path 2274" d="M362.645,119.731a3.072,3.072,0,1,0-1.076-2.095,3.072,3.072,0,0,0,1.076,2.095Z" transform="translate(-328.094 -33.048)" fill="#fff"/>
    <path id="Path_2275" data-name="Path 2275" d="M174.647,209.431a3.071,3.071,0,1,0-.36-4.329,3.071,3.071,0,0,0,.36,4.329Z" transform="translate(136.216 9.088)" fill="#a6a6a6"/>
    <path id="Path_2276" data-name="Path 2276" d="M183.347,219.581a3.072,3.072,0,1,0-1.113-2.13,3.072,3.072,0,0,0,1.113,2.13Z" transform="translate(114.818 13.842)" fill="#a6a6a6"/>
    <path id="Path_2277" data-name="Path 2277" d="M191.875,229.731a3.072,3.072,0,1,0-1.076-2.095,3.072,3.072,0,0,0,1.076,2.095Z" transform="translate(93.665 18.624)" fill="#a6a6a6"/>
    <path id="Path_2278" data-name="Path 2278" d="M200.527,239.851a3.072,3.072,0,1,0-1.113-2.13,3.072,3.072,0,0,0,1.113,2.13Z" transform="translate(72.387 23.363)" fill="#a6a6a6"/>
    <path id="Path_2279" data-name="Path 2279" d="M209.138,249.983a3.057,3.057,0,1,0-1.128-2.126,3.072,3.072,0,0,0,1.128,2.126Z" transform="translate(51.151 28.12)" fill="#a6a6a6"/>
    <path id="Path_2280" data-name="Path 2280" d="M165.45,60.562c40.888,2.939,111.7,27.69,186.2,86.127C406.709,189.856,446.877,265.4,465.6,305.745l22.531-26.573s-30.865-82.585-104-138.053C347.581,113.444,304.767,92.735,266.3,79.037,218.816,62,178.3,55.83,165.45,60.562Z" transform="translate(-160.294 -59.022)" fill="#fff" opacity="0.2"/>
    <path id="Path_2281" data-name="Path 2281" d="M178.2,288.549,226.219,231.9l-18.68-20.415L155.01,273.454Z" transform="translate(116.964 12.6)" fill="#15ace5"/>
    <path id="Path_2282" data-name="Path 2282" d="M162.86,273.45l11.3,7.349,48.369-61.509-7.143-7.79Z" transform="translate(109.114 12.604)" opacity="0.1"/>
    <path id="Path_2283" data-name="Path 2283" d="M329.28,145.151l21.943-1.47,10.318,20.9L360.6,141.3l19.959-9.23-22.164.22-10.082-19.65.529,22.076Z" transform="translate(-293.509 -33.835)" fill="#fcfcfc"/>
    <path id="Path_2284" data-name="Path 2284" d="M341,85.416l12.272-.808,5.761,11.684L358.5,83.27l11.155-5.159-12.39.118L351.641,67.25l.294,12.346Z" transform="translate(-299.835 -55.156)" fill="#fcfcfc"/>
    <path id="Path_2285" data-name="Path 2285" d="M273.48,254.936l12.258-.823L291.5,265.8l-.514-13.007,11.155-5.159-12.39.118-5.644-10.979.309,12.346Z" transform="translate(-133.078 24.475)" fill="#fcfcfc"/>
    <path id="Path_2286" data-name="Path 2286" d="M124.96,181.186l12.272-.823,5.761,11.684-.529-13.007,11.155-5.159L141.23,174,135.6,163.02l.294,12.331Z" transform="translate(233.729 -10.169)" fill="#fcfcfc"/>
    <path id="Path_2287" data-name="Path 2287" d="M115.355,265.72c22.267,15.006,41.917,34.157,56.262,57.041a153.471,153.471,0,0,1,24.089,76.794,140.728,140.728,0,0,1-5.012,40.976,146.635,146.635,0,0,1-16.99,38.507,168.365,168.365,0,0,1-27.352,33.128,212.951,212.951,0,0,1-34.862,26.455,214.586,214.586,0,0,0,38.213-22.5,175,175,0,0,0,32.334-31.129,157.762,157.762,0,0,0,34.128-84.716c2.763-31.32-3.851-63.464-17.549-92.138s-34.172-54.145-58.364-74.957Z" transform="translate(190.364 22.788)" fill="#15ace5" opacity="0.6"/>
    <path id="Path_2288" data-name="Path 2288" d="M140.01,282.021l8.76,1.617,1.955,9.23,1.955-9.23,8.76-1.631-8.73-2.131-1.984-8.716-2,8.716Z" transform="translate(203.79 40.629)" fill="#fff"/>
    <path id="Path_2289" data-name="Path 2289" d="M124.51,398.115l4.894.911,1.088,5.159,1.1-5.159,4.894-.911-4.88-1.191-1.117-4.865-1.117,4.865Z" transform="translate(251.522 97.422)" fill="#fff"/>
    <path id="Path_2290" data-name="Path 2290" d="M122.72,367.65l4.894.9,1.088,5.174,1.088-5.174,4.909-.9-4.88-1.191-1.117-4.88-1.117,4.88Z" transform="translate(255.943 83.104)" fill="#fff"/>
    <path id="Path_2291" data-name="Path 2291" d="M142.04,260.9l4.894.911,1.1,5.159,1.088-5.159,4.894-.911-4.88-1.19-1.1-4.865L146.92,259.7Z" transform="translate(208.227 32.963)" fill="#fff"/>
    <path id="Path_2292" data-name="Path 2292" d="M140.887,403.78A1.47,1.47,0,1,1,139.8,405.2,1.47,1.47,0,0,1,140.887,403.78Z" transform="translate(223.564 102.927)" fill="#fff"/>
    <path id="Path_2293" data-name="Path 2293" d="M168.447,254.26a1.47,1.47,0,1,1-1.084,1.418,1.47,1.47,0,0,1,1.084-1.418Z" transform="translate(155.498 32.691)" fill="#fff"/>
    <path id="Path_2294" data-name="Path 2294" d="M116.467,340.37a1.47,1.47,0,1,1-1.084,1.418A1.47,1.47,0,0,1,116.467,340.37Z" transform="translate(283.875 73.14)" fill="#fff"/>
    <path id="Path_2295" data-name="Path 2295" d="M139.105,398.75a1.014,1.014,0,1,1-.892,1.007A1.014,1.014,0,0,1,139.105,398.75Z" transform="translate(227.873 100.564)" fill="#fff"/>
    <path id="Path_2296" data-name="Path 2296" d="M116.089,306.63a1,1,0,1,1-1,1,1,1,0,0,1,1-1Z" transform="translate(284.767 57.291)" fill="#fff"/>
    <path id="Path_2297" data-name="Path 2297" d="M123.53,376.49A2.734,2.734,0,1,1,121,379.216a2.734,2.734,0,0,1,2.533-2.726Z" transform="translate(267.112 90.108)" fill="#fff"/>
    <path id="Path_2298" data-name="Path 2298" d="M125.379,300.35a2.719,2.719,0,1,1-2.719,2.719A2.719,2.719,0,0,1,125.379,300.35Z" transform="translate(262.631 54.341)" fill="#fff"/>
  </g>
</svg>
