<svg xmlns="http://www.w3.org/2000/svg" width="597" height="597" viewBox="0 0 597 597">
  <g id="Time_management-cuate" data-name="Time management-cuate" transform="translate(-8.104 -18.099)">
    <g id="freepik--background-complete--inject-69" transform="translate(56.767 51.664)">
      <path id="Path_1611" data-name="Path 1611" d="M409.336,152.922l12.994,8.058,2.468-3.973a3.628,3.628,0,0,1,3.418-1.691c.765.062,1.518.086,2.283.074a3.616,3.616,0,0,1,3.307,1.888l2.209,4.134,13.475-7.231-2.209-4.121a3.7,3.7,0,0,1,.247-3.8,22.9,22.9,0,0,0,1.234-1.95,3.6,3.6,0,0,1,3.295-1.913l4.677.148.481-15.289-4.7-.136a3.616,3.616,0,0,1-3.159-2.135c-.16-.333-.333-.666-.506-1s-.37-.666-.568-.987a3.7,3.7,0,0,1,0-3.788l2.468-4.01-12.994-8.058-2.468,3.986a3.628,3.628,0,0,1-3.43,1.678c-.753-.062-1.505-.086-2.271-.074a3.7,3.7,0,0,1-3.295-1.9l-2.221-4.121-13.475,7.231,2.209,4.121a3.7,3.7,0,0,1-.234,3.8,18.627,18.627,0,0,0-1.234,1.937,3.628,3.628,0,0,1-3.307,1.913l-4.689-.136-.469,15.277,4.689.148a3.7,3.7,0,0,1,3.159,2.122c.16.345.321.679.506,1.024s.358.654.555.975a3.628,3.628,0,0,1,0,3.813Zm9.65-12.944a12.525,12.525,0,1,1,16.955,5.133,12.525,12.525,0,0,1-16.955-5.133Z" transform="translate(35.596 -30.932)" fill="#ebebeb"/>
      <path id="Path_1612" data-name="Path 1612" d="M397.81,198.138l5.355,9.279L406,205.776a2.468,2.468,0,0,1,2.678.086,13.915,13.915,0,0,0,1.382.8,2.468,2.468,0,0,1,1.407,2.258V212.2h10.723v-3.282a2.468,2.468,0,0,1,1.407-2.258,13.9,13.9,0,0,0,1.382-.8,2.468,2.468,0,0,1,2.678-.086l2.838,1.641,5.355-9.279L433,196.484a2.529,2.529,0,0,1-1.234-2.357v-1.579A2.542,2.542,0,0,1,433,190.191l2.863-1.641-5.355-9.279-2.85,1.641a2.53,2.53,0,0,1-2.665-.1c-.444-.284-.913-.555-1.382-.8a2.468,2.468,0,0,1-1.407-2.258V174.47H411.482v3.282a2.468,2.468,0,0,1-1.407,2.258c-.469.247-.925.518-1.37.8a2.554,2.554,0,0,1-2.678.1l-2.85-1.641-5.355,9.279,2.85,1.641a2.53,2.53,0,0,1,1.234,2.357c0,.259,0,.518,0,.79v.79a2.567,2.567,0,0,1-1.234,2.369Zm10.242-4.8a8.773,8.773,0,1,1,2.565,6.212,8.786,8.786,0,0,1-2.565-6.212Z" transform="translate(34.412 -15.078)" fill="#ebebeb"/>
      <path id="Path_1613" data-name="Path 1613" d="M51.27,284.105l5.355,9.279,2.838-1.641a2.53,2.53,0,0,1,2.665.1c.457.284.913.555,1.394.8A2.542,2.542,0,0,1,64.93,294.9v3.245H75.616v-3.282a2.468,2.468,0,0,1,1.419-2.258c.469-.247.938-.518,1.382-.8a2.53,2.53,0,0,1,2.665-.1l2.85,1.641,5.343-9.279-2.85-1.641a2.53,2.53,0,0,1-1.234-2.357c0-.259,0-.531,0-.79v-.79a2.53,2.53,0,0,1,1.234-2.357l2.85-1.654L83.933,265.2l-2.85,1.641a2.468,2.468,0,0,1-2.678-.086,13.911,13.911,0,0,0-1.382-.8,2.542,2.542,0,0,1-1.407-2.221V260.45H64.93v3.282a2.542,2.542,0,0,1-1.407,2.258,13.9,13.9,0,0,0-1.382.8,2.468,2.468,0,0,1-2.665.086l-2.85-1.641-5.355,9.279,2.85,1.654a2.567,2.567,0,0,1,1.234,2.345c0,.272,0,.531,0,.8v.79a2.542,2.542,0,0,1-1.234,2.357Zm10.242-4.788a8.774,8.774,0,1,1,8.774,8.773A8.773,8.773,0,0,1,61.512,279.317Z" transform="translate(-46.667 5.038)" fill="#ebebeb"/>
      <rect id="Rectangle_396" data-name="Rectangle 396" width="162.575" height="249.286" fill="#ebebeb"/>
      <rect id="Rectangle_397" data-name="Rectangle 397" width="68.658" height="110.884" transform="translate(8.86 9.983)" fill="#fff"/>
      <rect id="Rectangle_398" data-name="Rectangle 398" width="68.646" height="110.884" transform="translate(85.082 9.983)" fill="#fff"/>
      <rect id="Rectangle_399" data-name="Rectangle 399" width="68.658" height="110.884" transform="translate(8.86 128.419)" fill="#fff"/>
      <rect id="Rectangle_400" data-name="Rectangle 400" width="68.646" height="110.884" transform="translate(85.082 128.419)" fill="#fff"/>
      <path id="Path_1614" data-name="Path 1614" d="M96.292,53.39,54.72,94.962V70.431L71.773,53.39Z" transform="translate(-45.86 -43.407)" fill="#ebebeb"/>
      <path id="Path_1615" data-name="Path 1615" d="M54.72,248.928l68.658-68.658v24.507L75.142,253.025H54.72Z" transform="translate(-45.86 -13.721)" fill="#ebebeb"/>
      <path id="Path_1616" data-name="Path 1616" d="M171.577,149.37l-55.1,55.1V179.948l30.578-30.578Z" transform="translate(-31.41 -20.951)" fill="#ebebeb"/>
      <path id="Path_1617" data-name="Path 1617" d="M177.908,118.52v24.507l-6.009,6.009H147.38Z" transform="translate(-24.181 -28.169)" fill="#ebebeb"/>
      <path id="Path_1618" data-name="Path 1618" d="M176.989,218.41v24.519l-1.172,1.172H151.31Z" transform="translate(-23.261 -4.798)" fill="#ebebeb"/>
      <path id="Path_1619" data-name="Path 1619" d="M58.656,149.37H70.91L54.72,165.56V153.294Z" transform="translate(-45.86 -20.951)" fill="#ebebeb"/>
      <path id="Path_1620" data-name="Path 1620" d="M64.03,154.092,121.2,96.91v12.253L76.283,154.092Z" transform="translate(-43.682 -33.225)" fill="#ebebeb"/>
      <path id="Path_1621" data-name="Path 1621" d="M174.9,53.39l-58.416,58.4V99.54l46.163-46.15Z" transform="translate(-31.41 -43.407)" fill="#ebebeb"/>
      <path id="Path_1622" data-name="Path 1622" d="M116.443,53.39,54.72,115.113v-3.073L113.371,53.39Z" transform="translate(-45.86 -43.407)" fill="#ebebeb"/>
      <path id="Path_1623" data-name="Path 1623" d="M85.82,244.974,116.1,214.68v3.073L88.893,244.974Z" transform="translate(-38.584 -5.67)" fill="#ebebeb"/>
      <path id="Path_1624" data-name="Path 1624" d="M185.138,152.94v3.048L116.48,224.646v-3.073Z" transform="translate(-31.41 -20.116)" fill="#ebebeb"/>
      <rect id="Rectangle_401" data-name="Rectangle 401" width="162.575" height="249.286" transform="translate(199.101)" fill="#ebebeb"/>
      <rect id="Rectangle_402" data-name="Rectangle 402" width="68.658" height="110.884" transform="translate(207.961 9.983)" fill="#fff"/>
      <rect id="Rectangle_403" data-name="Rectangle 403" width="68.646" height="110.884" transform="translate(284.171 9.983)" fill="#fff"/>
      <rect id="Rectangle_404" data-name="Rectangle 404" width="68.658" height="110.884" transform="translate(207.961 128.419)" fill="#fff"/>
      <rect id="Rectangle_405" data-name="Rectangle 405" width="68.646" height="110.884" transform="translate(284.171 128.419)" fill="#fff"/>
      <path id="Path_1625" data-name="Path 1625" d="M216.07,149.37h6.466l-6.466,6.466Z" transform="translate(-8.109 -20.951)" fill="#ebebeb"/>
      <path id="Path_1626" data-name="Path 1626" d="M216.07,147.76l68.658-68.67v24.531l-54.64,54.64H216.07Z" transform="translate(-8.109 -37.394)" fill="#ebebeb"/>
      <path id="Path_1627" data-name="Path 1627" d="M326.522,53.39,277.83,102.082V77.551L301.991,53.39Z" transform="translate(6.341 -43.407)" fill="#ebebeb"/>
      <path id="Path_1628" data-name="Path 1628" d="M346.476,178.55v24.519L296.13,253.427h-18.3V247.2Z" transform="translate(6.341 -14.124)" fill="#ebebeb"/>
      <path id="Path_1629" data-name="Path 1629" d="M284.728,53.39V55.66L216.07,124.319V112.053L274.721,53.39Z" transform="translate(-8.109 -43.407)" fill="#ebebeb"/>
      <path id="Path_1630" data-name="Path 1630" d="M249.63,244.4l27.246-27.246V229.4L261.883,244.4Z" transform="translate(-0.257 -5.092)" fill="#ebebeb"/>
      <path id="Path_1631" data-name="Path 1631" d="M346.476,155.39v12.266L277.83,236.3V224.048Z" transform="translate(6.341 -19.542)" fill="#ebebeb"/>
      <path id="Path_1632" data-name="Path 1632" d="M230.878,149.37h3.073l-17.88,17.88v-3.06Z" transform="translate(-8.109 -20.951)" fill="#ebebeb"/>
      <path id="Path_1633" data-name="Path 1633" d="M234.19,152.029l46.3-46.3V108.8l-43.226,43.226Z" transform="translate(-3.87 -31.161)" fill="#ebebeb"/>
      <path id="Path_1634" data-name="Path 1634" d="M337.937,53.39,277.83,113.5v-3.073L334.864,53.39Z" transform="translate(6.341 -43.407)" fill="#ebebeb"/>
      <path id="Path_1635" data-name="Path 1635" d="M216.07,250.378l68.658-68.658v3.06l-67.905,67.905h-.753Z" transform="translate(-8.109 -13.382)" fill="#ebebeb"/>
      <path id="Path_1636" data-name="Path 1636" d="M313.257,149.37,277.83,184.8v-3.06l32.355-32.367Z" transform="translate(6.341 -20.951)" fill="#ebebeb"/>
      <path id="Path_1637" data-name="Path 1637" d="M338.909,119.96v3.073L313.243,148.7H310.17Z" transform="translate(13.907 -27.832)" fill="#ebebeb"/>
    </g>
    <g id="freepik--Shadows--inject-69" transform="translate(15.947 499.089)">
      <ellipse id="Ellipse_128" data-name="Ellipse 128" cx="181.344" cy="24.445" rx="181.344" ry="24.445" transform="translate(109.305)" fill="#ebebeb"/>
      <ellipse id="Ellipse_129" data-name="Ellipse 129" cx="50.914" cy="10.082" rx="50.914" ry="10.082" transform="translate(455.532 14.684)" fill="#ebebeb"/>
      <ellipse id="Ellipse_130" data-name="Ellipse 130" cx="190.056" cy="22.261" rx="190.056" ry="22.261" transform="translate(0 27.838)" fill="#ebebeb"/>
    </g>
    <g id="freepik--Floor--inject-69" transform="translate(39.319 493.043)">
      <path id="Path_1638" data-name="Path 1638" d="M33.4,403.607l66.819-.3,66.819-.111,133.639-.21,133.639.21,66.819.111,66.819.3-66.819.308-66.819.1-133.639.21-133.639-.21-66.819-.1Z" transform="translate(-33.4 -402.99)" fill="#263238"/>
    </g>
    <g id="freepik--Clock--inject-69" transform="translate(8.104 18.099)">
      <path id="Path_1639" data-name="Path 1639" d="M146.006,389.23,128.41,436.7h20.657l38.253-26.061Z" transform="translate(20.044 68.734)" fill="#15ace5"/>
      <path id="Path_1640" data-name="Path 1640" d="M146.006,389.23,128.41,436.7h20.657l38.253-26.061Z" transform="translate(20.044 68.734)" opacity="0.1"/>
      <path id="Path_1641" data-name="Path 1641" d="M365.163,389.23l17.6,47.471H362.1L323.85,410.639Z" transform="translate(65.771 68.734)" fill="#15ace5"/>
      <path id="Path_1642" data-name="Path 1642" d="M365.163,389.23l17.6,47.471H362.1L323.85,410.639Z" transform="translate(65.771 68.734)" opacity="0.1"/>
      <circle id="Ellipse_131" data-name="Ellipse 131" cx="211.07" cy="211.07" r="211.07" transform="translate(0 298.5) rotate(-45)" fill="#15ace5"/>
      <circle id="Ellipse_132" data-name="Ellipse 132" cx="201.408" cy="201.408" r="201.408" transform="translate(94.517 93.623)" opacity="0.1"/>
      <circle id="Ellipse_133" data-name="Ellipse 133" cx="188.686" cy="188.686" r="188.686" transform="translate(31.649 297.604) rotate(-45)" fill="#fff"/>
      <path id="Path_1643" data-name="Path 1643" d="M467.222,250.868C381.3,302.929,240.085,388.332,161.2,435.149a188.8,188.8,0,0,1-51.568-69.337L370.651,123.88a188.871,188.871,0,0,1,96.57,126.988Z" transform="translate(15.65 6.651)" fill="#ebebeb"/>
      <path id="Path_1644" data-name="Path 1644" d="M455.393,264.58A187.035,187.035,0,0,1,442.917,325.9L207.636,437.188a186.794,186.794,0,0,1-29.726-12.772C248.95,383.337,378.862,308.6,455.393,264.58Z" transform="translate(31.626 39.57)" fill="#ebebeb"/>
      <rect id="Rectangle_406" data-name="Rectangle 406" width="3.64" height="28.603" transform="translate(296.666 122.609)" fill="#c7c7c7"/>
      <rect id="Rectangle_407" data-name="Rectangle 407" width="3.653" height="28.603" transform="translate(209.423 146.946) rotate(-30)" fill="#c7c7c7"/>
      <rect id="Rectangle_408" data-name="Rectangle 408" width="3.64" height="28.603" transform="translate(146.031 211.654) rotate(-60)" fill="#c7c7c7"/>
      <rect id="Rectangle_409" data-name="Rectangle 409" width="28.603" height="3.64" transform="translate(123.503 295.772)" fill="#c7c7c7"/>
      <rect id="Rectangle_410" data-name="Rectangle 410" width="28.603" height="3.64" transform="translate(146.01 383.527) rotate(-30)" fill="#c7c7c7"/>
      <rect id="Rectangle_411" data-name="Rectangle 411" width="28.603" height="3.653" transform="translate(209.428 448.266) rotate(-60.03)" fill="#c7c7c7"/>
      <rect id="Rectangle_412" data-name="Rectangle 412" width="3.64" height="28.603" transform="translate(296.666 443.984)" fill="#c7c7c7"/>
      <rect id="Rectangle_413" data-name="Rectangle 413" width="3.653" height="28.603" transform="translate(370.116 425.282) rotate(-30)" fill="#c7c7c7"/>
      <rect id="Rectangle_414" data-name="Rectangle 414" width="3.64" height="28.603" transform="translate(424.352 372.337) rotate(-60)" fill="#c7c7c7"/>
      <rect id="Rectangle_415" data-name="Rectangle 415" width="28.603" height="3.64" transform="translate(444.878 295.772)" fill="#c7c7c7"/>
      <rect id="Rectangle_416" data-name="Rectangle 416" width="28.603" height="3.64" transform="translate(424.359 222.858) rotate(-30)" fill="#c7c7c7"/>
      <rect id="Rectangle_417" data-name="Rectangle 417" width="28.603" height="3.653" transform="translate(370.129 169.936) rotate(-60.03)" fill="#c7c7c7"/>
      <path id="Path_1645" data-name="Path 1645" d="M425.36,263.664l-183.01,5.109.222-17.893L425.409,258.8Z" transform="translate(46.703 36.365)" fill="#15ace5"/>
      <path id="Path_1646" data-name="Path 1646" d="M252.913,154.992l7.922,139.266-17.9-.234,5.133-139.093Z" transform="translate(46.838 13.916)" fill="#263238"/>
      <circle id="Ellipse_134" data-name="Ellipse 134" cx="6.108" cy="6.108" r="6.108" transform="translate(292.384 291.49)" fill="#15ace5"/>
    </g>
    <g id="freepik--Character--inject-69" transform="translate(292.041 151.783)">
      <path id="Path_1647" data-name="Path 1647" d="M403.184,268.841c-.679-2.048-37.019-50.038-39.487-50.951-.284-.123-16.511,11.427-16.511,11.427-.679.888-31.528-5.627-31.528-5.627l-.308,37.216,56.207-1.234s7.589,4.467,14.536,8.107h0a83.246,83.246,0,0,0,9.131,4.43C398.075,272.975,403.875,270.877,403.184,268.841Z" transform="translate(-220.155 -105.039)" fill="#f7a9a0"/>
      <path id="Path_1648" data-name="Path 1648" d="M390.688,272.247a79.833,79.833,0,0,1-9.131-4.43h0c-6.947-3.7-14.536-8.107-14.536-8.107l-12.512.271-19.608-31.6c4.307.765,7.5,1.234,7.725.938,0,0,16.227-11.562,16.51-11.427,2.468.913,38.8,48.89,39.487,50.951S393.5,272.975,390.688,272.247Z" transform="translate(-215.581 -105.039)" fill="#fff"/>
      <path id="Path_1649" data-name="Path 1649" d="M397.478,268.9c-.716-2.1-37.192-50.05-39.746-51-.962-.37-8.9,4.541-16.572,11.414L364.7,260.167s21.73,11.513,24.679,12.253S398.194,271,397.478,268.9Z" transform="translate(-214.116 -105.04)" fill="#a6a6a6"/>
      <path id="Path_1650" data-name="Path 1650" d="M391.774,269.071c-6.318-7.885-31.034-40.289-36.674-48.569h0c6.417,7.675,30.849,40.289,36.748,48.507C392,269.145,391.909,269.256,391.774,269.071Z" transform="translate(-210.854 -104.442)" fill="#263238"/>
      <path id="Path_1651" data-name="Path 1651" d="M377.249,262.825a8.07,8.07,0,0,1-1.691-6.293,7.811,7.811,0,0,1,2.924-5.072s.111,0,.074.1a9.366,9.366,0,0,0-1.234,11.192.062.062,0,1,1-.074.074Z" transform="translate(-206.09 -97.184)" fill="#263238"/>
      <path id="Path_1652" data-name="Path 1652" d="M363.1,255.982c-2.468-3.184-4.2-7.786-3.085-11.784,0-.16.271-.086.284,0a55.763,55.763,0,0,0,3.245,11.5.264.264,0,0,1-.444.284Z" transform="translate(-209.785 -98.905)" fill="#263238"/>
      <path id="Path_1653" data-name="Path 1653" d="M365.42,257.391c-2.468-3.184-4.2-7.774-3.085-11.772,0-.16.259-.1.284,0a56.407,56.407,0,0,0,3.233,11.488.258.258,0,0,1-.432.284Z" transform="translate(-209.242 -98.574)" fill="#263238"/>
      <path id="Path_1654" data-name="Path 1654" d="M367.73,258.811c-2.468-3.184-4.2-7.786-3.085-11.784,0-.148.271-.086.3,0a54.864,54.864,0,0,0,3.233,11.488.267.267,0,0,1-.444.3Z" transform="translate(-208.702 -98.242)" fill="#263238"/>
      <path id="Path_1655" data-name="Path 1655" d="M370.05,260.251c-2.468-3.184-4.2-7.774-3.085-11.772,0-.16.259-.1.284,0a56.4,56.4,0,0,0,3.233,11.488.258.258,0,0,1-.432.284Z" transform="translate(-208.159 -97.905)" fill="#263238"/>
      <path id="Path_1656" data-name="Path 1656" d="M350.319,227.929c-2.739-3.628,2.875-7.885,5.627-4.257S353.059,231.545,350.319,227.929Z" transform="translate(-212.145 -104.009)" fill="#263238"/>
      <path id="Path_1657" data-name="Path 1657" d="M362.629,260.821c.925-3.443.321-7.157.16-10.649a.494.494,0,0,0-.7-.382.1.1,0,0,0-.16,0,21.3,21.3,0,0,0-6.009,9.181c-.642,2.073-.395,5.133,2.2,5.738S362.1,262.832,362.629,260.821Zm-2.554,2.172c-3.7,2.345-3.455-2.85-2.924-4.368a24.213,24.213,0,0,1,1.234-2.826,63.257,63.257,0,0,1,3.381-5.43c0,1.715.1,3.43.136,5.146.086,2.048.247,6.195-1.826,7.478Z" transform="translate(-210.733 -97.586)" fill="#263238"/>
      <path id="Path_1658" data-name="Path 1658" d="M352.177,241.921c-1.913,1.851-.543,4.59,1.074,6.034a21.212,21.212,0,0,0,9.872,4.775.111.111,0,0,0,.123-.111.506.506,0,0,0,.407-.691c-1.666-3.073-3.073-6.577-5.627-9.045C356.557,241.44,354,240.169,352.177,241.921Zm8.008,5.861c.851,1.493,1.629,3.023,2.542,4.479a63.751,63.751,0,0,1-5.713-2.912,23.931,23.931,0,0,1-2.542-1.765c-1.234-1.012-4.158-5.331.247-5.257,2.468.049,4.467,3.677,5.491,5.454Z" transform="translate(-211.756 -99.615)" fill="#263238"/>
      <path id="Path_1659" data-name="Path 1659" d="M332.018,215.007H306.8s-26.395-12.685-47.644-7.577c-24.371,5.861-27.493,36.464-9.28,47.286,23.088,13.709,125.779,11.106,125.779,11.106l-22.2-37.661s-34.156-7.182-65.129-6.17l43.695,5.96Z" transform="translate(-238.204 -107.769)" fill="#455a64"/>
      <path id="Path_1660" data-name="Path 1660" d="M348.312,228.071a1.111,1.111,0,0,1,0-.2v-.16a2.14,2.14,0,0,0-.086-.358c-.025-.123-.173-.494-.259-.74a7.44,7.44,0,0,0-.321-.716,4.579,4.579,0,0,0-.407-.666h-.062c-3.764-.7-29.282-4.356-33.07-4.788s-7.663-.79-11.5-1.111a227.67,227.67,0,0,0-23.026-.827h-2.159a2.155,2.155,0,0,1-.469-.111l-1.111-.259c-.691-.123-1.394-.234-2.085-.333-1.456-.222-2.912-.383-4.368-.654-.086,0-.111.123,0,.136,1.456.333,2.875.753,4.331,1.061l1.234.271c-2.813.148-5.627.37-8.44.617-.086,0-.086.148,0,.148,3.825-.234,7.688-.259,11.513-.2s7.6.148,11.4.37c7.688.444,15.363,1.123,23.014,1.925,4.294.457,30.319,4.245,34.625,4.43h.062a2.883,2.883,0,0,0,.111.3l.37.7c.123.222.247.432.383.642l.21.321.111.148a.687.687,0,0,1,.111.16C348.435,228.231,348.374,228.071,348.312,228.071Z" transform="translate(-231.596 -105.212)" fill="#263238"/>
      <path id="Path_1661" data-name="Path 1661" d="M346.94,259.172c-1.357-2.2-2.591-4.479-3.825-6.812s-2.468-4.553-3.788-6.824c-2.53-4.529-11.587-19.744-12.488-20.842,0-.062-.173,0-.148.086.432,1.234,6.1,11.278,7.4,13.574,2.6,4.5,5.343,8.909,8.045,13.364.765,1.234,1.567,2.468,2.345,3.776s1.617,2.468,2.332,3.8C346.816,259.32,346.989,259.246,346.94,259.172Z" transform="translate(-217.502 -103.452)" fill="#263238"/>
      <path id="Path_1662" data-name="Path 1662" d="M340.085,229.672c-2.258-.555-4.578-.9-6.873-1.333l-6.886-1.3q-6.886-1.234-13.8-2.468c-9.193-1.555-18.423-2.838-27.7-3.7-5.232-.494-10.476-.827-15.733-1.234-.111,0-.1.16,0,.173,9.341.42,18.67,1.678,27.925,3.011s18.3,2.764,27.431,4.307l7.725,1.32c2.616.457,5.232,1.012,7.86,1.345C340.147,229.833,340.2,229.685,340.085,229.672Z" transform="translate(-230.995 -104.629)" fill="#263238"/>
      <path id="Path_1663" data-name="Path 1663" d="M358.907,373.978c-2.209-.222-57.219-24.951-58.725-27.221-.568-.852,2.567-9.07,6.626-18.9.888-2.122,1.8-4.307,2.752-6.515,6.17-14.388,12.969-29.517,12.969-29.517l36.846,16.437L345.4,337.316l-3.06,6.38s16.819,18.88,18.2,21.545S361.128,374.2,358.907,373.978Z" transform="translate(-223.719 -87.741)" fill="#f7a9a0"/>
      <path id="Path_1664" data-name="Path 1664" d="M358.907,368.381c-2.209-.222-57.219-24.951-58.725-27.221-.691-1.037,4.072-12.957,9.378-25.42l35.785,15.98-3.06,6.38s16.819,18.88,18.2,21.545S361.128,368.6,358.907,368.381Z" transform="translate(-223.719 -82.144)" fill="#fff"/>
      <path id="Path_1665" data-name="Path 1665" d="M358.907,367.146c-2.209-.222-57.219-24.951-58.725-27.221-.568-.851,2.567-9.07,6.626-18.9l35.526,15.844s16.819,18.88,18.2,21.545S361.128,367.368,358.907,367.146Z" transform="translate(-223.719 -80.909)" fill="#a6a6a6"/>
      <path id="Path_1666" data-name="Path 1666" d="M358.5,361.026c-9.119-4.368-46.323-21.138-55.664-24.766h0c8.946,4.529,46.286,20.977,55.627,24.864C358.584,361.26,358.683,361.112,358.5,361.026Z" transform="translate(-223.1 -77.343)" fill="#263238"/>
      <path id="Path_1667" data-name="Path 1667" d="M348.977,348.582a8.119,8.119,0,0,0-6.528-.222,7.8,7.8,0,0,0-4.27,4s.074.1.111,0a9.366,9.366,0,0,1,10.637-3.7.062.062,0,0,0,.049-.074Z" transform="translate(-214.813 -74.648)" fill="#263238"/>
      <path id="Path_1668" data-name="Path 1668" d="M339.211,336.2c-3.7-1.7-8.539-2.32-12.179-.333-.148.074,0,.271.1.259a56.133,56.133,0,0,1,11.945.568.259.259,0,0,0,.136-.494Z" transform="translate(-217.436 -77.726)" fill="#263238"/>
      <path id="Path_1669" data-name="Path 1669" d="M341.11,338.14c-3.7-1.7-8.527-2.332-12.179-.345-.136.086,0,.284.111.271a56.013,56.013,0,0,1,11.933.555.25.25,0,0,0,.136-.481Z" transform="translate(-216.991 -77.273)" fill="#263238"/>
      <path id="Path_1670" data-name="Path 1670" d="M343.021,340.08c-3.7-1.715-8.539-2.332-12.179-.346-.148.074,0,.284.1.272a55.97,55.97,0,0,1,11.932.555.259.259,0,0,0,.148-.481Z" transform="translate(-216.545 -76.82)" fill="#263238"/>
      <path id="Path_1671" data-name="Path 1671" d="M344.92,342.02c-3.7-1.715-8.527-2.332-12.179-.345-.136.074,0,.271.111.271a56,56,0,0,1,11.933.555.25.25,0,0,0,.136-.481Z" transform="translate(-216.099 -76.366)" fill="#263238"/>
      <path id="Path_1672" data-name="Path 1672" d="M308.839,330.063c-4.146-1.851-7.034,4.59-2.875,6.454S313,331.926,308.839,330.063Z" transform="translate(-222.825 -78.871)" fill="#263238"/>
      <path id="Path_1673" data-name="Path 1673" d="M346.307,329.709c-1.172-2.394-4.208-1.937-6.083-.851a21.187,21.187,0,0,0-7.589,7.934.1.1,0,0,0,.062.16.494.494,0,0,0,.531.592c3.443-.629,7.206-.888,10.353-2.567C345.431,334,347.417,331.967,346.307,329.709Zm-8.058,5.8c-1.678.358-3.381.629-5.047,1.049,1.481-1.542,2.9-3.147,4.529-4.541a24.194,24.194,0,0,1,2.468-1.888c1.357-.852,6.367-2.308,4.936,1.876-.8,2.3-4.874,3.085-6.885,3.5Z" transform="translate(-216.116 -79.282)" fill="#263238"/>
      <path id="Path_1674" data-name="Path 1674" d="M325.229,334.212c2.986,1.937,6.713,2.468,10.094,3.443.345.1.592-.247.58-.555a.1.1,0,0,0,.074-.148,21.15,21.15,0,0,0-6.886-8.551c-1.777-1.234-4.763-1.962-6.17.321S323.476,333.114,325.229,334.212Zm-1.3-3.11c-1.074-4.282,3.8-2.406,5.072-1.431a24.47,24.47,0,0,1,2.3,2.085,62.59,62.59,0,0,1,4.134,4.936c-1.629-.555-3.295-.975-4.936-1.468-1.974-.617-5.972-1.752-6.565-4.121Z" transform="translate(-218.496 -79.454)" fill="#263238"/>
      <path id="Path_1675" data-name="Path 1675" d="M308.45,337.839l41.4,18.732s49.359-94.67,50.593-123.656c1.1-24.679-16.042-34.181-71.57-18.226l-13.574.173v9.378c5.96.79,21.891,3.295,21.891,3.295,11.587,4.368,15.314,6.17,15.128,6.552C323.467,292.429,308.45,337.839,308.45,337.839Z" transform="translate(-221.769 -107.624)" fill="#455a64"/>
      <path id="Path_1676" data-name="Path 1676" d="M357.349,220.709c-1.666,2.233-3.221,4.553-4.7,6.923a99.434,99.434,0,0,0-28.233-7.4q-4.084-.506-8.218-.728a.086.086,0,0,0,0,.173,123.867,123.867,0,0,1,28.739,5.38c2.579.79,5.109,1.715,7.651,2.628-1.777,2.85-3.455,5.763-5.059,8.7a173,173,0,0,0-8.107,16.967c-1.333,3.2-2.628,6.417-3.776,9.687,0,.1.123.16.16.062q7.614-16.93,16.585-33.144c1.691-3.048,3.455-6.059,5.109-9.131C357.546,220.734,357.41,220.635,357.349,220.709Z" transform="translate(-219.976 -104.662)" fill="#263238"/>
      <path id="Path_1677" data-name="Path 1677" d="M349.751,323.03c-2.468-.95-4.763-2.122-7.132-3.184l-7.12-3.2c-4.726-2.122-21.113-8.909-22.471-9.23a.09.09,0,0,0-.062.16c1.049.679,11.624,5.38,14.005,6.4,4.788,2.048,9.613,3.949,14.437,5.9,1.382.555,2.764,1.074,4.146,1.629s2.789,1.037,4.134,1.641C349.776,323.19,349.826,323.054,349.751,323.03Z" transform="translate(-220.721 -84.091)" fill="#263238"/>
      <path id="Path_1678" data-name="Path 1678" d="M356.834,224.02c-3.27,6.17-6.059,12.722-8.9,19.139s-5.578,12.821-8.255,19.275q-7.984,19.3-14.808,39.043c-2.6,7.4-5.035,14.931-7.4,22.446,0,.1.136.148.173,0,4.393-13.29,9.144-26.456,14.117-39.487s10.217-25.987,15.782-38.784q2.345-5.38,4.763-10.748c1.616-3.579,3.295-7.132,4.812-10.748C357.117,223.934,356.908,223.811,356.834,224.02Z" transform="translate(-219.659 -103.629)" fill="#263238"/>
      <path id="Path_1679" data-name="Path 1679" d="M294.018,229.423c.938.925,58.552.37,58.836,0,.753-1.012-7.873-37.315-14.351-51.086-8.292-17.646-12.673-19.114-15.3-20.1a20.385,20.385,0,0,0-10.773-.086c-1.629.728-8.514,8.983-10.452,15.536C298.09,186.839,293.191,228.609,294.018,229.423Z" transform="translate(-225.168 -119.175)" fill="#15ace5"/>
      <path id="Path_1680" data-name="Path 1680" d="M327.279,162.507c25.432,17.843,47.755,43.041,45.953,51.308-1.9,8.737-18.744,19-33.835,21.471-3.085.506-13.438-21.94-10.291-23.1,2.468-.888,13.574-4.455,14.906-6.046.9-1.111-17.374-25.124-23.445-37.784C314.137,155.116,320.492,157.732,327.279,162.507Z" transform="translate(-219.559 -118.906)" fill="#f7a9a0"/>
      <path id="Path_1681" data-name="Path 1681" d="M339.912,201.31s-9.44,1.234-15.585,2.369c-3.418.629-9.193,2.209-11.5,3.825-3.443,2.406-16.338,14.66-13.426,17.856,2.628,2.887,6.293-1.937,6.293-1.937s-4.5,4.936-1.012,6.947,7.688-4.664,7.688-4.664-5.146,4.862-1.234,6.713c3.406,1.6,9.057-5.652,9.057-5.652s-5.96,4.516-2.628,6.5c3.7,2.2,13.574-7.614,13.574-7.614a44.7,44.7,0,0,0,18.769-1.863C350.919,223.46,339.912,201.31,339.912,201.31Z" transform="translate(-223.986 -108.918)" fill="#f7a9a0"/>
      <path id="Path_1682" data-name="Path 1682" d="M308.867,224.228l1.074-1.53a31.488,31.488,0,0,1,2.172-2.925c.777-.888,1.592-1.74,2.468-2.579s1.876-1.666,2.739-2.567a.074.074,0,1,1,.1.1,34.786,34.786,0,0,0-2.468,2.776l-2.308,2.8c-.753.925-1.555,1.777-2.332,2.678-.383.444-.753.913-1.111,1.37a10.879,10.879,0,0,1-1.074,1.3l-.086-.062a8.552,8.552,0,0,1,.827-1.357Z" transform="translate(-221.865 -105.811)" fill="#263238"/>
      <path id="Path_1683" data-name="Path 1683" d="M303.682,222.011a47.29,47.29,0,0,1,3.912-5.5,33.756,33.756,0,0,1,4.85-4.726.074.074,0,0,1,.1.1c-1.456,1.74-2.937,3.455-4.405,5.158-.728.839-3.887,4.751-4.269,5.121C303.768,222.245,303.633,222.11,303.682,222.011Z" transform="translate(-222.887 -106.469)" fill="#263238"/>
      <path id="Path_1684" data-name="Path 1684" d="M313.391,226.486a48.124,48.124,0,0,1,3.776-5.109,42.246,42.246,0,0,1,4.936-4.2.074.074,0,0,1,.1.1c-1.542,1.518-3.11,3-4.566,4.6-.716.777-3.381,4.035-4.134,4.714C313.465,226.658,313.354,226.572,313.391,226.486Z" transform="translate(-220.615 -105.206)" fill="#263238"/>
      <path id="Path_1685" data-name="Path 1685" d="M355.816,184.744l-18.51,12.87s-14.734-21.261-18.707-31.429.271-10.328,10.439-3.2S355.816,184.744,355.816,184.744Z" transform="translate(-219.739 -119.042)" fill="#15ace5"/>
      <path id="Path_1686" data-name="Path 1686" d="M347.868,177.624a154.907,154.907,0,0,1-15.4,11.106c-.062,0-.136-.062-.062-.111,1.407-.913,8.934-6.836,15.388-11.106C347.868,177.452,347.954,177.563,347.868,177.624Z" transform="translate(-216.171 -114.489)" fill="#263238"/>
      <path id="Path_1687" data-name="Path 1687" d="M337.25,193.326a8.9,8.9,0,0,0-1.123.629c-2.221-3.554-4.6-7.157-6.861-10.7-1.1-1.728-2.209-3.455-3.307-5.2s-2.2-3.7-3.443-5.442h-.086a57.319,57.319,0,0,0,2.752,5.059,9.1,9.1,0,0,0-.617-.753c-.481-.543-.95-1.086-1.394-1.653-.074-.1-.222,0-.148.086.42.555.8,1.123,1.172,1.7a19.644,19.644,0,0,0,1.234,1.691c.444.555.827,1.037,1.234,1.542l.16.185c.6,1.037,1.234,2.073,1.839,3.1,2.221,3.578,7.243,10.773,7.305,10.748a10.379,10.379,0,0,0,1.333-.95S337.312,193.314,337.25,193.326Z" transform="translate(-218.498 -115.63)" fill="#263238"/>
      <path id="Path_1688" data-name="Path 1688" d="M308.292,162.822c-19.818,11.106-38.253,24.482-41.585,33.441-2.048,5.639,1.036,15.634,3.48,21.631,1.234,2.912,28.69-9.489,26.3-11.858-5.923-5.874-6.923-8.28-6.343-9.526.358-.79,21.792-20.657,27.69-29.48C326.061,154.727,316.954,157.972,308.292,162.822Z" transform="translate(-231.692 -118.936)" fill="#f7a9a0"/>
      <path id="Path_1689" data-name="Path 1689" d="M307.475,225.383c-2.591,1.567-5.9-5.133-5.9-5.133a5.565,5.565,0,0,1-1.444,3.5c-1.616,1.616-4.874-.21-4.874-.21a6.91,6.91,0,0,1-2.11,3.455c-1.715,1.394-5.257,0-5.257,0a6.083,6.083,0,0,1-3.776,1.863c-3.862.247-7.305-4.553-9.526-7.589s-5.676-13.7-6.54-15.671l19.324-14.413s13.82,10.748,15.918,14.684C305.007,209.218,311.375,223.039,307.475,225.383Z" transform="translate(-231.221 -111.285)" fill="#f7a9a0"/>
      <path id="Path_1690" data-name="Path 1690" d="M296.17,216.8a50.223,50.223,0,0,0-4.936-11.266c0-.074-.16,0-.123.074,1.987,3.529,3.085,7.663,4.936,11.266a.1.1,0,0,0,.123-.074Z" transform="translate(-225.827 -107.936)" fill="#263238"/>
      <path id="Path_1691" data-name="Path 1691" d="M291.443,219.088a10.324,10.324,0,0,0-1.3-2.468c-.518-.851-1.061-1.678-1.6-2.468q-1.641-2.468-3.418-4.936c0-.074-.173,0-.123,0,1.1,1.653,2.159,3.319,3.184,5.022.506.851,1.012,1.7,1.505,2.554a13.575,13.575,0,0,0,1.518,2.369.136.136,0,0,0,.234-.074Z" transform="translate(-227.257 -107.075)" fill="#263238"/>
      <path id="Path_1692" data-name="Path 1692" d="M285.177,221.873a7.4,7.4,0,0,0-1.3-2.172l-1.53-2.246c-1.012-1.493-2.024-3-2.986-4.529,0-.086-.173,0-.123.062.962,1.567,1.913,3.147,2.9,4.7.481.765.962,1.53,1.456,2.283a7.059,7.059,0,0,0,1.505,1.95Z" transform="translate(-228.605 -106.208)" fill="#263238"/>
      <path id="Path_1693" data-name="Path 1693" d="M277.1,179.587l15.227,13.981s18.843-17.806,24.136-27.357,1.123-10.267-9.872-4.578S277.1,179.587,277.1,179.587Z" transform="translate(-229.104 -119.043)" fill="#15ace5"/>
      <path id="Path_1694" data-name="Path 1694" d="M277.1,179.587l15.227,13.981s18.843-17.806,24.136-27.357,1.123-10.267-9.872-4.578S277.1,179.587,277.1,179.587Z" transform="translate(-229.104 -119.043)" fill="#15ace5"/>
      <path id="Path_1695" data-name="Path 1695" d="M294.383,186.087a144.548,144.548,0,0,1-13.438-12.549c-.062,0,0-.136.086-.074,1.135,1.16,8.169,7.206,13.45,12.525C294.592,186.05,294.444,186.136,294.383,186.087Z" transform="translate(-228.21 -115.437)" fill="#263238"/>
      <path id="Path_1696" data-name="Path 1696" d="M302.634,167.758c-.691,1.6-1.382,3.208-1.95,4.862a3,3,0,0,0,0-.333,22.4,22.4,0,0,1,.358-2.986c0-.111-.148-.148-.16,0-.2.987-.37,1.987-.494,3-.062.481-.086.963-.111,1.444v.173h0c-.642,2.2-1.024,4.43-1.567,6.639,0,.111.148.148.173,0,.531-2.172,1.333-4.282,2.024-6.4s1.234-4.282,1.888-6.4C302.77,167.733,302.671,167.684,302.634,167.758Z" transform="translate(-224.048 -116.777)" fill="#263238"/>
      <path id="Path_1697" data-name="Path 1697" d="M310.983,170.231c3.27.79,8.909-4.2,11.106-8.231.148-.284-.259-3.208-.592-6.8-.2-2.172-.358-4.6-.358-6.824,0-.457-13.969,3.332-13.969,3.332a35.682,35.682,0,0,1,1.308,8.551,4.319,4.319,0,0,1-.1.913.919.919,0,0,1,0,.148C308.108,163.061,307.824,169.466,310.983,170.231Z" transform="translate(-222.069 -121.311)" fill="#f7a9a0"/>
      <path id="Path_1698" data-name="Path 1698" d="M320.319,148.41c-.666,3.764-3.048,12.846-10.5,12.981a7.4,7.4,0,0,1-1.419-.086v-.148a5.432,5.432,0,0,0,.111-.913,35.4,35.4,0,0,0-1.32-8.551S317.284,148.953,320.319,148.41Z" transform="translate(-222.064 -121.295)" fill="#263238"/>
      <path id="Path_1699" data-name="Path 1699" d="M321.973,134.516c2.468,4.553,2.7,19.089-.123,22.9-4.1,5.541-12.2,7.614-17.276,2.369s-4.936-24.025-1.6-27.641C307.832,126.816,318.37,127.828,321.973,134.516Z" transform="translate(-223.607 -125.898)" fill="#f7a9a0"/>
      <path id="Path_1700" data-name="Path 1700" d="M318.08,151.81h0" transform="translate(-219.516 -120.499)" fill="none" stroke="#f5a79e" stroke-linecap="round" stroke-linejoin="round"/>
      <path id="Path_1701" data-name="Path 1701" d="M309.012,143.94a.077.077,0,0,1,.074.086c0,.987.148,2.11,1.037,2.468h0C309.012,146.371,308.827,144.878,309.012,143.94Z" transform="translate(-221.652 -122.34)" fill="#263238"/>
      <path id="Path_1702" data-name="Path 1702" d="M309.84,143.1c1.567-.148,1.765,3,.308,3.147S308.519,143.237,309.84,143.1Z" transform="translate(-221.653 -122.538)" fill="#263238"/>
      <path id="Path_1703" data-name="Path 1703" d="M304.721,144.24a.077.077,0,0,0-.074.086c.1.975,0,2.11-.827,2.468h0C304.894,146.646,304.955,145.178,304.721,144.24Z" transform="translate(-222.852 -122.27)" fill="#263238"/>
      <path id="Path_1704" data-name="Path 1704" d="M304.009,143.45c-1.579,0-1.505,3.147,0,3.159S305.33,143.475,304.009,143.45Z" transform="translate(-223.079 -122.455)" fill="#263238"/>
      <path id="Path_1705" data-name="Path 1705" d="M311.256,141.364a11.235,11.235,0,0,1-1.3-.136,2.085,2.085,0,0,1-1.3-.383.691.691,0,0,1-.086-.814,1.666,1.666,0,0,1,1.592-.555,2.468,2.468,0,0,1,1.6.691.716.716,0,0,1-.518,1.2Z" transform="translate(-221.761 -123.392)" fill="#263238"/>
      <path id="Path_1706" data-name="Path 1706" d="M302.67,142.082a10.312,10.312,0,0,0,1.234-.407,2.049,2.049,0,0,0,1.234-.642.666.666,0,0,0-.086-.814,1.641,1.641,0,0,0-1.765-.185,2.468,2.468,0,0,0-1.431,1.024.716.716,0,0,0,.815,1.024Z" transform="translate(-223.331 -123.295)" fill="#263238"/>
      <path id="Path_1707" data-name="Path 1707" d="M311.106,151.224c-.222.247-.432.58-.79.629a2.641,2.641,0,0,1-1.061-.185s-.062,0,0,0a1.308,1.308,0,0,0,1.234.457,1.036,1.036,0,0,0,.716-.913A.1.1,0,0,0,311.106,151.224Z" transform="translate(-221.587 -120.641)" fill="#263238"/>
      <path id="Path_1708" data-name="Path 1708" d="M310.859,150.849a3.319,3.319,0,0,1-2.122,1.616,4.813,4.813,0,0,1-1.234.136h-.444a.247.247,0,0,1-.21-.21h0v-.185h0c-.074-.753-.062-1.9-.062-1.9-.271.148-1.629.864-1.641.469a50.939,50.939,0,0,1,.679-10.143.1.1,0,0,1,.185,0c.123,3.147-.3,6.281-.222,9.44a6.281,6.281,0,0,1,1.542-.58,19.423,19.423,0,0,1,0,2.554h0a4.664,4.664,0,0,0,3.381-1.234C310.834,150.714,310.92,150.775,310.859,150.849Z" transform="translate(-222.549 -123.129)" fill="#263238"/>
      <path id="Path_1709" data-name="Path 1709" d="M307.42,150.257a4.011,4.011,0,0,0,1.654,1.135,1.814,1.814,0,0,0,1.086,0c.765-.259.74-.975.568-1.579a4.327,4.327,0,0,0-.407-.913A5.108,5.108,0,0,1,307.42,150.257Z" transform="translate(-222.01 -121.18)" fill="#263238"/>
      <path id="Path_1710" data-name="Path 1710" d="M308.76,151.2a1.814,1.814,0,0,0,1.086,0c.765-.259.74-.975.568-1.579A1.851,1.851,0,0,0,308.76,151.2Z" transform="translate(-221.697 -121.011)" fill="#ff98b9"/>
      <path id="Path_1711" data-name="Path 1711" d="M302.386,139.188c5.146,2.69,11.106-3.011,11.106-3.011a5.207,5.207,0,0,0,5.639,2.653s1.888,7.947,4,7.675c3.233-.407,2.937-11.5,1.666-13.574a5.849,5.849,0,0,0-4.085-2.27,5.38,5.38,0,0,0-2.579-2.937c-2.468-1.431-9.761,1.752-9.761,1.752a7.132,7.132,0,0,0-2.271-2.468,2.024,2.024,0,0,0-2.85.6,4.59,4.59,0,0,1,1.012,1.9c.666,2.308-1.234,2.53-1.493.395a3.332,3.332,0,0,1,.481-2.3c-1.111-1.234-2.715-1.555-3.566-.691C298.092,128.576,298.117,137,302.386,139.188Z" transform="translate(-224.047 -126.436)" fill="#263238"/>
      <path id="Path_1712" data-name="Path 1712" d="M303.77,149.274c-1.468.1-2.789-1.616-2.937-3.825s.9-4.109,2.369-4.208,2.776,1.617,2.937,3.825S305.238,149.163,303.77,149.274Zm-.531-7.49c-1.172.074-2.011,1.7-1.876,3.628s1.234,3.406,2.369,3.319,2.011-1.7,1.863-3.628S304.4,141.7,303.239,141.784Z" transform="translate(-223.555 -122.973)" fill="#15ace5"/>
      <path id="Path_1713" data-name="Path 1713" d="M311.371,148.753a4.035,4.035,0,1,1,3.467-4.282A3.912,3.912,0,0,1,311.371,148.753Zm-.531-7.5a3.5,3.5,0,1,0,3.467,3.258A3.381,3.381,0,0,0,310.84,141.25Z" transform="translate(-222.16 -123.093)" fill="#15ace5"/>
      <path id="Path_1714" data-name="Path 1714" d="M307.985,144.032c-2.061-.568-2.925.16-2.925.16l-.37-.395s1.061-.938,3.43-.284Z" transform="translate(-222.649 -122.494)" fill="#15ace5"/>
      <path id="Path_1715" data-name="Path 1715" d="M313.1,144.026l-.136-.531c.346-.086,8.428-2.184,9.316-2.3a9.662,9.662,0,0,1,3.467,1.074l-.222.481a10.365,10.365,0,0,0-3.134-1.024h0C321.647,141.817,316,143.273,313.1,144.026Z" transform="translate(-220.714 -122.981)" fill="#15ace5"/>
      <path id="Path_1716" data-name="Path 1716" d="M317.378,144s2.357-5.121,4.627-4.356,1.061,7.786-1.234,9.131a2.468,2.468,0,0,1-3.541-.74Z" transform="translate(-219.715 -123.364)" fill="#f7a9a0"/>
      <path id="Path_1717" data-name="Path 1717" d="M321.358,141.26v.062a6.293,6.293,0,0,0-2.468,4.467,1.382,1.382,0,0,1,1.974-.728v.1a1.53,1.53,0,0,0-1.567.827,7.3,7.3,0,0,0-.568,1.493c0,.16-.333.136-.309,0h0C317.928,145.221,319.075,141.889,321.358,141.26Z" transform="translate(-219.463 -122.967)" fill="#263238"/>
      <path id="Path_1718" data-name="Path 1718" d="M323.85,160.385a65.4,65.4,0,0,1-4.689,5.565,10.724,10.724,0,0,1-5.849,3.381c-2.2.3-4.418,0-5.343-2.739a16.042,16.042,0,0,1-.457-7.083c0-.123-.16-.148-.173,0-.358,3.566-.654,9.057,2.616,10.143,3.7,1.234,7.1-.777,9.514-3.369a33.7,33.7,0,0,0,4.455-5.824S323.888,160.348,323.85,160.385Z" transform="translate(-222.078 -118.722)" fill="#263238"/>
      <rect id="Rectangle_418" data-name="Rectangle 418" width="66.202" height="2.974" transform="translate(57.609 122.168)" fill="#263238"/>
      <path id="Path_1719" data-name="Path 1719" d="M338.022,236.148H273.5L268.13,192.33h64.512Z" transform="translate(-231.203 -111.019)" fill="#263238"/>
      <path id="Path_1720" data-name="Path 1720" d="M301.121,210.836a3.838,3.838,0,0,1-3.862,3.924,4.023,4.023,0,0,1-4-3.924,3.85,3.85,0,0,1,3.862-3.936A4.023,4.023,0,0,1,301.121,210.836Z" transform="translate(-225.323 -107.61)" fill="#fff"/>
    </g>
    <g id="freepik--Calendar--inject-69" transform="translate(34.333 370.359)">
      <path id="Path_1721" data-name="Path 1721" d="M343.247,482.939H105.227L63.63,310.22H301.65Z" transform="translate(-21.342 -302.011)" fill="#a6a6a6"/>
      <path id="Path_1722" data-name="Path 1722" d="M29.36,482.939H267.38l41.6-172.719H70.957Z" transform="translate(-29.36 -302.011)" fill="#dbdbdb"/>
      <path id="Path_1723" data-name="Path 1723" d="M266.52,336.52l-5.306,22.063-.321,1.357L255.4,382.856l-.321,1.357L249.59,407.1l-.333,1.357-5.5,22.9-.321,1.37-5.38,22.434H63.31l5.38-22.434.321-1.37,5.5-22.9.333-1.357,5.491-22.89.333-1.357,5.491-22.915.321-1.357L91.79,336.52Z" transform="translate(-21.417 -295.858)" fill="#fff"/>
      <path id="Path_1724" data-name="Path 1724" d="M112.792,336.52l-5.306,22.063-.321,1.357-5.491,22.915-.321,1.357L95.862,407.1l-.333,1.357-5.491,22.9-.333,1.37-5.38,22.434H82.93l5.392-22.434.321-1.37,5.491-22.9.333-1.357,5.479-22.89.333-1.357,5.5-22.915.321-1.357,5.281-22.063Z" transform="translate(-16.826 -295.858)" fill="#ebebeb"/>
      <path id="Path_1725" data-name="Path 1725" d="M132.962,336.52l-5.306,22.063-.321,1.357-5.491,22.915-.321,1.357-5.491,22.89-.333,1.357-5.491,22.9-.333,1.37-5.38,22.434H103.1l5.392-22.434.321-1.37,5.491-22.9.333-1.357,5.479-22.89.333-1.357,5.5-22.915.321-1.357,5.281-22.063Z" transform="translate(-12.107 -295.858)" fill="#ebebeb"/>
      <path id="Path_1726" data-name="Path 1726" d="M153.142,336.52l-5.294,22.063-.333,1.357-5.491,22.915-.321,1.357-5.491,22.89-.321,1.357-5.5,22.9-.333,1.37-5.38,22.434H123.28l5.392-22.434.333-1.37,5.479-22.9.333-1.357,5.491-22.89.321-1.357,5.5-22.915.321-1.357,5.294-22.063Z" transform="translate(-7.386 -295.858)" fill="#ebebeb"/>
      <path id="Path_1727" data-name="Path 1727" d="M173.312,336.52l-5.294,22.063-.333,1.357-5.491,22.915-.321,1.357-5.491,22.89-.321,1.357-5.5,22.9-.333,1.37-5.38,22.434H143.45l5.392-22.434.333-1.37,5.479-22.9.333-1.357,5.491-22.89.321-1.357,5.5-22.915.321-1.357,5.294-22.063Z" transform="translate(-2.666 -295.858)" fill="#ebebeb"/>
      <path id="Path_1728" data-name="Path 1728" d="M193.492,336.52,188.2,358.583l-.333,1.357-5.479,22.915-.333,1.357-5.491,22.89-.321,1.357-5.5,22.9-.321,1.37-5.38,22.434H163.63l5.392-22.434.333-1.37,5.491-22.9.321-1.357,5.491-22.89.321-1.357,5.5-22.915.321-1.357L192.1,336.52Z" transform="translate(2.055 -295.858)" fill="#ebebeb"/>
      <path id="Path_1729" data-name="Path 1729" d="M213.662,336.52l-5.294,22.063-.333,1.357-5.479,22.915-.333,1.357-5.491,22.89-.321,1.357-5.5,22.9-.321,1.37-5.38,22.434H183.8l5.392-22.434.333-1.37,5.491-22.9.321-1.357,5.491-22.89.321-1.357,5.5-22.915.333-1.357,5.281-22.063Z" transform="translate(6.774 -295.858)" fill="#ebebeb"/>
      <path id="Path_1730" data-name="Path 1730" d="M256.881,354.4l-.321,1.357H81.83l.321-1.357Z" transform="translate(-17.084 -291.674)" fill="#ebebeb"/>
      <path id="Path_1731" data-name="Path 1731" d="M252.173,374.07l-.321,1.357H77.11l.333-1.357Z" transform="translate(-18.188 -287.072)" fill="#ebebeb"/>
      <path id="Path_1732" data-name="Path 1732" d="M247.466,393.72l-.333,1.357H72.39l.333-1.357Z" transform="translate(-19.292 -282.475)" fill="#ebebeb"/>
      <path id="Path_1733" data-name="Path 1733" d="M242.733,413.38l-.321,1.37H67.67l.321-1.37Z" transform="translate(-20.397 -277.875)" fill="#ebebeb"/>
      <rect id="Rectangle_419" data-name="Rectangle 419" width="3.369" height="24.21" transform="matrix(0.778, -0.628, 0.628, 0.778, 84.309, 91.218)" fill="#c7c7c7"/>
      <rect id="Rectangle_420" data-name="Rectangle 420" width="28.48" height="3.369" transform="translate(81.37 108.103) rotate(-42.35)" fill="#c7c7c7"/>
      <rect id="Rectangle_421" data-name="Rectangle 421" width="3.369" height="24.21" transform="matrix(0.778, -0.628, 0.628, 0.778, 139.546, 67.613)" fill="#c7c7c7"/>
      <rect id="Rectangle_422" data-name="Rectangle 422" width="28.48" height="3.369" transform="translate(136.614 84.505) rotate(-42.35)" fill="#c7c7c7"/>
      <path id="Path_1734" data-name="Path 1734" d="M89.319,378.2,82.89,366.957l2.925-1.678,4.023,7.034L104.5,354.63l2.591,2.147Z" transform="translate(-16.836 -291.621)" fill="#15ace5"/>
      <path id="Path_1735" data-name="Path 1735" d="M114.529,436.1,108.1,424.857l2.924-1.678,4.01,7.034,14.66-17.683,2.591,2.147Z" transform="translate(-10.937 -278.074)" fill="#15ace5"/>
      <path id="Path_1736" data-name="Path 1736" d="M187.815,376a39.672,39.672,0,0,0-8.539,6.318c-2.468,2.468-4.627,5.466-4.936,8.835a5.812,5.812,0,0,0,1.135,4.479,8.193,8.193,0,0,0,4.208,2.332,22.211,22.211,0,0,0,10.217-.259,22.644,22.644,0,0,0,9.267-4.331,12.7,12.7,0,0,0,3.221-3.85,8.045,8.045,0,0,0,1-4.689,5.985,5.985,0,0,0-2.579-3.949,13.067,13.067,0,0,0-4.7-2.036,21.915,21.915,0,0,0-10.5.111,20.977,20.977,0,0,1,10.686-.987,13.906,13.906,0,0,1,5.183,1.962,7.4,7.4,0,0,1,3.307,4.652,8.959,8.959,0,0,1-1.012,5.652,14.29,14.29,0,0,1-3.542,4.393,25.111,25.111,0,0,1-20.977,4.936,9.662,9.662,0,0,1-4.936-2.9,6,6,0,0,1-1.234-2.727,9.527,9.527,0,0,1,0-2.9c.568-3.838,3.023-6.91,5.689-9.292A36.305,36.305,0,0,1,187.815,376Z" transform="translate(4.24 -286.621)" fill="#15ace5"/>
      <path id="Path_1737" data-name="Path 1737" d="M106.219,341.931H87.66l.518-2.271h18.559Z" transform="translate(-15.72 -295.123)" fill="#c7c7c7"/>
      <path id="Path_1738" data-name="Path 1738" d="M97.848,345.068H86.94l.518-2.258H98.367Z" transform="translate(-15.888 -294.386)" fill="#c7c7c7"/>
      <path id="Path_1739" data-name="Path 1739" d="M165.971,399.708H154.68l.518-2.258h11.291Z" transform="translate(-0.039 -281.602)" fill="#c7c7c7"/>
      <path id="Path_1740" data-name="Path 1740" d="M164.521,406.118H153.23l.518-2.258h11.3Z" transform="translate(-0.378 -280.102)" fill="#c7c7c7"/>
      <path id="Path_1741" data-name="Path 1741" d="M171.657,402.861H153.95l.531-2.271h17.7Z" transform="translate(-0.21 -280.867)" fill="#c7c7c7"/>
      <path id="Path_1742" data-name="Path 1742" d="M189.671,385.58H178.38l.518-2.27h11.3Z" transform="translate(5.506 -284.91)" fill="#c7c7c7"/>
      <path id="Path_1743" data-name="Path 1743" d="M195.357,388.718H177.65l.531-2.258h17.7Z" transform="translate(5.335 -284.173)" fill="#c7c7c7"/>
      <path id="Path_1744" data-name="Path 1744" d="M64.705,354.653l10.9-8.144a6.627,6.627,0,0,0,2.468-3.7,4.146,4.146,0,0,0-.531-3.307,3.85,3.85,0,0,0-3.295-1.629,6.169,6.169,0,0,0-3.7,1.234l-1.135.851a.629.629,0,0,1-.938,0,.679.679,0,0,1,.247-.938l1.135-.888A8.045,8.045,0,0,1,74.5,336.5a4.788,4.788,0,0,1,4.22,2.1,5.2,5.2,0,0,1,.679,4.22,8.428,8.428,0,0,1-3.147,4.689l-9.329,6.972h9.119a.531.531,0,0,1,.506.691.9.9,0,0,1-.814.666H64.89a.494.494,0,0,1-.444-.2.765.765,0,0,1,.259-.987Z" transform="translate(-21.171 -295.864)" fill="#a6a6a6"/>
      <path id="Path_1745" data-name="Path 1745" d="M60.344,373.01a15.561,15.561,0,0,1,3.369-6.75,7.9,7.9,0,0,1,5.5-2.9,4.5,4.5,0,0,1,4.146,2.9,11.105,11.105,0,0,1,.321,6.75,15.486,15.486,0,0,1-3.43,6.725,7.848,7.848,0,0,1-5.466,2.925,4.492,4.492,0,0,1-4.146-2.925,10.945,10.945,0,0,1-.3-6.725Zm1.357,0a9.872,9.872,0,0,0,.234,5.985,3.492,3.492,0,0,0,3.171,2.32,6.17,6.17,0,0,0,4.22-2.357,13.832,13.832,0,0,0,3.023-5.948,9.872,9.872,0,0,0-.284-5.985,3.406,3.406,0,0,0-3.159-2.32,5.973,5.973,0,0,0-4.233,2.32A13.771,13.771,0,0,0,61.7,373.01Z" transform="translate(-22.202 -289.578)" fill="#a6a6a6"/>
      <path id="Path_1746" data-name="Path 1746" d="M52.314,408.32l10.9-8.144a6.627,6.627,0,0,0,2.468-3.7,4.146,4.146,0,0,0-.531-3.307,3.862,3.862,0,0,0-3.27-1.616,6.17,6.17,0,0,0-3.7,1.234l-1.135.851a.629.629,0,0,1-.938,0,.679.679,0,0,1,.247-.938l1.135-.888a8.046,8.046,0,0,1,4.652-1.629,4.788,4.788,0,0,1,4.158,2.073,5.2,5.2,0,0,1,.679,4.22,8.428,8.428,0,0,1-3.147,4.689l-9.341,6.972h9.131a.531.531,0,0,1,.506.691.9.9,0,0,1-.814.666H52.5a.494.494,0,0,1-.444-.2.765.765,0,0,1,.259-.975Z" transform="translate(-24.069 -283.304)" fill="#a6a6a6"/>
      <path id="Path_1747" data-name="Path 1747" d="M47.953,426.687a15.56,15.56,0,0,1,3.406-6.75,7.9,7.9,0,0,1,5.5-2.937,4.5,4.5,0,0,1,4.146,2.9,11.2,11.2,0,0,1,.321,6.75,15.622,15.622,0,0,1-3.43,6.725,7.848,7.848,0,0,1-5.5,2.924,4.479,4.479,0,0,1-4.146-2.924,10.946,10.946,0,0,1-.3-6.688Zm1.357,0a9.872,9.872,0,0,0,.234,5.985,3.517,3.517,0,0,0,3.171,2.32,6.17,6.17,0,0,0,4.22-2.32,13.684,13.684,0,0,0,3.036-5.985A9.724,9.724,0,0,0,59.7,420.7a3.406,3.406,0,0,0-3.159-2.32,5.973,5.973,0,0,0-4.232,2.32,13.771,13.771,0,0,0-2.974,5.985Z" transform="translate(-25.1 -277.028)" fill="#a6a6a6"/>
      <path id="Path_1748" data-name="Path 1748" d="M243.611,332.73s-5.281,22.89-7.515,32.589-11.439,15.869-11.439,15.869H174.25s8.971-10.674,10.8-18.6l6.9-29.862Z" transform="translate(4.54 -296.745)" fill="#15ace5"/>
      <path id="Path_1749" data-name="Path 1749" d="M195.593,346.426l-2.641,2.776a.3.3,0,0,1-.2.1h0a.16.16,0,0,1-.16-.1l-1.357-2.764L190,351.559a.284.284,0,0,1-.259.21.16.16,0,0,1-.173-.21l1.333-5.775a.259.259,0,0,1,.123-.173h0a.2.2,0,0,1,.284,0l1.518,3.073,2.912-3.073a.247.247,0,0,1,.321,0,.161.161,0,0,1,0,.074.334.334,0,0,1,0,.111l-1.333,5.775a.284.284,0,0,1-.259.21.16.16,0,0,1-.16-.21Z" transform="translate(8.123 -293.745)"/>
      <path id="Path_1750" data-name="Path 1750" d="M196.667,345.75a.3.3,0,0,1,.271-.21h3.208a.16.16,0,0,1,.16.21.284.284,0,0,1-.271.222h-2.986l-.568,2.468H199.1a.173.173,0,0,1,.16.222.284.284,0,0,1-.259.222h-2.616l-.568,2.468H198.8a.16.16,0,0,1,.16.222.271.271,0,0,1-.259.21H195.47a.16.16,0,0,1-.148-.21Z" transform="translate(9.468 -293.748)"/>
      <path id="Path_1751" data-name="Path 1751" d="M200.959,345.75a.284.284,0,0,1,.259-.21h3.208a.173.173,0,0,1,.173.21.3.3,0,0,1-.271.222h-3l-.568,2.468h2.616a.173.173,0,0,1,.16.222.284.284,0,0,1-.271.222h-2.6l-.568,2.468h2.986c.123,0,.185.1.16.222a.284.284,0,0,1-.271.21H199.75a.16.16,0,0,1-.148-.21Z" transform="translate(10.469 -293.747)"/>
      <path id="Path_1752" data-name="Path 1752" d="M206.64,345.972h-1.876a.173.173,0,0,1-.173-.222.308.308,0,0,1,.271-.21h4.183a.173.173,0,0,1,.173.21.3.3,0,0,1-.271.222h-1.876l-1.234,5.59a.284.284,0,0,1-.259.21.173.173,0,0,1-.173-.21Z" transform="translate(11.637 -293.747)"/>
      <path id="Path_1753" data-name="Path 1753" d="M209.974,345.75a.284.284,0,0,1,.259-.21.173.173,0,0,1,.173.21l-1.32,5.812a.308.308,0,0,1-.284.21.16.16,0,0,1-.16-.21Z" transform="translate(12.584 -293.747)"/>
      <path id="Path_1754" data-name="Path 1754" d="M212.425,346.451l-1.234,5.109a.284.284,0,0,1-.259.21.16.16,0,0,1-.16-.21l1.32-5.726a.247.247,0,0,1,.136-.234h.284l2.579,5.244,1.172-5.084a.284.284,0,0,1,.259-.21.173.173,0,0,1,.173.21l-1.333,5.75a.3.3,0,0,1-.271.21.172.172,0,0,1-.148-.074h0Z" transform="translate(13.083 -293.745)"/>
      <path id="Path_1755" data-name="Path 1755" d="M219.44,348.994a.16.16,0,0,1-.173-.21.284.284,0,0,1,.284-.222h1.95a.161.161,0,0,1,.136.222l-.494,2.135h0a.321.321,0,0,1-.123.16,3.961,3.961,0,0,1-2.172.679,2.468,2.468,0,0,1-2.468-3.171,4.245,4.245,0,0,1,3.973-3.147,2.579,2.579,0,0,1,1.851.7.21.21,0,0,1,0,.3.247.247,0,0,1-.321,0,2.234,2.234,0,0,0-1.6-.6,3.7,3.7,0,0,0-3.43,2.715,2.135,2.135,0,0,0,2.172,2.739,3.469,3.469,0,0,0,1.777-.531l.42-1.839Z" transform="translate(14.373 -293.771)"/>
      <path id="Path_1756" data-name="Path 1756" d="M187.926,354.842l-1,.518a.234.234,0,0,1-.123,0,.16.16,0,0,1-.16-.1.235.235,0,0,1,.148-.3l1.37-.74a.21.21,0,0,1,.284.086.247.247,0,0,1,0,.16l-1.357,5.763a.3.3,0,0,1-.271.222.173.173,0,0,1-.16-.222Z" transform="translate(7.436 -291.721)"/>
      <path id="Path_1757" data-name="Path 1757" d="M193.287,354.614l-2,1.654a1.6,1.6,0,0,1,.938.58,1.789,1.789,0,0,1,.271,1.493,2.875,2.875,0,0,1-2.616,2.122,1.654,1.654,0,0,1-1.345-.629c-.074-.074,0-.222.074-.308a.21.21,0,0,1,.308,0,1.333,1.333,0,0,0,1.074.481,2.135,2.135,0,0,0,1.234-.481,2.172,2.172,0,0,0,.765-1.234,1.345,1.345,0,0,0-.222-1.172,1.234,1.234,0,0,0-1.061-.494.2.2,0,0,1-.16-.086h0a.247.247,0,0,1,.074-.321l1.925-1.6h-2.394a.173.173,0,0,1-.173-.222.308.308,0,0,1,.284-.222h2.912a.173.173,0,0,1,.173.222.247.247,0,0,1,0,.1Z" transform="translate(7.875 -291.728)"/>
      <path id="Path_1758" data-name="Path 1758" d="M195.3,356.288a.309.309,0,0,1-.259.222h-.568l-.728,3.171A.259.259,0,0,0,194,360a.185.185,0,0,1,.173.222.333.333,0,0,1-.271.222.58.58,0,0,1-.592-.765l.728-3.171h-.543c-.21,0-.185-.111-.16-.222a.222.222,0,0,1,.259-.21h.58l.383-1.629a.308.308,0,0,1,.259-.21.185.185,0,0,1,.185.21l-.383,1.629h.568a.173.173,0,0,1,.123.21Z" transform="translate(8.991 -291.712)"/>
      <path id="Path_1759" data-name="Path 1759" d="M199.441,357.822a1,1,0,0,0-1.086-1.234,1.715,1.715,0,0,0-1.678,1.234l-.568,2.468h0a.222.222,0,0,1-.16.111h0a.16.16,0,0,1-.148-.074.174.174,0,0,1,0-.074.185.185,0,0,1,0-.074l.555-2.468v-.074l.753-3.307a.308.308,0,0,1,.271-.21.173.173,0,0,1,.173.21l-.531,2.308a2.283,2.283,0,0,1,1.53-.642,1.345,1.345,0,0,1,1.431,1.715l-.568,2.468a.284.284,0,0,1-.271.222.173.173,0,0,1-.16-.222Z" transform="translate(9.581 -291.74)"/>
      <path id="Path_1760" data-name="Path 1760" d="M200.472,356.78a.21.21,0,0,1,.21-.16h1.9a.136.136,0,0,1,.136.16.234.234,0,0,1-.21.185h-1.9a.136.136,0,0,1-.136-.185Z" transform="translate(10.673 -291.155)"/>
      <path id="Path_1761" data-name="Path 1761" d="M204.666,354.842l-1,.518a.234.234,0,0,1-.123,0,.16.16,0,0,1-.16-.1.235.235,0,0,1,.148-.3l1.37-.74a.21.21,0,0,1,.284.086.358.358,0,0,1,0,.16l-1.32,5.726a.3.3,0,0,1-.271.222.173.173,0,0,1-.16-.222Z" transform="translate(11.353 -291.721)"/>
      <path id="Path_1762" data-name="Path 1762" d="M205.648,357.332a5.146,5.146,0,0,1,1.1-2.184,2.566,2.566,0,0,1,1.777-.938,1.444,1.444,0,0,1,1.3.975,3.7,3.7,0,0,1,.111,2.184,5.046,5.046,0,0,1-1.111,2.172,2.542,2.542,0,0,1-1.777.95,1.431,1.431,0,0,1-1.345-.95,3.6,3.6,0,0,1-.049-2.209Zm.444,0a3.135,3.135,0,0,0,.074,1.937,1.123,1.123,0,0,0,1.024.74,2.011,2.011,0,0,0,1.37-.74,4.43,4.43,0,0,0,.975-1.937,3.122,3.122,0,0,0-.086-1.937,1.1,1.1,0,0,0-1.024-.74,1.925,1.925,0,0,0-1.37.74,4.405,4.405,0,0,0-.938,1.937Z" transform="translate(11.851 -291.719)"/>
      <path id="Path_1763" data-name="Path 1763" d="M214.307,358.87h-2.838l-.9,1.468a.3.3,0,0,1-.234.148h-.074a.185.185,0,0,1-.062-.284l3.5-5.787a.321.321,0,0,1,.247-.136c.086,0,.173,0,.173.136l.839,5.787a.308.308,0,0,1-.185.284h-.086a.2.2,0,0,1-.173-.148Zm-2.579-.432H214.2l-.481-3.356Z" transform="translate(12.941 -291.703)"/>
      <path id="Path_1764" data-name="Path 1764" d="M221.136,355.089l-2.628,2.776a.272.272,0,0,1-.21.1h0c-.086,0-.136,0-.16-.1l-1.37-2.764-1.172,5.121a.3.3,0,0,1-.271.222.173.173,0,0,1-.173-.222l1.333-5.775a.345.345,0,0,1,.136-.16h0a.21.21,0,0,1,.3.062l1.505,3.073,2.925-3.073a.234.234,0,0,1,.308-.062.26.26,0,0,1,0,.074.173.173,0,0,1,0,.111l-1.333,5.775a.284.284,0,0,1-.259.222.173.173,0,0,1-.173-.222Z" transform="translate(14.108 -291.71)"/>
      <path id="Path_1765" data-name="Path 1765" d="M70.343,323.561a6.269,6.269,0,0,1-4.59-2.2c-1.234-1.419-2.974-4.677-1.234-10.587,1.641-5.417,5.578-7.651,8.638-7.071,2.345.444,4.936,2.826,4.479,8.07a1.456,1.456,0,0,1-1.6,1.357,1.505,1.505,0,0,1-1.357-1.616c.234-2.727-.568-4.6-2.073-4.936-1.7-.321-4.121,1.32-5.232,5.01-1.012,3.369-.8,6.17.6,7.786a3.11,3.11,0,0,0,2.53,1.234,1.493,1.493,0,1,1,.407,2.949,4.961,4.961,0,0,1-.568,0Z" transform="translate(-21.306 -303.556)" fill="#a6a6a6"/>
      <path id="Path_1766" data-name="Path 1766" d="M85.253,323.561a6.244,6.244,0,0,1-4.64-2.2c-1.234-1.419-2.974-4.677-1.234-10.587,1.629-5.417,5.578-7.651,8.638-7.071,2.345.444,4.936,2.826,4.479,8.07a1.469,1.469,0,0,1-1.6,1.357,1.505,1.505,0,0,1-1.32-1.641c.234-2.727-.568-4.6-2.073-4.936-1.715-.321-4.121,1.32-5.232,5.01-1.024,3.369-.8,6.17.6,7.786a3.11,3.11,0,0,0,2.53,1.234,1.493,1.493,0,1,1,.407,2.949,5.013,5.013,0,0,1-.555.025Z" transform="translate(-17.829 -303.556)" fill="#a6a6a6"/>
      <path id="Path_1767" data-name="Path 1767" d="M100.051,323.561a6.244,6.244,0,0,1-4.578-2.2c-1.234-1.419-2.974-4.677-1.234-10.587,1.629-5.417,5.578-7.651,8.638-7.071,2.345.444,4.936,2.826,4.479,8.07a1.469,1.469,0,0,1-1.6,1.357,1.493,1.493,0,0,1-1.357-1.616c.234-2.727-.568-4.6-2.085-4.936s-4.109,1.32-5.22,5.01c-1.024,3.369-.8,6.17.6,7.786a3.11,3.11,0,0,0,2.468,1.234,1.493,1.493,0,1,1,.407,2.949,5.01,5.01,0,0,1-.518,0Z" transform="translate(-14.352 -303.556)" fill="#a6a6a6"/>
      <path id="Path_1768" data-name="Path 1768" d="M114.9,323.561a6.17,6.17,0,0,1-4.529-2.2c-1.234-1.419-2.986-4.677-1.234-10.587,1.629-5.417,5.578-7.651,8.638-7.071,2.345.444,4.936,2.826,4.492,8.07a1.486,1.486,0,1,1-2.962-.259c.222-2.727-.568-4.6-2.085-4.936s-4.109,1.32-5.22,5.01c-1.024,3.369-.8,6.17.6,7.786a3.1,3.1,0,0,0,2.468,1.234,1.493,1.493,0,1,1,.407,2.949,5.193,5.193,0,0,1-.58,0Z" transform="translate(-10.867 -303.556)" fill="#a6a6a6"/>
      <path id="Path_1769" data-name="Path 1769" d="M129.773,323.573a6.268,6.268,0,0,1-4.59-2.258c-1.234-1.419-2.974-4.677-1.234-10.587,1.629-5.417,5.578-7.651,8.638-7.071,2.345.444,4.936,2.826,4.492,8.07a1.486,1.486,0,1,1-2.962-.259c.222-2.727-.568-4.6-2.085-4.936s-4.109,1.32-5.22,5.01c-1.024,3.369-.814,6.17.6,7.786a3.085,3.085,0,0,0,2.468,1.234,1.493,1.493,0,1,1,.407,2.949,5.168,5.168,0,0,1-.518.062Z" transform="translate(-7.401 -303.568)" fill="#a6a6a6"/>
      <path id="Path_1770" data-name="Path 1770" d="M144.634,323.573a6.268,6.268,0,0,1-4.59-2.258c-1.234-1.419-2.974-4.677-1.234-10.587,1.629-5.417,5.578-7.651,8.638-7.071,2.345.444,4.936,2.826,4.492,8.07a1.481,1.481,0,0,1-1.616,1.357,1.505,1.505,0,0,1-1.357-1.617c.234-2.727-.555-4.6-2.073-4.936-1.7-.321-4.121,1.32-5.232,5.01-1.012,3.369-.8,6.17.6,7.786a3.122,3.122,0,0,0,2.53,1.234,1.493,1.493,0,0,1,.407,2.949,4.841,4.841,0,0,1-.568.062Z" transform="translate(-3.924 -303.568)" fill="#a6a6a6"/>
      <path id="Path_1771" data-name="Path 1771" d="M159.494,323.573a6.269,6.269,0,0,1-4.59-2.258c-1.234-1.419-2.974-4.677-1.234-10.587,1.641-5.417,5.59-7.651,8.638-7.071,2.345.444,4.936,2.826,4.492,8.07a1.481,1.481,0,0,1-1.617,1.357,1.505,1.505,0,0,1-1.357-1.617c.234-2.727-.568-4.6-2.073-4.936-1.7-.321-4.121,1.32-5.232,5.01-1.012,3.369-.8,6.17.6,7.786a3.11,3.11,0,0,0,2.468,1.234,1.493,1.493,0,1,1,.407,2.949A4.927,4.927,0,0,1,159.494,323.573Z" transform="translate(-0.447 -303.568)" fill="#a6a6a6"/>
      <path id="Path_1772" data-name="Path 1772" d="M174.354,323.573a6.268,6.268,0,0,1-4.59-2.258c-1.234-1.419-2.974-4.677-1.234-10.587,1.641-5.417,5.578-7.651,8.638-7.071,2.345.444,4.936,2.826,4.479,8.07a1.456,1.456,0,0,1-1.6,1.357,1.505,1.505,0,0,1-1.357-1.616c.234-2.727-.568-4.6-2.073-4.936-1.7-.321-4.121,1.32-5.232,5.01-1.012,3.369-.8,6.17.6,7.786a3.11,3.11,0,0,0,2.53,1.234,1.493,1.493,0,0,1,.407,2.949,4.935,4.935,0,0,1-.568.062Z" transform="translate(3.03 -303.568)" fill="#a6a6a6"/>
      <path id="Path_1773" data-name="Path 1773" d="M189.241,323.573a6.244,6.244,0,0,1-4.578-2.258c-1.234-1.419-2.974-4.677-1.234-10.587,1.629-5.417,5.578-7.651,8.638-7.071,2.345.444,4.936,2.826,4.479,8.07a1.468,1.468,0,0,1-1.6,1.357,1.493,1.493,0,0,1-1.357-1.616c.234-2.727-.568-4.6-2.085-4.936s-4.109,1.32-5.22,5.01c-1.024,3.369-.8,6.17.6,7.786a3.11,3.11,0,0,0,2.468,1.234,1.493,1.493,0,1,1,.407,2.949,5.028,5.028,0,0,1-.518.062Z" transform="translate(6.516 -303.568)" fill="#a6a6a6"/>
      <path id="Path_1774" data-name="Path 1774" d="M204.062,323.573a6.17,6.17,0,0,1-4.578-2.258c-1.234-1.419-2.986-4.677-1.234-10.587,1.629-5.417,5.578-7.651,8.638-7.071,2.357.444,4.936,2.826,4.492,8.07a1.468,1.468,0,0,1-1.6,1.357,1.493,1.493,0,0,1-1.357-1.616c.222-2.727-.568-4.6-2.085-4.936-1.7-.321-4.109,1.32-5.22,5.01-1.024,3.369-.8,6.17.6,7.786a3.109,3.109,0,0,0,2.53,1.234,1.493,1.493,0,0,1,.407,2.949,5.02,5.02,0,0,1-.592.062Z" transform="translate(9.982 -303.568)" fill="#a6a6a6"/>
      <path id="Path_1775" data-name="Path 1775" d="M218.914,323.561a6.269,6.269,0,0,1-4.541-2.2c-1.234-1.419-2.974-4.677-1.234-10.587,1.629-5.417,5.578-7.651,8.638-7.071,2.345.444,4.936,2.826,4.492,8.07a1.486,1.486,0,1,1-2.962-.259c.222-2.727-.568-4.6-2.085-4.936s-4.109,1.32-5.22,5.01c-1.024,3.369-.8,6.17.6,7.786a3.1,3.1,0,0,0,2.468,1.234,1.493,1.493,0,1,1,.407,2.949A5.171,5.171,0,0,1,218.914,323.561Z" transform="translate(13.467 -303.556)" fill="#a6a6a6"/>
      <path id="Path_1776" data-name="Path 1776" d="M233.783,323.573a6.268,6.268,0,0,1-4.59-2.258c-1.234-1.419-2.974-4.677-1.234-10.587,1.629-5.417,5.578-7.651,8.638-7.071,2.345.444,4.936,2.826,4.492,8.07a1.486,1.486,0,1,1-2.962-.259c.222-2.727-.568-4.6-2.085-4.936-1.7-.321-4.109,1.32-5.232,5.01-1.012,3.369-.8,6.17.6,7.786a3.11,3.11,0,0,0,2.468,1.234,1.493,1.493,0,0,1,.42,2.949,5.17,5.17,0,0,1-.518.062Z" transform="translate(16.934 -303.568)" fill="#a6a6a6"/>
      <path id="Path_1777" data-name="Path 1777" d="M248.643,323.573a6.268,6.268,0,0,1-4.59-2.258c-1.234-1.419-2.974-4.677-1.234-10.587,1.629-5.417,5.578-7.651,8.638-7.071,2.345.444,4.936,2.826,4.492,8.07a1.481,1.481,0,0,1-1.616,1.357,1.505,1.505,0,0,1-1.357-1.616c.234-2.727-.568-4.6-2.073-4.936-1.7-.321-4.109,1.32-5.232,5.01-1.012,3.369-.8,6.17.6,7.786a3.11,3.11,0,0,0,2.53,1.234,1.493,1.493,0,0,1,.407,2.949,4.84,4.84,0,0,1-.568.062Z" transform="translate(20.411 -303.568)" fill="#a6a6a6"/>
    </g>
    <g id="freepik--Plant--inject-69" transform="translate(463.767 363.504)">
      <path id="Path_1778" data-name="Path 1778" d="M414.95,337.083a96.976,96.976,0,0,1,2.233-15.746,35.046,35.046,0,0,1,5.627-13.277,16.893,16.893,0,0,1,11.032-6.873c4.319-.531,8.366,1.394,11.6,4.121,4.01,3.369,7.071,7.836,9.946,12.155a147.311,147.311,0,0,1,8.638,15.042.148.148,0,0,1-.259.136,92.789,92.789,0,0,0-7.675-12.574,78.3,78.3,0,0,0-8.848-10.711c-2.962-2.9-6.737-5.6-11.032-5.738a13.574,13.574,0,0,0-10.785,5.553c-2.887,3.7-4.344,8.28-5.442,12.772a94.274,94.274,0,0,0-2.283,14.993c-.851,10.365-1.074,20.8-1.308,31.207q-.2,8.823-.271,17.658l-.074,8.946a54.359,54.359,0,0,1-.345,8.638.592.592,0,0,1-1.135,0,50.291,50.291,0,0,1-.395-8.181q-.074-4.233-.111-8.477-.074-8.243-.062-16.486C414.062,359.171,414.2,348.09,414.95,337.083Z" transform="translate(-368.8 -297.291)" fill="#263238"/>
      <path id="Path_1779" data-name="Path 1779" d="M427.2,329.994c.555-2.937,1.542-6.762,3.208-9.033,3.011-4.084,6.244-2.307,3.245,2.209a27.011,27.011,0,0,0-4.208,11.106s5.047,7.206,11.106,10.76c-.259-2.776-1.049-7.034-.506-11.106,1.172-8.9,6.552-8.4,5.22-1.32a61.231,61.231,0,0,0-1.234,14.3,30.282,30.282,0,0,0,6.5,3.2c-.346-1.037-.716-2.271-1.123-3.776-2.172-7.984,3.159-10.476,3.332-5.985a61.814,61.814,0,0,0,2.073,11.328c2.924.987,5.343,1.653,6.824,2.172a24.84,24.84,0,0,1,9.983,6.824,31.381,31.381,0,0,0,6.812-8.8c-1.863-1.6-4.8-3.986-8.885-6.873-7.663-5.4-4.936-12.229,1.074-7.984,4.381,3.06,7.774,8.736,9.316,11.649a47.05,47.05,0,0,0,3.48-15.943c-6.022-5.639-20.891-13.512-16.412-13.512,4.035,0,13.068,5.911,16.375,8.194a42.454,42.454,0,0,0-.506-4.627c-5.664-3.7-24.075-9.489-21.138-11.106,3.221-1.814,16.042,4.121,19.941,6.009a23.115,23.115,0,0,0-3.393-7.046c-7.836-10.476-21.94-14.092-28.1-12.093-4.356,1.407-3.085,12.463-4.023,12.093C428.707,303.538,420.76,308.51,427.2,329.994Zm42.9-1.234c1.234-1.493,6.984,2.912,5.331,5.331s-6.935-3.393-5.331-5.318Zm-30.01-9.428c1.505.962-.728,6.552-3.06,4.862-1.974-1.431,1.543-5.812,3.06-4.849Z" transform="translate(-366.231 -298.013)" fill="#15ace5"/>
      <path id="Path_1780" data-name="Path 1780" d="M439.92,318.577c.79-1.567,1.616-3.11,2.468-4.615a27.293,27.293,0,0,1,2.9-4.2l-.753-.925c-.1-.123.074-.3.185-.173.3.333.568.679.851,1.024a.222.222,0,0,1,.123.136,49.643,49.643,0,0,1,3.073,4,45.161,45.161,0,0,1,5.084,1.468c1.715.58,3.418,1.234,5.084,1.876.185.074.1.37-.086.284-1.641-.728-3.319-1.431-5.035-2.011s-3.27-.975-4.936-1.431c.531.753,1.049,1.505,1.555,2.283a60.561,60.561,0,0,1,9,3.7c3.035,1.444,5.96,3.122,8.872,4.8.16.1,0,.358-.16.259a97.794,97.794,0,0,0-8.823-4.566c-2.813-1.32-5.726-2.406-8.564-3.7,7.145,11.106,11.427,24.038,17.165,35.945.086.173-.185.321-.259.148-1.752-4.183-3.764-8.255-5.676-12.34-1.7-3.7-3.381-7.4-5.1-11.106-.494-1.074-1.012-2.159-1.53-3.233.309,5.96.185,12.019,1.16,17.9a.148.148,0,1,1-.3,0c-.407-6.367-1.53-12.636-1.493-19.04v-.086q-1.814-3.7-3.9-7.169c-2.369,5.577-4.862,11.241-5.96,17.276,0,.185-.333.1-.284-.086,1.6-6,3.1-12.007,6-17.559a68.467,68.467,0,0,0-5.035-7.256c-.8,1.481-1.814,2.888-2.715,4.294s-1.752,2.776-2.567,4.208a59.628,59.628,0,0,0-4.479,9.452c-.062.173-.358.086-.284-.086C436.983,324.845,438.365,321.662,439.92,318.577Z" transform="translate(-363.772 -295.53)" fill="#263238"/>
      <path id="Path_1781" data-name="Path 1781" d="M397.855,333.137c3.936-5.17,8.416-11.858,15.449-12.8,6.787-.9,12.5,3.9,16.128,9.144,3.788,5.491,5.763,12.019,7.478,18.386a231.87,231.87,0,0,1,4.936,23.186c.716,4.331,1.234,8.638,1.752,13.043a87.3,87.3,0,0,1,.777,13.3c0,.716-1.16.9-1.308.148-.691-3.64-1.037-7.342-1.505-11.007s-1.012-7.206-1.629-10.8q-1.851-10.9-4.578-21.607c-1.6-6.244-3.073-12.673-5.787-18.51-2.468-5.294-6.5-11.167-12.414-12.846-8.082-2.283-14.734,4.763-19.04,10.538C398.04,333.445,397.744,333.285,397.855,333.137Z" transform="translate(-372.583 -292.814)" fill="#263238"/>
      <path id="Path_1782" data-name="Path 1782" d="M377.37,342.768h0v2.789a16.376,16.376,0,0,1,7.651-2.752c6.54-.383,5.886,4.541,1.53,4.541a24.85,24.85,0,0,0-9.008,1.357c.654,8.638,2.69,15.659,3.036,15.77a126.931,126.931,0,0,0,17.276-1.357c-1.456-3.517-4.936-8.28-3.023-8.551s3.7,3.887,4.578,8.317a82.889,82.889,0,0,0,12.7-2.838c-2.739-2.6-7.009-5.9-5.257-7.132s5.047,3.27,7,6.528a25.322,25.322,0,0,0,5.553-2.752c-3.591-5.849-12.92-7.4-11.5-11.488s9.933,2.061,13.574,9.872c4.862-4.59,6.54-11.315,6.33-17.152-4.01-.666-11.821-.185-11.106-3.06s6.281-2.048,10.8-.136a16.042,16.042,0,0,0-2.394-6.515c-3.986-5.664-17.276.654-17.276.654s2.011-12.981-2.838-15.474c-2.789-1.431-7.823-1.654-13.018,1.074,2.826.37,6.17,1.431,7.49,3.467,1.641,2.591-1.234,3.825-2.912,2.579-1.234-.876-3.406-3.566-7.577-4.109a25.728,25.728,0,0,0-4.936,4.936,25.156,25.156,0,0,0-1.468,2.1,17.781,17.781,0,0,1,15.178,1c5.491,3.06,2.073,8.749-2.665,6.256s-9.23-4.936-14.425-3.912a36.376,36.376,0,0,0-3.171,14.425,25.913,25.913,0,0,1,8.527-3.6c5.676-1.234,7.206,2.221,1.024,2.554A24.681,24.681,0,0,0,377.37,342.768Zm7.231-8.638c-.3-1.839,3.7-2.172,4.294-.666.481,1.234-4,2.443-4.294.666Zm33.478,11.661c.42-.975,3.023.272,2.715,1.493-.407,1.579-3.159-.58-2.715-1.542Zm-19.052,5.454c1.974-.679,4.763,4.282,2.6,5.281s-4.208-4.763-2.6-5.331Z" transform="translate(-377.37 -294.659)" fill="#15ace5"/>
      <path id="Path_1783" data-name="Path 1783" d="M377.37,342.768h0v2.789a16.376,16.376,0,0,1,7.651-2.752c6.54-.383,5.886,4.541,1.53,4.541a24.85,24.85,0,0,0-9.008,1.357c.654,8.638,2.69,15.659,3.036,15.77a126.931,126.931,0,0,0,17.276-1.357c-1.456-3.517-4.936-8.28-3.023-8.551s3.7,3.887,4.578,8.317a82.889,82.889,0,0,0,12.7-2.838c-2.739-2.6-7.009-5.9-5.257-7.132s5.047,3.27,7,6.528a25.322,25.322,0,0,0,5.553-2.752c-3.591-5.849-12.92-7.4-11.5-11.488s9.933,2.061,13.574,9.872c4.862-4.59,6.54-11.315,6.33-17.152-4.01-.666-11.821-.185-11.106-3.06s6.281-2.048,10.8-.136a16.042,16.042,0,0,0-2.394-6.515c-3.986-5.664-17.276.654-17.276.654s2.011-12.981-2.838-15.474c-2.789-1.431-7.823-1.654-13.018,1.074,2.826.37,6.17,1.431,7.49,3.467,1.641,2.591-1.234,3.825-2.912,2.579-1.234-.876-3.406-3.566-7.577-4.109a25.728,25.728,0,0,0-4.936,4.936,25.156,25.156,0,0,0-1.468,2.1,17.781,17.781,0,0,1,15.178,1c5.491,3.06,2.073,8.749-2.665,6.256s-9.23-4.936-14.425-3.912a36.376,36.376,0,0,0-3.171,14.425,25.913,25.913,0,0,1,8.527-3.6c5.676-1.234,7.206,2.221,1.024,2.554A24.681,24.681,0,0,0,377.37,342.768Zm7.231-8.638c-.3-1.839,3.7-2.172,4.294-.666.481,1.234-4,2.443-4.294.666Zm33.478,11.661c.42-.975,3.023.272,2.715,1.493-.407,1.579-3.159-.58-2.715-1.542Zm-19.052,5.454c1.974-.679,4.763,4.282,2.6,5.281s-4.208-4.763-2.6-5.331Z" transform="translate(-377.37 -294.659)" opacity="0.1"/>
      <path id="Path_1784" data-name="Path 1784" d="M380.644,360.292c3.147-4.738,6.269-9.5,9.563-14.141q2.3-3.233,4.775-6.343l-.679-.2-1.16-.271c-.888-.2-1.777-.37-2.678-.506a25.631,25.631,0,0,0-2.554-.272,13.583,13.583,0,0,0-2.739,0c-.111,0-.123-.148,0-.148.913.086,1.851,0,2.764,0a23.322,23.322,0,0,1,2.653.2c.876.1,1.654.21,2.468.37l1.345.308a6.053,6.053,0,0,1,.814.21q2.542-3.147,5.22-6.17a58.328,58.328,0,0,0-15.721-5.849c-.086,0,0-.16,0-.148a54.3,54.3,0,0,1,15.955,5.689c.987-1.1,1.974-2.2,2.974-3.282s2.308-2.406,3.319-3.7c.074-.086.2,0,.123.086a57.327,57.327,0,0,0-3.924,4.356h0a56.818,56.818,0,0,1,5.713,5.047c1.851,1.814,3.7,3.7,5.417,5.59.062.074,0,.173-.111.111-1.728-1.9-3.529-3.7-5.429-5.442s-3.887-3.344-5.8-5.059h0l-1.444,1.715c-.234.3-.481.58-.728.864a.124.124,0,0,1,0,.062l-2.419,2.912a23.937,23.937,0,0,1,2.061,4.183c.592,1.407,1.086,2.851,1.542,4.307a62.118,62.118,0,0,1,2,9.255.074.074,0,1,1-.148,0,53.445,53.445,0,0,0-2.221-9.094c-.494-1.518-1.074-3-1.666-4.479s-1.234-2.653-1.728-4.01l-2.073,2.53-.58.753a.086.086,0,0,1-.074.123h0c-2.135,2.7-4.183,5.479-6.17,8.28a2.927,2.927,0,0,1,.222.654c.1.346.2.716.284,1.074a22.206,22.206,0,0,1,.407,2.2c.086.691.148,1.394.185,2.085a18.866,18.866,0,0,0,.062,2.369c0,.123-.173.123-.136,0a8.279,8.279,0,0,0-.062-2.209c-.074-.765-.173-1.518-.309-2.271s-.284-1.345-.444-2.011c-.086-.346-.173-.679-.271-1s-.136-.37-.185-.555c-.925,1.32-1.851,2.641-2.764,3.986-1.814,2.641-3.6,5.294-5.4,7.947C380.767,360.551,380.558,360.428,380.644,360.292Z" transform="translate(-376.609 -291.465)" fill="#263238"/>
      <path id="Path_1785" data-name="Path 1785" d="M413.73,384.442c.074-2.468.457-4.862.716-7.268s.531-4.837.79-7.268a110.82,110.82,0,0,1,1.876-13.993,20.361,20.361,0,0,1,5.7-10.476,9.243,9.243,0,0,1,5.59-2.665,9.551,9.551,0,0,1,5.923,1.826,20.669,20.669,0,0,1,5,5.257,52.579,52.579,0,0,1,3.887,6.318c0,.086-.086.136-.136,0a32.355,32.355,0,0,0-8.416-9.428,9.959,9.959,0,0,0-5.306-2.209,7.207,7.207,0,0,0-5.146,2.048,19.337,19.337,0,0,0-5.429,9.613,97.208,97.208,0,0,0-2.1,12.944q-.518,3.825-1.012,7.688c-.333,2.542-.555,5.158-1.086,7.675a.432.432,0,0,1-.851-.062Z" transform="translate(-368.863 -287.542)" fill="#263238"/>
      <path id="Path_1786" data-name="Path 1786" d="M423.977,365.859a13.575,13.575,0,0,0,2.628,2.7c-.395-2.369-.876-6.565.321-8.8,1.851-3.48,4.035-1.752,2.937,1.234a24.681,24.681,0,0,0-1.789,8.564,37.414,37.414,0,0,0,8.045,3.788,13.734,13.734,0,0,1-.284-4.146c.37-3.7,3.208-3.7,2.468.21a24.247,24.247,0,0,0-.383,4.541,82.847,82.847,0,0,0,12.537,2.826,36.61,36.61,0,0,0,5.183-9.242c-3.011-.753-9.131-.925-9.008-3.085.173-2.9,6.17-.666,9.576,1.444a23.052,23.052,0,0,0,1.037-7.823,39.255,39.255,0,0,0-8.329-1.382c-6.17-.531-5.911-4.06-1.407-3.973,3.332.062,7.54,2.1,9.526,3.147-1.3-8.453-7.749-13.882-12.92-14.092-8.7-.346-5.578,10.476-5.578,10.476s-5.9-4.146-11.451-4.035S418.029,357.591,423.977,365.859Zm23.236-15.647c-.2-1.234,3.7-1.505,3.887,0,.234,1.8-3.69,1.246-3.887,0Zm6.244,12.7c-.074-.79,1.6-.926,1.974.074.259.654-1.9.716-1.974-.074Zm-20.891.74c1.308.185,2.061,4.874-.2,4.788-1.728-.074-.913-4.936.2-4.788Z" transform="translate(-367.19 -287.777)" fill="#15ace5"/>
      <path id="Path_1787" data-name="Path 1787" d="M431.822,364.055c.222-.58.407-1.234.592-1.765-.16.6-.321,1.234-.432,1.814a.086.086,0,1,1-.16-.049Z" transform="translate(-364.633 -282.974)" fill="#263238"/>
      <path id="Path_1788" data-name="Path 1788" d="M433.97,359.246c.407-1.234.864-2.394,1.333-3.579.259-.629.506-1.234.79-1.863a7.228,7.228,0,0,1,.777-1.579,10.521,10.521,0,0,1-.7-1.518s0-.086.074,0a16.183,16.183,0,0,1,1.69,2.628c.247.407.481.827.716,1.234a12.107,12.107,0,0,1,1.468.234c.518.086,1.037.2,1.555.308l1.555.37c.506.111,1.012.284,1.543.37.111,0,.062.21,0,.16a10.55,10.55,0,0,0-1.629-.432c-.494-.1-1-.185-1.505-.259l-1.518-.185-1.148-.1c.2.37.42.728.617,1.1,0,0,.062.111.1.173a4.727,4.727,0,0,1,1.234.148c.444.074.9.16,1.345.259.9.21,1.814.419,2.7.666,1.888.531,3.7,1.135,5.6,1.74.1,0,0,.185-.062.148a55.89,55.89,0,0,0-5.627-1.555c-.888-.2-1.777-.407-2.678-.592l-1.333-.284a7.591,7.591,0,0,1-1.049-.234c.963,1.777,1.863,3.566,2.69,5.4,1.8,3.986,3.332,8.107,4.874,12.2,0,.1-.123.16-.16,0a110.969,110.969,0,0,0-5.183-11.932l-1.049-2.11a4.416,4.416,0,0,0-.1.432l-.259,1.456c-.16.963-.321,1.937-.469,2.912a34.407,34.407,0,0,0-.7,6.047c0,.123-.185.111-.16,0,.148-.963.148-1.974.21-2.949s.136-2.036.259-3.048.234-1.95.395-2.924l.259-1.456a3,3,0,0,1,.271-1.049c-.506-1.024-1.012-2.048-1.53-3.073s-.975-1.9-1.468-2.85c-.21-.407-.432-.814-.654-1.234a15.118,15.118,0,0,1-.58,1.468c-.222.543-.444,1.1-.679,1.641-.494,1.234-.962,2.468-1.419,3.7-.666,1.74-1.394,3.529-1.925,5.343C432.934,362.813,433.378,360.949,433.97,359.246Z" transform="translate(-364.485 -285.693)" fill="#263238"/>
      <path id="Path_1789" data-name="Path 1789" d="M432.3,362.37a1.287,1.287,0,0,1,.136-.42C432.386,362.086,432.349,362.221,432.3,362.37Z" transform="translate(-364.518 -283.054)" fill="#263238"/>
      <path id="Path_1790" data-name="Path 1790" d="M397.6,377.11l1.061,15.634,2.739,40.3h59.724l2.727-40.3,1.061-15.634Z" transform="translate(-372.637 -279.507)" fill="#37474f"/>
      <path id="Path_1791" data-name="Path 1791" d="M397.6,377.11l1.061,15.634h65.191l1.061-15.634Z" transform="translate(-372.637 -279.507)" fill="#263238"/>
      <rect id="Rectangle_423" data-name="Rectangle 423" width="75.803" height="12.636" transform="translate(96.521 103.921) rotate(180)" fill="#37474f"/>
      <rect id="Rectangle_424" data-name="Rectangle 424" width="10.489" height="6.614" transform="translate(73.162 153.539)" fill="#37474f"/>
      <rect id="Rectangle_425" data-name="Rectangle 425" width="10.489" height="3.307" transform="translate(73.162 153.539)" fill="#263238"/>
      <rect id="Rectangle_426" data-name="Rectangle 426" width="10.476" height="6.614" transform="translate(33.589 153.539)" fill="#37474f"/>
      <rect id="Rectangle_427" data-name="Rectangle 427" width="10.476" height="3.307" transform="translate(33.589 153.539)" fill="#263238"/>
    </g>
    <g id="freepik--speech-bubble--inject-69" transform="translate(406.93 106.308)">
      <path id="Path_1792" data-name="Path 1792" d="M398.51,123.573a30.565,30.565,0,0,1-51.1,19.349l-15.3,2.246,7.651-13.228a30.244,30.244,0,0,1-2.1-14.721,30.59,30.59,0,1,1,60.848,6.355Z" transform="translate(-331.123 -89.531)" fill="#fff"/>
      <path id="Path_1793" data-name="Path 1793" d="M398.7,123.625a30.85,30.85,0,0,1-6.17,15.511,35.855,35.855,0,0,1-2.776,3.184,34.167,34.167,0,0,1-3.233,2.739,30.837,30.837,0,0,1-19.805,6.157,27.064,27.064,0,0,1-4.232-.444,30.849,30.849,0,0,1-15.141-7.478l.37.111-15.289,2.357-1.111.16.568-.975,7.6-13.253v.518a30.96,30.96,0,0,1,38.352-41.079,31.405,31.405,0,0,1,11.8,7.231,30.849,30.849,0,0,1,9.07,25.259Zm0,0a30.382,30.382,0,0,0-47.323-28.159,31.577,31.577,0,0,0-9.144,9.983,30.121,30.121,0,0,0-1.728,26.271l.1.271-.136.247-7.7,13.2-.555-.8,15.314-2.147h.222l.148.148a30.047,30.047,0,0,0,14.647,7.54,24.558,24.558,0,0,0,4.146.506,28.98,28.98,0,0,0,12.352-1.8,29,29,0,0,0,7.4-3.973,35.375,35.375,0,0,0,3.233-2.7,32.178,32.178,0,0,0,2.776-3.159,30.665,30.665,0,0,0,6.244-15.425Z" transform="translate(-331.31 -89.583)" fill="#263238"/>
      <path id="Path_1794" data-name="Path 1794" d="M360.835,135.307,347.78,122.091l4.381-4.344,7.638,7.725,15.857-24.852,5.195,3.319Z" transform="translate(-327.457 -87)" fill="#15ace5"/>
    </g>
  </g>
</svg>
