<svg xmlns="http://www.w3.org/2000/svg" width="667.871" height="629.381" viewBox="0 0 667.871 629.381">
  <g id="Blog_post-cuate_1_" data-name="Blog post-cuate (1)" transform="translate(-30.83 -32.293)">
    <g id="freepik--background-complete--inject-38" transform="translate(43.914 32.293)">
      <circle id="Ellipse_146" data-name="Ellipse 146" cx="37.405" cy="37.405" r="37.405" transform="translate(576.294 187.385) rotate(-2.84)" fill="#ebebeb"/>
      <g id="freepik--xsrjP0--inject-38" transform="translate(591.659 197.666)">
        <path id="Path_2503" data-name="Path 2503" d="M447.257,203.994c-.991-.616-1.847-1.5-3.183-1.4-.5,0-.39-.375-.39-.646V187.01c0-.375,0-.661.42-.871,3.8-1.907,5.451-5.691,7.778-8.92a14.911,14.911,0,0,0,2.763-11.307c-.15-1.111.375-1.622,1.382-1.847a2.493,2.493,0,0,1,2.838.9,20.23,20.23,0,0,1,2.177,6.517,24.44,24.44,0,0,1-.691,5.6c-.18,1.366-.5,2.718-.751,4.114.33.24.721.105,1.081.12h12.614c1.787,0,2.643.511,2.9,1.682a3.379,3.379,0,0,1-1.832,3.649c-.315.165-.886,0-.931.511s.556.45.841.661c1.5,1.036,1.246,3.2-.526,4.5-.42.3-1.246.165-1.261.781s.766.5,1.111.841a2.853,2.853,0,0,1-1.216,4.4,5.559,5.559,0,0,0-.751.285c-.21.135-.405.3,0,.586a2.478,2.478,0,0,1,0,4.5l-.541.405a3.619,3.619,0,0,1-2.222.48H449a2.342,2.342,0,0,1-1.742-.616Z" transform="translate(-428.486 -163.929)" fill="#fff" fill-rule="evenodd"/>
        <path id="Path_2504" data-name="Path 2504" d="M433.56,188.251v-9.505c0-.631,0-.946.856-.946h11.577c.766,0,.871.255.871.931v19.115c0,.811-.21,1.036-1.021,1.021H434.611c-.931,0-1.066-.315-1.051-1.141C433.59,194.618,433.56,191.42,433.56,188.251Z" transform="translate(-433.559 -156.971)" fill="#fff" fill-rule="evenodd"/>
      </g>
      <path id="Path_2505" data-name="Path 2505" d="M220.659,171.578H49.22V61.66H220.659Zm-169.937-1.5H219.157V63.162H50.722Z" transform="translate(-34.689 -17.562)" fill="#ebebeb"/>
      <path id="Path_2506" data-name="Path 2506" d="M220.659,77.577H49.22V61.66H220.659Zm-169.937-1.5H219.157V63.162H50.722Z" transform="translate(-34.689 -17.562)" fill="#ebebeb"/>
      <path id="Path_2507" data-name="Path 2507" d="M61.148,68.214a3.619,3.619,0,1,1-1.055-2.569,3.634,3.634,0,0,1,1.055,2.569Z" transform="translate(-32.352 -16.097)" fill="#c7c7c7"/>
      <path id="Path_2508" data-name="Path 2508" d="M70.988,68.214a3.619,3.619,0,1,1-1.055-2.569A3.619,3.619,0,0,1,70.988,68.214Z" transform="translate(-27.401 -16.097)" fill="#ebebeb"/>
      <circle id="Ellipse_147" data-name="Ellipse 147" cx="3.619" cy="3.619" r="3.619" transform="translate(51.155 48.543)" fill="#15ace5"/>
      <path id="Path_2509" data-name="Path 2509" d="M40.619,239.962a37.405,37.405,0,1,1,45.214,27.464,37.405,37.405,0,0,1-45.214-27.464Z" transform="translate(-39.543 48.659)" fill="#ebebeb"/>
      <path id="Path_2510" data-name="Path 2510" d="M90.681,229.184c-5.646,11.4-19.1,18.154-19.1,18.154S58.066,240.581,52.5,229.184c-4.7-9.505-1.727-19.776,5.706-22.029,10.646-3.213,13.379,15.331,13.379,15.331s2.733-18.545,13.394-15.331C92.408,209.407,95.382,219.678,90.681,229.184Z" transform="translate(-34.181 55.232)" fill="#fff"/>
      <path id="Path_2511" data-name="Path 2511" d="M407.157,101.513a37.405,37.405,0,1,1,16.309-42.04,37.54,37.54,0,0,1-16.309,42.04Z" transform="translate(116.224 -32.293)" fill="#ebebeb"/>
      <circle id="Ellipse_148" data-name="Ellipse 148" cx="11.382" cy="11.382" r="11.382" transform="translate(492.328 21.739)" fill="#fff"/>
      <path id="Path_2512" data-name="Path 2512" d="M401.232,81.831v4.7a37.54,37.54,0,0,1-39.342,0v-4.7a19.671,19.671,0,1,1,39.342,0Z" transform="translate(122.149 -17.311)" fill="#fff"/>
    </g>
    <g id="freepik--Floor--inject-38" transform="translate(77.62 574.415)">
      <path id="Path_2513" data-name="Path 2513" d="M61.99,394.071l69.825-.36,69.84-.135,139.65-.255,139.65.255,69.84.135,69.825.36-69.825.36-69.84.135-139.65.255-139.65-.255-69.84-.135Z" transform="translate(-61.99 -393.32)" fill="#263238"/>
    </g>
    <g id="freepik--Shadows--inject-38" transform="translate(30.83 612.451)">
      <ellipse id="Ellipse_149" data-name="Ellipse 149" cx="170.913" cy="24.611" rx="170.913" ry="24.611" fill="#ebebeb"/>
      <ellipse id="Ellipse_150" data-name="Ellipse 150" cx="170.913" cy="24.611" rx="170.913" ry="24.611" transform="translate(326.045)" fill="#ebebeb"/>
    </g>
    <g id="freepik--Device--inject-38" transform="translate(108.148 123.286)">
      <rect id="Rectangle_593" data-name="Rectangle 593" width="503.82" height="374.937" transform="translate(0)" fill="#37474f"/>
      <rect id="Rectangle_594" data-name="Rectangle 594" width="452.931" height="269.239" transform="translate(25.452 24.386)" fill="#fff"/>
      <rect id="Rectangle_595" data-name="Rectangle 595" width="503.82" height="55.304" transform="translate(0 319.633)" fill="#c7c7c7"/>
      <rect id="Rectangle_596" data-name="Rectangle 596" width="214.896" height="17.959" transform="translate(144.47 442.525)" fill="#37474f"/>
      <path id="Path_2514" data-name="Path 2514" d="M359.276,410.177H195.57L199.729,379l.2-1.472.39-2.913.2-1.472.39-2.928.06-.45.135-1.021.405-2.928.18-1.457,2.913-21.773H350.251l2.733,20.527.15.991.45,3.409.12.991.18,1.261.285,2.147.12.976.451,3.424.15.976Z" transform="translate(-25.513 32.362)" fill="#c7c7c7"/>
      <rect id="Rectangle_597" data-name="Rectangle 597" width="452.931" height="14.566" transform="translate(25.452 24.386)" fill="#263238"/>
      <path id="Path_2515" data-name="Path 2515" d="M109.418,115.209a3.6,3.6,0,1,1-1.05-2.558,3.619,3.619,0,0,1,1.05,2.558Z" transform="translate(-72.358 -83.51)" fill="#c7c7c7"/>
      <path id="Path_2516" data-name="Path 2516" d="M119.208,115.209a3.6,3.6,0,1,1-1.05-2.558,3.619,3.619,0,0,1,1.05,2.558Z" transform="translate(-67.447 -83.51)" fill="#fff"/>
      <path id="Path_2517" data-name="Path 2517" d="M129.038,115.209a3.619,3.619,0,1,1-3.619-3.619A3.619,3.619,0,0,1,129.038,115.209Z" transform="translate(-62.516 -83.51)" fill="#15ace5"/>
      <path id="Path_2518" data-name="Path 2518" d="M262.15,324.745a9.13,9.13,0,1,1-9.085-9.145,9.13,9.13,0,0,1,9.085,9.145Z" transform="translate(-1.275 18.824)" fill="#37474f"/>
      <path id="Path_2519" data-name="Path 2519" d="M352.084,369.769H199.16l.135-1.021.405-2.928.18-1.457,2.913-21.773H348.45l2.733,20.527.15.991.45,3.409.12.991Z" transform="translate(-23.712 32.362)" fill="#a6a6a6"/>
      <rect id="Rectangle_598" data-name="Rectangle 598" width="452.931" height="60.35" transform="translate(25.452 38.937)" fill="#15ace5"/>
      <path id="Path_2520" data-name="Path 2520" d="M444.576,315.613H261.56V187H444.576Zm-181.515-1.5H443.075V188.5H263.062Z" transform="translate(7.589 -45.683)" fill="#ebebeb"/>
      <rect id="Rectangle_599" data-name="Rectangle 599" width="1.5" height="221.293" transform="matrix(0.571, -0.821, 0.821, 0.571, 267.922, 141.411)" fill="#ebebeb"/>
      <path id="Path_2521" data-name="Path 2521" d="M262.641,315.428l-.871-1.231c1.742-1.216,174.367-121.721,181.5-127.1l.9,1.2C437.023,193.692,264.383,314.211,262.641,315.428Z" transform="translate(7.694 -45.633)" fill="#ebebeb"/>
      <rect id="Rectangle_600" data-name="Rectangle 600" width="171.874" height="52.707" transform="translate(165.973 38.937)" fill="#263238"/>
      <rect id="Rectangle_601" data-name="Rectangle 601" width="119.243" height="2.433" transform="translate(117.441 115.879)" fill="#ebebeb"/>
      <rect id="Rectangle_602" data-name="Rectangle 602" width="92.154" height="2.433" transform="translate(117.441 122.006)" fill="#ebebeb"/>
      <rect id="Rectangle_603" data-name="Rectangle 603" width="112.095" height="2.433" transform="translate(117.441 128.132)" fill="#ebebeb"/>
      <rect id="Rectangle_604" data-name="Rectangle 604" width="121.901" height="2.433" transform="translate(117.441 134.259)" fill="#ebebeb"/>
      <rect id="Rectangle_605" data-name="Rectangle 605" width="63.203" height="2.433" transform="translate(117.441 140.386)" fill="#ebebeb"/>
      <rect id="Rectangle_606" data-name="Rectangle 606" width="119.618" height="2.433" transform="translate(117.441 146.527)" fill="#ebebeb"/>
      <rect id="Rectangle_607" data-name="Rectangle 607" width="99.572" height="2.433" transform="translate(117.441 152.654)" fill="#ebebeb"/>
      <rect id="Rectangle_608" data-name="Rectangle 608" width="125.159" height="2.433" transform="translate(117.441 158.78)" fill="#ebebeb"/>
      <rect id="Rectangle_609" data-name="Rectangle 609" width="119.618" height="2.433" transform="translate(117.441 164.907)" fill="#ebebeb"/>
      <rect id="Rectangle_610" data-name="Rectangle 610" width="125.159" height="2.433" transform="translate(117.441 171.033)" fill="#ebebeb"/>
      <rect id="Rectangle_611" data-name="Rectangle 611" width="17.584" height="2.433" transform="translate(52.406 55.439)" fill="#fff"/>
      <rect id="Rectangle_612" data-name="Rectangle 612" width="17.584" height="2.433" transform="translate(52.406 61.566)" fill="#fff"/>
      <rect id="Rectangle_613" data-name="Rectangle 613" width="17.584" height="2.433" transform="translate(52.406 67.693)" fill="#fff"/>
      <rect id="Rectangle_614" data-name="Rectangle 614" width="181.515" height="13.469" transform="translate(269.9 115.879)" fill="#15ace5"/>
      <rect id="Rectangle_615" data-name="Rectangle 615" width="57.587" height="57.602" transform="translate(52.406 115.864)" fill="#a6a6a6"/>
      <circle id="Ellipse_151" data-name="Ellipse 151" cx="10.406" cy="10.406" r="10.406" transform="translate(70.801 123.853)" fill="#fff"/>
      <path id="Path_2522" data-name="Path 2522" d="M160.419,207.449v10.511H124.38V207.449a18.019,18.019,0,0,1,36.039,0Z" transform="translate(-61.222 -44.464)" fill="#fff"/>
      <path id="Path_2523" data-name="Path 2523" d="M216.8,149.692V139.181a.976.976,0,0,1,.976-.991h2.538a3.394,3.394,0,0,1,3.394,3.394,3.348,3.348,0,0,1-.691,2.042A3.814,3.814,0,0,1,221,150.683h-3.228a.976.976,0,0,1-.976-.991Zm1.967-6.682h1.5a1.5,1.5,0,0,0,1.412-1.5,1.412,1.412,0,0,0-1.412-1.412h-1.5Zm0,5.676H221a1.847,1.847,0,0,0,0-3.694h-2.237Z" transform="translate(-14.863 -70.167)" fill="#fff"/>
      <path id="Path_2524" data-name="Path 2524" d="M223.86,149.692V139.181a.976.976,0,0,1,.976-.991.991.991,0,0,1,.991.991v9.52h4.85a1.006,1.006,0,0,1,.976,1.006.991.991,0,0,1-.976.976h-5.841a.961.961,0,0,1-.976-.991Z" transform="translate(-11.322 -70.167)" fill="#fff"/>
      <path id="Path_2525" data-name="Path 2525" d="M240.1,139.857a6.547,6.547,0,0,1,0,9.01,5.841,5.841,0,0,1-4.265,1.907,6.006,6.006,0,0,1-4.37-1.907,6.637,6.637,0,0,1,0-9.01,5.9,5.9,0,0,1,4.37-1.907,5.721,5.721,0,0,1,4.265,1.907Zm-.225,4.5a4.655,4.655,0,0,0-1.216-3.123,3.859,3.859,0,0,0-5.706,0,4.6,4.6,0,0,0,0,6.232,3.8,3.8,0,0,0,5.706,0,4.505,4.505,0,0,0,1.216-3.108Z" transform="translate(-8.39 -70.287)" fill="#fff"/>
      <path id="Path_2526" data-name="Path 2526" d="M239.81,144.392a6.5,6.5,0,0,1,6.577-6.442,6.622,6.622,0,0,1,4.069,1.381,1.021,1.021,0,1,1-1.246,1.607,4.67,4.67,0,0,0-2.823-.961,4.5,4.5,0,0,0-3.213,1.306,4.235,4.235,0,0,0,0,6.172,4.5,4.5,0,0,0,3.213,1.306,4.985,4.985,0,0,0,2.448-.676v-2.448h-2.553a1.036,1.036,0,0,1-1.021-1.021.991.991,0,0,1,1.021-.991h3.559a.991.991,0,0,1,1.021.991v3.919a1.807,1.807,0,0,1,0,.3v.09h0a.931.931,0,0,1-.345.435,6.607,6.607,0,0,1-4.054,1.381,6.487,6.487,0,0,1-6.652-6.352Z" transform="translate(-3.321 -70.288)" fill="#fff"/>
      <path id="Path_2527" data-name="Path 2527" d="M257.6,145.821h-2.207v3.874a.991.991,0,1,1-1.982,0V139.184a.991.991,0,0,1,.991-.991h3.2a3.829,3.829,0,1,1,0,7.643Zm-2.207-1.907H257.6a1.847,1.847,0,1,0,0-3.679h-2.207Z" transform="translate(3.501 -70.17)" fill="#fff"/>
      <path id="Path_2528" data-name="Path 2528" d="M270.373,139.857a6.547,6.547,0,0,1,0,9.01,5.841,5.841,0,0,1-4.265,1.907,6.007,6.007,0,0,1-4.37-1.907,6.637,6.637,0,0,1,0-9.01,6.006,6.006,0,0,1,4.37-1.907,5.721,5.721,0,0,1,4.265,1.907Zm-.225,4.5a4.655,4.655,0,0,0-1.216-3.123,3.859,3.859,0,0,0-5.706,0,4.6,4.6,0,0,0,0,6.232,3.8,3.8,0,0,0,5.706,0A4.5,4.5,0,0,0,270.148,144.362Z" transform="translate(6.794 -70.287)" fill="#fff"/>
      <path id="Path_2529" data-name="Path 2529" d="M270.18,147.706a.931.931,0,0,1,1.306-.135,5.826,5.826,0,0,0,3.409,1.381,3.874,3.874,0,0,0,2.237-.661A1.637,1.637,0,0,0,277.9,147a1.052,1.052,0,0,0-.165-.571,1.757,1.757,0,0,0-.526-.541,7.508,7.508,0,0,0-2.448-.826h0a9.355,9.355,0,0,1-2.3-.706,3.949,3.949,0,0,1-1.667-1.381,2.883,2.883,0,0,1-.405-1.5,3.274,3.274,0,0,1,1.427-2.6,5.241,5.241,0,0,1,3.093-.946,6.923,6.923,0,0,1,3.889,1.5.916.916,0,0,1,.255,1.261.9.9,0,0,1-1.276.27,5.091,5.091,0,0,0-2.868-1.141,3.364,3.364,0,0,0-2,.6,1.5,1.5,0,0,0-.676,1.126.841.841,0,0,0,.12.5,1.592,1.592,0,0,0,.481.465,6.006,6.006,0,0,0,2.237.8h0a9.67,9.67,0,0,1,2.463.751,4.1,4.1,0,0,1,1.787,1.5,2.884,2.884,0,0,1,.421,1.5,3.409,3.409,0,0,1-1.5,2.763,5.541,5.541,0,0,1-3.3,1.021,7.643,7.643,0,0,1-4.5-1.787.946.946,0,0,1-.255-1.351Z" transform="translate(11.822 -70.298)" fill="#fff"/>
      <path id="Path_2530" data-name="Path 2530" d="M286.094,140.162h-2.838V149.7a.976.976,0,0,1-1.952,0v-9.535h-2.823a1.006,1.006,0,0,1-.991-.991.976.976,0,0,1,.991-.991h7.613a.991.991,0,0,1,.991.991A1.006,1.006,0,0,1,286.094,140.162Z" transform="translate(15.579 -70.172)" fill="#fff"/>
      <rect id="Rectangle_616" data-name="Rectangle 616" width="137.112" height="1.817" transform="translate(183.347 84.24)" fill="#fff"/>
      <rect id="Rectangle_617" data-name="Rectangle 617" width="88.1" height="88.1" transform="translate(52.406 181.83)" fill="#ebebeb"/>
      <rect id="Rectangle_618" data-name="Rectangle 618" width="88.085" height="61.686" transform="translate(140.491 243.501) rotate(180)" fill="#ebebeb"/>
      <path id="Path_2531" data-name="Path 2531" d="M124.08,228.088a7.283,7.283,0,1,0,2.133-5.165A7.3,7.3,0,0,0,124.08,228.088Z" transform="translate(-61.373 -28.734)" fill="#dbdbdb"/>
      <path id="Path_2532" data-name="Path 2532" d="M143.27,257.211h48.983l-24.491-33.2Z" transform="translate(-51.747 -27.119)" fill="#c7c7c7"/>
      <path id="Path_2533" data-name="Path 2533" d="M130.48,253.438h40.438L150.707,231.83Z" transform="translate(-58.162 -23.196)" fill="#dbdbdb"/>
      <rect id="Rectangle_619" data-name="Rectangle 619" width="88.085" height="13.289" transform="translate(52.406 230.212)" fill="#dbdbdb"/>
      <rect id="Rectangle_620" data-name="Rectangle 620" width="75.591" height="2.433" transform="translate(58.668 249.628)" fill="#fff"/>
      <rect id="Rectangle_621" data-name="Rectangle 621" width="52.376" height="2.433" transform="translate(58.668 255.754)" fill="#fff"/>
      <rect id="Rectangle_622" data-name="Rectangle 622" width="63.698" height="2.433" transform="translate(58.668 261.881)" fill="#fff"/>
      <rect id="Rectangle_623" data-name="Rectangle 623" width="88.1" height="88.1" transform="translate(154.501 181.83)" fill="#ebebeb"/>
      <rect id="Rectangle_624" data-name="Rectangle 624" width="88.085" height="61.686" transform="translate(242.585 243.501) rotate(180)" fill="#dbdbdb"/>
      <circle id="Ellipse_152" data-name="Ellipse 152" cx="16.758" cy="16.758" r="16.758" transform="translate(181.785 196.726)" fill="#ebebeb"/>
      <path id="Path_2534" data-name="Path 2534" d="M209.2,229v18.2l19.266-9.1Z" transform="translate(-18.676 -24.616)" fill="#fff"/>
      <rect id="Rectangle_625" data-name="Rectangle 625" width="75.591" height="2.433" transform="translate(160.762 249.628)" fill="#fff"/>
      <rect id="Rectangle_626" data-name="Rectangle 626" width="52.376" height="2.433" transform="translate(160.762 255.754)" fill="#fff"/>
      <rect id="Rectangle_627" data-name="Rectangle 627" width="63.698" height="2.433" transform="translate(160.762 261.881)" fill="#fff"/>
      <rect id="Rectangle_628" data-name="Rectangle 628" width="90.382" height="14.686" transform="translate(361.107 55.439)" fill="#fff"/>
      <rect id="Rectangle_629" data-name="Rectangle 629" width="14.686" height="14.686" transform="translate(436.804 55.439)" fill="#263238"/>
      <rect id="Rectangle_630" data-name="Rectangle 630" width="1.697" height="6.892" transform="translate(443.275 62.4) rotate(-37.15)" fill="#fff"/>
      <path id="Path_2535" data-name="Path 2535" d="M381.636,132.725a3.694,3.694,0,1,1-5.2-.691A3.694,3.694,0,0,1,381.636,132.725Z" transform="translate(64.492 -73.637)" fill="#fff"/>
      <path id="Path_2536" data-name="Path 2536" d="M379.97,133.128a2.222,2.222,0,1,1-3.108-.405,2.222,2.222,0,0,1,3.108.405Z" transform="translate(64.988 -73.139)" fill="#263238"/>
    </g>
    <g id="freepik--character-1--inject-38" transform="translate(49.627 199.865)">
      <path id="Path_2537" data-name="Path 2537" d="M247.833,463.492c-2.853.946-84.09.706-87.244-1.246-1.171-.736-1.832-12.6-2.207-26.924-.09-3.093-.15-6.277-.21-9.535,0-3.844-.105-7.733-.135-11.517-.09-16.983.135-31.939.135-31.939H211.1v43.457l-.27,9.535s31.083,14.025,34.237,16.518S250.671,462.561,247.833,463.492Z" transform="translate(14.171 -24.282)" fill="#f7a9a0"/>
      <path id="Path_2538" data-name="Path 2538" d="M247.826,452.823c-2.853.946-84.09.706-87.244-1.246-1.171-.736-1.832-12.6-2.207-26.924-.09-3.093-.15-6.277-.21-9.535,0-3.844-.105-7.733-.135-11.517h53.037v11.517l-.27,9.535s31.083,14.025,34.237,16.518S250.664,451.892,247.826,452.823Z" transform="translate(14.178 -13.613)" fill="#fff"/>
      <path id="Path_2539" data-name="Path 2539" d="M248.1,449.126c-1.847.616-36.474.736-61.686.21-5.841-.12-11.172-.285-15.482-.466-5.931-.27-9.911-.6-10.511-1.006-1.427-.916-2.117-18.3-2.433-36.654h53.172l-.27,9.58s31.2,14.13,34.387,16.638S250.94,448.18,248.1,449.126Z" transform="translate(14.158 -9.796)" fill="#15ace5"/>
      <path id="Path_2540" data-name="Path 2540" d="M244.835,434.4c-13.71-.375-69.074-.6-82.589.075-.105,0-.105.075,0,.09,13.514.661,68.879.435,82.589,0C245.12,434.625,245.12,434.415,244.835,434.4Z" transform="translate(16.254 1.657)" fill="#263238"/>
      <path id="Path_2541" data-name="Path 2541" d="M199.887,415.7c-5.391-1.021-12.013-.21-16.127,3.619-.15.15,0,.375.24.315a75.853,75.853,0,0,1,15.857-3.289.345.345,0,0,0,.03-.646Z" transform="translate(27.054 -7.744)" fill="#263238"/>
      <path id="Path_2542" data-name="Path 2542" d="M202.48,417.275c-5.391-1.021-12.013-.21-16.127,3.619-.165.15,0,.375.225.315a76.192,76.192,0,0,1,15.872-3.243.346.346,0,1,0,.03-.691Z" transform="translate(28.351 -6.956)" fill="#263238"/>
      <path id="Path_2543" data-name="Path 2543" d="M205.055,418.845c-5.391-1.021-12.013-.21-16.112,3.619-.165.15,0,.375.225.315a76.188,76.188,0,0,1,15.872-3.244.345.345,0,0,0,.015-.691Z" transform="translate(29.65 -6.169)" fill="#263238"/>
      <path id="Path_2544" data-name="Path 2544" d="M207.645,420.415c-5.391-1.021-12.013-.21-16.112,3.619-.165.15,0,.375.225.315a76.859,76.859,0,0,1,15.857-3.258.345.345,0,0,0,.03-.676Z" transform="translate(30.95 -5.381)" fill="#263238"/>
      <path id="Path_2545" data-name="Path 2545" d="M206.7,407.875c-2.1-3-6.006-1.622-8.3.255a28.7,28.7,0,0,0-8.349,12.328.15.15,0,0,0,.135.2.676.676,0,0,0,.841.676c4.5-1.637,9.415-2.838,13.244-5.781C206.5,413.822,208.692,410.638,206.7,407.875Zm-9.43,9.6c-2.177.856-4.37,1.607-6.517,2.538a86.44,86.44,0,0,1,5.03-7.088,30.934,30.934,0,0,1,2.868-3c1.607-1.5,7.974-4.5,7,1.366-.526,3.183-5.8,5.166-8.379,6.187Z" transform="translate(30.232 -12.347)" fill="#263238"/>
      <path id="Path_2546" data-name="Path 2546" d="M182.455,417.887c4.5,1.907,9.55,1.817,14.265,2.3a.676.676,0,0,0,.646-.871.15.15,0,0,0,.075-.225,28.786,28.786,0,0,0-11.142-9.851c-2.658-1.261-6.817-1.5-8.124,1.817S179.858,416.821,182.455,417.887Zm-2.433-3.859c-2.4-5.481,4.5-4.084,6.442-3.078a32.242,32.242,0,0,1,3.619,2.267,79.908,79.908,0,0,1,6.637,5.616c-2.3-.375-4.625-.541-6.937-.826-2.838-.345-8.424-.946-9.76-3.979Z" transform="translate(24.124 -11.217)" fill="#263238"/>
      <path id="Path_2547" data-name="Path 2547" d="M146.37,232.14s14.3,141.467,14.641,143.254c0,.24.15,3,.285,7.4.766,24.356,2.673,100.293,2.673,100.293H222.4s-3.8-89.946-6.006-110.924C213.6,345.407,196.043,232.14,196.043,232.14Z" transform="translate(8.329 -99.619)" fill="#455a64"/>
      <path id="Path_2548" data-name="Path 2548" d="M165.867,378.741q-2.7-45.994-8.124-91.748c-2.042-17.193-4.5-34.312-6.952-51.445,0-.15-.27-.15-.24,0,4.5,30.5,7.718,61.236,10.511,91.929s4.685,61.386,5.931,92.154c.721,17.434,1.246,34.867,1.817,52.3a.33.33,0,0,0,.646,0C168.585,440.848,167.744,409.765,165.867,378.741Z" transform="translate(10.425 -97.966)" fill="#263238"/>
      <path id="Path_2549" data-name="Path 2549" d="M211.977,393.223a45.261,45.261,0,0,0-4.745-.2c-1.742,0-3.5-.075-5.256-.15q-5.06-.18-10.136-.255c-6.817-.12-13.65-.075-20.452.135l-5.616.2c-2,.075-4.009.255-6.006.255-.15,0-.135.18,0,.18,3.424,0,6.892.285,10.331.42s6.757.18,10.136.225c6.8.09,13.65,0,20.452-.21,1.862,0,3.739-.105,5.616-.165l3-.12a26.206,26.206,0,0,0,2.658-.09.12.12,0,1,0,.015-.225Z" transform="translate(14.995 -19.153)" fill="#263238"/>
      <path id="Path_2550" data-name="Path 2550" d="M146.37,232.14s14.3,141.467,14.641,143.254c0,.24.15,3,.285,7.4l27.51-150.657Z" transform="translate(8.329 -99.619)" fill="#263238"/>
      <path id="Path_2551" data-name="Path 2551" d="M99.551,450.692c-2.583-1.5-55.56-63.233-56.04-66.867-.21-1.382,8.334-9.61,18.935-19.251,2.282-2.1,4.5-4.355,7.088-6.4,3.153-2.568,6.352-5.12,9.46-7.508,13.514-10.511,25.212-18.8,25.212-18.8L137.8,370.807l-23.906,19.446-9.806,7.989-7.4,6.006s9.7,32.69,9.851,36.729S102.119,452.194,99.551,450.692Z" transform="translate(-43.268 -49.594)" fill="#f7a9a0"/>
      <path id="Path_2552" data-name="Path 2552" d="M99.551,444.412c-2.583-1.5-55.56-63.233-56.04-66.867-.21-1.382,8.334-9.61,18.935-19.251,2.282-2.1,4.5-4.355,7.088-6.4,3.153-2.568,6.352-5.12,9.46-7.508,10.406,12.013,25.527,29,34.9,39.583l-9.806,7.989-7.4,6.006s9.7,32.69,9.851,36.729S102.119,445.914,99.551,444.412Z" transform="translate(-43.268 -43.313)" fill="#fff"/>
      <path id="Path_2553" data-name="Path 2553" d="M99.707,442.27c-2.583-1.5-55.815-63.593-56.355-67.242-.24-1.7,12.478-13.514,26.173-25.8l34.732,40.2-7.508,6.006s9.745,32.87,9.911,36.94S102.289,443.816,99.707,442.27Z" transform="translate(-43.348 -40.886)" fill="#15ace5"/>
      <path id="Path_2554" data-name="Path 2554" d="M100.085,430.063c-8.664-10.631-44.628-52.646-54.058-62.482-.075-.075-.135,0,0,0,8.349,10.707,44.658,52.436,53.893,62.557C100.085,430.424,100.3,430.273,100.085,430.063Z" transform="translate(-42.044 -31.697)" fill="#263238"/>
      <path id="Path_2555" data-name="Path 2555" d="M85.824,383.031c-2.733-4.76-7.658-9.22-13.259-9.851a.208.208,0,0,0-.09.39,75.592,75.592,0,0,1,12.854,9.851.345.345,0,0,0,.5-.39Z" transform="translate(-28.79 -28.872)" fill="#263238"/>
      <path id="Path_2556" data-name="Path 2556" d="M86.336,386.005c-2.748-4.745-7.673-9.22-13.274-9.836-.21,0-.24.285-.09.375A75.664,75.664,0,0,1,85.8,386.426a.345.345,0,0,0,.541-.42Z" transform="translate(-28.535 -27.372)" fill="#263238"/>
      <path id="Path_2557" data-name="Path 2557" d="M86.836,389c-2.748-4.76-7.673-9.22-13.274-9.851-.21,0-.24.285-.09.39a74.993,74.993,0,0,1,12.854,9.9.345.345,0,0,0,.511-.435Z" transform="translate(-28.285 -25.877)" fill="#263238"/>
      <path id="Path_2558" data-name="Path 2558" d="M87.336,391.976c-2.748-4.745-7.673-9.22-13.274-9.836-.21,0-.24.285-.09.375a75.878,75.878,0,0,1,12.839,9.926.351.351,0,1,0,.526-.465Z" transform="translate(-28.034 -24.378)" fill="#263238"/>
      <path id="Path_2559" data-name="Path 2559" d="M98.912,381.506c.826-3.5-2.733-5.646-5.631-6.127a28.891,28.891,0,0,0-14.791,1.742.15.15,0,0,0,0,.225.676.676,0,0,0,0,1.081c4.159,2.313,8.3,5.286,13.049,6.247C94.212,385.245,98.056,384.824,98.912,381.506ZM85.4,380.635c-2.072-1.081-4.069-2.267-6.172-3.273,2.883-.33,5.736-.781,8.649-.826a30.193,30.193,0,0,1,4.2.165c2.147.27,8.649,3,3.529,6.187C92.816,384.614,87.875,381.926,85.4,380.635Z" transform="translate(-25.855 -27.918)" fill="#263238"/>
      <path id="Path_2560" data-name="Path 2560" d="M73.31,371.548c1.5,4.61,4.85,8.424,7.583,12.313a.676.676,0,0,0,1.081-.075.135.135,0,0,0,.15-.075,28.741,28.741,0,0,0,.18-14.881c-.781-2.838-3.289-6.157-6.682-4.955S72.454,368.86,73.31,371.548Zm1.306-4.355c2.568-5.421,6.006.751,6.532,2.868a32.269,32.269,0,0,1,.6,4.159,83.925,83.925,0,0,1,.09,8.694c-1.231-2-2.613-3.859-3.9-5.811C76.419,374.806,73.22,370.2,74.617,367.193Z" transform="translate(-28.589 -33.667)" fill="#263238"/>
      <path id="Path_2561" data-name="Path 2561" d="M235.249,232.16s-3.589,21.4-17.344,32.435c0,0-32.27,97.86-39.507,108.341-12.013,17.359-71.747,63.353-71.747,63.353L68.06,391.541s57.932-41.159,62.467-47.421c3-4.159,25.617-67.092,25.212-69.269-4.685-25.948,7.028-42.751,7.028-42.751Z" transform="translate(-30.952 -99.639)" fill="#455a64"/>
      <path id="Path_2562" data-name="Path 2562" d="M163.231,234.7a62.107,62.107,0,0,0-5.421,16.322,52.555,52.555,0,0,0-.766,8.664c0,3.123.33,6.232.435,9.34a33.456,33.456,0,0,1-.961,9.46c-.736,3-1.667,6.006-2.553,8.92q-2.748,9.01-5.826,18.019-6.127,17.884-13.514,35.273a26.714,26.714,0,0,1-4.31,7.508,46.1,46.1,0,0,1-7,5.766l-15.587,11.683-31.354,23.53v.075c-.345.255,0,.841.36.586C87.249,382,93.871,377,104.383,369.142l15.9-11.878c2.508-1.877,5.06-3.709,7.508-5.646a20.752,20.752,0,0,0,5.361-6.007,70.067,70.067,0,0,0,3.619-7.944c1.231-3,2.448-5.9,3.619-8.859Q143.86,320.115,147,311.3T153,293.281c.946-3,1.877-6.1,2.778-9.145a68.288,68.288,0,0,0,2.222-8.9c.931-6.172-.435-12.4-.135-18.6a56.206,56.206,0,0,1,3.6-17.539,45.434,45.434,0,0,1,1.922-4.28A.1.1,0,1,0,163.231,234.7Z" transform="translate(-26.851 -98.368)" fill="#263238"/>
      <path id="Path_2563" data-name="Path 2563" d="M154.253,235.235a19.521,19.521,0,0,1-6.667,10.511,24.026,24.026,0,0,1-12.749,5.03c-.781.105-.8,1.291,0,1.261,9.505-.375,18.83-6.892,19.776-16.818C154.659,234.979,154.3,234.979,154.253,235.235Z" transform="translate(2.248 -98.164)" fill="#263238"/>
      <path id="Path_2564" data-name="Path 2564" d="M179.983,249.151a53.038,53.038,0,0,0-9.58,5.661c-3.168,2.177-6.082,4.67-9.13,7a.12.12,0,0,0,.135.2c3.213-2.042,6.577-3.844,9.76-6.006a63.609,63.609,0,0,0,9.01-6.637.165.165,0,0,0-.2-.21Z" transform="translate(15.786 -91.088)" fill="#263238"/>
      <path id="Path_2565" data-name="Path 2565" d="M177.78,235.927c-.405,2.192-.946,4.37-1.411,6.562s-.781,4.144-1.321,6.172a10.617,10.617,0,0,1-2.868,5.181c-.811.751-1.7,1.411-2.553,2.087-.465.375-.961.736-1.5,1.111a4.6,4.6,0,0,1,.165-.886c.135-.841.285-1.682.42-2.508.315-1.862.616-3.709.886-5.571.571-3.649,1.081-7.343,1.847-10.962,0-.135-.2-.2-.24,0-.9,3.574-1.907,7.118-2.7,10.737-.39,1.772-1.772,10.511-1.832,11.142s-.12,1.276-.135,1.922a7.087,7.087,0,0,0,0,1.952c0,.165.225.135.285,0h0a8.08,8.08,0,0,0,.556-1.892c.165-.631.3-1.261.42-1.892a1.685,1.685,0,0,1,.105-.706c.856-.51,1.652-1.216,2.463-1.787s1.757-1.246,2.568-1.937a9.821,9.821,0,0,0,3.153-4.91,35.7,35.7,0,0,0,1.021-6.292c.285-2.478.48-4.985.826-7.508a.12.12,0,0,0-.15-.015Z" transform="translate(18.409 -97.73)" fill="#263238"/>
      <path id="Path_2566" data-name="Path 2566" d="M108.867,375.5a43.25,43.25,0,0,0-3-3.709c-1.021-1.216-2.252-2.688-3.349-4.054-2.117-2.643-4.265-5.241-6.442-7.838-4.295-5.211-8.8-10.391-13.469-15.346-1.276-1.382-2.553-2.748-3.844-4.114s-2.808-2.853-4.114-4.37c-.09-.105-.225,0-.135.135,2.267,2.568,4.31,5.406,6.457,8.064s4.295,5.226,6.487,7.808c4.385,5.211,8.92,10.331,13.514,15.3,1.291,1.366,2.538,2.763,3.814,4.144.676.736,1.366,1.5,2.057,2.177s1.141,1.366,1.817,1.967a.134.134,0,1,0,.21-.165Z" transform="translate(-27.731 -47.511)" fill="#263238"/>
      <path id="Path_2567" data-name="Path 2567" d="M188.85,244.109a54.477,54.477,0,0,1-11.713,3.829c7.793-7.959,12.133-29.206,10.721-26.368-6.742,13.514-19.626,27.029-23.245,27.029h0a40.724,40.724,0,0,1-23.29-11.292h0c9.7-8.784,14.671-30.242,13.86-29.056-8.649,12.659-21.443,18.154-23.3,17.674h0c-5.286-8.319-7.328-15.827-6.187-16.262,8.379-3.108,17.6-14.19,26.383-26.143h0c8.679-11.773,14.491-23.56,25.047-33.381,9.64-9.01,24.161-7.583,30.753-.15C225.129,169.434,194.151,241.661,188.85,244.109Z" transform="translate(-2.197 -143.888)" fill="#263238"/>
      <path id="Path_2568" data-name="Path 2568" d="M190.379,145.4c-6.112,0-12.163,4.069-16.383,8.214-5.616,5.526-10.076,12.238-15.091,18.29a148.66,148.66,0,0,1-34.252,30.813.259.259,0,0,0,.255.451c13.274-5.691,23.936-15.917,33.291-26.819,4.775-5.586,9.01-11.622,13.514-17.314a44.072,44.072,0,0,1,8.574-8.394,27.39,27.39,0,0,1,10.166-4.159.556.556,0,0,0-.075-1.081Z" transform="translate(-2.63 -143.129)" fill="#263238"/>
      <path id="Path_2569" data-name="Path 2569" d="M168.788,191.036c4.084,8.454,32.435,35.513,55.755,43.907,8.559,3.078,45.469-5.781,54.208-9.475,10.226-4.34,3.424-29.852-3.108-29.822-8.169,0-43.171,8.424-50.649,8.244-9.1-.225-30.212-14.13-48.157-21.113C167.587,179.188,165.635,184.5,168.788,191.036Z" transform="translate(18.871 -124.961)" fill="#f7a9a0"/>
      <path id="Path_2570" data-name="Path 2570" d="M246.762,225.466c3.289-1.2,17.884-8.049,21.518-10.857s13.514-11.652,11.652-14.656-4.97-.646-4.97-.646,3.574-4.4,1.411-7.253-6.847.976-6.847.976,3.334-4.775.991-7.508-6.442,1.937-6.442,1.937,3.258-4.22.39-5.616c-3.454-1.7-8.589,6.787-12.839,9.6-.961.631-20.467,11.5-20.467,11.5Z" transform="translate(50.861 -124.96)" fill="#f7a9a0"/>
      <path id="Path_2571" data-name="Path 2571" d="M257.666,185.333c-3.8,6.232-6.532,8.3-12.959,11.487-.12,0,0,.27.075.21,6.577-2.553,10.391-4.64,13.184-11.517C258.116,185.168,257.846,185.048,257.666,185.333Z" transform="translate(57.631 -123.178)" fill="#263238"/>
      <path id="Path_2572" data-name="Path 2572" d="M261.567,188.932c-4.5,6.127-7.508,8.394-13.935,12.223-.09,0,0,.225.09.18,6.667-3.243,10.421-5.421,14.115-12.133C262,188.9,261.718,188.646,261.567,188.932Z" transform="translate(59.105 -121.355)" fill="#263238"/>
      <path id="Path_2573" data-name="Path 2573" d="M265.036,193.588c-4.79,5.616-7.914,8.244-14.686,11.157a.135.135,0,0,0,.09.255A24.431,24.431,0,0,0,265.2,193.753C265.441,193.363,265.336,193.243,265.036,193.588Z" transform="translate(60.442 -119.059)" fill="#263238"/>
      <path id="Path_2574" data-name="Path 2574" d="M227.31,200.2a89.272,89.272,0,0,1,9.01-9.67c3.213-2.568,18.7-7.718,20-4.5,1.682,4.235-6.667,9.01-11.067,10.752,0,0,3.9,9.791-1.366,14.491S227.31,200.2,227.31,200.2Z" transform="translate(48.93 -123.266)" fill="#f7a9a0"/>
      <path id="Path_2575" data-name="Path 2575" d="M250.745,186.605c-1.261,4.97-7.178,6.937-11.307,9.01a.42.42,0,0,0-.135.676c1.351,4.22,2.042,10.511-.781,14.28-.09.105,0,.24.15.15,3.589-3.589,3.409-9.866,1.622-14.385,4.28-2.042,10.121-4.28,10.511-9.7C250.79,186.59,250.745,186.575,250.745,186.605Z" transform="translate(54.536 -122.468)" fill="#263238"/>
      <path id="Path_2576" data-name="Path 2576" d="M216.74,195.093s5.406-1.622,5.9-.12-2.267,3.664-2.267,3.664,3.769,0,4.25,2.388-3.469,3.9-3.469,3.9,4.084,1.171,4.22,2.868c.18,2.282-3.3,3.484-3.3,3.484s3.964.315,4.114,2.553-3.454,3.334-3.454,3.334,4.174.526,4.58,2.207c.466,2-3.634,3.784-3.634,3.784s3.949.646,4.189,2.373-3.664,3.153-5.706,3.168Z" transform="translate(43.628 -118.582)" fill="#fff"/>
      <path id="Path_2577" data-name="Path 2577" d="M247.842,235.581s-20.047,1.141-22.87.135a86.73,86.73,0,0,1-9.01-3.829c-22.209-10.827-39.808-29.807-45.183-36.759-5.661-7.343-5.676-16.187,3.859-13.424a20.812,20.812,0,0,1,2.267.811c11.773,4.88,44.192,20.842,47.556,21.1s18.3-2.688,18.3-2.688Z" transform="translate(18.637 -125.179)" fill="#15ace5"/>
      <path id="Path_2578" data-name="Path 2578" d="M215.943,231.937c-22.209-10.827-39.808-29.807-45.183-36.759-5.661-7.343-5.676-16.187,3.859-13.424Z" transform="translate(18.627 -125.154)" fill="#263238"/>
      <path id="Path_2579" data-name="Path 2579" d="M209.185,239.73l.39,34.417a113.366,113.366,0,0,1-12.583,0,295.514,295.514,0,0,1-33.035-3.424c-10.827-1.7-23.575-4.159-38.216-7.733,0,0,26.068-60.935,46.55-79.1q.706-.631,1.4-1.171l.27-.225c9.385-7.373,18.89-3.334,24.716,3.243,1.5,1.637,16.518,28.305,16.923,37.72C215.882,231.787,209.185,239.73,209.185,239.73Z" transform="translate(-2.019 -126.505)" fill="#15ace5"/>
      <path id="Path_2580" data-name="Path 2580" d="M184.225,272.773a295.52,295.52,0,0,1-33.035-3.424c1.5-16.052,6.637-70.576,8.289-86.838q.706-.631,1.4-1.171Z" transform="translate(10.747 -125.101)" fill="#263238"/>
      <path id="Path_2581" data-name="Path 2581" d="M154.2,194.039c2.823,19.656,9.956,59.4,21.023,69.074,14.536,12.719,48.172,15.016,58.142,15.737,4.34.315,8.109-28.41,4.88-31.744s-37.75-4.475-40.754-6.082-18.019-31.339-25.422-46.55C162.7,175.449,153.088,186.291,154.2,194.039Z" transform="translate(12.213 -123.835)" fill="#f7a9a0"/>
      <path id="Path_2582" data-name="Path 2582" d="M238.831,233.392c5.436.105,12.689-4.25,13.8-.36.991,3.469-4.325,6.006-4.325,6.006s6.907-.916,6.922,3.123-6.4,5.6-6.4,5.6,6.4-.5,6.127,3.529-6.157,5.841-6.157,5.841,1.832.826.36,3.574c-2.117,3.934-11.622,5.6-16.8,5.3S208.483,260.737,205.63,260l1.7-33.216s9.445-3.694,14.476-4.985,22.749-.946,22.96,3.454-12.313,3.949-15.392,4.5-3.484,1.366-1.907,2.207A66.583,66.583,0,0,0,238.831,233.392Z" transform="translate(38.055 -105.136)" fill="#f7a9a0"/>
      <path id="Path_2583" data-name="Path 2583" d="M240.42,233.055c-7.658,3-11.532,3-19.521,1.5-.15,0-.24.2,0,.24,7.643,2.207,12.493,2.913,19.716-1.336C240.931,233.205,240.781,232.98,240.42,233.055Z" transform="translate(45.64 -99.168)" fill="#263238"/>
      <path id="Path_2584" data-name="Path 2584" d="M241.6,238.738c-8.229,2.418-12.418,2.448-20.857,1.5a.105.105,0,0,0,0,.21c8.2,1.652,13.049,2.267,20.947-1.231C242.022,239.008,241.977,238.617,241.6,238.738Z" transform="translate(45.585 -96.321)" fill="#263238"/>
      <path id="Path_2585" data-name="Path 2585" d="M241.325,245.08c-8.124,1.772-12.734,2-20.8,0a.157.157,0,1,0-.09.3,27.675,27.675,0,0,0,20.917,0C241.835,245.155,241.835,244.975,241.325,245.08Z" transform="translate(45.426 -93.144)" fill="#263238"/>
      <path id="Path_2586" data-name="Path 2586" d="M194.256,221.69s6.142.15,6.157,1.877-3.589,3-3.589,3,3.874,1.336,3.589,3.919-4.91,2.868-4.91,2.868,3.844,2.6,3.409,4.415c-.571,2.418-4.595,2.493-4.595,2.493s4.009,1.667,3.394,4.039-4.7,2.282-4.7,2.282,4.144,1.952,3.994,3.829c-.18,2.222-5.03,2.7-5.03,2.7s3.859,2,3.529,3.874-4.865,2.027-6.982,1.351Z" transform="translate(29.472 -104.861)" fill="#fff"/>
      <path id="Path_2587" data-name="Path 2587" d="M214.356,241.2l-6.772,37.54s-28.35-7.253-34.372-16.247c-7.508-11.232-17.284-46.55-19.416-65.365s11.142-19.341,18.875-3.949c7.508,14.941,23.455,44.613,24.7,45.889C198.995,240.775,214.356,241.2,214.356,241.2Z" transform="translate(11.94 -124.637)" fill="#15ace5"/>
      <path id="Path_2588" data-name="Path 2588" d="M187.289,227.9c-.766-1.5-2.282-4.67-3-6.006-1.5-2.763-3.078-5.526-4.655-8.274s-3.123-5.511-4.745-8.229c-.285-.451-.541-.931-.826-1.4,0-.33-1.2-4.144-1.382-5.105,0-.15-.27-.105-.225,0a20.51,20.51,0,0,1,.526,2.868.893.893,0,0,0,.12.541c-1.036-1.787-2.072-3.589-3.123-5.316-.075-.135-.285,0-.21.105,2.087,3.754,3.228,6.157,4.805,9.22s3.168,5.9,4.775,8.829,3.289,5.841,4.94,8.739a58.552,58.552,0,0,0,3.138,5.06C188.145,229.954,188.145,229.384,187.289,227.9Z" transform="translate(20.057 -117.285)" fill="#263238"/>
      <path id="Path_2589" data-name="Path 2589" d="M163.193,187.884c.33,1.291,6.667,9.64,12.614,9.28,1.937-.135,1.727-10.737,1.727-10.737l.165-.781,2.282-11.007-13.019-8.064-1.877-1.066s-.42,3-.916,6.862v.541a4.683,4.683,0,0,0-.09.616c-.09.571-.165,1.156-.24,1.727s-.105.871-.135,1.336-.09.916-.15,1.381a71.115,71.115,0,0,0-.36,9.911Z" transform="translate(16.748 -133.042)" fill="#f7a9a0"/>
      <path id="Path_2590" data-name="Path 2590" d="M163.83,172.372a22.524,22.524,0,0,0,13.515,13.274l2.282-11.007-13.019-8.064-1.877-1.066S164.326,168.573,163.83,172.372Z" transform="translate(17.087 -133.042)" fill="#263238"/>
      <path id="Path_2591" data-name="Path 2591" d="M165.91,165.825s-4.5-6.006-7.193-4.5.661,10.511,3.964,11.592a3.334,3.334,0,0,0,4.43-1.877Z" transform="translate(14.031 -135.264)" fill="#f7a9a0"/>
      <path id="Path_2592" data-name="Path 2592" d="M159.1,162.93s-.075,0,0,.09a8.439,8.439,0,0,1,4.5,5.181,1.862,1.862,0,0,0-2.763-.45s0,.15,0,.135a2.042,2.042,0,0,1,2.267.661,10.647,10.647,0,0,1,1.126,1.8c.105.21.48.09.39-.15h0C164.612,167.225,162.255,163.155,159.1,162.93Z" transform="translate(14.699 -134.336)" fill="#263238"/>
      <path id="Path_2593" data-name="Path 2593" d="M196.055,167.311c2.1,19.611-9.415,23.095-13.65,23.53-3.829.42-16.953,1.306-21.023-18.019s4.34-26.473,13.064-27.87S193.953,147.7,196.055,167.311Z" transform="translate(15.33 -143.477)" fill="#f7a9a0"/>
      <path id="Path_2594" data-name="Path 2594" d="M182.441,158.707a13.353,13.353,0,0,1-1.351-.225,2.207,2.207,0,0,1-1.321-.5.706.706,0,0,1,0-.856,1.727,1.727,0,0,1,1.7-.481,2.583,2.583,0,0,1,1.637.856.736.736,0,0,1-.661,1.2Z" transform="translate(25.01 -137.515)" fill="#263238"/>
      <path id="Path_2595" data-name="Path 2595" d="M172.669,159.394c.465-.075.871-.225,1.321-.33a2.252,2.252,0,0,0,1.291-.6.706.706,0,0,0,0-.856,1.742,1.742,0,0,0-1.727-.345,2.6,2.6,0,0,0-1.5.961.751.751,0,0,0,.616,1.171Z" transform="translate(21.148 -137.227)" fill="#263238"/>
      <path id="Path_2596" data-name="Path 2596" d="M174.706,161.89s-.105.075-.09.135c.12,1.336,0,2.883-1.156,3.409v.075C174.947,165.209,175.037,163.136,174.706,161.89Z" transform="translate(21.918 -134.857)" fill="#263238"/>
      <path id="Path_2597" data-name="Path 2597" d="M173.974,161c-2.162,0-2.072,4.295-.075,4.325S175.791,161,173.974,161Z" transform="translate(21.374 -135.304)" fill="#263238"/>
      <path id="Path_2598" data-name="Path 2598" d="M173.723,161.19c-.36.255-.721.706-1.186.751s-.931-.375-1.291-.811h-.075c0,.826.345,1.667,1.246,1.772s1.381-.646,1.5-1.5C174.023,161.325,173.918,161.1,173.723,161.19Z" transform="translate(20.769 -135.239)" fill="#263238"/>
      <path id="Path_2599" data-name="Path 2599" d="M179.9,161.37a.1.1,0,0,1,.105.12c0,1.336.18,2.883,1.4,3.3h0C179.919,164.689,179.679,162.631,179.9,161.37Z" transform="translate(25.114 -135.118)" fill="#263238"/>
      <path id="Path_2600" data-name="Path 2600" d="M181.084,160.422c2.162-.18,2.388,4.144.39,4.325S179.282,160.587,181.084,160.422Z" transform="translate(25.121 -135.597)" fill="#263238"/>
      <path id="Path_2601" data-name="Path 2601" d="M181.346,160.69c.36.21.721.616,1.126.616s.8-.481,1.081-.946h.075c0,.826-.165,1.712-.961,1.907s-1.276-.5-1.5-1.321C181.106,160.84,181.211,160.6,181.346,160.69Z" transform="translate(25.775 -135.625)" fill="#263238"/>
      <path id="Path_2602" data-name="Path 2602" d="M174.926,168.748c.315.33.616.766,1.111.826a3.693,3.693,0,0,0,1.5-.3s.09,0,0,0a1.817,1.817,0,0,1-1.727.691,1.5,1.5,0,0,1-1.021-1.216C174.775,168.733,174.881,168.7,174.926,168.748Z" transform="translate(22.585 -131.429)" fill="#263238"/>
      <path id="Path_2603" data-name="Path 2603" d="M180.075,169.7a30.183,30.183,0,0,1,.375,3c0,.09-.225.135-.556.165h0a4.5,4.5,0,0,1-4.5-1.5c0-.09,0-.2.15-.135a6.727,6.727,0,0,0,4.129,1.036c0-.255-.691-3.394-.541-3.409a8.064,8.064,0,0,1,2.162.42c-.6-4.189-1.862-8.229-2.388-12.4a.135.135,0,0,1,.255,0,68.847,68.847,0,0,1,3.123,13.229C182.418,170.5,180.45,169.854,180.075,169.7Z" transform="translate(22.886 -137.416)" fill="#263238"/>
      <path id="Path_2604" data-name="Path 2604" d="M163.251,174.356c3.243,0,3.469-6.832,3.469-6.832s6.547-.481,7.989-10.076a14.6,14.6,0,0,1-2.3,8.019S183.868,163.349,188,153.3c0,0-1.5,5.075-3.258,6.967a13.65,13.65,0,0,0,6.817-5.841s2.448,5.421,4.129,6.847c0,0-2.042-20.2-20.617-16.593,0,0-11.668,1.682-15.166,11.292S163.251,174.356,163.251,174.356Z" transform="translate(14.618 -143.704)" fill="#263238"/>
      <path id="Path_2605" data-name="Path 2605" d="M167.812,178.581c-2.4.225-6.4,1.1-11.412,5.811,0,0,12.3,7.974,22.885,6.907,3.784-.375,4.5-6.742,4.5-6.742A20.2,20.2,0,0,0,167.812,178.581Z" transform="translate(13.36 -126.516)" fill="#f7a9a0"/>
    </g>
    <g id="freepik--character-2--inject-38" transform="translate(369.669 225.733)">
      <path id="Path_2606" data-name="Path 2606" d="M326.205,463.732c2.853.961,84.526,1.246,87.649-.706,1.186-.736,1.922-12.629,2.4-27.029.105-3.108.2-6.322.255-9.58l6.622-43.547-54.569-.36-5.151,43.547.21,9.6s-31.324,13.875-34.537,16.383S323.352,462.831,326.205,463.732Z" transform="translate(-222.129 -50.06)" fill="#dd6a57"/>
      <path id="Path_2607" data-name="Path 2607" d="M326.208,449.18c2.853.961,84.526,1.246,87.649-.706,1.5-.9,2.222-18.275,2.658-36.609l-53.127-.345.21,9.6S332.274,434.99,329.061,437.5,323.355,448.279,326.208,449.18Z" transform="translate(-222.131 -35.508)" fill="#fff"/>
      <path id="Path_2608" data-name="Path 2608" d="M326.208,445.975c2.853.961,84.526,1.246,87.649-.706,1.186-.736,1.922-12.629,2.4-27.029l-52.661-.33s-31.324,13.875-34.537,16.383S323.355,445.074,326.208,445.975Z" transform="translate(-222.131 -32.303)" fill="#15ace5"/>
      <path id="Path_2609" data-name="Path 2609" d="M326.655,434.466c13.68-.285,68.939-.15,82.5.6.105,0,.105.09,0,.09-13.514.586-68.819,0-82.5-.465C326.355,434.691,326.355,434.481,326.655,434.466Z" transform="translate(-221.392 -24.068)" fill="#263238"/>
      <path id="Path_2610" data-name="Path 2610" d="M331.246,426.881a11.037,11.037,0,0,1,8.184,3.364,10.662,10.662,0,0,1,3,7.328c0,.075-.15.075-.165,0a12.719,12.719,0,0,0-11.052-10.511.091.091,0,1,1,.03-.18Z" transform="translate(-219.03 -27.805)" fill="#263238"/>
      <path id="Path_2611" data-name="Path 2611" d="M347.247,418.8c5.481,0,11.833,1.907,15.211,6.4.135.165-.12.36-.27.27a76.37,76.37,0,0,0-15.016-6.006.345.345,0,0,1,.075-.661Z" transform="translate(-211.096 -31.857)" fill="#263238"/>
      <path id="Path_2612" data-name="Path 2612" d="M344.427,419.89c5.481,0,11.833,1.892,15.211,6.4.135.165-.12.36-.27.27a76.132,76.132,0,0,0-15.016-6.006.345.345,0,0,1,.075-.661Z" transform="translate(-212.51 -31.31)" fill="#263238"/>
      <path id="Path_2613" data-name="Path 2613" d="M341.611,421c5.481,0,11.818,1.892,15.211,6.4.135.165-.12.345-.285.27a75.638,75.638,0,0,0-15.016-6.007.345.345,0,0,1,.09-.661Z" transform="translate(-213.929 -30.753)" fill="#263238"/>
      <path id="Path_2614" data-name="Path 2614" d="M338.791,422.07c5.481,0,11.818,1.892,15.211,6.382.135.18-.12.36-.285.285a74.746,74.746,0,0,0-15.016-6.006.345.345,0,0,1,.09-.661Z" transform="translate(-215.343 -30.216)" fill="#263238"/>
      <path id="Path_2615" data-name="Path 2615" d="M380.789,426.16c6.142,0,6.1,9.58-.075,9.55S374.617,426.115,380.789,426.16Z" transform="translate(-196.466 -28.165)" fill="#263238"/>
      <path id="Path_2616" data-name="Path 2616" d="M344.163,417.383c3,3.829,7.508,6.247,11.337,9.01a.676.676,0,0,0,.991-.435.135.135,0,0,0,.165-.15,28.846,28.846,0,0,0-4.925-14.04c-1.7-2.388-5.2-4.655-7.974-2.357S342.452,415.145,344.163,417.383Zm-.24-4.5c.571-6.006,5.931-1.366,7.118.45a31.265,31.265,0,0,1,2,3.694,76.769,76.769,0,0,1,3,8.139c-1.832-1.5-3.769-2.733-5.646-4.114-2.192-1.667-6.772-4.925-6.472-8.2Z" transform="translate(-213.478 -37.047)" fill="#263238"/>
      <path id="Path_2617" data-name="Path 2617" d="M371.755,419.021c-.42-3.589-4.5-4.37-7.388-3.829a28.7,28.7,0,0,0-13.334,6.7.135.135,0,0,0,0,.225.676.676,0,0,0,.406,1.006c4.685.736,9.6,2.117,14.37,1.4C368.677,424.1,372.146,422.4,371.755,419.021Zm-12.914,3.769c-2.312-.315-4.595-.736-6.922-.961,2.6-1.291,5.12-2.688,7.853-3.724a28.808,28.808,0,0,1,3.994-1.291c2.117-.5,9.16-.09,5.436,4.595-2.042,2.583-7.658,1.757-10.361,1.381Z" transform="translate(-209.101 -33.744)" fill="#263238"/>
      <path id="Path_2618" data-name="Path 2618" d="M493.048,248.64s-63.4,107.876-65.095,115.444c-2.613,11.638-16.443,126.556-16.443,126.556l-65.981-1.2s11.382-101.329,22.149-134.709c7.763-24.026,63.713-103.791,63.713-103.791Z" transform="translate(-211.812 -117.211)" fill="#15ace5"/>
      <path id="Path_2619" data-name="Path 2619" d="M349.59,402.308c9.475,0,43.051-.45,55.665.721a.09.09,0,1,1,0,.18c-4.355.631-46.2-.345-55.665-.646a.135.135,0,1,1,0-.255Z" transform="translate(-209.865 -40.172)" fill="#263238"/>
      <path id="Path_2620" data-name="Path 2620" d="M462.227,255.247c-4.159,6.517-8.544,12.9-12.794,19.371s-8.484,12.929-12.659,19.431Q424.222,313.57,412.3,333.436a119.178,119.178,0,0,0-9.881,19.221,116.508,116.508,0,0,0-5.616,20.707c-1.291,7.073-2.147,14.22-3,21.368q-1.276,11.427-2.553,22.839l-5.211,46.715c-.225,1.907-.435,3.814-.616,5.736a.257.257,0,0,0,.511,0c1.937-15.467,3.544-30.993,5.316-46.55q1.306-11.577,2.628-23.14c.811-7.178,1.592-14.355,2.7-21.488a142.806,142.806,0,0,1,4.655-20.782,99.5,99.5,0,0,1,9.115-20.182c7.643-13.184,15.737-26.143,23.831-39.042s16.4-26.038,24.927-38.847c1.066-1.592,2.117-3.168,3.214-4.715C462.513,255.247,462.3,255.127,462.227,255.247Z" transform="translate(-191.802 -113.923)" fill="#263238"/>
      <path id="Path_2621" data-name="Path 2621" d="M407.16,475.581c3,.2,84.09-21.173,86.568-23.861a1.2,1.2,0,0,0,.2-.541c.315-2.658-3.829-12.614-6.742-25.347-.18-.811-1.7-4.685-3.844-9.9-5.871-14.355-16.368-38.967-16.368-38.967l-52.962,13.56,19.521,39.162,2.643,9.22s-26.669,21.4-29.191,24.641S404.172,475.371,407.16,475.581Z" transform="translate(-181.979 -52.839)" fill="#dd6a57"/>
      <path id="Path_2622" data-name="Path 2622" d="M407.16,462.564c3,.2,84.09-21.173,86.568-23.861a1.2,1.2,0,0,0,.2-.541c.315-2.658-3.829-12.614-6.742-25.347-.18-.811-1.7-4.685-3.844-9.9l-49.808,13.755,2.643,9.22s-26.669,21.4-29.191,24.641S404.172,462.354,407.16,462.564Z" transform="translate(-181.979 -39.822)" fill="#fff"/>
      <path id="Path_2623" data-name="Path 2623" d="M407.175,459.243c3,.21,84.09-21.158,86.553-23.846.961-1.006-1.141-12.013-6.532-25.888l-51.055,13.079s-26.639,21.4-29.161,24.641S404.172,459.048,407.175,459.243Z" transform="translate(-181.978 -36.517)" fill="#15ace5"/>
      <path id="Path_2624" data-name="Path 2624" d="M406.725,447.152c13.154-3.754,66.626-17.7,79.931-20.422.105,0,.12,0,0,.09-12.959,4.009-66.536,17.524-79.9,20.557C406.485,447.437,406.44,447.242,406.725,447.152Z" transform="translate(-181.213 -27.879)" fill="#263238"/>
      <path id="Path_2625" data-name="Path 2625" d="M409.241,431.991a11.067,11.067,0,0,1,8.769,1.186,10.631,10.631,0,0,1,4.79,6.307c0,.075-.12.12-.165,0a12.7,12.7,0,0,0-13.349-7.373C409.166,432.216,409.136,432.036,409.241,431.991Z" transform="translate(-179.885 -25.451)" fill="#263238"/>
      <path id="Path_2626" data-name="Path 2626" d="M422.652,420.285c5.286-1.5,11.923-1.186,16.353,2.3.165.135,0,.375-.21.345a74.983,74.983,0,0,0-16.052-1.967.345.345,0,0,1-.09-.676Z" transform="translate(-173.249 -31.54)" fill="#263238"/>
      <path id="Path_2627" data-name="Path 2627" d="M420.2,422.043c5.286-1.5,11.923-1.171,16.353,2.3.165.135,0,.39-.21.345a74.988,74.988,0,0,0-16.052-1.967.345.345,0,0,1-.09-.676Z" transform="translate(-174.478 -30.655)" fill="#263238"/>
      <path id="Path_2628" data-name="Path 2628" d="M417.753,423.813c5.286-1.5,11.923-1.171,16.353,2.313.165.12,0,.375-.21.33a75.079,75.079,0,0,0-16.067-1.967.345.345,0,0,1-.075-.676Z" transform="translate(-175.708 -29.767)" fill="#263238"/>
      <path id="Path_2629" data-name="Path 2629" d="M415.3,425.583c5.286-1.5,11.923-1.171,16.338,2.313.18.135,0,.375-.2.33a75.08,75.08,0,0,0-16.067-1.967.345.345,0,0,1-.075-.676Z" transform="translate(-176.937 -28.88)" fill="#263238"/>
      <path id="Path_2630" data-name="Path 2630" d="M456.627,418.985c6.006-1.5,8.334,7.733,2.372,9.265S450.651,420.592,456.627,418.985Z" transform="translate(-157.822 -31.846)" fill="#263238"/>
      <path id="Path_2631" data-name="Path 2631" d="M419.034,419.8c3.814,3,8.784,4.129,13.229,5.766a.676.676,0,0,0,.841-.676.15.15,0,0,0,.135-.2A28.846,28.846,0,0,0,424.9,412.38c-2.267-1.877-6.217-3.183-8.319-.255S416.8,418.071,419.034,419.8Zm-1.4-4.34c-.961-5.9,5.391-2.823,7-1.367a30.935,30.935,0,0,1,2.868,3.078,86.192,86.192,0,0,1,5.03,7.073c-2.147-.931-4.34-1.682-6.517-2.538-2.583-1.021-7.839-2.988-8.394-6.247Z" transform="translate(-176.584 -36.068)" fill="#263238"/>
      <path id="Path_2632" data-name="Path 2632" d="M445.807,415.308c-1.321-3.349-5.466-3.078-8.109-1.817a28.725,28.725,0,0,0-11.142,9.866.135.135,0,0,0,0,.21.676.676,0,0,0,.646.871c4.715-.481,9.821-.405,14.25-2.313C444.126,421.014,447.054,418.491,445.807,415.308ZM434.29,422.2c-2.328.3-4.64.466-6.937.841,2.177-1.907,4.265-3.9,6.622-5.6a31.526,31.526,0,0,1,3.544-2.267c1.922-1.006,8.844-2.418,6.442,3C442.624,421.3,437.038,421.915,434.29,422.2Z" transform="translate(-171.193 -34.957)" fill="#263238"/>
      <path id="Path_2633" data-name="Path 2633" d="M439.652,496.557,498.921,481s-56.746-111.69-56.28-119.408c.405-6.832,41.565-66.777,43.847-77.994,3.724-18.365-5.226-34.762-13.89-44.928l-61.311,17.284a51.055,51.055,0,0,0,13.845,17.3s-38.531,64.344-39.507,85.5S439.652,496.557,439.652,496.557Z" transform="translate(-191.706 -122.212)" fill="#15ace5"/>
      <path id="Path_2634" data-name="Path 2634" d="M420.872,407.514c8.6-2.463,6.1-1.877,14.731-4.235,4.22-1.156,31.969-8.739,36.039-9.13.09,0,.12.135,0,.165-3.784,1.712-31.654,8.8-35.9,9.881-8.664,2.207-6.2,1.5-14.9,3.574C420.781,407.815,420.721,407.574,420.872,407.514Z" transform="translate(-174.067 -44.222)" fill="#263238"/>
      <path id="Path_2635" data-name="Path 2635" d="M405.81,260.064a109.615,109.615,0,0,1,17.028,8,.2.2,0,0,1-.165.345c-5.721-2.508-11.562-4.9-17.133-7.688a.36.36,0,0,1,.27-.661Z" transform="translate(-181.8 -111.486)" fill="#263238"/>
      <path id="Path_2636" data-name="Path 2636" d="M410.832,259.178a26.594,26.594,0,0,1,1.1,3.3,7.374,7.374,0,0,1,.436,2.718c0,.165-.27.18-.36,0a9.206,9.206,0,0,1-1.141-2.643c-.375-1.021-.781-2.042-1.111-3a.572.572,0,0,1,1.081-.375Z" transform="translate(-179.614 -112.118)" fill="#263238"/>
      <path id="Path_2637" data-name="Path 2637" d="M412.578,257.294c-.24-.931-.5-1.877-.751-2.808s-.616-1.937-.811-2.913c0-.165-.27-.09-.24,0,.24.946.36,1.937.526,2.9s.345,1.907.541,2.868a54.041,54.041,0,0,0,1.351,5.316,6.457,6.457,0,0,1-2.733-.841,5.091,5.091,0,0,1-1.667-2.613c-.375-1.066-.721-2.147-1.126-3.213a23.188,23.188,0,0,1-1.186-3.574c0-.165-.27-.09-.24,0a39.3,39.3,0,0,0,2.192,7.508c.42.961.736,1.937,1.682,2.418a8.183,8.183,0,0,0,3.289.646c.12,0,.315,0,.285-.18A56.011,56.011,0,0,0,412.578,257.294Z" transform="translate(-181.36 -115.789)" fill="#263238"/>
      <path id="Path_2638" data-name="Path 2638" d="M423.9,263.121c-2.328,4.22-5,8.259-7.508,12.373s-4.745,8.109-7.028,12.238q-6.877,12.478-12.7,25.527-2.883,6.442-5.436,13.019a97.871,97.871,0,0,0-4.5,13.514,36.744,36.744,0,0,0-.6,13.965,95.191,95.191,0,0,0,3.619,13.95,249.423,249.423,0,0,0,11.577,30.753c.15.33.706.075.586-.255-3.244-9.145-6.607-18.245-9.505-27.494-2.823-9.01-6.172-18.275-4.61-27.795a71.473,71.473,0,0,1,3.889-13.379c1.652-4.5,3.439-8.844,5.316-13.184,3.724-8.574,7.913-16.893,12.178-25.2,2.388-4.655,4.91-9.235,7.328-13.875s4.805-9.445,7.508-13.95C424.181,263.106,423.971,262.971,423.9,263.121Z" transform="translate(-191.656 -109.979)" fill="#263238"/>
      <path id="Path_2639" data-name="Path 2639" d="M448.379,262.183c-.961-.5-2.433,0-3.484,0a30.484,30.484,0,0,1-4.054-.12,32.261,32.261,0,0,1-3.949-.631,8.724,8.724,0,0,1-3.664-1.5,19.176,19.176,0,0,1-4.175-5.766,29.643,29.643,0,0,1-2.928-7.1c0-.15-.24,0-.225.075.255,1.4.39,2.808.766,4.189a24.178,24.178,0,0,0,1.412,3.814,15.376,15.376,0,0,0,4.28,6.337c2.177,1.637,5.2,1.937,7.823,2.132a30.9,30.9,0,0,0,4.5,0c1.1-.09,2.913,0,3.724-.886a.33.33,0,0,0-.03-.541Z" transform="translate(-171.497 -118.035)" fill="#263238"/>
      <path id="Path_2640" data-name="Path 2640" d="M467.346,466.62q-11.187-22.794-21.863-45.874t-20.887-46.5a59.8,59.8,0,0,1-4.43-11.472c-.931-4.355.42-8.274,2.252-12.178a209.748,209.748,0,0,1,11.487-20.752c4.175-6.757,8.574-13.349,12.914-19.986a207.6,207.6,0,0,0,12.388-20.182,37.09,37.09,0,0,0,4.28-21.458c-.961-7.508-4.2-14.521-7.673-21.128l-2.793-5.226c0-.135-.27,0-.2.12,3.874,6.937,7.6,14.22,9.4,22a35.618,35.618,0,0,1,.856,11.758,37,37,0,0,1-3.334,11.487c-3.214,7.088-7.7,13.6-12.013,20.107s-8.754,13.229-12.974,19.941a225.58,225.58,0,0,0-11.8,20.827,31.31,31.31,0,0,0-3.664,10.106c-.42,3.919,1.006,7.688,2.523,11.232,6.592,15.452,13.515,30.768,20.572,46.024s14.355,30.513,21.773,45.664l2.823,5.721C467.121,467.085,467.467,466.86,467.346,466.62Z" transform="translate(-174.848 -120.641)" fill="#263238"/>
      <path id="Path_2641" data-name="Path 2641" d="M450.646,212.535c-5.406,7.688-35.393,32.87-62.107,34.342-9.085.511-51.37-26.2-59.4-31.264-9.4-5.916,9.31-30.633,15.767-29.552,8.049,1.351,41.144,29.612,46.805,29.762,9.1.24,33.486-8.739,52.316-12.719C453.724,201,454.866,206.619,450.646,212.535Z" transform="translate(-221.335 -148.618)" fill="#dd6a57"/>
      <path id="Path_2642" data-name="Path 2642" d="M423.33,209.958c-6.637,9.956-28.861,26.278-28.861,26.278l-3-6.787L381.09,206.924s20.407-6.592,33.846-9.55a29.822,29.822,0,0,1,4.82-.721C428.271,196.1,429.006,201.4,423.33,209.958Z" transform="translate(-193.974 -143.308)" fill="#ebebeb"/>
      <path id="Path_2643" data-name="Path 2643" d="M392.475,200.91a10.016,10.016,0,0,1,.375,2.883,9.52,9.52,0,0,1-.375,2.883,11.262,11.262,0,0,1,0-5.766Z" transform="translate(-188.452 -141.153)" fill="#fff"/>
      <path id="Path_2644" data-name="Path 2644" d="M392.441,208.8a11.2,11.2,0,0,1-5.751,0A11.2,11.2,0,0,1,392.441,208.8Z" transform="translate(-191.165 -137.386)" fill="#fff"/>
      <path id="Path_2645" data-name="Path 2645" d="M411.846,198.065a10.014,10.014,0,0,1-2.883.375,9.519,9.519,0,0,1-2.883-.375,11.262,11.262,0,0,1,5.766,0Z" transform="translate(-181.439 -142.768)" fill="#fff"/>
      <path id="Path_2646" data-name="Path 2646" d="M399.34,205.73a10.766,10.766,0,0,1,2.3,1.772,9.879,9.879,0,0,1,1.772,2.3,11.323,11.323,0,0,1-4.069-4.069Z" transform="translate(-184.82 -138.735)" fill="#fff"/>
      <path id="Path_2647" data-name="Path 2647" d="M392,214.87a10.769,10.769,0,0,1,2.3,1.772,9.881,9.881,0,0,1,1.772,2.3,10.24,10.24,0,0,1-2.3-1.757A10.391,10.391,0,0,1,392,214.87Z" transform="translate(-188.502 -134.15)" fill="#fff"/>
      <path id="Path_2648" data-name="Path 2648" d="M419.864,209.971C413.227,219.926,391,236.249,391,236.249l-3-6.787c8.244-9.7,21.023-24.386,28.29-32.84C424.8,196.111,425.54,201.411,419.864,209.971Z" transform="translate(-190.508 -143.321)" fill="#c7c7c7"/>
      <path id="Path_2649" data-name="Path 2649" d="M396.543,228.206c-1.712-4.144-9.385-20.887-11.292-24.386-.135-.255-.315-.225-.21,0a250.38,250.38,0,0,0,11.337,24.386C396.438,228.3,396.588,228.206,396.543,228.206Z" transform="translate(-192.008 -139.783)" fill="#263238"/>
      <path id="Path_2650" data-name="Path 2650" d="M397.656,214.462a63.073,63.073,0,0,0-.3,6.337v-.24c-.255-1.141-.481-2.312-.826-3.439h-.12a18.665,18.665,0,0,0,.586,3.514c.135.541.27,1.081.42,1.622a22.2,22.2,0,0,0,.12,2.838c.12,1.787.736,9.37.931,10.676a.2.2,0,1,0,.39,0c.09-1.366-.21-9.235-.24-11.007a98.109,98.109,0,0,0-.766-10.286C397.776,214.357,397.656,214.387,397.656,214.462Z" transform="translate(-186.29 -134.388)" fill="#263238"/>
      <path id="Path_2651" data-name="Path 2651" d="M402.2,281.476c3,2.117,6.8,5.271,26.083,4.189,1.2-.075,2.418-.2,3.649-.375,18.335-2.838,42.33-20.6,43.712-21.893,0,0-21.623-49.208-55.394-68.428-4.174-2.373-12.013,0-16.608,3.664-1.652,1.306-6.352,12.013-6.4,21.158S399.177,279.374,402.2,281.476Z" transform="translate(-185.873 -144.611)" fill="#ebebeb"/>
      <path id="Path_2652" data-name="Path 2652" d="M407.956,212.05a10.016,10.016,0,0,1,.375,2.883,9.85,9.85,0,0,1-.375,2.868,10.376,10.376,0,0,1-.375-2.868,10.509,10.509,0,0,1,.375-2.883Z" transform="translate(-180.687 -135.565)" fill="#fff"/>
      <path id="Path_2653" data-name="Path 2653" d="M413.125,234.05a11.262,11.262,0,0,1,0,5.766,11.262,11.262,0,0,1,0-5.766Z" transform="translate(-178.093 -124.529)" fill="#fff"/>
      <path id="Path_2654" data-name="Path 2654" d="M429.125,220.44a11.262,11.262,0,0,1,0,5.766,11.262,11.262,0,0,1,0-5.766Z" transform="translate(-170.067 -131.356)" fill="#fff"/>
      <path id="Path_2655" data-name="Path 2655" d="M399.876,231.14a10.016,10.016,0,0,1,.375,2.883,9.852,9.852,0,0,1-.375,2.868,10.376,10.376,0,0,1-.375-2.868,10.512,10.512,0,0,1,.375-2.883Z" transform="translate(-184.74 -125.989)" fill="#fff"/>
      <path id="Path_2656" data-name="Path 2656" d="M421.781,216.576a10.014,10.014,0,0,1-2.883.375,9.912,9.912,0,0,1-2.868-.375,11.2,11.2,0,0,1,5.751,0Z" transform="translate(-176.448 -133.483)" fill="#fff"/>
      <path id="Path_2657" data-name="Path 2657" d="M435.371,233.605a11.2,11.2,0,0,1-5.751,0,11.2,11.2,0,0,1,5.751,0Z" transform="translate(-169.631 -124.941)" fill="#fff"/>
      <path id="Path_2658" data-name="Path 2658" d="M414.711,247.125a11.2,11.2,0,0,1-5.751,0A11.2,11.2,0,0,1,414.711,247.125Z" transform="translate(-179.994 -118.159)" fill="#fff"/>
      <path id="Path_2659" data-name="Path 2659" d="M438.771,244.516a11.2,11.2,0,0,1-5.751,0,10.016,10.016,0,0,1,2.883-.375,9.912,9.912,0,0,1,2.868.375Z" transform="translate(-167.926 -119.469)" fill="#fff"/>
      <path id="Path_2660" data-name="Path 2660" d="M411.846,198.065a10.014,10.014,0,0,1-2.883.375,9.519,9.519,0,0,1-2.883-.375,11.262,11.262,0,0,1,5.766,0Z" transform="translate(-181.439 -142.768)" fill="#fff"/>
      <path id="Path_2661" data-name="Path 2661" d="M416.59,200.43a11.322,11.322,0,0,1,4.069,4.069,9.567,9.567,0,0,1-2.3-1.772,9.879,9.879,0,0,1-1.772-2.3Z" transform="translate(-176.167 -141.394)" fill="#fff"/>
      <path id="Path_2662" data-name="Path 2662" d="M436.55,221.79a11.322,11.322,0,0,1,4.069,4.069,11.022,11.022,0,0,1-4.069-4.069Z" transform="translate(-166.155 -130.679)" fill="#fff"/>
      <path id="Path_2663" data-name="Path 2663" d="M404.63,224.08a11.322,11.322,0,0,1,4.069,4.069,9.565,9.565,0,0,1-2.3-1.772,9.88,9.88,0,0,1-1.772-2.3Z" transform="translate(-182.166 -129.53)" fill="#fff"/>
      <path id="Path_2664" data-name="Path 2664" d="M422.94,239.51a10.4,10.4,0,0,1,2.3,1.772,9.881,9.881,0,0,1,1.772,2.3,10.241,10.241,0,0,1-2.3-1.757,10.858,10.858,0,0,1-1.772-2.312Z" transform="translate(-172.982 -121.791)" fill="#fff"/>
      <path id="Path_2665" data-name="Path 2665" d="M399.34,205.73a10.766,10.766,0,0,1,2.3,1.772,9.879,9.879,0,0,1,1.772,2.3,11.323,11.323,0,0,1-4.069-4.069Z" transform="translate(-184.82 -138.735)" fill="#fff"/>
      <path id="Path_2666" data-name="Path 2666" d="M397.72,221.8a10.3,10.3,0,0,1,1.772-2.3,10.768,10.768,0,0,1,2.3-1.772,9.957,9.957,0,0,1-1.772,2.312,10.241,10.241,0,0,1-2.3,1.757Z" transform="translate(-185.632 -132.716)" fill="#fff"/>
      <path id="Path_2667" data-name="Path 2667" d="M441.06,238.119a10.194,10.194,0,0,1,1.772-2.3,10.767,10.767,0,0,1,2.3-1.772,9.654,9.654,0,0,1-1.772,2.312A10.242,10.242,0,0,1,441.06,238.119Z" transform="translate(-163.893 -124.529)" fill="#fff"/>
      <path id="Path_2668" data-name="Path 2668" d="M400.08,244.659a11.322,11.322,0,0,1,4.069-4.069,9.958,9.958,0,0,1-1.772,2.312A10.244,10.244,0,0,1,400.08,244.659Z" transform="translate(-184.449 -121.249)" fill="#fff"/>
      <path id="Path_2669" data-name="Path 2669" d="M424.55,213.179a10.243,10.243,0,0,1,1.757-2.3,9.957,9.957,0,0,1,2.313-1.772,11.321,11.321,0,0,1-4.069,4.069Z" transform="translate(-172.174 -137.04)" fill="#fff"/>
      <path id="Path_2670" data-name="Path 2670" d="M418.48,254.189a9.882,9.882,0,0,1,1.772-2.3,10.765,10.765,0,0,1,2.3-1.772,9.566,9.566,0,0,1-1.772,2.3,9.879,9.879,0,0,1-2.3,1.772Z" transform="translate(-175.219 -116.469)" fill="#fff"/>
      <path id="Path_2671" data-name="Path 2671" d="M418.5,229.5a11.323,11.323,0,0,1,4.069-4.069A10.736,10.736,0,0,1,418.5,229.5Z" transform="translate(-175.209 -128.853)" fill="#fff"/>
      <path id="Path_2672" data-name="Path 2672" d="M408.843,216.855c4.67-.21,10.286-9.01,11.7-15.316a91.7,91.7,0,0,0-3.424-8.844c-1.1-2.838-2.252-6.006-3.108-9.01-.165-.616-1.937,1.111-1.937,1.111l-3.589,2.027L396.62,193.55a49.176,49.176,0,0,1,5.06,10.917,6.573,6.573,0,0,1,.225,1.261s0,.135,0,.21C402.221,208.386,404.323,217.05,408.843,216.855Z" transform="translate(-186.184 -149.86)" fill="#dd6a57"/>
      <path id="Path_2673" data-name="Path 2673" d="M401.916,205.192v.21a10.347,10.347,0,0,0,1.952-.451c12.493-3.859,9.505-20.3,9.505-20.3l-4.91,1.637L396.6,193.014a49.176,49.176,0,0,1,5.06,10.917A6.578,6.578,0,0,1,401.916,205.192Z" transform="translate(-186.194 -149.309)" fill="#263238"/>
      <path id="Path_2674" data-name="Path 2674" d="M419.756,174.855c2.343,6.817-.616,26.834-5.361,31.429-6.877,6.667-18.47,7.688-24.221-.661-5.586-8.094-1.276-34.1,4.054-38.306C402.022,161.1,416.242,164.794,419.756,174.855Z" transform="translate(-190.73 -159.531)" fill="#dd6a57"/>
      <path id="Path_2675" data-name="Path 2675" d="M396.736,180.36s.09.09.075.135c-.225,1.351-.27,3,.886,3.544v.075C396.21,183.694,396.285,181.606,396.736,180.36Z" transform="translate(-186.27 -151.461)" fill="#263238"/>
      <path id="Path_2676" data-name="Path 2676" d="M398.106,179.541c2.192.15,1.742,4.5-.285,4.385S396.274,179.421,398.106,179.541Z" transform="translate(-186.243 -151.873)" fill="#263238"/>
      <path id="Path_2677" data-name="Path 2677" d="M391.717,179.67a.126.126,0,0,0-.12.12c-.09,1.351-.435,2.9-1.7,3.213v.075C391.417,183.034,391.852,180.976,391.717,179.67Z" transform="translate(-189.555 -151.807)" fill="#263238"/>
      <path id="Path_2678" data-name="Path 2678" d="M391.066,178.658c-2.162-.39-2.778,3.964-.781,4.325S392.883,178.974,391.066,178.658Z" transform="translate(-189.97 -152.327)" fill="#263238"/>
      <path id="Path_2679" data-name="Path 2679" d="M399.936,179.434a16.343,16.343,0,0,1-1.637-.781,3,3,0,0,1-1.5-1.1.931.931,0,0,1,.27-1.111,2.3,2.3,0,0,1,2.328,0,3.378,3.378,0,0,1,1.8,1.667.991.991,0,0,1-1.261,1.321Z" transform="translate(-186.136 -153.583)" fill="#263238"/>
      <path id="Path_2680" data-name="Path 2680" d="M389.8,177.981a14.684,14.684,0,0,0,1.787-.27,2.838,2.838,0,0,0,1.757-.616.946.946,0,0,0,0-1.141,2.328,2.328,0,0,0-2.252-.661,3.349,3.349,0,0,0-2.177,1.066.991.991,0,0,0,.886,1.622Z" transform="translate(-190.165 -154.037)" fill="#263238"/>
      <path id="Path_2681" data-name="Path 2681" d="M397.453,188.523c-.36.285-.721.691-1.216.691a3.77,3.77,0,0,1-1.427-.5h0a1.832,1.832,0,0,0,1.637.916,1.5,1.5,0,0,0,1.186-1.1A.3.3,0,0,0,397.453,188.523Z" transform="translate(-187.092 -147.371)" fill="#263238"/>
      <path id="Path_2682" data-name="Path 2682" d="M398.509,190.811a4.64,4.64,0,0,1-3.289,1.742,6.187,6.187,0,0,1-1.667-.09h-.315l-.3-.075a.36.36,0,0,1-.24-.33h0a.422.422,0,0,1,0-.135h0v-.105c.09-1.051.345-2.628.345-2.628-.39.15-2.433.826-2.343.285a69.612,69.612,0,0,1,3.228-13.785.12.12,0,1,1,.24,0c-.541,4.34-1.832,8.559-2.433,12.9a8.635,8.635,0,0,1,2.237-.435c.15,0-.556,3-.556,3.514h0a6.4,6.4,0,0,0,4.925-.991C398.509,190.616,398.659,190.721,398.509,190.811Z" transform="translate(-189.155 -153.864)" fill="#263238"/>
      <path id="Path_2683" data-name="Path 2683" d="M393,186.916a5.51,5.51,0,0,0,2.027,1.922,2.493,2.493,0,0,0,1.5.24c1.111-.165,1.231-1.156,1.126-2.027a6.013,6.013,0,0,0-.345-1.351,7.163,7.163,0,0,1-4.31,1.216Z" transform="translate(-188 -148.782)" fill="#263238"/>
      <path id="Path_2684" data-name="Path 2684" d="M394.39,188.39a2.493,2.493,0,0,0,1.5.24c1.111-.165,1.231-1.156,1.126-2.027a2.538,2.538,0,0,0-2.628,1.787Z" transform="translate(-187.303 -148.334)" fill="#ff99ba"/>
      <path id="Path_2685" data-name="Path 2685" d="M417.9,192.814c-3.439-.3-2.868-8.739-2.868-8.739s-5.241-1.1-7.613-8.409c0,0-6.907,4.069-12.568,2.868-8.859-1.877-8.289-13.515-4.88-15.722,4.82-3.2,13.109,1.907,13.109,1.907s12.839-3.183,16.383,5.556a6.532,6.532,0,0,1,5.886,6.7C425.559,183.264,420.468,193.039,417.9,192.814Z" transform="translate(-190.677 -160.792)" fill="#263238"/>
      <path id="Path_2686" data-name="Path 2686" d="M409.707,181.229a11.667,11.667,0,0,1-6.547-3.829,8.769,8.769,0,0,1-1.8-7.853.12.12,0,0,0-.225,0,10.091,10.091,0,0,0,1.171,8.5,8.154,8.154,0,0,0,7.388,3.5.158.158,0,0,0,.015-.315Z" transform="translate(-184.15 -156.925)" fill="#263238"/>
      <path id="Path_2687" data-name="Path 2687" d="M415.784,170.348c-1.7-2.282-4.37-2.7-7.013-2.688-.15,0-.15.255,0,.24a7.358,7.358,0,0,1,6.487,3.769,9.01,9.01,0,0,1,.315,7.013,18.455,18.455,0,0,1-7.7,10.812s0,.15,0,.105a18.515,18.515,0,0,0,8.649-11.833C417.075,175.378,417.33,172.45,415.784,170.348Z" transform="translate(-180.541 -157.831)" fill="#263238"/>
      <path id="Path_2688" data-name="Path 2688" d="M403.308,165.447a8.7,8.7,0,0,0-4.79-3.889,10.391,10.391,0,0,0-7.418.541,5.826,5.826,0,0,0-3.228,4.91,10.512,10.512,0,0,0,2.147,6.652h.09a10.316,10.316,0,0,1-1.652-6.006,5.391,5.391,0,0,1,3.319-4.7c3.709-1.5,9.01-1.1,11.337,2.688C403.188,165.733,403.383,165.6,403.308,165.447Z" transform="translate(-190.575 -161.115)" fill="#263238"/>
      <path id="Path_2689" data-name="Path 2689" d="M406.856,183.936s4.4-6.487,7.343-4.925-.3,10.932-3.709,12.253a3.5,3.5,0,0,1-4.7-1.8Z" transform="translate(-181.584 -152.259)" fill="#dd6a57"/>
      <path id="Path_2690" data-name="Path 2690" d="M412.574,180.7v.09a8.829,8.829,0,0,0-4.5,5.586,1.922,1.922,0,0,1,2.868-.571c.075,0,0,.135,0,.12a2.132,2.132,0,0,0-2.342.781,10.291,10.291,0,0,0-1.111,1.937c-.105.21-.5.105-.421-.15h0C406.973,185.385,409.286,181.06,412.574,180.7Z" transform="translate(-180.951 -151.29)" fill="#263238"/>
      <rect id="Rectangle_631" data-name="Rectangle 631" width="182.446" height="127.757" transform="translate(182.461 167.588) rotate(180)" fill="#263238"/>
      <circle id="Ellipse_153" data-name="Ellipse 153" cx="15.121" cy="15.121" r="15.121" transform="translate(21.323 61.019)" fill="#15ace5"/>
      <path id="Path_2691" data-name="Path 2691" d="M310.43,277.184H411.894L361.154,208.41Z" transform="translate(-229.418 -137.391)" fill="#c7c7c7"/>
      <path id="Path_2692" data-name="Path 2692" d="M283.95,269.373h83.76L325.83,224.61Z" transform="translate(-242.701 -129.265)" fill="#fff"/>
      <rect id="Rectangle_632" data-name="Rectangle 632" width="182.446" height="27.525" transform="translate(0 140.048)" fill="#15ace5"/>
      <path id="Path_2693" data-name="Path 2693" d="M444.648,206.406c4.73,13.229-2.027,61.761-10.031,71.987C422.74,293.619,399.27,307.629,390.29,312c-3.9,1.907-21.488-26.188-17.659-28.816,8.214-5.646,34.447-19.1,36.669-21.773s14.175-28.35,18.965-42.811C434.693,199.2,442.261,199.694,444.648,206.406Z" transform="translate(-198.489 -140.507)" fill="#dd6a57"/>
      <path id="Path_2694" data-name="Path 2694" d="M403.824,285.9c-12.448,7.1-37.21,6.006-40.543,5.015-2.868-.856-4.355-1.336-4.355-1.336-5.2-1.5-6.592-4.34-6.592-4.34s-6.5.09-7.208-3.844c-.8-4.385,8.484-3.649,13.845-6.367,12.283-6.217,28.005-18.5,31.369-20.647Z" transform="translate(-212.038 -114.332)" fill="#dd6a57"/>
      <path id="Path_2695" data-name="Path 2695" d="M373.986,269.81a87.315,87.315,0,0,1-11.067,4.85,90.535,90.535,0,0,1-12.944,2.718.105.105,0,0,0,0,.21,46.985,46.985,0,0,0,24.116-7.493.18.18,0,0,0-.105-.285Z" transform="translate(-209.635 -106.592)" fill="#263238"/>
      <path id="Path_2696" data-name="Path 2696" d="M376.6,274.4a65.035,65.035,0,0,1-22.329,5.015h0a42.226,42.226,0,0,0,22.524-4.715C376.959,274.652,376.854,274.291,376.6,274.4Z" transform="translate(-207.427 -104.301)" fill="#263238"/>
      <path id="Path_2697" data-name="Path 2697" d="M370.72,266.791c1.276-1.5.541-2.132-2.838-1.5s-16.2,5.9-17.674,1.276,16.743-11.833,22.434-12.433a95.71,95.71,0,0,1,15.422.45C384.805,256.685,377.072,262.556,370.72,266.791Z" transform="translate(-209.507 -114.519)" fill="#dd6a57"/>
      <path id="Path_2698" data-name="Path 2698" d="M416.646,210.878c8.3-17.449,15.872-12.824,16.518,4.5a275.247,275.247,0,0,1-1.592,35.919l-30.032-8.619Z" transform="translate(-183.716 -141.676)" fill="#ebebeb"/>
      <path id="Path_2699" data-name="Path 2699" d="M407.956,212.05a10.016,10.016,0,0,1,.375,2.883,9.85,9.85,0,0,1-.375,2.868,10.376,10.376,0,0,1-.375-2.868,10.509,10.509,0,0,1,.375-2.883Z" transform="translate(-180.687 -135.565)" fill="#fff"/>
      <path id="Path_2700" data-name="Path 2700" d="M421.781,216.576a10.014,10.014,0,0,1-2.883.375,9.912,9.912,0,0,1-2.868-.375,11.2,11.2,0,0,1,5.751,0Z" transform="translate(-176.448 -133.483)" fill="#fff"/>
      <path id="Path_2701" data-name="Path 2701" d="M416.59,200.43a11.322,11.322,0,0,1,4.069,4.069,9.567,9.567,0,0,1-2.3-1.772,9.879,9.879,0,0,1-1.772-2.3Z" transform="translate(-176.167 -141.394)" fill="#fff"/>
      <path id="Path_2702" data-name="Path 2702" d="M404.63,224.08a11.322,11.322,0,0,1,4.069,4.069,9.565,9.565,0,0,1-2.3-1.772,9.88,9.88,0,0,1-1.772-2.3Z" transform="translate(-182.166 -129.53)" fill="#fff"/>
      <path id="Path_2703" data-name="Path 2703" d="M418.5,229.5a11.323,11.323,0,0,1,4.069-4.069A10.736,10.736,0,0,1,418.5,229.5Z" transform="translate(-175.209 -128.853)" fill="#fff"/>
      <path id="Path_2704" data-name="Path 2704" d="M413.878,210.761c-1.126,2.282-2.312,4.5-3.5,6.8.21-1.081.375-2.147.5-3.243H410.8c-.18.856-.375,1.7-.541,2.553l-.225,1.231a1.737,1.737,0,0,0,0,.27c-.916,1.757-1.832,3.529-2.688,5.316-1.036,2.132-2.012,4.28-3,6.442s-1.907,4.79-3,6.967a15.57,15.57,0,0,0,2.928.871c.27.105.405-.165.12-.2s-2.508-.946-2.538-.961c.976-2.177,2.207-4.235,3.259-6.367s2.1-4.25,3.093-6.412c2.042-4.37,3.829-8.844,5.841-13.229C413.984,210.731,413.893,210.7,413.878,210.761Z" transform="translate(-183.817 -136.228)" fill="#263238"/>
      <path id="Path_2705" data-name="Path 2705" d="M425.3,219.516c-.285.9-.6,1.787-.826,2.7l-.27,1.126c.105-3.123.21-6.232.3-9.355h0c-.42,5.09-.871,10.181-1.2,15.286a145.634,145.634,0,0,0-.676,14.7,17.147,17.147,0,0,0-2.748-.435,11.924,11.924,0,0,0,3.093.886,149.672,149.672,0,0,0,1.066-15.346c0-1.411.105-2.808.165-4.2.165-.871.405-1.727.646-2.583s.405-1.832.6-2.748C425.406,219.486,425.316,219.471,425.3,219.516Z" transform="translate(-174.517 -134.592)" fill="#263238"/>
      <path id="Path_2706" data-name="Path 2706" d="M429.42,233.678c-4.235-1.5-21.788-7.043-25.663-7.989-.27-.075-.375,0-.105.18a247.244,247.244,0,0,0,25.708,7.974.09.09,0,0,0,.06-.165Z" transform="translate(-182.736 -128.738)" fill="#263238"/>
      <path id="Path_2707" data-name="Path 2707" d="M320.021,213.064c4.144,1.261,3.273-4.355,3.273-4.355s3.213,7.778,8,7.508,3.3-7.1,3.228-7.583c.165.405,3.319,7.508,8.094,6.637s2.493-7.508,2.327-7.853c.285.33,4.144,4.715,7.613,3.243,6.006-2.523-3.559-13.995-2.868-19.206l8.409.255a1.775,1.775,0,0,0,.826-.135l.315-4.295a54.429,54.429,0,0,1-7.763-3.9c-3.168-1.772-6.232-3.394-8.5-3.439a4.775,4.775,0,0,0-4.745,3.138s-2.463-3.9-6.247-3.349c-1.937.285-3.2,3.649-3.2,3.649a5.661,5.661,0,0,0-5.436-2.342c-2.658.541-3.529,3.829-3.529,3.829s-3.364-1.982-5.9-.541C308.8,187.146,311.131,210.331,320.021,213.064Z" transform="translate(-229.008 -151.805)" fill="#dd6a57"/>
      <path id="Path_2708" data-name="Path 2708" d="M337.57,191.37l7.328.676a1.774,1.774,0,0,0,.826-.135c9.25-1.682,15.016-12.253,8.3-13.019-5.105-.586-10.6,6.172-15.752,4.82h0Z" transform="translate(-215.804 -152.215)" fill="#dd6a57"/>
      <path id="Path_2709" data-name="Path 2709" d="M317,183.41h-.12a40.333,40.333,0,0,0,3.814,23.74c.12.24.541.135.45-.135A82.918,82.918,0,0,1,317,183.41Z" transform="translate(-226.391 -149.931)" fill="#263238"/>
      <path id="Path_2710" data-name="Path 2710" d="M323.057,182.023c0-.09-.15-.09-.165,0a37.826,37.826,0,0,0,5.766,25.632c.18.255.6.315.421,0C325.971,202.384,323.223,189.531,323.057,182.023Z" transform="translate(-223.336 -150.661)" fill="#263238"/>
      <path id="Path_2711" data-name="Path 2711" d="M336.655,206.553c-4.73-7.508-6.607-15.692-7.313-24.416,0-.12-.165-.09-.2,0-.811,4.37.225,9.881,1.381,14.1a23.455,23.455,0,0,0,5.871,10.511C336.579,206.823,336.76,206.7,336.655,206.553Z" transform="translate(-220.175 -150.61)" fill="#263238"/>
    </g>
  </g>
</svg>
