<svg id="Blood_donation-cuate" data-name="Blood donation-cuate" xmlns="http://www.w3.org/2000/svg" width="724.134" height="661.869" viewBox="0 0 724.134 661.869">
  <g id="freepik--background-complete--inject-19" transform="translate(93.524 0)">
    <rect id="Rectangle_1040" data-name="Rectangle 1040" width="260.069" height="429.626" transform="translate(363.411 18.324)" fill="#ebebeb"/>
    <rect id="Rectangle_1041" data-name="Rectangle 1041" width="226.226" height="279.182" transform="translate(380.34 36.938)" fill="#fff"/>
    <path id="Path_3355" data-name="Path 3355" d="M68.513,362.244h13.06V324.61H58.34Z" transform="translate(527.584 123.339)" fill="#ebebeb"/>
    <path id="Path_3356" data-name="Path 3356" d="M58.34,324.6l3.76,13.871H81.588V324.6Z" transform="translate(527.568 123.334)" fill="#c7c7c7"/>
    <path id="Path_3357" data-name="Path 3357" d="M204.82,362.244H191.76V324.61h23.248Z" transform="translate(185.975 123.339)" fill="#ebebeb"/>
    <path id="Path_3358" data-name="Path 3358" d="M215.008,324.6l-3.76,13.871H191.76V324.6Z" transform="translate(185.975 123.334)" fill="#c7c7c7"/>
    <path id="Path_3359" data-name="Path 3359" d="M136.578,256.121q24.824.375,49.648.5c16.539.156,33.094.109,49.648.172l-.9-.671v18.521l.109,18.521c.172,12.342.343,24.684.78,37.026.421-12.342.593-24.684.765-37.026l.109-18.521c0-6.241.078-12.342,0-18.521v-.671h-.889c-16.555,0-33.109,0-49.648.187S153.132,255.871,136.578,256.121Z" transform="translate(250.316 84.59)" fill="#c7c7c7"/>
    <path id="Path_3360" data-name="Path 3360" d="M237.331,336.207q-24.824-.374-49.648-.5c-16.555-.156-33.094-.109-49.648-.172l.9.671V318.045l-.109-18.162c-.172-12.108-.343-24.216-.765-36.324-.421,12.108-.593,24.216-.765,36.324l-.109,18.162c0,6.054-.094,12.108,0,18.162v.687h.9c16.555,0,33.094,0,49.648-.172S220.776,336.472,237.331,336.207Z" transform="translate(248.859 89.134)" fill="#c7c7c7"/>
    <rect id="Rectangle_1042" data-name="Rectangle 1042" width="7.521" height="21.376" transform="translate(467.545 371.027)" fill="#c7c7c7"/>
    <path id="Path_3361" data-name="Path 3361" d="M164.4,256.121q-24.809-.374-49.648-.484c-16.539-.156-33.094-.125-49.633-.187h-.9v19.192l.109,18.521c.172,12.342.343,24.684.78,37.026.421-12.342.593-24.684.765-37.026l.109-18.521V256.121l-.889.671c16.539,0,33.094,0,49.633-.172S147.857,256.308,164.4,256.121Z" transform="translate(435.601 84.59)" fill="#c7c7c7"/>
    <path id="Path_3362" data-name="Path 3362" d="M63.63,336.213q24.809.39,49.633.5c16.555.156,33.109.109,49.648.172h.9V318.035l-.109-18.162c-.172-12.108-.343-24.216-.765-36.324-.421,12.108-.593,24.216-.765,36.324l-.109,18.162c0,6.054-.094,12.108,0,18.162l.9-.671c-16.539,0-33.094,0-49.648.172S80.169,336.025,63.63,336.213Z" transform="translate(437.086 89.128)" fill="#c7c7c7"/>
    <rect id="Rectangle_1043" data-name="Rectangle 1043" width="7.521" height="21.376" transform="translate(511.826 371.043)" fill="#c7c7c7"/>
    <rect id="Rectangle_1044" data-name="Rectangle 1044" width="226.226" height="2.543" transform="translate(380.34 112.768)" fill="#c7c7c7"/>
    <rect id="Rectangle_1045" data-name="Rectangle 1045" width="226.226" height="2.543" transform="translate(380.34 178.206)" fill="#c7c7c7"/>
    <rect id="Rectangle_1046" data-name="Rectangle 1046" width="226.226" height="2.543" transform="translate(380.34 243.661)" fill="#c7c7c7"/>
    <rect id="Rectangle_1047" data-name="Rectangle 1047" width="3.76" height="279.182" transform="translate(491.573 36.938)" fill="#ebebeb"/>
    <rect id="Rectangle_1048" data-name="Rectangle 1048" width="19.41" height="32.314" transform="translate(442.315 145.893)" fill="#ebebeb"/>
    <rect id="Rectangle_1049" data-name="Rectangle 1049" width="24.731" height="5.492" transform="translate(439.662 140.401)" fill="#dbdbdb"/>
    <rect id="Rectangle_1050" data-name="Rectangle 1050" width="14.433" height="19.925" transform="translate(444.811 153.008)" fill="#c7c7c7"/>
    <rect id="Rectangle_1051" data-name="Rectangle 1051" width="19.41" height="32.314" transform="translate(416.164 145.893)" fill="#ebebeb"/>
    <rect id="Rectangle_1052" data-name="Rectangle 1052" width="24.731" height="5.492" transform="translate(413.496 140.401)" fill="#dbdbdb"/>
    <rect id="Rectangle_1053" data-name="Rectangle 1053" width="14.433" height="19.925" transform="translate(418.661 153.008)" fill="#c7c7c7"/>
    <rect id="Rectangle_1054" data-name="Rectangle 1054" width="19.41" height="32.314" transform="translate(390.014 145.893)" fill="#ebebeb"/>
    <rect id="Rectangle_1055" data-name="Rectangle 1055" width="24.731" height="5.492" transform="translate(387.346 140.401)" fill="#dbdbdb"/>
    <rect id="Rectangle_1056" data-name="Rectangle 1056" width="14.433" height="19.925" transform="translate(392.495 153.008)" fill="#c7c7c7"/>
    <path id="Path_3363" data-name="Path 3363" d="M0,34.81H25.745V8.285A8.285,8.285,0,0,0,17.46,0H8.285A8.285,8.285,0,0,0,0,8.285Z" transform="translate(573.831 208.851)" fill="#ebebeb"/>
    <rect id="Rectangle_1057" data-name="Rectangle 1057" width="14.916" height="3.557" transform="translate(579.23 205.34)" fill="#ebebeb"/>
    <rect id="Rectangle_1058" data-name="Rectangle 1058" width="22.499" height="3.792" transform="translate(575.438 201.533)" fill="#dbdbdb"/>
    <rect id="Rectangle_1059" data-name="Rectangle 1059" width="21.594" height="18.833" transform="translate(573.816 217.229)" fill="#c7c7c7"/>
    <path id="Path_3364" data-name="Path 3364" d="M0,34.81H25.729V8.285A8.285,8.285,0,0,0,17.444,0H8.285A8.285,8.285,0,0,0,0,8.285Z" transform="translate(545.06 208.851)" fill="#ebebeb"/>
    <rect id="Rectangle_1060" data-name="Rectangle 1060" width="14.916" height="3.557" transform="translate(550.474 205.34)" fill="#ebebeb"/>
    <rect id="Rectangle_1061" data-name="Rectangle 1061" width="22.499" height="3.792" transform="translate(546.667 201.533)" fill="#dbdbdb"/>
    <rect id="Rectangle_1062" data-name="Rectangle 1062" width="21.594" height="18.833" transform="translate(545.06 217.229)" fill="#c7c7c7"/>
    <rect id="Rectangle_1063" data-name="Rectangle 1063" width="32.236" height="41.707" transform="translate(425.869 274.398)" fill="#ebebeb"/>
    <path id="Path_3365" data-name="Path 3365" d="M187.386,216.444H155.15l6.194-8.5h19.862Z" transform="translate(270.719 57.97)" fill="#ebebeb"/>
    <rect id="Rectangle_1064" data-name="Rectangle 1064" width="27.227" height="8.27" transform="translate(428.366 257.641)" fill="#c7c7c7"/>
    <rect id="Rectangle_1065" data-name="Rectangle 1065" width="27.633" height="18.755" transform="translate(425.885 283.682)" fill="#dbdbdb"/>
    <rect id="Rectangle_1066" data-name="Rectangle 1066" width="32.236" height="41.707" transform="translate(391.215 274.398)" fill="#ebebeb"/>
    <path id="Path_3366" data-name="Path 3366" d="M209.6,216.444H177.36l6.179-8.5h19.878Z" transform="translate(213.855 57.97)" fill="#ebebeb"/>
    <rect id="Rectangle_1067" data-name="Rectangle 1067" width="27.227" height="8.27" transform="translate(393.712 257.641)" fill="#c7c7c7"/>
    <rect id="Rectangle_1068" data-name="Rectangle 1068" width="27.633" height="18.755" transform="translate(391.215 283.682)" fill="#dbdbdb"/>
    <path id="Path_3367" data-name="Path 3367" d="M71.577,114.11h57.731a6.023,6.023,0,0,0,6.007-6.023h0a6.007,6.007,0,0,0-6.007-6.007H71.577a6.007,6.007,0,0,0-6.007,6.007h0a6.007,6.007,0,0,0,6.007,6.023Z" transform="translate(462.561 -1.342)" fill="#dbdbdb"/>
    <path id="Path_3368" data-name="Path 3368" d="M71.577,105.89h57.731a6.007,6.007,0,0,0,6.007-6.007h0a6.023,6.023,0,0,0-6.007-6.023H71.577a6.007,6.007,0,0,0-6.007,6.023h0A6.007,6.007,0,0,0,71.577,105.89Z" transform="translate(462.561 -5.947)" fill="#dbdbdb"/>
    <path id="Path_3369" data-name="Path 3369" d="M71.49,96.458h55.827a4.322,4.322,0,0,0,4.322-4.322h0a4.306,4.306,0,0,0-4.322-4.306H71.536a4.306,4.306,0,0,0-4.306,4.306h0a4.322,4.322,0,0,0,4.26,4.322Z" transform="translate(463.647 -9.326)" fill="#ebebeb"/>
    <path id="Path_3370" data-name="Path 3370" d="M71.49,90.428h55.827a4.322,4.322,0,0,0,4.322-4.306h0a4.322,4.322,0,0,0-4.322-4.322H71.536a4.322,4.322,0,0,0-4.306,4.322h0A4.322,4.322,0,0,0,71.49,90.428Z" transform="translate(463.647 -12.705)" fill="#ebebeb"/>
    <ellipse id="Ellipse_160" data-name="Ellipse 160" cx="47.199" cy="47.198" rx="47.199" ry="47.198" transform="translate(34.346 120.709) rotate(-108.61)" fill="#ebebeb"/>
    <ellipse id="Ellipse_161" data-name="Ellipse 161" cx="45.03" cy="45.03" rx="45.03" ry="45.03" transform="matrix(-0.854, -0.521, 0.521, -0.854, 76.879, 123.787)" fill="#dbdbdb"/>
    <ellipse id="Ellipse_162" data-name="Ellipse 162" cx="42.19" cy="42.19" rx="42.19" ry="42.19" transform="matrix(-0.853, -0.521, 0.521, -0.853, 75.898, 119.894)" fill="#fff"/>
    <path id="Path_3371" data-name="Path 3371" d="M384.28,81.649c19.223,11.64,50.787,30.738,68.45,41.207a42.205,42.205,0,0,0,11.515-15.431l-58.37-54.1A42.284,42.284,0,0,0,384.28,81.649Z" transform="translate(-363.648 -28.656)" fill="#ebebeb" opacity="0.5"/>
    <path id="Path_3372" data-name="Path 3372" d="M396.35,78.16a41.705,41.705,0,0,0,2.793,13.793l52.613,24.965a41.207,41.207,0,0,0,6.647-2.855C442.5,104.716,413.466,88.005,396.35,78.16Z" transform="translate(-376.639 -14.744)" fill="#ebebeb" opacity="0.5"/>
    <rect id="Rectangle_1069" data-name="Rectangle 1069" width="0.811" height="6.397" transform="translate(61.464 22.817)" fill="#c7c7c7"/>
    <rect id="Rectangle_1070" data-name="Rectangle 1070" width="0.811" height="6.397" transform="translate(78.603 33.789) rotate(-150)" fill="#c7c7c7"/>
    <rect id="Rectangle_1071" data-name="Rectangle 1071" width="0.811" height="6.397" transform="translate(90.451 45.895) rotate(-120)" fill="#c7c7c7"/>
    <rect id="Rectangle_1072" data-name="Rectangle 1072" width="6.397" height="0.811" transform="translate(94.605 61.544)" fill="#c7c7c7"/>
    <rect id="Rectangle_1073" data-name="Rectangle 1073" width="6.397" height="0.811" transform="translate(95.535 81.91) rotate(-150)" fill="#c7c7c7"/>
    <rect id="Rectangle_1074" data-name="Rectangle 1074" width="6.397" height="0.811" transform="translate(81.099 96.016) rotate(-119.97)" fill="#c7c7c7"/>
    <rect id="Rectangle_1075" data-name="Rectangle 1075" width="0.811" height="6.397" transform="translate(61.464 94.684)" fill="#c7c7c7"/>
    <rect id="Rectangle_1076" data-name="Rectangle 1076" width="0.811" height="6.397" transform="translate(42.662 96.032) rotate(-150)" fill="#c7c7c7"/>
    <rect id="Rectangle_1077" data-name="Rectangle 1077" width="0.811" height="6.397" transform="translate(28.217 81.833) rotate(-120)" fill="#c7c7c7"/>
    <rect id="Rectangle_1078" data-name="Rectangle 1078" width="6.397" height="0.811" transform="translate(22.738 61.544)" fill="#c7c7c7"/>
    <rect id="Rectangle_1079" data-name="Rectangle 1079" width="6.397" height="0.811" transform="matrix(-0.866, -0.5, 0.5, -0.866, 33.321, 45.938)" fill="#c7c7c7"/>
    <rect id="Rectangle_1080" data-name="Rectangle 1080" width="6.397" height="0.811" transform="translate(45.129 33.825) rotate(-119.97)" fill="#c7c7c7"/>
    <path id="Path_3373" data-name="Path 3373" d="M409.209,54.006l-1.389,39.07,3.994-.047L410.285,53.99Z" transform="translate(-347.947 -28.286)" fill="#c7c7c7"/>
    <path id="Path_3374" data-name="Path 3374" d="M407.02,68.822,433.311,85.61l1.9-3.511-27.68-14.23Z" transform="translate(-370.099 -20.509)" fill="#a6a6a6"/>
    <path id="Path_3375" data-name="Path 3375" d="M408.253,77.766a1.373,1.373,0,1,0,.637-1.31,1.373,1.373,0,0,0-.637,1.31Z" transform="translate(-347.787 -15.816)" fill="#c7c7c7"/>
  </g>
  <g id="freepik--Shadow--inject-19" transform="translate(0 545.358)">
    <path id="Path_3379" data-name="Path 3379" d="M44.76,451.623c.164,18.724,162.719,32.47,361.935,35.169,199.884,2.73,361.934-15.728,361.934-35.169S606.589,416.47,406.695,416.47,44.585,432.213,44.76,451.623Z" transform="translate(-44.76 -370.551)" fill="#ebebeb"/>
    <ellipse id="Ellipse_163" data-name="Ellipse 163" cx="183.864" cy="26.088" rx="183.864" ry="26.088" transform="translate(123.174)" fill="#ebebeb"/>
  </g>
  <g id="freepik--Floor--inject-19" transform="translate(77.536 484.866)">
    <path id="Path_3380" data-name="Path 3380" d="M691.188,349.05l-80.822-.374-80.832-.14-161.645-.265-161.645.265-80.832.14-80.822.374,80.822.39,80.832.14,161.645.25,161.645-.25,80.832-.14Z" transform="translate(-44.59 -348.27)" fill="#263238"/>
  </g>
  <g id="freepik--Plant--inject-19" transform="translate(77.536 236.842)">
    <path id="Path_3381" data-name="Path 3381" d="M483.613,303.421s-28.538-6.46-44.172-20.877S415.07,242.32,415.07,242.32a246.177,246.177,0,0,1,32.017,8.394c2.543,2.731,7.411,8.363,9.674,13.7a65.614,65.614,0,0,0,.078-9.8A43.83,43.83,0,0,1,467,260.856C479.962,272.137,483.613,303.421,483.613,303.421Z" transform="translate(-415.07 -159.609)" fill="#15ace5"/>
    <path id="Path_3382" data-name="Path 3382" d="M416.043,253.363c-3.885-2.7-7.8-5.289-11.718-8a.234.234,0,0,1,.156-.359c7.349,4.4,14.6,9.1,21.626,14.043q3.651,2.574,7.209,5.321l-.5-.858c-.843-1.42-1.747-2.84-2.653-4.244a59.961,59.961,0,0,0-6.054-8.082.094.094,0,0,1,.14-.125c2.216,2.559,4.431,5.087,6.46,7.8.967,1.279,1.857,2.621,2.715,3.994.437.7.874,1.42,1.279,2.153l.437.733c3.682,2.9,7.271,5.929,10.7,9.112q3.121,2.965,6.132,6.132c-1.108-3.448-2.06-6.943-3.339-10.345,0-.125.14-.172.187,0,1.233,3.557,2.59,7.146,3.557,10.813,2.184,2.356,4.275,4.806,6.241,7.349l-.094-.452q-.484-2.044-1.03-4.026c-.687-2.59-1.451-5.149-2.325-7.677a44.108,44.108,0,0,0-7.661-14.48c-.078-.094,0-.234.14-.14a55.782,55.782,0,0,1,10.922,22.827c.3,1.217.593,2.434.858,3.651.156.655.328,1.311.437,1.982.858,1.17,1.7,2.34,2.512,3.542a123.589,123.589,0,0,1,12.077,23.685,271.72,271.72,0,0,1,9.143,28.506.146.146,0,1,1-.281.078c-5.586-16.7-11.281-33.64-20.845-48.556a111.079,111.079,0,0,0-6.506-9.128,54.015,54.015,0,0,1-13.887-2.762,61.491,61.491,0,0,1-13.9-6.725,82.058,82.058,0,0,1-7.13-5.383c-.109-.078,0-.234.125-.14a56.635,56.635,0,0,0,13.075,7.911,72.057,72.057,0,0,0,14.4,4.837c2.106.453,4.244.8,6.382,1.077a121.967,121.967,0,0,0-8.426-9.362c-.952-.967-1.95-1.888-2.949-2.809a67.353,67.353,0,0,0-10.548-6.054c-4.681-2.262-9.362-4.681-13.9-7.006-2.621-1.326-5.211-2.684-7.8-3.963-.109,0,0-.234.109-.172,4.681,2.262,9.455,4.384,14.183,6.553,4.462,2.044,8.972,4.088,13.247,6.491l.531.328c-3.854-3.37-7.8-6.584-11.952-9.674Q421.878,257.482,416.043,253.363Z" transform="translate(-398.24 -158.107)" fill="#263238"/>
    <path id="Path_3383" data-name="Path 3383" d="M437.764,259.793c2.325,1.014,4.681,1.919,6.99,3s4.6,2.387,6.85,3.714c.094,0,0,.2-.094.156-2.278-1.092-4.587-2.106-6.834-3.245s-4.6-2.4-6.959-3.433C437.608,259.933,437.655,259.746,437.764,259.793Z" transform="translate(-418.338 -149.823)" fill="#263238"/>
    <path id="Path_3384" data-name="Path 3384" d="M429.7,189.31a40.786,40.786,0,0,0-8.519,23.7c-.094,2.559.312,6.116.608,10.314a67.764,67.764,0,0,0-18.63,15.915,33.8,33.8,0,0,1,18.817-4.494,57.126,57.126,0,0,1-1.092,8.519,32.157,32.157,0,0,0-12.108,2.4,27.148,27.148,0,0,1,10.922,2.169c-5.087,16.18-20.206,32.766-61.959,39.865a87.532,87.532,0,0,1,7.443-58.76C377.669,204.336,429.7,189.31,429.7,189.31Z" transform="translate(-268.449 -189.31)" fill="#15ace5"/>
    <path id="Path_3385" data-name="Path 3385" d="M364.319,353q1.108-10.36,2.715-20.689a413.337,413.337,0,0,1,8.41-40.864,165.285,165.285,0,0,1,6.038-18.63,26.715,26.715,0,0,1-.156-3.339c0-1.342,0-2.684,0-4.01,0-2.684.156-5.352.39-8.02a96.551,96.551,0,0,1,2.559-15.6c.764-2.98,1.654-5.913,2.528-8.847,0-.125.218,0,.187,0a115.9,115.9,0,0,0-3.12,15.6,146.388,146.388,0,0,0-1.389,15.6c0,1.435-.078,2.871-.094,4.306v1.841a134.19,134.19,0,0,1,7.021-14.558,176.588,176.588,0,0,1,14.308-21.376,8.474,8.474,0,0,1,.328-2.34l.609-2.793c.437-1.9.9-3.807,1.435-5.7,1.03-3.776,2.4-7.443,3.589-11.172,0-.125.219,0,.187,0-1.108,3.7-1.841,7.521-2.684,11.281-.421,1.872-.827,3.729-1.233,5.6l-.609,2.793a.916.916,0,0,1,0,.2c1.685-2.122,3.4-4.228,5.165-6.241,7.973-9.362,16.726-17.975,25.526-26.525,1.077-1.061,2.184-2.075,3.277-3.121a.1.1,0,1,1,.14.14c-8.41,8.769-16.7,17.647-24.528,26.931-1.872,2.216-3.7,4.447-5.508,6.709l2.855-1.888c2.434-1.56,4.884-3.121,7.427-4.556s5.087-2.809,7.692-4.1,5.539-2.4,8.114-3.9c.109,0,.2.125.094.172a59.287,59.287,0,0,0-7.614,4.213c-2.543,1.56-5.086,3.027-7.583,4.681s-4.915,3.121-7.349,4.681c-2.028,1.326-4.041,2.762-6.148,3.979a200.049,200.049,0,0,0-13.372,19.472,144.261,144.261,0,0,0-6.912,13.122l1.56-.655,3.823-1.7c2.45-1.092,4.915-2.153,7.38-3.214,4.681-2.044,9.362-3.916,14.043-6.148a62.7,62.7,0,0,0,7.489-4.166.1.1,0,0,1,.094.172c-8.566,5.9-18.162,10.064-27.633,14.245l-4.1,1.826c-1.139.5-2.262,1.061-3.433,1.56a146.025,146.025,0,0,0-7.052,19.348,392.506,392.506,0,0,0-9.1,40.4c-2.387,13.637-4.01,27.367-5.258,41.16-.156,1.716-.312,3.433-.515,5.149a.546.546,0,0,1-1.077,0A171.747,171.747,0,0,1,364.319,353Z" transform="translate(-289.425 -185.348)" fill="#263238"/>
    <path id="Path_3386" data-name="Path 3386" d="M394.219,227.366c.78-4.244,1.9-8.394,3.043-12.482a.094.094,0,1,1,.187,0c-1.045,4.088-1.81,8.238-2.574,12.389s-1.467,8.457-2.075,12.7h-.109A113.659,113.659,0,0,1,394.219,227.366Z" transform="translate(-293.986 -175.034)" fill="#263238"/>
    <path id="Path_3387" data-name="Path 3387" d="M371.44,233.648a74.081,74.081,0,0,1,9.081-5.04c1.56-.78,3.121-1.56,4.6-2.278s3.245-1.4,4.821-2.2c.109,0,.2.109.094.172-1.56.765-2.98,1.685-4.478,2.512l-4.681,2.528a104.069,104.069,0,0,1-9.268,4.79.257.257,0,0,1-.172-.484Z" transform="translate(-253.201 -169.801)" fill="#263238"/>
    <path id="Path_3388" data-name="Path 3388" d="M469.526,275.8s-26.4-6.241-38.523-24.028c-11.593-16.914-15.322-45.748-15.6-48.369.468,2.325,5.914,27.539,23.9,39.272C452.987,251.753,466.343,259.149,469.526,275.8Z" transform="translate(-401.498 -181.416)" fill="#263238" opacity="0.1"/>
    <path id="Path_3389" data-name="Path 3389" d="M424.937,220.571a33.765,33.765,0,0,1,9.736,16.024s0,.094-.078,0a39.335,39.335,0,0,0-9.783-15.915C424.687,220.618,424.812,220.478,424.937,220.571Z" transform="translate(-381.249 -171.812)" fill="#263238"/>
    <path id="Path_3390" data-name="Path 3390" d="M469.219,275.859s-26.4-6.241-38.523-24.028c-11.593-16.914-15.322-45.748-15.6-48.369a.7.7,0,0,1,0-.172s12.654,18.006,25.963,22.593S472.963,246.432,469.219,275.859Z" transform="translate(-401.19 -181.477)" fill="#15ace5"/>
    <path id="Path_3391" data-name="Path 3391" d="M408.363,209.717a107.657,107.657,0,0,0,8.16,14.043,55.827,55.827,0,0,0,10.922,11.172c3.589,2.855,7.38,5.43,11.016,8.223l-.094-.125c-.671-1.014-1.4-2-2.153-2.965-1.56-1.919-3.121-3.745-4.837-5.555-3.277-3.557-6.631-7.053-9.565-10.922a40.389,40.389,0,0,1-4.228-6.818c0-.109.125-.172.172,0,4.291,8.925,12.841,14.636,18.942,22.172a38.984,38.984,0,0,1,2.45,3.339,13.684,13.684,0,0,1,1.56,2.684,55.983,55.983,0,0,1,9.019,9.112,40.469,40.469,0,0,0-1.061-5.133,25.388,25.388,0,0,0-2.808-6.678c0-.109.109-.218.172-.109a31.346,31.346,0,0,1,3.121,6.647,23.655,23.655,0,0,1,.967,5.7h0a53.213,53.213,0,0,1,3.557,5.555l-.328-1.7c-.515-2.621-1.108-5.258-1.779-7.8a47.244,47.244,0,0,0-6.35-14.87.1.1,0,0,1,.156-.109,56.546,56.546,0,0,1,6.865,14.4,73.36,73.36,0,0,1,2.106,7.879c.3,1.3.546,2.606.8,3.916.14.671.281,1.357.39,2.06a93.818,93.818,0,0,1,6.085,17.9,260.308,260.308,0,0,1,5.633,33.39,277.733,277.733,0,0,1,1.857,35.5c0,1.482-.109,2.965-.187,4.447a.312.312,0,0,1-.624,0c-.25-5.851-.406-11.718-.749-17.584s-.858-11.7-1.482-17.538a311.663,311.663,0,0,0-5.508-34.139c-2.138-9.658-4.915-19.379-10.189-27.835a52.662,52.662,0,0,0-9.533-11.328c-3.7-3.323-7.8-6.241-11.655-9.362a63.506,63.506,0,0,1-10.688-10.282,84.26,84.26,0,0,1-8.41-13.637c-.609-1.186-1.248-2.387-1.888-3.573C408.129,209.717,408.3,209.607,408.363,209.717Z" transform="translate(-389.827 -177.902)" fill="#263238"/>
    <path id="Path_3392" data-name="Path 3392" d="M440.63,212.2a88.5,88.5,0,0,0,5.882,10.3c0,.078-.078.156-.125.078a71.89,71.89,0,0,1-5.945-10.314C440.38,212.154,440.568,212.091,440.63,212.2Z" transform="translate(-417.538 -176.517)" fill="#263238"/>
    <path id="Path_3393" data-name="Path 3393" d="M425.032,242.32s.421,37.525-22.016,48.369-34.467,1.81-49.726,5.445h0c.593-.889,11.484-16.523,28.787-20.83C399.911,270.811,419.633,257.954,425.032,242.32Z" transform="translate(-260.094 -159.609)" fill="#15ace5"/>
    <path id="Path_3394" data-name="Path 3394" d="M425.032,242.32s.421,37.525-22.016,48.369-34.467,1.81-49.726,5.445h0a85.58,85.58,0,0,1,25.542-7.5C392.983,286.866,420.023,277.707,425.032,242.32Z" transform="translate(-260.094 -159.609)" opacity="0.1"/>
    <path id="Path_3395" data-name="Path 3395" d="M377.1,288.545a37.775,37.775,0,0,1,8.925-6.038c.484-.234.967-.421,1.467-.624.234-.3.484-.577.749-.858q1.014-1.045,2.106-2.013a31.89,31.89,0,0,1,4.525-3.245c3.714-2.2,7.8-3.729,11.593-5.757.109,0,.2.125.094.172-1.888.983-3.7,2.06-5.523,3.121s-3.6,2.028-5.336,3.121a38.175,38.175,0,0,0-4.431,3.323,15.437,15.437,0,0,0-1.155,1.108,57.083,57.083,0,0,1,7.6-2.013c4.1-.843,8.254-1.42,12.357-2.294a61.115,61.115,0,0,0,5.96-1.56c1.857-1.56,3.714-3,5.477-4.681a46.257,46.257,0,0,0,5.8-6.428c0-.109.234,0,.156.094a68.26,68.26,0,0,1-9.19,10.158c.967-.375,1.919-.765,2.871-1.186a46.357,46.357,0,0,0,19.114-15.915.109.109,0,0,1,.172.109,52.566,52.566,0,0,1-15.478,14.838,46.293,46.293,0,0,1-9.767,4.681,89.923,89.923,0,0,1-12.155,2.871,86.626,86.626,0,0,0-11.889,2.824,36.089,36.089,0,0,0-9.97,5.243,46.934,46.934,0,0,0-13.45,16.679,83.615,83.615,0,0,0-7.458,27.445c0,.39-.671.39-.64,0C360.712,315.928,364.94,299.514,377.1,288.545Z" transform="translate(-285.366 -151.38)" fill="#263238"/>
    <path id="Path_3396" data-name="Path 3396" d="M376.943,272.526a12.872,12.872,0,0,1,4.6-4.182,16.8,16.8,0,0,0,5.492-4.541c.078-.094.25,0,.172.109a18.723,18.723,0,0,1-4.852,4.338,17.005,17.005,0,0,0-5.274,4.369C377.021,272.7,376.881,272.619,376.943,272.526Z" transform="translate(-259.172 -147.594)" fill="#263238"/>
    <path id="Path_3397" data-name="Path 3397" d="M446.525,294.98l-1.03,20.627-3.121,63.051H395.3l-3.136-63.051L391.15,294.98Z" transform="translate(-340.659 -130.104)" fill="#455a64"/>
    <path id="Path_3398" data-name="Path 3398" d="M446.525,294.98l-1.03,20.627H392.164L391.15,294.98Z" transform="translate(-340.659 -130.104)" fill="#263238"/>
    <rect id="Rectangle_1094" data-name="Rectangle 1094" width="61.975" height="19.691" transform="translate(47.183 156.247)" fill="#455a64"/>
  </g>
  <g id="freepik--speech-bubble--inject-19" transform="translate(349.088 22.092)">
    <path id="Path_3399" data-name="Path 3399" d="M310.479,89.263a33.843,33.843,0,0,1-56.56,21.407l-16.929,2.5,8.472-14.651a33.858,33.858,0,1,1,65.017-9.253Z" transform="translate(-235.82 -51.574)" fill="#fff"/>
    <path id="Path_3400" data-name="Path 3400" d="M301.476,61.4a34.193,34.193,0,0,0-55.5,37.463v-.577l-8.426,14.667-.609,1.092,1.217-.187,16.929-2.606-.406-.125a34.03,34.03,0,0,0,16.742,8.27,31.769,31.769,0,0,0,4.681.5,36.305,36.305,0,0,0,4.681-.094,34.56,34.56,0,0,0,17.35-6.772,30.489,30.489,0,0,0,6.631-6.553,34.061,34.061,0,0,0-3.292-45.124Zm3.121,45.046a36.383,36.383,0,0,1-3.121,3.5,34.433,34.433,0,0,1-3.573,2.98,30.817,30.817,0,0,1-8.16,4.4,33.343,33.343,0,0,1-8.925,1.95,32.767,32.767,0,0,1-4.681,0,30.377,30.377,0,0,1-4.6-.546,33.468,33.468,0,0,1-16.211-8.363l-.156-.156h-.234l-16.96,2.387.609.889,8.566-14.5.172-.265-.125-.312a33.375,33.375,0,0,1,1.9-29.068A35.029,35.029,0,0,1,259.239,58.3a33.047,33.047,0,0,1,14.043-5.523A33.468,33.468,0,0,1,304.737,106.5Z" transform="translate(-236.942 -51.675)" fill="#263238"/>
    <path id="Path_3401" data-name="Path 3401" d="M272.558,74.754a3.2,3.2,0,1,1-.931-2.272A3.214,3.214,0,0,1,272.558,74.754Z" transform="translate(-243.178 -40.545)" fill="#263238"/>
    <path id="Path_3402" data-name="Path 3402" d="M263.048,74.754a3.2,3.2,0,1,1-.931-2.272,3.214,3.214,0,0,1,.931,2.272Z" transform="translate(-218.83 -40.545)" fill="#263238"/>
    <path id="Path_3403" data-name="Path 3403" d="M253.538,74.755a3.214,3.214,0,1,1-3.121-3.214A3.214,3.214,0,0,1,253.538,74.755Z" transform="translate(-194.482 -40.545)" fill="#263238"/>
  </g>
  <g id="freepik--character-2--inject-19" transform="translate(219.491 52.8)">
    <path id="Path_3498" data-name="Path 3498" d="M349.1,441.9c-3.464,1.139-102.636.219-106.38-2.216-1.435-.9-2.153-15.369-2.5-32.86v-.546c0-3.6-.14-7.318-.156-11.078,0-.515,4.54-53.05,4.54-53.05l64.814.421-4.852,53.05-.359,10.548v1.092s37.743,17.35,41.6,20.471S352.576,440.776,349.1,441.9Z" transform="translate(-151.003 80.367)" fill="#eb9481"/>
    <path id="Path_3499" data-name="Path 3499" d="M240.08,389.42c.406,13.169,1.092,23.03,2.278,23.779,3.745,2.418,102.979,3.355,106.4,2.216s.5-11.109-3.308-14.2a149.433,149.433,0,0,0-15.494-8.145c3.885,4.213,5.851,8.878-4.572,8.878C306.876,401.949,274.578,398.907,240.08,389.42Z" transform="translate(-150.644 106.851)" fill="#263238"/>
    <path id="Path_3500" data-name="Path 3500" d="M365.782,508.3h-71.4s14.37-166.795,13.809-169.713c-.718-3.729-4.931-20.611-10.532-42.658-1.763-6.912-3.667-14.308-5.633-21.984-5.321-20.752-11.2-43.423-16.305-63.16-7.677-29.567-13.668-52.535-13.668-52.535h60.524s7.052,22.359,15.946,51.49C353,257.016,372.351,322.08,374.27,337.917,377.359,363.428,365.782,508.3,365.782,508.3Z" transform="translate(-209.457 -22.671)" fill="#37474f"/>
    <path id="Path_3501" data-name="Path 3501" d="M333.971,374.969c-10.922-.234-7.8-.312-18.723-.421-5.336,0-40.411-.359-45.389.468a.109.109,0,1,0,0,.219c4.977.827,40.053.53,45.389.468,10.922-.094,7.8-.187,18.723-.421a.156.156,0,1,0,0-.312Z" transform="translate(-180.798 98.475)" fill="#263238"/>
    <path id="Path_3502" data-name="Path 3502" d="M342.212,322.971c-2.34-10.329-5.835-20.44-8.878-30.566q-9.362-30.894-18.723-61.741-4.681-15.416-9.362-30.847-2.387-7.8-4.821-15.6c-1.56-5.071-3.4-10.1-4.821-15.2-.593-2.091-.9-.936-.156,1.7,1.56,5.321,2.98,10.657,4.54,15.962q4.681,15.806,9.284,31.565,9.362,31.362,18.723,62.708,4.681,15.728,9.455,31.424a130.814,130.814,0,0,1,3.854,15.213,69.979,69.979,0,0,1,.624,16.258c-.671,10.922-1.95,21.844-2.949,32.766l-3.043,32.766q-3.027,32.626-5.976,65.22c-.25,2.762-.484,5.523-.7,8.27,0,.936.577,1.045.687.156,2.34-21.5,4.9-43.251,6.912-64.768s4.01-42.846,6.023-64.268c.5-5.383,1.077-10.782,1.077-16.18A66.985,66.985,0,0,0,342.212,322.971Z" transform="translate(-230.043 -17.242)" fill="#263238"/>
    <path id="Path_3503" data-name="Path 3503" d="M353.573,158.25c-4.2,32.516-12.2,93.461-18.037,137.68-13.653-53.58-35.606-137.68-35.606-137.68Z" transform="translate(-247.333 -22.671)" fill="#263238"/>
    <path id="Path_3504" data-name="Path 3504" d="M398.473,441.9c-3.479,1.139-102.636.219-106.38-2.216-1.451-.9-2.153-15.369-2.512-32.86v-.546c-.078-3.6-.14-7.318-.156-11.078v-1.56c-.234-25.245,1.56-51.49,1.56-51.49l64.814.421-1.81,50.959v2.013l-.359,10.548v1.092s37.665,17.428,41.535,20.549S401.953,440.776,398.473,441.9Z" transform="translate(-277.364 80.367)" fill="#eb9481"/>
    <path id="Path_3505" data-name="Path 3505" d="M289.432,389.42c.421,13.169,1.108,23.03,2.294,23.779,3.745,2.418,102.979,3.355,106.38,2.216s.515-11.109-3.308-14.2a145.955,145.955,0,0,0-15.494-8.145c3.9,4.213,5.851,8.878-4.556,8.878C356.244,401.949,323.946,398.907,289.432,389.42Z" transform="translate(-276.997 106.851)" fill="#263238"/>
    <path id="Path_3506" data-name="Path 3506" d="M401.4,158.25s-1.389,28.959-8.02,51.9c-.531,1.9-1.108,3.76-1.732,5.555a107.545,107.545,0,0,0-17.444,8.956s-.687,23.311-1.389,49.29c-.78,29.053-1.56,61.444-1.42,68.325.609,25.7-3.214,167.076-3.214,167.076l-71.4.281s12.919-157.87,12.826-167.294c-.14-15.135,3.464-82.04,6.241-130.83a385.658,385.658,0,0,1,6.678-53.253Z" transform="translate(-290.242 -22.671)" fill="#37474f"/>
    <path id="Path_3507" data-name="Path 3507" d="M383.74,375.26c-10.922-.187-7.8-.281-18.723-.343-5.336,0-40.411-.187-45.4.655-.109,0-.109.218,0,.234,4.993.8,40.068.343,45.4.265,10.922-.14,7.8-.218,18.723-.5a.156.156,0,1,0,0-.312Z" transform="translate(-308.237 98.715)" fill="#263238"/>
    <path id="Path_3508" data-name="Path 3508" d="M363.522,164.972c-1.311,39.834-2.7,79.684-4.478,119.487S347.873,467.435,345.47,489.637c0,.156.2.2.234,0,5.2-39.522,8.1-98,10.641-137.773s4.291-79.575,5.648-119.393c.765-22.531,1.357-45.061,2.028-67.576C364.037,164.629,363.538,164.66,363.522,164.972Z" transform="translate(-328.837 -19.048)" fill="#263238"/>
    <path id="Path_3509" data-name="Path 3509" d="M321.29,194.006a133.156,133.156,0,0,0-20.424,10.688.237.237,0,1,0,.218.421c6.9-3.339,13.918-6.569,20.611-10.282a.468.468,0,0,0-.406-.827Z" transform="translate(-216.907 -2.647)" fill="#263238"/>
    <path id="Path_3510" data-name="Path 3510" d="M313.747,178.256c-.468,2.528-1.092,5.04-1.638,7.567s-.889,4.774-1.56,7.115a12.2,12.2,0,0,1-3.308,5.976c-.936.858-1.966,1.56-2.949,2.418-.53.421-1.108.827-1.669,1.264.078-.328.14-.671.2-1.014.156-.967.328-1.935.484-2.9.359-2.122.7-4.275,1.03-6.413.64-4.213,1.233-8.472,2.122-12.638a.14.14,0,0,0-.265,0c-1.045,4.135-2.216,8.223-3.121,12.389-.453,2.044-2.044,12.123-2.122,12.841s-.14,1.56-.156,2.216a8.455,8.455,0,0,0,0,2.262c0,.187.265.156.343,0h0a8.284,8.284,0,0,0,.64-2.2c.187-.718.359-1.451.484-2.184a4.684,4.684,0,0,1,.125-.8c.983-.609,1.919-1.4,2.84-2.075s2.028-1.435,2.965-2.231a11.406,11.406,0,0,0,3.635-5.664,41.9,41.9,0,0,0,1.186-7.255c.312-2.855.546-5.742.952-8.6A.118.118,0,1,0,313.747,178.256Z" transform="translate(-208.974 -11.518)" fill="#263238"/>
    <path id="Path_3511" data-name="Path 3511" d="M318.474,71.908c-22.328,5.18-43.516,41.675-40.224,75.783,3.542,36.87,37.447,51.115,59.291,48.151,23.233-3.121,34.919-25.526,28.226-41.894-6.475-15.806-21.142-23.248-22.64-36.729-.7-6.46,1.982-17.506,1.342-27.087C343.766,79.444,331.955,68.788,318.474,71.908Z" transform="translate(-227.041 -71.356)" fill="#263238"/>
    <path id="Path_3512" data-name="Path 3512" d="M350.124,74.13a88.375,88.375,0,0,0-24.5,25.62,71.77,71.77,0,0,0-7.5,16.211,69.5,69.5,0,0,0-2.075,8.722,85.817,85.817,0,0,0-.952,8.909c-.531,11.889,1.7,24.184,7.942,34.482a50.569,50.569,0,0,0,11.749,13.4,51.489,51.489,0,0,0,15.6,8.441A51.817,51.817,0,0,1,323.9,167.544a61.086,61.086,0,0,1-7.505-33.921,82.211,82.211,0,0,1,.874-8.769,67.082,67.082,0,0,1,2-8.582,75.314,75.314,0,0,1,7.224-16.055A88.176,88.176,0,0,1,337.08,86.082,90.783,90.783,0,0,1,350.124,74.13Z" transform="translate(-267.694 -69.802)" fill="#263238"/>
    <path id="Path_3513" data-name="Path 3513" d="M277.968,91a56.074,56.074,0,0,0-.7,9.845,31.206,31.206,0,0,0,1.857,9.752,26.369,26.369,0,0,0,5.2,8.535c2.231,2.434,4.447,4.821,6.506,7.349a48.665,48.665,0,0,1,9.689,16.742,29.271,29.271,0,0,1-.64,19.129,28.209,28.209,0,0,0,2.528-9.518,24.117,24.117,0,0,0,0-4.977,29.112,29.112,0,0,0-.9-4.9,47.776,47.776,0,0,0-9.643-17.272c-2.091-2.559-4.384-4.946-6.616-7.333a27.212,27.212,0,0,1-5.133-8.114C277.531,104.294,277.468,97.569,277.968,91Z" transform="translate(-160.915 -60.35)" fill="#263238"/>
    <path id="Path_3514" data-name="Path 3514" d="M246.677,135.581c4.681,16.04,24.122,68.341,39.943,73.521,10.376,3.4,53.721,3.667,62.162-5.726,3.682-4.088,1.42-35.5-4.431-34.857s-40.723,1.56-44.827,0-32-41.394-42.892-51.677C237.83,99.1,244.2,126.937,246.677,135.581Z" transform="translate(-156.461 -49.119)" fill="#eb9481"/>
    <path id="Path_3515" data-name="Path 3515" d="M347.523,166.016l-3.87,46.434s-34.638,2.7-48.6-4.431c-16.96-8.644-35.325-67.451-37.619-77.016-3.791-15.712-.9-24.5,7.1-21.126,3.121,1.279,6.99,4.416,11.546,9.721s31.705,40.8,40.755,48.088C321.888,171.727,347.523,166.016,347.523,166.016Z" transform="translate(-172.397 -50.174)" fill="#ebebeb"/>
    <path id="Path_3516" data-name="Path 3516" d="M260.97,188.376c.374-6.881,2.9-34.966,3.854-41,0-.421.343-.484.328,0-.593,20.643-3.121,34.326-3.9,41.051A.145.145,0,0,1,260.97,188.376Z" transform="translate(-98.123 -28.956)" fill="#263238"/>
    <path id="Path_3517" data-name="Path 3517" d="M340.889,212.95c-11.172,0-25.994-.843-34.014-4.915-16.945-8.66-35.309-67.467-37.6-77.031-3.791-15.712-.9-24.5,7.1-21.126.234.094.484.218.733.343Z" transform="translate(-184.237 -50.174)" fill="#dbdbdb"/>
    <path id="Path_3518" data-name="Path 3518" d="M291.3,211.778c2.9,1.342,94.99-.546,94.99-.546s3.121-2.652,1.966-8.925c-1.014-5.664-9.565-33.359-9.565-33.359a21.407,21.407,0,0,0,3.323-16.789c-4.1-16.227-22.125-37.2-23.763-38.617a18.6,18.6,0,0,0-19.488-2.5c-21.36,9.923-42.955,65.392-49.04,87.376A17.99,17.99,0,0,0,291.3,211.778Z" transform="translate(-265.371 -50.063)" fill="#15ace5"/>
    <path id="Path_3519" data-name="Path 3519" d="M343.972,161.357a13.153,13.153,0,0,1,3.4-.78,11.873,11.873,0,0,1-3.121,1.56,13,13,0,0,1-3.417.8,12.029,12.029,0,0,1,3.136-1.576Zm-15.806,42.83a11.859,11.859,0,0,1,3.4-.765,13.528,13.528,0,0,1-6.506,2.4A12.623,12.623,0,0,1,328.167,204.186ZM372.26,141.2a12.076,12.076,0,0,1,2.824-.7,1.3,1.3,0,0,1,.078.265,14.337,14.337,0,0,1-2.59,1.3,13,13,0,0,1-3.4.765,13.013,13.013,0,0,1,3.167-1.623Zm-67.092,33.484a12.154,12.154,0,0,1,3.386-.765,12.482,12.482,0,0,1-3.121,1.56,12.747,12.747,0,0,1-3.4.8,11.688,11.688,0,0,1,3.2-1.591Zm55.453,29.505a11.859,11.859,0,0,1,3.4-.765,12.373,12.373,0,0,1-3.121,1.56,12.653,12.653,0,0,1-3.417.78,12.482,12.482,0,0,1,3.2-1.576ZM317.572,135.83h0l.983-.39a11.655,11.655,0,0,1,3.386-.78,13.014,13.014,0,0,1-3.12,1.56,11.191,11.191,0,0,1-1.872.546A5.136,5.136,0,0,0,317.572,135.83Zm13.34-18.4a11.922,11.922,0,0,1,.7,3.121,13.024,13.024,0,0,1-1.389-2.481Zm-28.085,89.124a12.17,12.17,0,0,1,.78,3.386,11.719,11.719,0,0,1-1.56-3.121,12.168,12.168,0,0,1-.78-3.386,12.2,12.2,0,0,1,1.513,3.074Zm41.316-16.118a12.139,12.139,0,0,1,.765,3.4,12.732,12.732,0,0,1-1.56-3.121,12.871,12.871,0,0,1-.78-3.4A12.484,12.484,0,0,1,344.144,190.44Zm-15.228-39.475a11.843,11.843,0,0,1,.765,3.417,13.01,13.01,0,0,1-1.56-3.121,12.094,12.094,0,0,1-.765-3.4,12.92,12.92,0,0,1,1.56,3.074Zm50.9,20.6a11.75,11.75,0,0,1,.78,3.4,12.2,12.2,0,0,1-1.56-3.121,11.642,11.642,0,0,1-.78-3.4,11.965,11.965,0,0,1,1.56,3.121Zm-14.043-48.79a13,13,0,0,1,.8,3.417,12.1,12.1,0,0,1-1.654-3.121,13.245,13.245,0,0,1-.765-3.417,13.323,13.323,0,0,1,1.654,3.121Zm-13.933-10.5a12.154,12.154,0,0,1,2.964,1.872,12.015,12.015,0,0,1-3.354-1.045,11.843,11.843,0,0,1-2.949-1.857,12.59,12.59,0,0,1,3.37,1.03ZM317.245,190.1a12.482,12.482,0,0,1,2.965,1.841,11.889,11.889,0,0,1-3.339-1.03,12.123,12.123,0,0,1-2.949-1.841,12.107,12.107,0,0,1,3.323,1.03Zm44.078-6.616a13.04,13.04,0,0,1,2.965,1.841,11.939,11.939,0,0,1-3.323-1.03A12.216,12.216,0,0,1,358,182.452a11.935,11.935,0,0,1,3.339,1.03Zm-9.471-38.2a12.576,12.576,0,0,1,2.965,1.857,12.809,12.809,0,0,1-3.339-1.03,12.574,12.574,0,0,1-2.965-1.857,12.047,12.047,0,0,1,3.355,1.03Zm-43.813,10.329a12.577,12.577,0,0,1,1.857-2.965,12.48,12.48,0,0,1-1.03,3.339,12.091,12.091,0,0,1-1.857,2.965,11.889,11.889,0,0,1,1.045-3.339ZM380.171,194.2a12.093,12.093,0,0,1,1.857-2.965,12.485,12.485,0,0,1-1.03,3.323,12.09,12.09,0,0,1-1.857,2.965,11.937,11.937,0,0,1,1.045-3.323Zm-15.228-30.66a12.577,12.577,0,0,1,1.857-2.965,11.779,11.779,0,0,1-1.03,3.323,12.093,12.093,0,0,1-1.857,2.965,12.672,12.672,0,0,1,1.045-3.323Zm-69.433,28.8a13.293,13.293,0,0,1,1.841-2.949,13.5,13.5,0,0,1-2.871,6.241,12.047,12.047,0,0,1,1.045-3.292Zm32.984-18.489a12.807,12.807,0,0,1,1.857-2.949,12.966,12.966,0,0,1-1.03,3.339,11.718,11.718,0,0,1-1.857,2.949,12.044,12.044,0,0,1,1.045-3.339Zm11.967-43.189a12.182,12.182,0,0,1,1.857-2.949,11.779,11.779,0,0,1-1.03,3.323A12.577,12.577,0,0,1,339.432,134a12.775,12.775,0,0,1,1.045-3.339Z" transform="translate(-267.284 -49.01)" fill="#fff"/>
    <path id="Path_3520" data-name="Path 3520" d="M298.112,147.969a93.133,93.133,0,0,1,13.84-.234c2.294.172,4.556.437,6.834.749,1.139.172,2.262.281,3.4.406a15.336,15.336,0,0,0,3.589,0,.078.078,0,0,1,0,.156,22.106,22.106,0,0,1-3.355.546,23.184,23.184,0,0,1-3.292,0c-2.325-.14-4.681-.39-6.959-.562-4.681-.343-9.362-.671-14.043-.671C297.893,148.359,297.893,147.985,298.112,147.969Z" transform="translate(-216.525 -28.648)" fill="#263238"/>
    <path id="Path_3521" data-name="Path 3521" d="M308.067,152.948a100.3,100.3,0,0,1,11.141-2.59c1.872-.312,3.76-.515,5.664-.687l2.731-.172h3c.109,0,.14.156,0,.172a17.634,17.634,0,0,0-2.809.484l-2.808.437c-1.872.3-3.76.609-5.633.874-3.776.562-7.521,1.155-11.265,1.841A.187.187,0,0,1,308.067,152.948Z" transform="translate(-236.949 -27.573)" fill="#263238"/>
    <path id="Path_3522" data-name="Path 3522" d="M393.891,110.39s3.121,240.285-3.464,251.534l-69.9-9.533s12.014-125.229,31.6-180.2C370.268,121.234,393.891,110.39,393.891,110.39Z" transform="translate(-320.526 -49.486)" fill="#ebebeb"/>
    <path id="Path_3523" data-name="Path 3523" d="M327.551,197.06a170.166,170.166,0,0,0,20.128,1.56c9.362,0,18.724-.921,21.47-.952.25,0,.359.8.2.811a214.736,214.736,0,0,1-21.5,1.56,112.548,112.548,0,0,1-19.613-1.857v5.539c6.631,1.279,19.441,3.511,40.146.843,0-.843,0-5.274.125-6.491,0-.187.8-.218.827,0,.172,1.2.655,11.874.671,14.043,0,5.352-.312,20.455-1.654,23.4-3.011,6.631-15.9,6.647-19.472,6.662s-15.072.39-19.394-3.823c-2.294-2.247-2.793-14.5-2.465-25.308C327.239,207.888,327.239,197.154,327.551,197.06Zm20.284,43.782c11.406,0,16.367-2.372,18.115-4.681,2.06-2.777,2.231-7.614,2.387-12.95.109-4.182,0-17.319,0-17.584-6.662,1.357-24.2,3.121-40.131-.53v17.413c0,4.509.281,12.077,2.574,14.7,1.919,2.138,8.862,3.635,17.116,3.635Z" transform="translate(-305.895 -0.926)" fill="#dbdbdb"/>
    <path id="Path_3524" data-name="Path 3524" d="M293.632,356.445c3.807,1.888,40.88-19.987,40.88-19.987L287.7,170.162a31.565,31.565,0,0,0,4.275-21.236c-2.06-11.858-23.888-35.731-27.9-37.447,0,0,3.121,2.153,6.07,33.827C277.077,219.468,289.84,354.573,293.632,356.445Z" transform="translate(-172.335 -48.875)" fill="#ebebeb"/>
    <path id="Path_3525" data-name="Path 3525" d="M299.77,113.46q2.808,4.26,5.711,8.441c1.966,2.777,3.87,5.586,5.867,8.332v-.64l-5.227,4.681-.437.374.437.421c2.044,1.966,4.135,3.9,6.241,5.835l-.156-.484c-.983,4.993-2.013,9.97-2.9,14.979s-1.81,10.017-2.621,15.041c1.248-4.946,2.387-9.908,3.5-14.885s2.153-9.955,3.214-14.932v-.265l-.218-.218c-2.06-1.966-4.1-3.932-6.241-5.867v.8l5.133-4.681.312-.3-.25-.343c-2.013-2.746-4.119-5.445-6.163-8.16S301.908,116.128,299.77,113.46Z" transform="translate(-206.902 -47.766)" fill="#c7c7c7"/>
    <path id="Path_3526" data-name="Path 3526" d="M367.61,124.029c-26.057,26.962-55.936,72.756-44.094,83.132,7.8,6.85,43.189-43.142,42.533-42.986-1.4.328,5.991-16.071,15.072-35.887C391.249,105.993,382.48,108.661,367.61,124.029Z" transform="translate(-311.877 -48.568)" fill="#eb9481"/>
    <path id="Path_3527" data-name="Path 3527" d="M381.255,112.561c-18.521,10.329-67.794,73.724-60.055,92.057s48.1-40.084,47.62-40.88,9.362-22.733,13.465-31.658S391.1,107.069,381.255,112.561Z" transform="translate(-312.758 -48.895)" fill="#ebebeb"/>
    <path id="Path_3528" data-name="Path 3528" d="M336.965,132.913c-.983,1.155-1.966,2.325-2.887,3.526-.172.218-.343.452-.5.687l.8-1.888a65.417,65.417,0,0,0,2.73-6.694c0-.094-.125-.156-.187,0a67.735,67.735,0,0,0-3.355,6.74c-1.061,2.2-2.138,4.416-3.121,6.647s-2.06,4.447-3.027,6.694a50.707,50.707,0,0,0-2.637,6.74.126.126,0,0,0,.234.094,50.2,50.2,0,0,0,3.448-6.694c1.045-2.216,2.028-4.462,3.027-6.709.421-.936.827-1.872,1.233-2.809l.5-.64c.468-.577.9-1.17,1.342-1.779.874-1.248,1.7-2.512,2.512-3.807C337.058,132.913,337,132.866,336.965,132.913Z" transform="translate(-269.623 -39.368)" fill="#263238"/>
    <path id="Path_3529" data-name="Path 3529" d="M327.454,112.07q-1.872,5.071-3.87,10.111c-1.357,3.355-2.652,6.725-4.041,10.048l-.172-.687,5.726,4.431.468.374-.328.515c-1.56,2.465-3.121,4.884-4.806,7.318l.078-.562c1.779,5.4,3.635,10.782,5.352,16.211s3.464,10.844,5.1,16.305c-2.028-5.321-3.979-10.657-5.9-16.009s-3.76-10.735-5.633-16.118l-.109-.3.172-.265c1.56-2.45,3.121-4.915,4.79-7.333l.14.874-5.648-4.556-.359-.281.172-.406c1.42-3.323,2.918-6.584,4.369-9.877S325.925,115.315,327.454,112.07Z" transform="translate(-253.575 -48.545)" fill="#c7c7c7"/>
    <path id="Path_3530" data-name="Path 3530" d="M303.987,120.276c-.78-6.787,4.681-9.471,9.721-10.407,6.007-1.108,10.048-.8,13.231,4.931a74.894,74.894,0,0,1,6.8,19.831,1.005,1.005,0,0,0,1.966-.421c-1.763-7.8-4.431-22.156-12.389-26.026-7.318-3.557-22.609,1.014-21.282,12.482.14,1.264,2.106.858,1.95-.421Z" transform="translate(-232.651 -51.384)" fill="#455a64"/>
    <path id="Path_3531" data-name="Path 3531" d="M308.242,127.648a4.572,4.572,0,1,1-1.979-2.9,4.587,4.587,0,0,1,1.979,2.9Z" transform="translate(-200.91 -41.857)" fill="#263238"/>
    <path id="Path_3532" data-name="Path 3532" d="M305.8,127.369a2.762,2.762,0,1,1-1.195-1.749,2.762,2.762,0,0,1,1.195,1.749Z" transform="translate(-200.245 -41.204)" fill="#ebebeb"/>
    <path id="Path_3533" data-name="Path 3533" d="M315.428,129c5.945,18.9,5.383,23.607,3.885,25.87a12.482,12.482,0,0,1-4.322,3.838l-.624-1.233.312.609-.312-.609a11.625,11.625,0,0,0,3.792-3.355c1.077-1.654,1.826-5.992-4.057-24.7Z" transform="translate(-236.181 -39.059)" fill="#c7c7c7"/>
    <path id="Path_3534" data-name="Path 3534" d="M320.7,147.146h0a1.56,1.56,0,0,1-.484,2.028l-1.56.983a1.56,1.56,0,0,1-2.044-.484h0a1.56,1.56,0,0,1,.484-2.044l1.56-.967a1.467,1.467,0,0,1,2.044.484Z" transform="translate(-240.379 -29.291)" fill="#263238"/>
    <path id="Path_3535" data-name="Path 3535" d="M327.991,129.766c-3.121,14.589-3.682,22.531-1.732,24.965a11.577,11.577,0,0,0,4.088,3l-.515,1.279a12.732,12.732,0,0,1-4.681-3.4c-2.309-2.918-1.888-10.485,1.451-26.135Z" transform="translate(-261.195 -38.796)" fill="#c7c7c7"/>
    <path id="Path_3536" data-name="Path 3536" d="M322.376,147.667h0a1.56,1.56,0,0,0,.671,1.982l1.67.811a1.56,1.56,0,0,0,1.982-.671h0a1.56,1.56,0,0,0-.671-1.982L324.358,147a1.467,1.467,0,0,0-1.982.671Z" transform="translate(-255.409 -29.064)" fill="#263238"/>
    <path id="Path_3537" data-name="Path 3537" d="M317,137.121a77.27,77.27,0,0,1,2.044-9.518,8.316,8.316,0,0,1,2.621-3.542c.281,0,0-2.465-.187-4.431a10.579,10.579,0,0,1-.109-4.353,1.357,1.357,0,0,1,1.9-.187c.515.484.624,2.528.765,4.275a14.7,14.7,0,0,0,.687,4.4,9,9,0,0,1,3.121,3.011,65.4,65.4,0,0,1,3.745,9.252c.546,2.028-.109,2.309-.687,2.543-.827.328-1.373-.218-2.138-2.45-1.2-3.557-2.793-9.533-5.289-9.362h0c-2.481.359-3.121,6.818-3.807,10.423-.406,2.262-.858,2.5-1.732,2.356C317.332,139.352,316.708,139.118,317,137.121Z" transform="translate(-252.081 -47.024)" fill="#263238"/>
    <path id="Path_3538" data-name="Path 3538" d="M307.811,133.78s-5.149-6.974-.109-10.111,9.018,4.587,9.018,4.587Z" transform="translate(-219.156 -42.466)" fill="#455a64"/>
    <path id="Path_3539" data-name="Path 3539" d="M325.548,178h0l.64,8.472.218,2.793-2.434-1.42-7.318-4.322h0l-32.2-51.848,8.894-5.523Z" transform="translate(-196.013 -40.656)" fill="#455a64"/>
    <path id="Path_3540" data-name="Path 3540" d="M286.636,164.81l.218,2.793-2.434-1.42Z" transform="translate(-156.414 -18.995)" fill="#37474f"/>
    <rect id="Rectangle_1111" data-name="Rectangle 1111" width="12.233" height="2.418" transform="matrix(0.849, -0.528, 0.528, 0.849, 87.567, 91.21)" fill="#263238"/>
    <rect id="Rectangle_1112" data-name="Rectangle 1112" width="12.233" height="2.418" transform="matrix(0.849, -0.528, 0.528, 0.849, 88.995, 93.495)" fill="#263238"/>
    <path id="Path_3541" data-name="Path 3541" d="M301.74,133.335l3.355-2.075,9.8,19.894-1.279.7Z" transform="translate(-211.477 -37.793)" fill="#263238"/>
    <path id="Path_3542" data-name="Path 3542" d="M312.291,190.879c10.75,9.487,51.489,2.153,77.156-6.943,4.884-1.716-13.294-45.124-18.3-42.752a141.248,141.248,0,0,1-16.321,6.709C353.42,148.158,300.511,180.441,312.291,190.879Z" transform="translate(-300.651 -32.285)" fill="#eb9481"/>
    <path id="Path_3543" data-name="Path 3543" d="M348,144.523c-.14,4.977-12.357,3.589-12.357,3.589a9.221,9.221,0,0,1,3.557,5.118c.811,3.7-4.681,6.569-4.681,6.569a11.3,11.3,0,0,1,2.918,5.976c.421,3.6-4.681,7.3-4.681,7.3a9.97,9.97,0,0,1-.78,6.881c-3.121,5.555-12.9,5.352-18.989,6.428a126.74,126.74,0,0,0-20.05,5.664l-9.7-45s26.759-14.7,34.077-14.043C323.391,133.445,348.215,136.924,348,144.523Z" transform="translate(-215.7 -36.826)" fill="#eb9481"/>
    <path id="Path_3544" data-name="Path 3544" d="M311.305,143.711a83.147,83.147,0,0,0-20.05-3.121.117.117,0,0,0,0,.234c6.662.39,13.372,2.559,20,3.214C311.414,144.038,311.477,143.757,311.305,143.711Z" transform="translate(-191.459 -32.565)" fill="#263238"/>
    <path id="Path_3545" data-name="Path 3545" d="M311.295,150a16.818,16.818,0,0,0-4.6-.406h-4.9c-3.277,0-6.538.156-9.814.374a.109.109,0,1,0,0,.218h9.783l4.884.187a19.88,19.88,0,0,0,4.681,0,.234.234,0,0,0-.031-.374Z" transform="translate(-192.588 -27.53)" fill="#263238"/>
    <path id="Path_3546" data-name="Path 3546" d="M310.746,158.8a12.015,12.015,0,0,0-4.166-.156l-4.462.125c-2.98,0-5.96.14-8.956.109a.109.109,0,1,0,0,.218c3.027,0,6.054.156,9.081.172H306.7a11.312,11.312,0,0,0,4.041-.343Z" transform="translate(-193.771 -22.515)" fill="#263238"/>
    <path id="Path_3547" data-name="Path 3547" d="M320.579,188.435c7.723,18.38,66.749,1.123,66.749,1.123l-2.965-49.118s-15.6,7.911-16.165,7.115S312.84,170.039,320.579,188.435Z" transform="translate(-312.138 -32.649)" fill="#ebebeb"/>
    <path id="Path_3548" data-name="Path 3548" d="M327.391,184.074c-.8-6.506-3.121-33.25-3.121-39.007,0-.406.25-.5.312-.078,2.84,19.441,2.652,32.766,3.121,39.1C327.656,184.167,327.406,184.245,327.391,184.074Z" transform="translate(-259.44 -30.255)" fill="#263238"/>
    <path id="Path_3549" data-name="Path 3549" d="M359.073,140.466a36.645,36.645,0,0,0-5.008,2.044c-1.467.655-2.933,1.311-4.4,2-3.121,1.467-6.241,3.011-9.44,4.587s-6.241,3.121-9.362,4.806-6.07,3.464-9.143,5.118c-.14,0,0,.281.125.218,3.121-1.56,6.366-2.98,9.518-4.509l9.362-4.478c3.121-1.482,6.241-2.949,9.362-4.447,1.56-.718,3.011-1.467,4.525-2.216a35.893,35.893,0,0,0,4.806-2.5.356.356,0,0,0-.343-.624Z" transform="translate(-287.269 -32.66)" fill="#263238"/>
    <path id="Path_3550" data-name="Path 3550" d="M358.57,171.339c0-.328-.172-.406-.25,0s-.078.546-.125.733c-2,.437-9.362,2.34-11.125,2.777-3.76.936-7.458,2.044-11.281,2.715a145.963,145.963,0,0,1-16.009,1.935.125.125,0,0,0,0,.234,140.907,140.907,0,0,0,16.1-1.233c3.87-.624,7.8-1.451,11.546-2.418,1.9-.5,3.792-1.03,5.664-1.56a28.3,28.3,0,0,0,5.321-1.872.422.422,0,0,0,.2-.359Z" transform="translate(-283.224 -15.491)" fill="#263238"/>
    <path id="Path_3551" data-name="Path 3551" d="M304.67,120.732c.094,1.56,2.5,12.81,9.284,14.979,4.26,1.357,7.879-13.59,7.879-13.59l.359-.889,5.055-12.482L313.7,96.594l-1.982-1.654s-1.155,3.5-2.559,7.8a2.077,2.077,0,0,1-.2.624l-.234.7c-.218.64-.437,1.311-.64,1.982s-.312,1-.453,1.56-.312,1.061-.468,1.56a87.006,87.006,0,0,0-2.5,11.562Z" transform="translate(-228.403 -58.142)" fill="#eb9481"/>
    <path id="Path_3552" data-name="Path 3552" d="M304.67,102.726A26.977,26.977,0,0,0,317.7,121.231l5.055-12.482L309.21,96.594l-1.982-1.654S306.074,98.357,304.67,102.726Z" transform="translate(-223.91 -58.142)" fill="#263238"/>
    <path id="Path_3553" data-name="Path 3553" d="M332.99,103.19c-.374,23.56-14.526,25.979-19.613,25.9-4.6-.078-20.284-.936-22.343-24.4s9-30.738,19.566-31.112S333.365,79.629,332.99,103.19Z" transform="translate(-212.489 -70.121)" fill="#eb9481"/>
    <path id="Path_3554" data-name="Path 3554" d="M295.137,91.622a11.33,11.33,0,0,1-1.56-.5,2.637,2.637,0,0,1-1.467-.811.827.827,0,0,1,.109-1.014,2.028,2.028,0,0,1,2.075-.265,2.965,2.965,0,0,1,1.794,1.279.874.874,0,0,1-.952,1.311Z" transform="translate(-177.585 -61.549)" fill="#263238"/>
    <path id="Path_3555" data-name="Path 3555" d="M301.384,90.5a11.639,11.639,0,0,0,1.56-.172,2.684,2.684,0,0,0,1.56-.484.843.843,0,0,0,.109-1.014,2.091,2.091,0,0,0-2-.7A3.121,3.121,0,0,0,300.6,89a.889.889,0,0,0,.78,1.5Z" transform="translate(-199.154 -61.983)" fill="#263238"/>
    <path id="Path_3556" data-name="Path 3556" d="M302.8,93.65s-.14,0-.14.125c-.078,1.56-.452,3.433-1.935,3.838v.094C302.523,97.6,302.975,95.179,302.8,93.65Z" transform="translate(-197.843 -58.865)" fill="#263238"/>
    <path id="Path_3557" data-name="Path 3557" d="M303.01,92.508c-2.559-.406-3.121,4.681-.811,5.118S305.148,92.852,303.01,92.508Z" transform="translate(-199.345 -59.518)" fill="#263238"/>
    <path id="Path_3558" data-name="Path 3558" d="M305.144,92.779c-.484.234-.983.687-1.56.671s-1.045-.609-1.389-1.17H302.1c-.14.983.125,2.044,1.155,2.309s1.748-.531,2.106-1.56C305.534,92.967,305.347,92.686,305.144,92.779Z" transform="translate(-202.524 -59.633)" fill="#263238"/>
    <path id="Path_3559" data-name="Path 3559" d="M294.605,94.17s.109,0,.109.156c-.265,1.56-.3,3.433,1.077,4.15v.094C294.044,98.086,294.106,95.621,294.605,94.17Z" transform="translate(-180.767 -58.574)" fill="#263238"/>
    <path id="Path_3560" data-name="Path 3560" d="M294.757,93.221c2.574.14,2.106,5.289-.281,5.165S292.573,93.1,294.757,93.221Z" transform="translate(-179.265 -59.107)" fill="#263238"/>
    <path id="Path_3561" data-name="Path 3561" d="M291.879,93.512c.374.312.733.843,1.217.921s1.03-.437,1.435-.936h.078a1.909,1.909,0,0,1-1.451,2.091c-.967.109-1.435-.811-1.56-1.81C291.551,93.652,291.723,93.387,291.879,93.512Z" transform="translate(-175.357 -58.961)" fill="#263238"/>
    <path id="Path_3562" data-name="Path 3562" d="M301.058,101.383a2.771,2.771,0,0,0,.687,1.56,4.307,4.307,0,0,0,1.7.515v.109a2.153,2.153,0,0,1-2.2-.265,1.716,1.716,0,0,1-.374-1.872C300.9,101.274,301.027,101.305,301.058,101.383Z" transform="translate(-198.469 -54.569)" fill="#263238"/>
    <path id="Path_3563" data-name="Path 3563" d="M300.869,104.179V107.7c0,.109-.3.125-.671.109h0a5.352,5.352,0,0,1-4.962-2.559c-.078-.125.078-.218.172-.14a8.254,8.254,0,0,0,4.681,1.935c.109-.312-.25-4.135-.078-4.135a9.689,9.689,0,0,1,2.5.858c0-5.04-.8-10.033-.718-15.057a.156.156,0,1,1,.312,0,82.029,82.029,0,0,1,1.389,16.133C303.506,105.5,301.291,104.413,300.869,104.179Z" transform="translate(-189.902 -61.717)" fill="#263238"/>
    <path id="Path_3564" data-name="Path 3564" d="M303.023,101.414a6.054,6.054,0,0,1-2.59,1.654,2.777,2.777,0,0,1-1.669,0c-1.17-.421-1.092-1.56-.8-2.45a7.176,7.176,0,0,1,.655-1.389A7.9,7.9,0,0,0,303.023,101.414Z" transform="translate(-193.428 -55.739)" fill="#263238"/>
    <path id="Path_3565" data-name="Path 3565" d="M302.093,102.57a2.777,2.777,0,0,1-1.669,0c-1.17-.421-1.092-1.56-.8-2.45a2.84,2.84,0,0,1,2.465,2.45Z" transform="translate(-195.088 -55.24)" fill="#ff9cbd"/>
    <path id="Path_3566" data-name="Path 3566" d="M292.176,103.122c3.76,1.123,6.382-6.694,6.382-6.694s7.8,1.716,12.779-8.894a17.663,17.663,0,0,1-5.461,8.488s14.043,1.56,22.3-8.675c0,0-3.589,5.336-6.241,6.943a16.414,16.414,0,0,0,9.923-4.4s.952,7.131,2.4,9.362c0,0,4.681-24.091-18.1-26.385,0,0-14.121-2.122-21.516,7.8S292.176,103.122,292.176,103.122Z" transform="translate(-213.802 -70.616)" fill="#263238"/>
    <path id="Path_3567" data-name="Path 3567" d="M324.041,95.259s-4.353-7.8-7.8-6.366-.749,12.482,3,14.339a3.979,3.979,0,0,0,5.523-1.56Z" transform="translate(-241.486 -61.629)" fill="#eb9481"/>
    <path id="Path_3568" data-name="Path 3568" d="M316.1,90.84s-.094,0,0,.109c2.621,1.389,3.792,4.072,4.525,6.8a2.184,2.184,0,0,0-3.214-.936v.14A2.434,2.434,0,0,1,320,98.1a10.548,10.548,0,0,1,1.061,2.294c.109.265.562.172.5-.109h0C321.994,96.738,319.794,91.573,316.1,90.84Z" transform="translate(-240.532 -60.44)" fill="#263238"/>
    <path id="Path_3569" data-name="Path 3569" d="M294.2,207.849l-58.62-4.79L269.1,130.1l58.62,4.774Z" transform="translate(-121.071 -38.443)" fill="#fff"/>
    <path id="Path_3570" data-name="Path 3570" d="M291.63,208.059l-58.62-4.79,33.5-72.959,58.62,4.775Z" transform="translate(-114.475 -38.325)" fill="#37474f"/>
    <path id="Path_3571" data-name="Path 3571" d="M270.239,131.654a5.149,5.149,0,0,1-2.762,2.855c-.577.25-.671-.5-.094-.733a3.776,3.776,0,0,0,1.857-1.794,3.113,3.113,0,0,0,.172-.406,2.715,2.715,0,0,0,.2-1.42.921.921,0,0,0-.281-.546h-.187a.718.718,0,0,0-.406,0,1.685,1.685,0,0,0-.718.374,4,4,0,0,0-.64.733,2.884,2.884,0,0,0-.3.421v.094a.643.643,0,0,0,0,.14v.094h-.827a5.724,5.724,0,0,1,.9-1.389,3.245,3.245,0,0,1,2.372-1.248,1.3,1.3,0,0,1,1.217,1.311A3.478,3.478,0,0,1,270.239,131.654Z" transform="translate(-111.979 -39.154)" fill="#c7c7c7"/>
    <path id="Path_3572" data-name="Path 3572" d="M267.314,131.894a5.227,5.227,0,0,1-2.777,2.855c-.577.25-.671-.5-.094-.733a3.776,3.776,0,0,0,1.857-1.794,3.115,3.115,0,0,0,.172-.406,2.714,2.714,0,0,0,.2-1.42.921.921,0,0,0-.281-.546h-.187a.718.718,0,0,0-.406,0,1.686,1.686,0,0,0-.718.375,4,4,0,0,0-.64.733,4.916,4.916,0,0,0-.3.421v.094a.635.635,0,0,0,0,.14v.094h-.827a6.237,6.237,0,0,1,.9-1.389,3.245,3.245,0,0,1,2.372-1.248,1.3,1.3,0,0,1,1.217,1.311A3.621,3.621,0,0,1,267.314,131.894Z" transform="translate(-104.452 -39.02)" fill="#c7c7c7"/>
    <path id="Path_3573" data-name="Path 3573" d="M264.5,132.134a5.242,5.242,0,0,1-2.762,2.855c-.593.25-.687-.5-.109-.733a3.776,3.776,0,0,0,1.857-1.794,1.856,1.856,0,0,0,.172-.406,2.715,2.715,0,0,0,.2-1.42.92.92,0,0,0-.281-.546h-.187a.718.718,0,0,0-.406,0,1.685,1.685,0,0,0-.718.374,3.993,3.993,0,0,0-.64.733,4.908,4.908,0,0,0-.3.421v.094a.64.64,0,0,0-.078.14v.094h-.827a6.24,6.24,0,0,1,.9-1.389,3.245,3.245,0,0,1,2.372-1.248,1.3,1.3,0,0,1,1.217,1.311A3.588,3.588,0,0,1,264.5,132.134Z" transform="translate(-97.052 -38.885)" fill="#c7c7c7"/>
    <path id="Path_3574" data-name="Path 3574" d="M261.46,132.374a5.242,5.242,0,0,1-2.762,2.855c-.593.25-.671-.5-.109-.733a3.885,3.885,0,0,0,1.872-1.794,3.114,3.114,0,0,0,.156-.406,2.715,2.715,0,0,0,.2-1.42.921.921,0,0,0-.281-.546h-.109a.78.78,0,0,0-.421,0,1.56,1.56,0,0,0-.7.374,3.575,3.575,0,0,0-.655.733,4.917,4.917,0,0,0-.3.421v.094a.641.641,0,0,0-.078.14v.094h-.827a6.243,6.243,0,0,1,.9-1.389,3.246,3.246,0,0,1,2.372-1.248,1.3,1.3,0,0,1,1.217,1.311A3.621,3.621,0,0,1,261.46,132.374Z" transform="translate(-89.423 -38.751)" fill="#c7c7c7"/>
    <path id="Path_3575" data-name="Path 3575" d="M258.52,132.614a5.243,5.243,0,0,1-2.762,2.855c-.593.25-.671-.5-.109-.733a3.886,3.886,0,0,0,1.872-1.794,3.123,3.123,0,0,0,.156-.406,2.715,2.715,0,0,0,.219-1.42,1.045,1.045,0,0,0-.3-.546h-.109a.779.779,0,0,0-.421,0,1.56,1.56,0,0,0-.7.374,3.575,3.575,0,0,0-.655.733,4.921,4.921,0,0,0-.3.421v.094l-.078.14v.094h-.827a6.239,6.239,0,0,1,.9-1.389,3.245,3.245,0,0,1,2.372-1.248A1.3,1.3,0,0,1,259,131.1,3.589,3.589,0,0,1,258.52,132.614Z" transform="translate(-81.895 -38.616)" fill="#c7c7c7"/>
    <path id="Path_3576" data-name="Path 3576" d="M255.606,132.854a5.242,5.242,0,0,1-2.762,2.855c-.593.25-.671-.5-.109-.733a3.885,3.885,0,0,0,1.872-1.794,3.121,3.121,0,0,0,.156-.406,2.715,2.715,0,0,0,.218-1.42,1.046,1.046,0,0,0-.3-.546h-.109a.78.78,0,0,0-.421,0,1.56,1.56,0,0,0-.7.374,3.572,3.572,0,0,0-.655.733,4.917,4.917,0,0,0-.3.421v.094a.736.736,0,0,0-.094.14s0,0,0,.094h-.827a6.243,6.243,0,0,1,.9-1.389,3.245,3.245,0,0,1,2.372-1.248,1.3,1.3,0,0,1,1.217,1.311,3.588,3.588,0,0,1-.468,1.513Z" transform="translate(-74.394 -38.482)" fill="#c7c7c7"/>
    <path id="Path_3577" data-name="Path 3577" d="M252.665,133.094a5.242,5.242,0,0,1-2.762,2.855c-.593.25-.671-.484-.094-.733a3.854,3.854,0,0,0,1.857-1.794,3.12,3.12,0,0,0,.156-.406,2.715,2.715,0,0,0,.218-1.42,1.045,1.045,0,0,0-.3-.546h-.109a.78.78,0,0,0-.421,0,1.56,1.56,0,0,0-.7.374,3.573,3.573,0,0,0-.655.733,4.91,4.91,0,0,0-.3.421v.094a.732.732,0,0,0-.094.14s0,0,0,.094h-.827a6.241,6.241,0,0,1,.9-1.389,3.277,3.277,0,0,1,2.372-1.248,1.3,1.3,0,0,1,1.217,1.311,3.588,3.588,0,0,1-.468,1.514Z" transform="translate(-66.867 -38.347)" fill="#c7c7c7"/>
    <path id="Path_3578" data-name="Path 3578" d="M249.725,133.334a5.242,5.242,0,0,1-2.762,2.855c-.593.25-.671-.484-.094-.733a3.854,3.854,0,0,0,1.857-1.794,3.123,3.123,0,0,0,.172-.406,2.871,2.871,0,0,0,.2-1.42,1.046,1.046,0,0,0-.3-.546H248.7a.78.78,0,0,0-.421,0,1.56,1.56,0,0,0-.7.374,3.574,3.574,0,0,0-.655.733,4.911,4.911,0,0,0-.3.421v.094a.735.735,0,0,0-.094.14v.094H245.7a6.24,6.24,0,0,1,.921-1.389,3.214,3.214,0,0,1,2.356-1.248,1.3,1.3,0,0,1,1.217,1.311,3.589,3.589,0,0,1-.468,1.513Z" transform="translate(-59.339 -38.213)" fill="#c7c7c7"/>
    <path id="Path_3579" data-name="Path 3579" d="M246.76,133.574A5.2,5.2,0,0,1,244,136.429c-.577.25-.671-.484-.094-.733a3.854,3.854,0,0,0,1.857-1.794,3.121,3.121,0,0,0,.172-.406,2.871,2.871,0,0,0,.2-1.42,1.045,1.045,0,0,0-.3-.546h-.109a.779.779,0,0,0-.421,0,1.56,1.56,0,0,0-.7.374,4.108,4.108,0,0,0-.655.733,2.829,2.829,0,0,0-.281.421v.094a.732.732,0,0,0-.094.14s0,0,0,.094h-.827A6.24,6.24,0,0,1,243.67,132a3.214,3.214,0,0,1,2.356-1.248,1.3,1.3,0,0,1,1.217,1.311A3.23,3.23,0,0,1,246.76,133.574Z" transform="translate(-51.786 -38.079)" fill="#c7c7c7"/>
    <path id="Path_3580" data-name="Path 3580" d="M243.845,133.814a5.2,5.2,0,0,1-2.762,2.855c-.577.25-.671-.484-.094-.733a3.854,3.854,0,0,0,1.857-1.794,4.251,4.251,0,0,0,.172-.39,2.777,2.777,0,0,0,.2-1.435.952.952,0,0,0-.3-.546h-.109a.78.78,0,0,0-.421,0,1.56,1.56,0,0,0-.7.375,4.1,4.1,0,0,0-.655.733,2.823,2.823,0,0,0-.281.421v.094a.734.734,0,0,0-.094.14s0,0,0,.094h-.843a6.241,6.241,0,0,1,.921-1.389,3.214,3.214,0,0,1,2.356-1.248,1.3,1.3,0,0,1,1.217,1.311A3.23,3.23,0,0,1,243.845,133.814Z" transform="translate(-44.285 -37.944)" fill="#c7c7c7"/>
    <path id="Path_3581" data-name="Path 3581" d="M240.88,134.014a5.2,5.2,0,0,1-2.762,2.855c-.577.25-.671-.484-.094-.733a3.854,3.854,0,0,0,1.857-1.794,3.123,3.123,0,0,0,.172-.406,2.7,2.7,0,0,0,.2-1.42.921.921,0,0,0-.281-.546h-.109a.78.78,0,0,0-.421,0,1.56,1.56,0,0,0-.7.374,4.1,4.1,0,0,0-.655.733,2.829,2.829,0,0,0-.281.421v.094a.731.731,0,0,0-.094.14v.094h-.843a6.241,6.241,0,0,1,.921-1.389,3.214,3.214,0,0,1,2.356-1.248,1.3,1.3,0,0,1,1.217,1.311,3.23,3.23,0,0,1-.484,1.514Z" transform="translate(-36.732 -37.832)" fill="#c7c7c7"/>
    <path id="Path_3582" data-name="Path 3582" d="M237.914,134.294a5.2,5.2,0,0,1-2.762,2.855c-.577.25-.671-.484-.094-.733a3.854,3.854,0,0,0,1.857-1.794,4.24,4.24,0,0,0,.172-.39,2.778,2.778,0,0,0,.2-1.435.921.921,0,0,0-.281-.546H236.9a.78.78,0,0,0-.421,0,1.56,1.56,0,0,0-.7.374,4.1,4.1,0,0,0-.655.733,2.827,2.827,0,0,0-.281.421v.094a.312.312,0,0,0-.078.14v.094h-.843a6.241,6.241,0,0,1,.921-1.389,3.214,3.214,0,0,1,2.372-1.248,1.3,1.3,0,0,1,1.2,1.311,3.229,3.229,0,0,1-.5,1.514Z" transform="translate(-29.179 -37.675)" fill="#c7c7c7"/>
    <path id="Path_3583" data-name="Path 3583" d="M269.211,144.09c2.091,6.756,8.519,15.6,8.41,20.939a6.007,6.007,0,0,1-4.213,5.82s4.774,3.308,3.885,8.067c-.468,2.434-4.774,3.854-4.774,3.854s3.713,2.809,2.668,6.99c-.843,3.323-5.04,4.244-5.04,4.244s2.309,4.369.374,7.474c-3.948,6.241-33.094,2.138-36.058-9.237-1.389-5.3,5.679-3.9,5.679-3.9s-9.674-4.478-8.956-10.516,9.767-3.651,9.767-3.651-9.362-4.416-7.973-10.594c1.42-6.428,10.079-2.5,10.079-2.5s-5.851-5.321-3.714-9.814c3.511-7.411,14.386,4.1,21,3.5l5.024-10.048Z" transform="translate(-64.065 -30.604)" fill="#eb9481"/>
    <path id="Path_3584" data-name="Path 3584" d="M238.9,158.969c-1.42-6.569,7.4-13.153,6.943-19.628-.624-8.753-11.39-1.794-15.275,10.236l-1.389,9.861Z" transform="translate(-29.228 -35.466)" fill="#eb9481"/>
    <path id="Path_3585" data-name="Path 3585" d="M266.228,178.573c.094,0,.109.156,0,.156a51.021,51.021,0,0,1-29.77-6.085c-.3-.172-.14-.7.2-.577a104.43,104.43,0,0,0,29.567,6.506Z" transform="translate(-60.785 -14.94)" fill="#263238"/>
    <path id="Path_3586" data-name="Path 3586" d="M266.609,172.18c.109,0,.094.2,0,.2-10.235.936-22.78-1.638-32.064-8.66-.328-.234-.374-.78,0-.53C241.082,167.406,257.107,171.634,266.609,172.18Z" transform="translate(-58.014 -19.937)" fill="#263238"/>
    <path id="Path_3587" data-name="Path 3587" d="M234.321,154.533c9.174,6.382,19.457,9.19,30.441,10.548.14,0,.094.218,0,.234-5.539.8-12.482-.8-17.725-2.5a29.271,29.271,0,0,1-12.9-7.973C233.962,154.7,234.134,154.392,234.321,154.533Z" transform="translate(-55.84 -24.773)" fill="#263238"/>
  </g>
  <g id="freepik--character-1--inject-19" transform="translate(280.933 56.239)">
    <path id="Path_3588" data-name="Path 3588" d="M137.68,441.793H292.3v-15.4l-13.372-15.6H137.68Z" transform="translate(5.65 115.386)" fill="#263238"/>
    <path id="Path_3589" data-name="Path 3589" d="M236.78,441.793h60.7v-31H252.383L236.78,426.3Z" transform="translate(-154.145 115.386)" fill="#37474f"/>
    <rect id="Rectangle_1113" data-name="Rectangle 1113" width="23.872" height="134.247" transform="translate(240.879 391.929)" fill="#263238"/>
    <rect id="Rectangle_1114" data-name="Rectangle 1114" width="53.611" height="134.247" transform="translate(187.268 391.929)" fill="#37474f"/>
    <rect id="Rectangle_1115" data-name="Rectangle 1115" width="69.495" height="10.797" transform="translate(144.173 479.726)" fill="#263238"/>
    <rect id="Rectangle_1116" data-name="Rectangle 1116" width="27.289" height="10.797" transform="translate(116.883 479.726)" fill="#37474f"/>
    <rect id="Rectangle_1117" data-name="Rectangle 1117" width="224.01" height="29.755" transform="translate(99.533 329.361)" fill="#37474f"/>
    <path id="Path_3590" data-name="Path 3590" d="M78.31,344.085H216.583L283.628,178.57H145.356Z" transform="translate(106.961 -14.724)" fill="#37474f"/>
    <path id="Path_3591" data-name="Path 3591" d="M99.8,344.085H204.558l67.03-165.515H166.846Z" transform="translate(85.471 -14.724)" fill="#455a64"/>
    <rect id="Rectangle_1118" data-name="Rectangle 1118" width="122.904" height="29.755" transform="translate(99.533 329.346)" fill="#455a64"/>
    <rect id="Rectangle_1119" data-name="Rectangle 1119" width="129.301" height="63.691" transform="translate(252.316 100.155)" fill="#37474f"/>
    <rect id="Rectangle_1120" data-name="Rectangle 1120" width="104.758" height="63.691" transform="translate(252.3 100.155)" fill="#37474f"/>
    <path id="Path_3592" data-name="Path 3592" d="M102.66,169.321c0,17.272,16.7,29.021,16.7,29.021h96.738V140.3H119.355S102.66,152.049,102.66,169.321Z" transform="translate(136.503 -36.166)" fill="#455a64"/>
    <path id="Path_3593" data-name="Path 3593" d="M119.391,198.327V140.3s-16.711,11.749-16.711,29.021S119.391,198.327,119.391,198.327Z" transform="translate(233.174 -36.166)" fill="#37474f"/>
    <path id="Path_3594" data-name="Path 3594" d="M201.133,190.483c-7.489-.312-14.963-.468-22.437-.593s-14.963-.109-22.453-.172-14.948,0-22.437.172l-11.218.218c-3.745.125-7.474.2-11.218.374,3.745.187,7.474.265,11.218.39l11.218.218c7.489.125,14.963.109,22.437.172s14.963,0,22.453-.172S193.644,190.811,201.133,190.483Z" transform="translate(137.872 -8.491)" fill="#37474f"/>
    <path id="Path_3595" data-name="Path 3595" d="M211.043,216.019c-7.474-.328-14.963-.484-22.437-.609s-14.963-.109-22.437-.172-14.963,0-22.453.172l-11.218.218c-3.729.14-7.474.2-11.218.39,3.745.172,7.489.25,11.218.374l11.218.218c7.489.125,14.963.125,22.453.187s14.948,0,22.437-.187S203.57,216.331,211.043,216.019Z" transform="translate(112.5 5.808)" fill="#37474f"/>
    <path id="Path_3596" data-name="Path 3596" d="M220.953,241.539c-7.474-.328-14.948-.468-22.437-.593s-14.963-.125-22.437-.187-14.963,0-22.437.187l-11.234.2c-3.729.14-7.474.218-11.218.39,3.745.172,7.489.25,11.218.374l11.234.218c7.474.125,14.948.125,22.437.187s14.963,0,22.437-.187S213.448,241.866,220.953,241.539Z" transform="translate(87.127 20.106)" fill="#37474f"/>
    <path id="Path_3597" data-name="Path 3597" d="M230.853,267.059c-7.489-.312-14.963-.468-22.453-.593s-14.948-.125-22.437-.187-14.963,0-22.437.187l-11.218.219c-3.745.125-7.489.2-11.218.374,3.729.187,7.474.25,11.218.39l11.218.218c7.474.125,14.963.109,22.437.172s14.963,0,22.437-.172S223.364,267.417,230.853,267.059Z" transform="translate(61.781 34.405)" fill="#37474f"/>
    <rect id="Rectangle_1121" data-name="Rectangle 1121" width="233.7" height="24.309" transform="translate(89.843 359.1)" fill="#263238"/>
    <path id="Path_3598" data-name="Path 3598" d="M181.411,178.57H152.5L65.56,398.134H94.472Z" transform="translate(229.071 -14.724)" fill="#263238"/>
    <path id="Path_3599" data-name="Path 3599" d="M65.56,137.75l28.865,11.343v52.348H65.56Z" transform="translate(316.057 -37.595)" fill="#263238"/>
    <rect id="Rectangle_1122" data-name="Rectangle 1122" width="116.21" height="8.519" transform="translate(178.421 383.41)" fill="#a6a6a6"/>
    <path id="Path_3600" data-name="Path 3600" d="M249.79,456.9c3.76,1.264,111.342,1.467,115.461-1.123,1.56-.967,2.512-16.633,3.121-35.59.125-4.1.234-8.332.328-12.623a526.025,526.025,0,0,1,5.024-57.5l-71.976-.343-3.043,57.5.3,12.623s-41.223,18.349-45.42,21.672S246.014,455.632,249.79,456.9Z" transform="translate(-248.134 81.169)" fill="#f7a9a0"/>
    <path id="Path_3601" data-name="Path 3601" d="M371.7,400.34c-.609,14.932-1.56,26.26-2.809,27.087-4.1,2.574-111.685,2.372-115.461,1.108s-.406-12.061,3.776-15.384c1.857-1.451,10.813-5.82,20.284-10.235h0s-9.362,7.552-5.914,8.644C289.8,417.222,351.916,404.6,371.7,400.34Z" transform="translate(-251.79 109.531)" fill="#15ace5"/>
    <path id="Path_3602" data-name="Path 3602" d="M356.508,226.3H317.376l-11.047,22.827s-98.423-.562-124.823,28.772c-32.173,35.887-33.952,193.32-33.952,193.32h69.994S228.1,343.629,236.272,332.972s102.292-7.552,127.85-30.16c23.732-21.017,12.186-82.243,14.043-76.454Z" transform="translate(-96.828 11.836)" fill="#263238"/>
    <path id="Path_3603" data-name="Path 3603" d="M197.631,486.79c3.932.453,109.126-22.094,112.59-25.5,1.326-1.279-1.061-16.789-4.478-35.45-.733-4.026-1.56-8.176-2.34-12.4-5.321-27.383-11.577-56.311-11.577-56.311L221.409,372,234.922,427.9l2.965,12.279s-36.417,26.65-39.819,30.769S193.668,486.431,197.631,486.79Z" transform="translate(-102.17 85.321)" fill="#f7a9a0"/>
    <path id="Path_3604" data-name="Path 3604" d="M291.686,357.13s6.241,28.928,11.577,56.311c.827,4.228,1.56,8.379,2.356,12.4.53,2.887,1.03,5.7,1.56,8.394,2.559,14.729,4.1,25.979,3,27.055-3.464,3.4-108.674,25.932-112.606,25.5s-2.949-11.7.421-15.821c1.56-1.826,9.362-7.973,17.694-14.308h0c10.657-8.082,22.094-16.461,22.094-16.461l-2.949-12.279-13.512-55.905Z" transform="translate(-102.047 85.321)" fill="#f7a9a0"/>
    <path id="Path_3605" data-name="Path 3605" d="M307.22,406.55c2.559,14.729,4.1,25.979,3,27.055-3.464,3.4-108.674,25.932-112.606,25.5s-2.949-11.7.421-15.821c1.56-1.826,9.362-7.973,17.694-14.308h0s-7.567,9.362-3.963,9.7C230.735,440.361,288.824,414.9,307.22,406.55Z" transform="translate(-102.149 113.011)" fill="#15ace5"/>
    <path id="Path_3606" data-name="Path 3606" d="M170.151,485.267l71.087-14.152s-29.9-130.69-24.777-137.305c8.457-10.922,71.945-10.438,103.65-32.438,25.76-17.881,13.028-75.222,13.028-75.222H264.58s-6.756,13.777-8.41,20.284c0,0-81.213,16.383-108.19,42.846C120.081,316.506,170.151,485.267,170.151,485.267Z" transform="translate(-41.207 11.934)" fill="#263238"/>
    <path id="Path_3607" data-name="Path 3607" d="M197.64,289.344a40.8,40.8,0,0,1,13.465-15.228c39.007-24.809,94.429-33.78,95.77-34.326.328-.125.452.234.109.343-11.375,3.76-87.985,20-105.709,47.105-6.553,10.033-5.18,23.264-4.494,34.826.858,14.043,2.512,27.992,4.681,41.878s4.681,27.6,7.614,41.3,5.929,27.539,8.894,41.316c.374,1.716.687,3.448,1.045,5.165a.125.125,0,1,1-.234,0c-3.7-13.84-7.489-27.648-10.7-41.628s-6.085-27.851-8.488-41.894a427.789,427.789,0,0,1-5.149-42.518C193.614,313.7,192.709,300.672,197.64,289.344Z" transform="translate(-96.781 19.562)" fill="#37474f"/>
    <path id="Path_3608" data-name="Path 3608" d="M183.575,195.463c.78-3.6,1.435-7.255,1.935-10.922a101.415,101.415,0,0,0,2.169-15.775c.484-8.753.484-19.363-7.13-25.214a31.643,31.643,0,0,0-12.092-5.211c-4.447-1.014-9.268-1.56-13.621.172a11.826,11.826,0,0,0-4.462,3.121,28.709,28.709,0,0,0-8.972,3.292c-3.417,1.311-5.867,4.681-7.552,7.8a48.261,48.261,0,0,0-4.15,11.921,29.194,29.194,0,0,0-.921,11.546,61.3,61.3,0,0,0,2.871,9.939,35.747,35.747,0,0,1,2.465,12.217.109.109,0,1,0,.218,0c.343-6.74-2.871-12.95-4.369-19.379a26.4,26.4,0,0,1-.265-11.109,63.657,63.657,0,0,1,3.511-12.482,21.314,21.314,0,0,1,6.616-9.362l-.172.14c-3.542,3.027-5.274,7.552-6.569,11.9a52.02,52.02,0,0,0-2.481,14.979,49.663,49.663,0,0,0,2.434,13.574,52.612,52.612,0,0,1,2.746,13.559,40.318,40.318,0,0,1-3.121,14.152,57.841,57.841,0,0,0-3.807,13.528,20.362,20.362,0,0,0,2.528,12.233c3.932,6.865,13.216,12.7,20.939,8.285a25.523,25.523,0,0,0,5.211-3.932,69.3,69.3,0,0,0,4.806-5.243,79.575,79.575,0,0,0,8.348-12.576A149.789,149.789,0,0,0,181.8,198.8c.718-2.356,1.4-4.681,2.044-7.1a150.152,150.152,0,0,1-4.15,16.133c-3.121,9.518-6.9,19.145-12.67,27.383a63.082,63.082,0,0,1-4.837,6.116c-1.9,2.122-3.979,4.01-6.007,5.992a.14.14,0,0,0,.172.2,51.489,51.489,0,0,0,9.986-10.345,69.965,69.965,0,0,0,7.583-12.794,135.743,135.743,0,0,0,9.658-28.928Z" transform="translate(124.318 -37.796)" fill="#a3564f"/>
    <path id="Path_3609" data-name="Path 3609" d="M262.341,197.723c-14.043,29.365-35.59,52.457-48.01,54.126-17.756,2.372-48.088-28.194-58.308-42.877-3.121-4.478,21.516-27.274,27.071-25.448,7.208,2.372,30.472,30,33.14,29.021,1.9-.718,22.047-16.352,32.017-24.341C268.3,172.181,266.538,188.939,262.341,197.723Z" transform="translate(4.736 -13.063)" fill="#f7a9a0"/>
    <path id="Path_3610" data-name="Path 3610" d="M228.786,224.991c-3.214-3.386-16.867-20.284-19.535-25.87s-9.19-21.953-5.18-24.419,6.319,2.184,6.319,2.184-1.654-7.38,2.606-9.5,7.614,5.243,7.614,5.243-1.155-7.692,3.261-9.5,6.522,6.148,6.522,6.148-1.373-6.99,2.887-6.943c5.133,0,6.241,13.216,9.611,19.082.78,1.342,17.6,25.916,17.6,25.916Z" transform="translate(-64.142 -23.823)" fill="#f7a9a0"/>
    <path id="Path_3611" data-name="Path 3611" d="M217.237,166.475c.811,9.689,2.855,13.777,8.628,21.407.109.156,0,.359-.218.2-6.335-6.959-9.627-11.718-8.894-21.594C216.8,166.007,217.19,166.007,217.237,166.475Z" transform="translate(-51.174 -21.696)" fill="#263238"/>
    <path id="Path_3612" data-name="Path 3612" d="M222.89,168.537c1.732,9.986,3.9,14.448,9.362,22.889,0,.109-.125.265-.2.14-6.054-7.8-9.237-12.654-9.658-22.874C222.375,168.241,222.812,168.085,222.89,168.537Z" transform="translate(-66.469 -20.497)" fill="#263238"/>
    <path id="Path_3613" data-name="Path 3613" d="M227.985,172.078c2.372,9.549,4.54,14.542,10.922,22.047a.187.187,0,1,1-.265.25c-7.224-7.021-9.97-13.231-10.922-22.2C227.548,171.563,227.829,171.47,227.985,172.078Z" transform="translate(-81.441 -18.592)" fill="#263238"/>
    <path id="Path_3614" data-name="Path 3614" d="M226.02,208.857s1.233-12.123.593-17.569-10.454-24.855-14.776-22.983c-5.57,2.434-2.106,14.776.39,20.58,0,0-12.9,5.617-12.326,15.01S226.02,208.857,226.02,208.857Z" transform="translate(-25.896 -20.546)" fill="#f7a9a0"/>
    <path id="Path_3615" data-name="Path 3615" d="M220.034,169.011c-3.479,5.9.281,13.309,2.262,19.145a.546.546,0,0,1-.515.765c-5.243,2.715-11.843,8.067-12.654,14.245a.148.148,0,0,1-.3,0c0-6.756,6.038-12.482,11.983-15.15-2.138-5.945-5.586-13.559-.843-19.036A.152.152,0,0,0,220.034,169.011Z" transform="translate(-35.403 -20.097)" fill="#263238"/>
    <path id="Path_3616" data-name="Path 3616" d="M171.332,232.5,155.1,201.151s13.34-11.687,21.641-17.163c10.922-7.177,16.227-4.774,11.874,10.7C185.718,205.1,171.332,232.5,171.332,232.5Z" transform="translate(80.625 -13.854)" fill="#15ace5"/>
    <path id="Path_3617" data-name="Path 3617" d="M180.427,220.568c-2.044-4.681-4.15-9.362-6.475-14.043-1.155-2.294-6.241-11.219-7.443-13.5,0-.125-.25,0-.187.109,1.2,2.949,5.851,12,7.021,14.292,2.325,4.572,4.681,8.582,6.9,13.2C180.3,220.817,180.489,220.693,180.427,220.568Z" transform="translate(72.841 -6.652)" fill="#263238"/>
    <path id="Path_3618" data-name="Path 3618" d="M155.1,200.471l15.868,30.644s14.4-27.383,17.288-37.743c1.389-4.915,1.794-8.519,1.357-10.922Z" transform="translate(80.986 -12.55)" opacity="0.1"/>
    <path id="Path_3619" data-name="Path 3619" d="M136.958,252.245h72.475s13.777-34.794,3.121-60.773c-4.852-11.827-13.325-13.528-22.218-10.5-2.231.765-31.206,18.365-37.556,30.1-4.213,7.8,1.03,18.146,1.03,18.146Z" transform="translate(82.482 -14.114)" fill="#15ace5"/>
    <path id="Path_3620" data-name="Path 3620" d="M160.915,212.25a33.655,33.655,0,0,1,11.047,1.794c1.794.562,3.573,1.155,5.336,1.81s3.7,1.451,5.6,1.966c.156,0,.078.265,0,.234-1.826-.468-3.651-.858-5.461-1.389s-3.573-1.155-5.367-1.7a54.263,54.263,0,0,0-11.078-2.528.1.1,0,1,1-.078-.187Z" transform="translate(78.81 4.146)" fill="#263238"/>
    <path id="Path_3621" data-name="Path 3621" d="M167.714,214.74c4.525-.858,9.05.109,13.528.936.14,0,.125.265,0,.234a48.071,48.071,0,0,0-13.45-.9.14.14,0,0,1-.078-.265Z" transform="translate(69.873 5.354)" fill="#263238"/>
    <path id="Path_3622" data-name="Path 3622" d="M164.847,192.711c-.577,1.56-9.58,11.25-16.992,10.033-2.4-.39-.811-13.653-.811-13.653l-.109-1.014-1.467-14.043,17.319-8.472,2.5-1.092s.14,3.885.281,8.706v1.482a20.586,20.586,0,0,0,.078,2.184,12.325,12.325,0,0,1,0,1.7v1.747a92.566,92.566,0,0,1-.8,12.42Z" transform="translate(120.126 -22.624)" fill="#f7a9a0"/>
    <path id="Path_3623" data-name="Path 3623" d="M165.646,173.115a28.35,28.35,0,0,1-18.63,14.932L145.55,174l17.319-8.472,2.5-1.092S165.506,168.341,165.646,173.115Z" transform="translate(120.028 -22.641)" fill="#263238"/>
    <path id="Path_3624" data-name="Path 3624" d="M140.78,161.09c-9.206,23.077,3.589,31.206,8.566,33.172,4.509,1.794,20.128,7.349,31.674-14.651s3.714-33.577-6.4-38.243S150.063,138.014,140.78,161.09Z" transform="translate(111.427 -36.782)" fill="#f7a9a0"/>
    <path id="Path_3625" data-name="Path 3625" d="M162.606,152.006a15.957,15.957,0,0,0,1.7.25,2.777,2.777,0,0,0,1.779,0,.858.858,0,0,0,.374-1.014,2.169,2.169,0,0,0-1.841-1.233,3.121,3.121,0,0,0-2.294.359.952.952,0,0,0,.281,1.638Z" transform="translate(93.549 -30.771)" fill="#263238"/>
    <path id="Path_3626" data-name="Path 3626" d="M156.611,156.448c-.515-.281-.952-.609-1.451-.921a2.746,2.746,0,0,1-1.3-1.233.889.889,0,0,1,.374-1,2.2,2.2,0,0,1,2.216.265,3.261,3.261,0,0,1,1.56,1.779.952.952,0,0,1-1.4,1.108Z" transform="translate(114.694 -28.988)" fill="#263238"/>
    <path id="Path_3627" data-name="Path 3627" d="M159.1,157.71s.094.125,0,.187c-.687,1.56-1.2,3.433,0,4.525v.094C157.5,161.58,158.2,159.067,159.1,157.71Z" transform="translate(106.881 -26.412)" fill="#263238"/>
    <path id="Path_3628" data-name="Path 3628" d="M158.827,157.021c2.59.811.765,5.96-1.654,5.2S156.643,156.366,158.827,157.021Z" transform="translate(109.216 -26.83)" fill="#263238"/>
    <path id="Path_3629" data-name="Path 3629" d="M154.84,157.443c.343.452.609,1.123,1.123,1.373a2.044,2.044,0,0,0,1.872-.452v.094c-.343.983-1.077,1.857-2.184,1.638s-1.389-1.342-1.279-2.418C154.45,157.474,154.7,157.272,154.84,157.443Z" transform="translate(114.109 -26.597)" fill="#263238"/>
    <path id="Path_3630" data-name="Path 3630" d="M166.712,155.59s-.14,0-.172.094c-.5,1.56-1.342,3.386-2.98,3.417v.094C165.4,159.553,166.493,157.2,166.712,155.59Z" transform="translate(90.862 -27.599)" fill="#263238"/>
    <path id="Path_3631" data-name="Path 3631" d="M166.726,154.255c-2.5-1.092-4.494,3.994-2.169,5.009S168.817,155.175,166.726,154.255Z" transform="translate(90.005 -28.433)" fill="#263238"/>
    <path id="Path_3632" data-name="Path 3632" d="M167.605,154.616c-.515.109-1.108.452-1.56.3s-.765-.9-.921-1.56c0-.078-.078,0-.094,0-.406.967-.484,2.106.374,2.652s1.732-.078,2.34-.967C167.84,154.9,167.808,154.569,167.605,154.616Z" transform="translate(87.94 -28.873)" fill="#263238"/>
    <path id="Path_3633" data-name="Path 3633" d="M163.9,166.336c-.5.265-1.045.671-1.56.53a4.463,4.463,0,0,1-1.56-.936h-.094a2.325,2.325,0,0,0,1.779,1.56,1.826,1.826,0,0,0,1.716-1.045C164.091,166.367,163.982,166.3,163.9,166.336Z" transform="translate(97.867 -21.806)" fill="#263238"/>
    <path id="Path_3634" data-name="Path 3634" d="M162.378,166.383a31.131,31.131,0,0,0-1.56,3.37c0,.109.218.25.593.421h0a5.648,5.648,0,0,0,5.882,0c.125-.078,0-.25-.109-.218a8.441,8.441,0,0,1-5.367-.406c0-.328,2.2-3.776,2.028-3.854a9.956,9.956,0,0,0-2.762-.359c2.372-4.681,5.492-9.1,7.8-13.871.078-.172-.156-.328-.265-.187a87.013,87.013,0,0,0-9,14.589C159.242,166.477,161.863,166.477,162.378,166.383Z" transform="translate(94.884 -30.045)" fill="#263238"/>
    <path id="Path_3635" data-name="Path 3635" d="M170.776,181.586a10.1,10.1,0,0,1-2.965-9.5,26.307,26.307,0,0,1-7.692-11.406c0,.531,0,4.353.156,6.241-13.965-7.349-15.057-20.1-15.057-20.1a26.712,26.712,0,0,0-9.362,7.4s2.7-9.128,9.253-13.762c8.02-5.7,27.96-1.747,33.905,10.735C185.4,164.7,170.776,181.586,170.776,181.586Z" transform="translate(120.173 -37.509)" fill="#a3564f"/>
    <path id="Path_3636" data-name="Path 3636" d="M156.386,158.711a28.662,28.662,0,0,0,6.74,5.133h0a24.231,24.231,0,0,1-8.862-9.939,23.029,23.029,0,0,1-1.81-5.445,15.962,15.962,0,0,1-.234-6.241c0-.156-.2-.2-.234,0a18.973,18.973,0,0,0-.624,6.241,17.163,17.163,0,0,0,1.779,5.929,19.674,19.674,0,0,0,3.214,4.462" transform="translate(113.546 -35.167)" fill="#a3564f"/>
    <path id="Path_3637" data-name="Path 3637" d="M142.068,175.382a4.866,4.866,0,0,1-1.186,0,3.926,3.926,0,0,1-3.058-2.138,4.681,4.681,0,0,1-.5-1.56l3.23-5.945s7.443-5.867,10.235-3S146.469,175.1,142.068,175.382Z" transform="translate(147.086 -24.034)" fill="#f7a9a0"/>
    <path id="Path_3638" data-name="Path 3638" d="M148.287,164.166v.109c-3.121.281-5.336,2.418-7.162,4.774a2.309,2.309,0,0,1,3.5.39.083.083,0,1,1-.109.125,2.637,2.637,0,0,0-3,0,13.464,13.464,0,0,0-1.966,1.81c-.2.2-.608,0-.421-.312h0C140.142,167.489,144.386,163.37,148.287,164.166Z" transform="translate(147.483 -22.85)" fill="#263238"/>
    <path id="Path_3639" data-name="Path 3639" d="M145.512,170.419a1.155,1.155,0,1,1-.53-1.451A1.155,1.155,0,0,1,145.512,170.419Z" transform="translate(143.611 -20.179)" fill="#fff"/>
    <path id="Path_3640" data-name="Path 3640" d="M143.03,169.661a.8.8,0,0,1-1.092.328.811.811,0,1,1,1.092-.328Z" transform="translate(148.855 -20.388)" fill="#fff"/>
    <path id="Path_3641" data-name="Path 3641" d="M217.343,197.519c4.338,27.461,8.02,65.532.234,75.346-5.7,7.162-53.05,18.6-68,21.844-5.336,1.139-18.255-35.684-12.685-37.447,7.255-2.294,55.421-10.111,56.576-13.5.655-1.919,5.57-32.86,8.379-46.263C207.107,172.352,215.829,187.908,217.343,197.519Z" transform="translate(79.192 -11.751)" fill="#f7a9a0"/>
    <path id="Path_3642" data-name="Path 3642" d="M260.614,269.031c-2.559,1.061-26.946,4.681-34.966,3.635a78.4,78.4,0,0,1-24.59-6.647c-12.264-5.648-21.079-10.157-22.843-14.043-2.06-4.509,2.621-6.85,21.844.343,12.732,4.759,18.567,1.139,22.811-2.824a87.376,87.376,0,0,1,36.573-20.6S270.459,264.943,260.614,269.031Z" transform="translate(-29.299 13.475)" fill="#f7a9a0"/>
    <path id="Path_3643" data-name="Path 3643" d="M207.593,251.393c4.525-3.963-18.115,0-22.9-4.806s1.56-7.8,8.067-8.394c22.484-2.247,32.251-11.936,47.667-8.628S207.593,251.393,207.593,251.393Z" transform="translate(-16.238 13.466)" fill="#f7a9a0"/>
    <path id="Path_3644" data-name="Path 3644" d="M164.889,234.3,133.48,218.217s4.057-17.257,7.661-26.525c4.774-12.233,10.423-13.325,15.884,1.794C160.691,203.659,164.889,234.3,164.889,234.3Z" transform="translate(139.619 -12.617)" fill="#15ace5"/>
    <path id="Path_3645" data-name="Path 3645" d="M155.569,211.525a31.527,31.527,0,0,0-3.011-1.7c.53-2.013,1.092-4.026,1.56-6.054.25-1.014.484-2.028.718-3.121s.577-2.387.8-3.37a.109.109,0,1,0-.218,0c-.406,1.264-.671,2.216-1.014,3.308-.25.78-.468,1.56-.687,2.356v-.64c0-1.155,0-2.278.094-3.433a.109.109,0,1,0-.218,0c0,1.155-.265,2.278-.343,3.417a16.106,16.106,0,0,0-.094,2.606c-.484,1.685-1.2,3.542-1.56,5.227a30.433,30.433,0,0,0,3.9,1.56S155.616,211.556,155.569,211.525Z" transform="translate(120.62 -4.303)" fill="#263238"/>
    <path id="Path_3646" data-name="Path 3646" d="M161.949,217.807c-4.416-2.652-8.847-5.243-13.418-7.63-2.278-1.2-11.609-5.492-13.9-6.647-.125,0-.2.125,0,.2,2.684,1.7,11.733,6.35,14.043,7.536,4.556,2.372,8.8,4.26,13.294,6.74C161.98,218.072,162.058,217.885,161.949,217.807Z" transform="translate(140.905 -0.739)" fill="#263238"/>
    <rect id="Rectangle_1123" data-name="Rectangle 1123" width="149.741" height="7.162" transform="translate(292.228 564.965)" fill="#a6a6a6"/>
    <rect id="Rectangle_1124" data-name="Rectangle 1124" width="564.965" height="7.162" transform="translate(363.518 564.965) rotate(-90)" fill="#a6a6a6"/>
    <path id="Path_3647" data-name="Path 3647" d="M117.123,89.234h50.928v-1.56H117.123C106.2,87.674,94.561,76.3,94.452,76.19L93.36,77.3C93.906,77.781,105.608,89.234,117.123,89.234Z" transform="translate(199.055 -72.086)" fill="#263238"/>
    <path id="Path_3648" data-name="Path 3648" d="M190.917,388.877a26.527,26.527,0,0,0,5.7-.64c29.739-6.506,22.562-73.334,15.6-112.45-3.792-21.47-7.661-69.277-7.661-94.756V133.27h-1.56v47.76c0,25.542,3.87,73.49,7.677,95.022,11.78,66.734,6.662,106.1-14.433,110.656-24.684,5.4-34.607-27.414-41.176-49.133a108.671,108.671,0,0,0-5.82-16.57c-7.052-13.434-16.913-29.1-30.784-31.081l-.218,1.56c13.169,1.872,22.749,17.163,29.645,30.238a112.348,112.348,0,0,1,5.711,16.3C159.836,358.591,168.995,388.877,190.917,388.877Z" transform="translate(109.924 -40.105)" fill="#ebebeb"/>
    <path id="Path_3649" data-name="Path 3649" d="M191.074,388.486a25.478,25.478,0,0,0,5.586-.64c29.411-6.428,22.234-72.928,15.338-112-3.791-21.485-7.661-69.324-7.661-94.819V133.27h-.78v47.76c0,25.526,3.87,73.443,7.677,94.959,11.827,66.968,6.584,106.427-14.745,111.093-24.965,5.477-35.013-27.539-41.628-49.4-2.091-6.928-3.9-12.919-5.789-16.508-7.006-13.34-16.8-28.912-30.488-30.863l-.109.78c13.325,1.888,22.983,17.272,29.911,30.441,1.857,3.526,3.651,9.487,5.742,16.383C160.305,358.357,169.417,388.471,191.074,388.486Z" transform="translate(109.798 -40.105)" fill="#e51515"/>
    <rect id="Rectangle_1125" data-name="Rectangle 1125" width="43.501" height="57.372" transform="translate(291.994 32.454)" fill="#dbdbdb"/>
    <rect id="Rectangle_1126" data-name="Rectangle 1126" width="35.231" height="47.698" transform="translate(296.129 37.572)" fill="#ebebeb"/>
    <path id="Path_3650" data-name="Path 3650" d="M116.27,137.676H151.5V111.385a30.394,30.394,0,0,1-10.641,2.59c-7.162,0-11.265-2.34-14.963-2.59a19.1,19.1,0,0,0-9.627,1.685Z" transform="translate(179.859 -52.406)" fill="#ff0009"/>
    <path id="Path_3651" data-name="Path 3651" d="M121.23,90.29h21.5l1.56,6.366H119.67Zm10.75,4.353a1.17,1.17,0,1,0-1.17-1.17A1.17,1.17,0,0,0,131.981,94.643Z" transform="translate(181.764 -64.186)" fill="#dbdbdb"/>
    <rect id="Rectangle_1127" data-name="Rectangle 1127" width="3.901" height="6.662" transform="translate(311.794 89.841)" fill="#dbdbdb"/>
    <path id="Path_3652" data-name="Path 3652" d="M177.83,235.322c0,2.028,3.87,3.682,8.66,3.682s8.675-1.654,8.675-3.682-3.885-3.682-8.675-3.682S177.83,233.231,177.83,235.322Z" transform="translate(40.144 15.01)" fill="#fff"/>
    <path id="Path_3653" data-name="Path 3653" d="M123.27,107.237v2.933H128.5V115.4h2.949V110.17h5.211v-2.933h-5.211V102.01H128.5v5.227Z" transform="translate(183.781 -57.62)" fill="#3498db"/>
    <rect id="Rectangle_1128" data-name="Rectangle 1128" width="1.56" height="13.028" transform="translate(312.964 15.884)" fill="#263238"/>
  </g>
</svg>
