<svg xmlns="http://www.w3.org/2000/svg" width="1817" height="608.68" viewBox="0 0 1817 608.68">
  <g id="Rising-cuate" transform="translate(812.604 -46.31)">
    <path id="Path_3809" data-name="Path 3809" d="M0,0,1007.125-8.625,916.5,38.7,0,45Z" transform="translate(-812.604 563.811)" fill="#15ace5"/>
    <g id="freepik--background-complete--inject-87" transform="translate(80.191 70.719)">
      <rect id="Rectangle_1129" data-name="Rectangle 1129" width="39.101" height="16.523" transform="translate(21.81 383.583)" fill="#ebebeb"/>
      <rect id="Rectangle_1130" data-name="Rectangle 1130" width="39.101" height="16.523" transform="translate(0 404.418)" fill="#ebebeb"/>
      <rect id="Rectangle_1131" data-name="Rectangle 1131" width="39.101" height="16.523" transform="translate(524.911 227.031)" fill="#ebebeb"/>
      <rect id="Rectangle_1132" data-name="Rectangle 1132" width="39.101" height="16.523" transform="translate(503.101 247.867)" fill="#ebebeb"/>
      <rect id="Rectangle_1133" data-name="Rectangle 1133" width="39.101" height="16.523" transform="translate(481.38 227.031)" fill="#ebebeb"/>
      <rect id="Rectangle_1134" data-name="Rectangle 1134" width="39.101" height="16.523" transform="translate(857.684 404.418)" fill="#ebebeb"/>
      <rect id="Rectangle_1135" data-name="Rectangle 1135" width="39.101" height="16.523" transform="translate(835.874)" fill="#ebebeb"/>
      <rect id="Rectangle_1136" data-name="Rectangle 1136" width="39.101" height="16.523" transform="translate(857.684 20.835)" fill="#ebebeb"/>
      <rect id="Rectangle_1137" data-name="Rectangle 1137" width="39.101" height="16.523" transform="translate(21.81)" fill="#ebebeb"/>
      <path id="Path_3654" data-name="Path 3654" d="M216.289,234l-9.509,20.939,6.423,2.953a5.478,5.478,0,0,1,3.175,4.77,33.231,33.231,0,0,0,.34,3.426,5.478,5.478,0,0,1-2.185,5.286l-5.729,4.105L222.2,294.169l5.729-4.09a5.463,5.463,0,0,1,5.715-.384,31.3,31.3,0,0,0,3.13,1.477,5.478,5.478,0,0,1,3.5,4.548l.679,7.014,22.888-2.259-.694-7.029a5.478,5.478,0,0,1,2.555-5.139c.473-.3.945-.62,1.4-.945s.915-.664,1.358-1.019a5.434,5.434,0,0,1,5.656-.783l6.453,2.953,9.495-20.939-6.423-2.953a5.478,5.478,0,0,1-3.175-4.77,33.3,33.3,0,0,0-.325-3.411,5.478,5.478,0,0,1,2.185-5.286l5.729-4.1-13.408-18.694-5.715,4.105a5.493,5.493,0,0,1-5.715.369,27.949,27.949,0,0,0-3.116-1.4,5.464,5.464,0,0,1-3.5-4.548l-.694-7.029-22.888,2.259.694,7.029a5.478,5.478,0,0,1-2.555,5.109c-.487.31-.96.635-1.477.96l-1.358,1.019a5.464,5.464,0,0,1-5.685.783Zm21.16,11.813a81.425,81.425,0,1,0,0,.074Z" transform="translate(-6.786 11.995)" fill="#ebebeb"/>
      <path id="Path_3655" data-name="Path 3655" d="M650.545,109.71l-9.628,5.567,1.7,2.953a2.643,2.643,0,0,1-.089,2.776,12.75,12.75,0,0,0-.842,1.477,2.628,2.628,0,0,1-2.348,1.477H636v11.119h3.4a2.628,2.628,0,0,1,2.348,1.477,13.951,13.951,0,0,0,.842,1.477,2.643,2.643,0,0,1,.089,2.776l-1.7,2.953,9.628,5.552,1.7-2.953a2.658,2.658,0,0,1,2.466-1.285h1.624a2.613,2.613,0,0,1,2.451,1.285l1.713,2.953,9.628-5.552-1.7-2.953a2.628,2.628,0,0,1,.089-2.761,15.619,15.619,0,0,0,.827-1.477,2.643,2.643,0,0,1,2.363-1.477h3.4V123.974h-3.4A2.673,2.673,0,0,1,669.4,122.5a12.427,12.427,0,0,0-.827-1.477,2.644,2.644,0,0,1-.089-2.776l1.7-2.953-9.628-5.567-1.713,2.953a2.643,2.643,0,0,1-2.437,1.285h-1.639a2.643,2.643,0,0,1-2.466-1.3Zm4.976,10.632a9.1,9.1,0,1,1-6.447,2.664,9.111,9.111,0,0,1,6.447-2.664Z" transform="translate(197.792 -40.501)" fill="#ebebeb"/>
      <path id="Path_3656" data-name="Path 3656" d="M88.8,151.452l6.748,8.86,2.7-2.082a2.628,2.628,0,0,1,2.761-.251c.5.236,1.019.443,1.477.635a2.628,2.628,0,0,1,1.757,2.141l.443,3.367,11.03-1.477-.443-3.367a2.658,2.658,0,0,1,1.137-2.525,14.916,14.916,0,0,0,1.329-1,2.643,2.643,0,0,1,2.732-.458l3.189,1.285,4.267-10.336-3.16-1.3a2.658,2.658,0,0,1-1.595-2.274,2.588,2.588,0,0,0-.089-.812,5.13,5.13,0,0,1-.118-.812,2.6,2.6,0,0,1,.96-2.584l2.687-1.964-6.748-8.86-2.717,2.067a2.658,2.658,0,0,1-2.761.266,15.051,15.051,0,0,0-1.477-.635,2.658,2.658,0,0,1-1.757-2.141l-.443-3.381-11.03,1.477.443,3.381a2.628,2.628,0,0,1-1.137,2.51,14.839,14.839,0,0,0-1.314,1.019,2.658,2.658,0,0,1-2.747.443l-3.145-1.3L87.52,141.6l3.145,1.314a2.614,2.614,0,0,1,1.595,2.259l.089.812a1.716,1.716,0,0,0,.133.812,2.643,2.643,0,0,1-.975,2.6Zm9.893-6.305a9.111,9.111,0,1,1,10.2,7.87,9.111,9.111,0,0,1-10.2-7.87Z" transform="translate(-63.628 -33.78)" fill="#ebebeb"/>
      <rect id="Rectangle_1138" data-name="Rectangle 1138" width="119.681" height="145.167" transform="translate(220.8 19.639)" fill="#ebebeb"/>
      <rect id="Rectangle_1139" data-name="Rectangle 1139" width="92.333" height="118.676" transform="translate(234.474 32.884)" fill="#fff"/>
      <rect id="Rectangle_1140" data-name="Rectangle 1140" width="3.603" height="118.676" transform="translate(234.474 32.884)" fill="#dbdbdb"/>
      <rect id="Rectangle_1141" data-name="Rectangle 1141" width="3.603" height="145.167" transform="translate(340.481 19.639)" fill="#dbdbdb"/>
      <rect id="Rectangle_1142" data-name="Rectangle 1142" width="21.765" height="64.868" transform="translate(265.424 49.245)" fill="#dbdbdb"/>
      <rect id="Rectangle_1143" data-name="Rectangle 1143" width="58.046" height="31.777" transform="translate(255.914 93.411)" fill="none" stroke="#ebebeb" stroke-width="1"/>
      <rect id="Rectangle_1144" data-name="Rectangle 1144" width="119.681" height="145.167" transform="translate(552.701 19.639)" fill="#ebebeb"/>
      <rect id="Rectangle_1145" data-name="Rectangle 1145" width="92.333" height="118.676" transform="translate(566.375 32.884)" fill="#fff"/>
      <rect id="Rectangle_1146" data-name="Rectangle 1146" width="3.603" height="118.676" transform="translate(566.375 32.884)" fill="#dbdbdb"/>
      <rect id="Rectangle_1147" data-name="Rectangle 1147" width="3.603" height="145.167" transform="translate(672.382 19.639)" fill="#dbdbdb"/>
      <rect id="Rectangle_1148" data-name="Rectangle 1148" width="21.765" height="64.868" transform="translate(597.325 49.245)" fill="#dbdbdb"/>
      <rect id="Rectangle_1149" data-name="Rectangle 1149" width="58.046" height="31.777" transform="translate(587.815 93.411)" fill="none" stroke="#ebebeb" stroke-width="1"/>
      <rect id="Rectangle_1150" data-name="Rectangle 1150" width="119.681" height="145.167" transform="translate(386.743 19.639)" fill="#ebebeb"/>
      <rect id="Rectangle_1151" data-name="Rectangle 1151" width="92.333" height="118.676" transform="translate(400.432 32.884)" fill="#fff"/>
      <rect id="Rectangle_1152" data-name="Rectangle 1152" width="3.603" height="118.676" transform="translate(400.432 32.884)" fill="#dbdbdb"/>
      <rect id="Rectangle_1153" data-name="Rectangle 1153" width="3.603" height="145.167" transform="translate(506.439 19.639)" fill="#dbdbdb"/>
      <rect id="Rectangle_1154" data-name="Rectangle 1154" width="18.65" height="47.163" transform="translate(437.657 63.554)" fill="#ebebeb"/>
      <rect id="Rectangle_1155" data-name="Rectangle 1155" width="50.102" height="32.515" transform="translate(425.844 92.215)" fill="none" stroke="#dbdbdb" stroke-width="1"/>
    </g>
    <g id="freepik--Shadow--inject-87" transform="translate(65.366 582.074)">
      <ellipse id="Ellipse_164" data-name="Ellipse 164" cx="463.218" cy="36.458" rx="463.218" ry="36.458" fill="#ebebeb"/>
    </g>
    <g id="freepik--Chart--inject-87" transform="translate(178.933 307.112)">
      <rect id="Rectangle_1156" data-name="Rectangle 1156" width="46.735" height="100.972" transform="translate(78.01 118.145)" fill="#15ace5"/>
      <g id="Group_246" data-name="Group 246" transform="translate(114.055 118.145)" opacity="0.1">
        <rect id="Rectangle_1157" data-name="Rectangle 1157" width="10.706" height="100.972"/>
      </g>
      <rect id="Rectangle_1158" data-name="Rectangle 1158" width="46.735" height="139.143" transform="translate(139.585 79.974)" fill="#15ace5"/>
      <g id="Group_247" data-name="Group 247" transform="translate(175.63 79.974)" opacity="0.1">
        <rect id="Rectangle_1159" data-name="Rectangle 1159" width="10.706" height="139.143"/>
      </g>
      <rect id="Rectangle_1160" data-name="Rectangle 1160" width="46.735" height="78.232" transform="translate(16.568 140.885)" fill="#15ace5"/>
      <g id="Group_248" data-name="Group 248" transform="translate(52.597 140.885)" opacity="0.1">
        <rect id="Rectangle_1161" data-name="Rectangle 1161" width="10.706" height="78.232"/>
      </g>
      <rect id="Rectangle_1162" data-name="Rectangle 1162" width="46.735" height="189.953" transform="translate(201.176 29.163)" fill="#15ace5"/>
      <g id="Group_249" data-name="Group 249" transform="translate(237.205 29.163)" opacity="0.1">
        <rect id="Rectangle_1163" data-name="Rectangle 1163" width="10.706" height="189.953"/>
      </g>
      <path id="Path_3657" data-name="Path 3657" d="M138.21,407.546V388.07s170.24-11.208,239.036-156.39l6.837,1.358S338.411,381.9,138.21,407.546Z" transform="translate(-138.21 -218.76)" fill="#37474f"/>
      <path id="Path_3658" data-name="Path 3658" d="M315.98,242.1l-21.5-5.493L312.3,222.93Z" transform="translate(-63.728 -222.93)" fill="#37474f"/>
    </g>
    <g id="freepik--Floor--inject-87" transform="translate(52.77 525.18)">
      <path id="Path_3659" data-name="Path 3659" d="M52.77,371.348l118.957-.354,118.957-.133,237.9-.251,237.9.251,118.957.133,118.957.354-118.957.369-118.957.118-237.9.251-237.9-.251-118.957-.118Z" transform="translate(-52.77 -370.61)" fill="#263238"/>
    </g>
    <g id="freepik--Plant--inject-87" transform="translate(867.631 287.443)">
      <path id="Path_3660" data-name="Path 3660" d="M656.32,343.936s13.806-49.526,24.822-66.345S712.7,242.3,712.7,242.3,712.21,318.642,656.32,343.936Z" transform="translate(-579.964 -194.029)" fill="#15ace5"/>
      <path id="Path_3661" data-name="Path 3661" d="M657.032,336.6a237.392,237.392,0,0,0,12.581-24,168.013,168.013,0,0,1,6.852-26.033c0-.162.281-.074.251.089-1.831,7.811-3.972,15.578-5.907,23.375,5.582-12.049,10.868-24.261,17.5-35.661a76.872,76.872,0,0,1,6.394-15.844c0-.148.325,0,.251.089A103.117,103.117,0,0,0,690.64,270.5a121.474,121.474,0,0,1,10.484-14.486c.251-.281.724,0,.487.34-8.86,11.326-14.988,24.2-20.82,37.241a198.274,198.274,0,0,0,17.321-21.647s.162,0,.118.089a177.2,177.2,0,0,1-18.546,24.04c-4.238,9.554-8.417,19.2-13.482,28.233,10.115-8.55,17.9-19.624,25.6-30.3a.236.236,0,0,1,.384.266c-7.708,11.71-15.682,22.74-26.771,31.423a121.865,121.865,0,0,1-7.383,11.562.6.6,0,0,1-1-.664Z" transform="translate(-579.672 -187.546)" fill="#263238"/>
      <path id="Path_3662" data-name="Path 3662" d="M656.293,359.576s24.807-45.657,17.6-89.927-14.914-60.04-14.914-60.04S619.983,278.465,656.293,359.576Z" transform="translate(-587.35 -209.61)" fill="#15ace5"/>
      <path id="Path_3663" data-name="Path 3663" d="M644.505,280.8a216.412,216.412,0,0,0,9.569,36.916c.074-16.243.384-32.486.812-48.729a126.393,126.393,0,0,1-4.681-30.359c0-.3.443-.281.458,0a171.893,171.893,0,0,0,4.356,26.048q.561-20.112,1.3-40.209a.177.177,0,0,1,.354,0c0,20.924,0,41.862-.148,62.8a168.231,168.231,0,0,0,7.162-24.866c0-.089.148,0,.133,0-.738,9.79-3.706,19.2-7.383,28.307-.1,13.393-.251,26.771-.546,40.149,4.194-14.22,8.683-28.056,9.893-43.044a.162.162,0,0,1,.31,0c-.325,16.568-4.592,33.4-10.071,48.994a.886.886,0,0,1-.281.4c-.118,4.888-.251,9.775-.428,14.663a.546.546,0,0,1-1.078,0q-.281-15.017-.251-30.02a134.538,134.538,0,0,1-9.775-41.094.149.149,0,0,1,.295.044Z" transform="translate(-585.736 -202.613)" fill="#263238"/>
      <path id="Path_3664" data-name="Path 3664" d="M645.737,257.847a85.07,85.07,0,0,1,1.728,12.064c0,.133-.207.148-.236,0a86.942,86.942,0,0,1-2.038-12.02C645.161,257.6,645.678,257.537,645.737,257.847Z" transform="translate(-585.269 -186.718)" fill="#263238"/>
      <path id="Path_3665" data-name="Path 3665" d="M655.816,235.2c0-.133.236-.089.236,0a31.214,31.214,0,0,1-1.24,8.313.177.177,0,0,1-.34-.1C655,240.7,655.344,237.9,655.816,235.2Z" transform="translate(-580.848 -197.455)" fill="#263238"/>
      <path id="Path_3666" data-name="Path 3666" d="M667.2,345.12s-5.227-47.385-21.884-69.091-40.711-30.7-40.711-30.7S624.633,327.43,667.2,345.12Z" transform="translate(-604.61 -192.585)" fill="#15ace5"/>
      <path id="Path_3667" data-name="Path 3667" d="M632.181,303.067A176.13,176.13,0,0,0,653.592,323.9q-5.907-13.954-13.142-27.259c-8.476-5.67-16.922-11.577-22.784-20.082a.133.133,0,0,1,.207-.162c6.069,7.383,13.629,12.994,21.5,18.281a369.466,369.466,0,0,0-24.29-38.614.31.31,0,0,1,.487-.369,225.607,225.607,0,0,1,14.663,20.008c-1.934-4.873-3.618-9.908-5.582-14.766a.118.118,0,0,1,.207-.089,86.221,86.221,0,0,1,8.2,19.314,242.355,242.355,0,0,1,16.243,30.758c-1.285-7.029-2.658-14.028-4.312-21,0-.133.192-.192.236,0a116.664,116.664,0,0,1,5.2,23.478q4.312,10.189,7.737,20.673c0,.192-.221.31-.3.118q-1.7-4.43-3.529-8.653h-.162c-8.24-6.32-16.243-13.718-22-22.415C632.077,303.067,632.136,303.023,632.181,303.067Z" transform="translate(-599.636 -187.684)" fill="#263238"/>
      <path id="Path_3668" data-name="Path 3668" d="M612.667,263.128c1.728,1.477,3.337,2.953,5.021,4.43a37.918,37.918,0,0,1,4.43,4.046s0,.148-.089.118a23.137,23.137,0,0,1-5.094-3.854,37.912,37.912,0,0,1-4.533-4.578C612.372,263.2,612.549,262.966,612.667,263.128Z" transform="translate(-600.898 -184.128)" fill="#263238"/>
      <path id="Path_3669" data-name="Path 3669" d="M691.779,309.6l-1.728,22.578-5.2,68.25H639.565l-5.2-68.25L632.64,309.6h59.139Z" transform="translate(-591.25 -161.952)" fill="#455a64"/>
      <path id="Path_3670" data-name="Path 3670" d="M691.779,309.6l-1.728,22.578H634.368L632.64,309.6Z" transform="translate(-591.25 -161.952)" fill="#37474f"/>
      <rect id="Rectangle_1164" data-name="Rectangle 1164" width="67.187" height="17.306" transform="translate(104.545 153.879) rotate(180)" fill="#455a64"/>
    </g>
    <g id="freepik--speech-bubble--inject-87" transform="translate(213.959 111.872)">
      <path id="Path_3734" data-name="Path 3734" d="M166.463,126.577a19.757,19.757,0,0,1-3.367-10.9c0-13.792,15.135-24.97,33.815-24.97s33.8,11.178,33.8,24.97-15.135,24.985-33.8,24.985a40.681,40.681,0,0,1-23.331-6.911l-11.651,2.953Z" transform="translate(-161.93 -90.71)" fill="#15ace5"/>
      <path id="Path_3735" data-name="Path 3735" d="M193.87,108.77a3.514,3.514,0,1,0,3.514-3.5,3.514,3.514,0,0,0-3.514,3.5Z" transform="translate(-146.707 -83.77)" fill="#263238"/>
      <circle id="Ellipse_165" data-name="Ellipse 165" cx="3.5" cy="3.5" r="3.5" transform="translate(31.511 21.5)" fill="#263238"/>
      <circle id="Ellipse_166" data-name="Ellipse 166" cx="3.5" cy="3.5" r="3.5" transform="translate(15.829 21.5)" fill="#263238"/>
    </g>
    <g id="freepik--Arrow--inject-87" transform="translate(74.698 46.31)">
      <path id="Path_3736" data-name="Path 3736" d="M438.15,388.31,319,409.854c-64.071,10.72-140.56,13.7-251.381,2.348l119.769-20.023C284.271,400.182,374.079,399.016,438.15,388.31Z" transform="translate(-67.62 116.696)" fill="#15ace5"/>
      <path id="Path_3737" data-name="Path 3737" d="M364.846,544.322,237,565.364c43.442-7.265,88.8-19.757,120.906-35.557,178.081-86.1,252.961-384.322,253.98-387.157H755.3c-1.063,2.835-17.956,51.682-89.469,187.886-44.225,80.949-109.6,140.575-188.167,179.248C445.529,525.613,408.289,537.057,364.846,544.322Z" transform="translate(13.111 -0.392)" fill="#15ace5"/>
      <g id="Group_250" data-name="Group 250" transform="translate(250.111 142.258)" opacity="0.3">
        <path id="Path_3738" data-name="Path 3738" d="M364.846,544.322,237,565.364c43.442-7.265,88.8-19.757,120.906-35.557,178.081-86.1,252.961-384.322,253.98-387.157H755.3c-1.063,2.835-17.956,51.682-89.469,187.886-44.225,80.949-109.6,140.575-188.167,179.248C445.529,525.613,408.289,537.057,364.846,544.322Z" transform="translate(-237 -142.65)" fill="#fff"/>
      </g>
      <path id="Path_3739" data-name="Path 3739" d="M659.3,132.52l33.313,14.958c-1.078,2.835-71.616,295.975-253.98,387.157-111.175,55.58-206.255,52.243-369.821,38.732L67.66,534.118c158.9,13.127,280.825,3.514,356.856-36.281C596.026,408.029,659.049,133.229,659.3,132.52Z" transform="translate(-67.601 -5.22)" fill="#15ace5"/>
      <g id="Group_251" data-name="Group 251" transform="translate(0.059 127.3)" opacity="0.1">
        <path id="Path_3740" data-name="Path 3740" d="M659.3,132.52l33.313,14.958c-1.078,2.835-71.616,295.975-253.98,387.157-111.175,55.58-206.255,52.243-369.821,38.732L67.66,534.118c158.9,13.127,280.825,3.514,356.856-36.281C596.026,408.029,659.049,133.229,659.3,132.52Z" transform="translate(-67.66 -132.52)"/>
      </g>
      <path id="Path_3741" data-name="Path 3741" d="M468.33,132.52H622.859l22.149,14.958H501.643Z" transform="translate(123.369 -5.22)" fill="#15ace5"/>
      <path id="Path_3742" data-name="Path 3742" d="M592.032,67.47,692.517,194.947l-236.807-.635Z" transform="translate(117.354 -36.225)" fill="#15ace5"/>
      <g id="Group_252" data-name="Group 252" transform="translate(573.064 31.245)" opacity="0.3">
        <path id="Path_3743" data-name="Path 3743" d="M592.032,67.47,692.517,194.947l-236.807-.635Z" transform="translate(-455.71 -67.47)" fill="#fff"/>
      </g>
      <path id="Path_3744" data-name="Path 3744" d="M468.855,204.4,428.13,173.152,564.452,46.31l40.725,31.245Z" transform="translate(104.209 -46.31)" fill="#15ace5"/>
      <g id="Group_253" data-name="Group 253" transform="translate(532.339)" opacity="0.1">
        <path id="Path_3745" data-name="Path 3745" d="M468.855,204.4,428.13,173.152,564.452,46.31l40.725,31.245Z" transform="translate(-428.13 -46.31)"/>
      </g>
    </g>
    <g id="freepik--character-2--inject-87" transform="translate(705.679 115.047)">
      <path id="Path_3746" data-name="Path 3746" d="M500.05,461.031c2.953.96,87.121-.133,90.266-2.215,1.211-.768,1.772-13.039,2.023-27.879v-.472c0-3.057-7.767-54.355-7.767-54.355l-56.289.561,9.76,53.9v.916s-32.028,14.766-35.277,17.483S497.1,460.115,500.05,461.031Z" transform="translate(-493.128 42.144)" fill="#c95f50"/>
      <path id="Path_3747" data-name="Path 3747" d="M500.028,443.481c1.477.487,24.379.428,46.72,0,4.43-.089,8.963-.192,13.29-.31,15.933-.443,29.09-1.093,30.315-1.89s1.772-12.7,2.008-27.258V412.93h0l-54.236.1v.916s-32.028,14.766-35.262,17.468S497.09,442.566,500.028,443.481Z" transform="translate(-493.121 59.693)" fill="#a6a6a6"/>
      <path id="Path_3748" data-name="Path 3748" d="M500.326,431.712c14.176-.532,71.41-1.329,85.467-.783.118,0,.118.089,0,.089-14.043.842-71.292,1.181-85.467.93C499.971,431.948,499.971,431.727,500.326,431.712Z" transform="translate(-492.488 68.185)" fill="#263238"/>
      <path id="Path_3749" data-name="Path 3749" d="M521.37,413.3c5.567-1.122,12.4-.354,16.73,3.573.162.148,0,.384-.236.325a79,79,0,0,0-16.464-3.19.355.355,0,1,1-.03-.709Z" transform="translate(-482.493 59.646)" fill="#263238"/>
      <path id="Path_3750" data-name="Path 3750" d="M518.647,414.982c5.567-1.122,12.4-.354,16.715,3.573.162.148,0,.384-.236.325a79.737,79.737,0,0,0-16.45-3.2.354.354,0,0,1-.03-.694Z" transform="translate(-483.758 60.447)" fill="#263238"/>
      <path id="Path_3751" data-name="Path 3751" d="M515.962,416.662c5.567-1.122,12.4-.354,16.715,3.573.177.148,0,.384-.221.325a80,80,0,0,0-16.464-3.175.362.362,0,0,1-.03-.724Z" transform="translate(-485.075 61.248)" fill="#263238"/>
      <path id="Path_3752" data-name="Path 3752" d="M531.414,495.3H588.6s-19.2-120.507-18.679-122.973c.251-1.27,73.935-131.626,73.935-131.626h-64.6S519.409,333.934,511.2,357.354C505.189,374.482,531.414,495.3,531.414,495.3Z" transform="translate(-487.606 -22.396)" fill="#263238"/>
      <path id="Path_3753" data-name="Path 3753" d="M523.674,406.019c3.455-.281,6.9-.561,10.336-.709s6.881-.192,10.336-.266c6.881-.148,13.762-.236,20.673-.325h5.906a56.291,56.291,0,0,0,5.906,0,.111.111,0,0,1,0,.221c-1.728,0-3.455.369-5.168.487s-3.441.3-5.168.413c-3.441.221-6.881.384-10.336.532-6.881.3-13.762.369-20.673.413-3.943,0-7.856-.281-11.813-.561A.148.148,0,0,1,523.674,406.019Z" transform="translate(-481.254 55.78)" fill="#455a64"/>
      <path id="Path_3754" data-name="Path 3754" d="M545.579,366.017a37.805,37.805,0,0,1,4.888-10.026q6.482-10.72,12.95-21.441,13.127-21.736,26.387-43.4c4.43-7.147,8.86-14.264,13.186-21.4,4.061-6.586,13.29-24.2,14.323-25.9,0-.133.281-.074.207,0-2.953,6.2-6.837,13.954-10.469,20.422-4,7.1-8.284,14.057-12.433,21.071-8.52,14.427-17.173,28.691-25.811,42.926q-6.527,10.824-13.1,21.633c-2.1,3.455-4.267,6.9-6.29,10.336a21.026,21.026,0,0,0-3.16,11.148,118.6,118.6,0,0,0,1.329,12.3c.546,4.12,1.078,8.225,1.639,12.345q1.669,12.345,3.47,24.645,3.6,24.763,7.516,49.467c.325,2.053.665,4.09.989,6.143,0,.192-.266.266-.3.074-2.953-16.479-5.818-32.958-8.313-49.511s-4.77-33.15-6.97-49.748a30.109,30.109,0,0,1-.044-11.089Z" transform="translate(-471.028 -20.93)" fill="#455a64"/>
      <path id="Path_3755" data-name="Path 3755" d="M722.491,464.474c-2.953.916-87.121-1.034-90.237-3.145-1.211-.783-1.639-13.053-1.728-27.908v-.458c0-3.057-22.3-54.473-22.3-54.473l54.99,1.122,21.588,54v.93s31.866,15.135,35.1,17.823S725.459,463.558,722.491,464.474Z" transform="translate(-440.932 43.278)" fill="#c95f50"/>
      <path id="Path_3756" data-name="Path 3756" d="M716.515,450.356c-2.953.916-87.121-1.034-90.237-3.145-1.211-.783-1.639-13.053-1.728-27.908v-.458s-3.765-10.336-3.78-10.735l54.3.96,3.765,10.425v.93s31.866,15.135,35.1,17.823S719.483,449.441,716.515,450.356Z" transform="translate(-434.955 57.396)" fill="#ebebeb"/>
      <path id="Path_3757" data-name="Path 3757" d="M715.294,446.891c-2.953.916-87.121-1.034-90.237-3.145-1.211-.783-1.639-13.053-1.728-27.908v-.458l54.281.65v.93s31.866,15.135,35.1,17.823S718.262,445.976,715.294,446.891Z" transform="translate(-433.735 60.861)" fill="#a6a6a6"/>
      <path id="Path_3758" data-name="Path 3758" d="M712.612,435.048c-14.176-.679-71.395-2.067-85.467-1.654-.1,0-.1.074,0,.089,14.043.975,71.277,1.9,85.467,1.8C712.937,435.284,712.937,435.063,712.612,435.048Z" transform="translate(-431.953 69.411)" fill="#263238"/>
      <path id="Path_3759" data-name="Path 3759" d="M669.611,416.166c-5.552-1.167-12.4-.473-16.76,3.411-.162.148,0,.384.236.325a78.855,78.855,0,0,1,16.479-3.027.355.355,0,1,0,.044-.709Z" transform="translate(-419.695 60.991)" fill="#263238"/>
      <path id="Path_3760" data-name="Path 3760" d="M672.3,417.9c-5.552-1.167-12.4-.473-16.76,3.4-.162.162,0,.4.236.34a77.908,77.908,0,0,1,16.479-3.027.355.355,0,0,0,.044-.709Z" transform="translate(-418.413 61.815)" fill="#263238"/>
      <path id="Path_3761" data-name="Path 3761" d="M674.991,419.608c-5.552-1.181-12.4-.473-16.76,3.4-.162.148,0,.384.236.34a78.889,78.889,0,0,1,16.479-3.042.354.354,0,0,0,.044-.694Z" transform="translate(-417.131 62.628)" fill="#263238"/>
      <path id="Path_3762" data-name="Path 3762" d="M561.57,240.7s7.752,47.252,8.269,48.729c0,0,2.953,1.373,8.077,3.765L640.658,500.01l69.4.236L627.693,240.7Z" transform="translate(-463.171 -22.396)" fill="#263238"/>
      <path id="Path_3763" data-name="Path 3763" d="M565.653,272.734a113.035,113.035,0,0,1,17.321,9.067.207.207,0,0,1-.192.354c-5.906-2.835-11.813-5.567-17.483-8.727a.39.39,0,1,1,.355-.694Z" transform="translate(-461.495 -7.148)" fill="#455a64"/>
      <path id="Path_3764" data-name="Path 3764" d="M567.086,254.438c.945,5.655,1.477,11.385,2.111,17.085.162,1.359.325,2.732.473,4.09a8.005,8.005,0,0,0,.975,3.6c1.226,1.9,3.426,2.791,5.419,3.662.236.1.148.473-.118.384a13.289,13.289,0,0,1-5.759-3.042c-1.816-1.92-1.757-4.829-2.038-7.309a157.12,157.12,0,0,1-1.329-18.443.134.134,0,0,1,.266-.03Z" transform="translate(-460.669 -15.905)" fill="#455a64"/>
      <path id="Path_3765" data-name="Path 3765" d="M571.7,255.608c.207,4.076.65,8.151.989,12.212.177,1.993.31,4,.443,6.01s.354,4.135.3,6.187a.133.133,0,0,1-.251,0c-.34-1.934-.384-3.943-.546-5.906s-.31-4.12-.414-6.172c-.236-4.12-.354-8.254-.724-12.359a.1.1,0,1,1,.207.03Z" transform="translate(-458.443 -15.347)" fill="#455a64"/>
      <path id="Path_3766" data-name="Path 3766" d="M577.7,282.147c4.814,11.724,56.2,179.809,56.762,181.271,0,.118-.148.192-.207.074-6.866-13.437-50.737-165.072-55.108-176.885l-1.639-4.43C577.468,282.117,577.66,282.043,577.7,282.147Z" transform="translate(-455.576 -2.666)" fill="#455a64"/>
      <path id="Path_3767" data-name="Path 3767" d="M614.815,408.74c2.008-.281,4.09-.266,6.113-.413s4.075-.177,6.113-.221q6.113-.133,12.227-.192c8.092-.1,16.243-.133,24.276-.133,4.622,0,9.229.251,13.851.34.148,0,.148.221,0,.236-4.061.162-8.136.413-12.212.561s-8.151.177-12.227.236c-8.21.118-16.42.251-24.63.236-2.289,0-4.563,0-6.837-.089a63.2,63.2,0,0,1-6.689-.325C614.653,408.961,614.7,408.755,614.815,408.74Z" transform="translate(-437.845 57.239)" fill="#455a64"/>
      <path id="Path_3768" data-name="Path 3768" d="M583.647,225.639c-13.806-9.8-34.627-33.652-38.747-43.058-5.286-12.094-14.6-53.853-10.41-58.725,2.318-2.687,32.486,1.3,34.169,4.666s2.54,40.135,2.953,42.926,14.235,29.178,21.943,41.744C602.651,227.854,592.64,232.018,583.647,225.639Z" transform="translate(-476.581 -78.509)" fill="#c95f50"/>
      <path id="Path_3769" data-name="Path 3769" d="M535.357,148.13a13.053,13.053,0,0,1-1.476-8.018c.842-4.43,3.854-9.111,2.953-11.813-1.344-4.238-5.434-11.045-3.824-12.581,3.293-3.175,7.383-.989,12.167,6.807,1.24,2.023,3.071,7.147,4.592,7.383,2.673.458,3.795-4.223,4.1-8.505.605-8.284-.192-20.422,5.286-21.987,2.067-.605,3.057,2.407,3.5,6.128.207-5.4,1.019-10.75,3.293-11.5a2.422,2.422,0,0,1,2.953,1.477,3.189,3.189,0,0,1,2.658-2.614c2.126-.354,3.618,1.477,4.637,4.208a1.757,1.757,0,0,1,1.476-.605c5.744.1,8.24,20.879,6.231,26.107A121.286,121.286,0,0,1,567.252,151.3C559.529,153.608,535.357,148.145,535.357,148.13Z" transform="translate(-476.96 -92.86)" fill="#c95f50"/>
      <path id="Path_3770" data-name="Path 3770" d="M552.469,125.761a26.034,26.034,0,0,0,2.628-11.149c0-4.533-1.225-8.963-1.683-13.467,0-.118-.207-.089-.192,0,.325,2.185.428,4.43.665,6.63s.531,4.312.62,6.468a26.164,26.164,0,0,1-2.1,11.473S552.454,125.8,552.469,125.761Z" transform="translate(-467.537 -88.949)" fill="#263238"/>
      <path id="Path_3771" data-name="Path 3771" d="M557.434,130.114a64.155,64.155,0,0,0,3.47-12.7c.605-4.77-.443-9.539-1.477-14.19-.591-2.791-1.226-5.567-1.934-8.328,0-.118-.222-.1-.192,0,1.034,4.74,1.934,9.524,2.673,14.338a34.463,34.463,0,0,1-.487,13.408c-.605,2.5-1.477,4.961-2.185,7.383C557.36,130.129,557.419,130.159,557.434,130.114Z" transform="translate(-465.207 -91.929)" fill="#263238"/>
      <path id="Path_3772" data-name="Path 3772" d="M562.593,129.338a33.132,33.132,0,0,0,3.263-11.444,58.452,58.452,0,0,0-1.624-14.5c-.576-2.569-1.226-5.109-1.92-7.649,0-.1-.207,0-.192,0a134.649,134.649,0,0,1,3.175,17.277,26.7,26.7,0,0,1-.192,8.328,47.972,47.972,0,0,1-2.54,7.915S562.578,129.353,562.593,129.338Z" transform="translate(-462.909 -91.507)" fill="#263238"/>
      <path id="Path_3773" data-name="Path 3773" d="M571.471,135,533.3,143.077s8.092,29.9,11.385,36.916,29.71,37.137,40,42.542,17.1-.133,10.661-13.939-20.51-40.149-21.4-43.088S571.471,135,571.471,135Z" transform="translate(-476.645 -72.775)" fill="#455a64"/>
      <path id="Path_3774" data-name="Path 3774" d="M591.367,218.574a14.3,14.3,0,0,0-2.392,2.244,14.426,14.426,0,0,0,2.806-1.683,13.659,13.659,0,0,0,2.377-2.244A14.764,14.764,0,0,0,591.367,218.574Zm-8.86-15.18a15.476,15.476,0,0,0-.886,6.423,15.474,15.474,0,0,0,.886-6.423Zm-37.89-38.525a14.194,14.194,0,0,0-2.23-2.392,13.094,13.094,0,0,0,1.683,2.806,13.572,13.572,0,0,0,2.23,2.377,14.765,14.765,0,0,0-1.654-2.791Zm-7.044-23.892-.724.148a13.393,13.393,0,0,0,2.215,2.363,12.957,12.957,0,0,0-1.462-2.51Zm34.42,53.646a14.186,14.186,0,0,0-2.23-2.392,13.1,13.1,0,0,0,1.683,2.806,13.567,13.567,0,0,0,2.23,2.377,14.764,14.764,0,0,0-1.654-2.791Zm-7.944-26.387a13.566,13.566,0,0,0-2.377,2.23,14.028,14.028,0,0,0,2.791-1.683,13.57,13.57,0,0,0,2.377-2.23,14.032,14.032,0,0,0-2.761,1.683ZM557.331,136.8l-.222.251.783-.369ZM576.1,178.5a14.159,14.159,0,0,0-3.263-.1,15.475,15.475,0,0,0,6.423.886A14.132,14.132,0,0,0,576.1,178.5Zm-26.4-28.706a14.161,14.161,0,0,0-3.263-.1,15.165,15.165,0,0,0,6.423.9,14.173,14.173,0,0,0-3.16-.8Zm4.43,29.075a15.476,15.476,0,0,0-.886,6.423A15.474,15.474,0,0,0,554.127,178.867Zm14.9-33.859a15.283,15.283,0,0,0-.9,6.438,15.933,15.933,0,0,0,.9-6.438Z" transform="translate(-474.953 -71.975)" fill="#fff"/>
      <path id="Path_3775" data-name="Path 3775" d="M568.647,142.294c-5.39,1.477-27.672,6.409-32.486,7.162-.34,0-.443-.148-.1-.236a300.578,300.578,0,0,1,32.5-7.147.119.119,0,0,1,.089.222Z" transform="translate(-475.431 -69.408)" fill="#263238"/>
      <path id="Path_3776" data-name="Path 3776" d="M578.586,204.567C571.2,200.7,555.595,184.131,546.1,172.48l37.137,5.906c2.289,4.518,4.43,8.86,6.025,12.3C595.685,204.434,588.893,209.986,578.586,204.567Z" transform="translate(-470.544 -54.911)" fill="#263238"/>
      <path id="Path_3777" data-name="Path 3777" d="M638.079,278.467s-89.174,12.315-89.365,12.153c-1.314-1.048,3.308-96.379,6.852-104.56,3.795-8.771,15.608-13.29,22.253-9.628,16.671,9.318,37.816,47.37,42.822,59.183C628.983,255.063,637.518,273.151,638.079,278.467Z" transform="translate(-469.408 -53.637)" fill="#455a64"/>
      <path id="Path_3778" data-name="Path 3778" d="M566.248,175.92h0a4.933,4.933,0,0,0-.65.251l.133.192a13.566,13.566,0,0,0,2.23,2.377A14.763,14.763,0,0,0,566.248,175.92Zm-2.126,93.766a15.283,15.283,0,0,0-.9,6.438A15.932,15.932,0,0,0,564.122,269.686Zm31.009-59.6a15.283,15.283,0,0,0-.9,6.438,15.934,15.934,0,0,0,.9-6.438Zm-18.31-25.4a15.476,15.476,0,0,0-.886,6.423,15.474,15.474,0,0,0,.886-6.423ZM600.27,283.02a2.164,2.164,0,0,0-.1.281h.118a1.607,1.607,0,0,0-.074-.281Zm-20.1-39.057a15.477,15.477,0,0,0-.886,6.423,15.473,15.473,0,0,0,.886-6.423Zm-23.626-26.579a15.578,15.578,0,0,0-.886,6.438A15.578,15.578,0,0,0,556.547,217.384Zm60.276,32.072a13.289,13.289,0,0,0-.8,3.175,14.13,14.13,0,0,0-.1,3.263,14.059,14.059,0,0,0,.783-3.175,13.372,13.372,0,0,0,.133-3.278Zm-15.549-47.843a10.03,10.03,0,0,0-1.152,0,11.812,11.812,0,0,0,1.477.473ZM575.743,214.9a14.162,14.162,0,0,0-3.263-.1,15.164,15.164,0,0,0,6.423.9,14.174,14.174,0,0,0-3.145-.842Zm26.505,28.056a14.161,14.161,0,0,0-3.263-.1,15.475,15.475,0,0,0,6.423.886,14.132,14.132,0,0,0-3.145-.842Zm-49.954-5.08a18.363,18.363,0,0,0-2.038-.162v.443a18.8,18.8,0,0,0,1.979.4,14.164,14.164,0,0,0,3.263.1,14.053,14.053,0,0,0-3.19-.842Zm54.31,36.177a14.161,14.161,0,0,0-3.263-.1,15.578,15.578,0,0,0,6.438.886,14.452,14.452,0,0,0-3.175-.783Zm-27.642-8.742a14.159,14.159,0,0,0-3.263-.1,15.579,15.579,0,0,0,6.438.886,14.457,14.457,0,0,0-3.16-.783Zm-27.642-2.658a20.671,20.671,0,0,0-2.348-.162,3.183,3.183,0,0,0,0,.369,17.055,17.055,0,0,0,2.259.473,13.378,13.378,0,0,0,3.263.1,14.135,14.135,0,0,0-3.16-.783Zm34.258-62.786a14.293,14.293,0,0,0-2.392,2.244,14.429,14.429,0,0,0,2.806-1.683,13.659,13.659,0,0,0,2.377-2.244,14.767,14.767,0,0,0-2.776,1.683Zm31.1,35.557a13.565,13.565,0,0,0-2.377,2.23,14.029,14.029,0,0,0,2.791-1.683,13.571,13.571,0,0,0,2.377-2.23,14.033,14.033,0,0,0-2.776,1.683Zm-27.332-4.578a13.571,13.571,0,0,0-2.377,2.23,14.027,14.027,0,0,0,2.791-1.683,13.567,13.567,0,0,0,2.377-2.23,14.03,14.03,0,0,0-2.776,1.683Zm36.074,40.725a13.037,13.037,0,0,0-2.377,2.23,15.757,15.757,0,0,0,5.183-3.913,13.1,13.1,0,0,0-2.791,1.683Zm-39.869,6.556a13.038,13.038,0,0,0-2.377,2.23,15.754,15.754,0,0,0,5.183-3.913,13.1,13.1,0,0,0-2.776,1.683Zm-22.932-27.7a13.042,13.042,0,0,0-2.377,2.23,15.756,15.756,0,0,0,5.183-3.913,13.1,13.1,0,0,0-2.776,1.683ZM590.672,187.7a4.8,4.8,0,0,0-.339-.428h0q-.591-.694-1.2-1.329h0a7.38,7.38,0,0,0-.62-.546,13.73,13.73,0,0,0,1.683,2.806,13.573,13.573,0,0,0,2.23,2.377,14.022,14.022,0,0,0-1.757-2.879Zm16.715,34.184a14.2,14.2,0,0,0-2.23-2.392,13.734,13.734,0,0,0,1.683,2.806,13.567,13.567,0,0,0,2.23,2.377,14.03,14.03,0,0,0-1.683-2.791Zm23.39,37.034h0a11.619,11.619,0,0,0-1.595-1.595,13.094,13.094,0,0,0,1.683,2.806c.3.369.561.724.886,1.078Zm-57.588,26.387a10.482,10.482,0,0,0,.827,1.565l.65-.089a10.742,10.742,0,0,0-1.536-1.477Zm-21.47-2.481a14.193,14.193,0,0,0-2.23-2.392,13.1,13.1,0,0,0,1.683,2.806,13.567,13.567,0,0,0,2.23,2.377,14.768,14.768,0,0,0-1.743-2.791ZM598.143,259.7a14.186,14.186,0,0,0-2.23-2.392,13.094,13.094,0,0,0,1.683,2.806,13.567,13.567,0,0,0,2.23,2.377,14.768,14.768,0,0,0-1.742-2.791ZM565.5,200.639a14.193,14.193,0,0,0-2.23-2.392,13.1,13.1,0,0,0,1.683,2.806,13.57,13.57,0,0,0,2.23,2.377,14.77,14.77,0,0,0-1.743-2.835Zm5.272,29.355a14.193,14.193,0,0,0-2.23-2.392,13.1,13.1,0,0,0,1.683,2.806,13.574,13.574,0,0,0,2.23,2.377,14.765,14.765,0,0,0-1.743-2.835Z" transform="translate(-469.178 -53.272)" fill="#fff"/>
      <path id="Path_3779" data-name="Path 3779" d="M558.826,196.415c4.179.694,14.943-7.56,16.834-14.22.118-.458-1.477-4.607-3.189-9.731-1.019-3.116-2.082-6.6-2.835-9.864l-19.285,9.628a53.6,53.6,0,0,1,4.829,12.049,7.563,7.563,0,0,1,.162,1.373,1.291,1.291,0,0,0,0,.222C555.533,188.5,554.012,195.676,558.826,196.415Z" transform="translate(-468.519 -59.621)" fill="#c95f50"/>
      <path id="Path_3780" data-name="Path 3780" d="M568.655,162.93c.3,4.578.384,19.506-11.163,22.415a12.669,12.669,0,0,1-2.141.384,1.44,1.44,0,0,1,0-.236,9.372,9.372,0,0,0-.162-1.373,52.84,52.84,0,0,0-4.829-12.049Z" transform="translate(-468.514 -59.463)" fill="#263238"/>
      <path id="Path_3781" data-name="Path 3781" d="M554.583,140.16s-7.383,1.27-10.336,7.885-2.953,14.22-2.407,14.766S554.583,140.16,554.583,140.16Z" transform="translate(-472.708 -70.316)" fill="#263238"/>
      <path id="Path_3782" data-name="Path 3782" d="M580.306,155.273c.561,7.752-8.062,27.79-14.279,31.275-9.007,5.05-21.381,2.953-25.1-7.383-3.573-9.967,8.121-35.882,14.766-38.806C565.7,136.047,579.494,143.829,580.306,155.273Z" transform="translate(-473.328 -70.796)" fill="#c95f50"/>
      <path id="Path_3783" data-name="Path 3783" d="M551.2,156.08s.074.1,0,.162c-.635,1.329-1.152,2.953-.133,3.928v.074C549.678,159.373,550.372,157.232,551.2,156.08Z" transform="translate(-468.555 -62.728)" fill="#263238"/>
      <path id="Path_3784" data-name="Path 3784" d="M552.943,155.516c2.23.8.473,5.212-1.595,4.43S551.068,154.792,552.943,155.516Z" transform="translate(-468.483 -63.035)" fill="#263238"/>
      <path id="Path_3785" data-name="Path 3785" d="M546.719,153.84h-.148c-.5,1.373-1.314,2.953-2.732,2.835v.089C545.42,157.221,546.468,155.228,546.719,153.84Z" transform="translate(-471.622 -63.796)" fill="#263238"/>
      <path id="Path_3786" data-name="Path 3786" d="M546.288,152.592c-2.126-1.048-4.061,3.293-2.082,4.253S548.075,153.464,546.288,152.592Z" transform="translate(-471.84 -64.468)" fill="#263238"/>
      <path id="Path_3787" data-name="Path 3787" d="M555.8,154.179c-.65-.133-1.24-.354-1.875-.546a3.115,3.115,0,0,1-1.8-.915,1,1,0,0,1,.089-1.211,2.451,2.451,0,0,1,2.5-.4,3.6,3.6,0,0,1,2.185,1.477,1.078,1.078,0,0,1-1.093,1.595Z" transform="translate(-467.751 -65.183)" fill="#263238"/>
      <path id="Path_3788" data-name="Path 3788" d="M544.407,151.5a17.09,17.09,0,0,0,1.477,1.211,3.2,3.2,0,0,0,1.787.945.989.989,0,0,0,.945-.783,2.451,2.451,0,0,0-1.122-2.259,3.588,3.588,0,0,0-2.451-.945,1.063,1.063,0,0,0-.635,1.831Z" transform="translate(-471.51 -65.783)" fill="#263238"/>
      <path id="Path_3789" data-name="Path 3789" d="M550.054,164.441a2.2,2.2,0,0,1-1.477.34,3.751,3.751,0,0,1-1.329-.93h-.089a1.993,1.993,0,0,0,1.477,1.477,1.6,1.6,0,0,0,1.55-.783.089.089,0,0,0-.133-.1Z" transform="translate(-470.039 -59.025)" fill="#263238"/>
      <path id="Path_3790" data-name="Path 3790" d="M551.777,166.651a5.035,5.035,0,0,1-3.928.827,7.024,7.024,0,0,1-1.7-.591,3.32,3.32,0,0,1-.31-.177l-.34-.207a.369.369,0,0,1-.148-.413h0v-.133h0v-.118c.384-1.063,1.122-2.628,1.122-2.628-.458,0-2.761.148-2.51-.4a75.191,75.191,0,0,1,7.383-13.29.135.135,0,1,1,.236.133c-1.846,4.341-4.43,8.328-6.349,12.669a8.179,8.179,0,0,1,2.466.207c.133.1-1.477,2.953-1.624,3.47a6.926,6.926,0,0,0,5.4.428C551.837,166.5,551.91,166.577,551.777,166.651Z" transform="translate(-471.571 -65.887)" fill="#263238"/>
      <path id="Path_3791" data-name="Path 3791" d="M546,161.06a5.905,5.905,0,0,0,1.477,2.6,2.762,2.762,0,0,0,1.477.694c1.2.148,1.624-.842,1.772-1.772a6.289,6.289,0,0,0,0-1.477A7.634,7.634,0,0,1,546,161.06Z" transform="translate(-470.592 -60.355)" fill="#263238"/>
      <path id="Path_3792" data-name="Path 3792" d="M547,163.221a2.762,2.762,0,0,0,1.477.694c1.2.148,1.624-.842,1.772-1.772A2.761,2.761,0,0,0,547,163.222Z" transform="translate(-470.116 -59.917)" fill="#ff9cbd"/>
      <path id="Path_3793" data-name="Path 3793" d="M570.149,174.769c-2.451-.177-2.422-7.782-2.156-10.6.251-2.481,2.274-9.879,2.363-10.336S558.321,156.4,553.4,152.62s-6.689-10.174-5.906-12.537,10-5.567,16.08-3.559,11.193,12.7,11.193,12.7a30.137,30.137,0,0,1-1.27-4.563,6.984,6.984,0,0,1,3.1,5.818s.576-3.736.886-3.692,2.171,4.164.62,6.128c0,0,2.3,4.341,1.344,7.752S573.043,174.976,570.149,174.769Z" transform="translate(-469.963 -72.351)" fill="#263238"/>
      <path id="Path_3794" data-name="Path 3794" d="M549.08,145.361a20.055,20.055,0,0,0,4.518,3.913,13.423,13.423,0,0,0,6.349,1.359,20.453,20.453,0,0,0,6.453-1.063c1.816-.605,3.588-1.477,5.464-1.949.473-.118.694.591.325.842a21.411,21.411,0,0,1-12.92,3.5,12.286,12.286,0,0,1-10.218-6.556S549.065,145.346,549.08,145.361Z" transform="translate(-469.139 -67.838)" fill="#263238"/>
      <path id="Path_3795" data-name="Path 3795" d="M562.583,162.307s6.394-5.567,9.022-3.116S568.253,170.5,564.34,171a3.765,3.765,0,0,1-4.43-3.19Z" transform="translate(-463.962 -61.542)" fill="#c95f50"/>
      <path id="Path_3796" data-name="Path 3796" d="M569.191,160.7v.1c-2.761.384-4.666,2.392-6.2,4.578a2.067,2.067,0,0,1,3.145.207s0,.148-.1.118a2.289,2.289,0,0,0-2.658.162,10.178,10.178,0,0,0-1.683,1.7c-.177.192-.546,0-.4-.266h0C562.044,164.018,565.662,160.164,569.191,160.7Z" transform="translate(-463.32 -60.552)" fill="#263238"/>
      <path id="Path_3797" data-name="Path 3797" d="M585.62,223.174c-17.867-3.485-52.627-18.871-58.046-22.858-11.355-8.372-34.45-49.364-32.486-55.92,1.093-3.618,32.131-4.784,35.306-2.274s16.893,33.224,18.576,35.72,36.738,26.151,44.432,32.884C607.326,222.923,597.241,225.448,585.62,223.174Z" transform="translate(-494.914 -70.019)" fill="#c95f50"/>
      <path id="Path_3798" data-name="Path 3798" d="M528.286,170.657s6.556-11.71,10.484-19.58c2.185-4.43,5.272-12.241,5.4-16.243.207-5.906-2.732-30.817-8.786-30.241-5.478.532-.236,21.6-.236,21.6s-3.411-21.736-9.893-19.89,2.614,24.866,2.614,24.866-4-22.238-10.336-19.285c-4.828,2.244,2.23,23.626,2.23,23.626s-3.573-19.093-8.638-17.011c-5.582,2.318-.31,22.4-.31,22.4-11.961,7.472-16.76,12.714-15.756,22.149C495.18,164.559,528.286,170.657,528.286,170.657Z" transform="translate(-494.932 -87.273)" fill="#c95f50"/>
      <path id="Path_3799" data-name="Path 3799" d="M525.925,133.442c-.31-2.569-.605-5.168-1.137-7.693s-1.152-5.05-1.92-7.516A44.489,44.489,0,0,0,519,108.9a96.242,96.242,0,0,1,5.153,17.011c.532,2.525,1.181,5.035,1.728,7.56C525.852,133.53,525.94,133.5,525.925,133.442Z" transform="translate(-483.461 -85.215)" fill="#263238"/>
      <path id="Path_3800" data-name="Path 3800" d="M519.047,133.657c-.531-3.263-.945-6.512-1.624-9.746s-1.787-7.708-2.673-10.883c0-.236-.458-.251-.4,0,.768,3.2,1.683,7.826,2.422,11.03s1.58,6.394,2.2,9.613C518.974,133.746,519.047,133.746,519.047,133.657Z" transform="translate(-485.679 -83.335)" fill="#263238"/>
      <path id="Path_3801" data-name="Path 3801" d="M513.682,133.908a73.471,73.471,0,0,0-3.632-14.766c-.074-.236-.207,0-.133.177,1.3,4.873,2.348,8.683,3.588,14.574C513.52,134.026,513.682,134.012,513.682,133.908Z" transform="translate(-487.801 -80.381)" fill="#263238"/>
      <path id="Path_3802" data-name="Path 3802" d="M497.49,154.5l40.533-4.164s8.432,19.521,10.115,21.854,39.677,27.377,47.252,33.667,6.261,17.971-10.041,14.766c-14.072-2.761-52.125-18.532-59.3-23.345S497.49,154.5,497.49,154.5Z" transform="translate(-493.713 -65.464)" fill="#455a64"/>
      <path id="Path_3803" data-name="Path 3803" d="M586.568,212.062a14.19,14.19,0,0,0-2.23-2.392,13.1,13.1,0,0,0,1.683,2.806,13.572,13.572,0,0,0,2.23,2.377,14.761,14.761,0,0,0-1.683-2.791Zm-16.243-.709a13.574,13.574,0,0,0-2.377,2.23,14.033,14.033,0,0,0,2.791-1.683,13.57,13.57,0,0,0,2.363-2.244,14.03,14.03,0,0,0-2.761,1.7Zm1.742-16.036a14.161,14.161,0,0,0-3.263-.1,15.165,15.165,0,0,0,6.423.9,14.175,14.175,0,0,0-3.145-.8ZM557.6,202.7a15.577,15.577,0,0,0-.886,6.438,15.579,15.579,0,0,0,.886-6.438ZM506.86,159.007a14.189,14.189,0,0,0-2.23-2.392,13.1,13.1,0,0,0,1.683,2.806,13.569,13.569,0,0,0,2.23,2.377,14.768,14.768,0,0,0-1.683-2.791ZM548.811,179.4a14.191,14.191,0,0,0-2.23-2.392,13.728,13.728,0,0,0,1.683,2.806,13.571,13.571,0,0,0,2.23,2.377,14.023,14.023,0,0,0-1.683-2.791Zm-18.03,5.153a13.571,13.571,0,0,0-2.377,2.23,14.028,14.028,0,0,0,2.791-1.683,13.57,13.57,0,0,0,2.377-2.23A14.031,14.031,0,0,0,530.781,184.552Zm27.332,4.578a13.575,13.575,0,0,0-2.377,2.23,14.027,14.027,0,0,0,2.791-1.683,13.569,13.569,0,0,0,2.377-2.23,14.026,14.026,0,0,0-2.791,1.7Zm-31.1-35.587a14.293,14.293,0,0,0-2.392,2.244,14.429,14.429,0,0,0,2.806-1.683,13.658,13.658,0,0,0,2.377-2.244A14.768,14.768,0,0,0,527.016,153.543Zm14.6,43.516a14.158,14.158,0,0,0-3.263-.1,15.475,15.475,0,0,0,6.423.886,14.13,14.13,0,0,0-3.16-.738Zm-23.331-25.487a14.16,14.16,0,0,0-3.263-.1,15.165,15.165,0,0,0,6.423.9,14.174,14.174,0,0,0-3.16-.753Zm7.959,24.542a12.367,12.367,0,0,0-.605,2.126l.591.31a12.2,12.2,0,0,0,.015-2.392ZM536.5,163.88a15.284,15.284,0,0,0-.9,6.438A15.932,15.932,0,0,0,536.5,163.88Z" transform="translate(-490.31 -64.74)" fill="#fff"/>
      <path id="Path_3804" data-name="Path 3804" d="M503.231,160.96c5.567-.428,28.263-2.953,33.121-3.854.34,0,.384-.281,0-.266a301.516,301.516,0,0,0-33.15,3.9.118.118,0,0,0,.029.221Z" transform="translate(-491.022 -62.366)" fill="#263238"/>
      <path id="Path_3805" data-name="Path 3805" d="M568.28,203.585a69.561,69.561,0,0,1-9.76-4.179,83.561,83.561,0,0,1-9.17-5.316,93.189,93.189,0,0,1,9.672,4.3c1.565.812,3.13,1.624,4.666,2.481S566.76,202.669,568.28,203.585Z" transform="translate(-468.995 -44.612)" fill="#263238"/>
      <path id="Path_3806" data-name="Path 3806" d="M557.583,197.893a13.924,13.924,0,0,1-3.337-.65,14.205,14.205,0,0,1-3.116-1.373,13.94,13.94,0,0,1,3.337.664A14.566,14.566,0,0,1,557.583,197.893Z" transform="translate(-468.147 -43.763)" fill="#263238"/>
      <path id="Path_3807" data-name="Path 3807" d="M566.392,190.271a23.629,23.629,0,0,1-4.43-3.2,23.02,23.02,0,0,1-3.633-4.016,23.624,23.624,0,0,1,4.43,3.2A23.024,23.024,0,0,1,566.392,190.271Z" transform="translate(-464.715 -49.874)" fill="#263238"/>
    </g>
    <g id="freepik--character-1--inject-87" transform="translate(81.328 54.58)">
      <path id="Path_3671" data-name="Path 3671" d="M271.57,444.782c-2.953.975-89.646.221-92.939-1.9-1.24-.8-1.875-13.408-2.185-28.691-.074-3.293-6.615-56.437-6.615-56.437l57.913.34,4.548,56.437s33.032,15.121,36.384,17.823S274.611,443.764,271.57,444.782Z" transform="translate(-25.534 93.861)" fill="#eb9481"/>
      <path id="Path_3672" data-name="Path 3672" d="M269.358,423.782c-2.953.975-89.646.221-92.939-1.9-.975-.635-1.58-8.609-1.949-19.462,14.766,2.23,64.972,9.672,76.105,8.579,7.546-.738,2.687-5.39-2.732-9.185,8.432,4.016,17.011,8.24,18.62,9.539C269.757,414.066,272.4,422.763,269.358,423.782Z" transform="translate(-23.323 114.862)" fill="#263238"/>
      <path id="Path_3673" data-name="Path 3673" d="M114,212.42S179.828,327.6,181.526,335.689c2.628,12.374,17.882,147.249,17.882,147.249l64.794-.4S251.326,362.12,240.37,326.578c-6-19.4-37.536-72-52.317-97.974-1.314-2.318-.93-12.935-.93-12.935Z" transform="translate(-52.144 24.593)" fill="#455a64"/>
      <path id="Path_3674" data-name="Path 3674" d="M228.9,388.163c-10.056-.192-40.46-1.034-53.853,0-.1,0-.1.177,0,.192,4.592.709,43.8.236,53.853,0a.148.148,0,1,0,0-.192Z" transform="translate(-23.085 108.116)" fill="#263238"/>
      <path id="Path_3675" data-name="Path 3675" d="M121.746,219.641c4.327,6.97,8.86,13.792,13.29,20.673s8.86,13.821,13.171,20.776q13.024,20.865,25.442,42.084A127.907,127.907,0,0,1,183.883,323.7a124.446,124.446,0,0,1,5.656,22.017c1.285,7.531,2.1,15.121,2.85,22.711q1.226,12.138,2.407,24.246c1.639,16.538,5.36,45.894,7.014,62.432.192,2.023.384,4.061.561,6.084a.267.267,0,0,1-.532,0c-1.861-16.435-5.449-45.775-7.117-62.2q-1.255-12.271-2.5-24.571c-.768-7.619-1.477-15.239-2.584-22.829a150.488,150.488,0,0,0-4.666-22.149,105.2,105.2,0,0,0-9.406-21.529c-7.93-14.087-16.346-27.938-24.763-41.759s-17.04-27.82-25.93-41.523c-1.093-1.7-2.2-3.367-3.352-5.035C121.451,219.626,121.672,219.508,121.746,219.641Z" transform="translate(-48.565 28.004)" fill="#263238"/>
      <path id="Path_3676" data-name="Path 3676" d="M159.881,456.146c-3.19-.236-85.142-34.612-87.4-37.816a1.137,1.137,0,0,1-.118-.605c0-2.835,5.907-12.669,10.809-25.62.31-.827,28.44-48.345,28.44-48.345l53.572,22.046-30.374,47.547s24.955,26.417,27.037,30.182S163.056,456.338,159.881,456.146Z" transform="translate(-71.992 87.193)" fill="#eb9481"/>
      <path id="Path_3679" data-name="Path 3679" d="M136.427,390.949c-8.668-3.854-6.128-2.865-14.766-6.63-4.253-1.831-32.279-13.9-36.561-14.9-.089,0-.148.118,0,.177,3.721,2.333,31.954,13.9,36.251,15.652,8.86,3.588,6.305,2.466,15.121,5.906a.148.148,0,0,0-.044-.207Z" transform="translate(-65.962 99.424)" fill="#263238"/>
      <path id="Path_3680" data-name="Path 3680" d="M165.993,225.009a118.129,118.129,0,0,0-18.96,5.906.207.207,0,0,0,.133.384c6.379-1.787,12.861-3.441,19.122-5.552a.4.4,0,0,0-.3-.738Z" transform="translate(-36.449 30.58)" fill="#263238"/>
      <path id="Path_3681" data-name="Path 3681" d="M155.661,223.29a26.4,26.4,0,0,0-1.624,3.308,7.236,7.236,0,0,0-.856,2.776c0,.192.251.236.369.133a10.514,10.514,0,0,0,1.595-2.614c.532-1.019,1.107-2.038,1.609-3.071C157.093,223.142,156.059,222.625,155.661,223.29Z" transform="translate(-33.47 29.627)" fill="#263238"/>
      <path id="Path_3682" data-name="Path 3682" d="M156.085,221.118c.4-.945.8-1.89,1.211-2.835s.915-1.949,1.27-2.953c0-.148.31,0,.236.118-.384.96-.65,1.979-.96,2.953s-.65,1.964-.989,2.953c-.635,1.831-1.4,3.633-2.215,5.39a6.689,6.689,0,0,0,2.953-.487,5.449,5.449,0,0,0,2.141-2.5c.561-1.063,1.078-2.156,1.654-3.2a23.136,23.136,0,0,0,1.772-3.588c0-.162.3,0,.236.1a42.012,42.012,0,0,1-3.411,7.634c-.576.945-1.063,1.92-2.112,2.274a8.5,8.5,0,0,1-3.559.192c-.148,0-.325,0-.281-.221C154.667,224.987,155.317,223.008,156.085,221.118Z" transform="translate(-33.067 25.951)" fill="#263238"/>
      <path id="Path_3683" data-name="Path 3683" d="M153.632,227.448c2.156,4.71,4.046,9.406,6.054,14.1s3.795,9.214,5.567,13.88c3.588,9.406,6.792,18.989,9.6,28.676q2.067,7.176,3.78,14.471a104.3,104.3,0,0,1,2.7,14.766,38.969,38.969,0,0,1-1.477,14.766c-1.477,4.888-9.45,21.455-11.71,26.018-1.388,2.791-1.846,2.407-1.181.989,1.9-3.987,12.891-27.008,13.467-36.547.3-4.932-1.787-11.916-2.835-16.73s-2.3-9.775-3.647-14.633c-2.643-9.539-5.8-18.9-9.066-28.248-1.831-5.242-3.795-10.425-5.655-15.652s-3.795-10.012-5.907-15.77a.161.161,0,1,1,.31-.089Z" transform="translate(-33.405 31.7)" fill="#263238"/>
      <path id="Path_3684" data-name="Path 3684" d="M122.75,220.645c1.093-.384,2.584.3,3.677.5a31.97,31.97,0,0,0,4.267.473,31.176,31.176,0,0,0,4.238-.089,9.3,9.3,0,0,0,4.075-1.019,20.347,20.347,0,0,0,5.227-5.434,30.565,30.565,0,0,0,4.105-7.058c0-.148.281,0,.236.1a32.688,32.688,0,0,1-1.477,4.3,26.887,26.887,0,0,1-2.023,3.81,16.671,16.671,0,0,1-5.449,6.01c-2.525,1.4-5.744,1.27-8.52,1.078a30.808,30.808,0,0,1-4.8-.694c-1.137-.251-3.057-.458-3.765-1.477a.354.354,0,0,1,.207-.5Z" transform="translate(-48.092 22.466)" fill="#263238"/>
      <path id="Path_3685" data-name="Path 3685" d="M89.066,446.675c10.085-14.855,52.553-87.948,62.018-103.29a64.307,64.307,0,0,0,6.349-11.4c1.61-4.43.768-8.756-.576-13.127a222.543,222.543,0,0,0-8.963-23.508c-3.381-7.693-7.029-15.283-10.617-22.888a219.391,219.391,0,0,1-10.026-23.035,39.145,39.145,0,0,1-1.344-23.154c2.112-7.723,6.556-14.633,11.193-21.072,1.226-1.7,2.466-3.367,3.692-5.065.089-.133.281,0,.192.162-5.094,6.7-10.085,13.806-13.112,21.706a37.861,37.861,0,0,0-2.643,12.227,39.869,39.869,0,0,0,1.8,12.566c2.348,7.915,6.1,15.416,9.6,22.873s7.235,15.18,10.691,22.858a241.9,241.9,0,0,1,9.318,23.626c1.181,3.573,2.5,7.383,2.363,11.148-.148,4.194-2.185,7.929-4.3,11.444C145.5,354,103.256,426.563,93.215,441.374q-1.875,2.806-3.795,5.6C89.243,447.192,88.977,446.911,89.066,446.675Z" transform="translate(-64.037 18.713)" fill="#263238"/>
      <path id="Path_3686" data-name="Path 3686" d="M140.193,119.343c-12.729,10.912-9.185,26.816-14.5,35.439-3.249,5.272-13.836,10.853-15.933,16.937-3.47,10,5.006,13.585,3.116,19-2.687,7.708-12.994,7.1-14.766,19.7s11.99,25.974,44.86,29.606,50.944-8.417,52.125-19.093-9.761-14.235-10.514-22.149c-.473-5.109,6.276-8.653,6.63-18.03s-8.86-12.433-10.115-20.392,2.953-27.332-8.86-37.211S146.483,113.953,140.193,119.343Z" transform="translate(-59.79 -21.62)" fill="#263238"/>
      <path id="Path_3687" data-name="Path 3687" d="M142.538,118.286a27.288,27.288,0,0,0-8.446,9.746,59.36,59.36,0,0,0-4.7,12.921,36.029,36.029,0,0,1-2.555,7.738,19.905,19.905,0,0,1-4.43,5.449c-3.559,3.219-7.8,5.67-11,9.273s-5.375,8-4.164,12.669c.65,2.54,2.333,4.607,3.367,6.984s1.388,5.021-.546,6.881c-1.639,1.595-4.016,2.333-5.907,3.633a20.806,20.806,0,0,0-4.8,4.651,16.154,16.154,0,0,0-2.953,12.64c1.934,10.233,11.532,16.051,20.392,19.713l3.721,1.477c.192.074.354-.207.162-.3-8.86-3.972-19.2-8.653-22.622-18.591a15.032,15.032,0,0,1,1.477-13.186,19,19,0,0,1,4.71-4.947c1.787-1.314,3.839-2.126,5.67-3.381a6.069,6.069,0,0,0,2.791-5.4,14.84,14.84,0,0,0-2.451-6.541,12.108,12.108,0,0,1-2.1-6.881,13.29,13.29,0,0,1,2.628-6.571c2.776-3.913,6.866-6.482,10.543-9.45a22.356,22.356,0,0,0,8-11.075c.679-2.348,1.093-4.755,1.683-7.117a62.019,62.019,0,0,1,1.964-6.5,31.009,31.009,0,0,1,6.955-11.459,17.055,17.055,0,0,1,2.717-2.23C142.759,118.389,142.656,118.212,142.538,118.286Z" transform="translate(-60.659 -20.282)" fill="#263238"/>
      <path id="Path_3688" data-name="Path 3688" d="M171.566,209.074a12.374,12.374,0,0,0-2.289-4.784,53.967,53.967,0,0,0-3.78-4,9.2,9.2,0,0,1-2.687-4.43,8.86,8.86,0,0,1,1.477-5.906,43.651,43.651,0,0,0,2.953-5.729,20.54,20.54,0,0,0-2.052-18.354c-1.122-1.831-2.392-3.573-3.529-5.4a26.577,26.577,0,0,1-2.953-6.394c-1.477-4.947-1.8-10.159-2.953-15.18a78.721,78.721,0,0,0-5.331-14.914c0-.118-.236,0-.177.118a68.562,68.562,0,0,1,4.666,13.467c1.048,4.43,1.477,8.86,2.23,13.29a31.97,31.97,0,0,0,1.61,6.409,33.4,33.4,0,0,0,2.85,5.493c2.215,3.618,4.518,7.206,5.124,11.488a20.215,20.215,0,0,1-2.112,12.315c-1.728,3.263-4.149,6.866-2.643,10.691,1.285,3.249,4.43,5.183,6.423,7.87a12.935,12.935,0,0,1,2.215,10.336c-1.757,9.2-10.986,13.762-19.624,14.22a.222.222,0,0,0,0,.428c7.5-.089,15.667-3.4,19.2-10.425a16.051,16.051,0,0,0,1.388-10.6Z" transform="translate(-34.874 -17.585)" fill="#263238"/>
      <path id="Path_3689" data-name="Path 3689" d="M154.553,174.917c20.673,18.738,47.651,38.481,61.782,34.568,12.788-3.529,30.478-19.816,49.807-37.4,3.839-3.485-24.881-31.91-28.587-27.79-7.383,8.136-22.149,28.661-27.938,31.172-2.5,1.078-31.939-11.473-51.136-17.483C135.3,150.67,146.343,167.46,154.553,174.917Z" transform="translate(-37.56 -8.073)" fill="#eb9481"/>
      <path id="Path_3690" data-name="Path 3690" d="M251.831,171.751c-6.733,4.947-17.72,11.606-22.7,12.389-4.681.738-24.6-29.429-21.618-33.268,9.258-11.975,27.8-20.673,36.325-20.318S258.8,166.657,251.831,171.751Z" transform="translate(-7.715 -14.431)" fill="#eb9481"/>
      <path id="Path_3691" data-name="Path 3691" d="M97.05,475.406a54.236,54.236,0,0,1-24.94-6.364l.709-1.3c8.86,4.8,23.006,8.505,36.074,4.43a34.1,34.1,0,0,0,20.673-17.9c8.948-17.409,29-89.41,40.976-132.424,6.778-24.35,10.071-36.1,10.824-37.167,2.5-3.573,136.721-121.748,139.438-122.767S718.178,56.355,734.968,51.91l.384,1.477c-4.105,1.093-410.325,108.68-414.031,109.964-3.677,1.934-135.983,118.484-138.8,122.235-.694,1.152-5.286,17.631-10.6,36.709-12.847,45.834-32.043,115.147-41.139,132.69-4.858,9.45-12.094,15.726-21.514,18.635a41.494,41.494,0,0,1-12.212,1.787Z" transform="translate(-72.11 -51.91)" fill="#263238"/>
      <path id="Path_3692" data-name="Path 3692" d="M224.491,134.3c-1.683,4.075,4.105,3.736,4.105,3.736s-8.225,2.51-8.343,7.383,6.881,4.046,7.383,4.016c-.443.133-7.929,2.628-7.531,7.56s7.295,3.249,7.738,3.13c-.369.251-5.183,3.736-4.046,7.383,1.979,6.32,14.545-2.244,19.757-1.019,0,0,1.61,6.984,1.639,7.25,0,0,9.45-5.8,10.706-12.935a4.607,4.607,0,0,0-2.7-5.109s4.179-2.112,4-6.01c-.1-1.993-3.381-3.6-3.381-3.6a5.8,5.8,0,0,0,2.953-5.286c-.3-2.761-3.544-3.943-3.544-3.943s2.348-3.234,1.137-5.907C251.882,125.444,228.138,125.444,224.491,134.3Z" transform="translate(-1.579 -16.041)" fill="#eb9481"/>
      <path id="Path_3693" data-name="Path 3693" d="M250.12,133.962v-.118a41.345,41.345,0,0,0-24.453,1.477c-.236.1-.177.546.1.487a84.743,84.743,0,0,1,24.35-1.846Z" transform="translate(1.01 -13.425)" fill="#263238"/>
      <path id="Path_3694" data-name="Path 3694" d="M251.658,140.32a.082.082,0,0,0,0-.162,38.629,38.629,0,0,0-26.579,3.322c-.281.148-.369.576,0,.413C230.749,141.28,244.024,139.685,251.658,140.32Z" transform="translate(0.682 -10.333)" fill="#263238"/>
      <path id="Path_3695" data-name="Path 3695" d="M225.06,151.749c8.033-4.075,16.553-5.168,25.472-5.021.118,0,.118-.162,0-.192-4.341-1.255-10.041-.753-14.441,0a23.523,23.523,0,0,0-11.193,4.917C224.824,151.572,224.928,151.838,225.06,151.749Z" transform="translate(0.701 -7.173)" fill="#263238"/>
      <path id="Path_3696" data-name="Path 3696" d="M228.934,134.5a26.447,26.447,0,0,0-4.43,2.289,9.14,9.14,0,0,0-3.308,3.367,2.953,2.953,0,0,0-.207,2.126,4.577,4.577,0,0,0,1.137,1.89,5.375,5.375,0,0,0,4.164,1.152l3.6-.4-3.249,1.624a14.766,14.766,0,0,0-3.928,2.776,5.286,5.286,0,0,0-1.8,3.957,2.953,2.953,0,0,0,2.422,2.953,9.185,9.185,0,0,0,4.578-.31l4.12-1.226-3.47,2.5a13.1,13.1,0,0,0-2.614,2.422,5.641,5.641,0,0,0-1.477,2.953,2.717,2.717,0,0,0,1.24,2.584,6.084,6.084,0,0,0,3.352.458,45.971,45.971,0,0,0,7.295-1.565c1.211-.31,2.436-.635,3.677-.9a9.007,9.007,0,0,1,3.765-.192,9.465,9.465,0,0,0-3.677.532c-1.211.354-2.392.768-3.588,1.167a39.411,39.411,0,0,1-7.383,1.993,7.044,7.044,0,0,1-4.046-.413,3.928,3.928,0,0,1-1.993-3.765,7.147,7.147,0,0,1,1.669-3.765,15.208,15.208,0,0,1,2.865-2.732l.65,1.27a10.646,10.646,0,0,1-5.419.428,4.43,4.43,0,0,1-2.525-1.58,4.873,4.873,0,0,1-.975-2.776,6.689,6.689,0,0,1,2.274-5.006,16.244,16.244,0,0,1,4.356-2.953l.354,1.226a6.246,6.246,0,0,1-5.05-1.683,5.331,5.331,0,0,1-1.285-2.392,3.869,3.869,0,0,1,.354-2.7,9.391,9.391,0,0,1,3.81-3.411A22.563,22.563,0,0,1,228.934,134.5Z" transform="translate(-1.917 -12.545)" fill="#263238"/>
      <path id="Path_3697" data-name="Path 3697" d="M209.08,149.732S229.3,117.01,237.771,129.9c2.525,3.824,8.313,22.563,4.578,23.788-4.829,1.595-8.7-5.774-10.336-10.779,0,0-4.666,11.252-13.467,10.336A20.673,20.673,0,0,1,209.08,149.732Z" transform="translate(-6.826 -16.171)" fill="#eb9481"/>
      <path id="Path_3698" data-name="Path 3698" d="M233.348,128.23a18.664,18.664,0,0,1,2.85,4.592,44.778,44.778,0,0,1,1.949,5.065,63.748,63.748,0,0,1,2.451,10.587,10.442,10.442,0,0,1,0,2.879,3.678,3.678,0,0,1-.605,1.477,2.362,2.362,0,0,1-.62.664,2.952,2.952,0,0,1-.8.413,4.622,4.622,0,0,1-3.16-.162,8.668,8.668,0,0,1-2.451-1.669,16.656,16.656,0,0,1-3.2-4.577,39.392,39.392,0,0,1-2.067-5.08h1.181a21.616,21.616,0,0,1-2.082,3.6,19.417,19.417,0,0,1-2.687,3.13,14.266,14.266,0,0,1-3.4,2.318,10.588,10.588,0,0,1-3.928,1.063,12.122,12.122,0,0,0,3.721-1.477,14.574,14.574,0,0,0,3.042-2.51,19.049,19.049,0,0,0,2.422-2.938,21.539,21.539,0,0,0,1.757-3.5l.576-1.477.605,1.477a40.525,40.525,0,0,0,2.126,4.829,16.08,16.08,0,0,0,2.953,4.149,4.43,4.43,0,0,0,4.09,1.477c1.181-.3,1.24-2.259,1.093-3.943s-.473-3.485-.8-5.227-.694-3.5-1.152-5.227A34.375,34.375,0,0,0,233.348,128.23Z" transform="translate(-3.156 -15.534)" fill="#263238"/>
      <path id="Path_3699" data-name="Path 3699" d="M189.221,200.229l11.089-32.087s-27.155-12.418-42.7-15.756-19.314,3.219-5.449,17.557S189.221,200.229,189.221,200.229Z" transform="translate(-38.044 -4.428)" fill="#15ace5"/>
      <path id="Path_3700" data-name="Path 3700" d="M181.254,162.275c-1.979,4.149-3.588,8.505-5.2,12.817s-3.071,8.594-4.327,12.98c0,.074.118.133.148,0,1.772-4.253,3.411-8.564,4.991-12.891s3.219-8.535,4.548-12.891C181.446,162.245,181.3,162.186,181.254,162.275Z" transform="translate(-24.628 0.671)" fill="#263238"/>
      <path id="Path_3701" data-name="Path 3701" d="M194.842,181.687l-5.715,16.464s-23.154-16.066-37.063-30.345c-4.8-4.917-7.472-8.86-8.284-11.916Z" transform="translate(-37.95 -2.35)" opacity="0.1"/>
      <path id="Path_3702" data-name="Path 3702" d="M189.474,245.842,111.39,232.3s18.9-55.329,35.439-75.16c8.092-9.731,20.008-5.774,24.881-1.55,1.55,1.344,16.774,22.371,18.281,31.112,1.3,7.738-3.972,15.992-3.972,15.992Z" transform="translate(-53.388 -4.636)" fill="#15ace5"/>
      <path id="Path_3703" data-name="Path 3703" d="M160.166,184.005a72.354,72.354,0,0,0-10.514,1.742c-1.713.443-3.381.96-5.065,1.477-.842.281-1.683.532-2.525.768a11.356,11.356,0,0,1-2.7.517v.133a22.062,22.062,0,0,0,2.614,0,17.916,17.916,0,0,0,2.481-.473c1.742-.428,3.455-.945,5.2-1.388,3.5-.916,7-1.816,10.558-2.481C160.372,184.2,160.343,183.917,160.166,184.005Z" transform="translate(-40.057 11.042)" fill="#263238"/>
      <path id="Path_3704" data-name="Path 3704" d="M165.089,186.2a76.053,76.053,0,0,0-8.786-.4c-1.477,0-2.953.118-4.43.266l-2.1.236c-.768.1-1.477.31-2.289.384-.074,0-.074.148,0,.133h4.371l4.43-.1c2.953-.1,5.906-.177,8.771-.192C165.252,186.437,165.237,186.215,165.089,186.2Z" transform="translate(-36.209 11.904)" fill="#263238"/>
      <path id="Path_3705" data-name="Path 3705" d="M145.217,161.585c-29.813,25.1-58.282,81.022-46.071,87.948,11.149,6.32,48.8,5.906,64.484,3.957,4.607-.576-.517-36.34-5.449-35.734-5.906.724-21.012,1.181-21.6,1.078-1.27-.236,17.587-39.455,23.626-53.882C168.592,144.855,156.424,152.164,145.217,161.585Z" transform="translate(-60.606 -4.133)" fill="#eb9481"/>
      <path id="Path_3706" data-name="Path 3706" d="M185.79,196.716a5.522,5.522,0,0,1-1.167,6.2,8.254,8.254,0,0,1,3.47,4.43c.915,3.249-3.78,6.113-3.78,6.113a10.1,10.1,0,0,1,2.953,5.2c.561,3.2-3.765,6.763-3.765,6.763a8.86,8.86,0,0,1-.31,6.187c-2.466,5.139-11.1,6.1-16.6,6.778s-21.677-2.569-24.822-2.865l-4.622-35.188s23.759-10.012,30.315-9.893C172.973,190.5,183.87,192.847,185.79,196.716Z" transform="translate(-41.11 14.117)" fill="#eb9481"/>
      <path id="Path_3707" data-name="Path 3707" d="M174.876,198.945c-5.907-1.477-11.813-1.24-17.823-1.285a.1.1,0,0,0,0,.207c5.907,0,11.813,1.137,17.72,1.358a.149.149,0,1,0,.1-.281Z" transform="translate(-31.673 17.558)" fill="#263238"/>
      <path id="Path_3708" data-name="Path 3708" d="M174.609,205.751a16.007,16.007,0,0,0-4.12-.1c-1.477,0-2.953.148-4.43.251-2.953.221-5.833.5-8.727.871-.133,0-.133.221,0,.207,2.953-.207,5.818-.384,8.727-.473l4.43-.1a18.3,18.3,0,0,0,4.12-.192.229.229,0,0,0,0-.458Z" transform="translate(-31.538 21.324)" fill="#263238"/>
      <path id="Path_3709" data-name="Path 3709" d="M173.535,214.137a11.267,11.267,0,0,0-3.721.089l-3.972.369c-2.658.221-5.316.443-7.989.576a.1.1,0,0,0,0,.207c2.717-.118,5.419-.207,8.121-.354l3.987-.236a10.174,10.174,0,0,0,3.588-.517Z" transform="translate(-31.292 25.357)" fill="#263238"/>
      <path id="Path_3710" data-name="Path 3710" d="M107.72,193.73l31.216,13.408s14.309-26.2,18.768-41.464-1.831-19.61-17.07-6.748S107.72,193.73,107.72,193.73Z" transform="translate(-55.137 -4.515)" fill="#15ace5"/>
      <path id="Path_3711" data-name="Path 3711" d="M137.717,188.26c-4-2.259-8.225-4.194-12.4-6.1s-8.358-3.677-12.64-5.242a.074.074,0,0,0,0,.148c4.105,2.067,8.284,4.016,12.492,5.906s8.3,3.81,12.537,5.449C137.732,188.452,137.791,188.32,137.717,188.26Z" transform="translate(-52.811 7.673)" fill="#263238"/>
      <path id="Path_3712" data-name="Path 3712" d="M144.248,168.82c-2.008,5.212-4.282,10.336-6.674,15.313-1.211,2.51-2.451,5.006-3.751,7.472s-2.628,4.917-4.12,7.28v.133h-.118c-.753-.369-1.477-.738-2.215-1.122l2.333.827-.207.074,3.544-7.56,3.618-7.516c1.226-2.5,2.451-4.991,3.736-7.457S142.875,171.256,144.248,168.82Z" transform="translate(-45.772 3.812)" fill="#263238"/>
      <path id="Path_3713" data-name="Path 3713" d="M134.8,179.679a25.442,25.442,0,0,1,2.2-3.869,24,24,0,0,1,2.806-3.44,22.459,22.459,0,0,1-2.2,3.883A23.935,23.935,0,0,1,134.8,179.679Z" transform="translate(-42.23 5.504)" fill="#263238"/>
      <path id="Path_3714" data-name="Path 3714" d="M140.988,161.856c.724,1.2,9.731,7.531,15.549,5.272,1.9-.738-1.669-11.267-1.669-11.267l-.089-.842-1.2-11.724L138,139.353l-2.215-.473s.546,3.19,1.255,7.147a4.319,4.319,0,0,0,.1.576,1.906,1.906,0,0,0,.1.635c.1.605.207,1.211.325,1.8s.162.9.281,1.388.192.945.3,1.477a74.32,74.32,0,0,0,2.835,9.952Z" transform="translate(-41.758 -10.458)" fill="#eb9481"/>
      <path id="Path_3715" data-name="Path 3715" d="M137.05,146.027a23.626,23.626,0,0,0,17.72,8.993l-1.2-11.724-15.578-3.943-2.215-.473S136.341,142.01,137.05,146.027Z" transform="translate(-41.763 -10.458)" fill="#263238"/>
      <path id="Path_3716" data-name="Path 3716" d="M167.464,131.66c8.756,18.753-1.477,26.122-5.537,28.056-3.677,1.713-16.391,7.058-27.037-10.691s-4.681-27.746,3.514-32.087S158.722,112.907,167.464,131.66Z" transform="translate(-44.919 -22.006)" fill="#eb9481"/>
      <path id="Path_3717" data-name="Path 3717" d="M150.91,123.967c-.458.148-.915.221-1.388.325a2.348,2.348,0,0,1-1.477,0,.738.738,0,0,1-.369-.812,1.8,1.8,0,0,1,1.477-1.152,2.614,2.614,0,0,1,1.92.148.783.783,0,0,1-.162,1.491Z" transform="translate(-36.102 -18.403)" fill="#263238"/>
      <path id="Path_3718" data-name="Path 3718" d="M143.4,130.621a13.037,13.037,0,0,0,1.329-.517,2.259,2.259,0,0,0,1.255-.8.724.724,0,0,0-.148-.886,1.831,1.831,0,0,0-1.846-.118,2.628,2.628,0,0,0-1.477,1.211.783.783,0,0,0,.886,1.107Z" transform="translate(-38.591 -15.592)" fill="#263238"/>
      <path id="Path_3719" data-name="Path 3719" d="M145.811,130.53s-.074.1,0,.162c.664,1.24,1.226,2.776.281,3.765h0C147.391,133.631,146.637,131.608,145.811,130.53Z" transform="translate(-36.998 -14.438)" fill="#263238"/>
      <path id="Path_3720" data-name="Path 3720" d="M144.888,130.025c-2.1.856-.236,5.006,1.713,4.208S146.66,129.331,144.888,130.025Z" transform="translate(-37.863 -14.716)" fill="#263238"/>
      <path id="Path_3721" data-name="Path 3721" d="M144.9,130.43c-.266.4-.428.975-.842,1.211s-1.063,0-1.58-.251c0,0-.074,0,0,.074.354.812,1.019,1.477,1.934,1.226a1.7,1.7,0,0,0,.9-2.082C145.227,130.43,145.006,130.282,144.9,130.43Z" transform="translate(-38.585 -14.514)" fill="#263238"/>
      <path id="Path_3722" data-name="Path 3722" d="M150.45,128h.148c.517,1.3,1.344,2.717,2.7,2.628v.074C151.809,131.19,150.731,129.3,150.45,128Z" transform="translate(-34.771 -15.644)" fill="#263238"/>
      <path id="Path_3723" data-name="Path 3723" d="M151.036,126.787c2.008-1.063,3.987,2.953,2.141,4.016S149.352,127.688,151.036,126.787Z" transform="translate(-34.796 -16.306)" fill="#263238"/>
      <path id="Path_3724" data-name="Path 3724" d="M151.534,127.021c.428,0,.945.31,1.344.148s.576-.8.664-1.358h.074c.4.768.546,1.713-.133,2.215s-1.477,0-2.008-.635C151.357,127.272,151.372,127.006,151.534,127.021Z" transform="translate(-34.319 -16.687)" fill="#263238"/>
      <path id="Path_3725" data-name="Path 3725" d="M148.828,137.831a2.2,2.2,0,0,0,1.477.325,3.588,3.588,0,0,0,1.27-.886h.089a1.92,1.92,0,0,1-1.388,1.373,1.477,1.477,0,0,1-1.477-.753C148.681,137.861,148.769,137.8,148.828,137.831Z" transform="translate(-35.586 -11.225)" fill="#263238"/>
      <path id="Path_3726" data-name="Path 3726" d="M153.05,136.789s1.137,1.787,1.565,2.687c0,.089-.162.221-.458.384h0a4.7,4.7,0,0,1-4.9.325c-.1,0,0-.192.089-.177a7.088,7.088,0,0,0,4.43-.694c0-.281-2.082-2.953-1.934-3.071a8.947,8.947,0,0,1,2.259-.487c-2.289-3.795-5.153-7.191-7.383-11a.133.133,0,0,1,.207-.162,71.853,71.853,0,0,1,8.446,11.518C155.62,136.6,153.449,136.774,153.05,136.789Z" transform="translate(-36.559 -17.285)" fill="#263238"/>
      <path id="Path_3727" data-name="Path 3727" d="M152.64,135a5.286,5.286,0,0,1-1.27,2.363,2.3,2.3,0,0,1-1.27.664c-1.063.177-1.477-.679-1.639-1.477a5.907,5.907,0,0,1-.089-1.344A6.866,6.866,0,0,0,152.64,135Z" transform="translate(-35.765 -12.307)" fill="#263238"/>
      <path id="Path_3728" data-name="Path 3728" d="M151.339,136.874a2.3,2.3,0,0,1-1.27.664c-1.063.177-1.477-.679-1.639-1.477A2.422,2.422,0,0,1,151.339,136.874Z" transform="translate(-35.734 -11.893)" fill="#ff9cbd"/>
      <path id="Path_3729" data-name="Path 3729" d="M138.974,150.974c4.43-2.555-1.477-17.336-2.274-19.2.532,1.122,3.4,7,3.957,7a4.519,4.519,0,0,0,1.3-1.019h0a15.211,15.211,0,0,1-.915-2.171c-.133-.34.487.635,1.314,1.8l.724-.679a18.931,18.931,0,0,1-1.861-4.637c-.148-.62,1.285,1.772,2.953,3.647a62.2,62.2,0,0,1,10.912-8.372,26.032,26.032,0,0,1,2.953-1.477c-.9-1.728-2.038-3.441-1.713-3.116a18.783,18.783,0,0,1,2.377,2.806c.487-.221.945-.413,1.358-.576-1.152-2.481-4.312-5.744-3.618-5.36a19.536,19.536,0,0,1,5.449,4.74c1.816-.532,2.436-.458,2.259-.9a20.673,20.673,0,0,0-12.108-10.336c-8.55-2.407-21.249,3.16-23.36,14.766,0,0-5.39,8.2-3.308,14.205S136.375,152.451,138.974,150.974Z" transform="translate(-46.951 -22.995)" fill="#263238"/>
      <path id="Path_3730" data-name="Path 3730" d="M138.448,138.823S132,134.3,129.8,136.815s4.194,10.144,7.87,10.174a3.5,3.5,0,0,0,3.765-3.381Z" transform="translate(-44.83 -11.804)" fill="#eb9481"/>
      <path id="Path_3731" data-name="Path 3731" d="M130.93,138.041v.089a8.86,8.86,0,0,1,6.187,3.633,1.934,1.934,0,0,0-2.953.5s0,.133.1.1a2.126,2.126,0,0,1,2.481-.118,10.042,10.042,0,0,1,1.728,1.477c.177.162.5-.074.34-.281h0C137.855,140.448,134.134,137.229,130.93,138.041Z" transform="translate(-44.075 -10.918)" fill="#263238"/>
      <path id="Path_3732" data-name="Path 3732" d="M154.59,150.38l-1.358,10.1-14.353-8.712-2.289,4.548s15.844,15.608,15.7,14.766l1.772-8.86,6.852,4.12-3.943-13.7Z" transform="translate(-41.377 -4.977)" fill="#ebebeb"/>
      <path id="Path_3733" data-name="Path 3733" d="M159.414,158.71c-.724-2.244-1.4-4.518-2.23-6.719,0-.089-.162-.089-.162,0,.1,2.318,2.953,10.868,3.455,12.95h0c-.3-.177-6.29-3.559-6.32-3.47-.5,1.477-1.816,7.929-1.875,8.491-2.5-2.481-12.92-12.123-15.711-14.368a.089.089,0,0,0-.118.118c2.348,2.7,15.888,15.475,16.021,15.4a94.137,94.137,0,0,0,1.831-9.362,62.3,62.3,0,0,0,7.191,4.43,75.138,75.138,0,0,0-2.082-7.472Z" transform="translate(-41.447 -4.24)" fill="#263238"/>
      <path id="Path_3677" data-name="Path 3677" d="M159.881,438.215c-3.19-.236-85.142-34.612-87.4-37.816a1.137,1.137,0,0,1-.118-.605c0-2.274,3.824-9.1,7.87-18.414,14.766,10.883,61.044,39.647,69.756,40.268,4.592.325.783-7.265-2.244-12.33,6.438,7.014,13.083,14.427,14.1,16.243C163.912,429.37,163.056,438.407,159.881,438.215Z" transform="translate(-71.992 105.124)" fill="#263238"/>
    </g>
    <path id="Path_3678" data-name="Path 3678" d="M137.271,484.766l-59.951-25.1s79.546-121.541,80.2-129.707c.576-7.235-31.467-70.671-32.486-89.055-1.152-19.846,8.579-35.07,19.2-44.461l60.438,26.816s-5.286,10.794-15.682,16.509c0,0,31.009,73.241,28.9,95.626S137.271,484.766,137.271,484.766Z" transform="translate(11.701 71.557)" fill="#455a64"/>
  </g>
</svg>
