<svg id="sdsd" xmlns="http://www.w3.org/2000/svg" xmlns:xlink="http://www.w3.org/1999/xlink" width="504.85" height="564" viewBox="0 0 504.85 564">
  <defs>
    <clipPath id="clip-path">
      <rect id="Rectangle_1024" data-name="Rectangle 1024" width="504.85" height="564" fill="none"/>
    </clipPath>
  </defs>
  <g id="OBJECTS">
    <g id="Group_240" data-name="Group 240" clip-path="url(#clip-path)">
      <path id="Path_2934" data-name="Path 2934" d="M512.32,307.724c0,95.568-113,173.054-252.425,173.054S7.47,403.241,7.47,307.724A121.527,121.527,0,0,1,12.9,271.833c12.054-39.168,43.429-73.463,86.977-97.944l.34-.187,1.138-.628.2-.119c3.888-2.156,7.895-4.244,11.884-6.231l1.239-.594a.357.357,0,0,1,.17,0,6.326,6.326,0,0,1,.679-.339h0a.459.459,0,0,1,.187,0,5.914,5.914,0,0,1,.662-.323c.39-.2.781-.374,1.171-.543a4.956,4.956,0,0,1,.611-.289c.424-.221.866-.424,1.29-.594,2.122-.985,4.261-1.935,6.435-2.852,1.6-.7,3.192-1.375,4.8-2.02l1.409-.577,1.171-.475.424-.17q7.182-2.852,14.669-5.365c1.545-.526,3.107-1.036,4.669-1.528s3.005-.968,4.533-1.426,3.107-.934,4.686-1.375l4.533-1.273,2.5-.645a14.584,14.584,0,0,1,1.7-.424,2.83,2.83,0,0,1,.509-.136c1.341-.356,2.7-.7,4.058-1a2.374,2.374,0,0,1,.577-.136c1.7-.424,3.4-.815,5.093-1.188h.187a.474.474,0,0,1,.221,0c3.107-.713,6.265-1.358,9.423-1.969l.56-.1.56-.1c.424-.1.866-.187,1.29-.255l2.682-.492c2.733-.492,5.5-.951,8.285-1.375l1.528-.221c.577-.1,1.138-.187,1.7-.255,1.7-.255,3.4-.492,5.093-.7a364.05,364.05,0,0,1,40.865-2.971h13.31q11,.2,21.765,1.07a25.908,25.908,0,0,1,2.818.221q11.477.968,22.631,2.665a7.107,7.107,0,0,1,1.205.17l1.137.17.73.119,1.019.17h.374l.645.1.747.136c.679.1,1.358.2,2.02.34,1.426.238,2.852.492,4.261.764q8.761,1.7,17.266,3.7,1.172.255,2.343.56c.832.187,1.7.407,2.479.628a1.136,1.136,0,0,1,.323,0c1.375.34,2.75.7,4.109,1.07l4.533,1.273q2.377.662,4.686,1.375t4.533,1.426c1.562.492,3.124,1,4.669,1.528q4.958,1.7,9.8,3.5c.8.289,1.7.594,2.411.917s1.935.747,2.886,1.12l2.581,1.053c1.613.645,3.209,1.324,4.8,2.02,2.19.917,4.363,1.885,6.5,2.886a1.492,1.492,0,0,1,.34.153l.832.373h.119c.391.17.8.357,1.188.56s.883.39,1.324.628h0l1.324.628c.441.2.9.424,1.341.662q4.363,2.105,8.591,4.414h0c.357.17.7.357,1.036.56,1.7.883,3.277,1.8,4.89,2.716,42.835,24.431,73.666,58.4,85.6,97.163a121.527,121.527,0,0,1,5.535,35.874Z" transform="translate(-7.47 83.222)" fill="#78dd88"/>
      <path id="Path_2935" data-name="Path 2935" d="M507.943,299.532c0,94.413-111.629,170.932-249.335,170.932S9.29,393.946,9.29,299.532a119.835,119.835,0,0,1,2.343-23.584c8.488-41.848,38.946-78.842,83.19-105.26l1.46-.866q6.418-3.769,13.192-7.25l.526-.255.543-.272q1.579-.815,3.158-1.579c.2-.119.407-.2.611-.306h0l.594-.289c3.226-1.579,6.5-3.073,9.83-4.533l.374-.17,2.326-.985,1.273-.543h0c1.562-.662,3.107-1.29,4.686-1.9s3.005-1.205,4.533-1.7a.153.153,0,0,1,.119,0q9.253-3.514,18.964-6.485l4.007-1.205,4.533-1.273c1.545-.441,3.107-.849,4.669-1.239s3.039-.8,4.584-1.154c.407-.119.832-.221,1.256-.306l1.868-.458q1.834-.441,3.667-.815.56-.153,1.121-.255c.849-.2,1.7-.374,2.547-.543a6.963,6.963,0,0,1,.815-.17,1.1,1.1,0,0,1,.323,0,1.205,1.205,0,0,1,.34,0c1.07-.238,2.122-.441,3.192-.645h.492l2.173-.407c2.513-.475,5.093-.917,7.572-1.324q.934-.187,1.885-.306l.917-.153c1.477-.238,2.971-.458,4.465-.662a358.008,358.008,0,0,1,44.7-3.531H265.45q11.256.2,22.224,1.1l2.75.221q6.061.526,12.037,1.256l.764.1.9.119q4.924.611,9.745,1.375,1.07.153,2.139.357a5.3,5.3,0,0,1,1.137.187h0a5.152,5.152,0,0,1,1.121.187l1.6.255,1.46.272,1.324.238c1.426.255,2.835.509,4.244.8l4.737.968c.849.17,1.7.34,2.547.543,2.665.56,5.3,1.171,7.912,1.834,1.545.357,3.056.747,4.584,1.154a2.122,2.122,0,0,1,.441.119l2.716.7,1.511.424,4.533,1.273,4.007,1.205q9.728,2.954,18.964,6.486a.153.153,0,0,1,.119,0l.475.17,2.054.8c.662.255,1.341.509,2,.8,1.579.611,3.124,1.239,4.686,1.9l3.684,1.562.374.17c1.511.662,3.022,1.341,4.516,2.037.781.34,1.562.7,2.326,1.087s1.7.73,2.411,1.138l.968.458h.1a7.219,7.219,0,0,1,.73.357l.34.17c.543.255,1.07.509,1.6.8,4.261,2.105,8.489,4.329,12.462,6.638,1.036.594,2.054,1.171,3.056,1.783.475.272.951.543,1.426.849s.9.526,1.341.815c43.531,26.383,73.5,63.055,81.85,104.464a119.828,119.828,0,0,1,2.581,23.259Z" transform="translate(-6.2 79.105)" fill="#8ff9a5"/>
      <path id="Path_2936" data-name="Path 2936" d="M443.242,349.926H36.32l9.3-30.288,3.956-12.852.526-1.7,3.4-10.934h0L83.824,195.48l2.462-8.013V172.373c-4.414-2.275-6.061-8.2-6.519-10.373a2.893,2.893,0,0,0-.136-.713h0a.477.477,0,0,1,0-.1h1.834l11.884-.611h4.7l7.793-.39,3.243-.17,1.8-.1,26.638-1.358,13.022-.662L156,157.6h3.09l3.5-.187,6.452-.323h4.72l5.3-.272,2.75-.153h3.565l6.01-.323h2.054l4.21-.221,7.827-.407h1.443l1.7-.085h1.154l6.18-.306h.8l6.5-.323,1.46-.085,5.586-.289,9.44-.475h.136l55.262-.323h9.609l18.676-.119h18.472l22.648-.136h21.935L399.1,152h6.6a18.848,18.848,0,0,1-.781,3.4,23.363,23.363,0,0,1-3.752,7.3,20.119,20.119,0,0,1-7.895,6.18v18.353l2.479,8.064,30.322,98.674v.085l3.4,10.883.526,1.7,3.956,12.852Z" transform="translate(12.661 95.077)" fill="#78dd88"/>
      <path id="Path_2937" data-name="Path 2937" d="M331.856,133.779A21.341,21.341,0,0,1,310.5,155.137H104.117a21.358,21.358,0,0,1-11.154-39.524l1.171-.645a21.137,21.137,0,0,1,15.28-1.7,18.812,18.812,0,0,1,.458-3.277,18.2,18.2,0,0,1,1.6-4.278,18.4,18.4,0,0,1,5.093-6.061,13.239,13.239,0,0,1,1.834-1.222,16.334,16.334,0,0,1,3.4-1.6,18.37,18.37,0,0,1,2.92-.73v-.255a21.392,21.392,0,0,1,3.039-11c.2-.323.407-.662.628-.985a21.069,21.069,0,0,1,5.3-5.4c.34-.255.679-.475,1.019-.7a21.34,21.34,0,0,1,3.514-1.7,20.034,20.034,0,0,1,4.856-1.273,19.185,19.185,0,0,1,2.988-.221,21.375,21.375,0,0,1,8.9,1.952,15.28,15.28,0,0,1,2.937-4.448,8.487,8.487,0,0,1,.781-.781,10.873,10.873,0,0,1,.832-.713,15.586,15.586,0,0,1,9.83-3.48,14.872,14.872,0,0,1,3.922.509,3.514,3.514,0,0,1,.56.17,3.394,3.394,0,0,1,.594.17,16.774,16.774,0,0,1,2.852,1.324,15.806,15.806,0,0,1,5.806-7.572,11,11,0,0,1,1.341-.832,15.689,15.689,0,0,1,22.8,9.83c.1-.424.238-.849.374-1.256a15.721,15.721,0,0,1,6.655-8.251A15.365,15.365,0,0,1,222.4,58.89h.458a8.338,8.338,0,0,1,1.46.119A15.687,15.687,0,0,1,237.154,69.2a17.2,17.2,0,0,1,2.02-1A12.818,12.818,0,0,1,240.6,67.7a12.338,12.338,0,0,1,1.358-.374,16.585,16.585,0,0,1,2.445-.289h.679a11.118,11.118,0,0,1,1.511,0,16.756,16.756,0,0,1,1.851.272,15.738,15.738,0,0,1,11.019,9.066,21.375,21.375,0,0,1,9-2.02,19.185,19.185,0,0,1,2.988.221,16.283,16.283,0,0,1,2.733.577,17.251,17.251,0,0,1,2.122.7,21.342,21.342,0,0,1,3.514,1.7,21.612,21.612,0,0,1,6.316,6.095c.221.323.424.662.628.985a21.392,21.392,0,0,1,3.039,11v.255a18.37,18.37,0,0,1,2.92.73,16.332,16.332,0,0,1,3.4,1.6,13.244,13.244,0,0,1,1.834,1.222,18.4,18.4,0,0,1,5.093,6.061,18.2,18.2,0,0,1,1.6,4.278,18.809,18.809,0,0,1,.458,3.277,21.138,21.138,0,0,1,15.28,1.7l1.171.645a21.477,21.477,0,0,1,8.03,8.845A21.188,21.188,0,0,1,331.856,133.779Z" transform="translate(45.117 30.107)" fill="#0b5144"/>
      <path id="Path_2938" data-name="Path 2938" d="M275.657,159.027a23.412,23.412,0,0,1-4.075,13.26,21.194,21.194,0,0,1-2.122,2.665,23.227,23.227,0,0,1-7.3,5.4,22.9,22.9,0,0,1-7.453,2.139v25.789h-5.348v-25.84l-1.121-.153a9.407,9.407,0,0,1-.951-.187h-.119a23.227,23.227,0,0,1-7.64-3.056,23.769,23.769,0,0,1-6.791-6.536l-.153-.221a23.278,23.278,0,0,1-2.615-5.093,6.486,6.486,0,0,1-.306-.866c-.119-.374-.238-.747-.34-1.121a23.9,23.9,0,0,1-.815-6.18,20.976,20.976,0,0,1,.34-3.888,22.784,22.784,0,0,1,2.6-7.5,23.99,23.99,0,0,1,7.08-7.912,13.917,13.917,0,0,1-.289-2.818,12.883,12.883,0,0,1,.272-2.7,13.58,13.58,0,0,1,1.087-3.4,13.922,13.922,0,0,1,10.356-7.708c.356,0,.73-.1,1.087-.119s.713,0,1.087,0a13.9,13.9,0,0,1,13.582,16.723A23.582,23.582,0,0,1,275.657,159.027Z" transform="translate(146.765 74.824)" fill="#8ff9a5"/>
      <path id="Path_2939" data-name="Path 2939" d="M274.426,159a23.48,23.48,0,0,1-4.092,13.277c-.424.628-.866,1.222-1.341,1.8a23.768,23.768,0,0,1-6.91,5.688h0a23.361,23.361,0,0,1-8.591,2.7c-.374,0-.764.085-1.138.1s-1.019,0-1.528,0H249.2a8.957,8.957,0,0,1-.934,0h-.119a23.429,23.429,0,0,1-7.674-2.224,23.769,23.769,0,0,1-9.032-7.742l-.17-.238a22.919,22.919,0,0,1-2.682-5.229,6,6,0,0,1-.255-.781,16.454,16.454,0,0,1-.577-2.037,23.381,23.381,0,0,1-.594-5.263,22.381,22.381,0,0,1,.475-4.686,23.006,23.006,0,0,1,4.058-9.2,23.4,23.4,0,0,1,4.584-4.754l.9-.662A13.9,13.9,0,0,1,239.3,129.1a13.28,13.28,0,0,1,1.138-1.443,13.854,13.854,0,0,1,10.356-4.635h1.087a13.9,13.9,0,0,1,12.513,16.672A23.582,23.582,0,0,1,274.426,159Z" transform="translate(145.824 74.855)" fill="#2fe05b"/>
      <path id="Path_2940" data-name="Path 2940" d="M264.7,159.01a23.48,23.48,0,0,1-4.092,13.277c-.424.628-.866,1.222-1.341,1.8a23.767,23.767,0,0,1-6.91,5.688h0a23.36,23.36,0,0,1-8.591,2.7c-.374,0-.764.085-1.138.1s-1.019,0-1.528,0V123h1.087A13.9,13.9,0,0,1,254.7,139.672,23.582,23.582,0,0,1,264.7,159.01Z" transform="translate(155.551 74.841)" fill="#31b54d"/>
      <rect id="Rectangle_829" data-name="Rectangle 829" width="5.331" height="43.565" transform="translate(393.934 239.539)" fill="#2fe05b"/>
      <rect id="Rectangle_830" data-name="Rectangle 830" width="2.666" height="43.565" transform="translate(396.617 239.539)" fill="#31b54d"/>
      <path id="Path_2941" data-name="Path 2941" d="M234.59,116.79l2.173,84.821H232.23Z" transform="translate(162.044 81.493)" fill="#8ff9a5"/>
      <path id="Path_2942" data-name="Path 2942" d="M234.59,116.79l-.1,84.821H232.23Z" transform="translate(162.044 81.493)" fill="#2fe05b"/>
      <path id="Path_2943" data-name="Path 2943" d="M224.49,132.82l16.383,14.533-1.885,1.9Z" transform="translate(156.643 92.678)" fill="#8ff9a5"/>
      <path id="Path_2944" data-name="Path 2944" d="M224.49,132.82,239.923,148.3l-.934.951Z" transform="translate(156.643 92.678)" fill="#2fe05b"/>
      <path id="Path_2945" data-name="Path 2945" d="M228.29,123.3l9.592,8.506-1.121,1.1Z" transform="translate(159.294 86.035)" fill="#8ff9a5"/>
      <path id="Path_2946" data-name="Path 2946" d="M228.29,123.3l9.032,9.049-.56.56Z" transform="translate(159.294 86.035)" fill="#2fe05b"/>
      <path id="Path_2947" data-name="Path 2947" d="M247.2,130.62,233.84,142.4l1.545,1.545Z" transform="translate(163.167 91.143)" fill="#8ff9a5"/>
      <path id="Path_2948" data-name="Path 2948" d="M246.888,130.62l-12.6,12.564.781.764Z" transform="translate(163.481 91.143)" fill="#31b54d"/>
      <path id="Path_2949" data-name="Path 2949" d="M241.507,122.24l-7.827,6.893.9.9Z" transform="translate(163.055 85.296)" fill="#8ff9a5"/>
      <path id="Path_2950" data-name="Path 2950" d="M241.318,122.24l-7.368,7.351.441.441Z" transform="translate(163.244 85.296)" fill="#31b54d"/>
      <path id="Path_2951" data-name="Path 2951" d="M96.367,162.035a18.675,18.675,0,0,1-3.175,10.39,17.877,17.877,0,0,1-3.243,3.633,18.3,18.3,0,0,1-7.793,3.956l-.543.136-.832.153-.883.119v20.271h-4.21v-20.2a18.539,18.539,0,0,1-11.579-5.908,7,7,0,0,1-.475-.526h0a17.827,17.827,0,0,1-3.616-6.638,18.082,18.082,0,0,1-.8-5.365A18.557,18.557,0,0,1,67.1,146.891a10.628,10.628,0,0,1-.221-2.224A10.917,10.917,0,0,1,77.794,133.75h.866a4.652,4.652,0,0,1,.849.119,10.9,10.9,0,0,1,9.2,10.764,10.627,10.627,0,0,1-.221,2.224c.509.357.985.747,1.46,1.155l.526.458a17.929,17.929,0,0,1,3.531,4.516l.441.832a18.4,18.4,0,0,1,1.7,4.974,3.951,3.951,0,0,1,0,.475c0,.17,0,.357,0,.526a19.321,19.321,0,0,1,.221,2.241Z" transform="translate(28.64 82.342)" fill="#8ff9a5"/>
      <path id="Path_2952" data-name="Path 2952" d="M97.391,162.112a18.184,18.184,0,0,1-.187,2.7,18.675,18.675,0,0,1-2.886,7.555,19.184,19.184,0,0,1-5.093,5.093,18.4,18.4,0,0,1-7.793,2.988,1.986,1.986,0,0,1-.543,0,6.563,6.563,0,0,1-.832,0H77.578l-.883-.085a18.676,18.676,0,0,1-12.173-6.536l-.085-.1a18.523,18.523,0,0,1-3.684-7.317,18.76,18.76,0,0,1-.543-4.5,18.557,18.557,0,0,1,7.878-15.161,10.626,10.626,0,0,1-.221-2.224A10.916,10.916,0,0,1,77.934,133.64h.85a10.917,10.917,0,0,1,10.441,7.674,10.764,10.764,0,0,1,.255,5.467l.323.238a18.08,18.08,0,0,1,3.4,3.243v.085a19.134,19.134,0,0,1,2.156,3.4,17.776,17.776,0,0,1,1.6,4.8.51.51,0,0,1,0,.17,6.286,6.286,0,0,0,.153.934A20.274,20.274,0,0,1,97.391,162.112Z" transform="translate(29.331 82.266)" fill="#2fe05b"/>
      <path id="Path_2953" data-name="Path 2953" d="M78.8,133.74v46.876H77.6l-.883-.085a18.675,18.675,0,0,1-12.173-6.536l-.085-.1a18.523,18.523,0,0,1-3.684-7.317,18.761,18.761,0,0,1-.543-4.5,18.557,18.557,0,0,1,7.878-15.161,10.629,10.629,0,0,1-.221-2.224,10.917,10.917,0,0,1,10.067-10.883Z" transform="translate(29.344 82.336)" fill="#31b54d"/>
      <rect id="Rectangle_831" data-name="Rectangle 831" width="4.193" height="34.244" transform="translate(110.253 283.121) rotate(180)" fill="#2fe05b"/>
      <rect id="Rectangle_832" data-name="Rectangle 832" width="2.105" height="34.244" transform="translate(108.148 283.121) rotate(180)" fill="#31b54d"/>
      <path id="Path_2954" data-name="Path 2954" d="M64.388,127.48l-1.7,66.672h3.548Z" transform="translate(43.743 88.952)" fill="#8ff9a5"/>
      <path id="Path_2955" data-name="Path 2955" d="M63.69,127.48l.085,66.672h1.766Z" transform="translate(44.441 88.952)" fill="#2fe05b"/>
      <path id="Path_2956" data-name="Path 2956" d="M76.166,140.08,63.28,151.506,64.774,153Z" transform="translate(44.155 97.744)" fill="#8ff9a5"/>
      <path id="Path_2957" data-name="Path 2957" d="M75.859,140.08,63.72,152.253l.747.747Z" transform="translate(44.462 97.744)" fill="#2fe05b"/>
      <path id="Path_2958" data-name="Path 2958" d="M70.978,132.59l-7.538,6.689.883.866Z" transform="translate(44.267 92.518)" fill="#8ff9a5"/>
      <path id="Path_2959" data-name="Path 2959" d="M70.8,132.59l-7.1,7.131.441.424Z" transform="translate(44.448 92.518)" fill="#2fe05b"/>
      <path id="Path_2960" data-name="Path 2960" d="M57.33,138.35l10.509,9.27-1.205,1.205Z" transform="translate(40.003 96.537)" fill="#8ff9a5"/>
      <path id="Path_2961" data-name="Path 2961" d="M57.33,138.35l9.9,9.864-.594.611Z" transform="translate(40.003 96.537)" fill="#31b54d"/>
      <path id="Path_2962" data-name="Path 2962" d="M60.02,131.76l6.146,5.433-.7.7Z" transform="translate(41.88 91.938)" fill="#8ff9a5"/>
      <path id="Path_2963" data-name="Path 2963" d="M60.02,131.76l5.806,5.772-.357.357Z" transform="translate(41.88 91.938)" fill="#31b54d"/>
      <rect id="Rectangle_833" data-name="Rectangle 833" width="37.792" height="76.417" transform="translate(129.217 78.148)" fill="#00a682"/>
      <rect id="Rectangle_834" data-name="Rectangle 834" width="21.273" height="76.417" transform="translate(188.283 154.565) rotate(180)" fill="#147a69"/>
      <rect id="Rectangle_835" data-name="Rectangle 835" width="3.514" height="5.45" transform="translate(132.273 82.851)" fill="#57ebd2"/>
      <rect id="Rectangle_836" data-name="Rectangle 836" width="3.514" height="5.45" transform="translate(139.217 82.851)" fill="#57ebd2"/>
      <rect id="Rectangle_837" data-name="Rectangle 837" width="3.514" height="5.45" transform="translate(146.161 82.851)" fill="#57ebd2"/>
      <rect id="Rectangle_838" data-name="Rectangle 838" width="3.514" height="5.45" transform="translate(153.105 82.851)" fill="#57ebd2"/>
      <rect id="Rectangle_839" data-name="Rectangle 839" width="3.514" height="5.45" transform="translate(160.032 82.851)" fill="#57ebd2"/>
      <rect id="Rectangle_840" data-name="Rectangle 840" width="3.514" height="5.45" transform="translate(132.273 93.191)" fill="#57ebd2"/>
      <rect id="Rectangle_841" data-name="Rectangle 841" width="3.514" height="5.45" transform="translate(139.217 93.191)" fill="#57ebd2"/>
      <rect id="Rectangle_842" data-name="Rectangle 842" width="3.514" height="5.45" transform="translate(146.161 93.191)" fill="#0b5144"/>
      <rect id="Rectangle_843" data-name="Rectangle 843" width="3.514" height="5.45" transform="translate(153.105 93.191)" fill="#57ebd2"/>
      <rect id="Rectangle_844" data-name="Rectangle 844" width="3.514" height="5.45" transform="translate(160.032 93.191)" fill="#57ebd2"/>
      <rect id="Rectangle_845" data-name="Rectangle 845" width="3.514" height="5.45" transform="translate(132.273 103.53)" fill="#57ebd2"/>
      <rect id="Rectangle_846" data-name="Rectangle 846" width="3.514" height="5.45" transform="translate(139.217 103.53)" fill="#0b5144"/>
      <rect id="Rectangle_847" data-name="Rectangle 847" width="3.514" height="5.45" transform="translate(146.161 103.53)" fill="#0b5144"/>
      <rect id="Rectangle_848" data-name="Rectangle 848" width="3.514" height="5.45" transform="translate(153.105 103.53)" fill="#57ebd2"/>
      <rect id="Rectangle_849" data-name="Rectangle 849" width="3.514" height="5.45" transform="translate(160.032 103.53)" fill="#57ebd2"/>
      <rect id="Rectangle_850" data-name="Rectangle 850" width="3.514" height="5.45" transform="translate(132.273 113.887)" fill="#57ebd2"/>
      <rect id="Rectangle_851" data-name="Rectangle 851" width="3.514" height="5.45" transform="translate(139.217 113.887)" fill="#57ebd2"/>
      <rect id="Rectangle_852" data-name="Rectangle 852" width="3.514" height="5.45" transform="translate(146.161 113.887)" fill="#0b5144"/>
      <rect id="Rectangle_853" data-name="Rectangle 853" width="3.514" height="5.45" transform="translate(153.105 113.887)" fill="#57ebd2"/>
      <rect id="Rectangle_854" data-name="Rectangle 854" width="3.514" height="5.45" transform="translate(160.032 113.887)" fill="#57ebd2"/>
      <rect id="Rectangle_855" data-name="Rectangle 855" width="3.514" height="5.45" transform="translate(132.273 124.226)" fill="#57ebd2"/>
      <rect id="Rectangle_856" data-name="Rectangle 856" width="3.514" height="5.45" transform="translate(139.217 124.226)" fill="#57ebd2"/>
      <rect id="Rectangle_857" data-name="Rectangle 857" width="3.514" height="5.45" transform="translate(146.161 124.226)" fill="#0b5144"/>
      <rect id="Rectangle_858" data-name="Rectangle 858" width="3.514" height="5.45" transform="translate(153.105 124.226)" fill="#57ebd2"/>
      <rect id="Rectangle_859" data-name="Rectangle 859" width="3.514" height="5.45" transform="translate(160.032 124.226)" fill="#57ebd2"/>
      <rect id="Rectangle_860" data-name="Rectangle 860" width="3.514" height="5.45" transform="translate(132.273 134.565)" fill="#57ebd2"/>
      <rect id="Rectangle_861" data-name="Rectangle 861" width="3.514" height="5.45" transform="translate(139.217 134.565)" fill="#57ebd2"/>
      <rect id="Rectangle_862" data-name="Rectangle 862" width="3.514" height="5.45" transform="translate(146.161 134.565)" fill="#57ebd2"/>
      <rect id="Rectangle_863" data-name="Rectangle 863" width="3.514" height="5.45" transform="translate(153.105 134.565)" fill="#57ebd2"/>
      <rect id="Rectangle_864" data-name="Rectangle 864" width="3.514" height="5.45" transform="translate(160.032 134.565)" fill="#0b5144"/>
      <rect id="Rectangle_865" data-name="Rectangle 865" width="3.514" height="5.45" transform="translate(172.969 82.851)" fill="#00a682"/>
      <rect id="Rectangle_866" data-name="Rectangle 866" width="3.514" height="5.45" transform="translate(179.913 82.851)" fill="#0b5144"/>
      <rect id="Rectangle_867" data-name="Rectangle 867" width="3.514" height="5.45" transform="translate(172.969 93.191)" fill="#00a682"/>
      <rect id="Rectangle_868" data-name="Rectangle 868" width="3.514" height="5.45" transform="translate(179.913 93.191)" fill="#00a682"/>
      <rect id="Rectangle_869" data-name="Rectangle 869" width="3.514" height="5.45" transform="translate(172.969 103.53)" fill="#0b5144"/>
      <rect id="Rectangle_870" data-name="Rectangle 870" width="3.514" height="5.45" transform="translate(179.913 103.53)" fill="#00a682"/>
      <rect id="Rectangle_871" data-name="Rectangle 871" width="3.514" height="5.45" transform="translate(172.969 113.887)" fill="#00a682"/>
      <rect id="Rectangle_872" data-name="Rectangle 872" width="3.514" height="5.45" transform="translate(179.913 113.887)" fill="#00a682"/>
      <rect id="Rectangle_873" data-name="Rectangle 873" width="3.514" height="5.45" transform="translate(172.969 124.226)" fill="#00a682"/>
      <rect id="Rectangle_874" data-name="Rectangle 874" width="3.514" height="5.45" transform="translate(179.913 124.226)" fill="#0b5144"/>
      <rect id="Rectangle_875" data-name="Rectangle 875" width="3.514" height="5.45" transform="translate(172.969 134.565)" fill="#00a682"/>
      <rect id="Rectangle_876" data-name="Rectangle 876" width="3.514" height="5.45" transform="translate(179.913 134.565)" fill="#00a682"/>
      <path id="Path_2964" data-name="Path 2964" d="M113.9,42.04v6.774H76.11L82.7,42.04Z" transform="translate(53.107 29.334)" fill="#00a682"/>
      <path id="Path_2965" data-name="Path 2965" d="M98.37,42.04H113.9l5.738,6.774H98.37Z" transform="translate(68.64 29.334)" fill="#147a69"/>
      <path id="Path_2966" data-name="Path 2966" d="M113.9,42.04l-2.207.051-28.54.594L76.11,48.814,82.7,42.04Z" transform="translate(53.107 29.334)" fill="#57ebd2"/>
      <path id="Path_2967" data-name="Path 2967" d="M83.58,118.119V52.5a607.717,607.717,0,0,1,0,65.619Z" transform="translate(45.637 25.648)" fill="#57ebd2"/>
      <rect id="Rectangle_877" data-name="Rectangle 877" width="50.152" height="129.099" transform="translate(118.589 154.565)" fill="#00a682"/>
      <rect id="Rectangle_878" data-name="Rectangle 878" width="28.234" height="129.082" transform="translate(196.976 283.664) rotate(180)" fill="#147a69"/>
      <rect id="Rectangle_879" data-name="Rectangle 879" width="4.669" height="7.249" transform="translate(122.647 160.304)" fill="#57ebd2"/>
      <rect id="Rectangle_880" data-name="Rectangle 880" width="4.669" height="7.249" transform="translate(131.866 160.304)" fill="#57ebd2"/>
      <rect id="Rectangle_881" data-name="Rectangle 881" width="4.669" height="7.249" transform="translate(141.068 160.304)" fill="#0b5144"/>
      <rect id="Rectangle_882" data-name="Rectangle 882" width="4.669" height="7.249" transform="translate(150.27 160.304)" fill="#57ebd2"/>
      <rect id="Rectangle_883" data-name="Rectangle 883" width="4.669" height="7.249" transform="translate(159.489 160.304)" fill="#0b5144"/>
      <rect id="Rectangle_884" data-name="Rectangle 884" width="4.669" height="7.249" transform="translate(122.647 174.039)" fill="#0b5144"/>
      <rect id="Rectangle_885" data-name="Rectangle 885" width="4.669" height="7.249" transform="translate(131.866 174.039)" fill="#57ebd2"/>
      <rect id="Rectangle_886" data-name="Rectangle 886" width="4.669" height="7.249" transform="translate(141.068 174.039)" fill="#0b5144"/>
      <rect id="Rectangle_887" data-name="Rectangle 887" width="4.669" height="7.249" transform="translate(150.27 174.039)" fill="#57ebd2"/>
      <rect id="Rectangle_888" data-name="Rectangle 888" width="4.669" height="7.249" transform="translate(159.489 174.039)" fill="#57ebd2"/>
      <rect id="Rectangle_889" data-name="Rectangle 889" width="4.669" height="7.249" transform="translate(122.647 187.757)" fill="#57ebd2"/>
      <rect id="Rectangle_890" data-name="Rectangle 890" width="4.669" height="7.249" transform="translate(131.866 187.757)" fill="#0b5144"/>
      <rect id="Rectangle_891" data-name="Rectangle 891" width="4.669" height="7.249" transform="translate(141.068 187.757)" fill="#57ebd2"/>
      <rect id="Rectangle_892" data-name="Rectangle 892" width="4.669" height="7.249" transform="translate(150.27 187.757)" fill="#57ebd2"/>
      <rect id="Rectangle_893" data-name="Rectangle 893" width="4.669" height="7.249" transform="translate(159.489 187.757)" fill="#57ebd2"/>
      <rect id="Rectangle_894" data-name="Rectangle 894" width="4.669" height="7.249" transform="translate(122.647 201.492)" fill="#57ebd2"/>
      <rect id="Rectangle_895" data-name="Rectangle 895" width="4.669" height="7.249" transform="translate(131.866 201.492)" fill="#0b5144"/>
      <rect id="Rectangle_896" data-name="Rectangle 896" width="4.669" height="7.249" transform="translate(141.068 201.492)" fill="#0b5144"/>
      <rect id="Rectangle_897" data-name="Rectangle 897" width="4.669" height="7.249" transform="translate(150.27 201.492)" fill="#57ebd2"/>
      <rect id="Rectangle_898" data-name="Rectangle 898" width="4.669" height="7.249" transform="translate(159.489 201.492)" fill="#0b5144"/>
      <rect id="Rectangle_899" data-name="Rectangle 899" width="4.669" height="7.249" transform="translate(122.647 215.21)" fill="#0b5144"/>
      <rect id="Rectangle_900" data-name="Rectangle 900" width="4.669" height="7.249" transform="translate(131.866 215.21)" fill="#57ebd2"/>
      <rect id="Rectangle_901" data-name="Rectangle 901" width="4.669" height="7.249" transform="translate(141.068 215.21)" fill="#57ebd2"/>
      <rect id="Rectangle_902" data-name="Rectangle 902" width="4.669" height="7.249" transform="translate(150.27 215.21)" fill="#57ebd2"/>
      <rect id="Rectangle_903" data-name="Rectangle 903" width="4.669" height="7.249" transform="translate(159.489 215.21)" fill="#0b5144"/>
      <rect id="Rectangle_904" data-name="Rectangle 904" width="4.669" height="7.249" transform="translate(122.647 228.945)" fill="#57ebd2"/>
      <rect id="Rectangle_905" data-name="Rectangle 905" width="4.669" height="7.249" transform="translate(131.866 228.945)" fill="#57ebd2"/>
      <rect id="Rectangle_906" data-name="Rectangle 906" width="4.669" height="7.249" transform="translate(141.068 228.945)" fill="#57ebd2"/>
      <rect id="Rectangle_907" data-name="Rectangle 907" width="4.669" height="7.249" transform="translate(150.27 228.945)" fill="#57ebd2"/>
      <rect id="Rectangle_908" data-name="Rectangle 908" width="4.669" height="7.249" transform="translate(159.489 228.945)" fill="#57ebd2"/>
      <rect id="Rectangle_909" data-name="Rectangle 909" width="4.669" height="7.249" transform="translate(176.653 160.304)" fill="#00a682"/>
      <rect id="Rectangle_910" data-name="Rectangle 910" width="4.669" height="7.249" transform="translate(185.855 160.304)" fill="#00a682"/>
      <rect id="Rectangle_911" data-name="Rectangle 911" width="4.669" height="7.249" transform="translate(176.653 174.039)" fill="#0b5144"/>
      <rect id="Rectangle_912" data-name="Rectangle 912" width="4.669" height="7.249" transform="translate(185.855 174.039)" fill="#00a682"/>
      <rect id="Rectangle_913" data-name="Rectangle 913" width="4.669" height="7.249" transform="translate(176.653 187.757)" fill="#00a682"/>
      <rect id="Rectangle_914" data-name="Rectangle 914" width="4.669" height="7.249" transform="translate(185.855 187.757)" fill="#0b5144"/>
      <rect id="Rectangle_915" data-name="Rectangle 915" width="4.669" height="7.249" transform="translate(176.653 201.492)" fill="#0b5144"/>
      <rect id="Rectangle_916" data-name="Rectangle 916" width="4.669" height="7.249" transform="translate(185.855 201.492)" fill="#00a682"/>
      <rect id="Rectangle_917" data-name="Rectangle 917" width="4.669" height="7.249" transform="translate(176.653 215.21)" fill="#00a682"/>
      <rect id="Rectangle_918" data-name="Rectangle 918" width="4.669" height="7.249" transform="translate(185.855 215.21)" fill="#00a682"/>
      <rect id="Rectangle_919" data-name="Rectangle 919" width="4.669" height="7.249" transform="translate(176.653 228.945)" fill="#00a682"/>
      <rect id="Rectangle_920" data-name="Rectangle 920" width="4.669" height="7.249" transform="translate(185.855 228.945)" fill="#00a682"/>
      <path id="Path_2968" data-name="Path 2968" d="M120,85.45v9.491H69.85l8.744-9.491Z" transform="translate(48.739 59.625)" fill="#00a682"/>
      <path id="Path_2969" data-name="Path 2969" d="M99.39,85.45H120l7.623,9.491H99.39Z" transform="translate(69.352 59.625)" fill="#147a69"/>
      <path id="Path_2970" data-name="Path 2970" d="M120,85.45l-1.732.034L89.34,86.1l-8.862.187-1.273.034L69.85,94.941l8.744-9.491Z" transform="translate(48.739 59.625)" fill="#57ebd2"/>
      <rect id="Rectangle_921" data-name="Rectangle 921" width="13.022" height="36.553" transform="translate(163.292 283.647) rotate(180)" fill="#147a69"/>
      <rect id="Rectangle_922" data-name="Rectangle 922" width="39.473" height="36.553" transform="translate(110.797 247.111)" fill="#00a682"/>
      <rect id="Rectangle_923" data-name="Rectangle 923" width="26.265" height="22.309" transform="translate(117.401 261.338)" fill="#0b5144"/>
      <path id="Path_2971" data-name="Path 2971" d="M65.26,147.982h39.49V142.04h-31.7Z" transform="translate(45.537 99.112)" fill="#00a682"/>
      <path id="Path_2972" data-name="Path 2972" d="M88.52,147.982V142.04h9.2l3.8,5.942Z" transform="translate(61.767 99.112)" fill="#147a69"/>
      <path id="Path_2973" data-name="Path 2973" d="M77.869,172.378v1.375c0,1.239-.119,2.377-.153,3.4-.1,2.173-.187,3.871-.272,5.093v.424a9.877,9.877,0,0,1-.085,1.46V97.54C79.041,129.254,78.447,157.3,77.869,172.378Z" transform="translate(41.297 57.076)" fill="#57ebd2"/>
      <path id="Path_2974" data-name="Path 2974" d="M65.26,147.982l7.793-5.942h31.7L73.24,143.279Z" transform="translate(45.537 99.112)" fill="#57ebd2"/>
      <rect id="Rectangle_924" data-name="Rectangle 924" width="37.792" height="76.417" transform="translate(337.84 78.148)" fill="#00a682"/>
      <rect id="Rectangle_925" data-name="Rectangle 925" width="21.273" height="76.417" transform="translate(316.567 78.148)" fill="#147a69"/>
      <rect id="Rectangle_926" data-name="Rectangle 926" width="3.514" height="5.45" transform="translate(372.576 88.301) rotate(180)" fill="#0b5144"/>
      <rect id="Rectangle_927" data-name="Rectangle 927" width="3.514" height="5.45" transform="translate(365.615 88.301) rotate(180)" fill="#57ebd2"/>
      <rect id="Rectangle_928" data-name="Rectangle 928" width="3.514" height="5.45" transform="translate(358.688 88.301) rotate(180)" fill="#57ebd2"/>
      <rect id="Rectangle_929" data-name="Rectangle 929" width="3.514" height="5.45" transform="translate(351.761 88.301) rotate(180)" fill="#0b5144"/>
      <rect id="Rectangle_930" data-name="Rectangle 930" width="3.514" height="5.45" transform="translate(344.818 88.301) rotate(180)" fill="#57ebd2"/>
      <rect id="Rectangle_931" data-name="Rectangle 931" width="3.514" height="5.45" transform="translate(372.576 98.658) rotate(180)" fill="#57ebd2"/>
      <rect id="Rectangle_932" data-name="Rectangle 932" width="3.514" height="5.45" transform="translate(365.615 98.658) rotate(180)" fill="#0b5144"/>
      <rect id="Rectangle_933" data-name="Rectangle 933" width="3.514" height="5.45" transform="translate(358.688 98.658) rotate(180)" fill="#57ebd2"/>
      <rect id="Rectangle_934" data-name="Rectangle 934" width="3.514" height="5.45" transform="translate(351.761 98.658) rotate(180)" fill="#57ebd2"/>
      <rect id="Rectangle_935" data-name="Rectangle 935" width="3.514" height="5.45" transform="translate(344.818 98.658) rotate(180)" fill="#57ebd2"/>
      <rect id="Rectangle_936" data-name="Rectangle 936" width="3.514" height="5.45" transform="translate(372.576 108.997) rotate(180)" fill="#57ebd2"/>
      <rect id="Rectangle_937" data-name="Rectangle 937" width="3.514" height="5.45" transform="translate(365.615 108.997) rotate(180)" fill="#0b5144"/>
      <rect id="Rectangle_938" data-name="Rectangle 938" width="3.514" height="5.45" transform="translate(358.688 108.997) rotate(180)" fill="#0b5144"/>
      <rect id="Rectangle_939" data-name="Rectangle 939" width="3.514" height="5.45" transform="translate(351.761 108.997) rotate(180)" fill="#57ebd2"/>
      <rect id="Rectangle_940" data-name="Rectangle 940" width="3.514" height="5.45" transform="translate(344.818 108.997) rotate(180)" fill="#0b5144"/>
      <rect id="Rectangle_941" data-name="Rectangle 941" width="3.514" height="5.45" transform="translate(372.576 119.336) rotate(180)" fill="#57ebd2"/>
      <rect id="Rectangle_942" data-name="Rectangle 942" width="3.514" height="5.45" transform="translate(365.615 119.336) rotate(180)" fill="#0b5144"/>
      <rect id="Rectangle_943" data-name="Rectangle 943" width="3.514" height="5.45" transform="translate(358.688 119.336) rotate(180)" fill="#57ebd2"/>
      <rect id="Rectangle_944" data-name="Rectangle 944" width="3.514" height="5.45" transform="translate(351.761 119.336) rotate(180)" fill="#57ebd2"/>
      <rect id="Rectangle_945" data-name="Rectangle 945" width="3.514" height="5.45" transform="translate(344.818 119.336) rotate(180)" fill="#57ebd2"/>
      <rect id="Rectangle_946" data-name="Rectangle 946" width="3.514" height="5.45" transform="translate(372.576 129.676) rotate(180)" fill="#57ebd2"/>
      <rect id="Rectangle_947" data-name="Rectangle 947" width="3.514" height="5.45" transform="translate(365.615 129.676) rotate(180)" fill="#57ebd2"/>
      <rect id="Rectangle_948" data-name="Rectangle 948" width="3.514" height="5.45" transform="translate(358.688 129.676) rotate(180)" fill="#57ebd2"/>
      <rect id="Rectangle_949" data-name="Rectangle 949" width="3.514" height="5.45" transform="translate(351.761 129.676) rotate(180)" fill="#0b5144"/>
      <rect id="Rectangle_950" data-name="Rectangle 950" width="3.514" height="5.45" transform="translate(344.818 129.676) rotate(180)" fill="#57ebd2"/>
      <rect id="Rectangle_951" data-name="Rectangle 951" width="3.514" height="5.45" transform="translate(372.576 140.032) rotate(180)" fill="#0b5144"/>
      <rect id="Rectangle_952" data-name="Rectangle 952" width="3.514" height="5.45" transform="translate(365.615 140.032) rotate(180)" fill="#57ebd2"/>
      <rect id="Rectangle_953" data-name="Rectangle 953" width="3.514" height="5.45" transform="translate(358.688 140.032) rotate(180)" fill="#57ebd2"/>
      <rect id="Rectangle_954" data-name="Rectangle 954" width="3.514" height="5.45" transform="translate(351.761 140.032) rotate(180)" fill="#0b5144"/>
      <rect id="Rectangle_955" data-name="Rectangle 955" width="3.514" height="5.45" transform="translate(344.818 140.032) rotate(180)" fill="#57ebd2"/>
      <rect id="Rectangle_956" data-name="Rectangle 956" width="3.514" height="5.45" transform="translate(331.88 88.301) rotate(180)" fill="#0b5144"/>
      <rect id="Rectangle_957" data-name="Rectangle 957" width="3.514" height="5.45" transform="translate(324.937 88.301) rotate(180)" fill="#00a682"/>
      <rect id="Rectangle_958" data-name="Rectangle 958" width="3.514" height="5.45" transform="translate(331.88 98.658) rotate(180)" fill="#0b5144"/>
      <rect id="Rectangle_959" data-name="Rectangle 959" width="3.514" height="5.45" transform="translate(324.937 98.658) rotate(180)" fill="#00a682"/>
      <rect id="Rectangle_960" data-name="Rectangle 960" width="3.514" height="5.45" transform="translate(331.88 108.997) rotate(180)" fill="#00a682"/>
      <rect id="Rectangle_961" data-name="Rectangle 961" width="3.514" height="5.45" transform="translate(324.937 108.997) rotate(180)" fill="#00a682"/>
      <rect id="Rectangle_962" data-name="Rectangle 962" width="3.514" height="5.45" transform="translate(331.88 119.336) rotate(180)" fill="#00a682"/>
      <rect id="Rectangle_963" data-name="Rectangle 963" width="3.514" height="5.45" transform="translate(324.937 119.336) rotate(180)" fill="#0b5144"/>
      <rect id="Rectangle_964" data-name="Rectangle 964" width="3.514" height="5.45" transform="translate(331.88 129.676) rotate(180)" fill="#00a682"/>
      <rect id="Rectangle_965" data-name="Rectangle 965" width="3.514" height="5.45" transform="translate(324.937 129.676) rotate(180)" fill="#00a682"/>
      <rect id="Rectangle_966" data-name="Rectangle 966" width="3.514" height="5.45" transform="translate(331.88 140.032) rotate(180)" fill="#00a682"/>
      <rect id="Rectangle_967" data-name="Rectangle 967" width="3.514" height="5.45" transform="translate(324.937 140.032) rotate(180)" fill="#00a682"/>
      <path id="Path_2975" data-name="Path 2975" d="M236.782,48.814H198.99V42.04H230.2Z" transform="translate(138.85 29.334)" fill="#00a682"/>
      <path id="Path_2976" data-name="Path 2976" d="M207.733,42.04v6.774H186.46L192.2,42.04Z" transform="translate(130.107 29.334)" fill="#147a69"/>
      <path id="Path_2977" data-name="Path 2977" d="M236.782,48.814l-7.046-6.129L198.99,42.04H230.2Z" transform="translate(138.85 29.334)" fill="#57ebd2"/>
      <path id="Path_2978" data-name="Path 2978" d="M229.084,52.5v65.619a607.7,607.7,0,0,1,0-65.619Z" transform="translate(146.548 25.648)" fill="#57ebd2"/>
      <rect id="Rectangle_968" data-name="Rectangle 968" width="50.152" height="129.099" transform="translate(336.108 154.565)" fill="#00a682"/>
      <rect id="Rectangle_969" data-name="Rectangle 969" width="28.234" height="129.082" transform="translate(307.874 154.565)" fill="#147a69"/>
      <rect id="Rectangle_970" data-name="Rectangle 970" width="4.669" height="7.249" transform="translate(382.186 167.553) rotate(180)" fill="#57ebd2"/>
      <rect id="Rectangle_971" data-name="Rectangle 971" width="4.669" height="7.249" transform="translate(372.984 167.553) rotate(180)" fill="#0b5144"/>
      <rect id="Rectangle_972" data-name="Rectangle 972" width="4.669" height="7.249" transform="translate(363.782 167.553) rotate(180)" fill="#0b5144"/>
      <rect id="Rectangle_973" data-name="Rectangle 973" width="4.669" height="7.249" transform="translate(354.58 167.553) rotate(180)" fill="#0b5144"/>
      <rect id="Rectangle_974" data-name="Rectangle 974" width="4.669" height="7.249" transform="translate(345.361 167.553) rotate(180)" fill="#57ebd2"/>
      <rect id="Rectangle_975" data-name="Rectangle 975" width="4.669" height="7.249" transform="translate(382.186 181.271) rotate(180)" fill="#57ebd2"/>
      <rect id="Rectangle_976" data-name="Rectangle 976" width="4.669" height="7.249" transform="translate(372.984 181.271) rotate(180)" fill="#57ebd2"/>
      <rect id="Rectangle_977" data-name="Rectangle 977" width="4.669" height="7.249" transform="translate(363.782 181.271) rotate(180)" fill="#0b5144"/>
      <rect id="Rectangle_978" data-name="Rectangle 978" width="4.669" height="7.249" transform="translate(354.58 181.271) rotate(180)" fill="#57ebd2"/>
      <rect id="Rectangle_979" data-name="Rectangle 979" width="4.669" height="7.249" transform="translate(345.361 181.271) rotate(180)" fill="#57ebd2"/>
      <rect id="Rectangle_980" data-name="Rectangle 980" width="4.669" height="7.249" transform="translate(382.186 195.006) rotate(180)" fill="#57ebd2"/>
      <rect id="Rectangle_981" data-name="Rectangle 981" width="4.669" height="7.249" transform="translate(372.984 195.006) rotate(180)" fill="#0b5144"/>
      <rect id="Rectangle_982" data-name="Rectangle 982" width="4.669" height="7.249" transform="translate(363.782 195.006) rotate(180)" fill="#0b5144"/>
      <rect id="Rectangle_983" data-name="Rectangle 983" width="4.669" height="7.249" transform="translate(354.58 195.006) rotate(180)" fill="#57ebd2"/>
      <rect id="Rectangle_984" data-name="Rectangle 984" width="4.669" height="7.249" transform="translate(345.361 195.006) rotate(180)" fill="#57ebd2"/>
      <rect id="Rectangle_985" data-name="Rectangle 985" width="4.669" height="7.249" transform="translate(382.186 208.724) rotate(180)" fill="#57ebd2"/>
      <rect id="Rectangle_986" data-name="Rectangle 986" width="4.669" height="7.249" transform="translate(372.984 208.724) rotate(180)" fill="#0b5144"/>
      <rect id="Rectangle_987" data-name="Rectangle 987" width="4.669" height="7.249" transform="translate(363.782 208.724) rotate(180)" fill="#57ebd2"/>
      <rect id="Rectangle_988" data-name="Rectangle 988" width="4.669" height="7.249" transform="translate(354.58 208.724) rotate(180)" fill="#57ebd2"/>
      <rect id="Rectangle_989" data-name="Rectangle 989" width="4.669" height="7.249" transform="translate(345.361 208.724) rotate(180)" fill="#0b5144"/>
      <rect id="Rectangle_990" data-name="Rectangle 990" width="4.669" height="7.249" transform="translate(382.186 222.459) rotate(180)" fill="#57ebd2"/>
      <rect id="Rectangle_991" data-name="Rectangle 991" width="4.669" height="7.249" transform="translate(372.984 222.459) rotate(180)" fill="#57ebd2"/>
      <rect id="Rectangle_992" data-name="Rectangle 992" width="4.669" height="7.249" transform="translate(363.782 222.459) rotate(180)" fill="#0b5144"/>
      <rect id="Rectangle_993" data-name="Rectangle 993" width="4.669" height="7.249" transform="translate(354.58 222.459) rotate(180)" fill="#57ebd2"/>
      <rect id="Rectangle_994" data-name="Rectangle 994" width="4.669" height="7.249" transform="translate(345.361 222.459) rotate(180)" fill="#0b5144"/>
      <rect id="Rectangle_995" data-name="Rectangle 995" width="4.669" height="7.249" transform="translate(382.186 236.177) rotate(180)" fill="#57ebd2"/>
      <rect id="Rectangle_996" data-name="Rectangle 996" width="4.669" height="7.249" transform="translate(372.984 236.177) rotate(180)" fill="#0b5144"/>
      <rect id="Rectangle_997" data-name="Rectangle 997" width="4.669" height="7.249" transform="translate(363.782 236.177) rotate(180)" fill="#57ebd2"/>
      <rect id="Rectangle_998" data-name="Rectangle 998" width="4.669" height="7.249" transform="translate(354.58 236.177) rotate(180)" fill="#0b5144"/>
      <rect id="Rectangle_999" data-name="Rectangle 999" width="4.669" height="7.249" transform="translate(345.361 236.177) rotate(180)" fill="#57ebd2"/>
      <rect id="Rectangle_1000" data-name="Rectangle 1000" width="4.669" height="7.249" transform="translate(328.213 167.553) rotate(180)" fill="#00a682"/>
      <rect id="Rectangle_1001" data-name="Rectangle 1001" width="4.669" height="7.249" transform="translate(318.994 167.553) rotate(180)" fill="#0b5144"/>
      <rect id="Rectangle_1002" data-name="Rectangle 1002" width="4.669" height="7.249" transform="translate(328.213 181.271) rotate(180)" fill="#0b5144"/>
      <rect id="Rectangle_1003" data-name="Rectangle 1003" width="4.669" height="7.249" transform="translate(318.994 181.271) rotate(180)" fill="#00a682"/>
      <rect id="Rectangle_1004" data-name="Rectangle 1004" width="4.669" height="7.249" transform="translate(328.213 195.006) rotate(180)" fill="#00a682"/>
      <rect id="Rectangle_1005" data-name="Rectangle 1005" width="4.669" height="7.249" transform="translate(318.994 195.006) rotate(180)" fill="#00a682"/>
      <rect id="Rectangle_1006" data-name="Rectangle 1006" width="4.669" height="7.249" transform="translate(328.213 208.724) rotate(180)" fill="#00a682"/>
      <rect id="Rectangle_1007" data-name="Rectangle 1007" width="4.669" height="7.249" transform="translate(318.994 208.724) rotate(180)" fill="#0b5144"/>
      <rect id="Rectangle_1008" data-name="Rectangle 1008" width="4.669" height="7.249" transform="translate(328.213 222.459) rotate(180)" fill="#0b5144"/>
      <rect id="Rectangle_1009" data-name="Rectangle 1009" width="4.669" height="7.249" transform="translate(318.994 222.459) rotate(180)" fill="#0b5144"/>
      <rect id="Rectangle_1010" data-name="Rectangle 1010" width="4.669" height="7.249" transform="translate(328.213 236.177) rotate(180)" fill="#00a682"/>
      <rect id="Rectangle_1011" data-name="Rectangle 1011" width="4.669" height="7.249" transform="translate(318.994 236.177) rotate(180)" fill="#00a682"/>
      <path id="Path_2979" data-name="Path 2979" d="M248.122,94.941H197.97V85.45h41.409Z" transform="translate(138.138 59.625)" fill="#00a682"/>
      <path id="Path_2980" data-name="Path 2980" d="M209.574,85.45H188.963l-7.623,9.491h28.234Z" transform="translate(126.534 59.625)" fill="#147a69"/>
      <path id="Path_2981" data-name="Path 2981" d="M248.122,94.941l-9.355-8.625-1.273-.034-8.862-.187-28.93-.611-1.732-.034h41.409Z" transform="translate(138.138 59.625)" fill="#57ebd2"/>
      <rect id="Rectangle_1012" data-name="Rectangle 1012" width="13.022" height="36.553" transform="translate(341.558 247.111)" fill="#147a69"/>
      <rect id="Rectangle_1013" data-name="Rectangle 1013" width="39.473" height="36.553" transform="translate(394.053 283.647) rotate(180)" fill="#00a682"/>
      <rect id="Rectangle_1014" data-name="Rectangle 1014" width="26.265" height="22.309" transform="translate(387.449 283.664) rotate(180)" fill="#0b5144"/>
      <path id="Path_2982" data-name="Path 2982" d="M248.33,147.982H208.84V142.04h31.7Z" transform="translate(145.723 99.112)" fill="#00a682"/>
      <path id="Path_2983" data-name="Path 2983" d="M214.185,147.982V142.04h-9.2l-3.8,5.942Z" transform="translate(140.378 99.112)" fill="#147a69"/>
      <path id="Path_2984" data-name="Path 2984" d="M235.464,97.51V184.1s-.17-2.479-.374-6.927c0-1.053-.1-2.241-.153-3.514v-1.171c-.2-5.331-.424-12.309-.526-20.509v-5.093C234.19,132.807,234.428,115.761,235.464,97.51Z" transform="translate(150.831 57.055)" fill="#57ebd2"/>
      <path id="Path_2985" data-name="Path 2985" d="M248.33,147.982l-7.793-5.942h-31.7l31.511,1.239Z" transform="translate(145.723 99.112)" fill="#57ebd2"/>
      <path id="Path_2986" data-name="Path 2986" d="M167.289,80.7c-.849.917-1.426,1.426-1.545,1.545h-.323c-.34,0-.985.1-1.868.119-9.066.17-42.784-3.8-31.952-74.5a1.405,1.405,0,0,1,.085-.577C192.671,45.846,173.384,73.979,167.289,80.7Z" transform="translate(77.666 -5.898)" fill="#2fe05b"/>
      <path id="Path_2987" data-name="Path 2987" d="M166.431,80.688c-.849.917-1.426,1.426-1.545,1.545h-.323l.238-.221h0a20.615,20.615,0,0,0,1.511-1.7C172.56,73,188.4,45.832,131.2,8.21l-.492-.323a1.405,1.405,0,0,1,.085-.577C191.813,45.832,172.526,73.965,166.431,80.688Z" transform="translate(78.523 -5.884)" fill="#8ff9a5"/>
      <path id="Path_2988" data-name="Path 2988" d="M165.734,82.247h-.323c-.34,0-.985.1-1.868.119-9.066.17-42.784-3.8-31.952-74.5a1.4,1.4,0,0,1,.085-.577l.407.9,8.336,18.319V26.7l8.913,19.592.492,1.087h0l9.8,21.562h0l.832,1.851h0l5.093,11.171h0Z" transform="translate(77.659 -5.898)" fill="#31b54d"/>
      <path id="Path_2989" data-name="Path 2989" d="M162.185,80.139l-2.343,1.07-2.36,1.07-.968-2.343-4.94-11.918-4.346-10.492-.764-1.851-.679-1.647-8.4-20.271-.441-1.1-.407-1-8.013-19.3-.068-.187,8,16.129.424.832,9.117,18.4.713,1.426.034.051v.017L155.19,66.03l.136.289,3.769,7.606Z" transform="translate(89.629 8.485)" fill="#8ff9a5"/>
      <path id="Path_2990" data-name="Path 2990" d="M159.842,81.208l-2.36,1.07-.968-2.343-4.94-11.918-4.346-10.492-.764-1.851-.679-1.647-8.4-20.271-.441-1.1-.407-1-8.013-19.3-.068-.187,8.981,19.779h.017l.492,1.087v.034l9.813,21.562.832,1.851h.017l5.076,11.188v.017l.085.187h.017l2.75,6.061Z" transform="translate(89.629 8.485)" fill="#2fe05b"/>
      <path id="Path_2991" data-name="Path 2991" d="M126.57,33.11l23.871,7.317-1.07,2.852Z" transform="translate(88.317 23.103)" fill="#8ff9a5"/>
      <path id="Path_2992" data-name="Path 2992" d="M126.57,33.11,149.9,41.854l-.526,1.426Z" transform="translate(88.317 23.103)" fill="#2fe05b"/>
      <path id="Path_2993" data-name="Path 2993" d="M126,21.43l13.973,4.3-.628,1.664Z" transform="translate(87.919 14.953)" fill="#8ff9a5"/>
      <path id="Path_2994" data-name="Path 2994" d="M126,21.43l13.65,5.127-.306.832Z" transform="translate(87.919 14.953)" fill="#2fe05b"/>
      <path id="Path_2995" data-name="Path 2995" d="M146.8,22.67,138.51,41.227l2.326.883Z" transform="translate(96.648 15.818)" fill="#8ff9a5"/>
      <path id="Path_2996" data-name="Path 2996" d="M146.321,22.67l-7.131,19,1.171.441Z" transform="translate(97.123 15.818)" fill="#2fe05b"/>
      <path id="Path_2997" data-name="Path 2997" d="M137.866,15.6,133.01,26.466l1.358.509Z" transform="translate(92.811 10.885)" fill="#8ff9a5"/>
      <path id="Path_2998" data-name="Path 2998" d="M137.587,15.6,133.41,26.72l.679.255Z" transform="translate(93.09 10.885)" fill="#2fe05b"/>
      <path id="Path_2999" data-name="Path 2999" d="M167.68,80.258a8.4,8.4,0,0,1-1.834-.1h-.323A17.692,17.692,0,0,1,164,78.645c-6.01-6.553-25.093-34.108,34.6-72.155a1.29,1.29,0,0,0,.085.56C209.666,76.3,176.628,80.36,167.68,80.258Z" transform="translate(96.374 -6.456)" fill="#2fe05b"/>
      <path id="Path_3000" data-name="Path 3000" d="M198.7,7.009l-.475.34c-56.026,37.2-40.254,63.7-34.074,71,.611.73,1.138,1.256,1.477,1.6l.238.221h-.323a17.693,17.693,0,0,1-1.528-1.511c-6.01-6.553-25.093-34.108,34.6-72.155A3.529,3.529,0,0,1,198.7,7.009Z" transform="translate(96.388 -6.449)" fill="#8ff9a5"/>
      <path id="Path_3001" data-name="Path 3001" d="M163.886,80.265a8.4,8.4,0,0,1-1.834-.1h-.323l.085-.187,4.941-11h0l.815-1.817,9.525-21.222h0l.475-1.07,8.676-19.3v-.136l8.2-18.064.39-.883a1.29,1.29,0,0,0,.085.56C205.872,76.309,172.833,80.367,163.886,80.265Z" transform="translate(100.168 -6.463)" fill="#31b54d"/>
      <path id="Path_3002" data-name="Path 3002" d="M182.227,11.13l-.051.136L174.4,30.3l-.407.968-.441,1.1L165.4,52.284l-.662,1.647-.747,1.817L159.8,66.036,155.165,77.36l-1.1,2.7-2.309-1.036-2.292-1.036,1.647-3.345,5.008-10.255.136-.272,8.217-16.74V47.36l.017-.034.7-1.426,8.862-18.1h.017l.39-.8Z" transform="translate(104.289 7.766)" fill="#8ff9a5"/>
      <path id="Path_3003" data-name="Path 3003" d="M181.234,11.21l-7.776,19.032-.407.968-.441,1.1L164.46,52.228l-.662,1.647-.747,1.817L158.857,65.98,154.223,77.3l-1.1,2.7-2.309-1.036,1.969-4.38,3.922-8.744.085-.187,4.941-11v-.017l.815-1.817L172.066,31.6l.017-.017.475-1.07Z" transform="translate(105.231 7.822)" fill="#31b54d"/>
      <path id="Path_3004" data-name="Path 3004" d="M180.308,31.68,156.93,38.963l1.07,2.8Z" transform="translate(109.501 22.105)" fill="#8ff9a5"/>
      <path id="Path_3005" data-name="Path 3005" d="M180.092,31.68,157.24,40.373l.543,1.392Z" transform="translate(109.718 22.105)" fill="#31b54d"/>
      <path id="Path_3006" data-name="Path 3006" d="M176.834,20.22,163.15,24.481l.611,1.647Z" transform="translate(113.842 14.109)" fill="#8ff9a5"/>
      <path id="Path_3007" data-name="Path 3007" d="M176.708,20.22,163.33,25.3l.306.832Z" transform="translate(113.967 14.109)" fill="#31b54d"/>
      <path id="Path_3008" data-name="Path 3008" d="M154.16,21.51l8.2,18.166-2.275.866Z" transform="translate(107.569 15.009)" fill="#8ff9a5"/>
      <path id="Path_3009" data-name="Path 3009" d="M154.16,21.51l7.063,18.608-1.138.424Z" transform="translate(107.569 15.009)" fill="#31b54d"/>
      <path id="Path_3010" data-name="Path 3010" d="M161.5,14.54l4.8,10.645-1.341.492Z" transform="translate(112.69 10.146)" fill="#8ff9a5"/>
      <path id="Path_3011" data-name="Path 3011" d="M161.5,14.54l4.143,10.883-.679.255Z" transform="translate(112.69 10.146)" fill="#31b54d"/>
      <rect id="Rectangle_1015" data-name="Rectangle 1015" width="13.311" height="135.686" transform="translate(246.143 82.41)" fill="#2fe05b"/>
      <rect id="Rectangle_1016" data-name="Rectangle 1016" width="6.655" height="135.686" transform="translate(252.798 82.41)" fill="#31b54d"/>
      <path id="Path_3012" data-name="Path 3012" d="M241.319,33.62l-.153.713A227.834,227.834,0,0,1,234.681,58.9c-.764,2.36-1.562,4.618-2.377,6.791-.645,1.7-1.29,3.4-1.952,4.89-.764,1.834-1.545,3.582-2.343,5.263-1.494,3.158-3.022,6.044-4.6,8.693-.34.577-.679,1.121-1.019,1.7a74.524,74.524,0,0,1-4.618,6.655c-.9,1.171-1.817,2.258-2.733,3.277C196.8,116.692,176.906,111.446,170,108.679c-1.019-.407-1.7-.747-2.156-.951h0l-.323-.17a22.335,22.335,0,0,1-1.154-2.53,37.843,37.843,0,0,1,.238-28.574C173.018,61.09,192.084,43.807,241.319,33.62Z" transform="translate(101.529 12.475)" fill="#2fe05b"/>
      <path id="Path_3013" data-name="Path 3013" d="M241.333,33.62l-.153.713-.73.17c-46.6,10.577-65.517,27.164-72.427,41.986a37.232,37.232,0,0,0-1.409,28.2,26.227,26.227,0,0,0,1.019,2.581l.187.373h0l-.323-.17a22.35,22.35,0,0,1-1.154-2.53,37.843,37.843,0,0,1,.238-28.574C173.032,61.09,192.1,43.807,241.333,33.62Z" transform="translate(101.515 12.475)" fill="#8ff9a5"/>
      <path id="Path_3014" data-name="Path 3014" d="M239.742,33.62l-.153.713A227.827,227.827,0,0,1,233.1,58.9c-.764,2.36-1.562,4.618-2.377,6.791-.645,1.7-1.29,3.4-1.952,4.89-.764,1.834-1.545,3.582-2.343,5.263-1.494,3.158-3.022,6.044-4.6,8.693-.34.577-.679,1.121-1.019,1.7a74.524,74.524,0,0,1-4.618,6.655c-.9,1.171-1.817,2.258-2.733,3.277-18.234,20.526-38.132,15.28-45.042,12.513-1.019-.407-1.7-.747-2.156-.951h0l-.323-.17L188.758,84.74l11.511-11.511h0l1.07-1.07,19.49-19.49L238.893,34.6Z" transform="translate(103.106 12.475)" fill="#31b54d"/>
      <path id="Path_3015" data-name="Path 3015" d="M219.7,38.31,149.33,104.065l4.618,4.635Z" transform="translate(104.198 26.732)" fill="#8ff9a5"/>
      <path id="Path_3016" data-name="Path 3016" d="M218.754,38.31,150.69,106.374,153,108.7Z" transform="translate(105.147 26.732)" fill="#31b54d"/>
      <path id="Path_3017" data-name="Path 3017" d="M196.679,64.835,165.05,62.9v3.871Z" transform="translate(115.167 43.89)" fill="#8ff9a5"/>
      <path id="Path_3018" data-name="Path 3018" d="M196.679,64.04H165.05v1.935Z" transform="translate(115.167 44.685)" fill="#31b54d"/>
      <path id="Path_3019" data-name="Path 3019" d="M197.166,50.888,178.66,49.75v2.275Z" transform="translate(124.664 34.714)" fill="#8ff9a5"/>
      <path id="Path_3020" data-name="Path 3020" d="M197.166,50.42H178.66v1.138Z" transform="translate(124.664 35.182)" fill="#31b54d"/>
      <path id="Path_3021" data-name="Path 3021" d="M169,44.15l1.562,25.738H167.42Z" transform="translate(116.821 30.807)" fill="#8ff9a5"/>
      <path id="Path_3022" data-name="Path 3022" d="M169,44.15V69.888H167.42Z" transform="translate(116.821 30.807)" fill="#31b54d"/>
      <path id="Path_3023" data-name="Path 3023" d="M180.807,39.09l.917,15.076H179.89Z" transform="translate(125.522 27.276)" fill="#8ff9a5"/>
      <path id="Path_3024" data-name="Path 3024" d="M180.807,39.09V54.166h-.917Z" transform="translate(125.522 27.276)" fill="#31b54d"/>
      <path id="Path_3025" data-name="Path 3025" d="M177.891,112.767a22.338,22.338,0,0,1-1.154,2.53l-.374.187a22.373,22.373,0,0,1-2.156.968c-6.91,2.75-26.791,8.013-45.042-12.513a68.421,68.421,0,0,1-4.856-6.163c-.407-.577-.832-1.188-1.239-1.8-1.1-1.7-2.207-3.4-3.294-5.4-.815-1.443-1.7-2.954-2.411-4.533l-.2-.424c-.781-1.545-1.545-3.175-2.292-4.873-.34-.781-.679-1.562-1.019-2.377a165.18,165.18,0,0,1-5.959-16.842c-.119-.424-.255-.849-.374-1.29q-.951-3.243-1.834-6.791-1.375-5.348-2.632-11.307l-.153-.73c37.351,7.742,57.334,19.558,67.622,31.477C184.936,89.593,180.369,106.52,177.891,112.767Z" transform="translate(59.118 17.91)" fill="#2fe05b"/>
      <path id="Path_3026" data-name="Path 3026" d="M177.919,112.76a22.339,22.339,0,0,1-1.154,2.53l-.374.187c0-.1.119-.221.187-.374.255-.56.645-1.46,1.053-2.615,2.377-6.791,5.671-22.75-8.489-38.76-10.187-11.647-29.694-23.31-65.381-31.409l-.747-.17-.153-.73c37.351,7.742,57.334,19.558,67.622,31.477C184.964,89.586,180.4,106.513,177.919,112.76Z" transform="translate(59.091 17.917)" fill="#8ff9a5"/>
      <path id="Path_3027" data-name="Path 3027" d="M176.736,115.3l-.374.187a22.374,22.374,0,0,1-2.156.968c-6.91,2.75-26.791,8.013-45.042-12.513a68.417,68.417,0,0,1-4.856-6.163c-.407-.577-.832-1.188-1.239-1.8-1.1-1.7-2.207-3.4-3.294-5.4-.815-1.443-1.7-2.954-2.411-4.533l-.2-.424c-.781-1.545-1.545-3.175-2.292-4.873-.34-.781-.679-1.562-1.019-2.377a165.173,165.173,0,0,1-5.959-16.842c-.119-.424-.255-.849-.373-1.29q-.951-3.243-1.834-6.791-1.375-5.348-2.632-11.307l-.153-.73,18.845,18.828.136.153.187.187,7.148,7.131h0l13.226,13.226h0Z" transform="translate(59.118 17.91)" fill="#31b54d"/>
      <path id="Path_3028" data-name="Path 3028" d="M106.58,46.12l70.373,65.738-4.618,4.635Z" transform="translate(74.369 32.181)" fill="#8ff9a5"/>
      <path id="Path_3029" data-name="Path 3029" d="M106.58,46.12l68.064,68.064-2.309,2.309Z" transform="translate(74.369 32.181)" fill="#2fe05b"/>
      <path id="Path_3030" data-name="Path 3030" d="M113.68,72.645l31.63-1.935v3.871Z" transform="translate(79.323 49.339)" fill="#8ff9a5"/>
      <path id="Path_3031" data-name="Path 3031" d="M113.68,71.85h31.63v1.935Z" transform="translate(79.323 50.135)" fill="#2fe05b"/>
      <path id="Path_3032" data-name="Path 3032" d="M107.8,58.7l18.506-1.138v2.258Z" transform="translate(75.22 40.164)" fill="#8ff9a5"/>
      <path id="Path_3033" data-name="Path 3033" d="M107.8,58.23h18.506v1.121Z" transform="translate(75.22 40.631)" fill="#2fe05b"/>
      <path id="Path_3034" data-name="Path 3034" d="M129.652,51.95,128.09,77.688h3.141Z" transform="translate(89.378 36.249)" fill="#8ff9a5"/>
      <path id="Path_3035" data-name="Path 3035" d="M129.01,51.95V77.688h1.579Z" transform="translate(90.02 36.249)" fill="#2fe05b"/>
      <path id="Path_3036" data-name="Path 3036" d="M117.307,46.9l-.917,15.059h1.834Z" transform="translate(81.214 32.726)" fill="#8ff9a5"/>
      <path id="Path_3037" data-name="Path 3037" d="M116.93,46.9V61.959h.917Z" transform="translate(81.591 32.726)" fill="#2fe05b"/>
      <rect id="Rectangle_1017" data-name="Rectangle 1017" width="13.311" height="46.4" transform="translate(246.143 171.696)" fill="#31b54d"/>
      <path id="Path_3038" data-name="Path 3038" d="M242.238,110.89H129.692a16.282,16.282,0,0,0-15.925,19.677L131.7,214.454a24.482,24.482,0,0,0,23.939,19.372h60.644a24.516,24.516,0,0,0,23.956-19.372l17.911-83.887a16.282,16.282,0,0,0-15.908-19.677Z" transform="translate(66.451 66.391)" fill="#00a682"/>
      <path id="Path_3039" data-name="Path 3039" d="M134.5,214.454l-17.928-83.887a16.282,16.282,0,0,1,15.925-19.677h-2.8a16.282,16.282,0,0,0-15.925,19.677L131.7,214.454a24.482,24.482,0,0,0,23.939,19.372h2.784A24.482,24.482,0,0,1,134.5,214.454Z" transform="translate(66.451 66.391)" fill="#57ebd2"/>
      <path id="Path_3040" data-name="Path 3040" d="M228.339,130.567l-17.911,83.887a24.516,24.516,0,0,1-23.973,19.372H156.15V110.89h56.264a16.282,16.282,0,0,1,15.925,19.677Z" transform="translate(96.275 66.391)" fill="#147a69"/>
      <path id="Path_3041" data-name="Path 3041" d="M235.006,152.187a30.1,30.1,0,0,0-12.8-24.652,18.146,18.146,0,0,0,.373-3.616,17.759,17.759,0,1,0-35.517,0,18.147,18.147,0,0,0,.357,3.616,30.152,30.152,0,0,0,13.99,54.634v32.954H208.2V182.169a30.186,30.186,0,0,0,26.808-29.983Z" transform="translate(109.15 63.091)" fill="#8ff9a5"/>
      <path id="Path_3042" data-name="Path 3042" d="M220.552,127.535a18.15,18.15,0,0,0,.374-3.616,17.759,17.759,0,0,0-35.517,0,18.146,18.146,0,0,0,.373,3.616,30.186,30.186,0,1,0,34.77,0Z" transform="translate(108.017 63.091)" fill="#2fe05b"/>
      <path id="Path_3043" data-name="Path 3043" d="M208.145,127.535a18.149,18.149,0,0,0,.374-3.616A17.759,17.759,0,0,0,190.76,106.16v76.213a30.169,30.169,0,0,0,17.385-54.838Z" transform="translate(120.425 63.091)" fill="#31b54d"/>
      <rect id="Rectangle_1018" data-name="Rectangle 1018" width="6.825" height="55.653" transform="translate(307.755 222.561)" fill="#2fe05b"/>
      <rect id="Rectangle_1019" data-name="Rectangle 1019" width="3.413" height="55.653" transform="translate(311.168 222.561)" fill="#31b54d"/>
      <path id="Path_3044" data-name="Path 3044" d="M184.542,100.03l2.767,108.386H181.52Z" transform="translate(126.66 69.798)" fill="#8ff9a5"/>
      <path id="Path_3045" data-name="Path 3045" d="M184.542,100.03l-.136,108.386H181.52Z" transform="translate(126.66 69.798)" fill="#2fe05b"/>
      <path id="Path_3046" data-name="Path 3046" d="M171.64,120.52l20.917,18.574-2.411,2.411Z" transform="translate(119.766 84.096)" fill="#8ff9a5"/>
      <path id="Path_3047" data-name="Path 3047" d="M171.64,120.52,191.351,140.3l-1.205,1.205Z" transform="translate(119.766 84.096)" fill="#2fe05b"/>
      <path id="Path_3048" data-name="Path 3048" d="M176.49,108.35l12.241,10.866-1.409,1.409Z" transform="translate(123.15 75.604)" fill="#8ff9a5"/>
      <path id="Path_3049" data-name="Path 3049" d="M176.49,108.35l11.528,11.579-.7.7Z" transform="translate(123.15 75.604)" fill="#2fe05b"/>
      <path id="Path_3050" data-name="Path 3050" d="M200.66,117.7l-17.08,15.059,1.969,1.969Z" transform="translate(128.097 82.128)" fill="#8ff9a5"/>
      <path id="Path_3051" data-name="Path 3051" d="M200.255,117.7,184.16,133.744l.985.985Z" transform="translate(128.502 82.128)" fill="#31b54d"/>
      <path id="Path_3052" data-name="Path 3052" d="M193.363,106.99l-9.983,8.828,1.137,1.155Z" transform="translate(127.957 74.655)" fill="#8ff9a5"/>
      <path id="Path_3053" data-name="Path 3053" d="M193.133,106.99,183.71,116.4l.577.577Z" transform="translate(128.188 74.655)" fill="#31b54d"/>
      <path id="Path_3054" data-name="Path 3054" d="M140.828,140.972a12.12,12.12,0,0,0,.255-2.513,12.36,12.36,0,0,0-12.377-12.36,9.222,9.222,0,0,1-1.935,0,12.36,12.36,0,0,0-12.377,12.36,12.123,12.123,0,0,0,.255,2.513,21.035,21.035,0,0,0,9.745,38.081v22.954h6.689V179.053a21.035,21.035,0,0,0,9.745-38.081Z" transform="translate(61.105 77.005)" fill="#147a69"/>
      <path id="Path_3055" data-name="Path 3055" d="M157.66,151.714a9.714,9.714,0,0,0,.187-1.885,9.27,9.27,0,0,0-9.27-9.27h-1.46a9.287,9.287,0,0,0-9.287,9.27,9.711,9.711,0,0,0,.187,1.885,15.772,15.772,0,0,0,7.317,28.641V197.5h5.093V180.356a15.772,15.772,0,0,0,7.3-28.557Z" transform="translate(78.89 87.094)" fill="#147a69"/>
      <path id="Path_3056" data-name="Path 3056" d="M102.41,157.993a21,21,0,0,1,8.913-17.181,12.121,12.121,0,0,1-.255-2.513,12.377,12.377,0,0,1,24.737,0,12.125,12.125,0,0,1-.255,2.513,21.018,21.018,0,0,1-9.745,38.081v22.954h-4.737V178.858a21.035,21.035,0,0,1-18.659-20.866Z" transform="translate(58.777 77.2)" fill="#8ff9a5"/>
      <path id="Path_3057" data-name="Path 3057" d="M112.484,140.791a12.124,12.124,0,0,1-.255-2.513,12.377,12.377,0,0,1,24.737,0,12.12,12.12,0,0,1-.255,2.513,21.052,21.052,0,1,1-24.227,0Z" transform="translate(59.568 77.186)" fill="#2fe05b"/>
      <path id="Path_3058" data-name="Path 3058" d="M112.483,140.972a12.125,12.125,0,0,1-.255-2.513,12.36,12.36,0,0,1,12.36-12.36v53.089a21.018,21.018,0,0,1-12.105-38.217Z" transform="translate(59.569 77.005)" fill="#31b54d"/>
      <rect id="Rectangle_1020" data-name="Rectangle 1020" width="4.754" height="38.777" transform="translate(186.534 279.012) rotate(180)" fill="#2fe05b"/>
      <rect id="Rectangle_1021" data-name="Rectangle 1021" width="2.377" height="38.777" transform="translate(184.157 279.012) rotate(180)" fill="#31b54d"/>
      <path id="Path_3059" data-name="Path 3059" d="M109.255,119.86l-1.935,75.517h4.024Z" transform="translate(74.885 83.635)" fill="#8ff9a5"/>
      <path id="Path_3060" data-name="Path 3060" d="M108.46,119.86l.085,75.517h2Z" transform="translate(75.68 83.635)" fill="#2fe05b"/>
      <path id="Path_3061" data-name="Path 3061" d="M122.574,134.14,107.99,147.077l1.7,1.681Z" transform="translate(75.352 93.599)" fill="#8ff9a5"/>
      <path id="Path_3062" data-name="Path 3062" d="M122.225,134.14,108.49,147.909l.849.849Z" transform="translate(75.701 93.599)" fill="#2fe05b"/>
      <path id="Path_3063" data-name="Path 3063" d="M116.7,125.66l-8.523,7.572.985.985Z" transform="translate(75.485 87.682)" fill="#8ff9a5"/>
      <path id="Path_3064" data-name="Path 3064" d="M116.5,125.66l-8.03,8.064.492.492Z" transform="translate(75.687 87.682)" fill="#2fe05b"/>
      <path id="Path_3065" data-name="Path 3065" d="M101.25,132.17l11.9,10.492-1.358,1.375Z" transform="translate(70.649 92.225)" fill="#8ff9a5"/>
      <path id="Path_3066" data-name="Path 3066" d="M101.25,132.17l11.222,11.188-.679.679Z" transform="translate(70.649 92.225)" fill="#31b54d"/>
      <path id="Path_3067" data-name="Path 3067" d="M104.3,124.71l6.978,6.146-.815.815Z" transform="translate(72.778 87.019)" fill="#8ff9a5"/>
      <path id="Path_3068" data-name="Path 3068" d="M104.3,124.71l6.57,6.553-.407.407Z" transform="translate(72.778 87.019)" fill="#31b54d"/>
      <path id="Path_3069" data-name="Path 3069" d="M128,164.444a15.789,15.789,0,0,1,6.689-12.886,9.716,9.716,0,0,1-.187-1.885,9.287,9.287,0,0,1,18.557,0,9.715,9.715,0,0,1-.187,1.885,15.772,15.772,0,0,1-7.385,28.641v17.148h-3.565V180.2A15.772,15.772,0,0,1,128,164.444Z" transform="translate(76.632 87.25)" fill="#8ff9a5"/>
      <path id="Path_3070" data-name="Path 3070" d="M135.513,151.558a9.714,9.714,0,0,1-.187-1.885,9.287,9.287,0,0,1,18.557,0,9.711,9.711,0,0,1-.187,1.885,15.789,15.789,0,1,1-18.183,0Z" transform="translate(77.201 87.251)" fill="#2fe05b"/>
      <path id="Path_3071" data-name="Path 3071" d="M135.515,151.714a9.715,9.715,0,0,1-.187-1.885,9.287,9.287,0,0,1,9.287-9.27v39.8a15.772,15.772,0,0,1-9.1-28.675Z" transform="translate(77.199 87.094)" fill="#31b54d"/>
      <rect id="Rectangle_1022" data-name="Rectangle 1022" width="3.565" height="29.083" transform="translate(223.58 284.581) rotate(180)" fill="#2fe05b"/>
      <rect id="Rectangle_1023" data-name="Rectangle 1023" width="1.783" height="29.083" transform="translate(221.797 284.581) rotate(180)" fill="#31b54d"/>
      <path id="Path_3072" data-name="Path 3072" d="M131.223,134.26l-1.443,56.655H132.8Z" transform="translate(90.557 93.683)" fill="#8ff9a5"/>
      <path id="Path_3073" data-name="Path 3073" d="M130.63,134.26l.068,56.655h1.511Z" transform="translate(91.15 93.683)" fill="#2fe05b"/>
      <path id="Path_3074" data-name="Path 3074" d="M141.224,144.97l-10.934,9.711,1.256,1.256Z" transform="translate(90.913 101.156)" fill="#8ff9a5"/>
      <path id="Path_3075" data-name="Path 3075" d="M140.965,144.97,130.66,155.309l.628.628Z" transform="translate(91.171 101.156)" fill="#2fe05b"/>
      <path id="Path_3076" data-name="Path 3076" d="M136.821,138.61l-6.4,5.688.747.73Z" transform="translate(91.003 96.718)" fill="#8ff9a5"/>
      <path id="Path_3077" data-name="Path 3077" d="M136.667,138.61l-6.027,6.044.373.374Z" transform="translate(91.157 96.718)" fill="#2fe05b"/>
      <path id="Path_3078" data-name="Path 3078" d="M125.23,143.5l8.93,7.878-1.036,1.019Z" transform="translate(87.382 100.13)" fill="#8ff9a5"/>
      <path id="Path_3079" data-name="Path 3079" d="M125.23,143.5l8.421,8.387-.526.509Z" transform="translate(87.382 100.13)" fill="#31b54d"/>
      <path id="Path_3080" data-name="Path 3080" d="M127.52,137.9l5.212,4.618-.594.594Z" transform="translate(88.98 96.223)" fill="#8ff9a5"/>
      <path id="Path_3081" data-name="Path 3081" d="M127.52,137.9l4.924,4.907-.306.306Z" transform="translate(88.98 96.223)" fill="#31b54d"/>
      <path id="Path_3082" data-name="Path 3082" d="M28.81,247.1l22.1,30.322H413.729l22.1-30.322L232.763,221.77Z" transform="translate(20.103 154.745)" fill="#0b5144"/>
      <path id="Path_3083" data-name="Path 3083" d="M435.834,287.669H28.81L54.531,163.63H410.113Z" transform="translate(20.103 114.176)" fill="#147a69"/>
      <path id="Path_3084" data-name="Path 3084" d="M247.32,172.719l4.8-3.939,21.6,104.736-5.942-2.122Z" transform="translate(172.573 117.77)" fill="#00a682"/>
      <path id="Path_3085" data-name="Path 3085" d="M54.531,163.63,28.81,287.669l30.509-119.1,350.794-4.941Z" transform="translate(20.103 114.176)" fill="#00a682"/>
      <path id="Path_3086" data-name="Path 3086" d="M37.99,269.775,58.448,171.1H393.385l20.458,98.675Z" transform="translate(26.508 119.389)" fill="#0b5144"/>
      <path id="Path_3087" data-name="Path 3087" d="M45.46,235.7H421.313S290.669,243.781,45.46,235.7Z" transform="translate(19.038 153.48)" fill="#00a682"/>
      <path id="Path_3088" data-name="Path 3088" d="M67.459,256.81a2.309,2.309,0,0,1-2.343,1.256,6.672,6.672,0,0,1-5.637-3.4,4.481,4.481,0,0,1-.458-1.239h0c-.2-1.358.7-2.224,2.462-2.224A6.791,6.791,0,0,1,65.2,252.5l.645-.951.374-.56A10.611,10.611,0,0,0,60.193,249c-2.886,0-4.465,1.375-4.244,3.4a5.722,5.722,0,0,0,.73,2.19,11.239,11.239,0,0,0,9.372,5.467,4.363,4.363,0,0,0,3.565-1.273,2.122,2.122,0,0,0,.356-.594Z" transform="translate(26.343 162.761)" fill="#b5b5b5"/>
      <path id="Path_3089" data-name="Path 3089" d="M77.01,254.654A10.747,10.747,0,0,0,67.672,249c-3.005,0-4.635,1.477-4.414,3.667a5.823,5.823,0,0,0,.628,1.986,10.832,10.832,0,0,0,9.236,5.467c2.581,0,4.193-1.121,4.414-2.886a4.923,4.923,0,0,0-.526-2.581Zm-8.268-3.48a6.3,6.3,0,0,1,5.45,3.48,3.09,3.09,0,0,1,.357,1.834c-.17,1-1.053,1.579-2.445,1.579a6.333,6.333,0,0,1-5.416-3.4,3.7,3.7,0,0,1-.374-1.138c-.255-1.443.679-2.36,2.428-2.36Z" transform="translate(31.444 162.761)" fill="#b5b5b5"/>
      <path id="Path_3090" data-name="Path 3090" d="M82.933,256.943l-.543-.441A2.105,2.105,0,0,0,83.7,254.94a3.26,3.26,0,0,0-.306-1.834,7.317,7.317,0,0,0-7.012-3.99H71.1l.374.8,4.584,9.949h2.733l-.968-2.122-.357-.8H80l3.565,2.92H86.5Zm-2.258-2.7c-.2.475-.8.747-1.834.747H76.584L75.226,252l-.357-.8h2.292a3.4,3.4,0,0,1,3.4,1.9,1.46,1.46,0,0,1,.119,1.137Z" transform="translate(36.929 162.831)" fill="#b5b5b5"/>
      <path id="Path_3091" data-name="Path 3091" d="M90.789,253.107A6.978,6.978,0,0,0,84,249.117H78.65l.34.8,4.177,9.949H85.9l-.866-2.088-.323-.8H87.1c2.377,0,3.752-.815,3.922-2.207a3.158,3.158,0,0,0-.238-1.664Zm-2.75,1.07c-.187.509-.815.8-1.885.8H83.9L82.64,252l-.323-.8h2.292a3.243,3.243,0,0,1,3.4,1.9,1.426,1.426,0,0,1,.034,1.07Z" transform="translate(42.197 162.831)" fill="#b5b5b5"/>
      <path id="Path_3092" data-name="Path 3092" d="M100.238,254.654A9.168,9.168,0,0,0,91.63,249c-3.243,0-5.093,1.7-4.873,4.177h0a5.841,5.841,0,0,0,.357,1.426A9.253,9.253,0,0,0,95.6,260.07c2.835,0,4.652-1.341,4.873-3.4h0a4.72,4.72,0,0,0-.238-2.02Zm-7.827-3.48a5.4,5.4,0,0,1,5.093,3.48,3.141,3.141,0,0,1,.187,1.528c-.17,1.171-1.171,1.885-2.716,1.885a5.433,5.433,0,0,1-4.974-3.4,3.666,3.666,0,0,1-.2-.764C89.457,252.26,90.577,251.174,92.411,251.174Z" transform="translate(47.842 162.76)" fill="#b5b5b5"/>
      <path id="Path_3093" data-name="Path 3093" d="M105.716,256.967l-.526-.492a2.462,2.462,0,0,0,1.579-1.918h0a3.259,3.259,0,0,0-.136-1.426c-.73-2.445-3.226-3.99-6.5-3.99H94.85l.272.8,3.379,9.9h2.716l-.679-2.122-.255-.8h2.462l3.192,2.92h2.937Zm-1.868-2.937c-.187.594-.849.934-2.02.934H99.57l-.968-2.988-.255-.8h2.292a2.954,2.954,0,0,1,3.175,1.9,1.528,1.528,0,0,1,.034.917Z" transform="translate(53.501 162.858)" fill="#b5b5b5"/>
      <path id="Path_3094" data-name="Path 3094" d="M108.382,249.11H105.6l-2.258,10.747h2.818l.407-2.241h5.518l1.7,2.241h2.869Zm-1.477,6.655.747-4.143,3.039,4.143Z" transform="translate(59.425 162.837)" fill="#b5b5b5"/>
      <path id="Path_3095" data-name="Path 3095" d="M120.213,251.2l-.475-2.088H109.11l.2.8.323,1.29h3.888l2.105,8.659h2.716L116.512,252l-.187-.8Z" transform="translate(63.452 162.837)" fill="#b5b5b5"/>
      <path id="Path_3096" data-name="Path 3096" d="M127.352,257.935h-6.469l-.34-1.7-.17-.781h5.6l-.357-1.935h-5.586l-.323-1.579-.17-.8h6.367l-.374-2.054H116.3l.17.8,2.156,9.949h9.049Z" transform="translate(68.469 162.824)" fill="#b5b5b5"/>
      <path id="Path_3097" data-name="Path 3097" d="M128.87,252.549a.577.577,0,0,1-.085-.238c-.119-.7.441-1.256,2.105-1.256a8.2,8.2,0,0,1,3.4.866l.39-1.256.221-.679a9.559,9.559,0,0,0-4.38-.985c-3.4,0-4.856,1.528-4.584,3.4h0c.662,4.007,7.4,2.632,7.691,4.618a.679.679,0,0,1-.119.509c-.221.39-.832.628-2,.628a8.592,8.592,0,0,1-4.092-1.1l-.628,1.834L127,259a10.646,10.646,0,0,0,4.771,1.087c2.886,0,4.346-1.1,4.55-2.53a2.106,2.106,0,0,0,0-.73C135.916,253.092,129.668,254.2,128.87,252.549Z" transform="translate(75.168 162.76)" fill="#b5b5b5"/>
      <path id="Path_3098" data-name="Path 3098" d="M138.556,249c-3.718,0-6.2,2.258-5.959,5.331a1.036,1.036,0,0,0,0,.323,6.791,6.791,0,0,0,7.165,5.467c3.4,0,5.806-1.918,5.959-4.669h0a4.013,4.013,0,0,0,0-.781C145.466,251.411,142.41,249,138.556,249Zm4.363,6.333a3.073,3.073,0,0,1-3.4,2.733,3.973,3.973,0,0,1-4.126-3.4,3.073,3.073,0,0,1,3.4-3.48,3.956,3.956,0,0,1,4.126,3.48,2.971,2.971,0,0,1,0,.662Z" transform="translate(79.829 162.761)" fill="#b5b5b5"/>
      <path id="Path_3099" data-name="Path 3099" d="M150.879,256.8a3.735,3.735,0,0,1-2.9,1.256,3.786,3.786,0,0,1-4.041-3.4h0a3.26,3.26,0,0,1,3.633-3.48,4.278,4.278,0,0,1,3.107,1.29l1.29-1.12.441-.391a6.944,6.944,0,0,0-5.093-1.952c-3.8,0-6.418,2.377-6.146,5.654h0a6.384,6.384,0,0,0,6.791,5.45,6.554,6.554,0,0,0,4.346-1.426l.441-.441Z" transform="translate(85.807 162.766)" fill="#b5b5b5"/>
      <path id="Path_3100" data-name="Path 3100" d="M151.675,249.11H148.84v.8l.407,9.949h2.716Z" transform="translate(91.174 162.837)" fill="#b5b5b5"/>
      <path id="Path_3101" data-name="Path 3101" d="M159.365,249.11h-2.8l-5.093,10.747h2.8l1-2.241h5.518l1.036,2.241H164.7Zm-3.277,6.6,1.868-4.143,1.919,4.143Z" transform="translate(93.009 162.837)" fill="#b5b5b5"/>
      <path id="Path_3102" data-name="Path 3102" d="M162.751,257.887l.238-7.98v-.8h-2.818l-.221,10.747h8.642v-1.969Z" transform="translate(98.926 162.837)" fill="#b5b5b5"/>
      <path id="Path_3103" data-name="Path 3103" d="M179.694,253.079h0c.221-2.411-1.7-3.939-4.89-3.939h-5.3l-.747,10.747h2.733l.221-2.92h2.547l2,2.92H179.2l-1.919-2.767-.407-.594a4.007,4.007,0,0,0,2.818-3.446Zm-2.869.153c-.153,1.087-1.07,1.7-2.682,1.7h-2.275l.306-3.786h2.292c1.7,0,2.513.7,2.394,1.9a.493.493,0,0,1-.034.187Z" transform="translate(105.074 162.858)" fill="#b5b5b5"/>
      <path id="Path_3104" data-name="Path 3104" d="M177.248,249.11l-1.188,10.747h9.117l.153-1.138.119-.8H179l.289-2.445h5.552l.17-1.154.1-.781h-5.586l.289-2.377h6.333l.17-1.256.119-.8Z" transform="translate(110.167 162.837)" fill="#b5b5b5"/>
      <path id="Path_3105" data-name="Path 3105" d="M188.745,251.056a6.6,6.6,0,0,1,3.209.866l.849-1.358.357-.577a7.742,7.742,0,0,0-4.075-.985c-3.4,0-5.365,1.562-5.637,3.4a2.105,2.105,0,0,0,0,.8h0c.458,2.988,6.536,1.952,6.231,3.786a.983.983,0,0,1-.1.289c-.255.492-1,.849-2.377.849a6.791,6.791,0,0,1-3.735-1.1l-1.205,1.834.357.238a9.032,9.032,0,0,0,4.261.968c3.4,0,5.263-1.494,5.586-3.26v-.119c.492-3.4-5.28-2.666-6.146-3.956a.645.645,0,0,1-.1-.475C186.352,251.617,187.082,251.056,188.745,251.056Z" transform="translate(114.494 162.759)" fill="#b5b5b5"/>
      <path id="Path_3106" data-name="Path 3106" d="M196.3,249.11h-5.28l-1.969,10.747h2.716l.56-2.886h2.411c3.175,0,5.484-1.477,6.01-3.871a.71.71,0,0,1,.085-.407h0C201.07,250.468,199.372,249.11,196.3,249.11Zm1.7,3.973h0c-.238,1.171-1.239,1.868-2.937,1.868H192.8l.73-3.769h2.224c1.7.017,2.411.713,2.156,1.9Z" transform="translate(119.231 162.837)" fill="#b5b5b5"/>
      <path id="Path_3107" data-name="Path 3107" d="M204.569,249a7.946,7.946,0,0,0-7.946,5.654,5.808,5.808,0,0,0-.119,1.6h0c.255,2.309,2.292,3.854,5.348,3.854a8.047,8.047,0,0,0,7.895-5.467,5.98,5.98,0,0,0,.17-1.036h0C210.087,250.887,207.965,249,204.569,249Zm-5.093,5.654a4.686,4.686,0,0,1,4.6-3.48c2,0,3.226,1.205,3.005,3.022h0v.441a4.7,4.7,0,0,1-4.584,3.4,2.666,2.666,0,0,1-2.988-2.275,2.9,2.9,0,0,1-.085-1.1Z" transform="translate(124.425 162.758)" fill="#b5b5b5"/>
      <path id="Path_3108" data-name="Path 3108" d="M216.014,249.117l-1.969,6.6-4.092-6.621H207.61l-2.92,10.747h2.7l1.8-6.435,4.075,6.435H215.5l3.073-9.949.238-.8Z" transform="translate(130.145 162.83)" fill="#b5b5b5"/>
      <path id="Path_3109" data-name="Path 3109" d="M220.856,249.006c-3.4,0-5.637,1.562-6.231,3.4a2.105,2.105,0,0,0-.085,1.188c.441,2.547,6.146,1.7,5.569,3.4a.577.577,0,0,1-.1.2c-.306.543-1.121.934-2.581.934a5.942,5.942,0,0,1-3.565-1.1l-1.511,1.834a2.484,2.484,0,0,0,.407.289,8.15,8.15,0,0,0,4.024.917c3.4,0,5.518-1.494,6.129-3.26a3.957,3.957,0,0,0,.119-.424c.611-2.988-4.618-2.445-5.484-3.548a.543.543,0,0,1-.1-.577c.238-.7,1.053-1.256,2.716-1.256a5.84,5.84,0,0,1,3.073.866l1.1-1.392.424-.543A6.892,6.892,0,0,0,220.856,249.006Z" transform="translate(135.49 162.755)" fill="#b5b5b5"/>
      <path id="Path_3110" data-name="Path 3110" d="M222.854,249.11,219,259.857h2.733l3.6-9.949.289-.8Z" transform="translate(140.13 162.837)" fill="#b5b5b5"/>
      <path id="Path_3111" data-name="Path 3111" d="M232.249,249.11h-5.976L222.3,259.857h6.1c3.107,0,5.093-1.036,5.874-2.852a2.377,2.377,0,0,0,.17-.611,1.562,1.562,0,0,0-.509-1.7,2.259,2.259,0,0,0-.781-.408,4.516,4.516,0,0,0,2.564-2.394,2.425,2.425,0,0,0,.153-.458h0C236.171,250.061,235.016,249.11,232.249,249.11Zm.509,3.209h0c-.357.849-1.273,1.273-2.615,1.273h-2.767l.985-2.564h2.784C232.521,251.045,233.1,251.47,232.758,252.319Zm-1.154,4.414h0c-.357.9-1.273,1.29-2.7,1.29H225.7l1-2.615h3.226c1.426.017,2.054.441,1.681,1.324Z" transform="translate(142.432 162.837)" fill="#b5b5b5"/>
      <path id="Path_3112" data-name="Path 3112" d="M234.338,249.11l-4.448,10.747h2.733l4.194-9.949.34-.8Z" transform="translate(147.729 162.837)" fill="#b5b5b5"/>
      <path id="Path_3113" data-name="Path 3113" d="M236.749,257.887l3.5-7.98.357-.8h-2.818l-4.635,10.747h8.642l.543-1.171.357-.8Z" transform="translate(150.003 162.837)" fill="#b5b5b5"/>
      <path id="Path_3114" data-name="Path 3114" d="M244.183,249.11l-5.093,10.747h2.733l4.72-9.949.374-.8Z" transform="translate(154.148 162.837)" fill="#b5b5b5"/>
      <path id="Path_3115" data-name="Path 3115" d="M245.215,249.11l-1,2.088h3.871l-.39.8-3.854,7.861h2.716L250.9,251.2h3.871l.662-1.29.1-.2.306-.594Z" transform="translate(157.462 162.837)" fill="#b5b5b5"/>
      <path id="Path_3116" data-name="Path 3116" d="M260.63,249.11l-5.857,4.907-.662-4.873h-3.005v1.205l.849,5.789v.17l-1.885,3.582H252.8l1.986-3.718,7.538-6.231.968-.8Z" transform="translate(161.81 162.837)" fill="#b5b5b5"/>
      <path id="Path_3117" data-name="Path 3117" d="M69.623,258.505l-2.156-1.256a2.309,2.309,0,0,1-2.343,1.256,6.791,6.791,0,0,1-5.637-3.4,3.175,3.175,0,0,1-.458-2.037h0c.221-.883,1.07-1.426,2.462-1.426a6.791,6.791,0,0,1,3.718,1.29l1.019-1.511a2.78,2.78,0,0,0-.373-.238,10.526,10.526,0,0,0-5.654-1.7c-2.5,0-4.024,1.036-4.244,2.683a4.958,4.958,0,0,0,.73,2.988,11.222,11.222,0,0,0,9.355,5.382c2.054,0,3.4-.645,3.922-1.851Z" transform="translate(26.352 163.103)" fill="#fff"/>
      <path id="Path_3118" data-name="Path 3118" d="M77.007,255.131a10.764,10.764,0,0,0-9.338-5.671c-2.632,0-4.193,1.137-4.414,2.886a4.992,4.992,0,0,0,.628,2.784,10.832,10.832,0,0,0,9.236,5.433c2.971,0,4.618-1.46,4.414-3.667a6.146,6.146,0,0,0-.526-1.766Zm-4.907,3.4a6.35,6.35,0,0,1-5.416-3.4,2.937,2.937,0,0,1-.374-1.935c.153-.951,1.036-1.545,2.428-1.545a6.3,6.3,0,0,1,5.45,3.48,5.093,5.093,0,0,1,.357,1.036C74.715,257.609,73.832,258.526,72.1,258.526Z" transform="translate(31.447 163.082)" fill="#fff"/>
      <path id="Path_3119" data-name="Path 3119" d="M85.531,259.536l-3.141-2.581a2.462,2.462,0,0,0,.543-.34,2,2,0,0,0,.764-2,4.67,4.67,0,0,0-.306-1.036,7.3,7.3,0,0,0-7.012-3.99H71.1l4.924,10.747h2.733l-.357-.8-.968-2.122h2.53l3.565,2.92h2.937Zm-8.947-4.143-1.7-3.769h2.292a3.4,3.4,0,0,1,3.4,1.9.388.388,0,0,0,.119.34c.289.968-.323,1.528-1.834,1.528Z" transform="translate(36.929 163.158)" fill="#fff"/>
      <path id="Path_3120" data-name="Path 3120" d="M91.027,254.443a3.7,3.7,0,0,0-.238-.866A6.944,6.944,0,0,0,84,249.587H78.65l4.516,10.747H85.9l-.323-.8-.866-2.088H87.1C89.889,257.448,91.315,256.328,91.027,254.443Zm-7.131.985-1.562-3.752h2.292a3.243,3.243,0,0,1,3.4,1.9,1.7,1.7,0,0,1,.085.272c.289,1-.34,1.579-1.885,1.579Z" transform="translate(42.197 163.158)" fill="#fff"/>
      <path id="Path_3121" data-name="Path 3121" d="M100.233,255.131a9.185,9.185,0,0,0-8.608-5.671c-2.869,0-4.652,1.358-4.873,3.4h0a4.923,4.923,0,0,0,.424,2.275,9.236,9.236,0,0,0,8.489,5.433c3.192,0,5.093-1.7,4.873-4.177h0a4.905,4.905,0,0,0-.306-1.256Zm-5.348,3.4a5.433,5.433,0,0,1-4.974-3.4,2.92,2.92,0,0,1-.2-1.562c.153-1.188,1.155-1.919,2.7-1.919a5.4,5.4,0,0,1,5.093,3.48,3.09,3.09,0,0,1,.187.73C97.822,257.474,96.736,258.526,94.885,258.526Z" transform="translate(47.847 163.081)" fill="#fff"/>
      <path id="Path_3122" data-name="Path 3122" d="M108.008,259.508l-2.818-2.581a3.849,3.849,0,0,0,.526-.289,2.326,2.326,0,0,0,1.053-2.411h0a2.988,2.988,0,0,0-.136-.628c-.73-2.462-3.226-3.99-6.5-3.99H94.85l3.65,10.7h2.716l-.255-.8-.679-2.122h2.462l3.192,2.92h2.937Zm-8.489-4.092L98.3,251.647h2.292a2.954,2.954,0,0,1,3.175,1.9.494.494,0,0,1,0,.153c.272,1.087-.391,1.7-2.02,1.7Z" transform="translate(53.501 163.186)" fill="#fff"/>
      <path id="Path_3123" data-name="Path 3123" d="M115.954,259.529l-7.572-9.949H105.6l-2.088,9.949-.17.8h2.818l.407-2.241h5.518l1.7,2.241h2.869Zm-8.913-4.143.611-3.4,2.462,3.4.577.781h-3.786Z" transform="translate(59.425 163.165)" fill="#fff"/>
      <path id="Path_3124" data-name="Path 3124" d="M116.326,251.668h3.888l-.187-.8-.289-1.29H109.11l.526,2.088h3.888l2.105,8.659h2.716l-.187-.8Z" transform="translate(63.452 163.165)" fill="#fff"/>
      <path id="Path_3125" data-name="Path 3125" d="M127.556,259.529l-.2-1.138h-6.469l-.509-2.462h5.6l-.136-.781-.221-1.154h-5.586l-.492-2.36h6.367l-.153-.8-.221-1.256H116.3l2.326,10.747h9.049Z" transform="translate(68.469 163.165)" fill="#fff"/>
      <path id="Path_3126" data-name="Path 3126" d="M136.418,257.31c-.594-3.854-7.317-2.513-7.623-4.5a.764.764,0,0,1,.085-.543c.2-.408.832-.7,2.02-.7a8.167,8.167,0,0,1,3.4.849l.611-1.935-.221-.1a9.864,9.864,0,0,0-4.16-.883c-2.937,0-4.38,1.121-4.584,2.581h0a2.514,2.514,0,0,0,0,.8c.628,3.786,6.706,2.75,7.572,4.329a.612.612,0,0,1,.119.289c.085.645-.492,1.121-2.122,1.121a8.489,8.489,0,0,1-4.092-1.1l-.407,1.171-.221.662a10.187,10.187,0,0,0,4.991,1.205C135.213,260.536,136.656,259.076,136.418,257.31Z" transform="translate(75.175 163.109)" fill="#fff"/>
      <path id="Path_3127" data-name="Path 3127" d="M138.565,249.46c-3.4,0-5.738,1.9-5.959,4.55a4.142,4.142,0,0,0,0,1.121,6.791,6.791,0,0,0,7.165,5.45c3.7,0,6.248-2.275,5.959-5.45h0C145.458,251.871,142.419,249.46,138.565,249.46Zm-3.124,5.671a3.141,3.141,0,0,1,0-.8,3.09,3.09,0,0,1,3.4-2.682,3.973,3.973,0,0,1,4.109,3.4v.119a3.073,3.073,0,0,1-3.4,3.4,3.973,3.973,0,0,1-4.109-3.43Z" transform="translate(79.82 163.082)" fill="#fff"/>
      <path id="Path_3128" data-name="Path 3128" d="M152.327,258.375l-1.409-1.1a3.735,3.735,0,0,1-2.9,1.256,3.786,3.786,0,0,1-4.058-3.4,3.153,3.153,0,0,1,3.616-3.48,4.279,4.279,0,0,1,3.107,1.29l1.7-1.511a3.4,3.4,0,0,0-.441-.408,7.181,7.181,0,0,0-4.686-1.562c-3.48,0-5.976,2-6.146,4.873h0a6,6,0,0,0,0,.781c.255,3.209,3.175,5.45,6.791,5.45a6.18,6.18,0,0,0,4.788-1.851Z" transform="translate(85.768 163.08)" fill="#fff"/>
      <path id="Path_3129" data-name="Path 3129" d="M151.981,259.529l-.306-9.949H148.84l.441,10.747H152Z" transform="translate(91.174 163.165)" fill="#fff"/>
      <path id="Path_3130" data-name="Path 3130" d="M164.275,259.529l-4.89-9.949h-2.8l-4.771,9.949-.374.8h2.8l1-2.241h5.518l1.036,2.241h2.869Zm-7.81-4.143,1.511-3.4,1.562,3.4.357.781h-3.786Z" transform="translate(92.988 163.165)" fill="#fff"/>
      <path id="Path_3131" data-name="Path 3131" d="M162.744,258.357v-.8l.238-7.979h-2.818l-.2,9.949v.8H168.6v-1.969Z" transform="translate(98.933 163.165)" fill="#fff"/>
      <path id="Path_3132" data-name="Path 3132" d="M174.783,249.58h-5.3l-.7,9.949v.8h2.733l.221-2.92h2.5l2,2.92h2.937l-.543-.8-1.783-2.581a1.7,1.7,0,0,0,.407-.187,3.837,3.837,0,0,0,2.411-3.192,3.142,3.142,0,0,0,0-.8h0C179.452,250.751,177.635,249.58,174.783,249.58Zm-2.869,5.093.238-2.988h2.292c1.358,0,2.156.441,2.36,1.256a1.987,1.987,0,0,1,0,.645c-.1,1.172-1.036,1.868-2.716,1.868h-2.275Z" transform="translate(105.095 163.165)" fill="#fff"/>
      <path id="Path_3133" data-name="Path 3133" d="M179.826,251.634h6.333l.289-2.054h-9.219l-1.1,9.949-.085.8h9.117l.272-1.935h-6.452l.1-.8.187-1.7h5.552l.272-1.935h-5.552l.1-.781Z" transform="translate(110.153 163.165)" fill="#fff"/>
      <path id="Path_3134" data-name="Path 3134" d="M186.233,252.771a1.087,1.087,0,0,1,.1-.306c.272-.526,1-.934,2.411-.934a6.587,6.587,0,0,1,3.209.849l1.205-1.935-.357-.2a8.489,8.489,0,0,0-3.718-.781c-3.4,0-5.365,1.579-5.637,3.4h0c-.492,3.548,5.212,2.8,6.129,4.075a.645.645,0,0,1,.1.509c-.1.645-.849,1.121-2.479,1.121a6.622,6.622,0,0,1-3.735-1.1l-.849,1.29-.357.543a8.132,8.132,0,0,0,4.652,1.273c3.4,0,5.263-1.477,5.586-3.243a2.394,2.394,0,0,0,0-.917C192.005,253.62,185.961,254.6,186.233,252.771Z" transform="translate(114.494 163.081)" fill="#fff"/>
      <path id="Path_3135" data-name="Path 3135" d="M200.843,252.357h0c-.2-1.7-1.834-2.767-4.533-2.767h-5.28l-1.817,9.949-.153.8h2.716l.56-2.886h2.411c3.175,0,5.484-1.477,6.01-3.871a4.245,4.245,0,0,0,.085-1.222Zm-7.963,2.275.577-2.971h2.292c1.273,0,2,.391,2.173,1.087h0a1.579,1.579,0,0,1,0,.8c-.238,1.171-1.239,1.851-2.937,1.851h-2.258Z" transform="translate(119.238 163.172)" fill="#fff"/>
      <path id="Path_3136" data-name="Path 3136" d="M204.568,249.463a7.963,7.963,0,0,0-7.946,5.671,4.536,4.536,0,0,0-.119.8h0c-.17,2.733,1.952,4.635,5.348,4.635a8.031,8.031,0,0,0,7.895-5.45,5.331,5.331,0,0,0,.17-1.834h0C209.645,250.991,207.624,249.463,204.568,249.463Zm2.377,5.671a4.72,4.72,0,0,1-4.584,3.4c-2,0-3.243-1.222-2.988-3.056a1.172,1.172,0,0,1,0-.34,4.686,4.686,0,0,1,4.6-3.48,2.7,2.7,0,0,1,3.005,2.224h0A3.14,3.14,0,0,1,206.945,255.133Z" transform="translate(124.426 163.079)" fill="#fff"/>
      <path id="Path_3137" data-name="Path 3137" d="M216.014,249.58l-1.969,6.6-4.092-6.6H207.61l-2.7,9.949-.221.8h2.7l1.8-6.435,4.075,6.435H215.5l3.311-10.747Z" transform="translate(130.145 163.165)" fill="#fff"/>
      <path id="Path_3138" data-name="Path 3138" d="M217.51,252.567c.306-.577,1.121-1.036,2.615-1.036a5.824,5.824,0,0,1,3.073.849l1.528-1.935a3.4,3.4,0,0,0-.424-.238,7.488,7.488,0,0,0-3.4-.747c-3.4,0-5.637,1.579-6.231,3.4a1.154,1.154,0,0,0-.085.39c-.577,3.073,4.6,2.53,5.467,3.633a.56.56,0,0,1,.1.594c-.221.645-1.053,1.121-2.683,1.121a5.824,5.824,0,0,1-3.565-1.1l-1.1,1.341-.407.492a7.267,7.267,0,0,0,4.414,1.239c3.4,0,5.518-1.477,6.129-3.243a2.122,2.122,0,0,0,.119-1.222c-.475-2.428-6.146-1.579-5.586-3.4a.576.576,0,0,1,.034-.136Z" transform="translate(135.524 163.081)" fill="#fff"/>
      <path id="Path_3139" data-name="Path 3139" d="M222.826,249.58l-3.5,9.949-.289.8h2.733l3.888-10.747Z" transform="translate(140.158 163.165)" fill="#fff"/>
      <path id="Path_3140" data-name="Path 3140" d="M235.865,251.186h0c-.221-.985-1.392-1.6-3.616-1.6h-5.976l-3.684,9.949-.289.8h6.095c3.107,0,5.093-1.036,5.874-2.869a2.207,2.207,0,0,0,.17-1.392,1.7,1.7,0,0,0-1.29-1.239,5.507,5.507,0,0,0,.781-.374,4.228,4.228,0,0,0,1.7-2A2.106,2.106,0,0,0,235.865,251.186Zm-8.183,2.088.679-1.7h2.784a2.249,2.249,0,0,1,1.7.492h0a.883.883,0,0,1,0,.781c-.34.849-1.256,1.29-2.615,1.29h-2.767Zm-1.7,4.431.7-1.834h3.226c.9,0,1.477.17,1.7.526h0a.8.8,0,0,1,0,.781c-.356.917-1.273,1.307-2.7,1.307H225.7Z" transform="translate(142.432 163.172)" fill="#fff"/>
      <path id="Path_3141" data-name="Path 3141" d="M234.338,249.58l-4.126,9.949-.323.8h2.733l4.533-10.747Z" transform="translate(147.729 163.165)" fill="#fff"/>
      <path id="Path_3142" data-name="Path 3142" d="M236.749,258.357l.357-.8,3.5-7.979h-2.818l-4.3,9.949-.34.8h8.642l.9-1.969Z" transform="translate(150.003 163.165)" fill="#fff"/>
      <path id="Path_3143" data-name="Path 3143" d="M244.148,249.58l-4.635,9.949-.373.8h2.733l5.093-10.747Z" transform="translate(154.183 163.165)" fill="#fff"/>
      <path id="Path_3144" data-name="Path 3144" d="M245.215,249.58l-.611,1.29-.39.8h3.871l-3.854,7.861-.39.8h2.716l4.346-8.659h3.871l.764-1.494.1-.187.2-.407Z" transform="translate(157.462 163.165)" fill="#fff"/>
      <path id="Path_3145" data-name="Path 3145" d="M260.658,249.58l-5.857,4.873-.662-4.873h-3.005v.594l.866,5.772v.628l-1.545,2.954-.424.8h2.733l1.986-3.718,8.489-7.029Z" transform="translate(161.782 163.165)" fill="#fff"/>
      <path id="Path_3146" data-name="Path 3146" d="M126.793,193.732a27.283,27.283,0,0,1,21.392,9.406L161.9,192.153l.441-7.606-4.482,3.565c-7.606-6.35-18.115-9.762-30.56-9.762-26.791,0-49.235,16.825-52.886,41.511-3.888,26.163,15.161,45.84,44.6,45.84,16.57,0,30.56-5.823,40.067-16.367l.424-8.608h-9.677l-3.82-3.565A32.512,32.512,0,0,1,121.9,247.67c-17.436,0-28.353-11.647-26.332-27.827C97.438,204.292,110.392,193.732,126.793,193.732Z" transform="translate(38.893 113.463)" fill="#b5b5b5"/>
      <path id="Path_3147" data-name="Path 3147" d="M122.113,242.151c-15.772,0-26.163-9.524-26.332-23.242A27.59,27.59,0,0,1,96,214.851c1.918-15.28,14.754-25.687,31-25.687a27.164,27.164,0,0,1,21.273,9.219l9.117-7.216,4.465-3.6a34.838,34.838,0,0,0-9.321-7.555,50.27,50.27,0,0,0-25.076-5.976,58.607,58.607,0,0,0-26.18,5.976c-13.871,6.791-23.854,19.236-26.18,34.8-.2,1.375-.34,2.75-.424,4.092-1.324,23.616,16.978,40.9,44.651,40.9,16.4,0,30.322-5.722,39.66-16.061l-12.937-11.884a32.258,32.258,0,0,1-23.939,10.288Z" transform="translate(39.379 110.442)" fill="#ededed"/>
      <path id="Path_3148" data-name="Path 3148" d="M118.021,254.354c-26.961,0-43.989-17.674-40.628-40.933,3.192-22.071,23.344-37.351,48.064-37.351,11.613,0,21.392,3.107,28.3,9.083a1.053,1.053,0,0,1,0,1.7,1.409,1.409,0,0,1-1.817,0c-6.469-5.6-15.67-8.489-26.689-8.489-23.293,0-42.241,14.431-45.178,35.144C77,235.254,93.013,251.74,118.293,251.74a1.222,1.222,0,0,1,1.256,1.341,1.545,1.545,0,0,1-1.528,1.273Z" transform="translate(41.026 111.872)" fill="#f9f9f9"/>
      <path id="Path_3149" data-name="Path 3149" d="M156.985,202.21c.085-5.093,4.788-9.134,16.791-9.134a54.125,54.125,0,0,1,24.431,6.265L204,185.453,203.708,178l-2.53,6.044a67.435,67.435,0,0,0-27.215-5.416c-24.448,0-36.706,10.951-37.351,24.516-1.29,31.188,51.85,20.136,52.139,36.315.1,5.433-5.093,9.525-17.81,9.525a56.774,56.774,0,0,1-25.84-6.469l.764-.8-4.924-10.356-7.861,15.28-.39,8.727c8.1,6.282,23.158,10.662,38.217,10.662,27.164,0,39.762-13.141,39.049-28.047C208.665,206.862,156.781,217.388,156.985,202.21Z" transform="translate(79.905 113.219)" fill="#b5b5b5"/>
      <path id="Path_3150" data-name="Path 3150" d="M158.272,200.827a5.331,5.331,0,0,1-1.222-3.6c0-3.107,1.919-5.857,6.214-7.47a28.422,28.422,0,0,1,9.117-1.494h1.307a49.236,49.236,0,0,1,11.884,1.511,59.065,59.065,0,0,1,12.377,4.652l1.952-4.652,1.239-2.954,2.53-6.044-1.392-.73a65.7,65.7,0,0,0-28.455-5.993h-1.409c-10.407.187-18.506,2.394-24.312,5.959a23.667,23.667,0,0,0-8.811,9.083c0,.153-.17.306-.238.458a21.273,21.273,0,0,0-2.173,8.574,22.968,22.968,0,0,0,.17,3.956c3.277,25.721,51.222,16.536,51.493,31.68a6.91,6.91,0,0,1-1.375,4.38c-2.241,3.022-7.4,4.974-16.265,4.974a55.008,55.008,0,0,1-30.169-9.1L132.89,249.3c8.014,6.18,22.92,10.475,37.843,10.475,24.3,0,36.842-10.526,38.573-23.361a22.545,22.545,0,0,0,.2-4.16C208.322,204.681,166.064,210.538,158.272,200.827Z" transform="translate(80.045 110.459)" fill="#ededed"/>
      <path id="Path_3151" data-name="Path 3151" d="M167.627,248.339a64.21,64.21,0,0,1-28.675-7.029,1.222,1.222,0,0,1-.492-1.7,1.426,1.426,0,0,1,1.868-.543,61.255,61.255,0,0,0,27.3,6.672c19.9,0,21.833-9.338,21.732-13.294-.2-9.677-11.307-12.071-22.971-14.584-17.266-3.735-29.355-7.436-28.862-21.069.475-12.9,13.141-20.713,33.039-20.713a63.888,63.888,0,0,1,23.956,4.346,1.12,1.12,0,0,1,.662,1.511,1.324,1.324,0,0,1-1.7.56,60.83,60.83,0,0,0-22.92-4.16c-18.387,0-30.034,6.978-30.424,18.455-.407,11.884,9.83,14.974,26.842,18.676,11.579,2.5,24.787,5.348,25.093,16.978C192.211,237.066,190.072,248.339,167.627,248.339Z" transform="translate(83.269 111.877)" fill="#f9f9f9"/>
      <path id="Path_3152" data-name="Path 3152" d="M273.707,254.717h-6.35l-17.249-20.051a30.568,30.568,0,0,0,4.261-2.224c8.37-5.212,12.292-13.7,10.7-24.5a32.378,32.378,0,0,0-.832-3.939,29.491,29.491,0,0,0-6.995-12.614,33.326,33.326,0,0,0-8.251-6.4,52.631,52.631,0,0,0-25.636-5.84H186l4.38,75.568.509,8.9h21.952l-.73-8.9-1.341-16.3h19.643l20.9,25.195H274.9ZM226.7,222.459h-17.08l-.662-8.132-1.7-20.492h16.536c10.458,0,16.978,3.667,19.423,10.187a15.536,15.536,0,0,1,.968,3.888c1.12,9.049-4.669,14.584-17.436,14.584Z" transform="translate(117.103 114.006)" fill="#b5b5b5"/>
      <path id="Path_3153" data-name="Path 3153" d="M254.488,235.46l-5.314-6.129c9.949-4.21,15.4-12,15.178-22.309a31.567,31.567,0,0,0-.323-3.922c-1.579-10.764-8.047-18.879-18-23.6a54.075,54.075,0,0,0-23.243-4.686H185.83l.289,3.718v1.053l.153,2.665,4.38,75.568h21.731l-1.324-16.3h0l-.679-8.489h19.457l20.662,24.72h23.361Zm-47.1-38.573-.628-7.606h16.383c12.292,0,19.117,5.093,20.2,13.82a15.536,15.536,0,0,1,0,3.973c-.917,6.468-6.672,10.306-17.351,10.306H209.022Z" transform="translate(116.985 110.988)" fill="#ededed"/>
      <path id="Path_3154" data-name="Path 3154" d="M194.284,252.284a1.46,1.46,0,0,1-1.477-1.341l-4.567-73a1.121,1.121,0,0,1,1.205-1.138h32c20.934,0,34.719,9.151,36.961,24.906,1.511,10.577-2.937,18.506-12.954,22.733a1.528,1.528,0,0,1-1.851-.662,1.121,1.121,0,0,1,.509-1.7c9-3.8,13-10.9,11.681-20.373-2-14.312-14.737-22.631-34.108-22.631H190.872l4.7,71.867a1.256,1.256,0,0,1-1.29,1.341Z" transform="translate(118.666 112.38)" fill="#f9f9f9"/>
      <path id="Path_3155" data-name="Path 3155" d="M512.32,397.4c0,95.568-113,173.054-252.425,173.054S7.47,492.912,7.47,397.4A121.527,121.527,0,0,1,12.9,361.5c8.489-41.85,38.947-78.845,83.191-105.262a18.082,18.082,0,0,1-.8-5.365,18.557,18.557,0,0,1,7.878-15.161,10.628,10.628,0,0,1-.221-2.224,10.917,10.917,0,0,1,10.917-10.917h1.715a10.917,10.917,0,0,1,10.441,7.674V161.014l8.744-9.491h1.885V84.6l6.587-6.791h28.981q-1.375-5.348-2.632-11.307l-.153-.73c37.351,7.742,57.334,19.558,67.622,31.477a15.569,15.569,0,0,1,16.519.815V94.869l-4.941-11.884c-9.066.17-42.784-3.8-31.952-74.5a1.405,1.405,0,0,1,.085-.577c61,38.505,41.714,66.655,35.653,73.378l3.82,7.555h6.672l5.008-10.187c-6.01-6.553-25.093-34.108,34.6-72.155a1.291,1.291,0,0,0,.085.56c10.951,69.286-22.071,73.378-31,73.242l-4.635,11.324v6.01a15.365,15.365,0,0,1,8.166-2.309h.458c6.469-15.28,25.467-32.563,74.7-42.75l-.153.713a227.837,227.837,0,0,1-6.485,24.567H376.5l6.587,6.791v66.875h1.885l8.794,9.491v47.894a13.854,13.854,0,0,1,10.356-4.635h2.173A13.9,13.9,0,0,1,419.876,221a23.616,23.616,0,0,1,5.942,32.563,18.851,18.851,0,0,1-.781,3.4c43.531,26.383,73.5,63.055,81.85,104.464A121.525,121.525,0,0,1,512.32,397.4Z" transform="translate(-7.47 -6.449)" fill="#15ace5" style="mix-blend-mode: hue;isolation: isolate"/>
    </g>
  </g>
</svg>
