<svg xmlns="http://www.w3.org/2000/svg" width="141.69" height="274" viewBox="0 0 141.69 274">
  <g id="freepik--Plant--inject-28" transform="translate(-52.336 -251.099)">
    <path id="Path_842" data-name="Path 842" d="M126.344,392.335a106.1,106.1,0,0,0-3.429,19.454c.174.332.142,1.58,0,1.2,0,1.059-1.58.869-1.58-.174v-2.054c-3.793-4.741-9.308-7.7-13.781-11.805a25.728,25.728,0,0,1-7.538-12.011c-3.7-12.753-.237-26.249-4.741-38.971-3.824-10.968-10.7-20.544-16.53-30.422C72.6,307.044,68.077,296.013,67.682,283.7c-.363-9.482.759-21.967,7.9-29.031,7.6-7.491,17.036-1.881,22.867,4.741,16.878,19.375,24.685,43.87,27.846,68.9,1.738,13.86,3.556,27.8,3.161,41.784a112.583,112.583,0,0,1-3.113,22.235Z" transform="translate(8.871)" fill="#15ace5"/>
    <path id="Path_843" data-name="Path 843" d="M116.529,404.4a237.623,237.623,0,0,0-.458-39.256s0-.079,0-.142c.205-10.62,1.059-21.192.632-31.812a188.157,188.157,0,0,0-4.741-34.119c0-.126-.237-.095-.205,0a223.043,223.043,0,0,1,3.682,33.361c.221,6.005.174,11.995-.142,18-.095,1.944-.284,3.9-.411,5.863h0a210.042,210.042,0,0,0-31.607-83.552c-.221-.348-.838,0-.616.379a218.592,218.592,0,0,1,25.7,61.949c-8.123-15.045-20.386-27.4-29.473-41.863,0,0-.19,0-.142.079,8.313,16.119,21.856,28.81,30.437,44.739q2.244,9.7,3.635,19.549a220.019,220.019,0,0,1,1.96,27.15c-4.946-9.245-10.083-18.079-14.128-27.861-.111-.269-.49-.079-.4.174,3.445,10.162,8.076,21.1,14.539,29.758,0,6.432-.142,12.864-.522,19.28-1.011,17.147-3.951,34.056-5.294,51.14a.4.4,0,0,0,.774.079,390.522,390.522,0,0,0,6.78-52.894Z" transform="translate(15.32 12.477)" fill="#263238"/>
    <path id="Path_844" data-name="Path 844" d="M91.2,272.367c0-.111-.221,0-.19.095,3.161,8.66,4.9,17.384,7.175,26.3a.358.358,0,1,0,.711-.079C97.9,289.656,94.693,280.68,91.2,272.367Z" transform="translate(22.443 12.315)" fill="#263238"/>
    <path id="Path_845" data-name="Path 845" d="M164.163,298.909a127.831,127.831,0,0,1-7.206,14.792c-5.626,10.241-11.5,19.628-12.643,31.607-.474,5.326-.648,10.667-2.26,15.8a47.3,47.3,0,0,1-6.321,12.358c-6.1,8.913-13.749,16.578-19.407,25.807a108.585,108.585,0,0,0-12.9,31.1c-.142.6-1.075.443-.948-.158a.379.379,0,0,0,0-.142.142.142,0,0,1,0-.126c-.9-25.554,1.138-51.314,8.945-75.856a263.046,263.046,0,0,1,12.39-31.607c4.172-8.881,9.371-17.384,16.7-24.053,4.741-4.283,15.076-12.406,21.856-8.107C165.68,292.461,165.443,295.732,164.163,298.909Z" transform="translate(28.987 22.058)" fill="#15ace5"/>
    <path id="Path_846" data-name="Path 846" d="M140.843,348.816a211.857,211.857,0,0,1-14.855,21.35c-2.481,3.24-4.994,6.432-7.459,9.672-1.169,1.58-2.481,3.05-3.556,4.741.68-2.687,1.343-5.373,2.023-8.06,3.3-12.911,6.464-25.949,11.378-38.371a259.069,259.069,0,0,1,17.747-34.767c.174-.3-.3-.506-.474-.221-5.4,8.882-10.889,17.747-15.424,27.119a138.859,138.859,0,0,0-6.543,16.088,249.7,249.7,0,0,1,8.708-34.388c0-.095-.111-.174-.158,0a117.657,117.657,0,0,0-9.071,35.605h0c-1.106,3.319-2.118,6.669-3.066,10.051-4.03,14.3-7.57,28.746-10.841,43.254a153.292,153.292,0,0,1,2.465-28.446.174.174,0,0,0-.332,0,89.826,89.826,0,0,0-2.481,30.026q-1.849,8.281-3.619,16.546c-2.513,11.789-5.594,23.784-7.064,35.747a.24.24,0,1,0,.474.079c1.754-6.448,2.813-13.133,4.235-19.659s2.924-13.1,4.457-19.628c2.212-9.482,4.536-18.964,6.906-28.446,1.58-3.477,4.646-6.558,6.938-9.482,2.513-3.161,5.041-6.321,7.491-9.64a145.279,145.279,0,0,0,12.3-18.964C141.143,348.816,140.922,348.642,140.843,348.816Z" transform="translate(26.627 30.134)" fill="#263238"/>
    <path id="Path_847" data-name="Path 847" d="M131.219,325.073a132.986,132.986,0,0,0-14.539,23.1c0,.095.111.205.174.111,4.883-7.665,9.7-15.392,14.587-23.073C131.519,325.089,131.3,324.978,131.219,325.073Z" transform="translate(37.341 42.909)" fill="#263238"/>
    <path id="Path_848" data-name="Path 848" d="M59.707,321.2c3.319,5.705,7.1,12.548,5.673,19.407-.9,4.33-4.077,7.9-4.646,12.279-1.28,9.766,8.455,16.214,15.487,20.829,17.558,11.521,41.626,21.777,44.818,45.292.111.838,1.58.632,1.454-.19a.7.7,0,0,0,0-.158v-.126a89.842,89.842,0,0,0-.332-35.921c-2.608-12.121-7.9-23.01-14.144-33.661-10.557-18.016-21.745-36.474-37.723-50.286-4.267-3.777-13.4-10.683-16.91-2.054C49.956,304.99,55.693,314.251,59.707,321.2Z" transform="translate(0 24.005)" fill="#15ace5"/>
    <path id="Path_849" data-name="Path 849" d="M67.255,343.97c11.631,12.643,30.137,19.659,40.156,33.772a141.535,141.535,0,0,0-30.864-57.967.458.458,0,0,1,.648-.632,114.258,114.258,0,0,1,25.285,36.522,164.055,164.055,0,0,0-10.857-27.782.3.3,0,0,1,.521-.3A105.882,105.882,0,0,1,103.84,358.81c13.2,31.954,14.428,69.424,11.663,103.1,0,.474-.774.49-.759,0,.759-26.534.332-53.542-6.037-79.459-.126-.553-.284-1.075-.411-1.58-10.9-15.2-29.315-22.235-41.089-36.664C66.955,344.034,67.129,343.844,67.255,343.97Z" transform="translate(8.555 39.436)" fill="#263238"/>
    <path id="Path_850" data-name="Path 850" d="M65.626,328.035c6.116,5.594,12.121,11.331,18.237,16.941v.111A89.065,89.065,0,0,1,65.341,328.4C65.057,328.114,65.373,327.767,65.626,328.035Z" transform="translate(7.482 44.593)" fill="#263238"/>
    <path id="Path_851" data-name="Path 851" d="M65,312.642a190.1,190.1,0,0,0,18.284,25.143c0,.111,0,.253-.158.158a88.247,88.247,0,0,1-18.458-25.112C64.572,312.627,64.872,312.437,65,312.642Z" transform="translate(7.145 35.664)" fill="#263238"/>
    <path id="Path_852" data-name="Path 852" d="M82.27,450.914h53.51l-7.206-71.984H90.519Z" transform="translate(17.372 74.185)" fill="#455a64"/>
    <path id="Path_853" data-name="Path 853" d="M86.64,390.624h40.567l-1.169-11.694H87.983Z" transform="translate(19.908 74.185)" fill="#263238"/>
    <rect id="Rectangle_288" data-name="Rectangle 288" width="50.16" height="11.489" transform="translate(151.493 456.623) rotate(180)" fill="#455a64"/>
  </g>
</svg>
