<svg xmlns="http://www.w3.org/2000/svg" xmlns:xlink="http://www.w3.org/1999/xlink" width="181" height="181" viewBox="0 0 181 181">
  <defs>
    <clipPath id="clip-path">
      <rect id="Rectangle_79" data-name="Rectangle 79" width="181" height="181" transform="translate(-0.4 -0.4)" fill="#bdc3c7"/>
    </clipPath>
  </defs>
  <g id="search_icon" transform="translate(0.4 0.399)">
    <g id="Group_46" data-name="Group 46" clip-path="url(#clip-path)">
      <path id="Path_102" data-name="Path 102" d="M49.548,8.258h5.841V14.1H49.548Z" transform="translate(20.542 3.424)" fill="#bdc3c7"/>
      <path id="Path_103" data-name="Path 103" d="M67.67,19.4l4.13-4.131L75.931,19.4,71.8,23.526Z" transform="translate(28.055 6.329)" fill="#bdc3c7"/>
      <path id="Path_104" data-name="Path 104" d="M29.716,19.394l4.131-4.13,4.13,4.13-4.13,4.13Z" transform="translate(12.32 6.328)" fill="#bdc3c7"/>
      <path id="Path_105" data-name="Path 105" d="M163.544,140.181a5.847,5.847,0,0,0,5.841-5.841V99.295h-5.841V134.34H146.022v-6.892a8.779,8.779,0,0,0-7.042-8.589l-7.561-1.513v-6.46a14.466,14.466,0,0,0,2.92-8.671h11.682V83.641a8.779,8.779,0,0,0-7.042-8.589l-7.561-1.513V67.08a14.467,14.467,0,0,0,2.92-8.672V52.568a14.619,14.619,0,0,0-14.6-14.6,14.425,14.425,0,0,0-5.144.984,43.6,43.6,0,0,0-1.579-4.147l7.248-9.322L100.1,5.315l-9.319,7.248c-.68-.3-1.363-.589-2.045-.853L87.271,0H58.751L57.288,11.71c-.682.264-1.365.55-2.045.853L45.924,5.315,25.755,25.481,33,34.8a43.736,43.736,0,0,0-1.58,4.147,14.384,14.384,0,0,0-5.139-.984,14.619,14.619,0,0,0-14.6,14.6v5.841A14.46,14.46,0,0,0,14.6,67.08v6.46L7.044,75.053A8.778,8.778,0,0,0,0,83.641v18.574H11.682a14.455,14.455,0,0,0,3,8.761H14.6v6.37l-7.558,1.513A8.778,8.778,0,0,0,0,127.448v53.619H5.841V140.181ZM45.526,118.856l-7.561-1.51v-6.37H37.89a14.455,14.455,0,0,0,3-8.761H58.409a14.461,14.461,0,0,0,2.92,8.671v6.46l-7.558,1.513a8.67,8.67,0,0,0-4.124,2.079A8.678,8.678,0,0,0,45.526,118.856ZM35.045,102.215a8.761,8.761,0,0,1-17.523,0V96.374a8.761,8.761,0,0,1,17.523,0Zm29.2-43.807V52.568a8.761,8.761,0,1,1,17.522,0v5.841a8.761,8.761,0,1,1-17.522,0ZM84.693,72.743V67.08a14.468,14.468,0,0,0,2.92-8.672V52.568a14.6,14.6,0,0,0-29.2,0v5.841a14.461,14.461,0,0,0,2.92,8.672v5.663a23.363,23.363,0,1,1,23.364,0ZM67.17,78.323v-6.55a14.4,14.4,0,0,0,11.682,0v6.55l12.256,2.454a2.926,2.926,0,0,1,2.346,2.865V96.374H87.613a14.6,14.6,0,0,0-29.2,0H52.568V83.641a2.92,2.92,0,0,1,2.349-2.862ZM128.5,102.215a8.761,8.761,0,0,1-17.523,0V96.374a8.761,8.761,0,0,1,17.523,0Zm-20.443,8.671v6.46l-7.558,1.513a8.671,8.671,0,0,0-4.124,2.079,8.69,8.69,0,0,0-4.121-2.082l-7.561-1.51v-6.46a14.467,14.467,0,0,0,2.92-8.671h17.523A14.46,14.46,0,0,0,108.056,110.886ZM64.25,102.215V96.374a8.761,8.761,0,0,1,17.522,0v5.841a8.761,8.761,0,0,1-17.522,0Zm-9.333,22.368,12.254-2.454v-6.55a14.4,14.4,0,0,0,11.682,0v6.55l12.256,2.454a2.926,2.926,0,0,1,2.346,2.865v6.892H52.568v-6.892A2.925,2.925,0,0,1,54.916,124.583Zm82.918,0a2.926,2.926,0,0,1,2.346,2.865v6.892H99.295v-6.892a2.92,2.92,0,0,1,2.349-2.862l12.254-2.457v-6.55a14.4,14.4,0,0,0,11.682,0v6.55Zm0-43.807a2.926,2.926,0,0,1,2.346,2.865V96.374H134.34a14.6,14.6,0,1,0-29.2,0H99.295V83.641a2.92,2.92,0,0,1,2.349-2.862L113.9,78.323v-6.55a14.4,14.4,0,0,0,11.682,0v6.55ZM128.5,52.568v5.841a8.761,8.761,0,1,1-17.523,0V52.568a8.761,8.761,0,1,1,17.523,0Zm-94.97-26.6L46.406,13.089,54.518,19.4l1.641-.816a37.852,37.852,0,0,1,4.729-1.968l1.74-.583L63.907,5.841H82.114L83.391,16.03l1.74.585a37.824,37.824,0,0,1,4.729,1.968L91.5,19.4l8.112-6.311,12.877,12.877-6.311,8.112.816,1.644a37.611,37.611,0,0,1,2.426,6.518,14.6,14.6,0,0,0-4.284,10.33v5.841a14.46,14.46,0,0,0,2.92,8.672v6.46L100.5,75.053a8.671,8.671,0,0,0-4.124,2.079,8.69,8.69,0,0,0-4.121-2.082l-.543-.108a29.2,29.2,0,1,0-37.4,0l-.541.108a8.7,8.7,0,0,0-4.124,2.082,8.691,8.691,0,0,0-4.121-2.082l-7.561-1.51V67.08a14.467,14.467,0,0,0,2.92-8.672V52.568A14.563,14.563,0,0,0,36.6,42.244a37.615,37.615,0,0,1,2.426-6.518l.816-1.644Zm-16.007,26.6a8.761,8.761,0,1,1,17.523,0v5.841a8.761,8.761,0,1,1-17.523,0ZM5.841,96.374V83.641a2.92,2.92,0,0,1,2.349-2.862l12.254-2.457v-6.55a14.4,14.4,0,0,0,11.682,0v6.55l12.256,2.454a2.926,2.926,0,0,1,2.346,2.865V96.374H40.886a14.6,14.6,0,1,0-29.2,0Zm2.349,28.209,12.254-2.454v-6.55a14.4,14.4,0,0,0,11.682,0v6.55l12.256,2.454a2.926,2.926,0,0,1,2.346,2.865v6.892H5.841v-6.892A2.925,2.925,0,0,1,8.189,124.583Z" fill="#bdc3c7"/>
      <path id="Path_106" data-name="Path 106" d="M115.613,61.936h5.841v5.841h-5.841Z" transform="translate(47.931 25.677)" fill="#bdc3c7"/>
      <path id="Path_107" data-name="Path 107" d="M115.613,53.677h5.841v5.841h-5.841Z" transform="translate(47.931 22.254)" fill="#bdc3c7"/>
      <path id="Path_108" data-name="Path 108" d="M115.613,45.419h5.841V51.26h-5.841Z" transform="translate(47.931 18.83)" fill="#bdc3c7"/>
      <path id="Path_109" data-name="Path 109" d="M163.04,13.7H145.518V2.182l-28.39,20.276,28.39,20.276V31.22h14.6V57.5h5.841V31.22a5.847,5.847,0,0,0-5.841-5.841H139.677v6.008l-12.5-8.928,12.5-8.928v6.008H163.04A8.773,8.773,0,0,1,171.8,28.3V136.355a8.773,8.773,0,0,1-8.762,8.762H8.258V168.48H14.1V150.958H163.04a14.619,14.619,0,0,0,14.6-14.6V28.3A14.619,14.619,0,0,0,163.04,13.7Z" transform="translate(3.424 0.905)" fill="#bdc3c7"/>
      <path id="Path_110" data-name="Path 110" d="M8.258,123.871H14.1v5.841H8.258Z" transform="translate(3.424 51.355)" fill="#bdc3c7"/>
      <path id="Path_111" data-name="Path 111" d="M80.516,111.484h5.841v5.841H80.516Z" transform="translate(33.381 46.219)" fill="#bdc3c7"/>
      <path id="Path_112" data-name="Path 112" d="M16.516,111.484h84.693v5.841H16.516Z" transform="translate(6.847 46.219)" fill="#bdc3c7"/>
      <path id="Path_113" data-name="Path 113" d="M88.774,111.484h5.841v5.841H88.774Z" transform="translate(36.804 46.219)" fill="#bdc3c7"/>
      <path id="Path_114" data-name="Path 114" d="M97.032,111.484h5.84v5.841h-5.84Z" transform="translate(40.228 46.219)" fill="#bdc3c7"/>
      <path id="Path_115" data-name="Path 115" d="M16.516,119.742H136.253v5.841H16.516Z" transform="translate(6.847 49.643)" fill="#bdc3c7"/>
    </g>
  </g>
</svg>
