<svg id="Social_strategy-cuate" data-name="Social strategy-cuate" xmlns="http://www.w3.org/2000/svg" width="622.949" height="564" viewBox="0 0 622.949 564">
  <g id="freepik--background-complete--inject-18" transform="translate(52.231 161.456)">
    <path id="Path_1475" data-name="Path 1475" d="M286.32,291.39l3.351,20.12,22.736,122.757h3.662L299.54,311.51l-2.446-20.12Z" transform="translate(-108.179 -109.715)" fill="#dbdbdb"/>
    <path id="Path_1476" data-name="Path 1476" d="M308.784,291.39H298.01l3.351,20.12h9.869Z" transform="translate(-119.869 -109.715)" fill="#a6a6a6"/>
    <path id="Path_1477" data-name="Path 1477" d="M336.8,434.267h3.662L363.184,311.51l3.365-20.12H355.761l-2.432,20.12Z" transform="translate(-230.034 -109.715)" fill="#dbdbdb"/>
    <path id="Path_1478" data-name="Path 1478" d="M339.232,291.39,336.8,311.51h9.855l3.365-20.12Z" transform="translate(-213.505 -109.715)" fill="#a6a6a6"/>
    <path id="Path_1479" data-name="Path 1479" d="M385.02,434.267h3.662L411.4,311.51l3.365-20.12H403.981l-2.432,20.12Z" transform="translate(-346.434 -109.715)" fill="#dbdbdb"/>
    <path id="Path_1480" data-name="Path 1480" d="M385.02,311.51h9.855l3.365-20.12H387.452Z" transform="translate(-329.905 -109.715)" fill="#a6a6a6"/>
    <path id="Path_1481" data-name="Path 1481" d="M284.15,338.9H450.711V321.353H388.356L367.4,199.43H290.5Z" transform="translate(-239.753 -147.779)" fill="#dbdbdb"/>
    <path id="Path_1482" data-name="Path 1482" d="M391.35,338.9h9.077l5.91-139.469H397.7Z" transform="translate(-346.953 -147.779)" fill="#a6a6a6"/>
    <path id="Path_1483" data-name="Path 1483" d="M339.68,230.731l-14.889,9.233-2.828-4.553a4.143,4.143,0,0,0-3.917-1.937c-.863.071-1.739.1-2.616.085a4.143,4.143,0,0,0-3.775,2.177l-2.545,4.722-15.44-8.286,2.531-4.723a4.143,4.143,0,0,0-.283-4.355,24.27,24.27,0,0,1-1.414-2.234,4.242,4.242,0,0,0-3.789-2.192l-5.359.17-.537-17.519,5.373-.156a4.242,4.242,0,0,0,3.634-2.446c.184-.382.368-.764.58-1.145s.41-.764.636-1.117a4.157,4.157,0,0,0,0-4.355l-2.828-4.6,14.889-9.233,2.828,4.567a4.129,4.129,0,0,0,3.917,1.923c.863-.071,1.739-.1,2.6-.085a4.242,4.242,0,0,0,3.789-2.163l2.658-4.737,15.44,8.286-2.531,4.722a4.143,4.143,0,0,0,.283,4.355c.495.721.947,1.414,1.414,2.22a4.157,4.157,0,0,0,3.775,2.206l5.373-.17.537,17.5-5.373.17a4.157,4.157,0,0,0-3.606,2.446c-.184.382-.382.764-.594,1.159s-.41.749-.636,1.117a4.157,4.157,0,0,0,0,4.369ZM328.553,215.9a14.323,14.323,0,1,0-8.492,6.976A14.351,14.351,0,0,0,328.553,215.9Z" transform="translate(-137.178 -156.741)" fill="#ebebeb"/>
    <path id="Path_1484" data-name="Path 1484" d="M427.3,190l-6.136,10.633-3.252-1.881a2.9,2.9,0,0,0-3.054.113c-.523.325-1.046.636-1.6.919a2.913,2.913,0,0,0-1.612,2.587v3.761H399.372v-3.761a2.828,2.828,0,0,0-1.626-2.587c-.537-.283-1.075-.594-1.584-.919a2.9,2.9,0,0,0-3.054-.113l-3.266,1.881L383.72,190l3.266-1.881a2.927,2.927,0,0,0,1.414-2.7v-1.81a2.9,2.9,0,0,0-1.414-2.7l-3.266-1.895,6.122-10.633,3.266,1.881a2.828,2.828,0,0,0,3.068-.1,15.924,15.924,0,0,1,1.584-.919,2.913,2.913,0,0,0,1.612-2.587V162.9h12.273v3.761a2.913,2.913,0,0,0,1.612,2.587,17.721,17.721,0,0,1,1.584.919,2.828,2.828,0,0,0,3.054.1l3.266-1.88,6.136,10.633-3.266,1.895a2.913,2.913,0,0,0-1.414,2.7v1.81a2.927,2.927,0,0,0,1.414,2.7Zm-11.736-5.486a4.167,4.167,0,1,0,.028,0Z" transform="translate(-357.124 -162.9)" fill="#ebebeb"/>
    <path id="Path_1485" data-name="Path 1485" d="M103.966,268.459l-6.136,10.576-3.252-1.866a2.828,2.828,0,0,0-3.068.1c-.509.325-1.032.636-1.584.919a2.828,2.828,0,0,0-1.612,2.587v3.761H76.026v-3.761a2.828,2.828,0,0,0-1.612-2.587c-.551-.283-1.075-.594-1.584-.919a2.828,2.828,0,0,0-3.068-.1l-3.252,1.866-6.136-10.619,3.266-1.895a2.9,2.9,0,0,0,1.414-2.7v-1.81a2.913,2.913,0,0,0-1.414-2.7l-3.28-1.895L66.5,246.8l3.266,1.881a2.9,2.9,0,0,0,3.054-.113,17.73,17.73,0,0,1,1.584-.919,2.828,2.828,0,0,0,1.626-2.545V241.34H88.313V245.1a2.828,2.828,0,0,0,1.612,2.587,17.719,17.719,0,0,1,1.584.919,2.9,2.9,0,0,0,3.054.113l3.266-1.88,6.136,10.619-3.266,1.895a2.9,2.9,0,0,0-1.414,2.7v1.81a2.941,2.941,0,0,0,1.414,2.715Zm-11.736-5.5a10.067,10.067,0,1,0-10.053,10.053A10.067,10.067,0,0,0,92.23,262.959Z" transform="translate(423.416 -130.432)" fill="#ebebeb"/>
    <path id="Path_1486" data-name="Path 1486" d="M174.72,250.01,205.388,451.3h6.052L192.507,250.01Z" transform="translate(154.245 -126.843)" fill="#ebebeb"/>
    <path id="Path_1487" data-name="Path 1487" d="M186.83,250.01l2.927,19.229h16.656L204.6,250.01Z" transform="translate(142.149 -126.843)" fill="#a6a6a6"/>
    <path id="Path_1488" data-name="Path 1488" d="M436.03,250.01,405.362,451.3H399.31L418.243,250.01Z" transform="translate(-387.9 -126.843)" fill="#ebebeb"/>
    <path id="Path_1489" data-name="Path 1489" d="M418.9,250.01l-2.927,19.229H399.32l1.81-19.229Z" transform="translate(-370.787 -126.843)" fill="#a6a6a6"/>
    <rect id="Rectangle_355" data-name="Rectangle 355" width="377.081" height="17.094" transform="translate(0 101.887)" fill="#ebebeb"/>
    <rect id="Rectangle_356" data-name="Rectangle 356" width="365.628" height="4.185" transform="translate(5.741 118.982)" fill="#c7c7c7"/>
  </g>
  <g id="freepik--Shadow--inject-18" transform="translate(24.447 498.762)">
    <ellipse id="Ellipse_123" data-name="Ellipse 123" cx="287.027" cy="32.619" rx="287.027" ry="32.619" fill="#ebebeb"/>
  </g>
  <g id="freepik--Floor--inject-18" transform="translate(0 485.358)">
    <path id="Path_1490" data-name="Path 1490" d="M652.659,392.687l-77.865-.339-77.865-.127-155.744-.24-155.744.24-77.865.113-77.865.353,77.865.339,77.865.127,155.744.24,155.744-.24,77.865-.127Z" transform="translate(-29.71 -391.98)" fill="#263238"/>
  </g>
  <g id="freepik--Bullseye--inject-18" transform="translate(340.007 0)">
    <ellipse id="Ellipse_124" data-name="Ellipse 124" cx="54.931" cy="54.931" rx="54.931" ry="54.931" transform="translate(32.817 32.817)" fill="#15ace5"/>
    <ellipse id="Ellipse_125" data-name="Ellipse 125" cx="41.923" cy="41.923" rx="41.923" ry="41.923" transform="translate(45.825 45.825)" fill="#fff"/>
    <ellipse id="Ellipse_126" data-name="Ellipse 126" cx="29.961" cy="29.961" rx="29.961" ry="29.961" transform="translate(65.528 123.859) rotate(-103.41)" fill="#15ace5"/>
    <ellipse id="Ellipse_127" data-name="Ellipse 127" cx="16.571" cy="16.571" rx="16.571" ry="16.571" transform="matrix(-0.224, -0.975, 0.975, -0.224, 75.295, 107.612)" fill="#fff"/>
    <path id="Path_1491" data-name="Path 1491" d="M162.46,112.964a7.48,7.48,0,1,0,2.191-5.3A7.494,7.494,0,0,0,162.46,112.964Z" transform="translate(-82.205 -25.216)" fill="#15ace5"/>
    <rect id="Rectangle_357" data-name="Rectangle 357" width="100.389" height="2.404" transform="translate(82.008 83.712) rotate(-135)" fill="#455a64"/>
    <path id="Path_1492" data-name="Path 1492" d="M167.76,111l9.275,2.488-2.489-9.289Z" transform="translate(-89.287 -25.741)" fill="#263238"/>
    <path id="Path_1493" data-name="Path 1493" d="M213.02,55.963l13.305,13.305,10.449,3.181-3.2-10.435L220.273,48.71l3.181,10.435Z" transform="translate(-213.02 -48.71)" fill="#263238"/>
  </g>
  <g id="freepik--paper-plane--inject-18" transform="translate(107.939 150.328)">
    <path id="Path_1494" data-name="Path 1494" d="M107.11,287.7c0-.961.1-1.923.1-2.828h-1.06a27.538,27.538,0,0,1-.1,2.828Z" transform="translate(299.861 -101.286)" fill="#263238"/>
    <path id="Path_1495" data-name="Path 1495" d="M340.3,415.11h.184v-1.06h-.2c-1.782,0-3.62,0-5.444-.141v1.06C336.638,415.026,338.49,415.11,340.3,415.11Zm7.3-.24c1.88-.113,3.789-.283,5.656-.481l-.113-1.06c-1.852.212-3.747.368-5.656.495Zm-19.894-.438.113-1.06c-1.852-.2-3.733-.452-5.585-.735l-.155,1.046c1.866.255,3.761.495,5.627.707Zm32.52-1.046c1.852-.325,3.719-.693,5.656-1.117l-.24-1.032c-1.838.41-3.69.778-5.528,1.1Zm-45.246-1,.226-1.032c-1.824-.4-3.676-.848-5.486-1.315l-.269,1.018c1.923.438,3.789.891,5.627,1.23Zm57.688-1.866c1.81-.523,3.634-1.089,5.429-1.7l-.339-1c-1.782.608-3.591,1.174-5.387,1.683ZM302.633,409.1l.325-1c-1.753-.58-3.549-1.2-5.331-1.866l-.368.99c1.895.58,3.7,1.2,5.472,1.782Zm82.121-2.715c1.753-.707,3.507-1.414,5.217-2.248l-.438-.976c-1.7.792-3.45,1.541-5.175,2.248Zm-94.083-1.824.424-.976c-1.725-.735-3.436-1.541-5.09-2.39l-.481.947c1.782.749,3.507,1.569,5.246,2.319Zm105.677-3.591c1.683-.9,3.351-1.838,4.949-2.828l-.537-.9c-1.6.947-3.252,1.881-4.921,2.828Zm-117.031-2.262.551-.9c-1.6-.961-3.2-1.994-4.751-3.054l-.594.877c1.668.976,3.28,2.008,4.892,2.983Zm127.989-4.341c1.584-1.06,3.139-2.163,4.652-3.28l-.636-.848c-1.414,1.1-3.04,2.206-4.609,3.252Zm-138.565-2.955.65-.82c-1.414-1.159-2.913-2.375-4.312-3.62l-.707.806c1.584,1.145,3.054,2.375,4.539,3.535Zm148.717-4.737c1.414-1.23,2.828-2.489,4.242-3.761l-.721-.778c-1.414,1.258-2.828,2.517-4.242,3.719Zm-158.275-3.747.749-.749c-1.3-1.3-2.616-2.658-3.9-4.058l-.778.707c1.471,1.315,2.786,2.7,4.1,4Zm167.791-5.118c1.3-1.414,2.588-2.828,3.818-4.242l-.806-.693c-1.216,1.414-2.489,2.828-3.775,4.242Zm-176.232-4.426.806-.679c-1.188-1.414-2.375-2.9-3.521-4.4l-.834.65C248.352,370.459,249.539,371.957,250.741,373.385Zm184.5-5.345c1.131-1.527,2.234-3.1,3.266-4.666l-.891-.58c-1.018,1.541-2.107,3.1-3.238,4.609Zm-192.294-4.779.877-.622c-1.089-1.527-2.163-3.068-3.21-4.638l-.891.58C240.759,360.165,241.862,361.721,242.951,363.262Zm199.208-5.995c.933-1.7,1.782-3.422,2.545-5.1l-.961-.438c-.764,1.668-1.6,3.365-2.5,5.034Zm-206.292-4.638.9-.566c-1-1.584-1.979-3.2-2.955-4.822l-.9.551C233.887,349.42,234.863,351.031,235.867,352.629Zm211.425-7.07c.608-1.852,1.117-3.7,1.513-5.5l-1.032-.226c-.4,1.767-.891,3.577-1.414,5.4ZM229.32,341.728l.933-.523c-.933-1.64-1.852-3.28-2.828-4.935l-.933.509c.976,1.612,1.909,3.252,2.828,4.892Zm-6.136-11.184.933-.509q-1.329-2.489-2.63-5.005l-.947.495c.877,1.626,1.753,3.337,2.644,4.963ZM217.3,319.232l.933-.481c-.848-1.683-1.7-3.365-2.559-5.048l-.947.467Zm-5.741-11.4.947-.467-2.531-5.076-.947.481Zm-5.656-11.4.947-.481-2.559-5.062-.947.481Zm-5.769-11.311.933-.481-2.6-5.034-.947.495Zm-5.924-11.311.933-.509c-.891-1.654-1.8-3.309-2.7-4.963l-.933.509c.877,1.569,1.767,3.224,2.587,4.864ZM188.062,262.7l.933-.523c-.933-1.64-1.881-3.266-2.828-4.892l-.919.537c.9,1.541,1.782,3.167,2.771,4.793ZM181.6,251.788l.9-.566c-.99-1.6-1.979-3.2-3-4.779l-.9.566c.976,1.5,1.979,3.1,2.955,4.694Zm-6.858-10.675.891-.594c-1.06-1.569-2.135-3.125-3.224-4.68l-.862.622c1.046,1.456,2.107,3.012,3.153,4.567ZM167.4,230.721l.862-.622c-1.131-1.513-2.276-3.026-3.45-4.51l-.834.65c1.117,1.4,2.262,2.9,3.379,4.4Zm-7.847-9.982.82-.679c-1.216-1.414-2.446-2.9-3.69-4.312l-.792.693c1.2,1.329,2.418,2.771,3.62,4.213Zm-8.484-9.516.778-.735c-1.3-1.414-2.6-2.729-3.945-4.072l-.749.749c1.357,1.244,2.658,2.6,3.945,3.973Zm-8.993-8.978.735-.778c-1.414-1.287-2.828-2.559-4.242-3.8l-.693.792c1.47,1.159,2.87,2.432,4.228,3.7Zm-9.558-8.342.665-.82c-1.414-1.2-2.969-2.375-4.454-3.507l-.65.834c1.5,1.046,3,2.22,4.468,3.408ZM122.4,186.253l.608-.862c-1.541-1.075-3.125-2.149-4.708-3.181l-.58.891c1.6.933,3.167,2.008,4.708,3.068Zm-10.661-6.9.551-.9c-1.626-.976-3.28-1.937-4.92-2.828l-.509.919c1.654.82,3.294,1.767,4.906,2.729Z" transform="translate(-42.88 -146.507)" fill="#263238"/>
    <path id="Path_1496" data-name="Path 1496" d="M355.481,174.406l.481-.947-2.545-1.258-.467.947Z" transform="translate(-297.991 -147.923)" fill="#263238"/>
    <path id="Path_1497" data-name="Path 1497" d="M409.171,170.934l7.748,21.265-16.274-12.7L338.46,156.95Z" transform="translate(-338.46 -154.235)" fill="#15ace5"/>
    <path id="Path_1498" data-name="Path 1498" d="M409.171,170.934l7.748,21.265-16.274-12.7L338.46,156.95Z" transform="translate(-338.46 -154.235)" fill="#17153e" opacity="0.1"/>
    <path id="Path_1499" data-name="Path 1499" d="M338.46,177.863l18.353,7.734-16.274-12.7Z" transform="translate(-278.354 -147.633)" fill="#263238"/>
    <path id="Path_1500" data-name="Path 1500" d="M412.155,179.5,349.97,156.95l51.015,49.77Z" transform="translate(-349.97 -154.235)" fill="#15ace5"/>
    <path id="Path_1501" data-name="Path 1501" d="M396.381,171.728l25.832-16.7-96.543,2.715Z" transform="translate(-325.67 -155.03)" fill="#15ace5"/>
  </g>
  <g id="freepik--chess-pawn--inject-18" transform="translate(418.636 310.856)">
    <rect id="Rectangle_358" data-name="Rectangle 358" width="147.953" height="5.33" transform="translate(4.906 162.936)" fill="#455a64"/>
    <rect id="Rectangle_359" data-name="Rectangle 359" width="147.953" height="5.33" transform="translate(4.906 197.11)" fill="#455a64"/>
    <rect id="Rectangle_360" data-name="Rectangle 360" width="147.953" height="1.852" transform="translate(4.906 200.575)" fill="#37474f"/>
    <rect id="Rectangle_361" data-name="Rectangle 361" width="157.766" height="8.568" transform="translate(0 202.441)" fill="#455a64"/>
    <rect id="Rectangle_362" data-name="Rectangle 362" width="133.333" height="28.844" transform="translate(12.216 168.266)" fill="#455a64"/>
    <rect id="Rectangle_363" data-name="Rectangle 363" width="133.333" height="6.9" transform="translate(12.216 168.266)" fill="#37474f"/>
    <rect id="Rectangle_364" data-name="Rectangle 364" width="133.333" height="6.9" transform="translate(12.216 190.21)" fill="#37474f"/>
    <path id="Path_1502" data-name="Path 1502" d="M183.121,290.743s9.049-11.594,8.7-12.725-23.273-11.665-37.384-8.484-54.069,23.033-61.944,54.775,15.044,77.228,15.624,87.8a46.207,46.207,0,0,1-3.28,19.286h11.637s6.221-11.877,2.347-29.692S104.832,350.34,109.3,332s34.783-42.785,43.832-46.08S183.121,290.743,183.121,290.743Z" transform="translate(-73.952 -268.408)" fill="#263238"/>
    <path id="Path_1503" data-name="Path 1503" d="M71.321,427.866h94.959s0-24.6-9.4-40.113-31.955-31.5-36.508-38.869a24.037,24.037,0,0,1-3.478-14.733,30.442,30.442,0,0,0,17.434,11.538,37.131,37.131,0,0,0,20.163-.707s15.878,5.175,16.967,6.264,4.694,4.242,7.522,4.369,11.707-9.473,11.707-17.957c0-7.07-30.187-33.34-30.187-33.34s-4.072-9.728-5.175-11.919-28.986-15.553-36.352-15.044-39.717,18.381-50.477,41.7c-10.336,22.411.834,58.084,4.708,73.524C78.843,415.254,71.321,427.866,71.321,427.866Z" transform="translate(-35.167 -264.93)" fill="#455a64"/>
    <path id="Path_1504" data-name="Path 1504" d="M105.826,308.012,89.82,299.246s5.868-1.414,9.459.226S105.826,308.012,105.826,308.012Z" transform="translate(13.496 -256.098)" fill="#263238"/>
    <path id="Path_1505" data-name="Path 1505" d="M121.3,292.638s13.093-21.35,13.305-23.74c.127-1.527-18.211,2.474-23.146,5.882S97,288.665,97,288.665Z" transform="translate(-25.441 -268.563)" fill="#455a64"/>
    <path id="Path_1506" data-name="Path 1506" d="M117.443,271.92s-9.12,2.715-10.916,4.807a86.9,86.9,0,0,0-5.387,8.356" transform="translate(-14.127 -267.174)" fill="#263238"/>
    <path id="Path_1507" data-name="Path 1507" d="M176.171,382.323,85.34,372.85c-.636,10.067-3.86,15.482-3.86,15.482h94.959Z" transform="translate(-45.326 -225.397)" fill="#37474f"/>
  </g>
  <g id="freepik--chart-2--inject-18" transform="translate(57.9 17.264)">
    <rect id="Rectangle_365" data-name="Rectangle 365" width="175.879" height="110.795" transform="translate(0)" fill="#ebebeb"/>
    <path id="Path_1508" data-name="Path 1508" d="M461.6,78.916c-24.4-.156-48.809-.113-73.2-.17s-48.809,0-73.2.17c24.39.156,48.795.113,73.2.17S437.194,79.114,461.6,78.916Z" transform="translate(-300.212 -53.55)" fill="#a6a6a6"/>
    <path id="Path_1509" data-name="Path 1509" d="M461.641,89.127C437.236,89,412.832,89,388.4,89s-48.809,0-73.2.17c24.39.156,48.795.113,73.2.184S437.236,89.283,461.641,89.127Z" transform="translate(-300.255 -49.297)" fill="#a6a6a6"/>
    <path id="Path_1510" data-name="Path 1510" d="M461.6,99.376c-24.4-.156-48.809-.113-73.2-.17s-48.809,0-73.2.17c24.39.156,48.795.113,73.2.184S437.194,99.531,461.6,99.376Z" transform="translate(-300.212 -45.081)" fill="#a6a6a6"/>
    <path id="Path_1511" data-name="Path 1511" d="M461.6,109.606c-24.4-.156-48.809-.113-73.2-.17s-48.809,0-73.2.17c24.39.156,48.795.113,73.2.184S437.194,109.761,461.6,109.606Z" transform="translate(-300.212 -40.847)" fill="#a6a6a6"/>
    <path id="Path_1512" data-name="Path 1512" d="M461.6,119.836c-24.4-.156-48.809-.113-73.2-.17s-48.809,0-73.2.17c24.39.156,48.795.113,73.2.184S437.194,119.991,461.6,119.836Z" transform="translate(-300.212 -36.612)" fill="#a6a6a6"/>
    <path id="Path_1513" data-name="Path 1513" d="M336.124,72.21c-.212,13.517-.156,27.034-.24,40.551s0,27.02.24,40.537c.212-13.517.17-27.034.255-40.537S336.336,85.727,336.124,72.21Z" transform="translate(-204.218 -56.247)" fill="#a6a6a6"/>
    <path id="Path_1514" data-name="Path 1514" d="M354.089,72.21c-.226,13.517-.17,27.034-.255,40.551s0,27.02.255,40.537c.212-13.517.156-27.034.24-40.537S354.372,85.727,354.089,72.21Z" transform="translate(-247.563 -56.247)" fill="#a6a6a6"/>
    <path id="Path_1515" data-name="Path 1515" d="M371.954,72.21c-.212,13.517-.156,27.034-.255,40.551s0,27.02.255,40.537c.212-13.517.17-27.034.254-40.537S372.166,85.727,371.954,72.21Z" transform="translate(-290.681 -56.247)" fill="#a6a6a6"/>
    <path id="Path_1516" data-name="Path 1516" d="M389.856,72.21c-.226,13.517-.17,27.034-.254,40.551s0,27.02.254,40.537c.212-13.517.156-27.034.24-40.537S390.068,85.727,389.856,72.21Z" transform="translate(-333.893 -56.247)" fill="#a6a6a6"/>
    <path id="Path_1517" data-name="Path 1517" d="M407.76,72.21c-.212,13.517-.156,27.034-.255,40.551s0,27.02.255,40.537c.212-13.517.155-27.034.254-40.537S407.972,85.727,407.76,72.21Z" transform="translate(-377.12 -56.247)" fill="#a6a6a6"/>
    <path id="Path_1518" data-name="Path 1518" d="M460.518,121.992c-4.468,0-7.07-14.691-13.461-14.691s-7,10.718-12.329,10.718S429.567,99.185,422.4,99.185s-5.486,7.649-12.98,7.649-4.666-17.745-12.5-17.745-4.666,24.447-12.824,24.447c-5.161,0-7.154-7.762-13.319-7.762-4.086,0-6.49,3.874-11.82,3.874s-6.5-14.931-13.164-14.931-7.423,8.837-12.329,8.837S326.8,89.09,317.81,89.09v57.221H460.518Z" transform="translate(-302.822 -49.26)" fill="#15ace5" opacity="0.5"/>
    <path id="Path_1519" data-name="Path 1519" d="M460.475,122.906v-1.414c-1.414,0-3.21-3.436-4.581-5.938-2.333-4.242-4.751-8.752-8.88-8.752s-5.939,3.252-7.664,6.136c-1.414,2.248-2.828,4.581-4.666,4.581-1.668,0-3.111-4.525-4.157-7.819-1.739-5.415-3.521-11.014-8.172-11.014-4.143,0-5.769,2.206-7.2,4.143s-2.6,3.507-5.783,3.507c-2.828,0-4.016-4.143-5.1-8.158-1.287-4.708-2.616-9.586-7.395-9.586s-5.953,6.136-7.239,12.64c-1.046,5.26-2.333,11.806-5.585,11.806-1.937,0-3.535-1.626-5.217-3.323-2.036-2.093-4.369-4.44-8.1-4.44a11.538,11.538,0,0,0-5.656,1.895,12.188,12.188,0,0,1-6.122,1.98c-1.852,0-3.535-3.549-4.892-6.405-1.994-4.242-4.058-8.484-8.272-8.484s-6.264,2.828-8.088,5.316c-1.329,1.81-2.587,3.521-4.242,3.521-1.414,0-3.012-2.743-4.411-5.175-2.4-4.143-5.4-9.289-11.241-9.289v1.414c4.5,0,7.07,4.468,9.389,8.484,1.965,3.379,3.507,6.052,6.264,6.052s4.4-2.078,6.023-4.242,3.323-4.539,6.306-4.539c2.828,0,4.68,4.016,6.377,7.564,1.866,3.959,3.492,7.367,6.787,7.367a14.507,14.507,0,0,0,7.352-2.276,9.318,9.318,0,0,1,4.468-1.6c2.686,0,4.609,1.937,6.462,3.832s3.874,3.931,6.858,3.931c4.991,0,6.25-6.334,7.565-13.022,1-5.09,2.262-11.425,5.26-11.425s4.355,4.482,5.429,8.484c1.3,4.779,2.531,9.3,7.07,9.3s6.066-2.276,7.55-4.242,2.5-3.379,5.429-3.379,4.807,5.5,6.207,9.9c1.6,4.991,2.828,8.922,6.122,8.922s4.807-2.644,6.5-5.444c1.569-2.587,3.181-5.274,5.825-5.274s5.118,4.355,7.07,7.847C456.106,119.88,457.747,122.906,460.475,122.906Z" transform="translate(-302.78 -49.467)" fill="#15ace5"/>
    <path id="Path_1520" data-name="Path 1520" d="M460.188,72.83c-.156,13.376-.3,26.737-.311,40.113l-.155,40.1.467-.325-71.361.085H353.154l-35.673.184,35.673.184,35.673.071,71.361.085h.467v-.339l-.156-40.1C460.485,99.567,460.358,86.206,460.188,72.83Z" transform="translate(-302.492 -55.99)" fill="#a6a6a6"/>
  </g>
  <g id="freepik--chart-1--inject-18" transform="translate(404.666 154.104)">
    <rect id="Rectangle_366" data-name="Rectangle 366" width="171.382" height="94.436" transform="translate(0)" fill="#ebebeb"/>
    <rect id="Rectangle_367" data-name="Rectangle 367" width="135.553" height="8.158" transform="translate(9.954 11.919)" fill="#fff"/>
    <rect id="Rectangle_368" data-name="Rectangle 368" width="93.814" height="8.158" transform="translate(51.693 11.919)" fill="#455a64"/>
    <rect id="Rectangle_369" data-name="Rectangle 369" width="135.553" height="8.158" transform="translate(9.954 27.529)" fill="#fff"/>
    <rect id="Rectangle_370" data-name="Rectangle 370" width="121.697" height="8.158" transform="translate(23.811 27.529)" fill="#15ace5"/>
    <rect id="Rectangle_371" data-name="Rectangle 371" width="135.553" height="8.158" transform="translate(9.954 43.139)" fill="#fff"/>
    <rect id="Rectangle_372" data-name="Rectangle 372" width="86.391" height="8.158" transform="translate(59.116 43.139)" fill="#455a64"/>
    <rect id="Rectangle_373" data-name="Rectangle 373" width="135.553" height="8.158" transform="translate(9.954 58.749)" fill="#fff"/>
    <rect id="Rectangle_374" data-name="Rectangle 374" width="99.696" height="8.158" transform="translate(45.811 58.749)" fill="#15ace5"/>
    <rect id="Rectangle_375" data-name="Rectangle 375" width="135.553" height="8.158" transform="translate(9.954 74.358)" fill="#fff"/>
    <rect id="Rectangle_376" data-name="Rectangle 376" width="64.871" height="8.158" transform="translate(80.636 74.358)" fill="#455a64"/>
    <rect id="Rectangle_377" data-name="Rectangle 377" width="9.912" height="9.912" transform="translate(149.806 42.262)" fill="#455a64"/>
    <path id="Path_1521" data-name="Path 1521" d="M76.171,193.205H77.5v-1.527H76.171v-1.5a1.668,1.668,0,0,0-1.414-1.612,13.108,13.108,0,0,0-1.668,0v1.414h.537a3.265,3.265,0,0,1,.523,0,.481.481,0,0,1,.424.481v1.2H73.06a8.964,8.964,0,0,0,.2,1.414s.127.1.184.1h1.131v3.917h1.6Z" transform="translate(79.489 -144.934)" fill="#fff"/>
    <rect id="Rectangle_378" data-name="Rectangle 378" width="9.912" height="9.912" transform="translate(149.806 57.872)" fill="#15ace5"/>
    <path id="Path_1522" data-name="Path 1522" d="M72.906,203.4H74.32v-.862H71.888v.509a2.347,2.347,0,0,0,2.276,2.39,2.545,2.545,0,0,0,1.414-4.793,2.6,2.6,0,0,0-2.927.339c.2.2.4.41.594.594s.113,0,.17,0a5.1,5.1,0,0,1,.65-.24,1.555,1.555,0,0,1,1.852,1.258,1.584,1.584,0,0,1-1.258,1.881,1.414,1.414,0,0,1-1.753-1.075Z" transform="translate(81.693 -140.052)" fill="#fff"/>
    <path id="Path_1523" data-name="Path 1523" d="M75.84,202.077v.735h.707v.721h.735v-.707H78v-.735h-.721v-.721h-.721v.707Z" transform="translate(75.054 -139.624)" fill="#fff"/>
    <rect id="Rectangle_379" data-name="Rectangle 379" width="9.912" height="9.912" transform="translate(149.806 73.482)" fill="#455a64"/>
    <path id="Path_1524" data-name="Path 1524" d="M79.522,216.523a3.464,3.464,0,0,1-2.206-.679c.919-.269,1.287-.551,1.414-1.075h-.608a1.654,1.654,0,0,0,1.188-1.541l-.622.156c.665-.82.792-1.414.4-2.064a4.5,4.5,0,0,1-3.224,1.612,1.413,1.413,0,0,1,0-.254,1.569,1.569,0,0,0-2.588-1.287.353.353,0,0,1-.353.071l-.764-.283a1.541,1.541,0,0,0,.608.764h0l-.764-.2h0c.2.2.382.4.594.58a.424.424,0,0,1,.156.339,4.44,4.44,0,0,0,4.03,4.44,4.609,4.609,0,0,0,2.63-.537Z" transform="translate(78.965 -135.632)" fill="#fff"/>
    <rect id="Rectangle_380" data-name="Rectangle 380" width="9.912" height="9.912" transform="translate(149.735 11.043)" fill="#455a64"/>
    <path id="Path_1525" data-name="Path 1525" d="M72.113,168.085a1.527,1.527,0,0,1,1.6-1.654H77.8a1.527,1.527,0,0,1,1.6,1.612v4.03a1.555,1.555,0,0,1-1.626,1.683H73.725a1.541,1.541,0,0,1-1.612-1.64Q72.1,170.064,72.113,168.085Zm.65,4.044a.877.877,0,0,0,.961.976h4.044a.877.877,0,0,0,.976-.976v-4.072a.891.891,0,0,0-.976-.99h-4.03a.891.891,0,0,0-.976.976v2.05C72.764,170.729,72.75,171.478,72.764,172.129Z" transform="translate(78.937 -154.087)" fill="#fff"/>
    <path id="Path_1526" data-name="Path 1526" d="M75.153,167.67a1.909,1.909,0,1,1-1.852,1.881A1.909,1.909,0,0,1,75.153,167.67Zm0,3.167a1.348,1.348,0,1,1,.028,0Z" transform="translate(79.531 -153.573)" fill="#fff"/>
    <path id="Path_1527" data-name="Path 1527" d="M75.82,167.75a.44.44,0,1,0,.41-.41A.424.424,0,0,0,75.82,167.75Z" transform="translate(76.389 -153.71)" fill="#fff"/>
    <rect id="Rectangle_381" data-name="Rectangle 381" width="9.912" height="9.912" transform="translate(149.806 26.511)" fill="#15ace5"/>
    <path id="Path_1528" data-name="Path 1528" d="M79.424,184.7c-.17-.566-.311-1.089-.467-1.612a.707.707,0,0,1,0-.481A3.662,3.662,0,1,0,72,181.1a3.7,3.7,0,0,0,3.464,3.535,4.03,4.03,0,0,0,1.824-.339.509.509,0,0,1,.353,0Zm-.891-.862c-.368-.085-.679-.184-.99-.24a.4.4,0,0,0-.311,0,3.408,3.408,0,0,1-1.485.382,3.054,3.054,0,0,1-3.054-3.563,2.828,2.828,0,0,1,2.291-2.39,3.068,3.068,0,0,1,3.351,4.51.509.509,0,0,0,0,.353,8.652,8.652,0,0,0,.17.947Z" transform="translate(79.063 -149.566)" fill="#fff"/>
    <path id="Path_1529" data-name="Path 1529" d="M76.867,178.966c-.255-.339-.58-.283-.764.1a2.052,2.052,0,0,0-.141.353.424.424,0,0,0,.1.58.24.24,0,0,1,0,.353,2.6,2.6,0,0,1-1.117.947.255.255,0,0,1-.339-.085c-.325-.382-.325-.382-.778-.17l-.156.085a.41.41,0,0,0-.113.749,1,1,0,0,0,1.018.254,3.747,3.747,0,0,0,2.234-1.7,1.414,1.414,0,0,0,.269-.82,1.188,1.188,0,0,0-.212-.65Z" transform="translate(79.485 -148.99)" fill="#fff"/>
  </g>
  <g id="freepik--Character--inject-18" transform="translate(192.193 56.179)">
    <path id="Path_1530" data-name="Path 1530" d="M262.845,461.311c-3.1,1-91.665-.155-95-2.333-1.287-.806-1.866-13.729-2.135-29.353v-.481c0-3.224-.1-6.547-.1-9.9v-1.414l4.242-45.953,59.244.594-5.84,45.514v1.81l-.353,9.417v.961s33.708,15.553,37.13,18.381S265.955,460.321,262.845,461.311Z" transform="translate(-25.655 28.879)" fill="#f7a9a0"/>
    <path id="Path_1531" data-name="Path 1531" d="M262.835,447.858c-3.1,1-91.665-.156-95-2.333-1.287-.806-1.866-13.729-2.135-29.353v-.481c0-3.224-.1-6.547-.1-9.9V404.38l57.7.156v1.81l-.353,9.417v.961s33.708,15.553,37.13,18.381S265.946,446.868,262.835,447.858Z" transform="translate(-25.646 42.331)" fill="#ebebeb"/>
    <path id="Path_1532" data-name="Path 1532" d="M262.736,444.533c-1.6.523-25.663.467-49.176,0-4.737-.085-9.431-.2-13.913-.325-16.769-.453-30.64-1.145-31.927-1.98s-1.852-13.362-2.107-28.7V412.38h.071l57.066.1v.976s33.694,15.553,37.116,18.381S265.832,443.543,262.736,444.533Z" transform="translate(-25.532 45.642)" fill="#15ace5"/>
    <path id="Path_1533" data-name="Path 1533" d="M257.167,432.991c-14.917-.565-75.164-1.414-89.954-.834-.127,0-.127.085,0,.1,14.776.877,75.023,1.244,89.954.976C257.492,433.231,257.492,433.005,257.167,432.991Z" transform="translate(-20.939 53.748)" fill="#263238"/>
    <path id="Path_1534" data-name="Path 1534" d="M207.862,412.763c-5.854-1.174-13.051-.353-17.6,3.761-.17.17,0,.41.254.353a81.781,81.781,0,0,1,17.321-3.365.382.382,0,0,0,.028-.749Z" transform="translate(-4.31 45.599)" fill="#263238"/>
    <path id="Path_1535" data-name="Path 1535" d="M204.842,414.614c-5.868-1.173-13.065-.368-17.6,3.761-.17.156,0,.41.24.353a83.054,83.054,0,0,1,17.321-3.365.375.375,0,0,0,.042-.749Z" transform="translate(2.924 46.364)" fill="#263238"/>
    <path id="Path_1536" data-name="Path 1536" d="M201.864,416.464c-5.854-1.173-13.051-.368-17.589,3.761-.184.156,0,.4.24.339a83.588,83.588,0,0,1,17.321-3.365.368.368,0,0,0,.028-.735Z" transform="translate(10.101 47.13)" fill="#263238"/>
    <path id="Path_1537" data-name="Path 1537" d="M249.326,444.523c-4.737-.085-9.431-.2-13.913-.325-16.769-.452-30.64-1.145-31.927-1.979s-1.852-13.362-2.107-28.7V412.37h.071C209.241,417.856,236.8,436.195,249.326,444.523Z" transform="translate(-61.299 45.638)" fill="#263238"/>
    <path id="Path_1538" data-name="Path 1538" d="M279.1,504.113H215.332S228.17,355.142,227.661,352.54c-.636-3.323-4.4-18.381-9.4-38.105-1.584-6.165-3.266-12.725-5.034-19.625-4.751-18.537-10-38.784-14.563-56.416-6.858-26.4-12.2-46.914-12.2-46.914h54.054s6.278,19.965,14.238,45.981c12.937,42.234,30.216,100.389,31.927,114.528C289.436,374.725,279.1,504.113,279.1,504.113Z" transform="translate(-78.022 -45.793)" fill="#37474f"/>
    <path id="Path_1539" data-name="Path 1539" d="M251.375,405.019c-9.742-.2-6.942-.283-16.684-.368-4.779,0-36.1-.325-40.551.41a.1.1,0,1,0,0,.2c4.454.735,35.772.466,40.551.424,9.742-.1,6.942-.17,16.684-.382a.141.141,0,0,0,0-.283Z" transform="translate(-53.111 42.414)" fill="#263238"/>
    <path id="Path_1540" data-name="Path 1540" d="M261.074,339.525c-2.093-9.219-5.217-18.254-7.932-27.3q-8.286-27.572-16.684-55.143-4.242-13.786-8.484-27.543-2.135-6.956-4.242-13.9c-1.414-4.525-3.04-9.007-4.312-13.574-.523-1.866-.806-.848-.141,1.513,1.414,4.765,2.672,9.516,4.058,14.266q4.114,14.139,8.286,28.18,8.243,27.967,16.727,55.963,4.242,14.026,8.484,28.066a114.953,114.953,0,0,1,3.45,13.574,63.189,63.189,0,0,1,.566,14.521c-.622,9.756-1.753,19.5-2.644,29.24l-2.715,29.268q-2.7,29.113-5.345,58.254c-.226,2.46-.438,4.92-.622,7.381-.071.82,1.188.764,1.273,0,2.093-19.2,3.7-38.459,5.514-57.688s3.577-38.261,5.373-57.405c.453-4.793.962-9.615.962-14.436a59.983,59.983,0,0,0-1.569-13.234Z" transform="translate(-99.374 -41.813)" fill="#263238"/>
    <path id="Path_1541" data-name="Path 1541" d="M271.7,191.48c-3.761,29.028-10.915,83.421-16.119,123.011-12.2-47.847-31.8-123.011-31.8-123.011Z" transform="translate(-115.343 -45.793)" fill="#263238"/>
    <path id="Path_1542" data-name="Path 1542" d="M310.806,461.8c-3.111,1.018-91.665.184-95.016-1.979-1.287-.806-1.923-13.715-2.234-29.339v-.495c-.071-3.224-.127-6.532-.141-9.9v-1.414c-.212-22.538,1.414-45.938,1.414-45.938l57.886.382L271.1,418.636v1.8l-.325,9.431v.961s33.75,15.553,37.186,18.254S313.9,460.771,310.806,461.8Z" transform="translate(-141.175 29.235)" fill="#f7a9a0"/>
    <path id="Path_1543" data-name="Path 1543" d="M310.787,448.355c-3.111,1.018-91.665.184-95.016-1.979-1.287-.806-1.923-13.715-2.234-29.339v-.495c-.071-3.224-.127-6.532-.141-9.9V405.23h57.688v1.8l-.325,9.431v.961s33.751,15.553,37.186,18.254S313.884,447.322,310.787,448.355Z" transform="translate(-141.156 42.683)" fill="#ebebeb"/>
    <path id="Path_1544" data-name="Path 1544" d="M310.658,445.072c-3.111,1.018-91.665.184-95.016-1.979-1.287-.806-1.923-13.715-2.234-29.339v-.495l57.151-.1v.961s33.75,15.553,37.186,18.254S313.754,444.04,310.658,445.072Z" transform="translate(-141.026 45.965)" fill="#15ace5"/>
    <path id="Path_1545" data-name="Path 1545" d="M304.968,433.527c-14.931-.509-75.179-1.145-89.968-.509-.113,0-.113.085,0,.1,14.79.82,75.037.961,89.968.65C305.279,433.753,305.279,433.527,304.968,433.527Z" transform="translate(-136.312 54.075)" fill="#263238"/>
    <path id="Path_1546" data-name="Path 1546" d="M255.711,413.447c-5.854-1.145-13.051-.311-17.575,3.832-.184.155,0,.41.24.353a82.01,82.01,0,0,1,17.306-3.436.382.382,0,0,0,.028-.749Z" transform="translate(-119.843 45.89)" fill="#263238"/>
    <path id="Path_1547" data-name="Path 1547" d="M252.7,415.29c-5.868-1.159-13.065-.325-17.589,3.832-.184.156,0,.4.24.339a82.841,82.841,0,0,1,17.306-3.436.368.368,0,0,0,.042-.735Z" transform="translate(-112.604 46.649)" fill="#263238"/>
    <path id="Path_1548" data-name="Path 1548" d="M249.748,417.137c-5.868-1.145-13.065-.311-17.589,3.832-.17.156,0,.41.254.353a81.769,81.769,0,0,1,17.306-3.436.382.382,0,0,0,.028-.749Z" transform="translate(-105.44 47.418)" fill="#263238"/>
    <path id="Path_1549" data-name="Path 1549" d="M314.042,191.48s-1.244,25.861-7.169,46.348c-.467,1.7-.99,3.365-1.541,4.963a96.145,96.145,0,0,0-15.553,8s-.622,20.813-1.244,44.015c-.693,25.946-1.414,54.874-1.258,61.011.537,22.962-2.828,149.226-2.828,149.226l-63.768.255s11.523-141,11.453-149.409c-.127-13.517,3.082-73.284,5.557-116.861,1.527-26.865,2.828-47.55,2.828-47.55Z" transform="translate(-153.303 -45.793)" fill="#37474f"/>
    <path id="Path_1550" data-name="Path 1550" d="M300.409,405.326c-9.742-.17-6.942-.255-16.684-.311-4.765,0-36.1-.17-40.551.594-.085,0-.085.184,0,.2,4.468.721,35.787.311,40.551.24,9.742-.127,6.956-.2,16.684-.438a.141.141,0,1,0,0-.283Z" transform="translate(-171.527 42.587)" fill="#263238"/>
    <path id="Path_1551" data-name="Path 1551" d="M284.821,198.062c-1.174,35.574-2.418,71.149-4.016,106.709s-3.747,71.361-6.73,106.949c-1.668,19.894-3.238,47.861-5.387,67.7a.113.113,0,0,0,.212,0c4.638-35.348,7.225-78.925,9.516-114.429s3.832-71.078,5.034-106.638c.693-20.12,1.216-40.24,1.81-60.36C285.3,197.779,284.821,197.808,284.821,198.062Z" transform="translate(-192.404 -43.157)" fill="#263238"/>
    <path id="Path_1552" data-name="Path 1552" d="M242.951,226.684a118.408,118.408,0,0,0-18.24,9.544.212.212,0,0,0,.2.368c6.151-2.983,12.428-5.854,18.381-9.176a.41.41,0,0,0-.339-.735Z" transform="translate(-88.321 -31.228)" fill="#263238"/>
    <path id="Path_1553" data-name="Path 1553" d="M236.235,211.187c-.424,2.262-.976,4.51-1.414,6.759s-.806,4.242-1.414,6.363a10.929,10.929,0,0,1-2.969,5.33c-.834.764-1.739,1.414-2.63,2.163-.467.382-.99.735-1.485,1.131.071-.311.113-.608.17-.919.156-.862.3-1.711.438-2.573.325-1.909.636-3.832.919-5.741.58-3.761,1.1-7.564,1.895-11.311a.127.127,0,0,0-.24,0c-.933,3.69-1.965,7.338-2.828,11.057-.4,1.824-1.824,10.831-1.895,11.481s-.113,1.315-.141,1.979a8.8,8.8,0,0,0,0,2.022c0,.156.24.127.311,0h0a7.9,7.9,0,0,0,.566-1.951q.254-.976.424-1.951a6.36,6.36,0,0,1,.113-.721c.891-.537,1.711-1.258,2.545-1.852s1.8-1.287,2.644-1.994a10.123,10.123,0,0,0,3.238-5.062,36.891,36.891,0,0,0,1.06-6.462c.283-2.573.495-5.147.848-7.692C236.49,211.088,236.263,211.031,236.235,211.187Z" transform="translate(-81.195 -37.674)" fill="#263238"/>
    <path id="Path_1554" data-name="Path 1554" d="M187.336,143.3c2.4,9.9,28.491,63.146,28.279,66.454,0,.792-15.779,11.311-16.161,12.6-1.569,5.076,24.32,26.525,29.989,27.8,16.656,3.761,31.205,2.983,30.909-10.689-.467-21.449-38.176-74.57-57.49-93.319C190.163,133.768,184.96,133.6,187.336,143.3Z" transform="translate(-51.68 -68.591)" fill="#f7a9a0"/>
    <path id="Path_1555" data-name="Path 1555" d="M235.922,252.877l-30.64-38.43s9.148-3.309,9.346-5.444-21.958-47.72-26.751-61.124S186.8,131.7,201.168,143.2s67.671,85.981,59.767,102.566C255.491,257.2,235.922,252.877,235.922,252.877Z" transform="translate(-51.812 -68.76)" fill="#15ace5"/>
    <path id="Path_1556" data-name="Path 1556" d="M194.143,187.812a21,21,0,0,1,3.945,1.414q1.923.848,3.818,1.739c2.5,1.159,4.991,2.361,7.409,3.69s4.765,2.743,7.07,4.242l1.64,1.018.65.226c.919.325,1.838.679,2.715,1.089a43.3,43.3,0,0,1,4.963,2.729c.113.071,0,.24-.113.184a39,39,0,0,0-5.161-2.432l-.707-.254c.933.622,1.838,1.273,2.715,1.965a70.687,70.687,0,0,1,6.688,5.868c.1.1,0,.24-.156.141-3.789-3.676-8.583-6.334-13.15-8.922s-9.36-5.571-14.139-8.215c-1.414-.764-2.729-1.485-4.129-2.177a44.062,44.062,0,0,1-4.171-2.078.127.127,0,0,1,.113-.226Z" transform="translate(-31.312 -47.315)" fill="#263238"/>
    <path id="Path_1557" data-name="Path 1557" d="M210.761,254.635c.226.226,93.659-6.165,94.45-7.2,1.089-1.414-27.232-101.124-37.724-112.944-2.234-2.531-15.384-5.217-22.411,1.414-14.9,14.139-25.352,59.526-27.543,73.156C213.9,231.559,209.926,253.8,210.761,254.635Z" transform="translate(-130.319 -70.518)" fill="#15ace5"/>
    <path id="Path_1558" data-name="Path 1558" d="M210.64,148.745c0-.156.212-.269.269-.113,1.541,3.846,2.969,7.734,4.369,11.622-.071-.551-.127-1.117-.17-1.668-.113-1.485-.1-2.969-.226-4.44a.106.106,0,1,1,.212,0c.085,1.527.368,3.026.594,4.539s.382,2.715.608,4.072l.127.721c2.262,6.49,4.383,13.036,6.462,19.583,3.676,11.665,7.07,23.443,10.251,35.249,1.81,6.66,3.393,13.362,4.878,20.092a.113.113,0,0,1-.212,0c-3.464-11.679-6.815-23.4-10.265-35.079-3.167-10.76-6.5-21.463-9.9-32.167a.127.127,0,0,1-.184-.071l-.721-2.828C214.67,161.824,212.577,155.305,210.64,148.745Z" transform="translate(-63.08 -63.56)" fill="#263238"/>
    <path id="Path_1559" data-name="Path 1559" d="M259.609,137.071h0c.551,4.242,1.555,14.026-5.133,13.885a14.139,14.139,0,0,1-7.395-3.068,36.081,36.081,0,0,1-6.038-5.33,54.344,54.344,0,0,1-5.755-6.985c0-.1-.24,0-.156.127a90.661,90.661,0,0,0,5.246,7.395,32.832,32.832,0,0,0,6.518,5.924,14.139,14.139,0,0,0,7.861,2.941,5.373,5.373,0,0,0,5.175-4.411A23.9,23.9,0,0,0,259.609,137.071Z" transform="translate(-120.037 -68.952)" fill="#263238"/>
    <path id="Path_1560" data-name="Path 1560" d="M348.841,159.136c-22.736,16.967-49.148,26.115-60.064,21.845-8.484-3.337-35.956-28.491-40.452-48.823-.99-4.482,33.468-8.484,34.825-5.472,3.973,8.653,19.512,23.683,21.1,23.457,2.064-.283,25.578-5.316,44.143-9.685C370.814,135.184,361.27,149.889,348.841,159.136Z" transform="translate(-240.221 -73.046)" fill="#f7a9a0"/>
    <path id="Path_1561" data-name="Path 1561" d="M303.281,133.294c1.8,7.282,11.311,20.756,14.86,23.118s26.964-13.051,27.3-17.405-7.635-28.434-13.715-33.086S301.358,125.744,303.281,133.294Z" transform="translate(-301.355 -81.45)" fill="#f7a9a0"/>
    <path id="Path_1562" data-name="Path 1562" d="M307.345,136.436a62.357,62.357,0,0,1,5.09-17.363c3.252-6.462,8.809-15.695,5.4-17.575-7-3.86-20.855,19.159-20.855,19.159S292.5,131.8,299.1,136.21A7.89,7.89,0,0,0,307.345,136.436Z" transform="translate(-263.949 -83.22)" fill="#f7a9a0"/>
    <path id="Path_1563" data-name="Path 1563" d="M344.5,121.963c-2.828,2.729-4.977.226-4.977.226s4.242,6.447,1.5,9.9-7.07-1.159-7.409-1.414c.226.339,3.959,6.363.862,9.544s-6.914-1.951-7.154-2.291c.113.4,1.414,5.571-1.414,7.437-4.991,3.238-8.752-9.9-13.051-12.061,0,0-4.5,6.872-4.666,7.07s-3.832-12.428-.594-18.07a4.157,4.157,0,0,1,4.822-1.965s-1.683-3.874.679-6.462c1.23-1.315,4.426-.537,4.426-.537a5.217,5.217,0,0,1,1.032-5.33c1.782-1.725,4.708-.679,4.708-.679S311.5,91.776,315.016,88.948c6.08-4.963,26.681,28.278,30.131,28.561C346.787,117.58,345.755,120.761,344.5,121.963Z" transform="translate(-306.261 -88.443)" fill="#f7a9a0"/>
    <path id="Path_1564" data-name="Path 1564" d="M310.647,101.829v-.1a37.088,37.088,0,0,1,16.006,15.129c.113.212,0,1.315-.141,1.089C323.033,112.235,316.84,106.269,310.647,101.829Z" transform="translate(-293.168 -82.943)" fill="#263238"/>
    <path id="Path_1565" data-name="Path 1565" d="M314.779,105.945s0-.156.085-.113a34.641,34.641,0,0,1,16.43,17.575c.1.269-.071.622-.212.325C328.664,118.642,320.421,109.918,314.779,105.945Z" transform="translate(-303.635 -81.248)" fill="#263238"/>
    <path id="Path_1566" data-name="Path 1566" d="M334.041,129.189c-3.21-7.437-8.484-13.093-14.7-18.127-.085,0,0-.17.1-.141,3.733,1.64,7.367,5.26,9.9,8.314a21.308,21.308,0,0,1,4.892,9.9C334.324,129.217,334.112,129.415,334.041,129.189Z" transform="translate(-312.957 -79.14)" fill="#263238"/>
    <path id="Path_1567" data-name="Path 1567" d="M335.618,112.32c.141.255-.735.1-.608.353,1.343,2.828,3.492,7.946,1.414,9.558-1.64,1.273-4.5,0-5.4-.961l-2.262-2.347,1.315,3a13.419,13.419,0,0,1,1.117,4.242,4.807,4.807,0,0,1-1.032,3.761,2.729,2.729,0,0,1-3.379.65,8.117,8.117,0,0,1-2.983-2.828l-2.149-3.21.976,3.719a11.976,11.976,0,0,1,.41,3.181,5.146,5.146,0,0,1-.749,2.828,2.446,2.446,0,0,1-2.347,1.06,5.345,5.345,0,0,1-2.573-1.612,42.486,42.486,0,0,1-4.129-5.274c-.665-.919-1.329-1.838-2.022-2.729a8.059,8.059,0,0,0-2.488-2.3,8.753,8.753,0,0,1,2.234,2.489c.622.933,1.2,1.895,1.8,2.828a37.4,37.4,0,0,0,3.931,5.656,6.405,6.405,0,0,0,3.026,2.036A3.464,3.464,0,0,0,323.246,135a6.278,6.278,0,0,0,1.032-3.563,14.214,14.214,0,0,0-.41-3.535l-1.173.509a9.615,9.615,0,0,0,3.492,3.408,3.959,3.959,0,0,0,2.658.368,4.426,4.426,0,0,0,2.262-1.414,6,6,0,0,0,1.329-4.765,14.677,14.677,0,0,0-1.3-4.581l-.947.65c1.188,1.145,4.242,2.955,7,1.273C340.524,120.62,336.452,113.564,335.618,112.32Z" transform="translate(-302.232 -78.559)" fill="#263238"/>
    <path id="Path_1568" data-name="Path 1568" d="M280.238,129.38l-34,21.053s24.843,31.926,41.117,32.294,53.729-17.306,65.635-30.428c10.293-11.311-1.244-17.306-11.905-14.139s-44.044,9.728-44.977,9.247S280.238,129.38,280.238,129.38Z" transform="translate(-232.388 -71.498)" fill="#15ace5"/>
    <path id="Path_1569" data-name="Path 1569" d="M297.865,154.42a36.447,36.447,0,0,1,3.634-2.559l3.931-2.7c2.517-1.711,5.133-3.28,7.734-4.864,5.288-3.224,10.562-6.546,16.091-9.346.1,0,.226.1.127.17-4.906,3.648-10.138,6.858-15.313,10.1-2.573,1.626-5.147,3.266-7.777,4.779l-3.987,2.22a37.58,37.58,0,0,1-4.327,2.333C297.893,154.6,297.78,154.49,297.865,154.42Z" transform="translate(-277.77 -69.192)" fill="#263238"/>
    <path id="Path_1570" data-name="Path 1570" d="M256.321,158.1a31.743,31.743,0,0,1,12.725-4.086.113.113,0,0,1,0,.212c-1.668.481-3.266,1.159-4.935,1.7l-1,.311h.877l2.828-.141a.078.078,0,1,1,0,.156,12.482,12.482,0,0,1-2.828.495,13.736,13.736,0,0,1-2.149-.085h-.184c-.735.2-4.581,1.584-5.331,1.64C256.292,158.322,256.264,158.238,256.321,158.1Z" transform="translate(-158.728 -61.303)" fill="#263238"/>
    <path id="Path_1571" data-name="Path 1571" d="M250.975,152.932c-4.751.792-13.291-7.55-16.091-13.545-.184-.41.693-4.567,1.527-9.657.509-3.082.976-6.546,1.188-9.728,0-.65,2.192.693,2.192.693l4.044,1.273,13.418,4.242a51.11,51.11,0,0,0-2.743,12.1,8.04,8.04,0,0,0,0,1.315v.212C254.821,142.3,255.57,152.155,250.975,152.932Z" transform="translate(-116.564 -75.453)" fill="#f7a9a0"/>
    <path id="Path_1572" data-name="Path 1572" d="M250.9,139.119v.212a12.725,12.725,0,0,1-2.064,0c-13.418-1.188-13.97-18.381-13.97-18.381l5.288.58,13.418,4.242a51.11,51.11,0,0,0-2.743,12.1A8.046,8.046,0,0,0,250.9,139.119Z" transform="translate(-112.902 -74.987)" fill="#263238"/>
    <path id="Path_1573" data-name="Path 1573" d="M227.3,98.46s6.5,2.517,7.847,9.021,0,13.4-.551,13.743S227.3,98.46,227.3,98.46Z" transform="translate(-84.35 -84.296)" fill="#263238"/>
    <path id="Path_1574" data-name="Path 1574" d="M227.65,108.907c-1.881,7.169,2.658,27.5,7.876,31.87,7.565,6.334,19.555,6.5,24.843-2.5,5.118-8.738-1.272-35.122-7.07-39.053C244.772,93.439,230.435,98.3,227.65,108.907Z" transform="translate(-110.743 -85.001)" fill="#f7a9a0"/>
    <path id="Path_1575" data-name="Path 1575" d="M246.47,127.76h0" transform="translate(-122.197 -72.168)" fill="none" stroke="#dc6a57" stroke-linecap="round" stroke-linejoin="round"/>
    <path id="Path_1576" data-name="Path 1576" d="M239.127,114.2s-.1.085-.085.141c.325,1.414.467,2.983-.679,3.7C239.862,117.593,239.65,115.444,239.127,114.2Z" transform="translate(-103.783 -77.781)" fill="#263238"/>
    <path id="Path_1577" data-name="Path 1577" d="M239.817,113.362c-2.248.283-1.513,4.765.566,4.5S241.7,113.136,239.817,113.362Z" transform="translate(-106 -78.131)" fill="#263238"/>
    <path id="Path_1578" data-name="Path 1578" d="M231.53,113.12s.113,0,.127.1c.184,1.414.622,2.955,1.951,3.21v.085C232.11,116.556,231.53,114.463,231.53,113.12Z" transform="translate(-88.211 -78.228)" fill="#263238"/>
    <path id="Path_1579" data-name="Path 1579" d="M231.7,112.013c2.206-.523,3.111,3.917,1.075,4.411S229.862,112.394,231.7,112.013Z" transform="translate(-87.335 -78.704)" fill="#263238"/>
    <path id="Path_1580" data-name="Path 1580" d="M240.383,113.143a18.129,18.129,0,0,0,1.626-.891c.622-.354,1.159-.566,1.485-1.23a.933.933,0,0,0-.339-1.117,2.4,2.4,0,0,0-2.4.141,3.535,3.535,0,0,0-1.739,1.824,1.018,1.018,0,0,0,1.372,1.273Z" transform="translate(-108.659 -79.665)" fill="#263238"/>
    <path id="Path_1581" data-name="Path 1581" d="M234.563,110.959a16.1,16.1,0,0,1-1.852-.17,3.068,3.068,0,0,1-1.866-.523.976.976,0,0,1-.127-1.174,2.361,2.361,0,0,1,2.262-.82,3.478,3.478,0,0,1,2.319.976,1.018,1.018,0,0,1-.735,1.711Z" transform="translate(-88.827 -80.252)" fill="#263238"/>
    <path id="Path_1582" data-name="Path 1582" d="M236.186,123.115c.4.269.792.665,1.3.622a3.748,3.748,0,0,0,1.414-.594h.071a1.881,1.881,0,0,1-1.626,1.046,1.414,1.414,0,0,1-1.287-1.046C235.973,123.115,236.072,123.073,236.186,123.115Z" transform="translate(-99.937 -74.098)" fill="#263238"/>
    <path id="Path_1583" data-name="Path 1583" d="M231.9,124.681a4.807,4.807,0,0,0,3.492,1.584,5.91,5.91,0,0,0,1.711-.212,1,1,0,0,0,.311-.085l.3-.1a.325.325,0,0,0,.226-.353h0a.622.622,0,0,0,0-.141h0v-.127c-.141-1.075-.509-2.672-.509-2.672.41.127,2.545.693,2.432.141a72.732,72.732,0,0,0-4.171-13.97.141.141,0,0,0-.254.085c.82,4.426,2.418,8.681,3.309,13.107a8.951,8.951,0,0,0-2.347-.311c-.141,0,.778,3.1.806,3.577h0a6.631,6.631,0,0,1-5.133-.721C231.9,124.484,231.8,124.6,231.9,124.681Z" transform="translate(-94.926 -80.062)" fill="#263238"/>
    <path id="Path_1584" data-name="Path 1584" d="M239.08,120.956a5.656,5.656,0,0,1-1.951,2.107,2.5,2.5,0,0,1-1.513.353c-1.159-.113-1.343-1.131-1.287-2.022a5.654,5.654,0,0,1,.283-1.414A7.282,7.282,0,0,0,239.08,120.956Z" transform="translate(-97.628 -75.389)" fill="#263238"/>
    <path id="Path_1585" data-name="Path 1585" d="M238.509,122.655a2.5,2.5,0,0,1-1.513.353c-1.159-.113-1.343-1.131-1.287-2.022A2.644,2.644,0,0,1,238.509,122.655Z" transform="translate(-99.008 -74.981)" fill="#ff98b9"/>
    <path id="Path_1586" data-name="Path 1586" d="M233.748,126.49c4.242,0,3.7-18.48,3.7-18.48a26.738,26.738,0,0,0,7.777,2.262,36.338,36.338,0,0,0,8.187-.424c.58-.17-6.688-3-6.688-3s18.226,3.408,19.187,0c.325-1.174-7.989-13.673-20.573-12.725-9.3.65-14.479,10.237-14.479,10.237s-4.468,5.005-4.242,7.932C226.876,116.1,229.308,126.49,233.748,126.49Z" transform="translate(-113.575 -86.112)" fill="#263238"/>
    <path id="Path_1587" data-name="Path 1587" d="M255.977,118.417s-5.019-6.334-7.932-4.51,1.145,11.212,4.751,12.315A3.591,3.591,0,0,0,257.49,124Z" transform="translate(-134.037 -78.039)" fill="#f7a9a0"/>
    <path id="Path_1588" data-name="Path 1588" d="M248.409,115.72v.1a9.049,9.049,0,0,1,5.019,5.387,1.965,1.965,0,0,0-2.983-.368s0,.141.071.127a2.234,2.234,0,0,1,2.474.622,11.316,11.316,0,0,1,1.273,1.895c.127.226.523.071.424-.17h0C254.517,120.1,251.816,115.833,248.409,115.72Z" transform="translate(-133.171 -77.152)" fill="#263238"/>
    <path id="Path_1589" data-name="Path 1589" d="M258.568,134.691,253.7,146.427,239.212,131.34l-4.242,4.737s14.139,23.867,14.139,22.807l4.977-10.11,6.928,7.154-.368-17.773Z" transform="translate(-120.481 -70.687)" fill="#ebebeb"/>
    <path id="Path_1590" data-name="Path 1590" d="M260.357,145.421c-.17-2.927-.24-5.882-.537-8.809a.1.1,0,0,0-.2,0c-.622,2.828,0,14.026,0,16.713h0c-.283-.311-6.433-6.306-6.49-6.207-1.075,1.6-4.723,8.964-4.977,9.629-2.22-3.789-10.76-17.575-13.4-21.209a.1.1,0,1,0-.17.1c1.951,4,13.234,22.623,13.418,22.51a115.084,115.084,0,0,0,5.2-10.689c1.032,1.3,7.225,8.059,7.253,7.621a91.4,91.4,0,0,0-.1-9.657Z" transform="translate(-119.428 -68.974)" fill="#263238"/>
    <rect id="Rectangle_382" data-name="Rectangle 382" width="65.408" height="3.818" transform="translate(94.623 164.223)" fill="#455a64"/>
    <rect id="Rectangle_383" data-name="Rectangle 383" width="39.76" height="3.818" transform="translate(120.272 164.223)" fill="#263238"/>
    <path id="Path_1591" data-name="Path 1591" d="M177.51,223.87l82.785.014,11.849-56.515h-82.8Z" transform="translate(-50.367 -55.773)" fill="#455a64"/>
    <path id="Path_1592" data-name="Path 1592" d="M207.424,188.832a4.454,4.454,0,0,0,4.51,5.062,5.755,5.755,0,0,0,5.571-5.062,4.468,4.468,0,0,0-4.51-5.062,5.741,5.741,0,0,0-5.571,5.062Z" transform="translate(-38.004 -48.985)" fill="#263238"/>
    <path id="Path_1593" data-name="Path 1593" d="M248.274,217.347c-5.1,2.828-11.311,9.374-15.553,10.11a4.935,4.935,0,0,1-5.373-2.46s-1.909,4.383-5.882,4.411c-2.05,0-3.874-3.224-3.874-3.224a5.882,5.882,0,0,1-5.2,3.252c-2.828-.141-4.242-3.379-4.242-3.379s-3.153,2.559-5.981,1.414c-5.656-2.177-6.985-26.356,1.725-30.555,4.058-1.965,4.044,3.959,4.044,3.959s2.064-8.484,7.07-8.894,4.482,7.395,4.482,7.395,2.078-8.229,7.282-8.116c5.415.127,3.62,7.734,3.62,7.734s3.351-5.571,7.324-4.567c6.532,1.654-.891,14.281.65,19.526h8.653Z" transform="translate(-54.959 -45.885)" fill="#f7a9a0"/>
    <path id="Path_1594" data-name="Path 1594" d="M194.1,215.438c5.062-2.192,7.494,1.414,12.725.735,5.882-.763,3.973-7.663-6.363-8.894h-8.95Z" transform="translate(-8.133 -39.253)" fill="#f7a9a0"/>
    <path id="Path_1595" data-name="Path 1595" d="M227.755,222.893h-.127a42.163,42.163,0,0,1,.17-24.984c.1-.254.551-.212.509.085a85.752,85.752,0,0,0-.551,24.9Z" transform="translate(-74.835 -43.201)" fill="#263238"/>
    <path id="Path_1596" data-name="Path 1596" d="M219.583,224.052c0,.1-.141.113-.17,0a39.349,39.349,0,0,1,1.881-27.232c.141-.3.566-.424.438,0C219.385,202.758,218.509,216.36,219.583,224.052Z" transform="translate(-56.979 -43.696)" fill="#263238"/>
    <path id="Path_1597" data-name="Path 1597" d="M214.964,196.4c-3.69,8.4-4.312,17.151-3.662,26.214a.1.1,0,1,1-.2,0c-1.527-4.355-1.343-10.18-.806-14.7a24.334,24.334,0,0,1,4.369-11.679C214.766,196.133,215.049,196.218,214.964,196.4Z" transform="translate(-39.012 -43.844)" fill="#263238"/>
  </g>
  <g id="freepik--Plant--inject-18" transform="translate(21.096 308.556)">
    <path id="Path_1598" data-name="Path 1598" d="M452.8,319.212A131.5,131.5,0,0,0,449.778,298c-1.5-6.306-3.634-12.725-7.607-17.943-3.62-4.751-8.837-8.484-14.889-9.275-5.825-.721-11.311,1.881-15.666,5.557-5.415,4.553-9.558,10.576-13.432,16.416a201.864,201.864,0,0,0-11.608,20.318c-.113.226.24.424.354.184a125.653,125.653,0,0,1,10.378-16.967,106.443,106.443,0,0,1,11.948-14.464c4-3.917,9.092-7.565,14.889-7.748s11.1,3.054,14.578,7.494c3.888,4.977,5.854,11.2,7.338,17.25a130.236,130.236,0,0,1,3,20.247c1.131,14,1.414,28.095,1.767,42.149q.255,11.919.353,23.839,0,6.052.1,12.089a74.439,74.439,0,0,0,.467,11.651c.127.792,1.414.707,1.541,0a70.224,70.224,0,0,0,.537-11.043c0-3.818.1-7.635.127-11.453.071-7.423.113-14.86.085-22.283C453.992,349.088,453.808,334.129,452.8,319.212Z" transform="translate(-356.742 -265.394)" fill="#263238"/>
    <path id="Path_1599" data-name="Path 1599" d="M475.515,310.25c-.749-3.959-2.079-9.134-4.341-12.2-4.058-5.514-8.484-3.111-4.383,3a36.31,36.31,0,0,1,5.656,15.058s-6.815,9.742-15.044,14.535c.354-3.747,1.414-9.5.679-15.058-1.569-12.033-8.851-11.311-7.07-1.8,1.414,7.663,2.036,15.794,1.654,19.328a41,41,0,0,1-8.795,4.242c.467-1.414.961-3.068,1.527-5.09,2.913-10.788-4.242-14.139-4.51-8.088a84.038,84.038,0,0,1-2.828,15.3c-3.945,1.329-7.211,2.234-9.219,2.941a33.566,33.566,0,0,0-13.489,9.219,42.647,42.647,0,0,1-9.191-11.891c2.517-2.163,6.49-5.387,12-9.275,10.35-7.31,6.744-16.529-1.414-10.788-5.924,4.129-10.505,11.792-12.584,15.737a63.992,63.992,0,0,1-4.694-21.534c8.13-7.635,28.279-18.254,22.156-18.254-5.444,0-17.646,7.989-22.114,11.071a58.927,58.927,0,0,1,.693-6.264c7.649-5.005,32.52-12.81,28.547-15.058-4.355-2.46-21.7,5.571-26.935,8.116a31.39,31.39,0,0,1,4.6-9.516c10.562-14.139,29.622-19.031,37.936-16.331,5.9,1.909,4.171,16.84,5.43,16.331C473.45,274.52,484.21,281.25,475.515,310.25Zm-57.971-1.64c-1.668-2.022-9.431,3.931-7.183,7.2s9.36-4.6,7.2-7.2Zm40.537-12.725c-2.036,1.3.976,8.851,4.129,6.561,2.686-1.965-2.05-7.876-4.115-6.575Z" transform="translate(-399.474 -266.937)" fill="#15ace5"/>
    <path id="Path_1600" data-name="Path 1600" d="M450.457,292.929c-1.075-2.107-2.192-4.242-3.408-6.235a36.359,36.359,0,0,0-3.9-5.656l1-1.244c.141-.156-.1-.4-.24-.226-.4.453-.778.9-1.159,1.414a.339.339,0,0,0-.156.184c-1.414,1.753-2.828,3.563-4.157,5.4a61.494,61.494,0,0,0-6.872,1.994c-2.319.778-4.609,1.584-6.872,2.531-.226.1-.113.481.127.382,2.234-.99,4.5-1.951,6.8-2.729s4.426-1.3,6.645-1.937c-.721,1.018-1.414,2.05-2.121,3.1a80.6,80.6,0,0,0-12.132,4.949c-4.1,1.951-8.059,4.242-11.99,6.49-.212.127,0,.467.212.339a130.08,130.08,0,0,1,11.919-6.165c3.8-1.782,7.734-3.252,11.566-4.949-9.643,15.072-15.44,32.45-23.174,48.554-.113.226.255.424.354.184,2.361-5.656,5.076-11.142,7.649-16.7,2.319-4.977,4.567-10,6.886-14.973q1.018-2.177,2.078-4.369c-.424,8.045-.254,16.232-1.569,24.192a.2.2,0,0,0,.4,0c.551-8.6,2.064-17.066,2.008-25.719v-.113c1.64-3.28,3.379-6.532,5.26-9.685,3.21,7.536,6.561,15.186,8.059,23.259,0,.254.453.141.382-.113-2.177-8.1-4.242-16.218-8.1-23.711a93.783,93.783,0,0,1,6.8-9.8c1.075,2.008,2.46,3.888,3.676,5.811s2.361,3.747,3.464,5.656a82.948,82.948,0,0,1,6.038,12.725c.085.241.481.113.382-.127C454.43,301.412,452.564,297.17,450.457,292.929Z" transform="translate(-394.918 -261.733)" fill="#263238"/>
    <path id="Path_1601" data-name="Path 1601" d="M414.432,306.2c-6.207-6.207-13.4-14.366-22.976-14.351-9.233,0-16.034,7.465-19.951,15.143-4.086,8.017-5.557,17.108-6.7,25.946a313.2,313.2,0,0,0-2.446,31.912c-.17,5.924-.155,11.863,0,17.787a115.357,115.357,0,0,0,1.414,17.943c.17.962,1.7.99,1.753,0,.283-4.991.085-10,0-14.988s0-9.9.226-14.761c.368-9.9,1.089-19.866,2.262-29.692,1.018-8.625,1.824-17.5,4.411-25.832,2.333-7.522,6.7-16.119,14.323-19.427,10.392-4.51,20.559,3.719,27.374,10.675C414.291,306.625,414.6,306.371,414.432,306.2Z" transform="translate(-282.795 -256.625)" fill="#263238"/>
    <path id="Path_1602" data-name="Path 1602" d="M407.8,324.272h0c0,1.273-.127,2.531-.212,3.761a22.4,22.4,0,0,0-10.152-4.242c-8.795-.933-8.229,5.755-2.361,6.037a33.454,33.454,0,0,1,12.075,2.418c-1.414,11.608-4.638,20.94-5.1,21.067a169.969,169.969,0,0,1-23.231-2.941c2.177-4.652,7.154-10.845,4.624-11.311s-5.316,5.019-6.716,10.93a110.662,110.662,0,0,1-16.967-4.652c3.86-3.351,9.9-7.508,7.55-9.289s-7.07,4.1-9.9,8.356a33.663,33.663,0,0,1-7.3-4.072c5.2-7.649,17.9-9.2,16.246-14.747s-13.531,2.149-18.876,12.386c-6.264-6.49-8.1-15.694-7.437-23.542,5.458-.636,15.963.509,15.2-3.408s-8.342-3.167-14.563-.877a21.815,21.815,0,0,1,3.648-8.639c5.755-7.381,23.3,2.008,23.3,2.008s-1.88-17.646,4.822-20.7c3.86-1.753,10.661-1.739,17.49,2.291-3.832.311-8.484,1.527-10.322,4.242-2.375,3.393,1.414,5.232,3.761,3.676,1.683-1.117,4.822-4.609,10.491-5.062a34.334,34.334,0,0,1,6.334,7.07,32.132,32.132,0,0,1,1.852,2.913,24.136,24.136,0,0,0-20.544.368c-7.607,3.789-3.365,11.693,3.181,8.611s12.725-6.08,19.724-4.341a49.117,49.117,0,0,1,3.337,19.668,34.443,34.443,0,0,0-11.311-5.4c-7.565-1.994-9.9,2.531-1.541,3.365A33.426,33.426,0,0,1,407.8,324.272Zm-9.2-12.146c.523-2.446-4.85-3.153-5.741-1.159-.721,1.7,5.232,3.676,5.741,1.159ZM352.689,325.7c-.495-1.329-4.086.184-3.761,1.852.452,2.234,4.256-.509,3.761-1.852ZM378,334.3c-2.616-1.032-6.7,5.458-3.846,6.956S380.175,335.159,378,334.3Z" transform="translate(-244.566 -260.825)" fill="#15ace5"/>
    <path id="Path_1603" data-name="Path 1603" d="M388.879,345.447c-3.945-6.589-7.833-13.22-11.976-19.7-1.937-3.012-3.945-5.967-6.052-8.865a5.4,5.4,0,0,0,.947-.212l1.569-.311c1.2-.212,2.432-.382,3.648-.509s2.3-.17,3.464-.184a18.045,18.045,0,0,1,3.7.184c.142,0,.17-.2,0-.2-1.23,0-2.489-.1-3.733-.127s-2.39,0-3.591.085-2.234.184-3.351.353c-.622.1-1.23.2-1.838.325-.368.071-.749.127-1.1.226-2.135-2.927-4.355-5.811-6.645-8.625a78.6,78.6,0,0,1,21.6-6.886.1.1,0,1,0,0-.2,73.171,73.171,0,0,0-21.9,6.645c-1.258-1.555-2.531-3.1-3.8-4.623s-2.955-3.393-4.242-5.217c-.085-.113-.254,0-.155.113a77.612,77.612,0,0,1,5.005,6.136h0a76.155,76.155,0,0,0-8.017,6.447q-3.945,3.478-7.678,7.2c-.085.085,0,.24.141.141,2.46-2.446,5.005-4.765,7.678-6.985s5.458-4.242,8.144-6.433l1.838,2.4.933,1.216.071.085,3.054,4.016a31.613,31.613,0,0,0-3.04,5.5c-.891,1.866-1.654,3.789-2.361,5.656a83.431,83.431,0,0,0-3.294,12.358c0,.127.17.184.2,0a72.109,72.109,0,0,1,3.577-12.1c.778-2.022,1.64-3.987,2.545-5.953s1.81-3.492,2.573-5.288c.891,1.174,1.767,2.347,2.63,3.535.254.353.495.707.749,1.046,0,.085,0,.184.085.184h0q4.058,5.656,7.791,11.566a3.532,3.532,0,0,0-.339.862c-.17.481-.311.947-.453,1.414a29.347,29.347,0,0,0-.693,2.927c-.17.933-.3,1.866-.4,2.828a23.762,23.762,0,0,1-.24,3.181c0,.17.226.17.2,0a10.094,10.094,0,0,1,.226-2.983c.141-1.018.325-2.036.566-3.026s.453-1.81.721-2.7c.141-.452.283-.891.438-1.329s.184-.481.269-.735q1.753,2.757,3.478,5.543c2.276,3.69,4.525,7.395,6.787,11.085C388.695,345.8,388.992,345.631,388.879,345.447Z" transform="translate(-232.427 -254.258)" fill="#263238"/>
    <path id="Path_1604" data-name="Path 1604" d="M433.146,386.049c-.1-3.733-.693-7.494-1.089-11.212s-.834-7.465-1.23-11.2c-.763-7.183-1.188-14.549-2.828-21.591a31.375,31.375,0,0,0-8.795-16.161,14.322,14.322,0,0,0-8.611-4.115,14.775,14.775,0,0,0-9.148,2.828,31.587,31.587,0,0,0-7.706,8.1,80.04,80.04,0,0,0-6,9.742c-.071.141.127.212.2.1a49.769,49.769,0,0,1,12.994-14.549,15.27,15.27,0,0,1,8.172-3.422,11.184,11.184,0,0,1,7.946,3.167c4.355,3.789,6.872,9.36,8.37,14.832,1.782,6.49,2.361,13.305,3.252,19.95.523,3.959,1.032,7.918,1.555,11.863s.834,7.975,1.683,11.849a.65.65,0,0,0,1.23-.184Z" transform="translate(-337.508 -244.242)" fill="#263238"/>
    <path id="Path_1605" data-name="Path 1605" d="M448.743,357.567a20.529,20.529,0,0,1-4.072,4.157c.622-3.648,1.414-10.124-.481-13.574-2.828-5.359-6.235-2.686-4.539,1.965a37.722,37.722,0,0,1,2.757,13.206,56.7,56.7,0,0,1-12.414,5.854,20.813,20.813,0,0,0,.41-6.391c-.565-5.656-4.949-5.656-3.818.339a36.293,36.293,0,0,1,.608,7,128.244,128.244,0,0,1-19.343,4.355,56.373,56.373,0,0,1-8-14.238c4.652-1.174,14.139-1.414,13.885-4.765-.269-4.482-9.4-1.032-14.747,2.22a35.574,35.574,0,0,1-1.612-12.061,60.9,60.9,0,0,1,12.853-2.135c9.586-.82,9.12-6.264,2.163-6.136-5.133.085-11.622,3.238-14.691,4.864,1.994-13.051,11.962-21.421,19.936-21.732,13.418-.551,8.6,16.161,8.6,16.161s9.092-6.405,17.674-6.235S457.92,344.8,448.743,357.567Zm-35.857-24.136c.311-1.881-5.656-2.333-6,.071-.353,2.715,5.7,1.852,6-.071Zm-9.629,19.6c.127-1.23-2.46-1.414-3.054.1-.382,1,2.9,1.1,3.054-.1Zm32.223,1.131c-2.022.3-3.167,7.522.311,7.381,2.658-.113,1.4-7.621-.311-7.381Z" transform="translate(-371.472 -244.774)" fill="#15ace5"/>
    <path id="Path_1606" data-name="Path 1606" d="M412.992,350.8c-.325-.891-.622-1.81-.919-2.729q.4,1.414.679,2.828a.13.13,0,0,0,.24-.1Z" transform="translate(-351.783 -233.354)" fill="#263238"/>
    <path id="Path_1607" data-name="Path 1607" d="M438.572,345.641c-.636-1.852-1.343-3.676-2.064-5.5-.382-.976-.778-1.937-1.2-2.9a12.443,12.443,0,0,0-1.2-2.418,18.57,18.57,0,0,0,1.089-2.347c0-.071,0-.127-.127-.071a29.69,29.69,0,0,0-2.616,4.058l-1.089,1.923a20.81,20.81,0,0,0-2.262.339c-.806.156-1.6.311-2.4.495l-2.389.551c-.792.2-1.569.452-2.375.58a.132.132,0,0,0,.071.254,15.169,15.169,0,0,1,2.5-.665c.778-.155,1.541-.3,2.319-.41s1.569-.212,2.347-.283l1.782-.141c-.325.551-.65,1.117-.961,1.683a2.47,2.47,0,0,0-.141.269,7.48,7.48,0,0,0-1.937.226c-.693.127-1.414.254-2.064.41-1.414.311-2.828.636-4.242,1.032-2.828.806-5.769,1.739-8.639,2.672-.156,0,0,.3.1.24a80.593,80.593,0,0,1,8.682-2.4c1.414-.311,2.743-.636,4.129-.919l2.064-.438a11.9,11.9,0,0,0,1.6-.354q-2.206,4.086-4.143,8.328c-2.828,6.165-5.118,12.5-7.508,18.819,0,.156.184.269.24.1a175.017,175.017,0,0,1,7.989-18.381c.537-1.089,1.089-2.177,1.64-3.266a3.713,3.713,0,0,0,.141.665c.127.749.269,1.5.4,2.248.24,1.5.495,2.983.721,4.5a53.039,53.039,0,0,1,1.089,9.318.127.127,0,1,0,.255,0c-.24-1.485-.24-3.04-.339-4.539s-.212-3.139-.4-4.708-.368-3.012-.608-4.51c-.127-.749-.254-1.5-.4-2.234a4.453,4.453,0,0,0-.424-1.626c.792-1.584,1.569-3.167,2.361-4.737s1.5-2.941,2.262-4.411c.325-.608.679-1.244,1.032-1.866a15.315,15.315,0,0,0,.891,2.262c.339.834.679,1.683,1.032,2.531.764,1.866,1.414,3.761,2.206,5.656,1,2.686,2.135,5.444,2.969,8.229C440.184,351.141,439.491,348.356,438.572,345.641Z" transform="translate(-380.898 -239.847)" fill="#263238"/>
    <path id="Path_1608" data-name="Path 1608" d="M412.914,348.24a3.014,3.014,0,0,0-.184-.65Z" transform="translate(-352.624 -233.553)" fill="#263238"/>
    <path id="Path_1609" data-name="Path 1609" d="M431.73,362.09l-.947,19.993-2.432,51.481H375.229L372.8,382.083l-.947-19.993Z" transform="translate(-313.638 -227.551)" fill="#37474f"/>
    <path id="Path_1610" data-name="Path 1610" d="M431.73,362.09l-.947,19.993H372.8l-.947-19.993Z" transform="translate(-313.638 -227.551)" fill="#263238"/>
    <rect id="Rectangle_384" data-name="Rectangle 384" width="67.43" height="16.161" transform="translate(54.436 126.466)" fill="#37474f"/>
    <rect id="Rectangle_385" data-name="Rectangle 385" width="9.332" height="8.455" transform="translate(65.875 206.013)" fill="#37474f"/>
    <rect id="Rectangle_386" data-name="Rectangle 386" width="9.332" height="4.228" transform="translate(65.875 206.013)" fill="#263238"/>
    <rect id="Rectangle_387" data-name="Rectangle 387" width="9.318" height="8.455" transform="translate(101.096 206.013)" fill="#37474f"/>
    <rect id="Rectangle_388" data-name="Rectangle 388" width="9.318" height="4.228" transform="translate(101.096 206.013)" fill="#263238"/>
  </g>
</svg>
