<svg id="Component_17_4" data-name="Component 17 – 4" xmlns="http://www.w3.org/2000/svg" width="24" height="24" viewBox="0 0 24 24">
  <g id="Group_233" data-name="Group 233" transform="translate(-1109 -1519)">
    <path id="Path_2301" data-name="Path 2301" d="M24.627,968.685a.383.383,0,0,0-.218.083l-5.654,5.321a.335.335,0,0,0-.01.468.343.343,0,0,0,.468.021l5.092-4.791v15.194a.333.333,0,0,0,.665,0V969.787l5.092,4.791a.355.355,0,0,0,.478-.021.332.332,0,0,0-.021-.468l-5.654-5.321a.341.341,0,0,0-.239-.083Z" transform="translate(1096.345 554.314)"/>
    <g id="Rectangle_494" data-name="Rectangle 494" transform="translate(1109 1519)" fill="none" stroke="#000" stroke-linecap="round" stroke-width="0.5">
      <rect width="24" height="24" rx="12" stroke="none"/>
      <rect x="0.25" y="0.25" width="23.5" height="23.5" rx="11.75" fill="none"/>
    </g>
  </g>
</svg>
