<svg id="freepik--Character--inject-41" xmlns="http://www.w3.org/2000/svg" width="130.741" height="303.625" viewBox="0 0 130.741 303.625">
  <path id="Path_3949" data-name="Path 3949" d="M248.059,451.64c1.988.647,58.893.12,61.029-1.276.823-.518,1.23-8.821,1.433-18.854V431.2c0-2.071-2.506-36.765-2.506-36.765l-37.2.24,2.774,30.4.213,6.057v.62s-21.693,9.94-23.894,11.734S246.062,450.993,248.059,451.64Z" transform="translate(-242.524 -148.29)" fill="#f7a9a0"/>
  <path id="Path_3950" data-name="Path 3950" d="M310.485,440.16c-.231,7.564-.629,13.223-1.3,13.648-2.154,1.387-59.059,1.923-61.029,1.267s-.287-6.371,1.9-8.146a84.456,84.456,0,0,1,8.886-4.67c-2.228,2.423-3.357,5.1,2.617,5.1C272.157,447.354,290.687,445.606,310.485,440.16Z" transform="translate(-242.598 -151.734)" fill="#263238"/>
  <path id="Path_3951" data-name="Path 3951" d="M247.28,455.242c15.442-.213,31.661-.7,32.789-1.433.684-.425,1.082-6.084,1.313-13.648-3.7,1.026-7.4,1.914-10.957,2.691Z" transform="translate(-213.496 -151.734)" fill="#37474f"/>
  <path id="Path_3952" data-name="Path 3952" d="M231.349,417.2h36.71s-5.788-95.714-5.465-97.388c.407-2.145,2.829-11.827,6.047-24.486,1.008-3.958,2.1-8.211,3.227-12.613,3.061-11.91,6.473-24.92,9.358-36.248,4.411-16.959,7.851-30.145,7.851-30.145H254.318s-4.05,12.835-9.154,29.525c-8.322,27.139-19.418,64.478-20.509,73.558C222.879,334.06,231.349,417.2,231.349,417.2Z" transform="translate(-200.043 -134.875)" fill="#f7a9a0"/>
  <path id="Path_3953" data-name="Path 3953" d="M200.285,451.64c1.988.647,58.893.12,61.029-1.276.823-.518,1.23-8.821,1.433-18.854V431.2c.046-2.071-1.738-36.765-1.738-36.765l-36.257.24,1.036,29.248v1.156l.213,6.057v.62s-21.693,9.94-23.894,11.734S198.288,450.993,200.285,451.64Z" transform="translate(-150.569 -148.29)" fill="#f7a9a0"/>
  <path id="Path_3954" data-name="Path 3954" d="M262.718,440.16c-.231,7.564-.629,13.223-1.313,13.648-2.145,1.387-59.05,1.923-61.029,1.267s-.287-6.371,1.9-8.146a84.454,84.454,0,0,1,8.886-4.67c-2.228,2.423-3.357,5.1,2.617,5.1C224.344,447.354,242.921,445.606,262.718,440.16Z" transform="translate(-150.651 -151.734)" fill="#263238"/>
  <path id="Path_3955" data-name="Path 3955" d="M199.48,216.32s.8,16.644,4.623,29.784c.305,1.082.638,2.154.989,3.181a62.038,62.038,0,0,1,10.014,5.151s1.7,63.535,1.609,67.5c-.351,14.795,2.848,95.88,2.848,95.88l36.58.166s-4.022-90.619-3.967-96c.083-8.692-1.988-47.085-3.578-75.094a220.8,220.8,0,0,0-3.828-30.515Z" transform="translate(-144.058 -134.875)" fill="#f7a9a0"/>
  <path id="Path_3956" data-name="Path 3956" d="M233.534,216.3s-28.249,87.29-29.913,97.924a173.518,173.518,0,0,0-1.96,17.569s24.559,12.354,41.278,11.928,46.391-7.055,46.391-7.055-4.623-87.641-4.716-88.557,6.149-10.782-3.283-32Z" transform="translate(-179.258 -134.859)" fill="#263238"/>
  <path id="Path_3957" data-name="Path 3957" d="M241.922,316.578c0,9.006.166,18,.425,27h.157l-.074-9.866c0-5.705-.055-11.42,0-17.116.055-2.857.092-5.7.4-8.526l.841-8.516,1.683-17.051,3.2-34.13,1.544-17.051,1.3-15.137h0l-1.609,15.109-1.766,17.079-3.357,34.075-1.6,17.042-.8,8.526a85.686,85.686,0,0,0-.342,8.563Zm-35.461,5.178.4-7.915a23.613,23.613,0,0,1,.546-3.939c.25-1.3.536-2.589.823-3.884,2.358-10.3,5.086-20.5,7.767-30.718s5.548-20.343,8.378-30.515l4.337-15.276,3.837-13.2h.046l-15.9,59.18c-2.774,10.171-5.456,20.4-7.924,30.653-.3,1.285-.6,2.571-.869,3.856a23.037,23.037,0,0,0-.583,3.884l-.5,7.9-.925,13.667h-.046ZM275.3,221.964c-.472-1.96-1-3.911-1.6-5.844h.046c.638,1.914,1.193,3.847,1.711,5.8a71.668,71.668,0,0,1,1.655,8.017,44.755,44.755,0,0,1,.518,8.174,23.174,23.174,0,0,1-1.563,8.008l1.6,24.791,1.526,24.865,1.433,24.865.925,16.866h-.139l-1.184-16.866L278.6,295.781l-1.553-24.865-1.461-24.865v-.12a22.821,22.821,0,0,0,1.627-7.869,44.953,44.953,0,0,0-.416-8.109,73.628,73.628,0,0,0-1.5-7.989Zm-57.478,97.378a46.432,46.432,0,0,1,.592-8.239c1.914-10.828,4.133-21.582,6.279-32.364l6.713-32.216,3.44-16.108,3.107-14.138h0l-6.057,30.33-6.528,32.281c-2.2,10.763-4.411,21.517-6.427,32.3a45.308,45.308,0,0,0-.675,8.165l-.148,8.23q-.092,6.158-.129,12.335H217.9q-.083-6.158-.12-12.317C217.778,324.835,217.788,322.089,217.825,319.342Zm11.938-5.113a62.459,62.459,0,0,1,.8-8.415l1.156-8.322,2.386-16.644,4.984-33.4,2.561-16.644,2.3-14.5h0l-1.97,14.5-2.367,16.7-4.827,33.372-2.441,16.69-1.193,8.322a65.2,65.2,0,0,0-.86,8.322c-.176,5.613-.259,11.235-.351,16.857l-.2,11.8h-.111C229.633,333.333,229.586,323.79,229.762,314.229Zm24.726-7.6.333-8.4.7-16.811L257,247.855l.8-16.774.777-14.9h0l-.481,14.906-.61,16.783-1.322,33.566-.73,16.774-.361,8.4-.092,2.09v2.1l.046,4.2.185,16.792.065,10.393h-.129l-.277-10.412-.379-16.792-.092-4.2v-2.108ZM267.2,237.055c0-2.524-.148-5.049-.277-7.582-.25-4.429-.592-8.868-1.026-13.288h0q.786,6.621,1.313,13.269c.185,2.534.314,5.058.379,7.6a40.682,40.682,0,0,1-.388,7.629l.259,25.188.166,25.253.065,12.622c0,2.108.092,4.207.176,6.306l.277,6.316.777,19.622h-.1l-1.128-19.622-.342-6.306c-.1-2.108-.259-4.207-.24-6.306l-.12-12.631-.185-25.253-.1-25.262v-.055a40.612,40.612,0,0,0,.5-7.527Z" transform="translate(-175.358 -134.86)" fill="#455a64"/>
  <path id="Path_3958" data-name="Path 3958" d="M215.686,165.061c-.573,10.3-.98,20.9,0,31.18.786,8,4.152,14.591,12.474,16.552,7.712,1.849,18.706,1.683,25.234-3.431,3.042-2.386,4.1-5.752,3.893-9.524-.277-5.243-4.438-33.954-5.678-42.914a108.634,108.634,0,0,0-3.19-16.256c-2.7-9.1-9.1-10.856-9.82-11.189a14.693,14.693,0,0,0-10.828-.388,11.66,11.66,0,0,0-7.1,6.325C216.416,144.293,216.231,155.417,215.686,165.061Z" transform="translate(-159.663 -128.241)" fill="#263238"/>
  <path id="Path_3959" data-name="Path 3959" d="M213.184,131.239c6.584,3.07,8.146,10.264,9.746,16.7,2.21,8.969,4.281,17.967,5.909,27.065.786,4.374,1.47,8.757,2.016,13.167.536,4.217,1.359,8.72,1.073,12.946-.472,7.046-6.917,10.245-13.158,11.253a.24.24,0,0,1-.092-.472c3.551-.7,7.185-1.692,9.829-4.337,3.4-3.384,3.005-7.8,2.608-12.2-.684-7.49-1.794-14.924-3.172-22.322s-3.014-14.739-4.771-22.063c-1.664-6.963-2.885-16.126-10.023-19.668C213.073,131.313,213.11,131.2,213.184,131.239Z" transform="translate(-132.5 -128.466)" fill="#263238"/>
  <path id="Path_3960" data-name="Path 3960" d="M251.391,143.137c1.248-5.382,4.041-10.634,9.718-12.2h0c-7.323,2.339-9.108,10.347-10.088,17.033q-1.535,10.56-2.293,21.212c-.49,6.824-.841,13.7-.7,20.546.139,7.4,1.479,14.3,5.844,20.389.083.129-.083.277-.185.157-4.3-4.919-5.724-11.706-6.066-18.059a191.233,191.233,0,0,1,.74-25.207C249.024,159.106,249.634,150.895,251.391,143.137Z" transform="translate(-193.417 -128.444)" fill="#263238"/>
  <path id="Path_3961" data-name="Path 3961" d="M301.12,178.613c-12.585,14.647-24.042,30.108-34.472,30.4-9.922.277-26.816-28.175-28.822-36.793-.684-2.968,21.443-10.07,23.487-7.527,3.847,4.781,9.644,18.364,11.179,18.4s12.9-8.211,26.326-14.971C306.954,164.012,309.839,168.459,301.12,178.613Z" transform="translate(-229.793 -130.946)" fill="#f7a9a0"/>
  <path id="Path_3962" data-name="Path 3962" d="M298.122,173.055c-1.405-2.293-6.935-13.389-7.786-16.82s-2.571-13.473,0-14.4,3.3,1.988,3.3,1.988-.055-4.355,2.608-5.049,3.7,3.865,3.7,3.865.268-4.475,2.977-4.975,2.94,4.254,2.94,4.254.055-4.115,2.46-3.579c2.885.638,1.933,8.193,3.153,11.91.277.851,6.833,16.718,6.833,16.718Z" transform="translate(-288.98 -128.948)" fill="#f7a9a0"/>
  <path id="Path_3963" data-name="Path 3963" d="M300.965,141.812c-.684,5.548,0,8.119,2.321,13.112a.085.085,0,0,1-.148.083c-2.774-4.679-4.032-7.758-2.441-13.241C300.78,141.5,301,141.543,300.965,141.812Z" transform="translate(-284.157 -129.246)" fill="#263238"/>
  <path id="Path_3964" data-name="Path 3964" d="M306.695,142.565c-.213,5.835.481,8.618,2.552,14.027,0,.074-.092.129-.13.055-2.478-5.141-3.7-8.239-2.719-14.055C306.445,142.334,306.7,142.3,306.695,142.565Z" transform="translate(-295.713 -129.306)" fill="#263238"/>
  <path id="Path_3965" data-name="Path 3965" d="M312.041,144.609c.2,5.668.832,8.738,3.523,13.732a.1.1,0,1,1-.176.111,18.814,18.814,0,0,1-3.514-13.824C311.912,144.276,312.032,144.248,312.041,144.609Z" transform="translate(-307.283 -129.454)" fill="#263238"/>
  <path id="Path_3966" data-name="Path 3966" d="M298.79,169.9s1.48-6.861,1.461-10.024-4.411-14.915-7-14.111c-3.347,1.036-2.145,8.322-1.1,11.817,0,0-7.74,2.395-8.008,7.8S298.79,169.9,298.79,169.9Z" transform="translate(-266.448 -129.558)" fill="#f7a9a0"/>
  <path id="Path_3967" data-name="Path 3967" d="M301.1,146.4c-2.367,3.153-.684,7.647.083,11.1a.324.324,0,0,1-.342.407c-3.181,1.221-7.314,3.865-8.174,7.4a.083.083,0,0,1-.157,0c.416-3.874,4.254-6.806,7.823-7.915-.841-3.542-2.33-8.119.74-10.958C301.089,146.362,301.117,146.38,301.1,146.4Z" transform="translate(-275.127 -129.607)" fill="#263238"/>
  <path id="Path_3968" data-name="Path 3968" d="M260.515,168.816l-22.858,15.248s14.388,26.224,24.042,26.048,28.813-20.953,37.939-35.3c6.316-9.95-.111-9.6-7.656-5.742s-23.441,13.223-24.116,12.862S260.515,168.816,260.515,168.816Z" transform="translate(-225.418 -131.127)" fill="#15ace5"/>
  <path id="Path_3969" data-name="Path 3969" d="M289.485,174.818c-9.127,14.379-28.332,35.064-37.967,35.249-4.254.074-9.45-5-13.87-10.7h0c11.494-7.4,37.847-24.92,51.431-32.78C292.352,166.311,293.508,168.465,289.485,174.818Z" transform="translate(-215.256 -131.127)" fill="#000102" opacity="0.1"/>
  <path id="Path_3970" data-name="Path 3970" d="M281.173,189.339c3.273-2.071,16.385-11.1,19.085-13.177.185-.148.139-.305-.074-.176a209.559,209.559,0,0,0-19.095,13.223A.077.077,0,0,0,281.173,189.339Z" transform="translate(-263.718 -131.833)" fill="#263238"/>
  <path id="Path_3971" data-name="Path 3971" d="M258.931,214.617l-49.7.814,3.893-14.878a15.553,15.553,0,0,1-2.238-12.946c1.193-4.383,6.852-10.948,10.319-15.119,8.442-10.171,15.784-5.548,18.124-2.95C248.27,179.488,258.931,214.617,258.931,214.617Z" transform="translate(-155.861 -131.1)" fill="#fff"/>
  <path id="Path_3972" data-name="Path 3972" d="M233.976,166.7s-4.873,12.946-6.778,15.9-7.508,8.248-7.508,8.248-.647-7.638,0-12.021,4.355-10.588,4.355-10.588a9.117,9.117,0,0,0-2.626,2.062c-4.207,4.291-11.521,12.724-12.631,18.494a15.442,15.442,0,0,0,2.265,11.669l-5.6,17.883,7.85,2.432,3.865-4.623,3.985,5.077,39.761-5.548-6.6-12.465s-9.469-24.578-13.214-29.96C236.787,167.19,233.976,166.7,233.976,166.7Z" transform="translate(-154.346 -131.138)" fill="#15ace5"/>
  <path id="Path_3973" data-name="Path 3973" d="M257.082,202.386a42.1,42.1,0,0,0-6.39-.1c-1.063.074-2.108.194-3.153.342-.527.074-1.054.129-1.572.176a7.083,7.083,0,0,1-1.655,0v.074a10.874,10.874,0,0,0,1.553.25,11.858,11.858,0,0,0,1.516,0c1.073-.065,2.145-.185,3.218-.259,2.164-.157,4.327-.314,6.473-.314C257.175,202.561,257.184,202.395,257.082,202.386Z" transform="translate(-186.523 -133.812)" fill="#263238"/>
  <path id="Path_3974" data-name="Path 3974" d="M249.552,205.29a46.553,46.553,0,0,0-5.141-1.193c-.869-.148-1.738-.24-2.617-.314l-1.258-.083h-1.4c-.046,0-.055.065,0,.074.435.046.86.157,1.295.222l1.3.2,2.6.407c1.738.259,3.468.527,5.2.841A.081.081,0,0,0,249.552,205.29Z" transform="translate(-174.157 -133.924)" fill="#263238"/>
  <path id="Path_3975" data-name="Path 3975" d="M183.42,178.977c3.7,5.548,21.268,26.279,21.795,28.425.287,1.2-4.457,5.308-4.42,6.168.176,3.486,9.746,31.032,12.853,28.795,4.087-2.94,19.085-27.361,17.1-37.08s-41.8-35.23-47.944-37.5S179.758,173.5,183.42,178.977Z" transform="translate(-100.184 -131.19)" fill="#15ace5"/>
  <path id="Path_3976" data-name="Path 3976" d="M206.72,189.29c1.683,2.228,3.44,4.383,5.215,6.538s3.7,4.143,5.548,6.223c.925,1.026,1.849,2.062,2.719,3.135a17.669,17.669,0,0,1,2.312,3.31,1.212,1.212,0,0,1,.12.4,1.184,1.184,0,0,1-.065.379,6.334,6.334,0,0,1-.4.925,18.231,18.231,0,0,1-1.11,1.729c-.767,1.147-1.646,2.228-2.515,3.32a37.4,37.4,0,0,0,2.885-3.042,19.217,19.217,0,0,0,1.239-1.711,7,7,0,0,0,.509-.98,1.924,1.924,0,0,0,.139-.638,2.366,2.366,0,0,0-.139-.61,15.968,15.968,0,0,0-2.293-3.606c-.869-1.1-1.785-2.155-2.709-3.2-1.849-2.09-3.884-3.995-5.714-6.084S208.69,191.269,206.72,189.29Z" transform="translate(-117.927 -132.839)" fill="#263238"/>
  <path id="Path_3977" data-name="Path 3977" d="M220.24,192.48a7.833,7.833,0,0,0,1.627,1.091,7.4,7.4,0,0,0,1.849.675,8.258,8.258,0,0,0-3.458-1.766Z" transform="translate(-130.827 -133.079)" fill="#263238"/>
  <path id="Path_3978" data-name="Path 3978" d="M205.294,236.135c-1.535-3.56-8.322-17.911-10.042-20.907-.111-.213-.277-.185-.185,0,4.355,10.874,8.424,17.55,10.088,20.963C205.2,236.274,205.34,236.274,205.294,236.135Z" transform="translate(-89.112 -134.781)" fill="#263238"/>
  <path id="Path_3979" data-name="Path 3979" d="M203.226,253.674c-2.885-1.849.925-4.2.925-4.2s-6.343,2.044-8.581-1.026,2.6-5.622,2.931-5.816c-.333.1-6.214,1.849-8.146-1.489-2-3.449,3.218-5.308,3.551-5.428-.342,0-4.956-.083-5.853-2.931-1.535-4.9,11.688-5.779,14.471-8.868,0,0-1.433-6.473-1.544-6.658a7.507,7.507,0,0,0,3.847,3.107c2.876.74,5.465,1.147,6.658,2.5a3.754,3.754,0,0,1,.527,4.457s3.606-.5,5.215,2.053c.814,1.322-.564,3.8-.564,3.8s2.913-.277,4.189,2.081c1.036,1.849-.509,4.087-.509,4.087s2.913,1.017,3.347,3.283C224.586,247.2,209.412,257.65,203.226,253.674Z" transform="translate(-100.96 -134.946)" fill="#f7a9a0"/>
  <path id="Path_3980" data-name="Path 3980" d="M208.121,241.549a.049.049,0,0,1,.065.074,31.939,31.939,0,0,1-16.265,9.829c-.2.046-.361-.259-.148-.351a65.3,65.3,0,0,0,16.348-9.552Z" transform="translate(-88.897 -136.774)" fill="#263238"/>
  <path id="Path_3981" data-name="Path 3981" d="M213.992,234.45c.055,0,.129.046.083.1-4.309,4.771-11.17,8.914-18.41,9.626-.25,0-.5-.2-.213-.25C200.233,243.087,209.4,238.232,213.992,234.45Z" transform="translate(-98.161 -136.24)" fill="#263238"/>
  <path id="Path_3982" data-name="Path 3982" d="M200.687,236.432c6.917-.925,12.835-4.032,18.494-8.063.074-.055.139.055.083.12-2.21,2.719-6.066,4.919-9.247,6.371a18.317,18.317,0,0,1-9.3,1.849C200.594,236.663,200.539,236.451,200.687,236.432Z" transform="translate(-108.231 -135.781)" fill="#263238"/>
  <path id="Path_3983" data-name="Path 3983" d="M209.125,239.358c1-1.3,1.655-2.94.925-4.54a3.32,3.32,0,0,0-1.664-1.627,5.9,5.9,0,0,0-2.719-.185,4.328,4.328,0,0,0,0-4.91,3.347,3.347,0,0,0-2.127-1.073,10.957,10.957,0,0,0-2.829.185,3.856,3.856,0,0,0,.749-3.375,4.189,4.189,0,0,0-2.626-2.774,19.6,19.6,0,0,0-4.5-.925,10.383,10.383,0,0,1-2.3-.583,4.346,4.346,0,0,1-1.942-1.655c-.092-.12-.074,0,0,.12a5.547,5.547,0,0,0,1.156,1.313,6.741,6.741,0,0,0,1.572.971,29.587,29.587,0,0,0,4.29,1.147,5.955,5.955,0,0,1,3.255,2.044,3.578,3.578,0,0,1,.2,3.7.083.083,0,0,0,.1.129,10.559,10.559,0,0,1,2.534.231,3.468,3.468,0,0,1,1.785,1.063,4.549,4.549,0,0,1,.324,4.54,8,8,0,0,1,2.672.629,3.209,3.209,0,0,1,1.276,1.35,3.93,3.93,0,0,1-.314,4.133.121.121,0,0,0,0,.056h0s.925.361.971.361,0,0,0-.046A5.858,5.858,0,0,0,209.125,239.358Z" transform="translate(-89.531 -134.99)" fill="#263238"/>
  <path id="Path_3984" data-name="Path 3984" d="M246.757,167.157c-.24.869-4.716,6.473-8.757,6.075-1.313-.12-.98-7.323-.98-7.323l-.092-.546-1.35-7.527,9.043-5.252,1.295-.684s.231,2.081.5,4.679v.37a1.365,1.365,0,0,0,.046.425c0,.388.092.786.129,1.184s.055.592.074.925a5.887,5.887,0,0,0,.065.925A48.428,48.428,0,0,1,246.757,167.157Z" transform="translate(-168.153 -130.023)" fill="#f7a9a0"/>
  <path id="Path_3985" data-name="Path 3985" d="M246.9,156.616a15.368,15.368,0,0,1-9.45,8.784l-1.35-7.527,9.043-5.289,1.295-.684S246.632,153.981,246.9,156.616Z" transform="translate(-168.676 -130.023)" fill="#263238"/>
  <path id="Path_3986" data-name="Path 3986" d="M232.723,144.01c-2.839,13.121,4.7,16.3,7.536,16.912,2.561.555,11.383,2.108,15.562-10.652s-1.026-18.235-6.833-19.807S235.562,130.925,232.723,144.01Z" transform="translate(-175.406 -128.374)" fill="#f7a9a0"/>
  <path id="Path_3987" data-name="Path 3987" d="M252.887,143.641a7.631,7.631,0,0,0,.925-.065,1.479,1.479,0,0,0,.925-.24.481.481,0,0,0,.083-.573,1.156,1.156,0,0,0-1.119-.444,1.757,1.757,0,0,0-1.165.453.509.509,0,0,0,.351.869Z" transform="translate(-191.714 -129.3)" fill="#263238"/>
  <path id="Path_3988" data-name="Path 3988" d="M245.9,146.618a8.833,8.833,0,0,1-.869-.324,1.508,1.508,0,0,1-.832-.49.49.49,0,0,1,.083-.583,1.193,1.193,0,0,1,1.2-.1,1.766,1.766,0,0,1,.989.758.518.518,0,0,1-.573.74Z" transform="translate(-175.74 -129.504)" fill="#263238"/>
  <path id="Path_3989" data-name="Path 3989" d="M246.873,148.48s.065.055.055.092c-.176.925-.231,1.951.527,2.386v.055C246.475,150.7,246.559,149.3,246.873,148.48Z" transform="translate(-178.996 -129.765)" fill="#263238"/>
  <path id="Path_3990" data-name="Path 3990" d="M246.354,147.61c1.47.129,1.091,3.061-.268,2.931S245.124,147.5,246.354,147.61Z" transform="translate(-177.515 -129.7)" fill="#263238"/>
  <path id="Path_3991" data-name="Path 3991" d="M243.943,147.848c.24.2.453.527.749.6s.666-.194.925-.462c0,0,.055,0,.046.046-.065.555-.351,1.11-.925,1.11a1.015,1.015,0,0,1-.925-1.119C243.739,147.913,243.85,147.774,243.943,147.848Z" transform="translate(-174.549 -129.716)" fill="#263238"/>
  <path id="Path_3992" data-name="Path 3992" d="M254.369,147.11s-.074,0-.083.065c-.12.925-.416,1.923-1.285,2.081v.055C254.017,149.339,254.369,147.988,254.369,147.11Z" transform="translate(-191.771 -129.662)" fill="#263238"/>
  <path id="Path_3993" data-name="Path 3993" d="M254.445,145.937c-1.433-.361-2.044,2.524-.721,2.857S255.638,146.233,254.445,145.937Z" transform="translate(-192.486 -129.571)" fill="#263238"/>
  <path id="Path_3994" data-name="Path 3994" d="M255.816,145.962c-.259.1-.546.333-.823.287s-.481-.407-.619-.749h-.055c-.129.546-.074,1.156.435,1.378s.925-.2,1.165-.721A.128.128,0,0,0,255.816,145.962Z" transform="translate(-194.504 -129.541)" fill="#263238"/>
  <path id="Path_3995" data-name="Path 3995" d="M250.658,156.479c-.231.194-.472.472-.8.472a2.358,2.358,0,0,1-.925-.314h0a1.23,1.23,0,0,0,1.119.592.925.925,0,0,0,.777-.749C250.732,156.47,250.732,156.451,250.658,156.479Z" transform="translate(-184.436 -130.367)" fill="#263238"/>
  <path id="Path_3996" data-name="Path 3996" d="M250.972,151.645s-.37,1.332-.462,1.97c0,.055.139.111.361.148h0a3.07,3.07,0,0,0,3.107-.721c.055-.055,0-.129-.083-.1a4.624,4.624,0,0,1-2.876.407c0-.185.712-2.256.62-2.275a5.733,5.733,0,0,0-1.5.129c.7-2.774,1.849-5.437,2.506-8.22a.085.085,0,1,0-.157-.065,46.753,46.753,0,0,0-3.079,8.738C249.326,152.015,250.676,151.719,250.972,151.645Z" transform="translate(-188.079 -129.342)" fill="#263238"/>
  <path id="Path_3997" data-name="Path 3997" d="M249.3,154.366a3.625,3.625,0,0,0,1.23,1.415,1.683,1.683,0,0,0,.98.268c.758,0,.925-.7.925-1.295a3.754,3.754,0,0,0-.148-.925A4.836,4.836,0,0,1,249.3,154.366Z" transform="translate(-186.416 -130.168)" fill="#263238"/>
  <path id="Path_3998" data-name="Path 3998" d="M249.3,155.854a1.683,1.683,0,0,0,.98.268c.758,0,.925-.7.925-1.295a1.729,1.729,0,0,0-1.9,1.026Z" transform="translate(-185.186 -130.241)" fill="#ff9abb"/>
  <path id="Path_3999" data-name="Path 3999" d="M253.033,150.92a5.548,5.548,0,0,1-2.774-4.707,14.434,14.434,0,0,1-5.548-5.123c.065.277.592,2.321.925,3.357-8.424-2.145-10.643-8.84-10.643-8.84a14.851,14.851,0,0,0-4.069,5.16s.277-5.234,3.2-8.563a8.442,8.442,0,0,1,8.008-2.968,12.067,12.067,0,0,1,11.429,4.392C258.711,140.009,253.033,150.92,253.033,150.92Z" transform="translate(-172.71 -128.304)" fill="#263238"/>
  <path id="Path_4000" data-name="Path 4000" d="M248.7,143.034a15.719,15.719,0,0,0,4.272,1.849h0a13.389,13.389,0,0,1-6.01-4.189A12.845,12.845,0,0,1,245.29,138a8.739,8.739,0,0,1-.925-3.329c0-.083-.129-.074-.129,0a10.329,10.329,0,0,0,.453,3.4,9.47,9.47,0,0,0,1.711,2.94,10.735,10.735,0,0,0,2.3,1.988" transform="translate(-182.268 -128.721)" fill="#263238"/>
  <path id="Path_4001" data-name="Path 4001" d="M231.367,150.994s3.431-3.782,5.187-2.506-1.2,7.028-3.514,7.564a2.265,2.265,0,0,1-2.867-1.59Z" transform="translate(-153.383 -129.746)" fill="#f7a9a0"/>
  <path id="Path_4002" data-name="Path 4002" d="M236.033,150.27v.055a5.77,5.77,0,0,0-3.394,3.19,1.258,1.258,0,0,1,1.9-.1s0,.092-.055.074a1.387,1.387,0,0,0-1.581.3,6.27,6.27,0,0,0-.925,1.137c-.092.129-.333,0-.259-.129h0C231.992,152.794,233.915,150.2,236.033,150.27Z" transform="translate(-153.749 -129.9)" fill="#263238"/>
  <path id="Path_4003" data-name="Path 4003" d="M247.171,167c.5,3.449,1.063,6.88,1.646,10.319l.176-.287c-2.025.527-4.032,1.11-6.057,1.664l-.333.092.148.324c.6,1.332,1.193,2.663,1.849,3.976l.083-.37c-2.136,1.849-4.3,3.7-6.408,5.548s-4.235,3.763-6.316,5.7c2.238-1.748,4.429-3.532,6.611-5.345s4.346-3.643,6.519-5.456l.176-.157-.092-.213c-.592-1.332-1.221-2.654-1.849-3.967l-.185.416c2.007-.592,4.022-1.156,6.02-1.766l.222-.074v-.213C248.632,173.833,247.938,170.421,247.171,167Z" transform="translate(-167.328 -131.16)" fill="#263238"/>
  <path id="Path_4004" data-name="Path 4004" d="M253.3,169.22c-1.119,1.165-1.9,2-3,3.2s-2.2,2.376-3.264,3.6l-.213.25.287.176,2.1,1.3-.065-.472c-.86.869-1.738,1.729-2.58,2.608l-.111.12v.157c.435,2.339.832,4.688,1.3,7.028s.925,4.679,1.461,7c-.287-2.367-.638-4.725-1-7.083s-.767-4.7-1.147-7.055l-.092.277c.878-.86,1.72-1.748,2.571-2.626l.268-.268-.324-.194-2.127-1.276.074.425c1.054-1.221,2.071-2.478,3.107-3.7S252.3,170.5,253.3,169.22Z" transform="translate(-184.658 -131.327)" fill="#263238"/>
  <path id="Path_4005" data-name="Path 4005" d="M252.66,196.22c-.3,1.137-.6,2.275-.869,3.421s-.536,2.284-.786,3.431h0c-.083,2.561-.111,5.113-.148,7.666s0,5.114,0,7.675c.148-2.552.259-5.113.342-7.666s.148-5.1.176-7.666h0c.24-1.147.472-2.3.675-3.458S252.512,197.385,252.66,196.22Z" transform="translate(-188.065 -133.361)" fill="#263238"/>
  <path id="Path_4006" data-name="Path 4006" d="M248.313,199.451a.823.823,0,0,0,1.341.666.851.851,0,0,0,0-1.332.823.823,0,0,0-1.341.666Zm0,0a.555.555,0,0,1,.231-.435.518.518,0,0,1,.444-.074.536.536,0,0,1,.342.509.509.509,0,0,1-.342.509.546.546,0,0,1-.444-.065.592.592,0,0,1-.231-.444Z" transform="translate(-183.044 -133.54)" fill="#263238"/>
  <path id="Path_4007" data-name="Path 4007" d="M249.393,207.451a.832.832,0,0,0,.675.823.814.814,0,0,0,.666-.157.851.851,0,0,0,0-1.332.823.823,0,0,0-1.341.666Zm0,0a.592.592,0,0,1,.231-.444.531.531,0,1,1,0,.888A.592.592,0,0,1,249.393,207.451Z" transform="translate(-185.122 -134.143)" fill="#263238"/>
  <path id="Path_4008" data-name="Path 4008" d="M249.769,214.771a.851.851,0,0,0,.666.832.869.869,0,0,0,.675-.166.86.86,0,0,0,0-1.332.869.869,0,0,0-.675-.166A.851.851,0,0,0,249.769,214.771Zm0,0a.527.527,0,0,1,.231-.435.472.472,0,0,1,.435-.065.527.527,0,0,1,.351.5.518.518,0,0,1-.351.509.527.527,0,0,1-.435-.065A.573.573,0,0,1,249.769,214.771Z" transform="translate(-185.84 -134.695)" fill="#263238"/>
</svg>
