<svg xmlns="http://www.w3.org/2000/svg" width="376.085" height="395.558" viewBox="0 0 376.085 395.558">
  <g id="Resume-cuate" transform="translate(0 -0.001)">
    <g id="freepik--background-complete--inject-41" transform="translate(0 0.001)">
      <path id="Path_3813" data-name="Path 3813" d="M85.558,238.679l-12.132.25-6.158.111c-2.062,0-4.133,0-6.2.046h-.407v-.407l-.055-10.347v-.472h.462l12.243.055c4.087,0,8.165.1,12.243.148h.259v.25c0,1.748-.083,3.5-.12,5.224Zm0,0-.129-5.234c0-1.72-.1-3.421-.12-5.113l.25.25c-4.078.046-8.156.148-12.243.148l-12.243.065.462-.462v10.347l-.416-.416h6.057l6.084.111Z" transform="translate(-46.953 -57.387)" fill="#ebebeb"/>
      <path id="Path_3814" data-name="Path 3814" d="M70.788,252.791l-12.132.25-6.158.111c-2.062,0-4.133,0-6.2.046H45.9v-.407l-.055-10.347V242H46.3l12.243.055c4.078,0,8.165.1,12.243.148h.259v.25c0,1.748-.074,3.5-.12,5.224Zm0,0-.129-5.243c-.046-1.72-.1-3.421-.12-5.113l.25.25c-4.078.046-8.165.148-12.243.148l-12.243.092.462-.453-.046,10.347L46.3,252.4c2.016,0,4.032,0,6.057.046l6.084.111Z" transform="translate(-45.84 -58.452)" fill="#ebebeb"/>
      <path id="Path_3815" data-name="Path 3815" d="M361.548,360.029l-12.132.25-6.158.111c-2.062,0-4.133,0-6.2.046h-.407v-.407l-.056-10.347v-.472h.462l12.243.055c4.087,0,8.165.1,12.243.148h.259v.25c0,1.748-.083,3.5-.129,5.224Zm0,0-.129-5.234c0-1.72-.1-3.421-.12-5.113l.25.25c-4.078.046-8.156.148-12.243.148l-12.243.065.462-.462-.046,10.347-.416-.416c2.016,0,4.032,0,6.057.046l6.084.111Z" transform="translate(-155.179 -66.527)" fill="#ebebeb"/>
      <path id="Path_3816" data-name="Path 3816" d="M346.779,374.119l-12.132.25-6.168.111h-6.593v-.361l-.046-10.347V363.3h.462l12.243.055c4.078,0,8.165.1,12.243.148h.259v.25c0,1.748-.074,3.5-.12,5.224Zm0,0-.129-5.234c-.046-1.72-.1-3.421-.12-5.113l.25.25c-4.078,0-8.165.148-12.243.148l-12.243.065.462-.462-.046,10.347-.416-.416c2.016,0,4.032,0,6.057.046l6.075.111Z" transform="translate(-154.067 -67.588)" fill="#ebebeb"/>
      <path id="Path_3817" data-name="Path 3817" d="M451.628,252.791l-12.141.25-6.158.111c-2.053,0-4.124,0-6.186.046h-.416v-.407l-.046-10.347V242h.462l12.243.055c4.078,0,8.165.1,12.243.148h.25v.25c0,1.748-.074,3.5-.12,5.224Zm0,0-.129-5.234c0-1.72-.111-3.421-.12-5.113l.25.25c-4.078.046-8.165.148-12.243.148l-12.243.055.462-.453-.055,10.347-.407-.416c2.016,0,4.032,0,6.047.046l6.084.111Z" transform="translate(-163.951 -58.452)" fill="#ebebeb"/>
      <path id="Path_3818" data-name="Path 3818" d="M436.865,54.319l-12.141.259-6.158.1c-2.053,0-4.124,0-6.186.055H412V43.51h.472l12.243.055c4.078,0,8.156.111,12.243.157h.25v.24c0,1.757-.083,3.5-.12,5.224Zm0,0-.129-5.224c-.046-1.729-.111-3.431-.13-5.123l.259.25c-4.087,0-8.165.148-12.243.157l-12.243.055.462-.462-.056,10.347-.407-.416c2.016,0,4.022,0,6.047.055l6.084.1Z" transform="translate(-162.846 -43.501)" fill="#ebebeb"/>
      <path id="Path_3819" data-name="Path 3819" d="M451.628,68.429l-12.141.259-6.158.1c-2.053,0-4.124,0-6.186.055h-.416v-.416l-.046-10.347V57.62h.462l12.243.055c4.078,0,8.165.111,12.243.157h.25v.25c0,1.757-.074,3.5-.12,5.224Zm0,0-.129-5.224c0-1.729-.111-3.431-.12-5.123l.25.25c-4.078,0-8.165.148-12.243.157l-12.243.055.462-.462-.055,10.347-.407-.416c2.016,0,4.032,0,6.047.055l6.084.1Z" transform="translate(-163.951 -44.564)" fill="#ebebeb"/>
      <path id="Path_3820" data-name="Path 3820" d="M85.558,54.319l-12.132.259-6.158.1c-2.062,0-4.133,0-6.2.055h-.407v-.416L60.61,43.962V43.5h.462l12.243.055c4.087,0,8.165.111,12.243.157h.259v.25c0,1.757-.083,3.5-.12,5.224Zm0,0-.129-5.224c0-1.729-.1-3.431-.12-5.123l.25.25c-4.078,0-8.156.148-12.243.157l-12.243.055.462-.462V54.319l-.416-.416c2.016,0,4.032,0,6.057.055l6.084.1Z" transform="translate(-46.953 -43.5)" fill="#ebebeb"/>
      <path id="Path_3821" data-name="Path 3821" d="M238.3,177.375l-12.132.25-6.158.111h-6.6v-.407l-.046-10.347v-.472h.462l12.243.055c4.078,0,8.165.1,12.243.148h.259v.25c0,1.748-.074,3.5-.12,5.224Zm0,0-.129-5.234c-.046-1.72-.1-3.421-.12-5.113l.25.25c-4.078,0-8.165.148-12.243.148l-12.243.065.462-.462v10.347l-.416-.416c2.016,0,4.032,0,6.057.055l6.057.12Z" transform="translate(-58.458 -52.765)" fill="#ebebeb"/>
      <rect id="Rectangle_1174" data-name="Rectangle 1174" width="48.416" height="58.726" transform="translate(2.062 21.434)" fill="#ebebeb"/>
      <rect id="Rectangle_1175" data-name="Rectangle 1175" width="37.348" height="48.009" transform="translate(7.601 26.788)" fill="#fff"/>
      <rect id="Rectangle_1176" data-name="Rectangle 1176" width="1.461" height="48.009" transform="translate(7.601 26.788)" fill="#dbdbdb"/>
      <rect id="Rectangle_1177" data-name="Rectangle 1177" width="1.461" height="58.726" transform="translate(50.478 21.434)" fill="#dbdbdb"/>
      <rect id="Rectangle_1178" data-name="Rectangle 1178" width="8.803" height="26.242" transform="translate(20.112 33.409)" fill="#dbdbdb"/>
      <path id="Path_3822" data-name="Path 3822" d="M87.342,112.228H62.94V98.45h24.4ZM63.865,111.3H86.418V99.375H63.865Z" transform="translate(-47.128 -47.639)" fill="#ebebeb"/>
      <rect id="Rectangle_1179" data-name="Rectangle 1179" width="48.416" height="58.726" transform="translate(2.062 96.629)" fill="#ebebeb"/>
      <rect id="Rectangle_1180" data-name="Rectangle 1180" width="37.348" height="48.009" transform="translate(7.601 101.992)" fill="#fff"/>
      <rect id="Rectangle_1181" data-name="Rectangle 1181" width="1.461" height="48.009" transform="translate(7.601 101.992)" fill="#dbdbdb"/>
      <rect id="Rectangle_1182" data-name="Rectangle 1182" width="1.461" height="58.726" transform="translate(50.478 96.629)" fill="#dbdbdb"/>
      <rect id="Rectangle_1183" data-name="Rectangle 1183" width="7.545" height="19.076" transform="translate(22.655 114.401)" fill="#ebebeb"/>
      <path id="Path_3823" data-name="Path 3823" d="M85.864,193.334H64.67V179.26H85.864Zm-20.269-.925H84.939V180.185H65.595Z" transform="translate(-47.258 -53.726)" fill="#dbdbdb"/>
      <path id="Path_3824" data-name="Path 3824" d="M272.894,365.969H435.388l3.384-66.669H269.51Z" transform="translate(-150.125 -62.768)" fill="#ebebeb"/>
      <path id="Path_3825" data-name="Path 3825" d="M434.933,330.417H367L365.73,307.3h70.692Zm-67.159-.814h66.392l1.387-21.508H366.59Z" transform="translate(-157.373 -63.37)" fill="#dbdbdb"/>
      <path id="Path_3826" data-name="Path 3826" d="M433.922,359.4H369.916L368.88,338.51h66.364Zm-63.248-.814h62.471l1.211-19.261H369.721Z" transform="translate(-157.61 -65.721)" fill="#dbdbdb"/>
      <path id="Path_3827" data-name="Path 3827" d="M409.922,322.048H398.511l-.721-5.548h12.853Zm-10.689-.823H409.2l.509-3.939H398.724Z" transform="translate(-159.788 -64.063)" fill="#dbdbdb"/>
      <path id="Path_3828" data-name="Path 3828" d="M409.922,352.368H398.511l-.721-5.548h12.853Zm-10.689-.814H409.2l.509-3.948H398.724Z" transform="translate(-159.788 -66.347)" fill="#dbdbdb"/>
      <path id="Path_3829" data-name="Path 3829" d="M348.513,330.417H280.577L279.31,307.3H350Zm-67.159-.814h66.392l1.387-21.508H280.17Z" transform="translate(-150.864 -63.37)" fill="#dbdbdb"/>
      <path id="Path_3830" data-name="Path 3830" d="M347.5,359.4H283.476L282.44,338.51H348.8Zm-63.239-.814h62.5l1.2-19.261H283.328Z" transform="translate(-151.099 -65.721)" fill="#dbdbdb"/>
      <path id="Path_3831" data-name="Path 3831" d="M323.5,322.048H312.091l-.721-5.548h12.853Zm-10.689-.823h9.968l.509-3.939H312.3Z" transform="translate(-153.278 -64.063)" fill="#dbdbdb"/>
      <path id="Path_3832" data-name="Path 3832" d="M323.5,352.368H312.091l-.721-5.548h12.853Zm-10.689-.814h9.968l.509-3.948H312.3Z" transform="translate(-153.278 -66.347)" fill="#dbdbdb"/>
      <path id="Path_3833" data-name="Path 3833" d="M288.352,371.4l-1.026,7.268-2.053,14.591H281.26V371.4Z" transform="translate(-63.573 -68.198)" fill="#ebebeb"/>
      <path id="Path_3834" data-name="Path 3834" d="M288.352,371.4l-1.026,7.268H281.26V371.4Z" transform="translate(-63.573 -68.198)" fill="#dbdbdb"/>
      <path id="Path_3835" data-name="Path 3835" d="M433.14,371.4l1.026,7.268,2.053,14.591h4.013V371.4Z" transform="translate(-162.451 -68.198)" fill="#ebebeb"/>
      <path id="Path_3836" data-name="Path 3836" d="M433.14,371.4l1.026,7.268h6.066V371.4Z" transform="translate(-162.451 -68.198)" fill="#dbdbdb"/>
      <path id="Path_4009" data-name="Path 4009" d="M440.232,371.4l-1.026,7.268-2.053,14.591H433.14V371.4Z" transform="translate(-303.128 -68.197)" fill="#ebebeb"/>
      <path id="Path_4010" data-name="Path 4010" d="M440.232,371.4l-1.026,7.268H433.14V371.4Z" transform="translate(-303.128 -68.197)" fill="#dbdbdb"/>
    </g>
    <g id="freepik--Shadow--inject-41" transform="translate(18.022 347.92)">
      <ellipse id="Ellipse_167" data-name="Ellipse 167" cx="170.76" cy="23.82" rx="170.76" ry="23.82" fill="#ebebeb"/>
    </g>
    <g id="freepik--Floor--inject-41" transform="translate(1.479 324.692)">
      <path id="Path_3846" data-name="Path 3846" d="M47.44,395.1l46.826-.222,46.826-.083,93.651-.157,93.651.157,46.826.074,46.826.231-46.826.222-46.826.083-93.651.157-93.651-.157-46.826-.083Z" transform="translate(-47.44 -394.64)" fill="#263238"/>
    </g>
    <g id="freepik--Resume--inject-41" transform="translate(50.228 6.168)">
      <rect id="Rectangle_1186" data-name="Rectangle 1186" width="151.987" height="198.292" transform="translate(0.127 0.127)" fill="#fff"/>
      <path id="Path_3847" data-name="Path 3847" d="M252.274,248.594l-151.987.051h-.056v-.056L100.16,50.3V50.17h.127l151.987.056h.071V50.3Zm0,0L252.2,50.3l.071.071-151.987.056.127-.127-.071,198.292-.056-.051Z" transform="translate(-100.16 -50.17)" fill="#263238"/>
      <rect id="Rectangle_1187" data-name="Rectangle 1187" width="151.987" height="4.73" transform="translate(0.127 193.69)" fill="#15ace5"/>
      <rect id="Rectangle_1188" data-name="Rectangle 1188" width="11.004" height="97.183" transform="translate(5.558 4.857)" fill="#ebebeb"/>
      <rect id="Rectangle_1189" data-name="Rectangle 1189" width="11.004" height="97.183" transform="translate(135.685 96.548)" fill="#ebebeb"/>
      <rect id="Rectangle_1190" data-name="Rectangle 1190" width="151.987" height="4.73" transform="translate(0.127 0.127)" fill="#455a64"/>
      <rect id="Rectangle_1191" data-name="Rectangle 1191" width="55.251" height="55.251" transform="translate(48.495 36.363)" fill="#c7c7c7"/>
      <rect id="Rectangle_1192" data-name="Rectangle 1192" width="130.366" height="15.306" transform="translate(10.937 12.649)" fill="#15ace5"/>
      <rect id="Rectangle_1193" data-name="Rectangle 1193" width="25.426" height="1.722" transform="translate(10.937 36.363)" fill="#455a64"/>
      <rect id="Rectangle_1194" data-name="Rectangle 1194" width="25.426" height="1.722" transform="translate(10.937 101.181)" fill="#455a64"/>
      <rect id="Rectangle_1195" data-name="Rectangle 1195" width="25.426" height="1.722" transform="translate(10.937 169.991)" fill="#455a64"/>
      <rect id="Rectangle_1196" data-name="Rectangle 1196" width="25.426" height="1.722" transform="translate(10.937 142.228)" fill="#455a64"/>
      <rect id="Rectangle_1197" data-name="Rectangle 1197" width="25.426" height="1.722" transform="translate(108.664 36.363)" fill="#455a64"/>
      <path id="Path_3848" data-name="Path 3848" d="M121.69,133.178c2.718-.076,5.441-.112,8.159-.142l8.159-.046,8.159.046c2.723.03,5.441.066,8.164.142-2.723.081-5.441.117-8.164.147l-8.159.046-8.159-.046C127.131,133.295,124.388,133.259,121.69,133.178Z" transform="translate(-110.753 -90.916)" fill="#a6a6a6"/>
      <path id="Path_3849" data-name="Path 3849" d="M121.69,137.818c2.718-.076,5.441-.117,8.159-.147l8.159-.041,8.159.041c2.723.03,5.441.066,8.164.147-2.723.081-5.441.117-8.164.147l-8.159.041-8.159-.041C127.131,137.93,124.388,137.889,121.69,137.818Z" transform="translate(-110.753 -93.199)" fill="#a6a6a6"/>
      <path id="Path_3850" data-name="Path 3850" d="M121.69,142.433c2.718-.081,5.441-.117,8.159-.147l8.159-.046,8.159.046c2.723.03,5.441.066,8.164.147-2.723.076-5.441.112-8.164.142l-8.159.046-8.159-.046C127.131,142.545,124.388,142.509,121.69,142.433Z" transform="translate(-110.753 -95.467)" fill="#a6a6a6"/>
      <path id="Path_3851" data-name="Path 3851" d="M121.69,147.058c2.718-.076,5.441-.117,8.159-.147l8.159-.041,8.159.041c2.723.03,5.441.071,8.164.147-2.723.081-5.441.117-8.164.147l-8.159.046-8.159-.046C127.131,147.175,124.388,147.139,121.69,147.058Z" transform="translate(-110.753 -97.745)" fill="#a6a6a6"/>
      <path id="Path_3852" data-name="Path 3852" d="M121.69,151.678c1.361-.081,2.718-.117,4.064-.147s2.718-.03,4.064-.046,2.718,0,4.064.046,2.723.066,4.064.147c-1.356.076-2.718.117-4.064.147s-2.718.025-4.064.041-2.718,0-4.064-.046S123.051,151.744,121.69,151.678Z" transform="translate(-110.753 -100.013)" fill="#a6a6a6"/>
      <path id="Path_3853" data-name="Path 3853" d="M121.69,160.933c2.718-.081,5.441-.117,8.159-.147l8.159-.046,8.159.046c2.723.03,5.441.066,8.164.147-2.723.076-5.441.117-8.164.147l-8.159.041-8.159-.041C127.131,161.05,124.388,161.009,121.69,160.933Z" transform="translate(-110.753 -104.569)" fill="#a6a6a6"/>
      <path id="Path_3854" data-name="Path 3854" d="M121.69,165.558c2.718-.076,5.441-.112,8.159-.142l8.159-.046,8.159.046c2.723.03,5.441.066,8.164.142-2.723.081-5.441.117-8.164.147l-8.159.046-8.159-.061C127.131,165.69,124.388,165.639,121.69,165.558Z" transform="translate(-110.753 -106.847)" fill="#a6a6a6"/>
      <path id="Path_3855" data-name="Path 3855" d="M121.69,170.188c2.718-.076,5.441-.117,8.159-.147l8.159-.041,8.159.041c2.723.03,5.441.066,8.164.147-2.723.081-5.441.117-8.164.147l-8.159.041-8.159-.041C127.131,170.3,124.388,170.264,121.69,170.188Z" transform="translate(-110.753 -109.125)" fill="#a6a6a6"/>
      <path id="Path_3856" data-name="Path 3856" d="M121.69,174.813c2.718-.081,5.441-.117,8.159-.147l8.159-.046,8.159.046c2.723.03,5.441.066,8.164.147-2.723.076-5.441.112-8.164.142l-8.159.046-8.159-.046C127.131,174.925,124.388,174.889,121.69,174.813Z" transform="translate(-110.753 -111.398)" fill="#a6a6a6"/>
      <path id="Path_3857" data-name="Path 3857" d="M121.69,179.432c1.361-.076,2.718-.117,4.064-.147s2.718-.025,4.064-.041,2.718,0,4.064.041,2.723.071,4.064.147c-1.356.081-2.718.117-4.064.147s-2.718.03-4.064.046-2.718,0-4.064-.046S123.051,179.514,121.69,179.432Z" transform="translate(-110.753 -113.67)" fill="#a6a6a6"/>
      <path id="Path_3858" data-name="Path 3858" d="M121.69,188.688c2.718-.076,5.441-.112,8.159-.142l8.159-.046,8.159.041c2.723.03,5.441.071,8.164.147-2.723.081-5.441.117-8.164.147l-8.159.046-8.159-.046C127.131,188.8,124.388,188.754,121.69,188.688Z" transform="translate(-110.753 -118.227)" fill="#a6a6a6"/>
      <path id="Path_3859" data-name="Path 3859" d="M121.69,193.313c2.718-.081,5.441-.117,8.159-.147l8.159-.046,8.159.046c2.723.03,5.441.066,8.164.147-2.723.076-5.441.117-8.164.147l-8.159.041-8.159-.041C127.131,193.43,124.388,193.389,121.69,193.313Z" transform="translate(-110.753 -120.5)" fill="#a6a6a6"/>
      <path id="Path_3860" data-name="Path 3860" d="M121.69,197.938c2.718-.076,5.441-.112,8.159-.142l8.159-.046,8.159.046c2.723.03,5.441.066,8.164.142-2.723.081-5.441.117-8.164.147l-8.159.046-8.159-.046C127.131,198.055,124.388,198.019,121.69,197.938Z" transform="translate(-110.753 -122.778)" fill="#a6a6a6"/>
      <path id="Path_3861" data-name="Path 3861" d="M121.69,202.562c1.361-.076,2.718-.117,4.064-.147s2.718-.025,4.064-.041,2.718,0,4.064.041,2.723.066,4.064.147c-1.356.081-2.718.117-4.064.147s-2.718.025-4.064.041-2.718,0-4.064-.041S123.051,202.639,121.69,202.562Z" transform="translate(-110.753 -125.05)" fill="#a6a6a6"/>
      <path id="Path_3862" data-name="Path 3862" d="M121.69,211.818c2.718-.076,5.441-.117,8.159-.147l8.159-.041,8.159.041c2.723.03,5.441.071,8.164.147-2.723.081-5.441.117-8.164.147l-8.159.046-8.159-.046C127.131,211.935,124.388,211.9,121.69,211.818Z" transform="translate(-110.753 -129.606)" fill="#a6a6a6"/>
      <path id="Path_3863" data-name="Path 3863" d="M121.69,216.443c2.718-.081,5.441-.117,8.159-.147l8.159-.046,8.159.046c2.723.03,5.441.066,8.164.147-2.723.076-5.441.112-8.164.147l-8.159.041-8.159-.046C127.131,216.555,124.388,216.519,121.69,216.443Z" transform="translate(-110.753 -131.879)" fill="#a6a6a6"/>
      <path id="Path_3864" data-name="Path 3864" d="M121.69,221.068c2.718-.076,5.441-.112,8.159-.142l8.159-.046,8.159.041c2.723.03,5.441.071,8.164.147-2.723.081-5.441.117-8.164.147l-8.159.046-8.159-.046C127.131,221.185,124.388,221.149,121.69,221.068Z" transform="translate(-110.753 -134.157)" fill="#a6a6a6"/>
      <path id="Path_3865" data-name="Path 3865" d="M121.69,225.693c2.718-.081,5.441-.117,8.159-.147l8.159-.046,8.159.046c2.723.03,5.441.066,8.164.147-2.723.076-5.441.117-8.164.147l-8.159.041-8.159-.041C127.131,225.81,124.388,225.754,121.69,225.693Z" transform="translate(-110.753 -136.43)" fill="#a6a6a6"/>
      <path id="Path_3866" data-name="Path 3866" d="M121.69,230.312c1.361-.076,2.718-.112,4.064-.142s2.718-.03,4.064-.046,2.718,0,4.064.046,2.723.066,4.064.142c-1.356.081-2.718.117-4.064.147s-2.718.03-4.064.046-2.718,0-4.064-.046S123.051,230.394,121.69,230.312Z" transform="translate(-110.753 -138.703)" fill="#a6a6a6"/>
      <path id="Path_3867" data-name="Path 3867" d="M314.06,133.178c2.723-.076,5.441-.112,8.164-.142l8.159-.046,8.159.046c2.718.03,5.441.066,8.159.142-2.718.081-5.441.117-8.159.147l-8.159.046-8.159-.046C319.5,133.295,316.783,133.259,314.06,133.178Z" transform="translate(-205.396 -90.916)" fill="#a6a6a6"/>
      <path id="Path_3868" data-name="Path 3868" d="M314.06,137.818c2.723-.076,5.441-.117,8.164-.147l8.159-.041,8.159.041c2.718.03,5.441.066,8.159.147-2.718.081-5.441.117-8.159.147l-8.159.041-8.159-.041C319.5,137.93,316.783,137.889,314.06,137.818Z" transform="translate(-205.396 -93.199)" fill="#a6a6a6"/>
      <path id="Path_3869" data-name="Path 3869" d="M314.06,142.433c2.723-.081,5.441-.117,8.164-.147l8.159-.046,8.159.046c2.718.03,5.441.066,8.159.147-2.718.076-5.441.112-8.159.142l-8.159.046-8.159-.046C319.5,142.545,316.783,142.509,314.06,142.433Z" transform="translate(-205.396 -95.467)" fill="#a6a6a6"/>
      <path id="Path_3870" data-name="Path 3870" d="M314.06,147.058c2.723-.076,5.441-.117,8.164-.147l8.159-.041,8.159.041c2.718.03,5.441.071,8.159.147-2.718.081-5.441.117-8.159.147l-8.159.046-8.159-.046C319.5,147.175,316.783,147.139,314.06,147.058Z" transform="translate(-205.396 -97.745)" fill="#a6a6a6"/>
      <path id="Path_3871" data-name="Path 3871" d="M314.06,151.678c1.361-.081,2.723-.117,4.064-.147s2.718-.03,4.064-.046,2.718,0,4.064.046,2.718.066,4.064.147c-1.361.076-2.723.117-4.064.147s-2.723.025-4.064.041-2.723,0-4.064-.046S315.421,151.744,314.06,151.678Z" transform="translate(-205.396 -100.013)" fill="#a6a6a6"/>
      <path id="Path_3872" data-name="Path 3872" d="M314.06,160.933c2.723-.081,5.441-.117,8.164-.147l8.159-.046,8.159.046c2.718.03,5.441.066,8.159.147-2.718.076-5.441.117-8.159.147l-8.159.041-8.159-.041C319.5,161.05,316.783,161.009,314.06,160.933Z" transform="translate(-205.396 -104.569)" fill="#a6a6a6"/>
      <path id="Path_3873" data-name="Path 3873" d="M314.06,165.558c2.723-.076,5.441-.112,8.164-.142l8.159-.046,8.159.046c2.718.03,5.441.066,8.159.142-2.718.081-5.441.117-8.159.147l-8.159.046-8.159-.061C319.5,165.69,316.783,165.639,314.06,165.558Z" transform="translate(-205.396 -106.847)" fill="#a6a6a6"/>
      <path id="Path_3874" data-name="Path 3874" d="M314.06,170.188c2.723-.076,5.441-.117,8.164-.147l8.159-.041,8.159.041c2.718.03,5.441.066,8.159.147-2.718.081-5.441.117-8.159.147l-8.159.041-8.159-.041C319.5,170.3,316.783,170.264,314.06,170.188Z" transform="translate(-205.396 -109.125)" fill="#a6a6a6"/>
      <path id="Path_3875" data-name="Path 3875" d="M314.06,174.813c2.723-.081,5.441-.117,8.164-.147l8.159-.046,8.159.046c2.718.03,5.441.066,8.159.147-2.718.076-5.441.112-8.159.142l-8.159.046-8.159-.046C319.5,174.925,316.783,174.889,314.06,174.813Z" transform="translate(-205.396 -111.398)" fill="#a6a6a6"/>
      <path id="Path_3876" data-name="Path 3876" d="M314.06,179.432c1.361-.076,2.723-.117,4.064-.147s2.718-.025,4.064-.041,2.718,0,4.064.041,2.718.071,4.064.147c-1.361.081-2.723.117-4.064.147s-2.723.03-4.064.046-2.723,0-4.064-.046S315.421,179.514,314.06,179.432Z" transform="translate(-205.396 -113.67)" fill="#a6a6a6"/>
      <path id="Path_3877" data-name="Path 3877" d="M314.06,188.688c2.723-.076,5.441-.112,8.164-.142l8.159-.046,8.159.041c2.718.03,5.441.071,8.159.147-2.718.081-5.441.117-8.159.147l-8.159.046-8.159-.046Q318.139,188.79,314.06,188.688Z" transform="translate(-205.396 -118.227)" fill="#a6a6a6"/>
      <path id="Path_3878" data-name="Path 3878" d="M314.06,193.313c2.723-.081,5.441-.117,8.164-.147l8.159-.046,8.159.046c2.718.03,5.441.066,8.159.147-2.718.076-5.441.117-8.159.147l-8.159.041-8.159-.041C319.5,193.43,316.783,193.389,314.06,193.313Z" transform="translate(-205.396 -120.5)" fill="#a6a6a6"/>
      <path id="Path_3879" data-name="Path 3879" d="M314.06,197.938c2.723-.076,5.441-.112,8.164-.142l8.159-.046,8.159.046c2.718.03,5.441.066,8.159.142-2.718.081-5.441.117-8.159.147l-8.159.046-8.159-.046C319.5,198.055,316.783,198.019,314.06,197.938Z" transform="translate(-205.396 -122.778)" fill="#a6a6a6"/>
      <path id="Path_3880" data-name="Path 3880" d="M314.06,202.562c1.361-.076,2.723-.117,4.064-.147s2.718-.025,4.064-.041,2.718,0,4.064.041,2.718.066,4.064.147c-1.361.081-2.723.117-4.064.147s-2.723.025-4.064.041-2.723,0-4.064-.041S315.421,202.639,314.06,202.562Z" transform="translate(-205.396 -125.05)" fill="#a6a6a6"/>
      <path id="Path_3881" data-name="Path 3881" d="M314.06,211.818c2.723-.076,5.441-.117,8.164-.147l8.159-.041,8.159.041c2.718.03,5.441.071,8.159.147-2.718.081-5.441.117-8.159.147l-8.159.046-8.159-.046C319.5,211.935,316.783,211.9,314.06,211.818Z" transform="translate(-205.396 -129.606)" fill="#a6a6a6"/>
      <path id="Path_3882" data-name="Path 3882" d="M314.06,216.443c2.723-.081,5.441-.117,8.164-.147l8.159-.046,8.159.046c2.718.03,5.441.066,8.159.147-2.718.076-5.441.112-8.159.147l-8.159.041-8.159-.046C319.5,216.555,316.783,216.519,314.06,216.443Z" transform="translate(-205.396 -131.879)" fill="#a6a6a6"/>
      <path id="Path_3883" data-name="Path 3883" d="M314.06,221.068c2.723-.076,5.441-.112,8.164-.142l8.159-.046,8.159.041c2.718.03,5.441.071,8.159.147-2.718.081-5.441.117-8.159.147l-8.159.046-8.159-.046C319.5,221.185,316.783,221.149,314.06,221.068Z" transform="translate(-205.396 -134.157)" fill="#a6a6a6"/>
      <path id="Path_3884" data-name="Path 3884" d="M314.06,225.693c2.723-.081,5.441-.117,8.164-.147l8.159-.046,8.159.046c2.718.03,5.441.066,8.159.147-2.718.076-5.441.117-8.159.147l-8.159.041-8.159-.041C319.5,225.81,316.783,225.754,314.06,225.693Z" transform="translate(-205.396 -136.43)" fill="#a6a6a6"/>
      <path id="Path_3885" data-name="Path 3885" d="M314.06,230.312c1.361-.076,2.723-.112,4.064-.142s2.718-.03,4.064-.046,2.718,0,4.064.046,2.718.066,4.064.142c-1.361.081-2.723.117-4.064.147s-2.723.03-4.064.046-2.723,0-4.064-.046S315.421,230.394,314.06,230.312Z" transform="translate(-205.396 -138.703)" fill="#a6a6a6"/>
      <rect id="Rectangle_1198" data-name="Rectangle 1198" width="51.197" height="2.377" transform="translate(18.522 108.689)" fill="#ebebeb"/>
      <rect id="Rectangle_1199" data-name="Rectangle 1199" width="37.014" height="2.377" transform="translate(18.522 108.689)" fill="#15ace5"/>
      <rect id="Rectangle_1200" data-name="Rectangle 1200" width="51.197" height="2.377" transform="translate(18.522 114.841)" fill="#ebebeb"/>
      <rect id="Rectangle_1201" data-name="Rectangle 1201" width="46.95" height="2.377" transform="translate(18.522 114.841)" fill="#15ace5"/>
      <rect id="Rectangle_1202" data-name="Rectangle 1202" width="51.197" height="2.377" transform="translate(18.522 120.988)" fill="#ebebeb"/>
      <rect id="Rectangle_1203" data-name="Rectangle 1203" width="39.899" height="2.377" transform="translate(18.522 120.988)" fill="#15ace5"/>
      <rect id="Rectangle_1204" data-name="Rectangle 1204" width="51.197" height="2.377" transform="translate(18.522 127.14)" fill="#ebebeb"/>
      <rect id="Rectangle_1205" data-name="Rectangle 1205" width="43.999" height="2.377" transform="translate(18.522 127.14)" fill="#15ace5"/>
      <rect id="Rectangle_1206" data-name="Rectangle 1206" width="51.197" height="2.377" transform="translate(18.522 133.287)" fill="#ebebeb"/>
      <rect id="Rectangle_1207" data-name="Rectangle 1207" width="48.149" height="2.377" transform="translate(18.522 133.287)" fill="#15ace5"/>
      <rect id="Rectangle_1208" data-name="Rectangle 1208" width="3.841" height="3.841" transform="translate(10.937 107.958)" fill="#15ace5"/>
      <rect id="Rectangle_1209" data-name="Rectangle 1209" width="3.841" height="3.841" transform="translate(10.937 114.11)" fill="#455a64"/>
      <rect id="Rectangle_1210" data-name="Rectangle 1210" width="3.841" height="3.841" transform="translate(10.937 120.257)" fill="#c7c7c7"/>
      <rect id="Rectangle_1211" data-name="Rectangle 1211" width="3.841" height="3.841" transform="translate(10.937 126.409)" fill="#15ace5"/>
      <rect id="Rectangle_1212" data-name="Rectangle 1212" width="3.841" height="3.841" transform="translate(10.937 132.561)" fill="#263238"/>
      <rect id="Rectangle_1213" data-name="Rectangle 1213" width="32.625" height="1.722" transform="translate(83.537 101.181)" fill="#455a64"/>
      <rect id="Rectangle_1214" data-name="Rectangle 1214" width="12.401" height="1.722" transform="translate(83.537 107.861)" fill="#c7c7c7"/>
      <rect id="Rectangle_1215" data-name="Rectangle 1215" width="12.401" height="1.722" transform="translate(83.537 122.507)" fill="#c7c7c7"/>
      <rect id="Rectangle_1216" data-name="Rectangle 1216" width="12.401" height="1.722" transform="translate(83.537 137.148)" fill="#c7c7c7"/>
      <rect id="Rectangle_1217" data-name="Rectangle 1217" width="12.401" height="1.722" transform="translate(83.537 151.794)" fill="#c7c7c7"/>
      <path id="Path_3886" data-name="Path 3886" d="M313.91,264c2.718-.081,5.436-.117,8.159-.147l8.159-.046,8.159.046c2.723.03,5.441.066,8.159.147-2.718.076-5.436.117-8.159.147l-8.159.041-8.143-.041C319.346,264.12,316.628,264.079,313.91,264Z" transform="translate(-205.323 -155.278)" fill="#a6a6a6"/>
      <path id="Path_3887" data-name="Path 3887" d="M313.91,268.628c2.718-.076,5.436-.112,8.159-.142l8.159-.046,8.159.046c2.723.03,5.441.066,8.159.142-2.718.081-5.436.117-8.159.147l-8.159.046-8.143-.046C319.346,268.724,316.628,268.724,313.91,268.628Z" transform="translate(-205.323 -157.556)" fill="#a6a6a6"/>
      <path id="Path_3888" data-name="Path 3888" d="M313.91,273.258c2.718-.076,5.436-.117,8.159-.147l8.159-.041,8.159.041c2.723.03,5.441.066,8.159.147-2.718.081-5.436.117-8.159.147l-8.159.041-8.143-.041C319.346,273.375,316.628,273.334,313.91,273.258Z" transform="translate(-205.323 -159.834)" fill="#a6a6a6"/>
      <path id="Path_3889" data-name="Path 3889" d="M313.91,277.878c1.148-.081,2.3-.117,3.444-.147s2.3-.03,3.449-.046,2.3,0,3.444.046,2.3.066,3.449.147c-1.153.076-2.3.112-3.449.142s-2.3.03-3.444.046-2.3,0-3.449-.046S315.058,277.954,313.91,277.878Z" transform="translate(-205.323 -162.102)" fill="#a6a6a6"/>
      <path id="Path_3890" data-name="Path 3890" d="M313.91,292.908c2.718-.076,5.436-.112,8.159-.142l8.159-.046,8.159.046c2.723.03,5.441.066,8.159.142-2.718.081-5.436.117-8.159.147l-8.159.046-8.143-.046C319.346,293.025,316.628,292.989,313.91,292.908Z" transform="translate(-205.323 -169.502)" fill="#a6a6a6"/>
      <path id="Path_3891" data-name="Path 3891" d="M313.91,297.533c2.718-.081,5.436-.117,8.159-.147l8.159-.046,8.159.046c2.723.031,5.441.066,8.159.147-2.718.081-5.436.117-8.159.147l-8.159.041-8.143-.046C319.346,297.675,316.628,297.609,313.91,297.533Z" transform="translate(-205.323 -171.775)" fill="#a6a6a6"/>
      <path id="Path_3892" data-name="Path 3892" d="M313.91,302.178c2.718-.081,5.436-.117,8.159-.147l8.143-.03,8.159.046c2.723.03,5.441.066,8.159.147-2.718.076-5.436.112-8.159.142l-8.159.046-8.128-.061C319.346,302.29,316.628,302.254,313.91,302.178Z" transform="translate(-205.323 -174.067)" fill="#a6a6a6"/>
      <path id="Path_3893" data-name="Path 3893" d="M313.91,306.812c1.148-.076,2.3-.117,3.444-.147s2.3-.025,3.449-.041,2.3,0,3.444.041,2.3.071,3.449.147c-1.153.081-2.3.117-3.449.147s-2.3.031-3.444.046-2.3,0-3.449-.046S315.058,306.878,313.91,306.812Z" transform="translate(-205.323 -176.34)" fill="#a6a6a6"/>
      <path id="Path_3894" data-name="Path 3894" d="M313.91,321.813c2.718-.081,5.436-.117,8.159-.147l8.159-.046,8.159.046c2.723.03,5.441.066,8.159.147-2.718.081-5.436.117-8.159.147l-8.159.041-8.143-.041C319.346,321.93,316.628,321.889,313.91,321.813Z" transform="translate(-205.323 -183.72)" fill="#a6a6a6"/>
      <path id="Path_3895" data-name="Path 3895" d="M313.91,326.438c2.718-.076,5.436-.112,8.159-.142l8.159-.046,8.159.046c2.723.031,5.441.066,8.159.142-2.718.081-5.436.117-8.159.147l-8.174.046-8.128-.046C319.346,326.555,316.628,326.519,313.91,326.438Z" transform="translate(-205.323 -185.998)" fill="#a6a6a6"/>
      <path id="Path_3896" data-name="Path 3896" d="M313.91,331.068c2.718-.076,5.436-.117,8.159-.147l8.159-.041,8.159.041c2.723.031,5.441.066,8.159.147-2.718.081-5.436.117-8.159.147l-8.159.046-8.143-.046C319.346,331.185,316.628,331.149,313.91,331.068Z" transform="translate(-205.323 -188.276)" fill="#a6a6a6"/>
      <path id="Path_3897" data-name="Path 3897" d="M313.91,335.688c1.148-.081,2.3-.117,3.444-.147s2.3-.03,3.449-.046,2.3,0,3.444.046,2.3.066,3.449.147c-1.153.076-2.3.112-3.449.142s-2.3.03-3.444.046-2.3,0-3.449-.046S315.058,335.748,313.91,335.688Z" transform="translate(-205.323 -190.543)" fill="#a6a6a6"/>
      <path id="Path_3898" data-name="Path 3898" d="M313.91,350.718c2.718-.076,5.436-.112,8.159-.142l8.159-.046,8.159.046c2.723.03,5.441.066,8.159.142-2.718.081-5.436.117-8.159.147l-8.159.046-8.143-.046C319.346,350.835,316.628,350.8,313.91,350.718Z" transform="translate(-205.323 -197.944)" fill="#a6a6a6"/>
      <path id="Path_3899" data-name="Path 3899" d="M313.91,355.348c2.718-.076,5.436-.117,8.159-.147l8.159-.041,8.159.041c2.723.03,5.441.066,8.159.147-2.718.081-5.436.117-8.159.147l-8.174.041-8.128-.041C319.346,355.465,316.628,355.424,313.91,355.348Z" transform="translate(-205.323 -200.221)" fill="#a6a6a6"/>
      <path id="Path_3900" data-name="Path 3900" d="M313.91,359.973c2.718-.081,5.436-.117,8.159-.147l8.159-.046,8.159.046c2.723.03,5.441.066,8.159.147-2.718.076-5.436.112-8.159.142l-8.159.046-8.143-.046C319.346,360.085,316.628,360.049,313.91,359.973Z" transform="translate(-205.323 -202.494)" fill="#a6a6a6"/>
      <path id="Path_3901" data-name="Path 3901" d="M313.91,364.592c1.148-.076,2.3-.117,3.444-.147s2.3-.025,3.449-.041,2.3,0,3.444.041,2.3.071,3.449.147c-1.153.081-2.3.117-3.449.147s-2.3.03-3.444.046-2.3,0-3.449-.046S315.058,364.674,313.91,364.592Z" transform="translate(-205.323 -204.767)" fill="#a6a6a6"/>
      <path id="Path_3902" data-name="Path 3902" d="M300.843,263.04l.1,7.412.056,7.417.046,14.829-.046.914-.056,7.412-.1,7.417-.1-7.417-.056-7.412-.046-.914.051-14.829.056-7.417Z" transform="translate(-198.794 -154.9)" fill="#15ace5"/>
      <path id="Path_3903" data-name="Path 3903" d="M301.059,263.362a.767.767,0,1,1-.353-.737A.767.767,0,0,1,301.059,263.362Z" transform="translate(-198.248 -154.637)" fill="#15ace5"/>
      <path id="Path_3904" data-name="Path 3904" d="M301.054,292.352a.767.767,0,1,1-.762-.762A.767.767,0,0,1,301.054,292.352Z" transform="translate(-198.243 -168.946)" fill="#15ace5"/>
      <path id="Path_3905" data-name="Path 3905" d="M301.059,321.172a.767.767,0,1,1-.353-.737A.767.767,0,0,1,301.059,321.172Z" transform="translate(-198.248 -183.079)" fill="#15ace5"/>
      <path id="Path_3906" data-name="Path 3906" d="M301.054,350.162a.767.767,0,1,1-.762-.762A.767.767,0,0,1,301.054,350.162Z" transform="translate(-198.243 -197.387)" fill="#15ace5"/>
      <path id="Path_3907" data-name="Path 3907" d="M133.038,348.154a5.659,5.659,0,1,1-.747-2.814A5.659,5.659,0,0,1,133.038,348.154Z" transform="translate(-110.766 -193.988)" fill="#455a64"/>
      <path id="Path_3908" data-name="Path 3908" d="M137.748,345.34l-4.918,2.814V342.49a5.669,5.669,0,0,1,4.917,2.849Z" transform="translate(-116.233 -193.988)" fill="#15ace5"/>
      <ellipse id="Ellipse_168" data-name="Ellipse 168" cx="3.917" cy="3.917" rx="3.917" ry="3.917" transform="translate(12.095 157.39) rotate(-80.61)" fill="#fff"/>
      <rect id="Rectangle_1218" data-name="Rectangle 1218" width="3.261" height="0.462" transform="translate(14.966 153.293)" fill="#263238"/>
      <rect id="Rectangle_1219" data-name="Rectangle 1219" width="4.877" height="0.462" transform="translate(14.163 154.573)" fill="#a6a6a6"/>
      <path id="Path_3909" data-name="Path 3909" d="M164.179,348.148a5.589,5.589,0,0,1-.061.828,5.669,5.669,0,1,1,.061-.828Z" transform="translate(-126.078 -193.982)" fill="#455a64"/>
      <path id="Path_3910" data-name="Path 3910" d="M169.689,348.154a5.586,5.586,0,0,1-.061.828l-5.588-.828V342.49a5.659,5.659,0,0,1,5.659,5.664Z" transform="translate(-131.588 -193.988)" fill="#15ace5"/>
      <ellipse id="Ellipse_169" data-name="Ellipse 169" cx="3.917" cy="3.917" rx="3.917" ry="3.917" transform="translate(27.735 157.089) rotate(-76.76)" fill="#fff"/>
      <rect id="Rectangle_1220" data-name="Rectangle 1220" width="3.261" height="0.462" transform="translate(30.811 153.293)" fill="#263238"/>
      <rect id="Rectangle_1221" data-name="Rectangle 1221" width="4.877" height="0.462" transform="translate(30.003 154.573)" fill="#a6a6a6"/>
      <path id="Path_3911" data-name="Path 3911" d="M195.6,348.154a5.659,5.659,0,1,1-.747-2.814,5.659,5.659,0,0,1,.747,2.814Z" transform="translate(-141.545 -193.988)" fill="#455a64"/>
      <path id="Path_3912" data-name="Path 3912" d="M201.074,348.154a5.654,5.654,0,0,1-3.632,5.283l-2.032-5.283V342.49a5.659,5.659,0,0,1,5.659,5.664Z" transform="translate(-147.022 -193.988)" fill="#15ace5"/>
      <path id="Path_3913" data-name="Path 3913" d="M195.544,349.847a3.917,3.917,0,1,1-3.917-3.917A3.917,3.917,0,0,1,195.544,349.847Z" transform="translate(-143.234 -195.68)" fill="#fff"/>
      <rect id="Rectangle_1222" data-name="Rectangle 1222" width="3.261" height="0.462" transform="translate(46.762 153.293)" fill="#263238"/>
      <rect id="Rectangle_1223" data-name="Rectangle 1223" width="4.877" height="0.462" transform="translate(45.955 154.573)" fill="#a6a6a6"/>
      <path id="Path_3914" data-name="Path 3914" d="M226.828,348.154a5.659,5.659,0,1,1-.747-2.814A5.659,5.659,0,0,1,226.828,348.154Z" transform="translate(-156.91 -193.988)" fill="#455a64"/>
      <path id="Path_3915" data-name="Path 3915" d="M228.752,348.154a5.659,5.659,0,0,1-9.332,4.3l3.673-4.3V342.49A5.659,5.659,0,0,1,228.752,348.154Z" transform="translate(-158.835 -193.988)" fill="#15ace5"/>
      <ellipse id="Ellipse_170" data-name="Ellipse 170" cx="3.917" cy="3.917" rx="3.917" ry="3.917" transform="matrix(0.152, -0.988, 0.988, 0.152, 59.789, 157.426)" fill="#fff"/>
      <rect id="Rectangle_1224" data-name="Rectangle 1224" width="3.261" height="0.462" transform="translate(62.628 153.293)" fill="#263238"/>
      <rect id="Rectangle_1225" data-name="Rectangle 1225" width="4.877" height="0.462" transform="translate(61.82 154.573)" fill="#a6a6a6"/>
      <path id="Path_3916" data-name="Path 3916" d="M247.578,249.11l.091,7.742.056,7.742.046,15.484-.046,15.489-.056,7.742-.091,7.747-.091-7.747-.056-7.742-.041-15.489.041-15.484.056-7.742Z" transform="translate(-172.595 -148.046)" fill="#455a64"/>
      <g id="freepik--IaQ7Yo--inject-41" transform="translate(11.09 175.769)">
        <path id="Path_3917" data-name="Path 3917" d="M125.328,400.466a.508.508,0,0,1-.244.122l-.122.025h-.213l-.213-.036a2.16,2.16,0,0,1-.782-.346,5.023,5.023,0,0,1-1.387-1.392,2.19,2.19,0,0,1-.34-.772.472.472,0,0,0-.036-.218v-.213a.7.7,0,0,1,.046-.2,1.173,1.173,0,0,1,.091-.178l.036.03c.29.295.584.584.879.879a.046.046,0,0,1,0,.056.437.437,0,0,0,.091.427,8.447,8.447,0,0,0,.8.8.437.437,0,0,0,.427.091.046.046,0,0,1,.051,0l.894.894Z" transform="translate(-121.99 -396.703)" fill="#15ace5"/>
        <path id="Path_3918" data-name="Path 3918" d="M128.4,401.614l-.31.31h0l-.9-.9.066-.066.269-.264a.142.142,0,0,1,.229,0l.671.676a.137.137,0,0,1-.02.244Z" transform="translate(-124.548 -398.364)" fill="#15ace5"/>
        <path id="Path_3919" data-name="Path 3919" d="M123.874,397.1l-.345.33-.889-.889h0l.315-.32a.142.142,0,0,1,.224,0l.681.681A.142.142,0,0,1,123.874,397.1Z" transform="translate(-122.31 -396.163)" fill="#15ace5"/>
      </g>
      <g id="freepik--TEfYE6--inject-41" transform="translate(11.146 184.069)">
        <path id="Path_3920" data-name="Path 3920" d="M125.9,412.536l-.1.091-1.524,1.433a.229.229,0,0,1-.345,0l-1.524-1.458-.061-.061a.208.208,0,0,1,.132-.036h3.226a.3.3,0,0,1,.193.03Z" transform="translate(-122.223 -412.501)" fill="#15ace5"/>
        <path id="Path_3921" data-name="Path 3921" d="M125.866,416.644a.606.606,0,0,1-.132.025h-3.282a.32.32,0,0,1-.163-.041c.417-.4.833-.792,1.25-1.189l.239.224.1.1a.274.274,0,0,0,.386,0l.33-.32c.417.4.828.787,1.245,1.173Z" transform="translate(-122.193 -413.947)" fill="#15ace5"/>
        <path id="Path_3922" data-name="Path 3922" d="M123.314,414.058c-.4.4-.813.777-1.214,1.173V412.9Z" transform="translate(-122.1 -412.698)" fill="#15ace5"/>
        <path id="Path_3923" data-name="Path 3923" d="M128.4,415.217l-.457-.437-.737-.7-.03-.025c.406-.4.818-.777,1.214-1.168C128.414,412.946,128.42,415.156,128.4,415.217Z" transform="translate(-124.599 -412.693)" fill="#15ace5"/>
      </g>
      <g id="freepik--aiZGp2--inject-41" transform="translate(73.985 175.589)">
        <path id="Path_3924" data-name="Path 3924" d="M246.758,398.05a2.748,2.748,0,0,0-.188.874H245.8a.247.247,0,0,1,0-.061,2.118,2.118,0,0,1,.051-.3,2.29,2.29,0,0,1,.173-.472h.716Z" transform="translate(-245.796 -396.912)" fill="#15ace5"/>
        <path id="Path_3925" data-name="Path 3925" d="M246.755,401.078h-.711a2.033,2.033,0,0,1-.178-.539,1.635,1.635,0,0,1-.036-.269v-.03h.757v.188a2.85,2.85,0,0,0,.046.29,2.768,2.768,0,0,0,.1.35Z" transform="translate(-245.813 -397.99)" fill="#15ace5"/>
        <path id="Path_3926" data-name="Path 3926" d="M252.039,402.33h0a2.547,2.547,0,0,1-.2.259,1.888,1.888,0,0,1-.295.274,2.3,2.3,0,0,1-.335.208,2.141,2.141,0,0,1-.356.137,1.449,1.449,0,0,1-.295.061h-.046a2.388,2.388,0,0,0,.564-.544,2.911,2.911,0,0,0,.229-.381h.726Z" transform="translate(-248.115 -399.018)" fill="#15ace5"/>
        <path id="Path_3927" data-name="Path 3927" d="M251.136,398.929H250.12v-.869h.777a2.3,2.3,0,0,1,.157.508,1.7,1.7,0,0,1,.041.274A.111.111,0,0,1,251.136,398.929Z" transform="translate(-247.924 -396.917)" fill="#15ace5"/>
        <path id="Path_3928" data-name="Path 3928" d="M251.18,400.215a.248.248,0,0,1,0,.061,1.337,1.337,0,0,1,0,.142.4.4,0,0,1-.036.2,2.509,2.509,0,0,1-.127.422h-.8V400.2Z" transform="translate(-247.973 -397.97)" fill="#15ace5"/>
        <path id="Path_3929" data-name="Path 3929" d="M248.775,398.07v.869H247.8a.27.27,0,0,0,0-.066v-.142a.438.438,0,0,1,.041-.224,2.476,2.476,0,0,1,.142-.427h.757Z" transform="translate(-246.782 -396.922)" fill="#15ace5"/>
        <path id="Path_3930" data-name="Path 3930" d="M248.785,400.247v.833h-.777a2.233,2.233,0,0,1-.137-.442.536.536,0,0,0-.036-.234c-.036-.076,0-.1,0-.152h.965S248.785,400.237,248.785,400.247Z" transform="translate(-246.791 -397.991)" fill="#15ace5"/>
        <path id="Path_3931" data-name="Path 3931" d="M253.226,398.929h-.813a2.931,2.931,0,0,0-.193-.879h.762a1.863,1.863,0,0,1,.188.544,2.092,2.092,0,0,1,.041.3Z" transform="translate(-248.957 -396.912)" fill="#15ace5"/>
        <path id="Path_3932" data-name="Path 3932" d="M253.283,400.21v.279a2.087,2.087,0,0,1-.152.508l-.036.076h-.757a.444.444,0,0,1,0-.076,2.738,2.738,0,0,0,.1-.4.852.852,0,0,1,.036-.295v-.071h.808Z" transform="translate(-249.014 -397.975)" fill="#15ace5"/>
        <path id="Path_3933" data-name="Path 3933" d="M252.029,396.779H251.3a2.44,2.44,0,0,0-.356-.508,1.777,1.777,0,0,0-.269-.249l-.147-.112h0a2.033,2.033,0,0,1,.721.213A2.15,2.15,0,0,1,252.029,396.779Z" transform="translate(-248.125 -395.859)" fill="#15ace5"/>
        <path id="Path_3934" data-name="Path 3934" d="M248.013,403.27h0a1.729,1.729,0,0,1-.234-.046,2.032,2.032,0,0,1-.838-.432,1.955,1.955,0,0,1-.411-.472h.671a2.135,2.135,0,0,0,.244.4,2.462,2.462,0,0,0,.284.32,2.254,2.254,0,0,0,.274.218Z" transform="translate(-246.157 -399.013)" fill="#15ace5"/>
        <path id="Path_3935" data-name="Path 3935" d="M248.013,395.83l-.1.071a2.569,2.569,0,0,0-.32.3,2.245,2.245,0,0,0-.34.483v.036h-.7a2.139,2.139,0,0,1,1.468-.909h0Z" transform="translate(-246.167 -395.81)" fill="#15ace5"/>
        <path id="Path_3936" data-name="Path 3936" d="M250.856,402.33a2.6,2.6,0,0,1-.33.447,2.278,2.278,0,0,1-.376.32v-.767Z" transform="translate(-247.938 -399.018)" fill="#15ace5"/>
        <path id="Path_3937" data-name="Path 3937" d="M249.066,402.33v.752a2.133,2.133,0,0,1-.676-.752Z" transform="translate(-247.072 -399.018)" fill="#15ace5"/>
        <path id="Path_3938" data-name="Path 3938" d="M250.836,396.916h-.676V396.2a2.117,2.117,0,0,1,.381.32A2.5,2.5,0,0,1,250.836,396.916Z" transform="translate(-247.943 -396.002)" fill="#15ace5"/>
        <path id="Path_3939" data-name="Path 3939" d="M249.09,396.25v.7h-.65A2.032,2.032,0,0,1,249.09,396.25Z" transform="translate(-247.097 -396.026)" fill="#15ace5"/>
      </g>
      <g id="freepik--uGJA8C--inject-41" transform="translate(74.326 183.085)">
        <path id="Path_3940" data-name="Path 3940" d="M249.913,411.6a1.824,1.824,0,0,0-2.118-.97,1.707,1.707,0,0,0-1.321,1.809,2.423,2.423,0,0,0,.239.793,6,6,0,0,0,1.016,1.483c.163.183.34.361.508.544l.061-.051c.218-.239.447-.467.66-.711a5.334,5.334,0,0,0,.95-1.524A1.717,1.717,0,0,0,249.913,411.6Zm-.544.665a1.113,1.113,0,1,1-1.052-1.133A1.113,1.113,0,0,1,249.37,412.265Z" transform="translate(-246.468 -410.566)" fill="#15ace5"/>
      </g>
      <path id="Path_3941" data-name="Path 3941" d="M137.47,397.273c2.718-.081,5.441-.117,8.159-.147l8.159-.046,8.159.046c2.723.03,5.441.066,8.164.147-2.723.076-5.441.112-8.164.147l-8.159.041-8.159-.046C142.911,397.385,140.188,397.349,137.47,397.273Z" transform="translate(-118.516 -220.846)" fill="#a6a6a6"/>
      <path id="Path_3942" data-name="Path 3942" d="M137.47,401.892c1.361-.076,2.718-.112,4.064-.142s2.718-.03,4.064-.046,2.718,0,4.064.041,2.718.071,4.064.147c-1.361.081-2.718.117-4.064.147s-2.718.03-4.064.046-2.718,0-4.064-.046S138.831,401.974,137.47,401.892Z" transform="translate(-118.516 -223.118)" fill="#a6a6a6"/>
      <path id="Path_3943" data-name="Path 3943" d="M137.47,412.678c2.718-.076,5.441-.112,8.159-.142l8.159-.046,8.159.041c2.723.031,5.441.071,8.164.147-2.723.081-5.441.117-8.164.147l-8.159.046-8.159-.046Q141.552,412.78,137.47,412.678Z" transform="translate(-118.516 -228.427)" fill="#a6a6a6"/>
      <path id="Path_3944" data-name="Path 3944" d="M137.47,417.3c1.361-.081,2.718-.117,4.064-.147s2.718-.025,4.064-.046,2.718,0,4.064.046,2.718.066,4.064.147c-1.361.076-2.718.117-4.064.147s-2.718.025-4.064.041-2.718,0-4.064-.041S138.831,417.372,137.47,417.3Z" transform="translate(-118.516 -230.692)" fill="#a6a6a6"/>
      <path id="Path_3945" data-name="Path 3945" d="M265.6,397.273c2.718-.081,5.441-.117,8.159-.147l8.159-.046,8.164.046c2.718.03,5.436.066,8.159.147-2.723.076-5.441.112-8.159.147l-8.164.041-8.159-.046C271.041,397.385,268.343,397.349,265.6,397.273Z" transform="translate(-181.555 -220.846)" fill="#a6a6a6"/>
      <path id="Path_3946" data-name="Path 3946" d="M265.6,401.892c1.361-.076,2.718-.112,4.064-.142s2.723-.03,4.064-.046,2.723,0,4.064.041,2.723.071,4.064.147c-1.356.081-2.718.117-4.064.147s-2.718.03-4.064.046-2.718,0-4.064-.046S266.961,401.974,265.6,401.892Z" transform="translate(-181.555 -223.118)" fill="#a6a6a6"/>
      <path id="Path_3947" data-name="Path 3947" d="M265.6,412.678c2.718-.076,5.441-.112,8.159-.142l8.159-.046,8.164.041c2.718.031,5.436.071,8.159.147-2.723.081-5.441.117-8.159.147l-8.164.046-8.159-.046C271.041,412.795,268.343,412.749,265.6,412.678Z" transform="translate(-181.555 -228.427)" fill="#a6a6a6"/>
      <path id="Path_3948" data-name="Path 3948" d="M265.6,417.3c1.361-.081,2.718-.117,4.064-.147s2.723-.025,4.064-.046,2.723,0,4.064.046,2.723.066,4.064.147c-1.356.076-2.718.117-4.064.147s-2.718.025-4.064.041-2.718,0-4.064-.041S266.961,417.372,265.6,417.3Z" transform="translate(-181.555 -230.692)" fill="#a6a6a6"/>
    </g>
  </g>
</svg>
