<svg xmlns="http://www.w3.org/2000/svg" width="885" height="482.535" viewBox="0 0 885 482.535">
  <g id="Live_collaboration-cuate" data-name="Live collaboration-cuate" transform="translate(-45.3 -62)">
    <g id="freepik--background-complete--inject-11" transform="translate(90.315 68.63)">
      <rect id="Rectangle_1026" data-name="Rectangle 1026" width="205.775" height="138.669" transform="translate(0.671 131.918)" fill="#fff"/>
      <path id="Path_3156" data-name="Path 3156" d="M285.944,304.741H78.84V164.73h207.1ZM80.182,303.4H284.6V166.072H80.182Z" transform="translate(-78.84 -33.483)" fill="#ebebeb"/>
      <path id="Path_3157" data-name="Path 3157" d="M96.565,174.258a4.738,4.738,0,1,1-4.738-4.738,4.738,4.738,0,0,1,4.738,4.738Z" transform="translate(-76.017 -31.844)" fill="#37474f"/>
      <path id="Path_3158" data-name="Path 3158" d="M110.985,174.258a4.738,4.738,0,1,1-4.738-4.738A4.738,4.738,0,0,1,110.985,174.258Z" transform="translate(-71.084 -31.844)" fill="#ebebeb"/>
      <path id="Path_3159" data-name="Path 3159" d="M125.422,174.258a4.751,4.751,0,1,1-4.738-4.738A4.751,4.751,0,0,1,125.422,174.258Z" transform="translate(-66.154 -31.844)" fill="#15ace5"/>
      <rect id="Rectangle_1027" data-name="Rectangle 1027" width="205.775" height="1.342" transform="translate(0.671 152.144)" fill="#ebebeb"/>
      <rect id="Rectangle_1028" data-name="Rectangle 1028" width="205.775" height="138.669" transform="translate(620.721 228.659)" fill="#fff"/>
      <path id="Path_3160" data-name="Path 3160" d="M747.947,376.821H540.83V236.81H747.947Zm-205.775-1.342H746.605V238.152H542.172Z" transform="translate(79.22 -8.823)" fill="#ebebeb"/>
      <path id="Path_3161" data-name="Path 3161" d="M558.555,246.338a4.738,4.738,0,1,1-4.738-4.738,4.738,4.738,0,0,1,4.738,4.738Z" transform="translate(82.043 -7.184)" fill="#37474f"/>
      <path id="Path_3162" data-name="Path 3162" d="M572.975,246.338a4.738,4.738,0,1,1-1.4-3.364,4.738,4.738,0,0,1,1.4,3.364Z" transform="translate(86.976 -7.184)" fill="#ebebeb"/>
      <path id="Path_3163" data-name="Path 3163" d="M587.415,246.338a4.738,4.738,0,1,1-4.738-4.738,4.738,4.738,0,0,1,4.738,4.738Z" transform="translate(91.917 -7.184)" fill="#15ace5"/>
      <rect id="Rectangle_1029" data-name="Rectangle 1029" width="205.775" height="1.342" transform="translate(620.721 248.884)" fill="#ebebeb"/>
      <path id="Path_3164" data-name="Path 3164" d="M208.216,272.166a21.769,21.769,0,0,1-21.783,21.783h-1.114l-38.761.081a21.8,21.8,0,0,1,0-43.579h39.875A21.8,21.8,0,0,1,208.216,272.166Z" transform="translate(-62.944 -4.156)" fill="#a6a6a6"/>
      <g id="freepik--IaQ7Yo--inject-11" transform="translate(83.835 259.595)">
        <path id="Path_3165" data-name="Path 3165" d="M141.32,269.487a4.375,4.375,0,0,1,.765-2.268c.188-.309.4-.6.6-.9l1.342-1.342c.5-.362,1.007-.752,1.517-1.087a18.937,18.937,0,0,1,6.912-2.684,43.914,43.914,0,0,1,17.152,0,18.938,18.938,0,0,1,6.8,2.684c.55.362,1.06.765,1.584,1.141l1.342,1.262a16.384,16.384,0,0,1,.926,1.517,13.006,13.006,0,0,1,.55,1.637H169.6a.456.456,0,0,1-.523-.174,3.771,3.771,0,0,0-3.194-2.053,76.991,76.991,0,0,0-9.8,0,3.745,3.745,0,0,0-3.194,2.053c-.094.148-.161.255-.376.255h-11.18Z" transform="translate(-141.299 -260.36)" fill="#fff"/>
        <path id="Path_3166" data-name="Path 3166" d="M141.312,272.93v-4.12h11.1v4.067A1.235,1.235,0,0,1,151,274.286h-8.268a1.235,1.235,0,0,1-1.423-1.356Z" transform="translate(-141.304 -257.469)" fill="#fff"/>
        <path id="Path_3167" data-name="Path 3167" d="M162.372,272.981c0-1.342,0-2.778.107-4.161h10.938v4.134a1.208,1.208,0,0,1-1.342,1.342H163.7a1.195,1.195,0,0,1-1.329-1.315Z" transform="translate(-134.099 -257.466)" fill="#fff"/>
      </g>
      <path id="Path_3168" data-name="Path 3168" d="M705.073,258.386a6.08,6.08,0,0,1,0-6.335c.322-.523.631-1.074.926-1.624s.577-1.114.846-1.678a6.026,6.026,0,0,1,5.221-3.53l7.784-.242-.792-25.339-7.825.228a5.959,5.959,0,0,1-5.369-3.194,34.774,34.774,0,0,0-1.946-3.141,6.12,6.12,0,0,1-.443-6.348l3.677-6.845-22.36-12-3.664,6.845a6.107,6.107,0,0,1-5.543,3.154,33.8,33.8,0,0,0-3.691.121,6.013,6.013,0,0,1-5.664-2.684l-4.134-6.711-21.555,13.421,4.12,6.711a5.892,5.892,0,0,1,0,6.2c-.336.564-.658,1.127-.966,1.718s-.617,1.168-.886,1.758a5.933,5.933,0,0,1-5.207,3.436l-7.784.242L630.6,247.9l7.771-.255a5.973,5.973,0,0,1,5.369,3.073,37.495,37.495,0,0,0,2.12,3.436,5.906,5.906,0,0,1,.336,6.2L642.53,267.2l22.427,11.864,3.664-6.845a6.08,6.08,0,0,1,5.543-3.141,34.155,34.155,0,0,0,3.7-.121,6.013,6.013,0,0,1,5.664,2.751l4.12,6.644,21.555-13.421Zm-37.58-5.234a43.831,43.831,0,1,1,.027,0Z" transform="translate(109.666 -25.406)" fill="#fff"/>
      <path id="Path_3169" data-name="Path 3169" d="M633.979,194a4.241,4.241,0,0,1-2.067-3.919v-2.684a4.2,4.2,0,0,1,2.054-3.906l4.724-2.684-8.871-15.381-4.724,2.684a4.241,4.241,0,0,1-4.429-.161,24.3,24.3,0,0,0-2.3-1.342,4.2,4.2,0,0,1-2.335-3.745V157.41h-17.77v5.449a4.2,4.2,0,0,1-2.335,3.745,22.507,22.507,0,0,0-2.282,1.342,4.241,4.241,0,0,1-4.443.161l-4.711-2.684-8.885,15.394,4.738,2.684a4.215,4.215,0,0,1,2.067,3.906c0,.429,0,.859,0,1.342v1.342a4.227,4.227,0,0,1-2.08,3.919l-4.724,2.684,8.885,15.381,4.7-2.684a4.214,4.214,0,0,1,4.429.148,26.333,26.333,0,0,0,2.309,1.342,4.228,4.228,0,0,1,2.335,3.758v5.436h17.77v-5.5a4.228,4.228,0,0,1,2.335-3.758,24.53,24.53,0,0,0,2.308-1.342,4.214,4.214,0,0,1,4.429-.148l4.711,2.684,8.871-15.381Zm-26.843,9.395a7.819,7.819,0,1,0,.027-.067Z" transform="translate(91.119 -35.988)" fill="#fff"/>
      <path id="Path_3170" data-name="Path 3170" d="M138.87,164.042l8.871,15.381,4.711-2.684a4.241,4.241,0,0,1,4.429.161,24.508,24.508,0,0,0,2.308,1.342,4.214,4.214,0,0,1,2.335,3.745v5.449h17.783v-5.449a4.214,4.214,0,0,1,2.335-3.745,26.323,26.323,0,0,0,2.308-1.342,4.241,4.241,0,0,1,4.429-.161l4.711,2.684,8.858-15.381-4.724-2.684a4.228,4.228,0,0,1-2.08-4.026v-2.684a4.214,4.214,0,0,1,2.067-3.906l4.738-2.684-8.871-15.394-4.724,2.684a4.241,4.241,0,0,1-4.429-.161,24.291,24.291,0,0,0-2.3-1.342,4.214,4.214,0,0,1-2.335-3.745V124.65h-17.77V130.1a4.214,4.214,0,0,1-2.335,3.745,24.285,24.285,0,0,0-2.3,1.342,4.241,4.241,0,0,1-4.429.161l-4.724-2.684-8.871,15.394,4.724,2.684a4.2,4.2,0,0,1,2.053,3.906c0,.43,0,.872,0,1.342v1.342a4.241,4.241,0,0,1-2.067,3.919Zm16.978-8.053A14.562,14.562,0,1,1,170.4,170.551a14.562,14.562,0,0,1-14.549-14.562Z" transform="translate(-58.302 -47.196)" fill="#fff"/>
      <circle id="Ellipse_154" data-name="Ellipse 154" cx="78.931" cy="78.931" r="78.931" transform="matrix(0.242, -0.97, 0.97, 0.242, 262.819, 169.319)" fill="#ebebeb"/>
      <circle id="Ellipse_155" data-name="Ellipse 155" cx="60.248" cy="60.248" r="60.248" transform="matrix(0.243, -0.97, 0.97, 0.243, 285.345, 155.55)" fill="#fff"/>
      <circle id="Ellipse_156" data-name="Ellipse 156" cx="43.056" cy="43.056" r="43.056" transform="matrix(0.244, -0.97, 0.97, 0.244, 306.203, 143.007)" fill="#ebebeb"/>
      <circle id="Ellipse_157" data-name="Ellipse 157" cx="23.796" cy="23.796" r="23.796" transform="matrix(0.246, -0.969, 0.969, 0.246, 329.529, 128.972)" fill="#fff"/>
      <circle id="Ellipse_158" data-name="Ellipse 158" cx="10.764" cy="10.764" r="10.764" transform="matrix(0.247, -0.969, 0.969, 0.247, 345.392, 119.56)" fill="#ebebeb"/>
      <rect id="Rectangle_1030" data-name="Rectangle 1030" width="127.865" height="3.073" transform="translate(363.59 104.457) rotate(-45)" fill="#c7c7c7"/>
      <path id="Path_3171" data-name="Path 3171" d="M357.731,150.067l-11.811,3.167,3.154-11.824Z" transform="translate(12.536 -41.462)" fill="#a6a6a6"/>
      <path id="Path_3172" data-name="Path 3172" d="M436.9,76.187,419.951,93.138l-13.3,4.053L410.7,83.9,427.668,66.94l-4.067,13.3Z" transform="translate(33.313 -66.94)" fill="#a6a6a6"/>
    </g>
    <g id="freepik--Desk--inject-11" transform="translate(45.3 502.916)">
      <path id="Path_3173" data-name="Path 3173" d="M45.3,391.191l110.632-.322,110.618-.121,221.25-.228,221.25.228,110.618.121,110.632.322-110.632.336-110.618.107-221.25.228-221.25-.228-110.618-.121Z" transform="translate(-45.3 -390.52)" fill="#263238"/>
    </g>
    <g id="freepik--Devices--inject-11" transform="translate(125.962 385.883)">
      <path id="Path_3174" data-name="Path 3174" d="M304.679,428.943H119.72L105.4,303.32H290.359Z" transform="translate(-105.4 -303.32)" fill="#37474f"/>
      <path id="Path_3175" data-name="Path 3175" d="M292.031,418.366H125.311L112.91,309.6H279.629Z" transform="translate(-102.831 -301.171)" fill="#fff"/>
      <rect id="Rectangle_1031" data-name="Rectangle 1031" width="189.844" height="8.429" transform="translate(113.987 117.195)" fill="#37474f"/>
      <rect id="Rectangle_1032" data-name="Rectangle 1032" width="95.546" height="8.429" transform="translate(208.272 117.195)" fill="#263238"/>
      <path id="Path_3176" data-name="Path 3176" d="M230.822,309.6,122.9,417.521,119.68,389.3l79.682-79.7Z" transform="translate(-100.514 -301.171)" fill="#ebebeb"/>
      <path id="Path_3177" data-name="Path 3177" d="M258.605,379.378l-24.776,24.776H202.37l53.014-53.014Z" transform="translate(-72.224 -286.959)" fill="#ebebeb"/>
      <path id="Path_3178" data-name="Path 3178" d="M133.305,309.6l-18.535,18.535-1.1-9.623,8.912-8.912Z" transform="translate(-102.571 -301.171)" fill="#ebebeb"/>
      <path id="Path_3179" data-name="Path 3179" d="M261.207,340.076l-71.16,71.16H179.31l80.8-80.8Z" transform="translate(-80.113 -294.041)" fill="#ebebeb"/>
      <path id="Path_3180" data-name="Path 3180" d="M146.716,309.6l-31.1,31.1-.268-2.416L144.031,309.6Z" transform="translate(-101.996 -301.171)" fill="#ebebeb"/>
      <path id="Path_3181" data-name="Path 3181" d="M242.39,309.6,133.624,418.366H130.94L239.706,309.6Z" transform="translate(-96.662 -301.171)" fill="#ebebeb"/>
      <path id="Path_3182" data-name="Path 3182" d="M261.858,326.386,174.794,413.45H172.11l89.48-89.48Z" transform="translate(-82.577 -296.255)" fill="#ebebeb"/>
      <path id="Path_3183" data-name="Path 3183" d="M495.3,428.943H680.272L694.579,303.32H509.62Z" transform="translate(27.996 -303.32)" fill="#37474f"/>
      <path id="Path_3184" data-name="Path 3184" d="M502.81,418.366H669.543L681.931,309.6H515.211Z" transform="translate(30.566 -301.171)" fill="#fff"/>
      <rect id="Rectangle_1033" data-name="Rectangle 1033" width="189.844" height="8.429" transform="translate(418.758 117.195)" fill="#37474f"/>
      <rect id="Rectangle_1034" data-name="Rectangle 1034" width="95.546" height="8.429" transform="translate(418.758 117.195)" fill="#263238"/>
      <path id="Path_3185" data-name="Path 3185" d="M649.687,340.99,645.633,376.5l-31.124,31.124H583.05Z" transform="translate(58.018 -290.432)" fill="#ebebeb"/>
      <path id="Path_3186" data-name="Path 3186" d="M618.018,309.6,509.266,418.366H502.81l3.221-28.225L586.572,309.6Z" transform="translate(30.566 -301.171)" fill="#ebebeb"/>
      <path id="Path_3187" data-name="Path 3187" d="M545.053,309.6,508.99,345.663l1.382-12.119L534.316,309.6Z" transform="translate(32.68 -301.171)" fill="#ebebeb"/>
      <path id="Path_3188" data-name="Path 3188" d="M654.713,309.6,545.947,418.366H535.21L643.976,309.6Z" transform="translate(41.651 -301.171)" fill="#ebebeb"/>
      <path id="Path_3189" data-name="Path 3189" d="M654.289,330.89l-.336,3.033-77.159,77.159H574.11Z" transform="translate(54.959 -293.887)" fill="#ebebeb"/>
      <path id="Path_3190" data-name="Path 3190" d="M661.047,309.6,552.294,418.366H549.61L658.376,309.6Z" transform="translate(46.577 -301.171)" fill="#ebebeb"/>
      <path id="Path_3191" data-name="Path 3191" d="M574.581,309.6,506.24,377.941l.349-3.033L571.9,309.6Z" transform="translate(31.739 -301.171)" fill="#ebebeb"/>
    </g>
    <g id="freepik--Characters--inject-11" transform="translate(184.57 180.791)">
      <path id="Path_3192" data-name="Path 3192" d="M244.685,261.1c22.937,46.317,56.906,92.607,66.006,101.277,24.454,23.46,89.735,40.331,108.981,40.868,8.308.228,19.8-54.96,13.663-61.389s-86.728-23.97-91.05-27.272c-2.993-2.349-41.391-38.895-66.892-60.6C243.678,227.019,238.659,248.882,244.685,261.1Z" transform="translate(-117.113 -119.514)" fill="#f7a9a0"/>
      <path id="Path_3193" data-name="Path 3193" d="M415.7,334.68l-20.816,65.7s-68.207-17.944-86.46-35.5-56.061-80.394-63.442-101.116-2.577-37.083,30.869-10.2,61.805,54.383,67.724,58.812S415.7,334.68,415.7,334.68Z" transform="translate(-117.278 -120.06)" fill="#455a64"/>
      <path id="Path_3194" data-name="Path 3194" d="M355.69,313.365a3.355,3.355,0,1,0,2.805-3.825,3.355,3.355,0,0,0-2.805,3.825Z" transform="translate(-78.39 -96.114)" fill="#263238"/>
      <path id="Path_3195" data-name="Path 3195" d="M343.24,309.772a3.342,3.342,0,1,0,.612-2.488,3.355,3.355,0,0,0-.612,2.488Z" transform="translate(-82.65 -97.339)" fill="#263238"/>
      <path id="Path_3196" data-name="Path 3196" d="M344.572,384.1c-14.938-5.8-29.178-12.549-36.144-19.219-18.253-17.448-56.061-80.393-63.442-101.116-4.724-13.247-4.469-24.709,5.06-24.239Z" transform="translate(-117.28 -120.06)" fill="#263238"/>
      <path id="Path_3197" data-name="Path 3197" d="M163.066,443.885h172.2c.7-6.295-34.734-181.751-51.6-203.749-3.61-4.711-15.515-6.013-25.621-4.751a45.728,45.728,0,0,0-7.8,1.584,1.142,1.142,0,0,1-.255.08,18.24,18.24,0,0,0-5.731,2.805C216.107,262.362,161.711,442.342,163.066,443.885Z" transform="translate(-144.288 -121.626)" fill="#455a64"/>
      <path id="Path_3198" data-name="Path 3198" d="M242.47,272.023,249.8,257.77l9.449,10.308-2.309,10.267-9.341,1.194Z" transform="translate(-117.113 -113.813)" fill="#263238"/>
      <path id="Path_3199" data-name="Path 3199" d="M247.426,274.294,242.97,379.155l19.649,34.681,10.2-39.029L256.767,273.1Z" transform="translate(-116.942 -108.568)" fill="#263238"/>
      <path id="Path_3200" data-name="Path 3200" d="M252.791,272.04c-2.684-.107-20.7-14.173-26.225-25.138-.376-.752,1.02-8.482,2.268-17.971.725-5.758,1.342-12.187,1.611-18.092,0-1.221,4.093,1.154,4.093,1.154l7.583,2.094,25.1,6.993s-4.026,12.267-4.348,22.575a14.339,14.339,0,0,0,.174,2.443,2.9,2.9,0,0,1,0,.4C263.689,251.13,257.233,272.215,252.791,272.04Z" transform="translate(-122.575 -129.989)" fill="#f7a9a0"/>
      <path id="Path_3201" data-name="Path 3201" d="M261.585,245.351a2.907,2.907,0,0,1,0,.4,23.621,23.621,0,0,1-3.812.067c-24.95-1.342-27-33.231-27-33.231l9.851.752,25.1,6.993s-4.026,12.267-4.349,22.575A14.329,14.329,0,0,0,261.585,245.351Z" transform="translate(-121.116 -129.27)" fill="#263238"/>
      <path id="Path_3202" data-name="Path 3202" d="M239.68,229.87h0" transform="translate(-118.067 -123.358)" fill="none" stroke="#f4a69d" stroke-linecap="round" stroke-linejoin="round"/>
      <path id="Path_3203" data-name="Path 3203" d="M225.35,183.972c-3.771,13.22,3.906,51.081,13.421,59.376,13.784,12.079,36.009,12.777,46.129-3.731,9.811-15.985-1.047-65.147-11.65-72.649C257.655,155.921,230.906,164.43,225.35,183.972Z" transform="translate(-123.305 -146.553)" fill="#f7a9a0"/>
      <path id="Path_3204" data-name="Path 3204" d="M253.387,194.815c0-.094-.174.161-.148.255.577,2.537.832,5.543-1.342,6.845-.067,0,0,.174,0,.148C254.729,201.1,254.394,197.124,253.387,194.815Z" transform="translate(-113.897 -135.358)" fill="#263238"/>
      <path id="Path_3205" data-name="Path 3205" d="M251.595,193.164c-4.161.5-2.859,8.791.993,8.335S255.084,192.735,251.595,193.164Z" transform="translate(-114.87 -135.922)" fill="#263238"/>
      <path id="Path_3206" data-name="Path 3206" d="M264.172,193.388c0-.107.215.081.228.188.322,2.59,1.127,5.489,3.584,5.972.081,0,.094.148,0,.148C265.085,199.75,264.065,195.885,264.172,193.388Z" transform="translate(-109.69 -135.851)" fill="#263238"/>
      <path id="Path_3207" data-name="Path 3207" d="M266.044,191.13c4.026-.966,5.717,7.274,1.933,8.16S262.608,191.935,266.044,191.13Z" transform="translate(-109.697 -136.639)" fill="#263238"/>
      <path id="Path_3208" data-name="Path 3208" d="M248.729,192.358a30.078,30.078,0,0,0,3.033-1.637,5.556,5.556,0,0,0,2.778-2.255,1.785,1.785,0,0,0-.617-2.08,4.4,4.4,0,0,0-4.456.242,6.523,6.523,0,0,0-3.248,3.342,1.892,1.892,0,0,0,2.51,2.389Z" transform="translate(-115.869 -138.404)" fill="#263238"/>
      <path id="Path_3209" data-name="Path 3209" d="M269.337,188.916a32.109,32.109,0,0,1-3.422-.336,5.516,5.516,0,0,1-3.436-1.02,1.745,1.745,0,0,1-.242-2.147,4.416,4.416,0,0,1,4.2-1.5,6.536,6.536,0,0,1,4.295,1.825,1.906,1.906,0,0,1-1.4,3.181Z" transform="translate(-110.44 -139.109)" fill="#263238"/>
      <path id="Path_3210" data-name="Path 3210" d="M254.108,212.868c.711.5,1.463,1.235,2.4,1.168a6.818,6.818,0,0,0,2.684-1.087.094.094,0,0,1,.121.121,3.49,3.49,0,0,1-3.033,1.906,2.792,2.792,0,0,1-2.389-1.959C253.826,212.881,254.041,212.787,254.108,212.868Z" transform="translate(-113.209 -129.185)" fill="#263238"/>
      <path id="Path_3211" data-name="Path 3211" d="M263.6,208.626a10.536,10.536,0,0,1-3.651,3.879,4.644,4.644,0,0,1-2.805.617c-2.147-.215-2.483-2.08-2.362-3.758a11.327,11.327,0,0,1,.523-2.6,13.663,13.663,0,0,0,8.294,1.866Z" transform="translate(-112.907 -131.265)" fill="#fff"/>
      <path id="Path_3212" data-name="Path 3212" d="M255.194,214.369a8.9,8.9,0,0,0,6.482,2.939,11.139,11.139,0,0,0,3.181-.362,2.956,2.956,0,0,0,.591-.161,1.624,1.624,0,0,0,.55-.174.644.644,0,0,0,.416-.658h0a.793.793,0,0,0-.067-.255h0v-.228c-.255-1.986-.926-4.966-.926-4.966.778.255,4.724,1.342,4.51.309-1.852-8.482-3.919-17.9-7.556-25.957a.242.242,0,0,0-.456.148c1.449,8.214,4.348,16.106,5.959,24.36a15.7,15.7,0,0,0-4.335-.617c-.268.134,1.342,5.744,1.436,6.644v.094c-3.261.953-5.932.336-9.5-1.342C255.181,213.98,254.966,214.181,255.194,214.369Z" transform="translate(-112.792 -138.807)" fill="#263238"/>
      <path id="Path_3213" data-name="Path 3213" d="M232.211,215.445c9.033-1.342,8.388-18.025,8.388-18.025s15.153-4.818,15.7-16.83c0,0,16.106,7.261,27.084,1.342s6.63-18.642,4.939-21.259-7.355,3.53-7.355,3.53-1.825-7.315-3.906-7.784-3.6,4.335-3.6,4.335-15.663-2.818-29.151-.456-18.2,17.045-18.2,17.045-7.019,2.59-8.616,8.053S226.44,216.264,232.211,215.445Z" transform="translate(-125.711 -148.499)" fill="#263238"/>
      <path id="Path_3214" data-name="Path 3214" d="M232.075,192.829c12.24-.161,19.045-9.3,19.112-21.058a.121.121,0,0,1,.228,0c1.208,10.737-7.046,24.158-19.38,21.622A.283.283,0,0,1,232.075,192.829Z" transform="translate(-120.769 -143.263)" fill="#263238"/>
      <path id="Path_3215" data-name="Path 3215" d="M226.793,171.781a.134.134,0,0,1,.121.228c-3.141,2.053-6.818,3.771-8.737,7.18-2.308,4.12-.993,8.885.7,12.938,2.59,6.268,7.194,14.24,13.569,17.22.376.174.094.711-.268.564-7.6-3.1-13.26-13.488-15.341-21.018C214.5,180.464,219.13,174.76,226.793,171.781Z" transform="translate(-126.091 -143.233)" fill="#263238"/>
      <path id="Path_3216" data-name="Path 3216" d="M256.706,180.985c5.758,2.416,13.623,1.342,18.28-2.98,5.664-5.369,3.261-12.415-.362-18.092-.174-.268.215-.658.456-.4,4.523,4.791,6.013,12.858,1.517,18.2s-13.945,6.711-20.293,4.026C255.78,181.562,256.169,180.757,256.706,180.985Z" transform="translate(-112.465 -147.458)" fill="#263238"/>
      <path id="Path_3217" data-name="Path 3217" d="M254.39,211.678a11.14,11.14,0,1,1,10.254-14.28h0a11.14,11.14,0,0,1-7.529,13.824A11.343,11.343,0,0,1,254.39,211.678ZM253.6,190.9a10.456,10.456,0,0,0-2.362.389,9.637,9.637,0,1,0,2.362-.389Z" transform="translate(-116.994 -137.202)" fill="#455a64"/>
      <path id="Path_3218" data-name="Path 3218" d="M272.62,208.639c-4.255.161-8.281-4.026-9.18-9.784a13.328,13.328,0,0,1,1.127-8.053,7.382,7.382,0,0,1,5.369-4.228,7.3,7.3,0,0,1,6.375,2.389,13.421,13.421,0,0,1,3.53,7.328c.94,6.066-1.959,11.583-6.469,12.28A4.441,4.441,0,0,1,272.62,208.639Zm-1.906-20.655h-.564a5.986,5.986,0,0,0-4.255,3.436,11.851,11.851,0,0,0-.98,7.154c.819,5.248,4.483,9.059,8.2,8.482s6.053-5.369,5.234-10.589a11.864,11.864,0,0,0-3.1-6.509,6.214,6.214,0,0,0-4.536-1.986Z" transform="translate(-110.005 -138.191)" fill="#455a64"/>
      <path id="Path_3219" data-name="Path 3219" d="M259.284,197.324l-1.114-.98c1.449-1.664,5.006-4.147,8.147-1.691l-.913,1.168C262.532,193.62,259.351,197.176,259.284,197.324Z" transform="translate(-111.741 -135.76)" fill="#455a64"/>
      <path id="Path_3220" data-name="Path 3220" d="M223.1,206.787l-1.342-.47c.215-.658,2.241-6.456,5.369-7.5s23-2.2,23.85-2.255l.094,1.49c-5.744.349-21.165,1.423-23.474,2.174S223.639,205.2,223.1,206.787Z" transform="translate(-124.198 -134.755)" fill="#455a64"/>
      <path id="Path_3221" data-name="Path 3221" d="M236.895,203.993s-9.059-11.945-14.522-8.657,1.7,20.816,8.348,23a6.711,6.711,0,0,0,8.764-3.932Z" transform="translate(-124.65 -135.369)" fill="#f7a9a0"/>
      <path id="Path_3222" data-name="Path 3222" d="M223.532,198.9c-.107,0-.121.134,0,.174,4.671,1.678,7.247,5.838,9.113,10.173-1.436-1.637-3.328-2.5-5.543-.792a.148.148,0,0,0,.134.242,4.107,4.107,0,0,1,4.563,1.262,18.949,18.949,0,0,1,2.3,3.557c.242.4.966.148.792-.322V213.1C234.685,207.248,229.826,199.236,223.532,198.9Z" transform="translate(-123.621 -133.954)" fill="#263238"/>
      <path id="Path_3223" data-name="Path 3223" d="M265.014,239.155l-8.965,22L228.884,233.37l-7.744,8.9s26.547,44.1,26.708,42.116l9.073-18.87,13.005,13.166-.98-32.99Z" transform="translate(-124.41 -122.161)" fill="#455a64"/>
      <path id="Path_3224" data-name="Path 3224" d="M270.072,259.569c-.349-5.449-.55-10.938-1.141-16.347a.188.188,0,0,0-.376,0c-1.1,5.248.336,26.051.3,31.03h0c-.537-.564-12.079-11.583-12.173-11.408-1.959,2.993-8.616,16.736-9.073,17.984-4.2-7.006-20.28-32.48-25.259-39.11a.188.188,0,0,0-.322.188c3.7,7.409,24.99,41.7,25.326,41.606a216.087,216.087,0,0,0,9.475-19.944c1.946,2.389,13.569,14.763,13.609,14.012A169.583,169.583,0,0,0,270.072,259.569Z" transform="translate(-124.113 -119.33)" fill="#263238"/>
      <path id="Path_3225" data-name="Path 3225" d="M330.062,435.161,195.969,448.435l-.429-103.948L329.632,331.2Z" transform="translate(-133.169 -88.69)" fill="#15ace5"/>
      <path id="Path_3226" data-name="Path 3226" d="M239.338,329.3l-43.888,4.349.121,11.489,46.961-4.657Z" transform="translate(-133.2 -89.34)" fill="#15ace5"/>
      <g id="Group_245" data-name="Group 245" transform="translate(62.25 239.96)" opacity="0.1">
        <path id="Path_3227" data-name="Path 3227" d="M330.062,435.161,195.969,448.435l-.429-103.948L329.632,331.2Z" transform="translate(-195.419 -328.65)"/>
        <path id="Path_3228" data-name="Path 3228" d="M239.338,329.3l-43.888,4.349.121,11.489,46.961-4.657Z" transform="translate(-195.45 -329.3)"/>
      </g>
      <path id="Path_3229" data-name="Path 3229" d="M333.382,434.928l-129.328,12.8L185.56,343.489,323.41,331.92Z" transform="translate(-136.583 -88.444)" fill="#ebebeb"/>
      <path id="Path_3230" data-name="Path 3230" d="M334.559,434.381,201.943,447.507,182.12,347.317l139.407-13.8Z" transform="translate(-137.76 -87.897)" fill="#fff"/>
      <path id="Path_3231" data-name="Path 3231" d="M334.776,433.679,200.4,446.98,180.78,348.951l134.387-13.3Z" transform="translate(-138.219 -87.168)" fill="#15ace5"/>
      <path id="Path_3232" data-name="Path 3232" d="M229.97,252.264c-45.834,41.606-78.917,113.276-77.843,132.589,1.342,25.5,47.565,69.147,77.669,81.776,7.61,3.194,37.056-59.134,25.917-62.382-11.757-3.422-38.922-28.064-40.264-29.191-2.818-2.389,19.085-56.92,28.252-90.017C253.967,247.66,249.256,234.763,229.97,252.264Z" transform="translate(-148.031 -118.332)" fill="#f7a9a0"/>
      <path id="Path_3233" data-name="Path 3233" d="M197.27,416.978c29.164,21.045,68.784,25.608,75.616,24.91,5.838-.577,8.831-.926,8.831-.926,10.482-.819,14.24-5.785,14.24-5.785s12.4,2.6,15.22-4.617c3.194-8.053-14.844-10.187-24.051-17.448-21.112-16.522-46.5-45.914-52.115-51.283Z" transform="translate(-132.577 -78.211)" fill="#f7a9a0"/>
      <path id="Path_3234" data-name="Path 3234" d="M238.8,398.774c6.308,4.738,12.388,9.556,19.3,13.421,7.6,4.228,15.609,7.033,23.7,10.093a.215.215,0,0,1-.121.4,91.507,91.507,0,0,1-43.311-23.38C238.093,399.1,238.482,398.546,238.8,398.774Z" transform="translate(-118.547 -65.59)" fill="#263238"/>
      <path id="Path_3235" data-name="Path 3235" d="M230,407.194c6.389,4.268,17.676,11.7,40.774,18.025.081,0,.067.148,0,.134A81.977,81.977,0,0,1,229.6,407.905C229.213,407.557,229.575,406.953,230,407.194Z" transform="translate(-121.572 -62.709)" fill="#263238"/>
      <path id="Path_3236" data-name="Path 3236" d="M253.327,391.638c-1.892-3.248-.2-4.268,6-1.825s28.735,17.448,33.285,9.1-27.473-28.923-38.21-32.2-29.03-4.845-29.03-4.845C230.832,367.145,242.791,381.17,253.327,391.638Z" transform="translate(-122.963 -78.197)" fill="#f7a9a0"/>
      <path id="Path_3237" data-name="Path 3237" d="M214.808,462.812l36.519-61.3S217.157,377.546,217,375.157s24.011-68.449,31.312-100.955S252,226.194,220,262.432s-73.025,97.21-70.851,123.342S214.808,462.812,214.808,462.812Z" transform="translate(-149.068 -119.36)" fill="#455a64"/>
      <path id="Path_3238" data-name="Path 3238" d="M224.9,291.921c-1.342,2.322-2.751,4.6-3.946,6.992-.4.778-.792,1.557-1.181,2.335.3-.939.6-1.866.913-2.805,1.866-5.892,3.677-11.811,5.261-17.8a.136.136,0,0,0-.255-.094c-4.214,10.147-7.7,20.6-11.167,31.03s-6.711,21.071-9.878,31.674c-1.745,5.932-3.543,11.891-4.912,17.917a.107.107,0,0,0,.2,0c2.013-5.167,3.718-10.469,5.462-15.73s3.516-10.509,5.221-15.77q4.026-12.6,8.053-25.219a28.105,28.105,0,0,0,2.926-5.047c1.248-2.443,2.241-4.993,3.342-7.489Z" transform="translate(-131.732 -106.049)" fill="#263238"/>
      <path id="Path_3239" data-name="Path 3239" d="M193.263,395.529a3.355,3.355,0,1,0,4.228-2.147,3.355,3.355,0,0,0-4.228,2.147Z" transform="translate(-134.005 -67.472)" fill="#263238"/>
      <path id="Path_3240" data-name="Path 3240" d="M183.752,386.742a3.355,3.355,0,1,0,1.666-1.957,3.355,3.355,0,0,0-1.666,1.957Z" transform="translate(-137.258 -70.483)" fill="#263238"/>
      <path id="Path_3241" data-name="Path 3241" d="M166.61,377.14c4.228,3.6,8.2,7.462,12.079,11.354,1.96,1.96,3.906,3.919,5.825,5.905s3.812,4.026,5.7,6.053a117.278,117.278,0,0,1-12.348-11.019,151.741,151.741,0,0,1-11.26-12.294Z" transform="translate(-143.067 -72.973)" fill="#263238"/>
      <path id="Path_3242" data-name="Path 3242" d="M515,177.257c2.872-9.234,15.435-29.527,35.714-23.42,28.869,8.724,27.769,65.979,40.787,85.158,23.568,34.627,21.474,66.489-.859,69.509-24.977,3.369-46.277-25.1-40.009-81.762,3.919-35.432-4.6-52.1-11.771-51.712s-11.918,8.939-11.918,8.939Z" transform="translate(-23.872 -149.757)" fill="#263238"/>
      <path id="Path_3243" data-name="Path 3243" d="M515.93,174.534a57.175,57.175,0,0,1,7.1-11.932,34.011,34.011,0,0,1,10.616-9.234,23.192,23.192,0,0,1,14-2.684,30.036,30.036,0,0,1,13.421,5.1,33.646,33.646,0,0,1,9.395,10.643,61.5,61.5,0,0,1,5.449,12.965,123.642,123.642,0,0,1,4.295,27.393,183,183,0,0,0-6.227-26.843,66.344,66.344,0,0,0-5.624-12.307,31.782,31.782,0,0,0-8.845-9.8,28.01,28.01,0,0,0-12.173-4.778,21.608,21.608,0,0,0-12.764,2.027,34.9,34.9,0,0,0-10.563,8.241A58.637,58.637,0,0,0,519.7,168.7Q517.715,171.582,515.93,174.534Z" transform="translate(-23.554 -150.51)" fill="#263238"/>
      <path id="Path_3244" data-name="Path 3244" d="M544.579,193.24c-.228,5.664-1.087,11.274-1.718,16.884s-1.423,11.193-1.96,16.79a163.786,163.786,0,0,0-.846,16.8,84.552,84.552,0,0,0,1.463,16.6,43.512,43.512,0,0,0,5.8,15.314A47.146,47.146,0,0,0,558.658,287.5a35.137,35.137,0,0,0,15.085,6.456,31.943,31.943,0,0,0,8.321.349,30.872,30.872,0,0,0,4.134-.671,15.4,15.4,0,0,0,4.026-1.409,21.085,21.085,0,0,1-8.053,2.765,33.326,33.326,0,0,1-8.576.242,35.7,35.7,0,0,1-8.4-2.027,38.4,38.4,0,0,1-7.677-4.026,45.459,45.459,0,0,1-6.71-5.53l-1.49-1.57-1.436-1.624a32.036,32.036,0,0,1-2.684-3.476A45.523,45.523,0,0,1,538.9,260.87c-2.147-11.368-1.49-22.91-.067-34.13.711-5.637,1.691-11.22,2.684-16.777S543.774,198.837,544.579,193.24Z" transform="translate(-16.167 -135.89)" fill="#263238"/>
      <path id="Path_3245" data-name="Path 3245" d="M513.681,172.677c-.08-2.684,1.839-6.08,3.557-6.55s14.441,4.993,15.542,8.268-4.577,6.147-4.577,6.147Z" transform="translate(-24.325 -145.176)" fill="#455a64"/>
      <path id="Path_3246" data-name="Path 3246" d="M572.429,263.759c-7.57,16.454-63.832,93.8-91.761,95.909-29.232,2.214-99.318-45.552-106.028-49.538-18.427-10.9,32.963-61.2,41.848-52.343,14.844,14.938,50.343,43.069,59.054,41.177,18.253-4.026,56.249-35.915,83.212-52.531C574.912,236.514,580.79,245.547,572.429,263.759Z" transform="translate(-73.248 -119.091)" fill="#ad6359"/>
      <path id="Path_3247" data-name="Path 3247" d="M390.119,317.614c-3.167-2.107-28.748-16.32-38.345-30.01-5.073-7.247-16.79-28.722-12.764-32.426,3.677-3.328,8.335,1.785,8.335,1.785s-5.087-9.677.081-14.24,12.589,4.469,12.589,4.469-4.5-10.321.98-14.5,11.408,6.134,11.408,6.134-4.55-9.234,1.409-10.737c7.18-1.866,13.649,16.106,20.6,23.031,1.57,1.57,34.265,29.527,34.265,29.527Z" transform="translate(-84.366 -124.012)" fill="#ad6359"/>
      <path id="Path_3248" data-name="Path 3248" d="M364.167,236.164c4.791,13.207,9.167,18.159,20.132,26.641.215.161,0,.523-.228.362-11.448-7.328-17.837-12.75-20.521-26.843C363.362,235.668,363.912,235.533,364.167,236.164Z" transform="translate(-75.701 -121.345)" fill="#263238"/>
      <path id="Path_3249" data-name="Path 3249" d="M354.922,242.317c6.16,13.287,10.871,18.7,21.662,28.426.148.134-.067.4-.228.282-11.395-8.657-17.636-14.2-22.065-28.292C354.09,242.1,354.64,241.713,354.922,242.317Z" transform="translate(-78.87 -119.203)" fill="#263238"/>
      <path id="Path_3250" data-name="Path 3250" d="M345.538,250.035c6.9,12.428,11.8,18.588,23.487,26.682a.259.259,0,1,1-.268.443c-12.723-7.1-18.9-14.763-23.581-26.843C344.867,249.458,345.108,249.244,345.538,250.035Z" transform="translate(-82.022 -116.627)" fill="#263238"/>
      <path id="Path_3251" data-name="Path 3251" d="M426.176,274.754s-7.247-16.038-12-22.387-31.111-23.474-35.137-17.985c-5.194,7.073,8.053,19.971,15.408,25.433,0,0-12.079,16.374-4.51,27.688S426.176,274.754,426.176,274.754Z" transform="translate(-70.791 -122.18)" fill="#ad6359"/>
      <path id="Path_3252" data-name="Path 3252" d="M378.225,235.91c-.081,9.878,10,16.441,16.71,22.266a.805.805,0,0,1-.081,1.342c-4.577,7.207-8.952,18.7-5.489,27.017a.2.2,0,0,1-.362.188c-4.926-8.415-1.557-20.051,4.026-27.621-6.979-5.865-16.8-12.884-14.844-23.179C378.144,235.856,378.225,235.856,378.225,235.91Z" transform="translate(-70.768 -121.305)" fill="#263238"/>
      <path id="Path_3253" data-name="Path 3253" d="M564.486,268.74c-8.764,17.448-59.845,91.949-87.44,93.13s-85.386-22.36-85.386-22.36L434.474,274.3s29.648,21.394,34.3,21.555,66.945-40.948,81.44-49.994S578.672,240.341,564.486,268.74Z" transform="translate(-66.071 -119.401)" fill="#15ace5"/>
      <path id="Path_3254" data-name="Path 3254" d="M420.822,317.86a23.231,23.231,0,0,1,.148-5.959,23.705,23.705,0,0,1,1.476-5.771,23.244,23.244,0,0,1-.148,5.959,24.014,24.014,0,0,1-1.476,5.771Z" transform="translate(-56.136 -97.267)" fill="#fff"/>
      <path id="Path_3255" data-name="Path 3255" d="M484.331,308.13a23.879,23.879,0,0,1,.148-5.959,23.135,23.135,0,0,1,1.49-5.771A26.723,26.723,0,0,1,484.331,308.13Z" transform="translate(-34.406 -100.596)" fill="#fff"/>
      <path id="Path_3256" data-name="Path 3256" d="M490.81,268.618a23.25,23.25,0,0,1-5.959-.161,22.82,22.82,0,0,1-5.771-1.476,23.876,23.876,0,0,1,5.959.148A23.288,23.288,0,0,1,490.81,268.618Z" transform="translate(-36.162 -110.703)" fill="#fff"/>
      <path id="Path_3257" data-name="Path 3257" d="M439.617,285.388a23.744,23.744,0,0,1-5.946-.161,22.533,22.533,0,0,1-5.771-1.476,23.744,23.744,0,0,1,5.946.148,23.139,23.139,0,0,1,5.771,1.49Z" transform="translate(-53.672 -104.965)" fill="#fff"/>
      <path id="Path_3258" data-name="Path 3258" d="M444.254,330.08a2.818,2.818,0,0,1-.255.309h-.349Z" transform="translate(-48.283 -89.073)" fill="#fff"/>
      <path id="Path_3259" data-name="Path 3259" d="M408,299.24a26.843,26.843,0,0,1,9.395-7.14,23.555,23.555,0,0,1-4.322,4.107A23.057,23.057,0,0,1,408,299.24Z" transform="translate(-60.48 -102.067)" fill="#fff"/>
      <path id="Path_3260" data-name="Path 3260" d="M461.23,288.2a24.01,24.01,0,0,1,4.322-4.107,23.583,23.583,0,0,1,5.127-3.033,23.156,23.156,0,0,1-4.322,4.107,23.577,23.577,0,0,1-5.127,3.033Z" transform="translate(-42.269 -105.845)" fill="#fff"/>
      <path id="Path_3261" data-name="Path 3261" d="M443.57,301.62a26.158,26.158,0,0,1,7.14,9.395,26.466,26.466,0,0,1-7.14-9.395Z" transform="translate(-48.311 -98.81)" fill="#fff"/>
      <path id="Path_3262" data-name="Path 3262" d="M494.11,278.83a26.425,26.425,0,0,1,7.127,9.395,22.989,22.989,0,0,1-4.093-4.308,23.352,23.352,0,0,1-3.033-5.087Z" transform="translate(-31.019 -106.608)" fill="#fff"/>
      <path id="Path_3263" data-name="Path 3263" d="M439.415,273.925c-5.368,9.757-10.589,19.608-16.414,29.111a312.226,312.226,0,0,1-18.36,27.514.188.188,0,0,1-.309-.188c5.154-9.73,11.046-19.125,16.777-28.52s11.932-18.709,17.689-28.185C439.026,273.28,439.616,273.549,439.415,273.925Z" transform="translate(-61.737 -108.44)" fill="#263238"/>
      <path id="Path_3264" data-name="Path 3264" d="M548.878,268.738c-8.764,17.448-59.846,91.949-87.44,93.13-6.711.282-15.18-.886-24.158-2.832,21.474-22.937,81.427-87.628,109.2-117.571C554.891,240.956,559.038,248.579,548.878,268.738Z" transform="translate(-50.463 -119.399)" fill="#263238"/>
      <path id="Path_3265" data-name="Path 3265" d="M485.709,440.884H647.664s-62.973-159.432-96.513-191.508c-9.113-8.71-31.634-8.053-42.666,6.644-9.046,12.079-34.157,60.047-35.3,77.32s12.4,34.3,12.4,34.3Z" transform="translate(-38.201 -118.625)" fill="#15ace5"/>
      <path id="Path_3266" data-name="Path 3266" d="M497.951,349.1a23.746,23.746,0,0,1,.148-5.946,23.138,23.138,0,0,1,1.49-5.771,23.124,23.124,0,0,1-.161,5.946,23.7,23.7,0,0,1-1.476,5.771Z" transform="translate(-29.746 -86.576)" fill="#fff"/>
      <path id="Path_3267" data-name="Path 3267" d="M580.865,371.47a23.767,23.767,0,0,1,.215-6,23.132,23.132,0,0,1,1.49-5.771,23.244,23.244,0,0,1-.161,5.959,23.755,23.755,0,0,1-1.543,5.811Z" transform="translate(-1.371 -78.94)" fill="#fff"/>
      <path id="Path_3268" data-name="Path 3268" d="M528.811,390.987a23.74,23.74,0,0,1,.148-5.946,23.135,23.135,0,0,1,1.49-5.771,23.118,23.118,0,0,1-.161,5.946A23.7,23.7,0,0,1,528.811,390.987Z" transform="translate(-19.188 -72.244)" fill="#fff"/>
      <path id="Path_3269" data-name="Path 3269" d="M516.809,301.327a23.759,23.759,0,0,1,.161-5.946,22.533,22.533,0,0,1,1.476-5.771,26.2,26.2,0,0,1-1.637,11.717Z" transform="translate(-23.293 -102.919)" fill="#fff"/>
      <path id="Path_3270" data-name="Path 3270" d="M548.876,337.444a23.851,23.851,0,0,1,.2-5.973,23.114,23.114,0,0,1,1.476-5.771,26.211,26.211,0,0,1-1.637,11.73Z" transform="translate(-12.317 -90.572)" fill="#fff"/>
      <path id="Path_3271" data-name="Path 3271" d="M484.331,308.13a23.879,23.879,0,0,1,.148-5.959,23.135,23.135,0,0,1,1.49-5.771A26.723,26.723,0,0,1,484.331,308.13Z" transform="translate(-34.406 -100.596)" fill="#fff"/>
      <path id="Path_3272" data-name="Path 3272" d="M529.73,341.086A26.467,26.467,0,0,1,518,339.462a23.245,23.245,0,0,1,5.959.148,23.865,23.865,0,0,1,5.771,1.476Z" transform="translate(-22.846 -85.906)" fill="#fff"/>
      <path id="Path_3273" data-name="Path 3273" d="M566.13,306.572a23.875,23.875,0,0,1-5.959-.148,23.137,23.137,0,0,1-5.771-1.49,26.722,26.722,0,0,1,11.73,1.637Z" transform="translate(-10.392 -97.709)" fill="#fff"/>
      <path id="Path_3274" data-name="Path 3274" d="M501.177,381.678a23.74,23.74,0,0,1-5.946-.161,22.534,22.534,0,0,1-5.771-1.476,23.74,23.74,0,0,1,5.946.148,23.14,23.14,0,0,1,5.771,1.49Z" transform="translate(-32.61 -72.022)" fill="#fff"/>
      <path id="Path_3275" data-name="Path 3275" d="M568.89,351.776a23.243,23.243,0,0,1-5.959-.148,23.862,23.862,0,0,1-5.771-1.476,23.245,23.245,0,0,1,5.959.148,23.863,23.863,0,0,1,5.771,1.476Z" transform="translate(-9.448 -82.249)" fill="#fff"/>
      <path id="Path_3276" data-name="Path 3276" d="M508.77,369.547a23.933,23.933,0,0,1,4.322-4.093,23.061,23.061,0,0,1,5.127-3.033,26.629,26.629,0,0,1-9.395,7.127Z" transform="translate(-26.004 -78.009)" fill="#fff"/>
      <path id="Path_3277" data-name="Path 3277" d="M554.4,378.27a23.152,23.152,0,0,1,4.322-4.107,23.575,23.575,0,0,1,5.127-3.033,26.47,26.47,0,0,1-9.395,7.14Z" transform="translate(-10.392 -75.029)" fill="#fff"/>
      <path id="Path_3278" data-name="Path 3278" d="M566.48,335.577a23.931,23.931,0,0,1,4.322-4.093,23.057,23.057,0,0,1,5.127-3.033,22.651,22.651,0,0,1-4.322,4.093A23.055,23.055,0,0,1,566.48,335.577Z" transform="translate(-6.259 -89.631)" fill="#fff"/>
      <path id="Path_3279" data-name="Path 3279" d="M494.43,320.24a24.014,24.014,0,0,1,4.322-4.107,23.584,23.584,0,0,1,5.127-3.033,23.154,23.154,0,0,1-4.322,4.107A23.582,23.582,0,0,1,494.43,320.24Z" transform="translate(-30.91 -94.883)" fill="#fff"/>
      <path id="Path_3280" data-name="Path 3280" d="M541.09,290.82a24.01,24.01,0,0,1,4.322-4.107,23.584,23.584,0,0,1,5.127-3.033,23.147,23.147,0,0,1-4.322,4.107A23.58,23.58,0,0,1,541.09,290.82Z" transform="translate(-14.946 -104.948)" fill="#fff"/>
      <path id="Path_3281" data-name="Path 3281" d="M486.695,353.56a23.353,23.353,0,0,1-4.255,4.026v-1.637a21.006,21.006,0,0,1,4.255-2.389Z" transform="translate(-35.012 -81.04)" fill="#fff"/>
      <path id="Path_3282" data-name="Path 3282" d="M517.32,272.04a24.008,24.008,0,0,1,4.322-4.107,23.582,23.582,0,0,1,5.127-3.033,26.467,26.467,0,0,1-9.395,7.14Z" transform="translate(-23.078 -111.373)" fill="#fff"/>
      <path id="Path_3283" data-name="Path 3283" d="M477.53,324.51a24.011,24.011,0,0,1,4.107,4.322,23.586,23.586,0,0,1,3.033,5.127,26.466,26.466,0,0,1-7.14-9.395Z" transform="translate(-36.692 -90.979)" fill="#fff"/>
      <path id="Path_3284" data-name="Path 3284" d="M494.11,278.83a26.425,26.425,0,0,1,7.127,9.395,22.989,22.989,0,0,1-4.093-4.308,23.352,23.352,0,0,1-3.033-5.087Z" transform="translate(-31.019 -106.608)" fill="#fff"/>
      <path id="Path_3285" data-name="Path 3285" d="M536,352.7a26.629,26.629,0,0,1,7.127,9.395,23.474,23.474,0,0,1-4.026-4.322A23.057,23.057,0,0,1,536,352.7Z" transform="translate(-16.688 -81.334)" fill="#fff"/>
      <path id="Path_3286" data-name="Path 3286" d="M579.4,381.71a24,24,0,0,1,4.107,4.322,23.586,23.586,0,0,1,3.033,5.127,22.732,22.732,0,0,1-4.107-4.322,23.259,23.259,0,0,1-3.033-5.127Z" transform="translate(-1.839 -71.409)" fill="#fff"/>
      <path id="Path_3287" data-name="Path 3287" d="M535.15,257.26a26.428,26.428,0,0,1,7.127,9.395A26.427,26.427,0,0,1,535.15,257.26Z" transform="translate(-16.978 -113.987)" fill="#fff"/>
      <path id="Path_3288" data-name="Path 3288" d="M527.36,313.56a23.151,23.151,0,0,1,4.107,4.322,22.813,22.813,0,0,1,3.033,5.127,26.467,26.467,0,0,1-7.14-9.395Z" transform="translate(-19.644 -94.725)" fill="#fff"/>
      <path id="Path_3289" data-name="Path 3289" d="M530.63,260c-.886,2.4-14.763,16.884-25.943,14.884-3.651-.658-.966-20.722-.966-20.722l-.134-1.53-1.946-21.367,26.427-12.5,3.8-1.611s.148,5.879.255,13.207v10.818A134.672,134.672,0,0,1,530.63,260Z" transform="translate(-28.443 -127.707)" fill="#ad6359"/>
      <path id="Path_3290" data-name="Path 3290" d="M532.12,230.367a43.029,43.029,0,0,1-28.534,22.266l-1.946-21.367,26.427-12.5,3.8-1.611S532.012,223.039,532.12,230.367Z" transform="translate(-28.443 -127.707)" fill="#263238"/>
      <path id="Path_3291" data-name="Path 3291" d="M481.45,215.44c-2.98,37.58,19.166,43.579,27.272,44.21,7.341.577,32.453,1.611,39.3-35.432s-9.663-50.29-26.4-52.5S484.443,177.887,481.45,215.44Z" transform="translate(-35.444 -143.367)" fill="#ad6359"/>
      <path id="Path_3292" data-name="Path 3292" d="M486.5,199.308a23.164,23.164,0,0,0,2.55-.51,4.121,4.121,0,0,0,2.5-1.02,1.342,1.342,0,0,0,0-1.637,3.315,3.315,0,0,0-3.261-.805,4.953,4.953,0,0,0-3.087,1.7,1.423,1.423,0,0,0,1.3,2.268Z" transform="translate(-34.165 -135.221)" fill="#263238"/>
      <path id="Path_3293" data-name="Path 3293" d="M506.071,199.72c-.872-.107-1.678-.362-2.537-.55a4.215,4.215,0,0,1-2.483-1.074,1.342,1.342,0,0,1,0-1.637,3.315,3.315,0,0,1,3.288-.738,4.845,4.845,0,0,1,3.047,1.745,1.436,1.436,0,0,1-1.315,2.255Z" transform="translate(-28.74 -135.096)" fill="#263238"/>
      <path id="Path_3294" data-name="Path 3294" d="M500.4,205.727c0-.107.2.121.188.228-.161,2.563.081,5.516,2.376,6.442.067,0,0,.161,0,.148C500.119,212.049,499.837,208.116,500.4,205.727Z" transform="translate(-28.949 -131.628)" fill="#263238"/>
      <path id="Path_3295" data-name="Path 3295" d="M502.761,203.781c4.134-.188,4.187,8.053.362,8.268S499.3,203.928,502.761,203.781Z" transform="translate(-28.933 -132.285)" fill="#263238"/>
      <path id="Path_3296" data-name="Path 3296" d="M503.443,204.177c.738.456,1.45,1.342,2.322,1.342a3.6,3.6,0,0,0,2.416-1.611c0-.081.134,0,.148.094,0,1.584-.577,3.221-2.268,3.463s-2.684-1.168-3.087-2.765C502.906,204.418,503.161,204.043,503.443,204.177Z" transform="translate(-27.991 -132.252)" fill="#263238"/>
      <path id="Path_3297" data-name="Path 3297" d="M490.425,205.3c0-.094-.188.134-.188.242.121,2.563-.174,5.516-2.483,6.4-.081,0-.067.148,0,.134C490.6,211.617,490.948,207.711,490.425,205.3Z" transform="translate(-33.213 -131.773)" fill="#263238"/>
      <path id="Path_3298" data-name="Path 3298" d="M488.827,203.321c-4.134-.255-4.335,8.053-.51,8.268S492.29,203.536,488.827,203.321Z" transform="translate(-33.937 -132.443)" fill="#263238"/>
      <path id="Path_3299" data-name="Path 3299" d="M487.811,203.842c-.658.416-1.342,1.194-2.107,1.235s-1.557-.886-2.107-1.758c-.067-.081-.134,0-.134.094-.081,1.584.4,3.235,1.906,3.583s2.429-1.02,2.845-2.59C488.294,204.124,488.079,203.667,487.811,203.842Z" transform="translate(-34.665 -132.454)" fill="#263238"/>
      <path id="Path_3300" data-name="Path 3300" d="M501.749,220.853c-.577.631-1.154,1.49-2.08,1.611a6.831,6.831,0,0,1-2.778-.5.094.094,0,0,0-.107.134,3.463,3.463,0,0,0,3.315,1.221A2.684,2.684,0,0,0,502,220.947C502.03,220.8,501.829,220.759,501.749,220.853Z" transform="translate(-30.109 -126.46)" fill="#263238"/>
      <path id="Path_3301" data-name="Path 3301" d="M493.626,220.252s-.55,3.839-.564,5.637c0,.175.443.255,1.047.3h.081a8.549,8.549,0,0,0,8.348-3.154.188.188,0,0,0-.255-.255,12.978,12.978,0,0,1-7.865,2.2c-.121-.5,1.168-6.523.872-6.55a16.308,16.308,0,0,0-4.107.913c.926-8.053,3.114-15.8,3.906-23.783a.243.243,0,0,0-.47-.121c-2.872,8.053-4.134,17.193-5.288,25.5C489.17,221.9,492.915,220.561,493.626,220.252Z" transform="translate(-32.656 -135.201)" fill="#263238"/>
      <path id="Path_3302" data-name="Path 3302" d="M493.18,218.766a10.523,10.523,0,0,0,4.174,3.315,4.7,4.7,0,0,0,2.859.215c2.094-.523,2.161-2.429,1.8-4.026a11.606,11.606,0,0,0-.9-2.51A13.569,13.569,0,0,1,493.18,218.766Z" transform="translate(-31.337 -128.186)" fill="#263238"/>
      <path id="Path_3303" data-name="Path 3303" d="M496.29,221.462a4.7,4.7,0,0,0,2.859.215c2.094-.523,2.161-2.429,1.8-4.026C498.719,217.811,496.5,219.3,496.29,221.462Z" transform="translate(-30.273 -127.539)" fill="#eb9481"/>
      <path id="Path_3304" data-name="Path 3304" d="M545.9,228.548a15.435,15.435,0,0,1-8.59-12.616,40.116,40.116,0,0,1-16.361-13.3c.242.778,2.027,6.362,3.033,9.18-23.756-4.55-31.03-22.816-31.03-22.816-7.744,7.664-9.3,12.576-10.428,15.018,0,0-.107-14.576,7.435-24.306,9.234-11.918,40.264-15,54.5.658C559.827,197.29,545.9,228.548,545.9,228.548Z" transform="translate(-34.985 -143.953)" fill="#263238"/>
      <path id="Path_3305" data-name="Path 3305" d="M503.534,203.831a43.672,43.672,0,0,0,12.173,4.523h0a37.136,37.136,0,0,1-17.448-10.63,34.751,34.751,0,0,1-5.1-7.194,24.494,24.494,0,0,1-3.114-9.073.188.188,0,1,0-.376,0,28.723,28.723,0,0,0,1.852,9.395,25.755,25.755,0,0,0,5.248,7.892,30.155,30.155,0,0,0,6.711,5.127" transform="translate(-32.538 -139.986)" fill="#263238"/>
      <path id="Path_3306" data-name="Path 3306" d="M526.9,214.942s8.133-11.824,13.421-8.925-.711,19.984-6.952,22.36a6.375,6.375,0,0,1-8.563-3.369Z" transform="translate(-20.516 -131.676)" fill="#ad6359"/>
      <path id="Path_3307" data-name="Path 3307" d="M537.612,209.52c.107,0,.121.121,0,.161-4.375,1.812-6.711,5.905-8.254,10.133,1.342-1.637,3.073-2.537,5.261-.993.107.081,0,.255-.121.228a3.919,3.919,0,0,0-4.308,1.342,20.224,20.224,0,0,0-2.04,3.5c-.2.4-.913.188-.765-.255v-.107C527.358,217.989,531.653,210.164,537.612,209.52Z" transform="translate(-19.642 -130.32)" fill="#263238"/>
      <path id="Path_3308" data-name="Path 3308" d="M527.34,222.6a2.684,2.684,0,1,0,2.684-2.684A2.751,2.751,0,0,0,527.34,222.6Z" transform="translate(-19.65 -126.762)" fill="#fff"/>
      <path id="Path_3309" data-name="Path 3309" d="M494.629,259.021s-7.677,21.823,6.214,23.366S551.012,257.1,551.012,257.1s-10.066-16.293-26.145-14.549C511.513,243.989,494.629,259.021,494.629,259.021Z" transform="translate(-31.566 -119.064)" fill="#ad6359"/>
      <path id="Path_3310" data-name="Path 3310" d="M584.8,278.783c0,26.95-15.488,107.76-30.359,118.644-29.755,21.783-99.532,20.28-118.778,20.615-8.308.134-19.219-55.175-13.032-61.537s91.265-8.724,95.56-11.985c3.02-2.268,27.017-41.606,40.908-66.892C577.838,243.445,584.8,265.2,584.8,278.783Z" transform="translate(-56.096 -113.271)" fill="#ad6359"/>
      <path id="Path_3311" data-name="Path 3311" d="M463.8,330.572s-25.111-2.778-41.606-3.812c-9.22-.591-25.1-.174-32.063,2.483-10.415,4.026-51.417,27.339-45.981,37.405,4.926,9.1,17.448-.966,17.448-.966s-14.763,9.717-7.06,17.26,22.816-7.113,22.816-7.113-16.361,9.234-7.409,16.508c7.771,6.295,26.937-8.764,26.937-8.764s-18.226,7.825-10.9,15.059c8.053,8.053,39.66-10.979,39.66-10.979,20.548,6.845,33.808,8.174,49.538,7.18C478.023,394.658,463.8,330.572,463.8,330.572Z" transform="translate(-82.495 -90.29)" fill="#ad6359"/>
      <path id="Path_3312" data-name="Path 3312" d="M366.1,370.677l3.718-3.275a83.293,83.293,0,0,1,7.462-6.12c2.577-1.812,5.221-3.49,7.919-5.087s5.892-3.114,8.7-4.885a.188.188,0,1,1,.188.322,87.425,87.425,0,0,0-8.053,5.61c-2.59,1.892-5.167,3.825-7.744,5.744s-5.127,3.583-7.69,5.369c-1.342.9-2.523,1.866-3.758,2.818a26.448,26.448,0,0,1-3.6,2.684c-.121.067-.242-.107-.161-.215A20.372,20.372,0,0,1,366.1,370.677Z" transform="translate(-75.859 -81.823)" fill="#263238"/>
      <path id="Path_3313" data-name="Path 3313" d="M354.774,362.534c1.7-2.215,11.086-9.865,13.6-11.677a89.581,89.581,0,0,1,15.5-9.046.188.188,0,0,1,.188.309c-4.845,3.543-9.744,7.006-14.643,10.482-2.4,1.691-13.032,9.73-14.253,10.428C354.868,363.205,354.6,362.776,354.774,362.534Z" transform="translate(-78.709 -85.062)" fill="#263238"/>
      <path id="Path_3314" data-name="Path 3314" d="M375.007,378.69a126.588,126.588,0,0,1,12.978-10.737,114.985,114.985,0,0,1,15.448-7.65c.2-.067.362.2.188.309-4.939,2.939-9.9,5.771-14.763,8.939-2.335,1.543-11.274,8.241-13.636,9.516C375.115,379.133,374.9,378.824,375.007,378.69Z" transform="translate(-71.778 -78.737)" fill="#263238"/>
      <path id="Path_3315" data-name="Path 3315" d="M451.64,422.58l-22.95-72.931s83.507-5.368,86.218-6.711,32.48-53.994,44.29-74.448,30.01-12.079,23.205,34.13c-6.831,46.424-14.347,82.5-24.749,93.238C544.986,408.85,498.816,422.271,451.64,422.58Z" transform="translate(-53.401 -113.742)" fill="#15ace5"/>
      <path id="Path_3316" data-name="Path 3316" d="M497.951,349.1a23.746,23.746,0,0,1,.148-5.946,23.138,23.138,0,0,1,1.49-5.771,23.124,23.124,0,0,1-.161,5.946,23.7,23.7,0,0,1-1.476,5.771Z" transform="translate(-29.746 -86.576)" fill="#fff"/>
      <path id="Path_3317" data-name="Path 3317" d="M463.572,380.2a23.247,23.247,0,0,1,.148-5.959,24.012,24.012,0,0,1,1.476-5.771,23.23,23.23,0,0,1-.148,5.959,23.7,23.7,0,0,1-1.476,5.771Z" transform="translate(-41.51 -75.939)" fill="#fff"/>
      <path id="Path_3318" data-name="Path 3318" d="M516.809,301.327a23.759,23.759,0,0,1,.161-5.946,22.533,22.533,0,0,1,1.476-5.771,26.2,26.2,0,0,1-1.637,11.717Z" transform="translate(-23.293 -102.919)" fill="#fff"/>
      <path id="Path_3319" data-name="Path 3319" d="M529.73,341.086A26.467,26.467,0,0,1,518,339.462a23.245,23.245,0,0,1,5.959.148,23.865,23.865,0,0,1,5.771,1.476Z" transform="translate(-22.846 -85.906)" fill="#fff"/>
      <path id="Path_3320" data-name="Path 3320" d="M469.99,342.8a23.243,23.243,0,0,1-5.959-.148,23.7,23.7,0,0,1-5.771-1.476,23.247,23.247,0,0,1,5.959.148,24.007,24.007,0,0,1,5.771,1.476Z" transform="translate(-43.285 -85.321)" fill="#fff"/>
      <path id="Path_3321" data-name="Path 3321" d="M508.77,369.547a23.933,23.933,0,0,1,4.322-4.093,23.061,23.061,0,0,1,5.127-3.033,26.629,26.629,0,0,1-9.395,7.127Z" transform="translate(-26.004 -78.009)" fill="#fff"/>
      <path id="Path_3322" data-name="Path 3322" d="M437.06,337.207a23.932,23.932,0,0,1,4.322-4.094,23.061,23.061,0,0,1,5.127-3.033,22.655,22.655,0,0,1-4.322,4.094,23.056,23.056,0,0,1-5.127,3.033Z" transform="translate(-50.538 -89.073)" fill="#fff"/>
      <path id="Path_3323" data-name="Path 3323" d="M503.557,313.1a23.152,23.152,0,0,1-4.322,4.107,27.324,27.324,0,0,1-3.865,2.456c.416-.644.872-1.342,1.342-2.121a17.371,17.371,0,0,1,1.7-1.342,23.579,23.579,0,0,1,5.14-3.1Z" transform="translate(-30.588 -94.883)" fill="#fff"/>
      <path id="Path_3324" data-name="Path 3324" d="M544.714,286.39a14.983,14.983,0,0,1-.174,1.7,19.3,19.3,0,0,1-3.449,1.852,22.681,22.681,0,0,1,3.624-3.557Z" transform="translate(-14.946 -104.021)" fill="#fff"/>
      <path id="Path_3325" data-name="Path 3325" d="M478.57,360.7a24.009,24.009,0,0,1,4.322-4.107,23.58,23.58,0,0,1,5.127-3.033,23.153,23.153,0,0,1-4.322,4.107,23.584,23.584,0,0,1-5.127,3.033Z" transform="translate(-36.336 -81.04)" fill="#fff"/>
      <path id="Path_3326" data-name="Path 3326" d="M477.53,324.51a24.011,24.011,0,0,1,4.107,4.322,23.586,23.586,0,0,1,3.033,5.127,26.466,26.466,0,0,1-7.14-9.395Z" transform="translate(-36.692 -90.979)" fill="#fff"/>
      <path id="Path_3327" data-name="Path 3327" d="M542.167,266.455a23.436,23.436,0,0,1-4.093-4.308,24.722,24.722,0,0,1-2.6-4.174,6.634,6.634,0,0,1,.738,0,27.37,27.37,0,0,1,2.926,3.315A23.35,23.35,0,0,1,542.167,266.455Z" transform="translate(-16.869 -113.747)" fill="#fff"/>
      <path id="Path_3328" data-name="Path 3328" d="M527.36,313.56a23.151,23.151,0,0,1,4.107,4.322,22.813,22.813,0,0,1,3.033,5.127,26.467,26.467,0,0,1-7.14-9.395Z" transform="translate(-19.644 -94.725)" fill="#fff"/>
      <path id="Path_3329" data-name="Path 3329" d="M525.286,288.806c-2.684,4.026-5.248,8.294-7.758,12.5l-.215.349c.121-.322.255-.644.376-.953.819-2.094,1.543-4.228,2.429-6.281,0-.121-.121-.228-.174-.107-.913,2.027-1.919,4.026-2.778,6.053-.577,1.342-1.1,2.778-1.6,4.187-1.866,3.114-3.731,6.228-5.57,9.395-2.47,4.214-4.926,8.455-7.409,12.67-.617,1.033-1.208,2.067-1.839,3.1a4.027,4.027,0,0,1-2.161,2,17.2,17.2,0,0,1-3.422.456c-1.221.121-2.443.268-3.664.416-5.556.685-11.073,1.6-16.629,2.322-.134,0-.134.228,0,.215,5.1-.389,10.214-.577,15.314-.993,2.523-.2,5.046-.376,7.543-.7a5.073,5.073,0,0,0,2.684-.939,7.557,7.557,0,0,0,1.678-2.215q7.583-13.126,15.166-26.266c2.859-4.966,5.758-9.9,8.388-14.992a.211.211,0,1,0-.362-.215Z" transform="translate(-37.634 -103.23)" fill="#263238"/>
      <path id="Path_3330" data-name="Path 3330" d="M564.255,305.234a29.922,29.922,0,0,1-1.194,4.926c-.4,1.436-.792,2.872-1.221,4.295s-1.06,3.208-1.611,4.8q1.691-10.657,2.684-21.474a.2.2,0,0,0-.389,0c-1.342,10.026-3.181,20.011-5.288,29.889s-4.657,19.743-7.543,29.446c-1.423,4.778-2.926,9.543-4.59,14.24a38.825,38.825,0,0,1-5.852,11.448,29.526,29.526,0,0,1-11.126,7.878,129.254,129.254,0,0,1-13.663,5.369c-10.576,3.463-21.474,5.664-32.292,8.254-.121,0-.094.228,0,.215a247.111,247.111,0,0,0,29.446-5.959,121.348,121.348,0,0,0,14.428-4.832c4.308-1.8,8.751-3.745,12.227-6.939a30.546,30.546,0,0,0,7.194-11.113c1.812-4.389,3.235-8.952,4.644-13.421,3.087-9.9,5.664-19.89,7.771-30.05q.9-4.416,1.678-8.845a56.783,56.783,0,0,0,2.926-8.67c.4-1.543.792-3.087,1.1-4.657s.4-3.208.846-4.724C564.5,305.113,564.269,305.073,564.255,305.234Z" transform="translate(-35.132 -100.183)" fill="#263238"/>
      <path id="Path_3331" data-name="Path 3331" d="M461.639,392.463c-3.785-10.482-7.784-20.884-11.1-31.513a313.359,313.359,0,0,1-8.63-31.943.188.188,0,0,1,.349-.094c3.932,10.281,7.127,20.9,10.428,31.392s6.228,21.3,9.569,31.876C462.377,392.584,461.8,392.866,461.639,392.463Z" transform="translate(-48.879 -89.504)" fill="#263238"/>
      <path id="Path_3332" data-name="Path 3332" d="M452.366,325.021a55.882,55.882,0,0,0-6,0c-2,0-4.026.134-6,.215-4.026.174-7.986.47-11.972.805a.51.51,0,0,0-.47.658,16.962,16.962,0,0,0,2.04,4.174.129.129,0,0,0,.2-.067,14.575,14.575,0,0,0-1.047-3.8c3.812-.255,7.623-.483,11.435-.778l5.986-.43c1.946-.161,3.932-.215,5.865-.523C452.567,325.276,452.5,325.021,452.366,325.021Z" transform="translate(-53.671 -90.832)" fill="#263238"/>
      <path id="Path_3333" data-name="Path 3333" d="M379,313.36c4.979,2.47,27.728,3.409,34.358,11.569,4.416,5.369,4.026,10.912,6.55,27.111,2.241,14.066-9.395,10.737-12.764,3.516-5.261-11.314-9.784-23.715-9.784-23.715a90.343,90.343,0,0,0-11.65.175Z" transform="translate(-70.402 -94.794)" fill="#f7a9a0"/>
      <path id="Path_3334" data-name="Path 3334" d="M391.819,353.135c7.878-4.993,33.07,26.843,20.481,35.231S382.894,358.772,391.819,353.135Z" transform="translate(-66.874 -81.366)" fill="#f7a9a0"/>
      <path id="Path_3335" data-name="Path 3335" d="M382.312,358.135c7.865-4.993,33.07,26.843,20.481,35.231S373.36,363.839,382.312,358.135Z" transform="translate(-70.13 -79.656)" fill="#f7a9a0"/>
      <path id="Path_3336" data-name="Path 3336" d="M375.794,359.065c7.852-3.449,26.333,28.963,13.717,34.9S366.909,362.917,375.794,359.065Z" transform="translate(-72.659 -79.244)" fill="#f7a9a0"/>
      <path id="Path_3337" data-name="Path 3337" d="M369.8,358.305c8.254-.98,16.28,34.318,2.9,36.238S360.5,359.419,369.8,358.305Z" transform="translate(-75.967 -79.424)" fill="#f7a9a0"/>
      <path id="Path_3338" data-name="Path 3338" d="M389.909,361.2a39.109,39.109,0,0,1,3.919,5.113,64.735,64.735,0,0,1,3.718,5.825,56.761,56.761,0,0,1,2.953,5.932c.886,2.161,1.5,4.469,2.456,6.6a.188.188,0,1,1-.349.134,46.883,46.883,0,0,0-3.194-6.013c-1.114-1.946-2.121-3.946-3.208-5.905s-2.067-3.838-3.154-5.731-2.389-3.771-3.4-5.771a.161.161,0,0,1,.255-.188Z" transform="translate(-66.762 -78.441)" fill="#263238"/>
      <path id="Path_3339" data-name="Path 3339" d="M380.161,361.094c.805,2.389,3.516,11.515,4.429,13.878s1.919,4.724,2.953,7.06A69.486,69.486,0,0,0,390.8,389.2a.188.188,0,0,1-.322.174c-1.262-2.282-2.684-4.4-3.892-6.711a66.374,66.374,0,0,1-3.087-7.1,120.585,120.585,0,0,1-3.691-14.361C379.745,360.907,380.067,360.893,380.161,361.094Z" transform="translate(-70.127 -78.509)" fill="#263238"/>
      <path id="Path_3340" data-name="Path 3340" d="M372.816,362.792c.631,3.409,1.047,6.858,1.691,10.267.309,1.678.644,3.355.953,5.046.148.805.282,1.624.43,2.443a13.852,13.852,0,0,0,.523,2.792c.094.228-.336.336-.362,0a20.976,20.976,0,0,0-.966-2.993c-.228-.792-.456-1.57-.658-2.376-.416-1.664-.752-3.328-1.02-5.033a67.367,67.367,0,0,1-1.047-10.12C372.36,362.6,372.776,362.537,372.816,362.792Z" transform="translate(-72.674 -77.938)" fill="#263238"/>
    </g>
    <g id="freepik--speech-bubble--inject-11" transform="translate(509.019 184.966)">
      <path id="Path_3341" data-name="Path 3341" d="M489.322,208.607a30.318,30.318,0,0,0,5.167-16.7c0-21.152-23.232-38.291-51.86-38.291s-51.82,17.139-51.82,38.291S414,230.2,442.63,230.2c13.891,0,26.467-4.026,35.768-10.589l17.864,4.536Z" transform="translate(-390.81 -153.62)" fill="#15ace5"/>
      <path id="Path_3342" data-name="Path 3342" d="M418.267,183.519a5.368,5.368,0,1,1-5.368-5.369A5.368,5.368,0,0,1,418.267,183.519Z" transform="translate(-385.09 -145.228)" fill="#263238"/>
      <circle id="Ellipse_159" data-name="Ellipse 159" cx="5.382" cy="5.382" r="5.382" transform="translate(46.451 32.909)" fill="#263238"/>
      <path id="Path_3343" data-name="Path 3343" d="M454.067,183.519a5.368,5.368,0,1,1-5.368-5.369A5.368,5.368,0,0,1,454.067,183.519Z" transform="translate(-372.841 -145.228)" fill="#263238"/>
    </g>
    <g id="freepik--light-bulb--inject-11" transform="translate(324.06 62)">
      <path id="Path_3344" data-name="Path 3344" d="M344.275,119.832c-2.993,25.031-19.085,29.527-21.8,36.237a117.038,117.038,0,0,0-3.382,12.8H292.925a111.514,111.514,0,0,0-3.369-12.8c-2.684-6.711-18.79-11.328-21.608-36.385C266.055,103.23,278.5,77.273,306.185,77.34S346.221,103.391,344.275,119.832Z" transform="translate(-247.95 -56.752)" fill="#15ace5"/>
      <rect id="Rectangle_1035" data-name="Rectangle 1035" width="1.342" height="42.344" transform="translate(43.301 72.307) rotate(-10.43)" fill="#fff"/>
      <rect id="Rectangle_1036" data-name="Rectangle 1036" width="42.344" height="1.342" transform="translate(63.822 113.718) rotate(-79.31)" fill="#fff"/>
      <path id="Path_3345" data-name="Path 3345" d="M299.841,130.362h0c-2.053,0-4.12-1.637-5.811-4.6-.081-.134-.161-.268-.228-.4a3.194,3.194,0,0,1-2.241,1.221h0c-3.919,0-5.476-8.053-5.53-8.442l.658-.121c0,.081,1.5,7.878,4.872,7.892h0a2.751,2.751,0,0,0,1.906-1.195c-1.651-3.409-2.577-7.865-1.342-9.892a2.027,2.027,0,0,1,1.812-1.06h0A2.376,2.376,0,0,1,296.1,115c1.181,2.053.309,6.295-1.248,8.965a9.877,9.877,0,0,1-.537.832c.107.215.228.429.349.631.913,1.6,2.805,4.268,5.234,4.268h0c1.624,0,3.248-1.342,4.59-3.583a6.4,6.4,0,0,0,.322-.591,8.054,8.054,0,0,1-.913-1.342c-1.624-2.818-1.946-6.993-.711-9.113a2.416,2.416,0,0,1,2.121-1.342h0a1.852,1.852,0,0,1,1.651,1.02c1.154,2.013.51,6.8-1.342,10.576a3.758,3.758,0,0,0,2.684,1.1h0c2.389,0,4.523-5.7,5.14-7.905l.644.174c-.094.349-2.4,8.4-5.785,8.4h0a4.349,4.349,0,0,1-2.926-1.141l-.242.429C303.974,128.228,302.23,130.362,299.841,130.362Zm5.369-15.9a1.745,1.745,0,0,0-1.543.993c-1.1,1.906-.765,5.852.711,8.442a6.27,6.27,0,0,0,.671.966c1.637-3.516,2.255-7.932,1.235-9.717a1.194,1.194,0,0,0-1.074-.684Zm-11.381,0a1.342,1.342,0,0,0-1.235.725c-.926,1.611-.322,5.53,1.275,8.939l.3-.47c1.423-2.456,2.282-6.469,1.248-8.294a1.7,1.7,0,0,0-1.584-.9Z" transform="translate(-241.699 -44.305)" fill="#fff"/>
      <rect id="Rectangle_1037" data-name="Rectangle 1037" width="32.278" height="6.308" transform="translate(41.924 110.999) rotate(0.14)" fill="#455a64"/>
      <rect id="Rectangle_1038" data-name="Rectangle 1038" width="32.278" height="6.308" transform="translate(41.893 118.327) rotate(0.14)" fill="#455a64"/>
      <rect id="Rectangle_1039" data-name="Rectangle 1039" width="32.278" height="6.308" transform="translate(41.91 125.603) rotate(0.13)" fill="#455a64"/>
      <path id="Path_3346" data-name="Path 3346" d="M297.512,62a20.588,20.588,0,0,1-.161,10.428A20.6,20.6,0,0,1,297.512,62Z" transform="translate(-238.029 -62)" fill="#263238"/>
      <path id="Path_3347" data-name="Path 3347" d="M275.51,67.34a18.145,18.145,0,0,1,3.127,4.228,18.521,18.521,0,0,1,1.959,4.885,18.147,18.147,0,0,1-3.087-4.2,18.348,18.348,0,0,1-2-4.912Z" transform="translate(-245.299 -60.173)" fill="#263238"/>
      <path id="Path_3348" data-name="Path 3348" d="M259.3,82.86a20.44,20.44,0,0,1,8.952,5.369,18.575,18.575,0,0,1-4.832-2.107A18.319,18.319,0,0,1,259.3,82.86Z" transform="translate(-250.845 -54.863)" fill="#263238"/>
      <path id="Path_3349" data-name="Path 3349" d="M253,104.551a20.6,20.6,0,0,1,10.428.161A20.6,20.6,0,0,1,253,104.551Z" transform="translate(-253 -47.645)" fill="#263238"/>
      <path id="Path_3350" data-name="Path 3350" d="M258.34,127.5a18.145,18.145,0,0,1,4.228-3.127,17.878,17.878,0,0,1,4.885-1.946,20.8,20.8,0,0,1-9.113,5.073Z" transform="translate(-251.173 -41.325)" fill="#263238"/>
      <path id="Path_3351" data-name="Path 3351" d="M335.7,129.239a20.776,20.776,0,0,1-8.952-5.369A20.441,20.441,0,0,1,335.7,129.239Z" transform="translate(-227.768 -40.832)" fill="#263238"/>
      <path id="Path_3352" data-name="Path 3352" d="M342.368,106.514a18.789,18.789,0,0,1-5.234.591,17.823,17.823,0,0,1-5.194-.752,18.253,18.253,0,0,1,5.221-.591A18.87,18.87,0,0,1,342.368,106.514Z" transform="translate(-225.992 -47.031)" fill="#263238"/>
      <path id="Path_3353" data-name="Path 3353" d="M336.7,84.52a18.482,18.482,0,0,1-4.228,3.114,18.077,18.077,0,0,1-4.885,1.96,18.146,18.146,0,0,1,4.228-3.087A18.5,18.5,0,0,1,336.7,84.52Z" transform="translate(-227.481 -54.295)" fill="#263238"/>
      <path id="Path_3354" data-name="Path 3354" d="M320.229,68.3a20.441,20.441,0,0,1-5.369,8.952,18.5,18.5,0,0,1,2.107-4.818,18.7,18.7,0,0,1,3.261-4.134Z" transform="translate(-231.836 -59.845)" fill="#263238"/>
    </g>
  </g>
</svg>
