<svg xmlns="http://www.w3.org/2000/svg" width="84.076" height="56.129" viewBox="0 0 84.076 56.129">
  <g id="noun_Quote_14163" transform="translate(-7.924 -21.936)" opacity="0.16">
    <g id="Group_269" data-name="Group 269">
      <path id="Path_4372" data-name="Path 4372" d="M48.87,42.353A20.416,20.416,0,0,0,28.453,21.936C17.176,21.936,8.991,30.762,8.036,42,6.578,59.143,19.6,73.5,35.416,78.065a20.4,20.4,0,0,1-9.777-15.519,19.953,19.953,0,0,0,2.814.224A20.416,20.416,0,0,0,48.87,42.353Z" fill="#3498db"/>
      <path id="Path_4373" data-name="Path 4373" d="M92,42.353A20.417,20.417,0,0,0,71.582,21.936C60.306,21.936,52.12,30.762,51.164,42,49.706,59.143,62.731,73.5,78.545,78.065a20.4,20.4,0,0,1-9.777-15.519,19.965,19.965,0,0,0,2.814.224A20.416,20.416,0,0,0,92,42.353Z" fill="#3498db"/>
    </g>
  </g>
</svg>
