<svg xmlns="http://www.w3.org/2000/svg" width="790.878" height="783.517" viewBox="0 0 790.878 783.517">
  <g id="Influencer-cuate" transform="translate(-39.45 -22.49)">
    <g id="freepik--background-complete--inject-18" transform="translate(71.59 22.49)">
      <path id="Path_450" data-name="Path 450" d="M62.662,347.085a56.456,56.456,0,1,1,75.876,24.866,56.456,56.456,0,0,1-75.876-24.866Z" transform="translate(-56.563 190.567)" fill="#dbdbdb"/>
      <path id="Path_451" data-name="Path 451" d="M132.075,309.61c-4.414,18.781-21.861,33.243-21.861,33.243S88.052,337.5,75.938,322.682c-10.179-12.377-9.391-28.491.845-34.332,14.555-8.4,24.923,17.955,24.923,17.955s-2.385-28.209,14.518-27.12C127.849,279.936,135.737,294.022,132.075,309.61Z" transform="translate(-45.911 202.894)" fill="#fff"/>
      <path id="Path_452" data-name="Path 452" d="M462.907,444.069a56.456,56.456,0,1,1,29.983-61.1A56.494,56.494,0,0,1,462.907,444.069Z" transform="translate(228.332 253.88)" fill="#dbdbdb"/>
      <path id="Path_453" data-name="Path 453" d="M436.491,373.354a17.166,17.166,0,1,1-3.966-12.541,17.185,17.185,0,0,1,3.966,12.541Z" transform="translate(246.935 269.229)" fill="#fff"/>
      <path id="Path_454" data-name="Path 454" d="M452.872,405.424l-.6,7.062a56.494,56.494,0,0,1-59.161-5.109l.6-7.043a29.691,29.691,0,1,1,59.164,5.09Z" transform="translate(238.968 285.464)" fill="#fff"/>
      <path id="Path_455" data-name="Path 455" d="M413.489,186.655H406.8a7.513,7.513,0,0,1-7.513-7.513,7.606,7.606,0,0,1,7.513-7.512h9.391l4.376-25.3h-8.452a7.569,7.569,0,1,1,0-15.138h11.043l2.874-17.316a7.512,7.512,0,0,1,7.512-6.254,7.757,7.757,0,0,1,7.513,8.9l-2.592,14.668h22.819l2.911-17.316a7.512,7.512,0,0,1,7.719-6.254,7.682,7.682,0,0,1,7.588,8.79l-2.479,14.668h6.7a7.513,7.513,0,0,1,7.513,7.512,7.682,7.682,0,0,1-7.512,7.512h-9.3l-4.376,25.3h8.283a7.512,7.512,0,0,1,0,15.025H467.428l-3.061,17.88a7.512,7.512,0,0,1-7.513,6.254,7.681,7.681,0,0,1-7.512-8.846l2.78-15.288H429.058L426,204.309a7.7,7.7,0,0,1-15.175-2.592Zm40.906-15.138,4.451-25.3H436.064l-4.376,25.3Z" transform="translate(244.395 52.263)" fill="#ebebeb"/>
      <circle id="Ellipse_112" data-name="Ellipse 112" cx="62.034" cy="62.034" r="62.034" transform="matrix(0.817, -0.577, 0.577, 0.817, 519.651, 71.624)" fill="#dbdbdb"/>
      <g id="freepik--xsrjP0--inject-18" transform="translate(566.549 44.709)">
        <path id="Path_456" data-name="Path 456" d="M377.583,112.771c-1.653-1.033-3.08-2.517-5.277-2.31-.845,0-.657-.62-.657-1.071V84.6c0-.6,0-1.089.695-1.427,6.31-3.174,9.034-9.391,12.9-14.8a24.7,24.7,0,0,0,4.583-18.781c-.263-1.878.6-2.686,2.273-3.061a4.113,4.113,0,0,1,4.714,1.484A32.829,32.829,0,0,1,400.5,58.888c.376,3.136-.751,6.179-1.146,9.3-.282,2.254-.808,4.507-1.24,6.8.545.394,1.183.188,1.784.207h20.941c2.949,0,4.376.845,4.789,2.8a5.635,5.635,0,0,1-3.042,6.048c-.526.263-1.465,0-1.521.845s.9.751,1.39,1.089c2.517,1.728,2.047,5.3-.864,7.381-.714.488-2.066.263-2.1,1.3s1.258.808,1.878,1.39c2.028,2.01,1.014,5.766-2.028,7.287a10.333,10.333,0,0,0-1.221.488c-.357.225-.7.488,0,.958,3.024,2.16,2.967,5.165-.094,7.362l-.9.657a6.029,6.029,0,0,1-3.756.808h-32.9A3.85,3.85,0,0,1,377.583,112.771Z" transform="translate(-346.443 -46.295)" fill="#fff" fill-rule="evenodd"/>
        <path id="Path_457" data-name="Path 457" d="M358.22,82.027V66.288c0-1.071.113-1.6,1.409-1.578h19.213c1.258,0,1.446.432,1.446,1.54V97.934c0,1.352-.357,1.728-1.709,1.709H359.967c-1.559,0-1.765-.526-1.747-1.878C358.277,92.544,358.22,87.285,358.22,82.027Z" transform="translate(-358.219 -30.124)" fill="#fff" fill-rule="evenodd"/>
      </g>
    </g>
    <g id="freepik--Shadow--inject-18" transform="translate(48.728 781.309)">
      <path id="Path_458" data-name="Path 458" d="M168.572,438.878c0,6.818-27.8,12.339-62.091,12.339S44.39,445.7,44.39,438.878s27.8-12.358,62.091-12.358S168.572,432.042,168.572,438.878Z" transform="translate(-44.39 -426.52)" fill="#ebebeb"/>
    </g>
    <g id="freepik--Floor--inject-18" transform="translate(39.45 746.62)">
      <path id="Path_459" data-name="Path 459" d="M39.45,408.989l98.864-.451,98.864-.169,197.71-.319,197.71.319,98.865.169,98.864.451-98.864.47-98.865.15-197.71.319-197.71-.319-98.864-.15Z" transform="translate(-39.45 -408.05)" fill="#263238"/>
    </g>
    <g id="freepik--Screen--inject-18" transform="translate(179.746 157.002)">
      <rect id="Rectangle_238" data-name="Rectangle 238" width="510.268" height="636.665" transform="translate(0 0)" fill="#455a64"/>
      <rect id="Rectangle_239" data-name="Rectangle 239" width="452.29" height="452.29" transform="translate(28.998 70.768)" fill="#fff"/>
      <path id="Path_460" data-name="Path 460" d="M151.778,132.434a14.818,14.818,0,1,1,6.611-16.133,14.818,14.818,0,0,1-6.611,16.133Z" transform="translate(-100.955 -84.542)" fill="#fff"/>
      <path id="Path_461" data-name="Path 461" d="M143.675,114.108a4.489,4.489,0,1,1-1.315-3.193,4.507,4.507,0,0,1,1.315,3.193Z" transform="translate(-96.14 -80.508)" fill="#37474f"/>
      <path id="Path_462" data-name="Path 462" d="M148.5,122.264v1.878a14.818,14.818,0,0,1-15.588,0v-1.878a7.794,7.794,0,0,1,15.588,0Z" transform="translate(-97.676 -76.231)" fill="#37474f"/>
      <path id="Path_463" data-name="Path 463" d="M366.161,112a1.409,1.409,0,0,1,1.39,1.409,1.39,1.39,0,0,1-1.39,1.371,1.371,1.371,0,0,1-1.371-1.371A1.39,1.39,0,0,1,366.161,112Z" transform="translate(105.943 -78.4)" fill="#c7c7c7"/>
      <path id="Path_464" data-name="Path 464" d="M368.441,112a1.427,1.427,0,0,1,1.409,1.409,1.39,1.39,0,0,1-1.409,1.371,1.371,1.371,0,0,1-1.371-1.371A1.39,1.39,0,0,1,368.441,112Z" transform="translate(107.945 -78.4)" fill="#c7c7c7"/>
      <path id="Path_465" data-name="Path 465" d="M370.74,112a1.409,1.409,0,0,1,1.39,1.409A1.39,1.39,0,1,1,370.74,112Z" transform="translate(109.948 -78.4)" fill="#c7c7c7"/>
      <rect id="Rectangle_240" data-name="Rectangle 240" width="142.719" height="7.25" transform="translate(75.069 31.665)" fill="#37474f"/>
      <path id="Path_466" data-name="Path 466" d="M539.695,372.62H177.63V481.551Z" transform="translate(-58.407 150.457)" fill="#37474f"/>
      <path id="Path_467" data-name="Path 467" d="M159.48,398.889a36.079,36.079,0,0,1-7.888,9.259,53.329,53.329,0,0,1-5.259,4.132h-1.39c-.376-.263-9.391-6.31-13.147-13.41-2.686-4.939-3.061-10.442-.92-14.03a6.986,6.986,0,0,1,6.2-3.55,9.71,9.71,0,0,1,8.564,6.029,9.691,9.691,0,0,1,8.545-6.029,6.987,6.987,0,0,1,6.217,3.55C162.542,388.446,162.185,393.893,159.48,398.889Z" transform="translate(-100.676 158.069)" fill="#15ace5"/>
      <path id="Path_468" data-name="Path 468" d="M202.623,413.01l-2.2-.432-4.489-16.734L185.57,384.575l.92-2.085h36.586l1,1.991Zm-13.316-28.172,8.677,9.391.282.526,3.907,14.574,18.406-24.566Z" transform="translate(-51.434 159.124)" fill="#c7c7c7"/>
      <rect id="Rectangle_241" data-name="Rectangle 241" width="30.951" height="2.479" transform="matrix(0.914, -0.406, 0.406, 0.914, 143.965, 553.724)" fill="#c7c7c7"/>
      <path id="Path_469" data-name="Path 469" d="M172.537,412.53a15.645,15.645,0,1,1,15.025-11.156l2.366,9.616-1.5,1.5-8.207-1.878A15.625,15.625,0,0,1,172.537,412.53Zm0-28.717a13.147,13.147,0,1,0,6.761,24.416l.92-.132,6.742,1.559-1.878-7.963v-.676a13.41,13.41,0,0,0,.639-4.019,13.147,13.147,0,0,0-13.184-13.184Z" transform="translate(-76.584 158.026)" fill="#c7c7c7"/>
      <path id="Path_470" data-name="Path 470" d="M360,411.233l-1.972-1.014V383.7l1.258-1.24H380.83l1.24,1.24v26.519l-1.972,1.014-10.048-9.128Zm.526-26.294v22.838l8.79-8.207h1.465l8.808,8.207V384.939Z" transform="translate(100.007 159.097)" fill="#c7c7c7"/>
    </g>
    <g id="freepik--Character--inject-18" transform="translate(255.452 250.609)">
      <path id="Path_471" data-name="Path 471" d="M362.43,334.207a1.634,1.634,0,0,1-1.54,1.54c-1.878-.094-4.169-.263-6.724-.432-3.925-16.34-8.733-29.543-7.682-24.416a80.648,80.648,0,0,1,1.07,24.021l-13.241-1.071c-1.578-28.059-5.634-49.244-5.972-42.934-1.653,25.5-4.207,33.431-7.118,41.863-31.928-2.686-73.81-6.686-104.01-10.217-1.484-15.588-2.385-32.379-3.061-31.308-5.24,8.02-7.982,20.284-9.391,29.825-9.6-1.2-17.26-2.329-21.9-3.249,0,0-.563-13.015-.338-17.241a88.1,88.1,0,0,1,7.512-31.44c4.583-10.2,11.269-18.781,17.823-27.759l.169-.207h0A90.827,90.827,0,0,0,218.66,222.5v-.131a87.538,87.538,0,0,0,4.489-14.856c3.756-18.5,16.509-33.28,34.727-35.928,37.3-26.895,68.815-9.391,75.688,15.889.657,2.46,1.24,5.259,1.878,8.3v.094c1.991,11.269,3.174,25.674,4.564,36.868h0v.113h0a101.261,101.261,0,0,0,2.291,13.034C348.269,266.444,365.961,280,362.43,334.207Z" transform="translate(-129.861 -131.539)" fill="#263238"/>
      <path id="Path_472" data-name="Path 472" d="M251.234,167.43c-12.32,4.508-20.547,12.358-24.115,25.768-2.085,7.813-3.644,15.513-7.682,22.538s-9.992,13.034-15.964,18.781c-9.391,9.015-16.471,18.312-19.514,31.552s-4.526,29.562-1.615,42.84h.131c-2.028-13.353.207-31.177,4.282-44.342,4.47-14.48,14.067-22.707,24.115-32.83a62.109,62.109,0,0,0,16.584-28.566c1.747-6.63,2.573-13.654,6.123-19.645,4.226-7.174,11.269-11.137,18.293-14.593a.816.816,0,0,0-.639-1.5Z" transform="translate(-131.352 -123.39)" fill="#263238"/>
      <path id="Path_473" data-name="Path 473" d="M287.59,251.793c-6.742-11.663-14.011-21.805-17.053-35.572-2.761-12.546-3.587-25.542-6.423-38.088,0-.207-.357-.15-.3,0,4,22.143,2.5,43.76,13.879,63.424,6.179,10.686,12.452,20.659,15.833,32.942a104.275,104.275,0,0,1,2.667,39.441.338.338,0,1,0,.657.094A86.544,86.544,0,0,0,287.59,251.793Z" transform="translate(-58.439 -114.053)" fill="#263238"/>
      <path id="Path_474" data-name="Path 474" d="M269.3,266.127c59.987,62.861,134.568,194.254,119.806,220.379-16.415,29.111-102.921-60.382-100.2-64.664,2.31-3.643-27.59-82.75-49.3-140.615S254.468,250.576,269.3,266.127Z" transform="translate(-85.586 -54.369)" fill="#ffc4c0"/>
      <path id="Path_475" data-name="Path 475" d="M343.873,341.483,257.761,357s-21.5-61.039-25.768-94.921c-2.4-18.988,8.771-19.758,22.8-9.672C303.944,287.731,343.873,341.483,343.873,341.483Z" transform="translate(-86.663 -54.356)" fill="#15ace5"/>
      <path id="Path_476" data-name="Path 476" d="M250.983,271.343a6.931,6.931,0,0,1-1.446,1.672,10.06,10.06,0,0,1-.939.751h-.263a8.526,8.526,0,0,1-2.366-2.442,2.629,2.629,0,0,1-.169-2.535,1.239,1.239,0,0,1,1.108-.639,1.653,1.653,0,0,0,3.1,0,1.258,1.258,0,0,1,1.127.639A2.667,2.667,0,0,1,250.983,271.343Zm26.613-2.16a2.874,2.874,0,0,0,.319,2.141,8.51,8.51,0,0,0,2.366,2.442h.263a9.068,9.068,0,0,0,.958-.751,1.069,1.069,0,0,0,.207-.207c-1.277-1.2-2.554-2.442-4.038-3.625ZM235.226,248.3a1.221,1.221,0,0,0-1.108-.639,1.484,1.484,0,0,0-.714.169h0a11.871,11.871,0,0,0-1.634,4.921,6.056,6.056,0,0,0,.676.507h.263s.432-.319.92-.751a6.93,6.93,0,0,0,1.446-1.672,2.667,2.667,0,0,0,.15-2.536Zm15.983,61.546a1.258,1.258,0,0,0-1.127-.639,1.653,1.653,0,0,1-3.1,0,1.239,1.239,0,0,0-1.108.639,2.629,2.629,0,0,0,.169,2.535,8.357,8.357,0,0,0,2.366,2.423h.263a8.322,8.322,0,0,0,.939-.733,7.027,7.027,0,0,0,1.446-1.69,2.63,2.63,0,0,0,.15-2.611Zm31.928,0a1.277,1.277,0,0,0-1.127-.639,1.765,1.765,0,0,0-1.559,1.089,1.728,1.728,0,0,0-1.54-1.089,1.277,1.277,0,0,0-1.127.639,2.629,2.629,0,0,0,.169,2.535,8.34,8.34,0,0,0,2.385,2.423h.244a9.564,9.564,0,0,0,.958-.732,6.95,6.95,0,0,0,1.427-1.69,2.686,2.686,0,0,0,.207-2.611Zm31.928,0a1.258,1.258,0,0,0-1.127-.639,1.728,1.728,0,0,0-1.54,1.089,1.747,1.747,0,0,0-1.559-1.089,1.239,1.239,0,0,0-1.108.639,2.629,2.629,0,0,0,.15,2.535,8.34,8.34,0,0,0,2.385,2.423h.263a10.8,10.8,0,0,0,.939-.732,6.556,6.556,0,0,0,1.427-1.69,2.629,2.629,0,0,0,.225-2.611Zm-47.93-20.659a1.259,1.259,0,0,0-1.127-.639,1.728,1.728,0,0,0-1.54,1.089,1.747,1.747,0,0,0-1.559-1.089,1.3,1.3,0,0,0-1.127.639,2.686,2.686,0,0,0,.169,2.535,8.509,8.509,0,0,0,2.385,2.442h.244a10.781,10.781,0,0,0,.958-.751,6.555,6.555,0,0,0,1.427-1.69,2.629,2.629,0,0,0,.226-2.517Zm31.928,0a1.3,1.3,0,0,0-1.127-.639,1.653,1.653,0,0,1-3.1,0,1.258,1.258,0,0,0-1.127.639,2.629,2.629,0,0,0,.169,2.536,8.789,8.789,0,0,0,2.366,2.442h.263s.451-.319.958-.751a7.4,7.4,0,0,0,1.427-1.69,2.686,2.686,0,0,0,.263-2.517ZM283.08,350.713a1.333,1.333,0,0,0-1.127-.639,1.728,1.728,0,0,0-1.54,1.089,1.766,1.766,0,0,0-1.559-1.089,1.258,1.258,0,0,0-1.108.639,2.1,2.1,0,0,0-.263,1.2l5.634-1.014a.357.357,0,0,0,.056-.169ZM267.1,330.166a1.277,1.277,0,0,0-1.127-.657,1.747,1.747,0,0,0-1.54,1.108,1.765,1.765,0,0,0-1.559-1.108,1.314,1.314,0,0,0-1.127.657,2.686,2.686,0,0,0,.169,2.535,8.339,8.339,0,0,0,2.385,2.423h.244a6.853,6.853,0,0,0,.958-.751,6.178,6.178,0,0,0,1.427-1.672,2.63,2.63,0,0,0,.263-2.517Zm31.928,0a1.315,1.315,0,0,0-1.127-.657,1.634,1.634,0,0,1-3.1,0,1.277,1.277,0,0,0-1.127.657,2.629,2.629,0,0,0,.169,2.535,8.62,8.62,0,0,0,2.366,2.423h.263a8.376,8.376,0,0,0,.958-.751,6.911,6.911,0,0,0,1.427-1.672,2.686,2.686,0,0,0,.3-2.517Zm31.928,0a1.277,1.277,0,0,0-1.127-.657,1.747,1.747,0,0,0-1.54,1.108,1.878,1.878,0,0,0-1.559-1.108,1.3,1.3,0,0,0-1.127.657,2.686,2.686,0,0,0,.169,2.535,8.34,8.34,0,0,0,2.385,2.423h.244a8.378,8.378,0,0,0,.958-.751,6.179,6.179,0,0,0,1.427-1.671,2.629,2.629,0,0,0,.319-2.517Z" transform="translate(-86.571 -52.881)" fill="#fff"/>
      <path id="Path_477" data-name="Path 477" d="M245.914,304.289c13.053-3.493,48.719-11.907,72.627-14.349.15,0,.263.526.132.563-19.589,5.033-59.349,12.245-72.5,14.574C245.839,305.078,245.67,304.345,245.914,304.289Z" transform="translate(-74.253 -15.754)" fill="#263238"/>
      <path id="Path_478" data-name="Path 478" d="M332.341,343.572l-74.6,13.41s-21.486-61.02-25.749-94.883c-1.54-12.151,2.5-16.9,9.278-16.02Z" transform="translate(-86.663 -54.36)" opacity="0.1"/>
      <path id="Path_479" data-name="Path 479" d="M372.966,487.832H154.69s19.852-152.278,90.15-232.343c18.969-21.6,53.376-15.213,69.641-.6a153.358,153.358,0,0,1,15.833,17.992c14.781,19.007,38.934,64.607,41.187,77,3.756,20.4-14.311,42.446-14.311,42.446Z" transform="translate(-154.257 -58.269)" fill="#15ace5"/>
      <path id="Path_480" data-name="Path 480" d="M254.506,271.343a7.288,7.288,0,0,1-1.427,1.672,11.878,11.878,0,0,1-.958.751h-.244a8.507,8.507,0,0,1-2.385-2.442,2.63,2.63,0,0,1-.169-2.536,1.258,1.258,0,0,1,1.127-.638,1.728,1.728,0,0,1,1.54,1.089,1.747,1.747,0,0,1,1.559-1.089,1.3,1.3,0,0,1,1.127.638A2.723,2.723,0,0,1,254.506,271.343Zm32.116-2.554a1.258,1.258,0,0,0-1.127-.639,1.728,1.728,0,0,0-1.54,1.089,1.765,1.765,0,0,0-1.559-1.089,1.277,1.277,0,0,0-1.127.639,2.686,2.686,0,0,0,.169,2.535,8.506,8.506,0,0,0,2.385,2.442h.244a9.06,9.06,0,0,0,.958-.751,6.478,6.478,0,0,0,1.427-1.672,2.667,2.667,0,0,0,.188-2.554Zm31.928,0a1.258,1.258,0,0,0-1.127-.639,1.653,1.653,0,0,1-3.1,0,1.24,1.24,0,0,0-1.108.639,2.629,2.629,0,0,0,.169,2.535,8.527,8.527,0,0,0,2.366,2.442h.263a10.05,10.05,0,0,0,.939-.751,6.93,6.93,0,0,0,1.446-1.672,2.667,2.667,0,0,0,.188-2.554ZM270.657,248.3a1.258,1.258,0,0,0-1.127-.639,1.747,1.747,0,0,0-1.54,1.089,1.878,1.878,0,0,0-1.559-1.089,1.24,1.24,0,0,0-1.108.639,2.667,2.667,0,0,0,.15,2.554,8.884,8.884,0,0,0,2.385,2.423h.263s.451-.319.939-.751a6.179,6.179,0,0,0,1.427-1.672,2.667,2.667,0,0,0,.169-2.554Zm31.928,0a1.277,1.277,0,0,0-1.127-.639,1.878,1.878,0,0,0-1.559,1.089,1.747,1.747,0,0,0-1.54-1.089,1.258,1.258,0,0,0-1.127.638,2.667,2.667,0,0,0,.169,2.554,8.62,8.62,0,0,0,2.385,2.423h.244a11.9,11.9,0,0,0,.958-.751,6.536,6.536,0,0,0,1.427-1.672,2.723,2.723,0,0,0,.207-2.554Zm-79.9,61.546a1.259,1.259,0,0,0-1.127-.639,1.728,1.728,0,0,0-1.54,1.089,1.747,1.747,0,0,0-1.559-1.089,1.3,1.3,0,0,0-1.127.638,2.686,2.686,0,0,0,.169,2.535,8.34,8.34,0,0,0,2.385,2.423h.263a10.785,10.785,0,0,0,.939-.733,6.555,6.555,0,0,0,1.427-1.69,2.629,2.629,0,0,0,.207-2.611Zm31.928,0a1.3,1.3,0,0,0-1.127-.639,1.747,1.747,0,0,0-1.559,1.089,1.728,1.728,0,0,0-1.54-1.089,1.259,1.259,0,0,0-1.127.639,2.629,2.629,0,0,0,.169,2.535,8.339,8.339,0,0,0,2.385,2.423h.244a9.573,9.573,0,0,0,.958-.732,7.4,7.4,0,0,0,1.427-1.69,2.686,2.686,0,0,0,.244-2.611Zm31.928,0a1.259,1.259,0,0,0-1.127-.639,1.728,1.728,0,0,0-1.54,1.089,1.765,1.765,0,0,0-1.559-1.089,1.277,1.277,0,0,0-1.127.639,2.686,2.686,0,0,0,.169,2.535,8.34,8.34,0,0,0,2.385,2.423h.244a7.649,7.649,0,0,0,.958-.732,6.555,6.555,0,0,0,1.427-1.69,2.629,2.629,0,0,0,.263-2.611Zm31.928,0a1.259,1.259,0,0,0-1.127-.639,1.653,1.653,0,0,1-3.1,0,1.24,1.24,0,0,0-1.108.639,2.629,2.629,0,0,0,.169,2.535,8.357,8.357,0,0,0,2.366,2.423h.263a8.322,8.322,0,0,0,.939-.733,7.021,7.021,0,0,0,1.446-1.69,2.629,2.629,0,0,0,.263-2.611Zm31.928,0a1.277,1.277,0,0,0-1.127-.639,1.765,1.765,0,0,0-1.559,1.089,1.728,1.728,0,0,0-1.54-1.089,1.277,1.277,0,0,0-1.127.639,2.629,2.629,0,0,0,.169,2.535A8.341,8.341,0,0,0,347.6,314.8h.244a9.565,9.565,0,0,0,.958-.733,6.95,6.95,0,0,0,1.427-1.69,2.686,2.686,0,0,0,.319-2.611ZM238.56,289.185a1.277,1.277,0,0,0-1.127-.639,1.728,1.728,0,0,0-1.54,1.089,1.765,1.765,0,0,0-1.559-1.089,1.277,1.277,0,0,0-1.127.639,2.686,2.686,0,0,0,.169,2.535,8.507,8.507,0,0,0,2.385,2.442h.244s.451-.319.958-.751a6.553,6.553,0,0,0,1.427-1.69,2.629,2.629,0,0,0,.319-2.517Zm31.928,0a1.258,1.258,0,0,0-1.127-.639,1.728,1.728,0,0,0-1.54,1.089,1.747,1.747,0,0,0-1.559-1.089,1.239,1.239,0,0,0-1.108.639,2.629,2.629,0,0,0,.15,2.536,8.771,8.771,0,0,0,2.385,2.441h.263s.451-.319.939-.751a6.554,6.554,0,0,0,1.427-1.69,2.629,2.629,0,0,0,.338-2.517Zm31.928,0a1.277,1.277,0,0,0-1.127-.639,1.766,1.766,0,0,0-1.559,1.089,1.728,1.728,0,0,0-1.54-1.089,1.258,1.258,0,0,0-1.127.639,2.629,2.629,0,0,0,.169,2.535,8.508,8.508,0,0,0,2.385,2.442h.244s.451-.319.958-.751a6.952,6.952,0,0,0,1.427-1.69,2.686,2.686,0,0,0,.376-2.517Zm31.928,0a1.258,1.258,0,0,0-1.127-.639,1.728,1.728,0,0,0-1.54,1.089,1.746,1.746,0,0,0-1.559-1.089,1.3,1.3,0,0,0-1.127.639,2.686,2.686,0,0,0,.169,2.535,8.509,8.509,0,0,0,2.385,2.442h.244a10.769,10.769,0,0,0,.958-.751,6.556,6.556,0,0,0,1.427-1.69,2.629,2.629,0,0,0,.395-2.517ZM190.537,350.713a1.258,1.258,0,0,0-1.108-.639,1.765,1.765,0,0,0-1.559,1.089v-.188c-.47,1.2-.92,2.385-1.333,3.606h0a10.567,10.567,0,0,0,1.315,1.089h.263s.432-.319.939-.751a7.288,7.288,0,0,0,1.427-1.672,2.667,2.667,0,0,0,.282-2.517Zm31.928,0a1.258,1.258,0,0,0-1.127-.639,1.747,1.747,0,0,0-1.54,1.089,1.878,1.878,0,0,0-1.559-1.089,1.3,1.3,0,0,0-1.127.639,2.723,2.723,0,0,0,.169,2.554,8.338,8.338,0,0,0,2.385,2.423h.263a9.224,9.224,0,0,0,.939-.751,6.176,6.176,0,0,0,1.427-1.671,2.667,2.667,0,0,0,.432-2.536Zm31.928,0a1.3,1.3,0,0,0-1.127-.638,1.878,1.878,0,0,0-1.559,1.089,1.747,1.747,0,0,0-1.54-1.089,1.258,1.258,0,0,0-1.127.638,2.667,2.667,0,0,0,.169,2.554,8.338,8.338,0,0,0,2.385,2.423h.244a8.35,8.35,0,0,0,.958-.751,6.914,6.914,0,0,0,1.427-1.672,2.723,2.723,0,0,0,.47-2.535Zm31.928,0a1.258,1.258,0,0,0-1.127-.639,1.747,1.747,0,0,0-1.54,1.089,1.878,1.878,0,0,0-1.559-1.089,1.277,1.277,0,0,0-1.127.638,2.723,2.723,0,0,0,.169,2.554,8.338,8.338,0,0,0,2.385,2.423h.244a6.85,6.85,0,0,0,.958-.751,6.176,6.176,0,0,0,1.427-1.672,2.667,2.667,0,0,0,.488-2.535Zm31.928,0a1.258,1.258,0,0,0-1.127-.639,1.653,1.653,0,0,1-3.1,0,1.239,1.239,0,0,0-1.108.638,2.667,2.667,0,0,0,.169,2.554,8.357,8.357,0,0,0,2.366,2.423h.263a7.362,7.362,0,0,0,.939-.751,6.6,6.6,0,0,0,1.446-1.672,2.667,2.667,0,0,0,.488-2.535Zm31.928,0a1.277,1.277,0,0,0-1.127-.639,1.878,1.878,0,0,0-1.559,1.089,1.747,1.747,0,0,0-1.54-1.089,1.277,1.277,0,0,0-1.127.639,2.667,2.667,0,0,0,.169,2.554,8.338,8.338,0,0,0,2.385,2.423h.244a8.355,8.355,0,0,0,.958-.751,6.537,6.537,0,0,0,1.427-1.672,2.723,2.723,0,0,0,.545-2.535ZM206.745,330.185a1.258,1.258,0,0,0-1.108-.657,1.634,1.634,0,0,1-3.1,0,1.277,1.277,0,0,0-1.127.657,2.629,2.629,0,0,0,.169,2.535,8.621,8.621,0,0,0,2.366,2.423h.263a8.358,8.358,0,0,0,.958-.751,6.912,6.912,0,0,0,1.427-1.672A2.629,2.629,0,0,0,206.745,330.185Zm31.928,0a1.3,1.3,0,0,0-1.127-.657,1.747,1.747,0,0,0-1.54,1.108,1.878,1.878,0,0,0-1.559-1.108,1.3,1.3,0,0,0-1.127.657,2.686,2.686,0,0,0,.169,2.535,8.34,8.34,0,0,0,2.385,2.423h.244a8.363,8.363,0,0,0,.958-.751,6.179,6.179,0,0,0,1.427-1.672,2.629,2.629,0,0,0,.207-2.535Zm31.928,0a1.277,1.277,0,0,0-1.127-.657,1.747,1.747,0,0,0-1.54,1.108,1.766,1.766,0,0,0-1.559-1.108,1.258,1.258,0,0,0-1.108.657,2.629,2.629,0,0,0,.15,2.535,8.583,8.583,0,0,0,2.385,2.423h.263a9.242,9.242,0,0,0,.939-.751,6.18,6.18,0,0,0,1.427-1.672,2.629,2.629,0,0,0,.225-2.536Zm31.928,0a1.3,1.3,0,0,0-1.127-.657,1.878,1.878,0,0,0-1.559,1.108,1.747,1.747,0,0,0-1.54-1.108,1.277,1.277,0,0,0-1.127.657,2.629,2.629,0,0,0,.169,2.535,8.34,8.34,0,0,0,2.385,2.423h.244a8.362,8.362,0,0,0,.958-.751,6.537,6.537,0,0,0,1.427-1.672,2.686,2.686,0,0,0,.263-2.535Zm31.928,0a1.277,1.277,0,0,0-1.127-.657,1.747,1.747,0,0,0-1.54,1.108,1.765,1.765,0,0,0-1.559-1.108,1.315,1.315,0,0,0-1.127.657,2.686,2.686,0,0,0,.169,2.535,8.339,8.339,0,0,0,2.385,2.423h.244a6.859,6.859,0,0,0,.958-.751,6.178,6.178,0,0,0,1.427-1.672,2.629,2.629,0,0,0,.282-2.535Zm31.214-.6a1.3,1.3,0,0,0-.376,0,1.878,1.878,0,0,0-1.559,1.089,1.766,1.766,0,0,0-1.559-1.089,1.239,1.239,0,0,0-1.108.639,2.667,2.667,0,0,0,.15,2.554,9.036,9.036,0,0,0,2.4,2.441h.244a10.523,10.523,0,0,0,.939-.77,6.6,6.6,0,0,0,1.446-1.672,3.564,3.564,0,0,0,.338-.977h0Zm-175,62.128a1.277,1.277,0,0,0-1.127-.639,1.766,1.766,0,0,0-1.559,1.089,1.728,1.728,0,0,0-1.54-1.089,1.258,1.258,0,0,0-1.127.638,2.63,2.63,0,0,0,.169,2.536,8.508,8.508,0,0,0,2.385,2.441h.244a11.89,11.89,0,0,0,.958-.751,6.855,6.855,0,0,0,1.427-1.672,2.723,2.723,0,0,0,.282-2.554Zm31.928,0a1.259,1.259,0,0,0-1.127-.639,1.728,1.728,0,0,0-1.54,1.089,1.747,1.747,0,0,0-1.559-1.089,1.3,1.3,0,0,0-1.127.638,2.686,2.686,0,0,0,.169,2.536,8.509,8.509,0,0,0,2.385,2.441h.263s.451-.319.939-.751a6.479,6.479,0,0,0,1.427-1.672,2.667,2.667,0,0,0,.3-2.554Zm31.928,0a1.3,1.3,0,0,0-1.127-.638,1.747,1.747,0,0,0-1.559,1.089,1.728,1.728,0,0,0-1.54-1.089,1.259,1.259,0,0,0-1.127.639,2.629,2.629,0,0,0,.169,2.535,8.506,8.506,0,0,0,2.385,2.442h.244a11.885,11.885,0,0,0,.958-.751,7.284,7.284,0,0,0,1.427-1.672,2.723,2.723,0,0,0,.338-2.554Zm31.928,0a1.259,1.259,0,0,0-1.127-.639,1.728,1.728,0,0,0-1.54,1.089,1.766,1.766,0,0,0-1.559-1.089,1.277,1.277,0,0,0-1.127.639,2.686,2.686,0,0,0,.169,2.536,8.509,8.509,0,0,0,2.385,2.441h.244a9.038,9.038,0,0,0,.958-.751,6.48,6.48,0,0,0,1.427-1.672,2.667,2.667,0,0,0,.357-2.554Zm31.928,0a1.259,1.259,0,0,0-1.127-.639,1.653,1.653,0,0,1-3.1,0,1.24,1.24,0,0,0-1.108.639,2.63,2.63,0,0,0,.169,2.536,8.53,8.53,0,0,0,2.366,2.441h.263a10.049,10.049,0,0,0,.939-.751,6.927,6.927,0,0,0,1.446-1.671,2.667,2.667,0,0,0,.357-2.554Zm31.928,0a1.277,1.277,0,0,0-1.127-.639,1.766,1.766,0,0,0-1.559,1.089,1.728,1.728,0,0,0-1.54-1.089,1.277,1.277,0,0,0-1.127.639,2.629,2.629,0,0,0,.169,2.535,8.509,8.509,0,0,0,2.385,2.442h.244a11.88,11.88,0,0,0,.958-.751,6.855,6.855,0,0,0,1.427-1.672,2.723,2.723,0,0,0,.413-2.554ZM206.5,371.147a1.24,1.24,0,0,0-1.108-.639,1.653,1.653,0,0,1-3.1,0,1.259,1.259,0,0,0-1.127.639,2.629,2.629,0,0,0,.169,2.536,8.79,8.79,0,0,0,2.366,2.442h.263a11.921,11.921,0,0,0,.958-.751,6.911,6.911,0,0,0,1.427-1.672,2.667,2.667,0,0,0,.394-2.554Zm31.928,0a1.277,1.277,0,0,0-1.127-.639,1.728,1.728,0,0,0-1.54,1.089,1.765,1.765,0,0,0-1.559-1.089,1.277,1.277,0,0,0-1.127.639,2.686,2.686,0,0,0,.169,2.535,8.508,8.508,0,0,0,2.385,2.442h.244a11.9,11.9,0,0,0,.958-.751,6.179,6.179,0,0,0,1.427-1.672,2.667,2.667,0,0,0,.451-2.554Zm31.928,0a1.259,1.259,0,0,0-1.127-.639,1.728,1.728,0,0,0-1.54,1.089,1.747,1.747,0,0,0-1.559-1.089,1.239,1.239,0,0,0-1.108.638,2.629,2.629,0,0,0,.15,2.536,8.77,8.77,0,0,0,2.385,2.442h.263s.451-.319.939-.751a6.179,6.179,0,0,0,1.427-1.672,2.667,2.667,0,0,0,.47-2.554Zm31.928,0a1.277,1.277,0,0,0-1.127-.639A1.765,1.765,0,0,0,299.6,371.6a1.728,1.728,0,0,0-1.54-1.089,1.259,1.259,0,0,0-1.127.639,2.629,2.629,0,0,0,.169,2.536,8.508,8.508,0,0,0,2.385,2.442h.244a11.924,11.924,0,0,0,.958-.751,6.536,6.536,0,0,0,1.427-1.672,2.723,2.723,0,0,0,.507-2.554Zm31.928,0a1.259,1.259,0,0,0-1.127-.639,1.728,1.728,0,0,0-1.54,1.089,1.747,1.747,0,0,0-1.559-1.089,1.3,1.3,0,0,0-1.127.638,2.686,2.686,0,0,0,.169,2.536,8.508,8.508,0,0,0,2.385,2.442h.244a9.06,9.06,0,0,0,.958-.751,6.18,6.18,0,0,0,1.427-1.672,2.667,2.667,0,0,0,.526-2.554Zm30.839-.639a1.747,1.747,0,0,0-1.559,1.089,1.728,1.728,0,0,0-1.559-1.089,1.24,1.24,0,0,0-1.108.639,2.63,2.63,0,0,0,.15,2.536,8.452,8.452,0,0,0,2.4,2.441h.244c.845-1.54,1.709-3.212,2.517-5a1.221,1.221,0,0,0-.733-.62ZM190.386,432.693a1.3,1.3,0,0,0-1.127-.657,1.878,1.878,0,0,0-1.559,1.108,1.747,1.747,0,0,0-1.54-1.108,1.277,1.277,0,0,0-1.127.657,2.63,2.63,0,0,0,.169,2.536,8.338,8.338,0,0,0,2.385,2.423h.244a8.369,8.369,0,0,0,.958-.751,6.537,6.537,0,0,0,1.427-1.672,2.686,2.686,0,0,0,.564-2.535Zm31.928,0a1.277,1.277,0,0,0-1.127-.657,1.747,1.747,0,0,0-1.54,1.108,1.765,1.765,0,0,0-1.559-1.108,1.315,1.315,0,0,0-1.127.657,2.686,2.686,0,0,0,.169,2.535,8.34,8.34,0,0,0,2.385,2.423h.263a9.235,9.235,0,0,0,.939-.751,6.178,6.178,0,0,0,1.427-1.672,2.629,2.629,0,0,0,.582-2.535Zm31.928,0a1.315,1.315,0,0,0-1.127-.657,1.765,1.765,0,0,0-1.559,1.108,1.747,1.747,0,0,0-1.54-1.108,1.277,1.277,0,0,0-1.127.657,2.63,2.63,0,0,0,.169,2.535,8.34,8.34,0,0,0,2.385,2.423h.244a8.367,8.367,0,0,0,.958-.751,6.909,6.909,0,0,0,1.427-1.672,2.686,2.686,0,0,0,.62-2.535Zm31.928,0a1.277,1.277,0,0,0-1.127-.657,1.747,1.747,0,0,0-1.54,1.108,1.878,1.878,0,0,0-1.559-1.108,1.3,1.3,0,0,0-1.127.657,2.686,2.686,0,0,0,.169,2.535,8.34,8.34,0,0,0,2.385,2.423h.244a6.859,6.859,0,0,0,.958-.751A6.179,6.179,0,0,0,286,435.228a2.629,2.629,0,0,0,.639-2.535Zm31.928,0a1.277,1.277,0,0,0-1.127-.657,1.634,1.634,0,0,1-3.1,0,1.258,1.258,0,0,0-1.108.657,2.629,2.629,0,0,0,.169,2.536,8.359,8.359,0,0,0,2.366,2.423h.263a7.366,7.366,0,0,0,.939-.751,6.591,6.591,0,0,0,1.446-1.672,2.629,2.629,0,0,0,.639-2.535Zm31.928,0a1.3,1.3,0,0,0-1.127-.657,1.878,1.878,0,0,0-1.559,1.108,1.747,1.747,0,0,0-1.54-1.108,1.3,1.3,0,0,0-1.127.657,2.629,2.629,0,0,0,.169,2.535,8.34,8.34,0,0,0,2.385,2.423h.244a8.362,8.362,0,0,0,.958-.751,6.538,6.538,0,0,0,1.427-1.672,2.686,2.686,0,0,0,.695-2.535ZM174.272,412.127a1.258,1.258,0,0,0-1.127-.639,1.728,1.728,0,0,0-1.54,1.089,1.747,1.747,0,0,0-1.559-1.089,1.3,1.3,0,0,0-1.127.638,2.686,2.686,0,0,0,.169,2.536,8.506,8.506,0,0,0,2.385,2.442h.244a10.768,10.768,0,0,0,.958-.751,6.558,6.558,0,0,0,1.427-1.69,2.63,2.63,0,0,0,.7-2.535Zm31.928,0a1.24,1.24,0,0,0-1.108-.639,1.653,1.653,0,0,1-3.1,0,1.258,1.258,0,0,0-1.127.639,2.629,2.629,0,0,0,.169,2.535A8.79,8.79,0,0,0,203.4,417.1h.263s.451-.319.958-.751a7.4,7.4,0,0,0,1.427-1.69,2.63,2.63,0,0,0,.695-2.535Zm31.928,0a1.277,1.277,0,0,0-1.127-.639,1.728,1.728,0,0,0-1.54,1.089,1.765,1.765,0,0,0-1.559-1.089,1.277,1.277,0,0,0-1.127.639,2.686,2.686,0,0,0,.169,2.535,8.507,8.507,0,0,0,2.385,2.442h.244s.451-.319.958-.751a6.555,6.555,0,0,0,1.427-1.69,2.629,2.629,0,0,0,.751-2.535Zm31.928,0a1.258,1.258,0,0,0-1.127-.639,1.728,1.728,0,0,0-1.54,1.089,1.747,1.747,0,0,0-1.559-1.089,1.24,1.24,0,0,0-1.108.638,2.629,2.629,0,0,0,.15,2.535,8.77,8.77,0,0,0,2.385,2.442h.263s.451-.319.939-.751a6.554,6.554,0,0,0,1.427-1.69,2.629,2.629,0,0,0,.77-2.535Zm31.928,0a1.277,1.277,0,0,0-1.127-.639,1.765,1.765,0,0,0-1.559,1.089,1.728,1.728,0,0,0-1.54-1.089,1.259,1.259,0,0,0-1.127.639,2.629,2.629,0,0,0,.169,2.535,8.508,8.508,0,0,0,2.385,2.442h.244s.451-.319.958-.751a6.95,6.95,0,0,0,1.427-1.69,2.686,2.686,0,0,0,.808-2.535Zm31.928,0a1.258,1.258,0,0,0-1.127-.639,1.728,1.728,0,0,0-1.54,1.089,1.746,1.746,0,0,0-1.559-1.089,1.3,1.3,0,0,0-1.127.638,2.686,2.686,0,0,0,.169,2.536,8.507,8.507,0,0,0,2.385,2.442h.244a10.769,10.769,0,0,0,.958-.751,6.555,6.555,0,0,0,1.427-1.69,2.629,2.629,0,0,0,.826-2.535Zm26.519.244a2.667,2.667,0,0,0,.244,2.291,1.164,1.164,0,0,0,.207.319Zm-201.617,61.3a1.277,1.277,0,0,0-1.127-.657,1.747,1.747,0,0,0-1.54,1.089,2.647,2.647,0,0,0-.394-.582c-.3,1.672-.507,3.136-.714,4.357a10.545,10.545,0,0,0,.977.751h.263l.939-.733a6.029,6.029,0,0,0,1.427-1.709A2.592,2.592,0,0,0,158.815,473.674Zm31.928,0a1.277,1.277,0,0,0-1.127-.639,1.878,1.878,0,0,0-1.559,1.089,1.747,1.747,0,0,0-1.54-1.089,1.258,1.258,0,0,0-1.127.639,2.667,2.667,0,0,0,.169,2.554,8.621,8.621,0,0,0,2.385,2.423h.244a11.906,11.906,0,0,0,.958-.751,6.536,6.536,0,0,0,1.427-1.672,2.723,2.723,0,0,0,.207-2.554Zm31.928,0a1.258,1.258,0,0,0-1.127-.639,1.747,1.747,0,0,0-1.54,1.089,1.878,1.878,0,0,0-1.559-1.089,1.3,1.3,0,0,0-1.127.638,2.723,2.723,0,0,0,.169,2.554,8.623,8.623,0,0,0,2.385,2.423h.263s.451-.319.939-.751a6.177,6.177,0,0,0,1.427-1.672,2.667,2.667,0,0,0,.225-2.554Zm31.928,0a1.3,1.3,0,0,0-1.127-.639,1.878,1.878,0,0,0-1.559,1.089,1.747,1.747,0,0,0-1.54-1.089,1.258,1.258,0,0,0-1.127.639,2.667,2.667,0,0,0,.169,2.554,8.622,8.622,0,0,0,2.385,2.423h.244A11.883,11.883,0,0,0,253,477.9a6.91,6.91,0,0,0,1.427-1.672,2.723,2.723,0,0,0,.263-2.554Zm31.928,0a1.258,1.258,0,0,0-1.127-.639,1.747,1.747,0,0,0-1.54,1.089,1.878,1.878,0,0,0-1.559-1.089,1.277,1.277,0,0,0-1.127.639,2.723,2.723,0,0,0,.169,2.554,8.622,8.622,0,0,0,2.385,2.423h.244a9.071,9.071,0,0,0,.958-.751,6.177,6.177,0,0,0,1.427-1.671,2.667,2.667,0,0,0,.282-2.554Zm31.928,0a1.258,1.258,0,0,0-1.127-.639,1.653,1.653,0,0,1-3.1,0,1.239,1.239,0,0,0-1.108.639,2.667,2.667,0,0,0,.169,2.554,8.639,8.639,0,0,0,2.366,2.423h.263a10.056,10.056,0,0,0,.939-.751,6.591,6.591,0,0,0,1.446-1.672,2.667,2.667,0,0,0,.282-2.554Zm31.928,0a1.277,1.277,0,0,0-1.127-.639,1.878,1.878,0,0,0-1.559,1.089,1.747,1.747,0,0,0-1.54-1.089,1.277,1.277,0,0,0-1.127.639,2.667,2.667,0,0,0,.169,2.554,8.622,8.622,0,0,0,2.385,2.423h.244a11.913,11.913,0,0,0,.958-.751,6.535,6.535,0,0,0,1.427-1.671,2.723,2.723,0,0,0,.338-2.554ZM174.8,453.014a1.259,1.259,0,0,0-1.127-.639,1.747,1.747,0,0,0-1.54,1.089,1.878,1.878,0,0,0-1.559-1.089,1.3,1.3,0,0,0-1.127.639,2.723,2.723,0,0,0,.169,2.554A8.339,8.339,0,0,0,172,457.991h.244a6.859,6.859,0,0,0,.958-.751,6.18,6.18,0,0,0,1.427-1.672A2.667,2.667,0,0,0,174.8,453.014Zm31.928,0a1.24,1.24,0,0,0-1.108-.639,1.653,1.653,0,0,1-3.1,0,1.259,1.259,0,0,0-1.127.639,2.667,2.667,0,0,0,.169,2.554,8.622,8.622,0,0,0,2.366,2.423h.263a8.365,8.365,0,0,0,.958-.751,6.911,6.911,0,0,0,1.427-1.672,2.667,2.667,0,0,0,.169-2.554Zm31.928,0a1.277,1.277,0,0,0-1.127-.638,1.747,1.747,0,0,0-1.54,1.089,1.878,1.878,0,0,0-1.559-1.089,1.277,1.277,0,0,0-1.127.639,2.723,2.723,0,0,0,.169,2.554,8.339,8.339,0,0,0,2.385,2.423h.244a8.36,8.36,0,0,0,.958-.751,6.179,6.179,0,0,0,1.427-1.672,2.667,2.667,0,0,0,.225-2.554Zm31.928,0a1.258,1.258,0,0,0-1.127-.639,1.747,1.747,0,0,0-1.54,1.089,1.878,1.878,0,0,0-1.559-1.089,1.24,1.24,0,0,0-1.108.639,2.667,2.667,0,0,0,.15,2.554,8.583,8.583,0,0,0,2.385,2.423h.263a9.242,9.242,0,0,0,.939-.751,6.182,6.182,0,0,0,1.427-1.672,2.667,2.667,0,0,0,.244-2.554Zm31.928,0a1.277,1.277,0,0,0-1.127-.638,1.878,1.878,0,0,0-1.559,1.089,1.747,1.747,0,0,0-1.54-1.089,1.258,1.258,0,0,0-1.127.639,2.667,2.667,0,0,0,.169,2.554,8.338,8.338,0,0,0,2.385,2.423h.244a8.36,8.36,0,0,0,.958-.751,6.536,6.536,0,0,0,1.427-1.672,2.723,2.723,0,0,0,.282-2.554Zm31.928,0a1.258,1.258,0,0,0-1.127-.639,1.747,1.747,0,0,0-1.54,1.089,1.878,1.878,0,0,0-1.559-1.089,1.3,1.3,0,0,0-1.127.639,2.723,2.723,0,0,0,.169,2.554,8.34,8.34,0,0,0,2.385,2.423h.244a6.86,6.86,0,0,0,.958-.751,6.179,6.179,0,0,0,1.427-1.672,2.667,2.667,0,0,0,.3-2.554Zm31.928,0a1.3,1.3,0,0,0-1.127-.639,1.653,1.653,0,0,1-3.1,0,1.259,1.259,0,0,0-1.127.639,2.667,2.667,0,0,0,.169,2.554,8.621,8.621,0,0,0,2.366,2.423h.263a8.351,8.351,0,0,0,.958-.751,6.911,6.911,0,0,0,1.427-1.672,2.724,2.724,0,0,0,.338-2.554Z" transform="translate(-153.95 -52.881)" fill="#fff"/>
      <path id="Path_481" data-name="Path 481" d="M290.541,332.772c-2.028-8.414-6.7-16.1-10.818-23.608-4.338-7.945-8.884-15.758-13.56-23.5l-.507-.826c-.77-2.479-1.878-4.9-2.836-7.306-1.2-3.061-2.5-6.1-3.756-9.2,0-.094-.207,0-.169,0,.977,3.212,1.878,6.423,3.118,9.56l.9,2.46c-1.578-2.573-3.155-5.146-4.789-7.7-2.78-4.338-5.634-8.583-8.489-12.922,0-.113-.244,0-.169.094,4.451,7.625,8.733,15.344,13.147,22.969s8.79,15.288,12.959,23.063c2.047,3.85,4.057,7.738,5.991,11.663a100.47,100.47,0,0,1,5,11.381,36.7,36.7,0,0,1,.169,23.364c-2.686,8.6-7.513,16.415-12.02,24.134-.188.3.282.676.526.376C284.869,364.268,294.5,349.281,290.541,332.772Z" transform="translate(-71.044 -42.322)" fill="#263238"/>
      <path id="Path_482" data-name="Path 482" d="M403.956,404.249c-14.048,19.42-51.5,22.538-145.048,39.253-12.959,2.31-53.846-84.666-40.154-87.84,17.26-4.019,85.079-15.814,90.15-16.058C351.65,337.688,413.5,391.1,403.956,404.249Z" transform="translate(-100.431 27.813)" fill="#ffc4c0"/>
      <path id="Path_483" data-name="Path 483" d="M291.507,346.07s-39.61,5.3-59.537,14.537c-26.707,12.358-44.681,34.032-51.667,43.554-14.574,19.908-36.041,78.092-20.359,87.22,14.18,8.245,33.13-52.362,33.13-52.362s-29.505,58.6-10.593,65.378,36.849-64.8,36.849-64.8-28.979,60.889-8.376,64.8c15.588,2.949,35.534-60.964,35.534-60.964s-24.528,52.494-8.639,56.231c17.636,4.038,39.7-53.733,39.7-53.733,41.995,2.686,63.086-13.147,76.74-26.294C357.636,416.462,291.507,346.07,291.507,346.07Z" transform="translate(-154.46 33.535)" fill="#ffc4c0"/>
      <path id="Path_484" data-name="Path 484" d="M191.825,384.455c-3.756,6.761-7.513,13.579-10.63,20.659s-5.954,14.255-8.4,21.561c-5.954,17.974-6.893,30.144-6.742,29.393,3.287-17.636,13.992-43.2,17.11-50.165s5.841-14.255,8.921-21.317C192.257,384.4,191.9,384.3,191.825,384.455Z" transform="translate(-144.288 67.177)" fill="#263238"/>
      <path id="Path_485" data-name="Path 485" d="M204.385,390.169c-4.376,8.846-9.034,17.448-13.015,26.482s-6.949,17.861-10.273,27.083c-.263.714.207.62.488,0,3.756-9.109,7.832-17.222,11.626-26.294s7.268-18.255,11.381-27.12C204.667,390.131,204.441,390.037,204.385,390.169Z" transform="translate(-131.137 72.206)" fill="#263238"/>
      <path id="Path_486" data-name="Path 486" d="M214.017,392.995c-7.381,13.147-12.3,27.665-16.9,41.995-.225.714.357.526.639-.188,5.315-14.067,9.391-25.148,16.621-41.563A.217.217,0,1,0,214.017,392.995Z" transform="translate(-117.048 74.638)" fill="#263238"/>
      <path id="Path_487" data-name="Path 487" d="M306.75,350.381c-6.217-3.944-23.833-13.147-41.15-10.63a.15.15,0,0,0,0,.3c14.274,0,34.67,7.25,41.018,10.574C306.769,350.719,306.9,350.475,306.75,350.381Z" transform="translate(-56.996 27.609)" fill="#263238"/>
      <path id="Path_488" data-name="Path 488" d="M218.534,272.609c.939,3.606,18.875,26.632,35.4,25.392,5.39-.413,4.47-29.881,4.47-29.881l.432-2.2,5.972-30.689-36.454-22.012L223.1,210.33s-1.089,8.508-2.329,19.1a14.917,14.917,0,0,1-.188,1.5c-.056.526-.169,1.164-.225,1.728-.207,1.578-.413,3.193-.582,4.808-.132,1.24-.263,2.423-.357,3.756s-.225,2.554-.357,3.85a202.145,202.145,0,0,0-.526,27.533Z" transform="translate(-98.408 -85.661)" fill="#ffc4c0"/>
      <path id="Path_489" data-name="Path 489" d="M219.61,229.431a62.711,62.711,0,0,0,38.07,36.492l5.972-30.689L227.2,213.222l-5.259-2.892S220.85,218.838,219.61,229.431Z" transform="translate(-97.249 -85.661)" fill="#263238"/>
      <path id="Path_490" data-name="Path 490" d="M314.034,223.734c8.846,54.165-22.537,65.584-34.257,67.481-10.611,1.709-46.953,6.235-61.34-46.728s8-74.186,32.041-79.407S305.188,169.588,314.034,223.734Z" transform="translate(-102.256 -126.486)" fill="#ffc4c0"/>
      <path id="Path_491" data-name="Path 491" d="M264.151,192.513a35.787,35.787,0,0,1-3.756-.357,6.16,6.16,0,0,1-3.756-1.108,1.878,1.878,0,0,1-.263-2.385A4.846,4.846,0,0,1,261,187.01a7.137,7.137,0,0,1,4.714,2.01,2.085,2.085,0,0,1-1.559,3.493Z" transform="translate(-65.238 -106.214)" fill="#263238"/>
      <path id="Path_492" data-name="Path 492" d="M242.858,195.124c1.277-.3,2.385-.77,3.606-1.183a6.16,6.16,0,0,0,3.437-1.878,1.878,1.878,0,0,0-.263-2.366,4.846,4.846,0,0,0-4.864-.6A7.137,7.137,0,0,0,240.6,192.1a2.085,2.085,0,0,0,2.254,3.024Z" transform="translate(-79.029 -104.656)" fill="#263238"/>
      <path id="Path_493" data-name="Path 493" d="M247.673,199.017c0-.15-.263.207-.244.357.62,3.756.695,8.02-2.479,9.691-.094,0,0,.244,0,.207C249.025,208.182,248.837,202.435,247.673,199.017Z" transform="translate(-75.035 -95.627)" fill="#263238"/>
      <path id="Path_494" data-name="Path 494" d="M246.222,197.194c-6.029.357-4.864,12.377.695,12.039S251.218,196.837,246.222,197.194Z" transform="translate(-77.416 -97.203)" fill="#263238"/>
      <path id="Path_495" data-name="Path 495" d="M246.439,197.689c-1,.789-1.878,2.085-3.155,2.329s-2.667-.864-3.756-1.991c-.094-.113-.188,0-.188.169.188,2.291,1.3,4.564,3.756,4.677s3.756-2.085,4.057-4.451C247.266,197.97,246.834,197.388,246.439,197.689Z" transform="translate(-79.924 -96.835)" fill="#263238"/>
      <path id="Path_496" data-name="Path 496" d="M257.758,197.1c0-.15.3.15.3.3.207,3.756,1.089,7.963,4.564,8.9.094,0,.113.225,0,.225C258.434,206.34,257.345,200.705,257.758,197.1Z" transform="translate(-63.822 -97.316)" fill="#263238"/>
      <path id="Path_497" data-name="Path 497" d="M260.73,194.876c5.954-.977,7.512,10.987,1.972,11.889S255.753,195.7,260.73,194.876Z" transform="translate(-63.827 -99.281)" fill="#263238"/>
      <path id="Path_498" data-name="Path 498" d="M260.948,195.767c1.014.526,2.1,1.559,3.23,1.484s2.122-1.5,2.817-2.855c0-.132.169,0,.188.113.357,2.273-.094,4.752-2.235,5.484s-3.756-1.127-4.508-3.343C260.291,196.255,260.535,195.579,260.948,195.767Z" transform="translate(-61.434 -99.702)" fill="#263238"/>
      <path id="Path_499" data-name="Path 499" d="M247.183,214.713c.939.826,1.878,1.991,3.249,2.028a9.6,9.6,0,0,0,3.963-1.127.131.131,0,0,1,.169.188,5.052,5.052,0,0,1-4.639,2.254,4,4,0,0,1-3.1-3.155C246.694,214.694,246.976,214.6,247.183,214.713Z" transform="translate(-73.38 -81.855)" fill="#263238"/>
      <path id="Path_500" data-name="Path 500" d="M261.249,223.175s1.371,5.5,1.653,8.132a14.255,14.255,0,0,1-14.236-2.78c-.225-.207.094-.545.357-.394a19.025,19.025,0,0,0,11.776,2.028c0-.732-2.667-9.391-2.254-9.391a22.764,22.764,0,0,1,6.123.714c-2.536-11.532-6.874-22.537-9.222-34.069a.359.359,0,0,1,.676-.244c5.371,11.269,8.564,24.416,11.475,36.267C267.973,224.9,262.357,223.513,261.249,223.175Z" transform="translate(-71.802 -106.206)" fill="#263238"/>
      <path id="Path_501" data-name="Path 501" d="M259.728,212.085a13.446,13.446,0,0,1-5.071,4.714,6.16,6.16,0,0,1-3.756.564c-2.742-.47-3.043-2.93-2.723-5.09a15.288,15.288,0,0,1,.9-3.343,17.748,17.748,0,0,0,10.649,3.155Z" transform="translate(-72.253 -86.891)" fill="#263238"/>
      <path id="Path_502" data-name="Path 502" d="M254.658,215.236a6.16,6.16,0,0,1-3.756.564c-2.742-.47-3.043-2.93-2.723-5.09C251.145,210.748,254.169,212.457,254.658,215.236Z" transform="translate(-72.253 -85.328)" fill="#ff9abb"/>
      <path id="Path_503" data-name="Path 503" d="M223.575,244.638c10.367.92,12.114-22.819,12.114-22.819s43.685-9.128,46.052-45.075c0,0,8.414,22.538,31.928,31.928,0,0-3.043-39.178-34.445-45.62,0,0-39.14-12.583-59.687,18.875S216.625,244.018,223.575,244.638Z" transform="translate(-105.778 -129.36)" fill="#263238"/>
      <path id="Path_504" data-name="Path 504" d="M265.672,167.77a39.234,39.234,0,0,1-1.333,16.415,40.512,40.512,0,0,1-7.757,14.781,34.025,34.025,0,0,1-2.855,3.08l-1.465,1.5c-.526.451-1.089.883-1.634,1.315-1.108.845-2.179,1.747-3.324,2.554s-2.385,1.427-3.587,2.122c-.62.338-1.2.695-1.878,1.014l-1.878.826-3.756,1.634c-2.629.845-5.3,1.54-7.944,2.2,2.479-1.2,5.033-2.122,7.513-3.324l3.587-1.878,1.765-.939c.582-.357,1.108-.77,1.672-1.146q1.634-1.164,3.324-2.254c1.052-.808,2.028-1.709,3.061-2.573l1.521-1.277,1.371-1.446a35.678,35.678,0,0,0,2.648-2.949,46.5,46.5,0,0,0,7.869-13.785,50.011,50.011,0,0,0,2.179-7.757,48.173,48.173,0,0,0,.9-8.113Z" transform="translate(-89.654 -123.034)" fill="#263238"/>
      <path id="Path_505" data-name="Path 505" d="M232.081,212.974s-13.241-16.189-20.659-11.269,3.418,28.923,12.771,31.628a9.278,9.278,0,0,0,12.02-5.9Z" transform="translate(-106.602 -94.052)" fill="#ffc4c0"/>
      <path id="Path_506" data-name="Path 506" d="M212.049,204.87c-.132,0-.15.207,0,.244,6.573,2.1,10.386,7.757,13.147,13.729-2.085-2.235-4.77-3.324-7.757-.826a.191.191,0,0,0,.188.319,5.747,5.747,0,0,1,6.423,1.521,26.3,26.3,0,0,1,3.381,4.846c.338.545,1.352.15,1.089-.488v-.132C228.051,215.932,220.877,205.114,212.049,204.87Z" transform="translate(-103.981 -90.456)" fill="#263238"/>
      <path id="Path_507" data-name="Path 507" d="M221.9,217.6a2.235,2.235,0,1,1-2.235-2.216A2.235,2.235,0,0,1,221.9,217.6Z" transform="translate(-99.164 -81.227)" fill="#fff"/>
      <circle id="Ellipse_113" data-name="Ellipse 113" cx="1.596" cy="1.596" r="1.596" transform="translate(114.041 131.129)" fill="#fff"/>
      <rect id="Rectangle_242" data-name="Rectangle 242" width="5.653" height="2.348" rx="0.6" transform="matrix(0.996, 0.086, -0.086, 0.996, 100.41, 111.099)" fill="#15ace5"/>
      <rect id="Rectangle_243" data-name="Rectangle 243" width="5.645" height="2.344" rx="0.599" transform="translate(100.317 113.764) rotate(-7.481)" fill="#15ace5"/>
      <path id="Path_508" data-name="Path 508" d="M210.958,187.47l-3.118,4.977,15.945,14.405,6.761-11.269Zm12.189,13.861-11.137-8.959.695-1.183,12.9,6.217Z" transform="translate(-107.585 -105.735)" fill="#15ace5"/>
      <path id="Path_509" data-name="Path 509" d="M210.864,182.58l-1.014,5.785,20.209,7.343,2.047-12.94Zm16.527,8.245-13.71-4.094.207-1.352,14.293.9Z" transform="translate(-105.82 -110.029)" fill="#15ace5"/>
      <path id="Path_510" data-name="Path 510" d="M237.664,184.141c4.188-1.559,8.17-24.923-7.193-36.041s-35.046,1.578-26.8,20.659C208.891,180.93,228.818,187.447,237.664,184.141Z" transform="translate(-112.955 -143.951)" fill="#263238"/>
      <path id="Path_511" data-name="Path 511" d="M211.252,145.42a26.294,26.294,0,0,0-8.846,14.818,15.758,15.758,0,0,0,4.658,15.025,31.929,31.929,0,0,0,15.25,7.512,47.439,47.439,0,0,0,8.771,1.071,23.569,23.569,0,0,0,8.846-.977,20.979,20.979,0,0,1-8.771,2.611,39.329,39.329,0,0,1-9.278-.15,30.8,30.8,0,0,1-17.128-7.513,18.292,18.292,0,0,1-5.052-8.4,18.556,18.556,0,0,1,.169-9.672A23.157,23.157,0,0,1,211.252,145.42Z" transform="translate(-115.223 -142.66)" fill="#263238"/>
      <path id="Path_512" data-name="Path 512" d="M302.717,316.329l26.143-3.531L318.644,237.11l-33.074,4.47Z" transform="translate(-39.328 -62.145)" fill="#15ace5"/>
      <path id="Path_513" data-name="Path 513" d="M285.57,241.58l6.536,28.51,10.611,46.258,26.143-3.531L318.644,237.11Z" transform="translate(-39.328 -62.145)" fill="#15ace5"/>
      <path id="Path_514" data-name="Path 514" d="M285.57,241.58l6.536,28.51,30.444-4.113-3.907-28.867Z" transform="translate(-39.328 -62.145)" opacity="0.1"/>
      <rect id="Rectangle_244" data-name="Rectangle 244" width="41.525" height="31.552" transform="translate(285.799 185.504) rotate(172.31)" fill="#15ace5"/>
      <path id="Path_515" data-name="Path 515" d="M269.782,249.085l32.4-1.127-6.818-50.578-31.552,7.494Z" transform="translate(-58.436 -97.033)" fill="#15ace5"/>
      <path id="Path_516" data-name="Path 516" d="M288.64,226.582l10.086,74.655,54.5-.808,130.924,29.055-24.19-179.3L341.434,212.909Z" transform="translate(-36.632 -138.481)" fill="#15ace5"/>
      <ellipse id="Ellipse_114" data-name="Ellipse 114" cx="29.224" cy="90.92" rx="29.224" ry="90.92" transform="translate(397.226 14.708) rotate(-7.69)" fill="#15ace5"/>
      <ellipse id="Ellipse_115" data-name="Ellipse 115" cx="23.927" cy="80.703" rx="23.927" ry="80.703" transform="translate(405.118 22.391) rotate(-7.69)" opacity="0.2"/>
      <path id="Path_517" data-name="Path 517" d="M378.878,209.806c.789,5.879,1.747,11.569,2.855,17.035a18.03,18.03,0,0,0,27.2-17.823l-1.127-8.452A18.03,18.03,0,0,0,377,190.48C377.282,196.7,377.92,203.177,378.878,209.806Z" transform="translate(40.959 -107.901)" fill="#15ace5"/>
      <path id="Path_518" data-name="Path 518" d="M284.292,281.641l62.654-2.16-13.2-97.832L272.76,196.168Z" transform="translate(-50.577 -110.846)" fill="#15ace5"/>
      <path id="Path_519" data-name="Path 519" d="M284.292,281.641l62.654-2.16-13.2-97.832L272.76,196.168Z" transform="translate(-50.577 -110.846)" opacity="0.2"/>
      <path id="Path_520" data-name="Path 520" d="M380.814,157.32a56.344,56.344,0,0,0-7.081,19.082,129.4,129.4,0,0,0-2.423,20.3c-.244,3.418-.15,6.818-.207,10.236s.188,6.818.413,10.217.451,6.818.826,10.2.733,6.78,1.2,10.161a223.278,223.278,0,0,0,9,39.854,116.263,116.263,0,0,0,8.132,18.781c3.4,5.86,7.343,11.7,12.921,15.664a50,50,0,0,1-12.02-16.114,116.9,116.9,0,0,1-7.513-18.781,237.926,237.926,0,0,1-8.508-39.666,243.487,243.487,0,0,1-2.761-40.492,127.718,127.718,0,0,1,1.878-20.19,58.9,58.9,0,0,1,6.142-19.251Z" transform="translate(35.774 -132.211)" opacity="0.2"/>
      <path id="Path_521" data-name="Path 521" d="M430.99,150.49c-3.756,2.78-7.512,5.634-11.118,8.7s-7.212,6.048-10.762,9.146-7.043,6.254-10.442,9.5l-5.09,4.883c-1.653,1.69-3.362,3.324-4.958,5.052,1.878-1.371,3.756-2.836,5.634-4.263l5.5-4.432c3.662-2.967,7.212-6.048,10.762-9.146s7.024-6.254,10.424-9.5S427.76,153.927,430.99,150.49Z" transform="translate(51.162 -138.208)" fill="#263238"/>
      <path id="Path_522" data-name="Path 522" d="M394.26,223.18c5.09,1.54,10.236,2.855,15.382,4.151s10.33,2.442,15.513,3.587,10.386,2.179,15.607,3.118l7.832,1.371c2.648.394,5.259.845,7.907,1.164-2.554-.789-5.127-1.446-7.682-2.179L441.1,232.42c-5.146-1.3-10.311-2.442-15.495-3.587S415.22,226.654,410,225.715,399.538,223.856,394.26,223.18Z" transform="translate(56.115 -74.377)" fill="#263238"/>
      <path id="Path_523" data-name="Path 523" d="M490.319,218.161c-7.757-.92-15.532-1.615-23.308-2.273s-15.551-1.2-23.326-1.709-15.57-.92-23.364-1.221l-11.7-.432c-3.888,0-7.794-.207-11.7-.207,3.869.47,7.757.826,11.644,1.24l11.644,1.033c7.775.676,15.57,1.2,23.345,1.709s15.57.92,23.364,1.221S482.506,218.123,490.319,218.161Z" transform="translate(58.451 -83.914)" fill="#263238"/>
      <path id="Path_524" data-name="Path 524" d="M471.289,152.25c-6.836,4-13.541,8.207-20.227,12.433s-13.3,8.564-19.889,12.922-13.147,8.79-19.645,13.335l-9.71,6.8c-3.193,2.348-6.442,4.62-9.6,7.005,3.418-1.991,6.78-4.094,10.18-6.123l10.048-6.31c6.686-4.226,13.3-8.564,19.889-12.922s13.147-8.808,19.645-13.335S464.941,156.983,471.289,152.25Z" transform="translate(54.324 -136.663)" fill="#263238"/>
      <path id="Path_525" data-name="Path 525" d="M395.9,203.661c9.109-.883,18.18-1.991,27.233-3.136s18.105-2.479,27.158-3.756,18.068-2.7,27.064-4.188l13.523-2.273c4.489-.826,9-1.6,13.485-2.5-4.564.432-9.09.977-13.635,1.465l-13.6,1.672c-9.071,1.146-18.105,2.479-27.158,3.756s-18.067,2.7-27.064,4.207S404.877,201.915,395.9,203.661Z" transform="translate(57.555 -105.437)" fill="#263238"/>
      <path id="Path_526" data-name="Path 526" d="M221.058,277.751c-28.435,46.559-76.552,147.057-58.222,183.587,17.636,35.177,195.607-61.3,218.125-78.881,9.823-7.625-36.1-97.963-47.291-90.789-15.025,9.56-87.652,68.8-89.249,69.1-3.381.657,6.724-32.811,13.56-74.28C267.9,226.177,241.511,244.283,221.058,277.751Z" transform="translate(-150.665 -53.579)" fill="#ffc4c0"/>
      <path id="Path_527" data-name="Path 527" d="M373.317,254.338c6.667,7.869,1,16.9,1,16.9a22.012,22.012,0,0,1,11.832,9.128c4.508,7.869-5.841,18.368-5.841,18.368a26.951,26.951,0,0,1,10.931,11.607c3.55,7.963-5.371,20.04-5.371,20.04a23.7,23.7,0,0,1,3.193,16.265c-3.08,15.025-24.866,23.232-38.764,28.378-20.659,7.663-58.034,7.381-66.429,8.639l-34.8-88.516s55.273-41.431,72.439-45.357C335.942,246.469,365.823,245.53,373.317,254.338Z" transform="translate(-71.389 -53.098)" fill="#ffc4c0"/>
      <path id="Path_528" data-name="Path 528" d="M337.293,259.462c-16.208-.169-31.59,4.47-47.2,8.226a.271.271,0,0,0,.132.526c15.476-3.906,31.534-4.7,47.141-7.982a.394.394,0,0,0-.075-.77Z" transform="translate(-35.534 -42.521)" fill="#263238"/>
      <path id="Path_529" data-name="Path 529" d="M339.293,274.17a42.767,42.767,0,0,0-10.78,2.367c-3.756,1.108-7.513,2.291-11.269,3.512-7.512,2.46-14.837,5.071-22.143,7.926-.319.113-.225.639.132.526,7.419-2.423,14.875-4.752,22.406-6.874q5.634-1.578,11.269-3.1a48.926,48.926,0,0,0,10.555-3.324.563.563,0,0,0-.169-1.033Z" transform="translate(-31.13 -29.602)" fill="#263238"/>
      <path id="Path_530" data-name="Path 530" d="M340.544,291.63c-3.193,0-6.63,1.615-9.6,2.648-3.381,1.2-6.742,2.366-10.123,3.512-6.761,2.31-13.541,4.62-20.378,6.686a.282.282,0,0,0,.15.526c6.949-2.066,13.936-4.038,20.885-6.16,3.4-1.033,6.8-2.1,10.2-3.174,2.892-.92,6.611-1.747,9-3.756a.207.207,0,0,0-.131-.282Z" transform="translate(-26.389 -14.27)" fill="#263238"/>
      <path id="Path_531" data-name="Path 531" d="M271.325,345.66c-11.513,5.634-23.139,11.006-35.027,15.833s-23.777,9.222-35.891,12.978c-6.8,2.16-13.654,4.245-20.659,6.048-.188,0,0,.338.094.3a292.205,292.205,0,0,0,37.168-9.71q9.071-3.1,17.955-6.78c5.841-2.423,11.7-4.921,17.335-7.813,6.461-3.324,12.922-6.742,19.138-10.517a.188.188,0,0,0-.113-.338Z" transform="translate(-132.324 33.175)" fill="#263238"/>
      <path id="Path_532" data-name="Path 532" d="M324.791,317.119c-13.767,3.756-35.684,2.723-35.891,2.874-4.151,3.662-21.26,14.743-25.618,17.2-.169.094,0,.338.169.263,9.391-4.3,21.185-10.705,26.144-15.457,19.476.676,29.2-2.686,35.271-4.451C325.186,317.42,325.129,317.006,324.791,317.119Z" transform="translate(-58.961 8.096)" fill="#263238"/>
      <path id="Path_533" data-name="Path 533" d="M160.43,354.9l87.464,3.005S260.44,294.42,259.8,260.238c-.357-19.138-11.513-18.312-23.965-6.31C192.264,295.96,160.43,354.9,160.43,354.9Z" transform="translate(-149.217 -54.941)" fill="#15ace5"/>
      <path id="Path_534" data-name="Path 534" d="M208.771,260.9a3.438,3.438,0,0,1-.338.864,6.8,6.8,0,0,1-1.427,1.672,11.887,11.887,0,0,1-.958.751h-.15Zm31.8-1.69a1.3,1.3,0,0,0-1.127-.639,1.747,1.747,0,0,0-1.559,1.089,1.728,1.728,0,0,0-1.54-1.089,1.258,1.258,0,0,0-1.127.639,2.629,2.629,0,0,0,.169,2.535,8.508,8.508,0,0,0,2.385,2.442h.244a11.879,11.879,0,0,0,.958-.751,7.287,7.287,0,0,0,1.427-1.672A2.723,2.723,0,0,0,240.567,259.209Zm-65.058,44.737a4.375,4.375,0,0,0,.977-1.221,1.878,1.878,0,0,0,.188-.451C176.3,302.838,175.9,303.4,175.509,303.946Zm33.093-3.756a1.259,1.259,0,0,0-1.127-.639,1.728,1.728,0,0,0-1.54,1.089,1.747,1.747,0,0,0-1.559-1.089,1.3,1.3,0,0,0-1.127.639,2.686,2.686,0,0,0,.169,2.535,8.339,8.339,0,0,0,2.385,2.423h.263a10.8,10.8,0,0,0,.939-.732,6.556,6.556,0,0,0,1.427-1.69,2.629,2.629,0,0,0,.169-2.535Zm31.928,0a1.3,1.3,0,0,0-1.127-.639,1.747,1.747,0,0,0-1.559,1.089,1.728,1.728,0,0,0-1.54-1.089,1.258,1.258,0,0,0-1.127.638,2.629,2.629,0,0,0,.169,2.535,8.339,8.339,0,0,0,2.385,2.423h.244a9.569,9.569,0,0,0,.958-.733,7.4,7.4,0,0,0,1.427-1.69,2.686,2.686,0,0,0,.207-2.535Zm-50.86-15.758.225.169h.263a10.074,10.074,0,0,0,.958-.77,6.122,6.122,0,0,0,1.409-1.672,3.137,3.137,0,0,0,.394-1.878A43.687,43.687,0,0,0,189.67,284.432Zm34.989-4.808a1.277,1.277,0,0,0-1.127-.639,1.728,1.728,0,0,0-1.54,1.089,1.765,1.765,0,0,0-1.559-1.089,1.277,1.277,0,0,0-1.127.639,2.686,2.686,0,0,0,.169,2.535,8.507,8.507,0,0,0,2.385,2.442h.244s.451-.319.958-.751a6.554,6.554,0,0,0,1.427-1.69,2.629,2.629,0,0,0,.094-2.535Zm-47.949,61.527a1.258,1.258,0,0,0-1.108-.638,1.766,1.766,0,0,0-1.559,1.089,1.709,1.709,0,0,0-1.54-1.089,1.315,1.315,0,0,0-1.127.639,2.667,2.667,0,0,0,.15,2.535l.169.263,4.62.169a4.784,4.784,0,0,0,.244-.413,2.667,2.667,0,0,0,.075-2.554Zm31.928,0a1.3,1.3,0,0,0-1.127-.639,1.653,1.653,0,0,1-3.1,0,1.315,1.315,0,0,0-1.127.638,2.686,2.686,0,0,0,.169,2.535,6.291,6.291,0,0,0,1.127,1.409l2.686.094a7.062,7.062,0,0,0,1.2-1.484,2.667,2.667,0,0,0,.131-2.554Zm30.839-.639a1.653,1.653,0,0,1-3.1,0,1.3,1.3,0,0,0-1.127.639,2.592,2.592,0,0,0,.169,2.535,8.244,8.244,0,0,0,2.385,2.442h.244l.6-.451c.169-.864.507-2.629.958-5.146ZM192.656,320.6a1.258,1.258,0,0,0-1.108-.657,1.634,1.634,0,0,1-3.1,0,1.277,1.277,0,0,0-1.127.657,2.629,2.629,0,0,0,.169,2.535,8.621,8.621,0,0,0,2.366,2.423h.263a8.364,8.364,0,0,0,.958-.751,6.911,6.911,0,0,0,1.427-1.672,2.63,2.63,0,0,0,.113-2.535Zm31.928,0a1.3,1.3,0,0,0-1.127-.657,1.747,1.747,0,0,0-1.54,1.108,1.878,1.878,0,0,0-1.559-1.108,1.3,1.3,0,0,0-1.127.657,2.686,2.686,0,0,0,.169,2.535,8.339,8.339,0,0,0,2.385,2.423h.244a8.36,8.36,0,0,0,.958-.751,6.179,6.179,0,0,0,1.427-1.672,2.629,2.629,0,0,0,.169-2.535Z" transform="translate(-139.824 -43.301)" fill="#fff"/>
      <path id="Path_535" data-name="Path 535" d="M240.261,299.723c-13.41-1.578-49.939-4.808-73.942-3.756-.15,0-.188.563,0,.563,20.1,2.179,60.419,3.644,73.923,4.057C240.449,300.549,240.505,299.76,240.261,299.723Z" transform="translate(-144.157 -10.643)" fill="#263238"/>
      <path id="Path_536" data-name="Path 536" d="M221.4,273.463q-1.5,5.634-2.836,11.381c0-.451.113-.92.15-1.39.545-5.315,1.052-10.611,1.446-15.945a.113.113,0,0,0-.225,0C217.339,286.1,210,333.075,209.563,338.2c-.413,0-4.395.113-5.334,0-.207,0-.188.3,0,.319s6.461.77,6.5.639c2.611-9.053,6.555-43.291,7.4-50.878,1.352-4.883,2.5-9.8,3.362-14.8C221.508,273.425,221.414,273.407,221.4,273.463Z" transform="translate(-110.886 -35.543)" fill="#263238"/>
    </g>
    <g id="freepik--Hearts--inject-18" transform="translate(477.934 168.28)">
      <path id="Path_537" data-name="Path 537" d="M322.365,164.568c-1.465,14.5-13.147,27.158-13.147,27.158s-17.128-1.878-27.777-11.795c-8.865-8.283-9.8-20.509-2.742-25.9,10.123-7.738,20.509,11.043,20.509,11.043s-4.526-21,8.189-21.824C316.242,142.669,323.586,152.473,322.365,164.568Z" transform="translate(-271.954 -62.258)" fill="#15ace5"/>
      <path id="Path_538" data-name="Path 538" d="M292.322,108.67a22.012,22.012,0,0,1-5.278,10.912,22.086,22.086,0,0,1-11.137-4.733c-3.568-3.324-3.944-8.226-1.108-10.4,4.057-3.1,8.226,4.432,8.226,4.432s-1.878-8.414,3.287-8.752C289.974,99.9,292.81,103.824,292.322,108.67Z" transform="translate(-272.919 -100.115)" fill="#15ace5"/>
      <path id="Path_539" data-name="Path 539" d="M326.173,139.523c-6.442,8.564-18.631,12.1-18.631,12.1s-10.086-7.682-13-17.992c-2.442-8.621,1.615-16.659,8.114-17.373,9.391-1.033,8.733,14.762,8.733,14.762s5.127-15.025,13.466-10.63C330.662,123.333,331.545,132.367,326.173,139.523Z" transform="translate(-254.559 -85.987)" fill="#15ace5"/>
    </g>
    <g id="freepik--speech-bubbles--inject-18" transform="translate(71.059 113.673)">
      <rect id="Rectangle_245" data-name="Rectangle 245" width="183.643" height="103.691" transform="translate(0 114.002)" fill="#15ace5"/>
      <path id="Path_540" data-name="Path 540" d="M87.344,186.95,56.28,218.822V186.95Z" transform="translate(-56.28 30.743)" fill="#15ace5"/>
      <rect id="Rectangle_246" data-name="Rectangle 246" width="109.044" height="3.212" transform="translate(26.538 134.831)" fill="#fff"/>
      <rect id="Rectangle_247" data-name="Rectangle 247" width="74.712" height="3.212" transform="translate(26.538 144.634)" fill="#fff"/>
      <rect id="Rectangle_248" data-name="Rectangle 248" width="130.548" height="3.212" transform="translate(26.538 154.438)" fill="#fff"/>
      <rect id="Rectangle_249" data-name="Rectangle 249" width="44.906" height="3.212" transform="translate(26.538 164.242)" fill="#fff"/>
      <rect id="Rectangle_250" data-name="Rectangle 250" width="102.433" height="3.212" transform="translate(26.538 174.065)" fill="#fff"/>
      <rect id="Rectangle_251" data-name="Rectangle 251" width="109.044" height="3.212" transform="translate(26.538 183.868)" fill="#fff"/>
      <rect id="Rectangle_252" data-name="Rectangle 252" width="81.698" height="3.212" transform="translate(26.538 193.672)" fill="#fff"/>
      <rect id="Rectangle_253" data-name="Rectangle 253" width="183.643" height="75.876" transform="translate(219.872 326.249) rotate(180)" fill="#dbdbdb"/>
      <path id="Path_541" data-name="Path 541" d="M156.81,244.75l31.064,31.872V244.75Z" transform="translate(31.998 81.499)" fill="#dbdbdb"/>
      <rect id="Rectangle_254" data-name="Rectangle 254" width="98.864" height="3.305" transform="translate(64.551 266.468)" fill="#fff"/>
      <rect id="Rectangle_255" data-name="Rectangle 255" width="125.853" height="3.305" transform="translate(64.551 276.573)" fill="#fff"/>
      <rect id="Rectangle_256" data-name="Rectangle 256" width="91.465" height="3.305" transform="translate(64.551 286.658)" fill="#fff"/>
      <rect id="Rectangle_257" data-name="Rectangle 257" width="115.035" height="3.305" transform="translate(64.551 296.762)" fill="#fff"/>
      <rect id="Rectangle_258" data-name="Rectangle 258" width="75.444" height="3.305" transform="translate(64.551 306.848)" fill="#fff"/>
      <rect id="Rectangle_259" data-name="Rectangle 259" width="142.737" height="60.363" transform="translate(465.381)" fill="#15ace5"/>
      <path id="Path_542" data-name="Path 542" d="M333.24,103.18h33.149l-16.565,22.8Z" transform="translate(186.925 -42.817)" fill="#15ace5"/>
      <path id="Path_543" data-name="Path 543" d="M346.94,96.449a36.079,36.079,0,0,1-7.888,9.259,53.317,53.317,0,0,1-5.259,4.132H332.4c-.376-.263-9.391-6.31-13.147-13.41-2.686-4.939-3.061-10.442-.92-14.03a6.987,6.987,0,0,1,6.2-3.55,9.71,9.71,0,0,1,8.564,6.029,9.691,9.691,0,0,1,8.546-6.029,7.005,7.005,0,0,1,6.216,3.55C350,86.006,349.645,91.509,346.94,96.449Z" transform="translate(172.624 -64.182)" fill="#fff"/>
      <path id="Path_544" data-name="Path 544" d="M381,83.381l-17.016,22.744-3.644-13.56-2.1.939-1.014-2.273,1.972-.864-8.076-8.808h27.89l5.634-2.479H348.3l-.92,2.085,10.367,11.269,4.489,16.734,2.216.413,21.223-28.322Z" transform="translate(199.342 -63.98)" fill="#fff"/>
      <path id="Path_545" data-name="Path 545" d="M374.939,81.37l-17.016,22.744-3.644-13.56Z" transform="translate(205.401 -61.969)" fill="#fff"/>
      <path id="Path_546" data-name="Path 546" d="M377.26,80.4l-19.814,8.808L349.37,80.4Z" transform="translate(201.09 -62.821)" fill="#fff"/>
    </g>
    <g id="freepik--Plant--inject-18" transform="translate(54.142 577.288)">
      <path id="Path_547" data-name="Path 547" d="M129.707,348.266C107.883,377.809,85.12,412.122,79.58,449.178c0,.563.845.732.958.188a221.623,221.623,0,0,1,9.654-29.674c14.349-3.944,28.435-7.193,35.966-21.429,7.682-14.649,6.7-33.806,5.24-49.676C131.3,347.74,130.139,347.7,129.707,348.266Z" transform="translate(-18.903 -291.546)" fill="#15ace5"/>
      <path id="Path_548" data-name="Path 548" d="M85.369,415.091c9.8-21.993,22.387-44.08,38.37-62.166.113-.131.282,0,.188.169-10.48,12.884-18.424,26.914-26.2,41.187,7.212-7.343,15.138-13.9,21.974-21.692.131-.15.357,0,.225.225-6.8,8.151-14.217,17.016-23.063,23.063-2.385,4.376-4.77,8.771-7.212,13.147.6-.338,1.221-.639,1.878-.939.113,0,.207.113.094.169-.676.338-1.333.695-2.028,1-1.164,2.066-2.291,4.151-3.475,6.235C85.8,415.9,85.162,415.5,85.369,415.091Z" transform="translate(-13.855 -287.171)" fill="#263238"/>
      <path id="Path_549" data-name="Path 549" d="M89.269,387.126a128.03,128.03,0,0,0,16.753-11.175c.15-.113.357,0,.207.206a88.7,88.7,0,0,1-16.715,11.382.244.244,0,0,1-.244-.413Z" transform="translate(-10.468 -266.944)" fill="#263238"/>
      <path id="Path_550" data-name="Path 550" d="M78.975,470c0,.451.808.451.789,0,.113-12.208,0-24.416.207-36.736,3.118-6.31,9.823-9.8,14.5-14.856a65.379,65.379,0,0,0,8.7-12.039,86.844,86.844,0,0,0,10.1-33.806c1.3-13.053-3.756-56.137-9.165-54.635-2.855.77-12.1,22.105-14.537,29.167a203.516,203.516,0,0,0-8.7,35.684C76.42,411.609,76.8,441.114,78.975,470Z" transform="translate(-20.814 -317.89)" fill="#15ace5"/>
      <path id="Path_551" data-name="Path 551" d="M78.269,413.8h0c.676-15.457,4.151-31.045,7.4-46.014,3.512-16.152,7.625-31.327,15.926-45.732.15-.263.545,0,.413.244a169.876,169.876,0,0,0-12.79,35.1,27.374,27.374,0,0,1,1.878-2.517c.225-.338.77,0,.545.3a22.184,22.184,0,0,1-2.592,3.662h-.113c-2.855,11.532-4.9,23.326-6.667,35.1l.394-.451a.113.113,0,0,1,.169.131c-.207.394-.451.77-.695,1.164-.883,5.972-1.709,11.926-2.517,17.842,10.63-9.09,19.7-19.8,24.829-33h0c-5.015,13.692-12.921,25.862-25.092,34.182l-.676,4.77c0,.319-.582.244-.582,0,0-1.409,0-2.817.131-4.226C78.156,414.173,78.081,413.948,78.269,413.8Z" transform="translate(-20.202 -314.331)" fill="#263238"/>
      <path id="Path_552" data-name="Path 552" d="M80.878,376.418c8.132-12.133,15.72-23.909,21.655-37.318,0-.15.338,0,.282.113-5.015,13.316-12.039,26.82-21.523,37.562C81.141,376.944,80.709,376.662,80.878,376.418Z" transform="translate(-17.797 -299.32)" fill="#263238"/>
      <path id="Path_553" data-name="Path 553" d="M86.631,345.836c3.362-5.954,6.911-11.738,10.086-17.823,0-.169.319,0,.244.15a92.274,92.274,0,0,1-9.8,17.992.308.308,0,0,1-.526-.319Z" transform="translate(-12.75 -309.062)" fill="#263238"/>
      <path id="Path_554" data-name="Path 554" d="M85.91,338.85v0Z" transform="translate(-13.344 -299.484)" fill="#263238"/>
      <path id="Path_555" data-name="Path 555" d="M89.793,426.082a124.369,124.369,0,0,1-2.855,24.04c.131.883.244,1.747.376,2.648a114.172,114.172,0,0,0,4.3-26.857.808.808,0,0,0,0-.845h0a177.39,177.39,0,0,0-2.686-36.323C85.173,366.32,76.891,344.8,61.246,327.988a1.108,1.108,0,0,0-1.728.357c-6.311,16.039-4.113,35.2,1.258,51.216a94.15,94.15,0,0,0,12.414,24.416C78.6,411.47,85.436,417.837,89.793,426.082Z" transform="translate(-39.896 -309.262)" fill="#15ace5"/>
      <path id="Path_556" data-name="Path 556" d="M59.952,331.962c14.818,24.059,25.073,52.588,26.388,80.985,0,.507-.826.639-.9.132-.338-2.554-.732-5.09-1.146-7.606h0c-6.141-5.879-12.433-12.076-16.9-19.4a.15.15,0,0,1,.225-.169,206.255,206.255,0,0,0,16.321,17.786c-1.052-6.292-2.31-12.471-3.756-18.575L79,383.742c-.244-.3.169-.732.451-.432l.357.394a216.4,216.4,0,0,0-7.757-24.622c-3.756-4.489-8-8.4-10.743-13.8a.113.113,0,1,1,.188-.113c2.216,3.1,4.357,6.217,6.855,9.09,1.014,1.146,2.1,2.216,3.136,3.343a188.864,188.864,0,0,0-12.133-25.3.345.345,0,0,1,.6-.338Z" transform="translate(-36.705 -305.686)" fill="#263238"/>
      <path id="Path_557" data-name="Path 557" d="M61.4,347.718c4.789,6.461,10.255,12.6,14.706,19.27.131.188-.15.394-.3.244a98.453,98.453,0,0,1-14.725-19.326C60.953,347.7,61.272,347.53,61.4,347.718Z" transform="translate(-35.171 -291.768)" fill="#263238"/>
      <path id="Path_558" data-name="Path 558" d="M69.554,358.763l.207.188c.131.15,0,.376-.225.225l-.207-.207a.153.153,0,0,1,.225-.207Z" transform="translate(-27.94 -282.041)" fill="#263238"/>
      <path id="Path_559" data-name="Path 559" d="M47.287,357.186a73.735,73.735,0,0,0,15.645,36.7,39.044,39.044,0,0,0,12.677,9.9c5.5,2.723,11.269,5.841,16.9,8.076a112.689,112.689,0,0,1,6.029,21.373c.188-.62.357-1.258.545-1.878-3.644-31.421-23.927-58.222-49.864-75.407a1.258,1.258,0,0,0-1.934,1.24Z" transform="translate(-47.273 -284.652)" fill="#15ace5"/>
      <path id="Path_560" data-name="Path 560" d="M52.086,361.621a.222.222,0,0,1,.263-.357A106.171,106.171,0,0,1,85.4,402c.188.432-.394.808-.639.376-1.2-2.1-2.442-4.151-3.756-6.179h0c-5.916-1.108-11.513-5.277-15.908-9.24-.131-.094,0-.282.169-.169a35.893,35.893,0,0,0,7.513,5.259c2.4,1.221,5.015,2.01,7.512,2.986-2.2-3.493-4.489-6.818-6.874-10.067a68.682,68.682,0,0,1-17.673-10.01c-.169-.113,0-.394.169-.282a177.441,177.441,0,0,0,16.546,8.846A147.69,147.69,0,0,0,60.781,369.9c-2.01-1.07-4.057-2.122-6.01-3.268-.15-.094,0-.357.131-.3a21.86,21.86,0,0,1,4.62,2.254C57.081,366.223,54.659,363.894,52.086,361.621Z" transform="translate(-43.113 -279.828)" fill="#263238"/>
      <path id="Path_561" data-name="Path 561" d="M52.452,367.212a7.517,7.517,0,0,1,1.014.714s0,.207-.131.15a6.438,6.438,0,0,1-1.052-.582C52.114,367.381,52.283,367.1,52.452,367.212Z" transform="translate(-42.934 -274.601)" fill="#263238"/>
      <path id="Path_562" data-name="Path 562" d="M129.657,470.043H58.57L64.3,405.3l1.258-14.274h57.095L123.91,405.3Z" transform="translate(-37.352 -253.663)" fill="#455a64"/>
      <path id="Path_563" data-name="Path 563" d="M121.232,405.3H61.62l1.258-14.274h57.095Z" transform="translate(-34.674 -253.663)" fill="#263238"/>
      <rect id="Rectangle_260" data-name="Rectangle 260" width="63.894" height="14.123" transform="translate(24.805 127.375)" fill="#455a64"/>
    </g>
  </g>
</svg>
