<svg xmlns="http://www.w3.org/2000/svg" width="181.517" height="180.707" viewBox="0 0 181.517 180.707">
  <g id="template_21_web_development_step2" transform="translate(-7.293 -7.293)">
    <path id="Path_372" data-name="Path 372" d="M27.552,147.483v-15.8c.135-3.241,2.107-9.724,8.914-9.724H79.819m29.983,0h6.077m-18.232,0h6.077m-17.422,0h6.078m29.578,0h25.526c3.106,0,9.319-2.026,9.319-10.129V99.268" fill="none" stroke="#bec6d3" stroke-width="1"/>
    <line id="Line_47" data-name="Line 47" x2="18.336" y2="18.336" transform="translate(10.332 8.814)" fill="none" stroke="#bec6d3" stroke-width="1"/>
    <line id="Line_48" data-name="Line 48" x1="18.336" y2="18.336" transform="translate(10.332 9.522)" fill="none" stroke="#bec6d3" stroke-width="1"/>
    <line id="Line_49" data-name="Line 49" x2="18.336" y2="18.336" transform="translate(88.935 42.039)" fill="none" stroke="#bec6d3" stroke-width="1"/>
    <line id="Line_50" data-name="Line 50" x1="18.336" y2="18.336" transform="translate(88.935 42.746)" fill="none" stroke="#bec6d3" stroke-width="1"/>
    <line id="Line_51" data-name="Line 51" x2="18.336" y2="18.336" transform="translate(9.522 89.849)" fill="none" stroke="#bec6d3" stroke-width="1"/>
    <line id="Line_52" data-name="Line 52" x1="18.336" y2="18.336" transform="translate(9.522 90.556)" fill="none" stroke="#bec6d3" stroke-width="1"/>
    <line id="Line_53" data-name="Line 53" x2="18.336" y2="18.336" transform="translate(58.142 148.194)" fill="none" stroke="#bec6d3" stroke-width="1"/>
    <line id="Line_54" data-name="Line 54" x1="18.336" y2="18.336" transform="translate(58.142 148.901)" fill="none" stroke="#bec6d3" stroke-width="1"/>
    <line id="Line_55" data-name="Line 55" x2="18.336" y2="18.336" transform="translate(165.918 126.314)" fill="none" stroke="#bec6d3" stroke-width="1"/>
    <line id="Line_56" data-name="Line 56" x1="18.336" y2="18.336" transform="translate(165.918 127.022)" fill="none" stroke="#bec6d3" stroke-width="1"/>
    <circle id="Ellipse_107" data-name="Ellipse 107" cx="10.845" cy="10.845" r="10.845" transform="translate(40.207 46.69)" fill="none" stroke="#bec6d3" stroke-width="1"/>
    <circle id="Ellipse_108" data-name="Ellipse 108" cx="10.845" cy="10.845" r="10.845" transform="translate(118 153.655)" fill="none" stroke="#bec6d3" stroke-width="1"/>
    <circle id="Ellipse_109" data-name="Ellipse 109" cx="8.414" cy="8.414" r="8.414" transform="translate(19.138 159.328)" fill="none" stroke="#bec6d3" stroke-width="1"/>
    <circle id="Ellipse_110" data-name="Ellipse 110" cx="19.759" cy="19.759" r="19.759" transform="translate(7.793 147.983)" fill="none" stroke="#bec6d3" stroke-width="1"/>
    <circle id="Ellipse_111" data-name="Ellipse 111" cx="9.224" cy="9.224" r="9.224" transform="translate(147.173 30.483)" fill="none" stroke="#bec6d3" stroke-width="1"/>
    <path id="Path_373" data-name="Path 373" d="M139.879,67.3v-.279l-.237-.146a31.916,31.916,0,1,1,35.906-1.636l0,0-.8.585-.206.15V91.569a7.6,7.6,0,0,1-7.6,7.6H147.483a7.6,7.6,0,0,1-7.6-7.6Z" fill="none" stroke="#bec6d3" stroke-width="1"/>
    <line id="Line_57" data-name="Line 57" x2="45.379" transform="translate(133.707 70.811)" fill="none" stroke="#bec6d3" stroke-width="1"/>
    <line id="Line_58" data-name="Line 58" y2="22.69" transform="translate(156.897 48.621)" fill="none" stroke="#bec6d3" stroke-width="1"/>
    <line id="Line_59" data-name="Line 59" x2="45.379" transform="translate(133.707 83.776)" fill="none" stroke="#bec6d3" stroke-width="1"/>
  </g>
</svg>
