<svg xmlns="http://www.w3.org/2000/svg" width="122.195" height="95.2" viewBox="0 0 122.195 95.2">
  <path id="Path_89" data-name="Path 89" d="M20.7-46.9V0H9.849V-38.19H.469V-46.9ZM55.964-84.2h13.9l-33,94.2h-13.9Zm65.7,71V0h-52.9V-10.5l27-25.5a28.672,28.672,0,0,0,5.8-7.05,12.824,12.824,0,0,0,1.5-5.85,7.735,7.735,0,0,0-2.85-6.45q-2.85-2.25-8.35-2.25a19.174,19.174,0,0,0-8.3,1.75,15.894,15.894,0,0,0-6.2,5.25l-11.8-7.6a27.682,27.682,0,0,1,11.3-9.55,37.74,37.74,0,0,1,16.5-3.45,33.923,33.923,0,0,1,13.65,2.55,21.039,21.039,0,0,1,9.1,7.2,18.629,18.629,0,0,1,3.25,10.95,24.409,24.409,0,0,1-2.4,10.7q-2.4,5-9.3,11.4l-16.1,15.2Z" transform="translate(0.031 84.7)" fill="none" stroke="#314559" stroke-width="1" opacity="0.71"/>
</svg>
