<svg xmlns="http://www.w3.org/2000/svg" width="76" height="252.5" viewBox="0 0 76 252.5">
  <g id="Group_19204" data-name="Group 19204" transform="translate(-211.5 -1640.5)">
    <text id="_1_3" data-name="1/3" transform="translate(212.5 1691.5)" fill="none" stroke="#707070" stroke-width="1" font-size="52" font-family="Montserrat-ExtraBold, Montserrat" font-weight="800"><tspan x="0" y="0">1/3</tspan></text>
    <g id="Group_14" data-name="Group 14">
      <circle id="Ellipse_28" data-name="Ellipse 28" cx="6.5" cy="6.5" r="6.5" transform="translate(212 1712)" fill="#3498db"/>
      <circle id="Ellipse_29" data-name="Ellipse 29" cx="6.5" cy="6.5" r="6.5" transform="translate(212 1754)" fill="#3498db"/>
      <circle id="Ellipse_30" data-name="Ellipse 30" cx="6.5" cy="6.5" r="6.5" transform="translate(212 1796)" fill="#3498db"/>
      <circle id="Ellipse_31" data-name="Ellipse 31" cx="6.5" cy="6.5" r="6.5" transform="translate(212 1838)" fill="#3498db"/>
      <circle id="Ellipse_32" data-name="Ellipse 32" cx="6.5" cy="6.5" r="6.5" transform="translate(212 1880)" fill="#3498db"/>
    </g>
    <g id="Group_13" data-name="Group 13" transform="translate(3)">
      <circle id="Ellipse_33" data-name="Ellipse 33" cx="6.5" cy="6.5" r="6.5" transform="translate(240 1712)" fill="#3498db"/>
      <circle id="Ellipse_34" data-name="Ellipse 34" cx="6.5" cy="6.5" r="6.5" transform="translate(240 1754)" fill="#3498db"/>
      <circle id="Ellipse_35" data-name="Ellipse 35" cx="6.5" cy="6.5" r="6.5" transform="translate(240 1796)" fill="#3498db"/>
      <circle id="Ellipse_36" data-name="Ellipse 36" cx="6.5" cy="6.5" r="6.5" transform="translate(240 1838)" fill="#3498db"/>
    </g>
    <g id="Group_12" data-name="Group 12" transform="translate(5)">
      <circle id="Ellipse_38" data-name="Ellipse 38" cx="6.5" cy="6.5" r="6.5" transform="translate(268 1712)" fill="#3498db"/>
      <circle id="Ellipse_39" data-name="Ellipse 39" cx="6.5" cy="6.5" r="6.5" transform="translate(268 1754)" fill="#3498db"/>
      <circle id="Ellipse_40" data-name="Ellipse 40" cx="6.5" cy="6.5" r="6.5" transform="translate(268 1796)" fill="#3498db"/>
    </g>
  </g>
</svg>
