<svg xmlns="http://www.w3.org/2000/svg" width="50" height="50" viewBox="0 0 50 50">
  <g id="Group_33" data-name="Group 33" transform="translate(0)">
    <rect id="Rectangle_52" data-name="Rectangle 52" width="50" height="50" rx="25" transform="translate(0)" fill="#3498db"/>
    <g id="twitter_1_" data-name="twitter (1)" transform="translate(16 18)">
      <g id="Group_3" data-name="Group 3" transform="translate(0 0)">
        <path id="Path_5" data-name="Path 5" d="M18.432,49.773a7.878,7.878,0,0,1-2.177.6,3.758,3.758,0,0,0,1.662-2.089,7.552,7.552,0,0,1-2.4.915A3.779,3.779,0,0,0,8.985,51.78a3.891,3.891,0,0,0,.088.862,10.7,10.7,0,0,1-7.789-3.953,3.78,3.78,0,0,0,1.161,5.05,3.732,3.732,0,0,1-1.707-.465v.041a3.8,3.8,0,0,0,3.027,3.713,3.772,3.772,0,0,1-.991.124,3.341,3.341,0,0,1-.715-.065A3.815,3.815,0,0,0,5.59,59.72,7.593,7.593,0,0,1,.9,61.332,7.079,7.079,0,0,1,0,61.28a10.638,10.638,0,0,0,5.8,1.7A10.681,10.681,0,0,0,16.552,52.223c0-.167-.006-.328-.014-.488A7.539,7.539,0,0,0,18.432,49.773Z" transform="translate(0 -48)" fill="#fff"/>
      </g>
    </g>
  </g>
</svg>
