<svg id="Group_34" data-name="Group 34" xmlns="http://www.w3.org/2000/svg" width="50" height="50" viewBox="0 0 50 50">
  <rect id="Rectangle_51" data-name="Rectangle 51" width="50" height="50" rx="25" transform="translate(0)" fill="#3498db"/>
  <g id="noun_instagram_3350460" transform="translate(15.817 15.817)">
    <path id="Path_90" data-name="Path 90" d="M15.3,0H3.061A3.061,3.061,0,0,0,0,3.061V15.3a3.061,3.061,0,0,0,3.061,3.061H15.3A3.061,3.061,0,0,0,18.365,15.3V3.061A3.061,3.061,0,0,0,15.3,0Zm1.53,15.3a1.53,1.53,0,0,1-1.53,1.53H3.061A1.53,1.53,0,0,1,1.53,15.3V3.061a1.53,1.53,0,0,1,1.53-1.53H15.3a1.53,1.53,0,0,1,1.53,1.53Z" transform="translate(0 0)" fill="#fff"/>
    <path id="Path_91" data-name="Path 91" d="M10.591,6a4.591,4.591,0,1,0,4.591,4.591A4.591,4.591,0,0,0,10.591,6Zm0,7.652a3.061,3.061,0,1,1,3.061-3.061A3.061,3.061,0,0,1,10.591,13.652Z" transform="translate(-1.409 -1.409)" fill="#fff"/>
    <ellipse id="Ellipse_56" data-name="Ellipse 56" cx="1" cy="1" rx="1" ry="1" transform="translate(13.183 3.183)" fill="#fff"/>
  </g>
</svg>
