<svg xmlns="http://www.w3.org/2000/svg" width="45.871" height="40.137" viewBox="0 0 45.871 40.137">
  <g id="Growth" transform="translate(0 -3)">
    <path id="Path_63" data-name="Path 63" d="M42.048,3H3.823A3.823,3.823,0,0,0,0,6.823V33.58A3.823,3.823,0,0,0,3.823,37.4H5.734V35.492H3.823A1.911,1.911,0,0,1,1.911,33.58V10.645H43.959V33.58a1.911,1.911,0,0,1-1.911,1.911H40.137V37.4h1.911a3.823,3.823,0,0,0,3.823-3.823V6.823A3.823,3.823,0,0,0,42.048,3ZM4.778,7.778a.956.956,0,1,1,.956-.956A.956.956,0,0,1,4.778,7.778Zm3.823,0a.956.956,0,1,1,.956-.956A.956.956,0,0,1,8.6,7.778Zm3.823,0a.956.956,0,1,1,.956-.956A.956.956,0,0,1,12.423,7.778Z" transform="translate(0)" fill="#42a5f5"/>
    <path id="Path_64" data-name="Path 64" d="M39.447,41.758h-.956v-25.8A.956.956,0,0,0,37.536,15H31.8a.956.956,0,0,0-.956.956v2.867H26.068a.956.956,0,0,0-.956.956v2.867H20.335a.956.956,0,0,0-.956.956v2.867H14.6a.956.956,0,0,0-.956.956V30.29H8.867a.956.956,0,0,0-.956.956V41.758H6.956a.956.956,0,0,0,0,1.911H39.447a.956.956,0,0,0,0-1.911ZM9.823,32.2h3.823v9.556H9.823Zm5.734-3.823h3.823V41.758H15.556Zm5.734-3.823h3.823v17.2H21.29Zm5.734-3.823h3.823V41.758H27.024Zm5.734,21.024V16.911H36.58V41.758Z" transform="translate(-0.266 -0.532)" fill="#424242"/>
    <path id="Path_65" data-name="Path 65" d="M21.391,14.592A.956.956,0,0,0,20.512,14H16.689a.956.956,0,1,0,0,1.911h1.519l-7.932,7.922a.96.96,0,1,0,1.357,1.357l7.922-7.932v1.519a.956.956,0,0,0,1.911,0C21.468,14.65,21.468,14.841,21.391,14.592Z" transform="translate(-0.443 -0.488)" fill="#42a5f5"/>
  </g>
</svg>
