<svg xmlns="http://www.w3.org/2000/svg" xmlns:xlink="http://www.w3.org/1999/xlink" width="812" height="969" viewBox="0 0 812 969">
  <defs>
    <clipPath id="clip-path">
      <rect id="Rectangle_43" data-name="Rectangle 43" width="812" height="969" transform="translate(1108 6591)" fill="#fff" stroke="#707070" stroke-width="1"/>
    </clipPath>
    <linearGradient id="linear-gradient" x1="0.5" y1="0.169" x2="0" y2="0.5" gradientUnits="objectBoundingBox">
      <stop offset="0" stop-color="#f1e97c"/>
      <stop offset="1" stop-color="#57855e"/>
    </linearGradient>
  </defs>
  <g id="Mask_Group_5" data-name="Mask Group 5" transform="translate(-1108 -6591)" clip-path="url(#clip-path)">
    <path id="Subtraction_4" data-name="Subtraction 4" d="M360,1445a762.055,762.055,0,0,1-76.683-3.872,751.82,751.82,0,0,1-74.468-11.365c-24.162-4.944-48.344-11.162-71.876-18.481-23.267-7.237-46.451-15.722-68.907-25.22-22.248-9.41-44.306-20.036-65.561-31.582-21.1-11.464-41.908-24.1-61.838-37.567-19.833-13.4-39.259-27.926-57.737-43.176-18.433-15.212-36.352-31.5-53.26-48.406s-33.193-34.826-48.406-53.26c-15.251-18.48-29.778-37.906-43.175-57.738-13.463-19.928-26.1-40.733-37.567-61.837-11.546-21.255-22.172-43.313-31.582-65.561-9.5-22.455-17.983-45.639-25.22-68.907-7.319-23.532-13.537-47.714-18.481-71.876a751.844,751.844,0,0,1-11.365-74.468,761.236,761.236,0,0,1,0-153.366,751.819,751.819,0,0,1,11.365-74.468c4.944-24.162,11.162-48.345,18.481-71.876,7.237-23.267,15.722-46.451,25.22-68.907,9.41-22.248,20.036-44.306,31.582-65.561,11.464-21.1,24.1-41.909,37.567-61.837,13.4-19.832,27.924-39.257,43.175-57.738,15.214-18.435,31.5-36.354,48.406-53.26s34.826-33.193,53.26-48.406c18.479-15.25,37.9-29.777,57.737-43.175C-39.4,59.624-18.6,46.985,2.506,35.521,23.76,23.975,45.818,13.349,68.066,3.939c22.456-9.5,45.639-17.983,68.907-25.22,23.53-7.319,47.713-13.537,71.876-18.481a751.825,751.825,0,0,1,74.468-11.365,761.236,761.236,0,0,1,153.366,0,751.825,751.825,0,0,1,74.468,11.365C535.314-34.818,559.5-28.6,583.027-21.281c23.267,7.237,46.451,15.722,68.907,25.22,22.248,9.41,44.306,20.036,65.561,31.582,21.1,11.464,41.908,24.1,61.838,37.567,19.833,13.4,39.258,27.925,57.737,43.175,18.434,15.213,36.353,31.5,53.26,48.406s33.193,34.826,48.406,53.26c15.251,18.48,29.777,37.906,43.175,57.738,13.464,19.929,26.1,40.734,37.567,61.837,11.546,21.255,22.172,43.313,31.582,65.561,9.5,22.456,17.983,45.639,25.22,68.907,7.319,23.531,13.537,47.714,18.481,71.876a751.819,751.819,0,0,1,11.365,74.468,761.236,761.236,0,0,1,0,153.366,751.862,751.862,0,0,1-11.365,74.468c-4.944,24.162-11.162,48.345-18.481,71.876-7.237,23.268-15.722,46.451-25.22,68.907-9.41,22.248-20.036,44.306-31.582,65.561-11.465,21.1-24.1,41.909-37.567,61.837-13.4,19.832-27.924,39.257-43.175,57.738-15.214,18.435-31.5,36.354-48.406,53.26s-34.827,33.194-53.26,48.406c-18.479,15.25-37.9,29.776-57.737,43.176-19.929,13.464-40.734,26.1-61.838,37.567-21.255,11.546-43.313,22.172-65.561,31.582-22.456,9.5-45.639,17.983-68.907,25.22-23.532,7.319-47.714,13.537-71.876,18.481a751.82,751.82,0,0,1-74.468,11.365A762.055,762.055,0,0,1,360,1445Zm0-1250C84.3,195-140,419.3-140,695s224.3,500,500,500S860,970.7,860,695,635.7,195,360,195Z" transform="translate(1560 6865)" fill="url(#linear-gradient)"/>
  </g>
</svg>
