<svg xmlns="http://www.w3.org/2000/svg" width="39.629" height="39.602" viewBox="0 0 39.629 39.602">
  <g id="Ranking" transform="translate(0 -0.033)">
    <path id="Path_66" data-name="Path 66" d="M38.8,47.651H.826A.826.826,0,1,1,.826,46H38.8a.826.826,0,1,1,0,1.651Z" transform="translate(0 -8.016)" fill="#424242"/>
    <path id="Path_67" data-name="Path 67" d="M3.826,42H36.85a.826.826,0,0,1,.826.826V45.3H3V42.826A.826.826,0,0,1,3.826,42Z" transform="translate(-0.523 -7.319)" fill="#42a5f5"/>
    <path id="Path_68" data-name="Path 68" d="M33.594,25.3H26.163V22.826A.826.826,0,0,0,25.338,22H17.082a.826.826,0,0,0-.826.826V28.6H8.826A.826.826,0,0,0,8,29.431v9.082H9.651V30.256h6.6v8.256h1.651V23.651h6.6V38.512h1.651V26.954h6.6V38.512H34.42V26.128A.826.826,0,0,0,33.594,25.3Z" transform="translate(-1.395 -3.831)" fill="#424242"/>
    <path id="Path_69" data-name="Path 69" d="M23.128,10.1l1.461,2.328,2.667.677L25.5,15.219l.182,2.733-2.551-1.016-2.551,1.016.182-2.733L19,13.105l2.667-.677Z" transform="translate(-3.313 -1.756)" fill="#42a5f5"/>
    <path id="Path_70" data-name="Path 70" d="M4.394,13.251,1.24,8.7l4.9-.7Z" transform="translate(-0.216 -1.389)" fill="#42a5f5"/>
    <path id="Path_71" data-name="Path 71" d="M11.744,11.277,7.69,7.5,12.33,5.77Z" transform="translate(-1.341 -1.001)" fill="#42a5f5"/>
    <path id="Path_72" data-name="Path 72" d="M18.434,7.4,13.53,4.82l4.021-2.89Z" transform="translate(-2.359 -0.331)" fill="#42a5f5"/>
    <path id="Path_73" data-name="Path 73" d="M42.57,13.251,45.724,8.7,40.82,8Z" transform="translate(-7.119 -1.389)" fill="#42a5f5"/>
    <path id="Path_74" data-name="Path 74" d="M35.276,11.277,39.33,7.5,34.69,5.77Z" transform="translate(-6.05 -1.001)" fill="#42a5f5"/>
    <path id="Path_75" data-name="Path 75" d="M28.53,7.4l4.9-2.576L29.413,1.93Z" transform="translate(-4.975 -0.331)" fill="#42a5f5"/>
    <path id="Path_76" data-name="Path 76" d="M.826,8.262a.826.826,0,1,1,0-1.651A18.518,18.518,0,0,0,15.067.286a.826.826,0,0,1,1.238,1.09A20.186,20.186,0,0,1,.826,8.262Z" transform="translate(0 0)" fill="#424242"/>
    <path id="Path_77" data-name="Path 77" d="M43.692,8.262a20.17,20.17,0,0,1-15.48-6.886A.826.826,0,0,1,29.45.286,18.535,18.535,0,0,0,43.692,6.611a.826.826,0,0,1,0,1.651Z" transform="translate(-4.888 0)" fill="#424242"/>
  </g>
</svg>
