<svg id="News-cuate_1_" data-name="News-cuate (1)" xmlns="http://www.w3.org/2000/svg" width="499.224" height="516.225" viewBox="0 0 499.224 516.225">
  <g id="freepik--background-complete--inject-43" transform="translate(13.065 0)">
    <g id="freepik--aiZGp2--inject-43" transform="translate(0 10.33)">
      <path id="Path_2303" data-name="Path 2303" d="M374.024,67.47a58.019,58.019,0,0,1,3.947,18h15.921v-.444a9.66,9.66,0,0,0-.132-1.2,42.558,42.558,0,0,0-1.056-6.275,48.277,48.277,0,0,0-3.539-9.826.348.348,0,0,0-.384-.24H374Z" transform="translate(-305.699 -43.871)" fill="#ebebeb"/>
      <path id="Path_2304" data-name="Path 2304" d="M374.05,103.922h14.661a.324.324,0,0,0,.348-.228,45.172,45.172,0,0,0,3.6-11.086,46.148,46.148,0,0,0,.72-5.6.911.911,0,0,1,0-.192V86.37H377.841c-.288,0-.276,0-.3.288-.1,1.284-.18,2.567-.3,3.839a48.661,48.661,0,0,1-.984,6,52.791,52.791,0,0,1-2.087,7.2A.463.463,0,0,0,374.05,103.922Z" transform="translate(-305.245 -40.096)" fill="#ebebeb"/>
      <path id="Path_2305" data-name="Path 2305" d="M414.84,104.86l.12.216a43.187,43.187,0,0,0,4.151,5.387,40.967,40.967,0,0,0,6.095,5.615,43.262,43.262,0,0,0,14.253,7.2,44.256,44.256,0,0,0,6.107,1.308l.6.1h.348l.336-.216-.384-.276a47.03,47.03,0,0,1-11.553-11.206,53.493,53.493,0,0,1-4.727-7.834.336.336,0,0,0-.36-.228H414.84Z" transform="translate(-407.654 -36.403)" fill="#ebebeb"/>
      <path id="Path_2306" data-name="Path 2306" d="M412.15,85.456h20.576v-18H416.661a.3.3,0,0,0-.324.216,49.968,49.968,0,0,0-3.275,10.546,53.348,53.348,0,0,0-.792,5.7C412.234,84.425,412.186,84.9,412.15,85.456Z" transform="translate(-390.303 -43.873)" fill="#ebebeb"/>
      <path id="Path_2307" data-name="Path 2307" d="M412,86.47a7.647,7.647,0,0,0,.06,1.2c.1,1.008.156,2,.3,3.011.192,1.368.408,2.747.684,4.115a48.763,48.763,0,0,0,2.663,8.782.336.336,0,0,0,.372.264h16.556V86.47Z" transform="translate(-390.033 -40.076)" fill="#ebebeb"/>
      <path id="Path_2308" data-name="Path 2308" d="M391.542,67.56v18h20.1a7.224,7.224,0,0,0-.084-1.356c-.108-1.008-.18-2.016-.348-3.011-.24-1.536-.5-3.059-.828-4.571a47.312,47.312,0,0,0-2.9-8.842.324.324,0,0,0-.348-.216h-15.6Z" transform="translate(-344.476 -43.854)" fill="#ebebeb"/>
      <path id="Path_2309" data-name="Path 2309" d="M391.53,86.7v17.2h16.065a.336.336,0,0,0,.36-.24,46.441,46.441,0,0,0,2.735-9.07c.3-1.608.528-3.215.732-4.8.132-1.056.156-2.124.228-3.191v-.108H391.794C391.578,86.445,391.53,86.5,391.53,86.7Z" transform="translate(-344.488 -40.075)" fill="#ebebeb"/>
      <path id="Path_2310" data-name="Path 2310" d="M430.16,85.587h16.868a58.547,58.547,0,0,1,3.935-18.116H435.247a.336.336,0,0,0-.372.228A43.684,43.684,0,0,0,430.988,78.9a48.949,48.949,0,0,0-.828,6.335Z" transform="translate(-430.148 -43.872)" fill="#ebebeb"/>
      <path id="Path_2311" data-name="Path 2311" d="M430.55,86.354a7.967,7.967,0,0,0,.06,1.2,43.19,43.19,0,0,0,3.6,14.661l.72,1.56a.24.24,0,0,0,.252.168H450.9c-.192-.54-.384-1.056-.564-1.584a55.642,55.642,0,0,1-2.807-14.4c0-.48-.06-.96-.084-1.452,0-.12,0-.192-.168-.18a.672.672,0,0,1-.156,0Z" transform="translate(-430.55 -40.104)" fill="#ebebeb"/>
      <path id="Path_2312" data-name="Path 2312" d="M414.85,66.8v.072h15a.348.348,0,0,0,.36-.2,51.168,51.168,0,0,1,7.318-10.858,41.893,41.893,0,0,1,5.627-5.183c1.008-.768,2.052-1.5,3.071-2.244l.168-.12-.2-.144a.435.435,0,0,1,.108-.324,44.174,44.174,0,0,0-31.445,19Z" transform="translate(-407.208 -47.8)" fill="#ebebeb"/>
      <path id="Path_2313" data-name="Path 2313" d="M380.03,124.436a1.691,1.691,0,0,0,.432.072,38.7,38.7,0,0,0,4.8-.936,43.348,43.348,0,0,0,8.554-3.167,43.9,43.9,0,0,0,8.734-5.735,40.8,40.8,0,0,0,5.243-5.243,43.531,43.531,0,0,0,3.275-4.535v-.132H397.09a.348.348,0,0,0-.348.228,50.388,50.388,0,0,1-10.834,14.769,47.3,47.3,0,0,1-5.7,4.571Z" transform="translate(-330.109 -36.423)" fill="#ebebeb"/>
      <path id="Path_2314" data-name="Path 2314" d="M380.35,48.23c.636.456,1.368.984,2.088,1.524a52.45,52.45,0,0,1,6.647,6.2,46.4,46.4,0,0,1,6.994,9.958c.12.228.216.468.348.684a.276.276,0,0,0,.216.132h14.181a43.863,43.863,0,0,0-30.317-18.86l.1.18Z" transform="translate(-330.249 -47.786)" fill="#ebebeb"/>
      <path id="Path_2315" data-name="Path 2315" d="M412.05,104.87a47.5,47.5,0,0,0,6.79,9.2,43.469,43.469,0,0,0,7.762,6.587V104.87Z" transform="translate(-384.06 -36.401)" fill="#ebebeb"/>
      <path id="Path_2316" data-name="Path 2316" d="M396.63,104.88v15.477a44.8,44.8,0,0,0,13.977-15.477Z" transform="translate(-349.564 -36.399)" fill="#ebebeb"/>
      <path id="Path_2317" data-name="Path 2317" d="M412.15,66.035h13.977V51.29a42.578,42.578,0,0,0-7.846,6.575,49.947,49.947,0,0,0-6.131,8.17Z" transform="translate(-383.704 -47.103)" fill="#ebebeb"/>
      <path id="Path_2318" data-name="Path 2318" d="M397.09,51.67v14.4h13.425a42.567,42.567,0,0,0-13.425-14.4Z" transform="translate(-350.024 -47.027)" fill="#ebebeb"/>
    </g>
    <path id="Path_2319" data-name="Path 2319" d="M331.7,119.734l1.5-1.428-.528-.576-1.512,1.44Z" transform="translate(-193.61 -23.502)" fill="#a6a6a6"/>
    <path id="Path_2320" data-name="Path 2320" d="M175.962,212.822v-.78c-1.4,0-2.8-.12-4.139-.252l-.084.78C173.131,212.7,174.546,212.786,175.962,212.822Zm5.255-.084c1.38-.084,2.783-.2,4.187-.372l-.084-.768c-1.392.156-2.783.288-4.139.36Zm-14.649-.972.156-.768c-1.368-.276-2.723-.636-4.007-1.032l-.24.744C163.8,211.118,165.165,211.478,166.568,211.766Zm23.995-.18c1.344-.252,2.723-.54,4.1-.864l-.18-.768c-1.368.324-2.735.612-4.067.864Zm9.178-2.208c1.32-.4,2.663-.816,4-1.272l-.24-.744c-1.332.456-2.663.876-3.971,1.26Zm-42.207-.576.336-.708a33.735,33.735,0,0,1-3.6-1.98l-.42.66a35.333,35.333,0,0,0,3.755,2.028Zm51.133-2.5c1.284-.5,2.591-1.032,3.875-1.6L212.23,204c-1.284.552-2.579,1.08-3.851,1.584Zm-59.051-2.735.528-.576a26.6,26.6,0,0,1-2.831-2.987l-.612.492a29.346,29.346,0,0,0,2.951,3.071Zm67.7-1.032c1.2-.588,2.483-1.2,3.755-1.872l-.36-.684c-1.26.648-2.5,1.2-3.731,1.86Zm8.4-4.355c1.2-.684,2.4-1.392,3.6-2.1l-.4-.672c-1.2.708-2.4,1.4-3.6,2.1Zm-81.894-2.076.684-.372a26.288,26.288,0,0,1-1.668-3.755l-.744.252a27.394,27.394,0,0,0,1.716,3.875Zm89.98-2.8c1.2-.768,2.34-1.536,3.479-2.327l-.444-.636q-1.7,1.2-3.455,2.3Zm7.75-5.363c1.116-.828,2.232-1.668,3.335-2.519l-.48-.612c-1.092.84-2.208,1.68-3.323,2.507Zm-100.778-.828.768-.132a32.314,32.314,0,0,1-.432-4.1h-.78a34.07,34.07,0,0,0,.42,4.235Zm108.181-4.955c1.08-.888,2.16-1.788,3.215-2.7l-.516-.6c-1.056.912-2.112,1.812-3.191,2.687Zm-107.7-4.439c.132-1.344.324-2.723.588-4.1l-.756-.144c-.276,1.4-.48,2.807-.612,4.175Zm114.839-1.716c1.032-.936,2.052-1.884,3.071-2.831l-.528-.564c-1.02.948-2.04,1.884-3.071,2.807Zm6.85-6.419c1.008-.972,2-1.944,2.987-2.927l-.54-.564-2.987,2.927Zm-119.842-1c.4-1.284.852-2.6,1.368-3.911l-.732-.288c-.516,1.332-.984,2.675-1.38,3.971Zm126.525-5.639,2.915-3-.564-.54q-1.464,1.512-2.915,2.987Zm-123.093-3.035c.588-1.2,1.2-2.471,1.908-3.7l-.684-.384c-.684,1.2-1.332,2.5-1.932,3.731ZM276.1,156.206,279,153.183l-.564-.54-2.891,3.023Zm-125.061-4.439c.732-1.2,1.512-2.315,2.315-3.467l-.636-.444c-.816,1.2-1.608,2.4-2.34,3.491Zm131.551-2.4,2.879-3.023-.564-.54-2.879,3.035ZM156.5,144.173c.828-1.08,1.716-2.16,2.615-3.239l-.6-.5c-.912,1.08-1.8,2.184-2.639,3.263Zm132.619-1.524,2.9-3-.552-.552-2.915,3.011ZM162.549,137.01c.924-1.008,1.872-2.016,2.855-3.023l-.6-.612q-1.5,1.524-2.879,3.059Zm133.171-1.092,2.939-2.951-.54-.552-2.963,2.951Zm6.671-6.611c.984-.96,1.992-1.92,3.011-2.891l-.54-.564c-1.02.96-2.028,1.932-3.023,2.891Zm6.815-6.455c1.02-.936,2.04-1.872,3.083-2.807l-.516-.588-3.1,2.819Zm6.959-6.275c1.044-.912,2.1-1.812,3.167-2.711l-.5-.6c-1.08.912-2.136,1.812-3.179,2.723Zm7.2-6,3.263-2.615-.492-.612c-1.1.876-2.184,1.752-3.263,2.627Zm7.378-5.807c1.092-.84,2.207-1.668,3.335-2.507l-.456-.624c-1.14.84-2.256,1.668-3.347,2.507Zm7.57-5.555c1.116-.792,2.256-1.6,3.419-2.4l-.444-.648c-1.2.8-2.3,1.6-3.431,2.4Zm7.75-5.291c1.14-.768,2.315-1.524,3.491-2.28l-.42-.648c-1.2.756-2.4,1.512-3.5,2.268Zm7.918-5.039c1.2-.72,2.4-1.44,3.6-2.148l-.4-.672q-1.8,1.062-3.6,2.16Zm8.086-4.8,3.6-2.028-.372-.7-3.659,2.052Zm8.23-4.511c1.2-.648,2.4-1.284,3.7-1.932l-.348-.7-3.719,1.932Zm8.4-4.271c1.2-.6,2.483-1.2,3.755-1.812l-.336-.708c-1.272.6-2.531,1.2-3.767,1.824Zm8.422-4.079,3.8-1.728-.324-.708c-1.284.576-2.555,1.2-3.8,1.716Zm8.59-3.839,3.851-1.62-.3-.72-3.863,1.62Z" transform="translate(-31.022 -34.025)" fill="#a6a6a6"/>
    <path id="Path_2321" data-name="Path 2321" d="M134.768,64.25l1.944-.768-.288-.732-1.944.768Z" transform="translate(238.843 -34.484)" fill="#a6a6a6"/>
    <path id="Path_2322" data-name="Path 2322" d="M92.686,53.617,85.8,72.525l14.457-11.29L155.5,41.2Z" transform="translate(278.453 -38.789)" fill="#dbdbdb"/>
    <path id="Path_2323" data-name="Path 2323" d="M146.614,62.3l-16.3,6.887L144.767,57.9Z" transform="translate(233.943 -35.453)" fill="#c7c7c7"/>
    <path id="Path_2324" data-name="Path 2324" d="M85.8,61.236,141.048,41.2,95.734,85.422Z" transform="translate(292.91 -38.789)" fill="#ebebeb"/>
    <path id="Path_2325" data-name="Path 2325" d="M108.763,54.019,85.8,39.19,171.581,41.6Z" transform="translate(262.376 -39.19)" fill="#ebebeb"/>
    <path id="Path_2326" data-name="Path 2326" d="M294.548,393.3l.252-.1,1.344-.528-.276-.72-1.356.54-2.4.936.276.72Zm6.323-2.555c1.284-.528,2.531-1.056,3.767-1.6l-.312-.7-3.743,1.6Zm-13.305,5.195-.264-.72-3.839,1.368.252.72Zm-8.674,3.035-.24-.72-3.875,1.284.24.732Zm30.4-11.9c1.26-.576,2.5-1.2,3.7-1.74l-.324-.684c-1.2.576-2.4,1.2-3.683,1.728ZM270.158,401.83l-.228-.732-3.887,1.2.216.732Zm47.414-18.776c1.2-.624,2.4-1.26,3.6-1.9l-.372-.684q-1.752.96-3.6,1.908Zm-56.2,21.463-.216-.744-3.911,1.2.216.732Zm64.258-25.866c1.2-.7,2.4-1.4,3.5-2.112l-.408-.648c-1.128.708-2.292,1.4-3.479,2.1ZM252.558,407l-.216-.732-3.923,1.08.2.744Zm-8.866,2.4-.192-.732-1.032.264-2.915.744.18.744,2.927-.744Zm89.729-35.692c1.14-.78,2.268-1.572,3.347-2.4l-.444-.612c-1.08.78-2.2,1.572-3.323,2.34ZM234.753,411.56l-.168-.744c-1.32.288-2.651.552-4,.816l.144.744c1.308-.24,2.627-.516,3.983-.8Zm-9.046,1.716-.132-.756c-1.332.228-2.675.444-4.019.636l.108.756c1.32-.216,2.663-.4,4.007-.624Zm115.115-45.038c1.092-.888,2.148-1.776,3.131-2.651l-.516-.564c-.972.864-2.016,1.74-3.1,2.615Zm-124.257,46.37-.084-.756c-1.356.168-2.7.312-4.043.456l.072.768C213.866,414.895,215.222,414.775,216.565,414.607Zm131.072-52.5c.972-.984,1.92-1.98,2.807-2.987l-.576-.5c-.876.984-1.812,1.98-2.771,2.963Zm-140.2,53.472v-.768c-1.356.12-2.7.228-4.055.312v.768c1.344-.12,2.7-.216,4.055-.336Zm-9.154.612v-.768l-4.067.18v.756Zm155.4-61.055c.828-1.1,1.62-2.231,2.4-3.359l-.636-.42c-.72,1.116-1.5,2.232-2.328,3.311Zm-164.6,61.331v-.756h-4.067v.768Zm169.559-69.117c.636-1.2,1.2-2.46,1.764-3.707l-.708-.3c-.528,1.2-1.116,2.46-1.74,3.6ZM179.877,416.49v-.768c-1.368,0-2.723,0-4.079-.072v.768c1.356.024,2.723.06,4.091.072Zm-9.19-.24v-.768l-4.079-.192v.768Zm191.5-77.419a23.665,23.665,0,0,0,.876-4.055l-.768-.084a22.219,22.219,0,0,1-.84,3.911ZM161.521,415.759v-.768l-4.067-.288v.756Zm-9.166-.732.072-.756-4.067-.4-.072.756q1.992.264,4.067.4Zm210.578-85.446a14.315,14.315,0,0,0-.78-2.687,12.732,12.732,0,0,0-.552-1.2l-.684.336c.192.384.372.792.528,1.2a14.626,14.626,0,0,1,.744,2.567Zm-219.684,84.5.1-.756-4.055-.492-.1.756Zm-9.118-1.2.108-.756c-1.392-.192-2.735-.384-4.043-.588l-.108.756c1.3.2,2.6.432,4,.624Zm223.9-90.964.564-.516a23.99,23.99,0,0,0-3.071-2.783l-.456.612A23.088,23.088,0,0,1,358.027,321.915ZM124.989,411.548l.12-.756-4.019-.684-.132.756Zm-9.07-1.6.144-.756c-1.44-.276-2.783-.528-4.007-.78l-.156.756Zm234.909-93.436.36-.66a40.971,40.971,0,0,0-3.707-1.8l-.3.708A36.876,36.876,0,0,1,350.828,316.516ZM106.9,408.128l.168-.756c-2.591-.564-3.983-.912-4-.924l-.18.744s1.4.348,4.007.924Zm235.545-95.211.24-.72c-1.2-.42-2.567-.816-3.923-1.2l-.2.744C339.9,312.149,341.206,312.545,342.442,312.917Zm-8.83-2.4.156-.744c-1.308-.276-2.663-.528-4.031-.756l-.12.756c1.356.3,2.7.552,4,.828Zm-9.034-1.476.1-.756c-1.356-.168-2.723-.312-4.079-.432l-.06.768c1.344.192,2.7.336,4.007.5Zm-9.118-.756v-.768c-1.38-.06-2.759-.1-4.1-.108v.768c1.356.1,2.723.132,4.1.192Z" transform="translate(50.389 14.385)" fill="#a6a6a6"/>
    <path id="Path_2327" data-name="Path 2327" d="M378.5,378.3l11.973,14.349-16.185-5.3-54.612-.108Z" transform="translate(-237.114 28.544)" fill="#dbdbdb"/>
    <path id="Path_2328" data-name="Path 2328" d="M319.68,390.267l16.412.876-16.185-5.3Z" transform="translate(-182.73 30.05)" fill="#c7c7c7"/>
    <path id="Path_2329" data-name="Path 2329" d="M387.782,385.858l-54.612-.108,53.556,24.379Z" transform="translate(-250.604 30.032)" fill="#ebebeb"/>
    <path id="Path_2330" data-name="Path 2330" d="M375.643,381.664l15.4-20.2L316.82,390.6Z" transform="translate(-234.254 25.181)" fill="#ebebeb"/>
  </g>
  <g id="freepik--Floor--inject-43" transform="translate(0.828 443.736)">
    <path id="Path_2331" data-name="Path 2331" d="M540.686,409.65l-62.291-.288-62.3-.108-124.605-.2-124.6.2-62.3.1-62.29.3,62.29.288,62.3.108,124.6.2,124.605-.2,62.3-.108Z" transform="translate(-42.29 -409.05)" fill="#263238"/>
  </g>
  <g id="freepik--Newspaper--inject-43" transform="translate(46.226 55.596)">
    <rect id="Rectangle_496" data-name="Rectangle 496" width="407.6" height="315.592" transform="translate(0 10.09)" fill="#c7c7c7"/>
    <path id="Path_2332" data-name="Path 2332" d="M80.13,411.212h407.6V85.53h-318.9l-88.7,79.207Z" transform="translate(-80.13 -85.53)" fill="#ebebeb"/>
    <path id="Path_2337" data-name="Path 2337" d="M95.32,111.122H428.428V102.34H105.158Z" transform="translate(-39.052 -82.172)" fill="#c7c7c7"/>
    <path id="Path_2338" data-name="Path 2338" d="M95.32,100.712H416V98.96H97.264Z" transform="translate(-26.623 -82.847)" fill="#c7c7c7"/>
    <path id="Path_2339" data-name="Path 2339" d="M95.32,114.13H434.043v-1.74H97.276Z" transform="translate(-44.667 -80.165)" fill="#c7c7c7"/>
    <rect id="Rectangle_497" data-name="Rectangle 497" width="371.164" height="8.77" transform="translate(18.212 99.782)" fill="#c7c7c7"/>
    <rect id="Rectangle_498" data-name="Rectangle 498" width="371.164" height="1.74" transform="translate(18.212 95.739)" fill="#c7c7c7"/>
    <rect id="Rectangle_499" data-name="Rectangle 499" width="371.164" height="1.728" transform="translate(18.212 111.852)" fill="#c7c7c7"/>
    <rect id="Rectangle_500" data-name="Rectangle 500" width="65.338" height="46.19" transform="translate(324.05 42.759)" fill="#c7c7c7"/>
    <path id="Path_2340" data-name="Path 2340" d="M350.23,141.336v26.01h65.326V121.18H372.8Z" transform="translate(-332.006 -78.409)" fill="#c7c7c7"/>
    <rect id="Rectangle_501" data-name="Rectangle 501" width="153.639" height="118.055" transform="translate(126.98 143.825)" fill="#15ace5"/>
    <path id="Path_2341" data-name="Path 2341" d="M226.638,230.32a13.689,13.689,0,1,1-10.8-10.8,13.689,13.689,0,0,1,10.8,10.8Z" transform="translate(37.473 -58.817)" opacity="0.2"/>
    <path id="Path_2342" data-name="Path 2342" d="M332.516,293.4H221.48L277,231.15Z" transform="translate(-94.5 -56.444)" opacity="0.2"/>
    <path id="Path_2343" data-name="Path 2343" d="M277.642,289.841H185.97l45.842-40.551Z" transform="translate(2.977 -52.82)" fill="#15ace5"/>
    <path id="Path_2344" data-name="Path 2344" d="M277.642,289.841H185.97l45.842-40.551Z" transform="translate(2.977 -52.82)" opacity="0.3"/>
    <rect id="Rectangle_502" data-name="Rectangle 502" width="153.639" height="24.919" transform="translate(126.98 236.961)" fill="#15ace5"/>
    <rect id="Rectangle_503" data-name="Rectangle 503" width="153.639" height="24.919" transform="translate(126.98 236.961)" opacity="0.3"/>
    <rect id="Rectangle_504" data-name="Rectangle 504" width="122.997" height="4.115" transform="translate(157.622 124.293)" fill="#a6a6a6"/>
    <rect id="Rectangle_505" data-name="Rectangle 505" width="87.989" height="4.115" transform="translate(192.63 133.219)" fill="#a6a6a6"/>
    <rect id="Rectangle_506" data-name="Rectangle 506" width="91.156" height="4.115" transform="translate(298.219 124.365)" fill="#a6a6a6"/>
    <rect id="Rectangle_507" data-name="Rectangle 507" width="91.156" height="4.115" transform="translate(298.291 143.813)" fill="#dbdbdb"/>
    <rect id="Rectangle_508" data-name="Rectangle 508" width="91.156" height="4.115" transform="translate(298.291 151.491)" fill="#dbdbdb"/>
    <rect id="Rectangle_509" data-name="Rectangle 509" width="91.156" height="4.115" transform="translate(298.291 159.17)" fill="#dbdbdb"/>
    <rect id="Rectangle_510" data-name="Rectangle 510" width="91.156" height="4.115" transform="translate(298.291 166.848)" fill="#dbdbdb"/>
    <rect id="Rectangle_511" data-name="Rectangle 511" width="91.156" height="4.115" transform="translate(298.291 174.526)" fill="#dbdbdb"/>
    <rect id="Rectangle_512" data-name="Rectangle 512" width="91.156" height="4.115" transform="translate(298.291 182.193)" fill="#dbdbdb"/>
    <rect id="Rectangle_513" data-name="Rectangle 513" width="91.156" height="4.115" transform="translate(298.291 189.871)" fill="#dbdbdb"/>
    <rect id="Rectangle_514" data-name="Rectangle 514" width="91.156" height="4.115" transform="translate(298.291 197.549)" fill="#dbdbdb"/>
    <rect id="Rectangle_515" data-name="Rectangle 515" width="53.388" height="4.115" transform="translate(336.059 205.228)" fill="#dbdbdb"/>
    <rect id="Rectangle_516" data-name="Rectangle 516" width="91.156" height="4.115" transform="translate(298.291 220.584)" fill="#dbdbdb"/>
    <rect id="Rectangle_517" data-name="Rectangle 517" width="91.156" height="4.115" transform="translate(298.291 228.263)" fill="#dbdbdb"/>
    <rect id="Rectangle_518" data-name="Rectangle 518" width="91.156" height="4.115" transform="translate(298.291 235.929)" fill="#dbdbdb"/>
    <rect id="Rectangle_519" data-name="Rectangle 519" width="91.156" height="4.115" transform="translate(298.291 243.607)" fill="#dbdbdb"/>
    <rect id="Rectangle_520" data-name="Rectangle 520" width="53.388" height="4.115" transform="translate(336.059 251.286)" fill="#dbdbdb"/>
    <rect id="Rectangle_521" data-name="Rectangle 521" width="65.218" height="4.115" transform="translate(324.158 133.291)" fill="#a6a6a6"/>
    <rect id="Rectangle_522" data-name="Rectangle 522" width="91.156" height="4.115" transform="translate(18.224 124.365)" fill="#a6a6a6"/>
    <rect id="Rectangle_523" data-name="Rectangle 523" width="91.156" height="4.115" transform="translate(18.296 143.813)" fill="#dbdbdb"/>
    <rect id="Rectangle_524" data-name="Rectangle 524" width="91.156" height="4.115" transform="translate(18.296 151.491)" fill="#dbdbdb"/>
    <rect id="Rectangle_525" data-name="Rectangle 525" width="91.156" height="4.115" transform="translate(18.296 159.17)" fill="#dbdbdb"/>
    <rect id="Rectangle_526" data-name="Rectangle 526" width="53.748" height="4.115" transform="translate(55.704 166.848)" fill="#dbdbdb"/>
    <rect id="Rectangle_527" data-name="Rectangle 527" width="91.156" height="4.115" transform="translate(18.296 182.193)" fill="#dbdbdb"/>
    <rect id="Rectangle_528" data-name="Rectangle 528" width="91.156" height="4.115" transform="translate(18.296 189.871)" fill="#dbdbdb"/>
    <rect id="Rectangle_529" data-name="Rectangle 529" width="91.156" height="4.115" transform="translate(18.296 197.549)" fill="#dbdbdb"/>
    <rect id="Rectangle_530" data-name="Rectangle 530" width="91.156" height="4.115" transform="translate(18.296 205.228)" fill="#dbdbdb"/>
    <rect id="Rectangle_531" data-name="Rectangle 531" width="53.748" height="4.115" transform="translate(55.704 212.906)" fill="#dbdbdb"/>
    <rect id="Rectangle_532" data-name="Rectangle 532" width="91.156" height="4.115" transform="translate(18.296 228.263)" fill="#dbdbdb"/>
    <rect id="Rectangle_533" data-name="Rectangle 533" width="91.156" height="4.115" transform="translate(18.296 235.929)" fill="#dbdbdb"/>
    <rect id="Rectangle_534" data-name="Rectangle 534" width="91.156" height="4.115" transform="translate(18.296 243.607)" fill="#dbdbdb"/>
    <rect id="Rectangle_535" data-name="Rectangle 535" width="91.156" height="4.115" transform="translate(18.296 251.286)" fill="#dbdbdb"/>
    <rect id="Rectangle_536" data-name="Rectangle 536" width="53.748" height="4.115" transform="translate(55.704 258.964)" fill="#dbdbdb"/>
    <rect id="Rectangle_537" data-name="Rectangle 537" width="65.218" height="4.115" transform="translate(44.162 133.291)" fill="#a6a6a6"/>
    <rect id="Rectangle_538" data-name="Rectangle 538" width="91.156" height="4.115" transform="translate(298.219 274.849)" fill="#a6a6a6"/>
    <rect id="Rectangle_539" data-name="Rectangle 539" width="91.156" height="4.115" transform="translate(298.291 294.309)" fill="#dbdbdb"/>
    <rect id="Rectangle_540" data-name="Rectangle 540" width="91.156" height="4.115" transform="translate(298.291 301.987)" fill="#dbdbdb"/>
    <rect id="Rectangle_541" data-name="Rectangle 541" width="91.156" height="4.115" transform="translate(298.291 309.653)" fill="#dbdbdb"/>
    <rect id="Rectangle_542" data-name="Rectangle 542" width="91.156" height="4.115" transform="translate(298.291 317.332)" fill="#dbdbdb"/>
    <rect id="Rectangle_543" data-name="Rectangle 543" width="65.218" height="4.115" transform="translate(324.158 283.787)" fill="#a6a6a6"/>
    <rect id="Rectangle_544" data-name="Rectangle 544" width="153.303" height="4.115" transform="translate(126.98 274.849)" fill="#a6a6a6"/>
    <rect id="Rectangle_545" data-name="Rectangle 545" width="153.303" height="4.115" transform="translate(127.1 294.309)" fill="#dbdbdb"/>
    <rect id="Rectangle_546" data-name="Rectangle 546" width="153.303" height="4.115" transform="translate(127.1 301.987)" fill="#dbdbdb"/>
    <rect id="Rectangle_547" data-name="Rectangle 547" width="153.303" height="4.115" transform="translate(127.1 309.653)" fill="#dbdbdb"/>
    <rect id="Rectangle_548" data-name="Rectangle 548" width="153.303" height="4.115" transform="translate(127.1 317.332)" fill="#dbdbdb"/>
    <rect id="Rectangle_549" data-name="Rectangle 549" width="109.668" height="4.115" transform="translate(170.615 283.787)" fill="#a6a6a6"/>
    <rect id="Rectangle_550" data-name="Rectangle 550" width="91.156" height="4.115" transform="translate(18.224 274.849)" fill="#a6a6a6"/>
    <rect id="Rectangle_551" data-name="Rectangle 551" width="91.156" height="4.115" transform="translate(18.296 294.309)" fill="#dbdbdb"/>
    <rect id="Rectangle_552" data-name="Rectangle 552" width="91.156" height="4.115" transform="translate(18.296 301.987)" fill="#dbdbdb"/>
    <rect id="Rectangle_553" data-name="Rectangle 553" width="91.156" height="4.115" transform="translate(18.296 309.653)" fill="#dbdbdb"/>
    <rect id="Rectangle_554" data-name="Rectangle 554" width="53.748" height="4.115" transform="translate(55.704 317.332)" fill="#dbdbdb"/>
    <rect id="Rectangle_555" data-name="Rectangle 555" width="65.218" height="4.115" transform="translate(44.162 283.787)" fill="#a6a6a6"/>
    <path id="Path_2345" data-name="Path 2345" d="M434.637,85.53l-2.267,79.639-86.429-.432Z" transform="translate(-345.94 -85.53)" fill="#dbdbdb"/>
    <g id="Group_235" data-name="Group 235" transform="translate(79.291 42.47)">
      <path id="Path_2333" data-name="Path 2333" d="M178.582,134.835v32.513H171.3V121.17h5.723l26.394,33.3V121.23h7.354v46.118h-6Z" transform="translate(-171.3 -120.88)" fill="#15ace5"/>
      <path id="Path_2334" data-name="Path 2334" d="M244.563,160.918v6.431H212.89V121.17h31.085v6.443H220.22v13.2h20.624v6H220.22v14.109Z" transform="translate(-162.993 -120.88)" fill="#15ace5"/>
      <path id="Path_2335" data-name="Path 2335" d="M262.793,121.362H269.7l5.663,15.681,5.723-15.681h6.827l-7.87,20.564,6.9,16.976,14.4-37.732H309.3l-19.064,46.178h-6.239l-8.59-20.684-8.65,20.684h-6.239L241.45,121.17h7.93l14.4,37.732,6.9-16.976Z" transform="translate(-157.288 -120.88)" fill="#15ace5"/>
      <path id="Path_2336" data-name="Path 2336" d="M329.531,132.076a10.6,10.6,0,0,0-1.9-1.524,18,18,0,0,0-2.891-1.524,20.313,20.313,0,0,0-3.6-1.2,18.272,18.272,0,0,0-4.055-.456q-4.631,0-6.8,1.692a5.6,5.6,0,0,0-2.184,4.679,5.1,5.1,0,0,0,.684,2.771A6,6,0,0,0,310.9,138.4a16.519,16.519,0,0,0,3.6,1.428q2.148.636,5,1.332a56.855,56.855,0,0,1,6.347,1.9,18.068,18.068,0,0,1,4.8,2.531,10.15,10.15,0,0,1,3.023,3.671,11.9,11.9,0,0,1,1.08,5.3,12.873,12.873,0,0,1-1.332,6.059,11.421,11.421,0,0,1-3.6,4.127,15.764,15.764,0,0,1-5.363,2.339,27.39,27.39,0,0,1-6.575.744,32.921,32.921,0,0,1-10.174-1.584,29.19,29.19,0,0,1-8.878-4.655l3.311-6.251a15.86,15.86,0,0,0,2.4,1.9,24.233,24.233,0,0,0,3.707,1.92,33.3,33.3,0,0,0,4.6,1.488,20.682,20.682,0,0,0,5.135.624,12.321,12.321,0,0,0,6.635-1.5,4.919,4.919,0,0,0,2.339-4.427,4.8,4.8,0,0,0-.876-2.927,7.379,7.379,0,0,0-2.507-2.04,21.665,21.665,0,0,0-3.959-1.6c-1.572-.48-3.347-.984-5.339-1.5a53.736,53.736,0,0,1-6-1.92,15.321,15.321,0,0,1-4.259-2.4,9.705,9.705,0,0,1-2.567-3.347,11.122,11.122,0,0,1-.876-4.655,13.509,13.509,0,0,1,1.3-6,12.909,12.909,0,0,1,3.6-4.415,15.273,15.273,0,0,1,5.3-2.7,22.975,22.975,0,0,1,6.635-.912,24.391,24.391,0,0,1,8.65,1.488,29,29,0,0,1,6.959,3.719Z" transform="translate(-145.827 -120.929)" fill="#15ace5"/>
    </g>
  </g>
  <g id="freepik--Plant--inject-43" transform="translate(0 278.112)">
    <path id="Path_2346" data-name="Path 2346" d="M366.41,358.015s19.088-4.331,29.6-13.965,16.3-26.91,16.3-26.91a163.876,163.876,0,0,0-21.4,5.615,36.641,36.641,0,0,0-6.479,9.166,45.282,45.282,0,0,1,0-6.551,29.047,29.047,0,0,0-6.791,4.127C368.869,337.092,366.41,358.015,366.41,358.015Z" transform="translate(-301.948 -261.784)" fill="#15ace5"/>
    <path id="Path_2347" data-name="Path 2347" d="M415.034,325.066c2.6-1.8,5.255-3.527,7.834-5.351a.148.148,0,1,0-.156-.252c-4.919,2.939-9.766,6.071-14.4,9.37-1.632,1.2-3.239,2.4-4.8,3.6l.336-.564c.564-.96,1.2-1.9,1.776-2.843a41.3,41.3,0,0,1,4.055-5.411c0-.06,0-.144-.1-.084-1.488,1.716-2.975,3.407-4.331,5.231-.648.864-1.2,1.752-1.812,2.675-.3.468-.588.948-.852,1.44-.1.156-.2.324-.288.492q-3.707,2.9-7.2,6.095-2.1,1.98-4.091,4.091c.732-2.3,1.38-4.643,2.232-6.911,0-.084-.1-.12-.12,0-.828,2.4-1.74,4.8-2.4,7.2q-2.2,2.4-4.175,4.919l.072-.312c.216-.9.444-1.8.684-2.687.456-1.728.972-3.443,1.548-5.135a29.849,29.849,0,0,1,5.039-9.718c0-.072,0-.156-.1-.1a37.337,37.337,0,0,0-7.318,15.261q-.3,1.2-.576,2.4c-.1.432-.216.876-.288,1.32-.576.78-1.14,1.572-1.68,2.4A82.418,82.418,0,0,0,375.9,368.1a182.782,182.782,0,0,0-6.107,19.076c0,.12.144.168.192,0,3.731-11.17,7.546-22.5,13.929-32.477,1.356-2.112,2.819-4.139,4.367-6.107a35.547,35.547,0,0,0,9.274-1.848,41.367,41.367,0,0,0,9.31-4.487c1.68-1.092,3.2-2.4,4.8-3.6a.072.072,0,1,0-.084-.108,37.54,37.54,0,0,1-8.746,5.291,47.305,47.305,0,0,1-9.6,3.239c-1.416.3-2.843.528-4.271.72a81.306,81.306,0,0,1,5.627-6.227c.648-.648,1.308-1.26,1.968-1.884a44.814,44.814,0,0,1,7.066-4.043c3.119-1.512,6.2-3.107,9.3-4.691,1.74-.888,3.479-1.788,5.243-2.651.072,0,0-.144-.072-.108-3.143,1.512-6.323,2.927-9.49,4.379-2.975,1.368-6,2.735-8.854,4.343l-.36.216q3.875-3.383,8-6.467C409.863,328.75,412.43,326.878,415.034,325.066Z" transform="translate(-316.631 -261.324)" fill="#263238"/>
    <path id="Path_2348" data-name="Path 2348" d="M386.486,332.341c-1.548.672-3.131,1.284-4.667,1.992a51.626,51.626,0,0,0-4.571,2.5c-.072,0,0,.132.06.1,1.524-.72,3.059-1.4,4.571-2.16s3.071-1.608,4.655-2.3C386.606,332.425,386.57,332.305,386.486,332.341Z" transform="translate(-289.175 -258.749)" fill="#263238"/>
    <path id="Path_2349" data-name="Path 2349" d="M415.017,271a27.306,27.306,0,0,1,5.711,15.861c0,1.7-.2,4.091-.408,6.9A45.374,45.374,0,0,1,432.774,304.4a22.6,22.6,0,0,0-12.537-2.975,38.385,38.385,0,0,0,.732,5.7,21.6,21.6,0,0,1,8.1,1.608,18.068,18.068,0,0,0-7.306,1.452c3.407,10.8,13.521,21.943,41.439,26.67a58.632,58.632,0,0,0-4.943-39.3C449.846,281.09,415.017,271,415.017,271Z" transform="translate(-412.558 -271)" fill="#15ace5"/>
    <path id="Path_2350" data-name="Path 2350" d="M457.643,381.931q-.72-6.934-1.812-13.833a275.26,275.26,0,0,0-5.627-27.33,111.017,111.017,0,0,0-4.031-12.465,17.372,17.372,0,0,0,.1-2.232c0-.888,0-1.788,0-2.687,0-1.788-.108-3.6-.264-5.351a64.642,64.642,0,0,0-1.716-10.474c-.5-1.992-1.1-3.947-1.68-5.915a.072.072,0,0,0-.132,0,77.374,77.374,0,0,1,2.064,10.45,96.153,96.153,0,0,1,.936,10.486c0,.96.06,1.92.06,2.879v1.2a92,92,0,0,0-4.7-9.742,118.777,118.777,0,0,0-9.6-14.3,5.7,5.7,0,0,0-.228-1.56c-.132-.624-.264-1.2-.408-1.872-.288-1.272-.6-2.543-.948-3.8-.7-2.531-1.62-4.979-2.4-7.474a.06.06,0,0,0-.12,0c.744,2.471,1.2,5.039,1.8,7.546l.828,3.743.4,1.872v.144q-1.692-2.148-3.455-4.211c-5.339-6.251-11.182-12-17.072-17.756-.72-.7-1.464-1.392-2.2-2.076l-.084.084c5.615,5.867,11.158,11.805,16.4,18q1.872,2.208,3.683,4.475l-1.908-1.26c-1.632-1.056-3.275-2.1-4.967-3.047s-3.407-1.872-5.147-2.735-3.7-1.608-5.423-2.615c-.084,0-.144.084-.072.108a39.927,39.927,0,0,1,5.1,2.831c1.7,1.008,3.4,2.016,5.063,3.083s3.3,2.064,4.919,3.119c1.368.888,2.7,1.848,4.115,2.663a133.686,133.686,0,0,1,8.938,13.017,97.184,97.184,0,0,1,4.631,8.77l-1.008-.432-2.555-1.128c-1.644-.732-3.287-1.44-4.943-2.16-3.131-1.368-6.311-2.615-9.382-4.115a40.951,40.951,0,0,1-5.015-2.783c-.072,0-.132.072-.06.12,5.723,3.947,12.141,6.73,18.488,9.526l2.747,1.2c.756.336,1.512.708,2.28,1a97.542,97.542,0,0,1,4.727,12.945,262.437,262.437,0,0,1,6.071,27.018c1.608,9.118,2.687,18.3,3.527,27.522.108,1.2.2,2.3.336,3.443a.372.372,0,0,0,.732,0A137.341,137.341,0,0,0,457.643,381.931Z" transform="translate(-397.38 -269.768)" fill="#263238"/>
    <path id="Path_2351" data-name="Path 2351" d="M423.641,301.614c-.516-2.843-1.272-5.615-2.04-8.4,0-.084-.144,0-.12,0,.708,2.735,1.2,5.507,1.728,8.278s.984,5.663,1.38,8.506h.072a73.346,73.346,0,0,0-1.02-8.386Z" transform="translate(-380.366 -266.57)" fill="#263238"/>
    <path id="Path_2352" data-name="Path 2352" d="M444.79,307.7a49.478,49.478,0,0,0-6.071-3.419c-1.02-.528-2.052-1.032-3.083-1.524s-2.172-.948-3.227-1.476c-.072,0-.132.072-.06.108,1.02.516,1.992,1.14,3,1.68s2.052,1.2,3.1,1.692a68.725,68.725,0,0,0,6.191,3.2.156.156,0,0,0,.156-.264Z" transform="translate(-413.548 -264.952)" fill="#263238"/>
    <path id="Path_2353" data-name="Path 2353" d="M374.19,331.7s17.66-4.223,25.77-16.065c7.75-11.314,10.246-30.605,10.45-32.3-.324,1.548-3.959,18.4-15.993,26.262C385.216,315.613,376.326,320.556,374.19,331.7Z" transform="translate(-309.38 -268.535)" fill="#263238" opacity="0.1"/>
    <path id="Path_2354" data-name="Path 2354" d="M397.217,298.212a22.663,22.663,0,0,0-6.515,10.726s0,.06.06,0a26.394,26.394,0,0,1,6.539-10.654C397.361,298.26,397.277,298.164,397.217,298.212Z" transform="translate(-316.103 -265.567)" fill="#263238"/>
    <path id="Path_2355" data-name="Path 2355" d="M374.525,331.722s17.66-4.223,25.77-16.065c7.75-11.314,10.246-30.605,10.45-32.3a.78.78,0,0,1,0-.12s-8.47,12-17.372,15.1S371.982,312.034,374.525,331.722Z" transform="translate(-309.715 -268.555)" fill="#15ace5"/>
    <path id="Path_2356" data-name="Path 2356" d="M417.3,288.775a72.42,72.42,0,0,1-5.459,9.334,37.012,37.012,0,0,1-7.27,7.474c-2.4,1.908-4.931,3.6-7.366,5.507v-.084c.456-.684.948-1.344,1.44-1.98,1.02-1.3,2.124-2.519,3.239-3.719,2.2-2.4,4.427-4.715,6.395-7.294a26.739,26.739,0,0,0,2.831-4.559c0-.084-.084-.12-.12,0-2.867,6-8.59,9.79-12.669,14.829-.576.72-1.128,1.464-1.632,2.232a9.154,9.154,0,0,0-1.02,1.8,37.11,37.11,0,0,0-6,6.095,23.526,23.526,0,0,1,.708-3.431,17.672,17.672,0,0,1,1.872-4.475.065.065,0,0,0-.108-.072,21.6,21.6,0,0,0-2.064,4.439,16.065,16.065,0,0,0-.636,3.815h0a35.59,35.59,0,0,0-2.4,3.719c.072-.384.144-.756.228-1.14.348-1.752.732-3.515,1.2-5.243a31.589,31.589,0,0,1,4.247-9.958s-.06-.132-.108-.072a38.248,38.248,0,0,0-4.7,9.742c-.564,1.728-1.02,3.491-1.416,5.267-.192.876-.36,1.74-.528,2.615-.084.456-.192.912-.264,1.38a63.453,63.453,0,0,0-4.067,12,175.77,175.77,0,0,0-3.767,22.339,186.37,186.37,0,0,0-1.2,23.707c0,1,.084,1.98.132,2.975a.2.2,0,0,0,.408,0c.18-3.923.276-7.846.5-11.757s.576-7.822,1-11.733a209.862,209.862,0,0,1,3.683-22.8c1.428-6.455,3.287-12.957,6.814-18.62a35.343,35.343,0,0,1,6.371-7.57c2.483-2.22,5.183-4.175,7.8-6.227a42.7,42.7,0,0,0,7.2-6.887,55.785,55.785,0,0,0,5.615-9.106l1.272-2.4C417.445,288.775,417.337,288.7,417.3,288.775Z" transform="translate(-319.378 -267.455)" fill="#263238"/>
    <path id="Path_2357" data-name="Path 2357" d="M383.15,290.937a59.87,59.87,0,0,1-3.935,6.875s0,.108.084,0a47.9,47.9,0,0,0,3.971-6.887C383.305,290.9,383.186,290.865,383.15,290.937Z" transform="translate(-288.274 -267.026)" fill="#263238"/>
    <path id="Path_2358" data-name="Path 2358" d="M418.41,317.14s-.276,25.1,14.733,32.393,23.047,1.2,33.245,3.6h0c-.4-.6-7.678-11.062-19.256-13.941C435.219,336.168,422.021,327.6,418.41,317.14Z" transform="translate(-418.41 -261.784)" fill="#15ace5"/>
    <path id="Path_2359" data-name="Path 2359" d="M418.41,317.14s-.276,25.1,14.733,32.393,23.047,1.2,33.245,3.6h0a56.916,56.916,0,0,0-17.072-5.039C439.85,346.966,421.77,340.763,418.41,317.14Z" transform="translate(-418.41 -261.784)" opacity="0.1"/>
    <path id="Path_2360" data-name="Path 2360" d="M450.217,351a25.5,25.5,0,0,0-6-4.043c-.324-.156-.648-.276-.984-.42s-.324-.384-.5-.576a18.4,18.4,0,0,0-1.4-1.332,21.493,21.493,0,0,0-3.023-2.184c-2.483-1.464-5.207-2.483-7.75-3.839-.072,0-.144.072-.072.108,1.26.66,2.484,1.38,3.707,2.088s2.4,1.356,3.6,2.1a25.645,25.645,0,0,1,2.975,2.231c.264.228.516.48.768.732a41.406,41.406,0,0,0-5.063-1.344c-2.747-.552-5.531-.948-8.278-1.536a40.315,40.315,0,0,1-3.971-1.068c-1.2-1.008-2.5-2-3.671-3.083a30.762,30.762,0,0,1-3.887-4.307.065.065,0,1,0-.108.072,46.5,46.5,0,0,0,6.155,6.79c-.648-.252-1.284-.516-1.92-.8A31,31,0,0,1,407.986,330c0-.06-.156,0-.108.072a35.188,35.188,0,0,0,10.342,9.934,31.36,31.36,0,0,0,6.539,3.1,60.981,60.981,0,0,0,8.122,1.92,56.385,56.385,0,0,1,7.954,1.9,23.814,23.814,0,0,1,6.67,3.5,31.277,31.277,0,0,1,9,11.146,55.957,55.957,0,0,1,4.943,18.356c0,.264.456.264.432,0C461.171,369.308,458.352,358.33,450.217,351Z" transform="translate(-401.256 -259.219)" fill="#263238"/>
    <path id="Path_2361" data-name="Path 2361" d="M438.97,341.656a8.625,8.625,0,0,0-3.083-2.8,11.373,11.373,0,0,1-3.671-3.035c0-.072-.168,0-.108.072a12.225,12.225,0,0,0,3.239,2.891,11.4,11.4,0,0,1,3.527,2.927S439.006,341.716,438.97,341.656Z" transform="translate(-407.417 -258.058)" fill="#263238"/>
    <path id="Path_2362" data-name="Path 2362" d="M394.6,362.94l.672,13.809,2.1,42.159h31.481l2.088-42.159.684-13.809Z" transform="translate(-355.08 -252.636)" fill="#37474f"/>
    <path id="Path_2363" data-name="Path 2363" d="M394.6,362.94l.672,13.809H430.94l.684-13.809Z" transform="translate(-355.08 -252.636)" fill="#263238"/>
    <rect id="Rectangle_556" data-name="Rectangle 556" width="41.451" height="13.161" transform="translate(37.3 104.545)" fill="#37474f"/>
  </g>
  <g id="freepik--Shadow--inject-43" transform="translate(272.545 486.783)">
    <ellipse id="Ellipse_143" data-name="Ellipse 143" cx="103.885" cy="14.721" rx="103.885" ry="14.721" fill="#ebebeb"/>
  </g>
  <g id="freepik--Character--inject-43" transform="translate(265.311 11.589)">
    <path id="Path_2364" data-name="Path 2364" d="M127.6,471.087c2.783.9,81.954-.132,84.942-2.088,1.2-.72,1.668-12.261,1.908-26.226v-.444c0-2.879.084-5.843.1-8.842v-1.2l-3.839-41.067-52.969.528,5.231,40.7v1.608l.324,8.4v.864s-30.125,13.953-33.185,16.448S124.832,470.211,127.6,471.087Z" transform="translate(-81.473 19.535)" fill="#ffc4c0"/>
    <path id="Path_2365" data-name="Path 2365" d="M127.606,464.25c2.783.9,81.954-.132,84.942-2.088,1.2-.72,1.668-12.261,1.908-26.226v-.444c0-2.879.084-5.843.1-8.842v-1.2l-51.589.156v1.608l.324,8.4v.864s-30.125,13.953-33.185,16.448S124.835,463.374,127.606,464.25Z" transform="translate(-81.476 26.373)" fill="#ebebeb"/>
    <path id="Path_2366" data-name="Path 2366" d="M127.125,462.784c2.807.9,83.058-.168,86.093-2.136,1.2-.744,1.692-12.441,1.92-26.6l-51.745.54S132.86,448.747,129.8,451.266,124.306,461.836,127.125,462.784Z" transform="translate(-81.511 28.09)" fill="#455a64"/>
    <path id="Path_2367" data-name="Path 2367" d="M125.88,462.648c18.74-.432,35.992-1.14,37.4-2.04,1.2-.744,1.692-12.441,1.92-26.6l-11.685.12Z" transform="translate(-31.568 28.082)" opacity="0.1"/>
    <path id="Path_2368" data-name="Path 2368" d="M130.894,455.426c13.449-.5,67.737-1.284,81.066-.768.108,0,.108.072,0,.084-13.317.792-67.605,1.14-81.066.912C130.618,455.642,130.606,455.438,130.894,455.426Z" transform="translate(-84.176 32.173)" fill="#263238"/>
    <path id="Path_2369" data-name="Path 2369" d="M161.037,435.642c5.387-.156,11.649,1.668,15.057,6,.132.168-.108.36-.276.276a74.385,74.385,0,0,0-14.865-5.639.336.336,0,0,1,.084-.636Z" transform="translate(-84.35 28.406)" fill="#263238"/>
    <path id="Path_2370" data-name="Path 2370" d="M164.464,437c5.387-.144,11.649,1.68,15.057,6,.132.168-.108.348-.264.276a74.023,74.023,0,0,0-14.877-5.639.348.348,0,0,1,.084-.636Z" transform="translate(-91.916 28.678)" fill="#263238"/>
    <path id="Path_2371" data-name="Path 2371" d="M168.036,438.431c5.375-.144,11.649,1.668,15.057,6,.132.168-.12.348-.276.264a75.389,75.389,0,0,0-14.865-5.579.345.345,0,0,1,.084-.684Z" transform="translate(-99.615 28.964)" fill="#263238"/>
    <path id="Path_2372" data-name="Path 2372" d="M134.426,444c6-.072,6.143,9.322.1,9.382S128.368,444.084,134.426,444Z" transform="translate(-10.229 30.078)" fill="#263238"/>
    <path id="Path_2373" data-name="Path 2373" d="M110.083,480.584h57.024s-11.482-133.171-11.038-135.511c.576-2.975,3.935-16.46,8.4-34.061,1.4-5.519,2.915-11.422,4.487-17.552,4.259-16.568,8.938-34.673,13.029-50.389,6.119-23.6,10.906-41.991,10.906-41.991H144.564s-5.627,17.852-12.729,41.091c-11.565,37.744-27.018,89.7-28.542,102.338C100.845,364.9,110.083,480.584,110.083,480.584Z" transform="translate(-31.668 -18.443)" fill="#263238"/>
    <path id="Path_2374" data-name="Path 2374" d="M127.213,426.006c8.71-.18,6.2-.252,14.913-.336,4.259,0,32.273-.288,36.256.372.084,0,.084.156,0,.18-3.983.66-32,.408-36.256.372-8.71-.084-6.2-.156-14.913-.336a.126.126,0,1,1,0-.252Z" transform="translate(-46.267 26.404)" fill="#37474f"/>
    <path id="Path_2375" data-name="Path 2375" d="M112.376,334.923c1.872-8.242,4.667-16.316,7.09-24.415q7.414-24.655,14.925-49.285,3.743-12.321,7.51-24.631c1.284-4.139,2.555-8.29,3.851-12.417s2.711-8.062,3.863-12.141c.456-1.668.72-.756.12,1.356q-1.8,6.389-3.6,12.753-3.671,12.6-7.414,25.195-7.414,25.051-14.949,50.077L116.215,326.5a101.613,101.613,0,0,0-3.071,12.141,55.3,55.3,0,0,0-.5,12.981c.54,8.734,1.548,17.444,2.4,26.142s1.62,17.444,2.4,26.166q2.4,26.046,4.8,52.081c.2,2.2.4,4.391.564,6.6,0,.732-1.056.684-1.128,0-1.884-17.168-3.323-34.385-4.931-51.589s-3.215-34.2-4.8-51.313c-.4-4.3-.852-8.6-.864-12.921a53.256,53.256,0,0,1,1.3-11.866Z" transform="translate(1.3 -16.428)" fill="#37474f"/>
    <path id="Path_2376" data-name="Path 2376" d="M102.87,201.08c3.347,25.962,9.742,74.624,14.4,109.932,10.894-42.783,28.422-109.932,28.422-109.932Z" transform="translate(15.544 -18.443)" fill="#37474f"/>
    <path id="Path_2377" data-name="Path 2377" d="M77.1,471.677c2.771.9,81.954.168,84.942-1.776,1.2-.72,1.716-12.261,2-26.226v-.444c.072-2.879.12-5.843.132-8.842v-1.2c.18-20.168-1.272-41.079-1.272-41.079l-51.757.336,1.452,40.7v1.608l.288,8.4v.876s-30.077,13.821-33.149,16.34S74.33,470.777,77.1,471.677Z" transform="translate(29.435 19.713)" fill="#ffc4c0"/>
    <path id="Path_2378" data-name="Path 2378" d="M77.115,464.838c2.771.9,81.954.168,84.942-1.776,1.2-.72,1.716-12.261,2-26.226v-.444c.072-2.879.12-5.843.132-8.842v-1.2H112.6v1.608l.288,8.4v.876S82.825,451,79.754,453.524,74.343,463.938,77.115,464.838Z" transform="translate(29.422 26.552)" fill="#ebebeb"/>
    <path id="Path_2379" data-name="Path 2379" d="M77.1,463.444c2.819.9,83.07-.168,86.105-2.135,1.2-.744,1.68-12.441,1.92-26.6l-51.745.54s-30.545,14.145-33.593,16.676S74.281,462.544,77.1,463.444Z" transform="translate(28.513 28.222)" fill="#455a64"/>
    <path id="Path_2380" data-name="Path 2380" d="M80.868,456.157c13.449-.5,67.749-1.3,81.078-.768.108,0,.108.072,0,.084-13.317.792-67.617,1.2-81.066.9C80.592,456.337,80.592,456.157,80.868,456.157Z" transform="translate(25.849 32.318)" fill="#263238"/>
    <path id="Path_2381" data-name="Path 2381" d="M111,436.331c5.387-.144,11.661,1.68,15.057,6,.132.168-.108.348-.264.276a74.027,74.027,0,0,0-14.877-5.639.348.348,0,0,1,.084-.636Z" transform="translate(25.682 28.544)" fill="#263238"/>
    <path id="Path_2382" data-name="Path 2382" d="M114.451,437.731c5.375-.144,11.649,1.668,15.057,6,.132.168-.12.348-.276.264a75.119,75.119,0,0,0-14.865-5.639.336.336,0,0,1,.084-.624Z" transform="translate(18.108 28.824)" fill="#263238"/>
    <path id="Path_2383" data-name="Path 2383" d="M117.917,439.132c5.387-.156,11.649,1.668,15.057,6,.132.168-.108.36-.276.276a74.38,74.38,0,0,0-14.865-5.639.336.336,0,0,1,.084-.636Z" transform="translate(10.503 29.104)" fill="#263238"/>
    <path id="Path_2384" data-name="Path 2384" d="M72.21,201.08s1.116,23.131,6.407,41.439c.432,1.512.888,3,1.392,4.427a86.223,86.223,0,0,1,13.917,7.2s.564,18.608,1.116,39.351c.624,23.191,1.2,49.057,1.128,54.552-.48,20.528,2.567,133.4,2.567,133.4l57.012.228s-10.306-126.081-10.234-133.6c.108-12.093-2.759-65.518-4.979-104.473C139.2,219.592,138,201.08,138,201.08Z" transform="translate(42.269 -18.443)" fill="#263238"/>
    <path id="Path_2385" data-name="Path 2385" d="M75.49,426.338c8.71-.144,6.2-.228,14.913-.276,4.271,0,32.273-.144,36.256.528.084,0,.084.168,0,.18-3.983.648-32,.276-36.256.216-8.71-.12-6.2-.18-14.913-.4a.132.132,0,0,1,0-.252Z" transform="translate(67.471 26.492)" fill="#37474f"/>
    <path id="Path_2386" data-name="Path 2386" d="M79.36,208.04c1.044,31.805,2.16,63.586,3.6,95.4s3.359,63.79,6,95.619c1.5,17.768,2.9,42.783,4.8,60.515,0,.12-.168.168-.192,0-4.151-31.553-6.467-70.569-8.506-102.314s-3.419-63.586-4.5-95.331c-.612-18-1.08-35.992-1.62-53.988C78.952,207.728,79.288,207.752,79.36,208.04Z" transform="translate(96.186 -17.101)" fill="#37474f"/>
    <path id="Path_2387" data-name="Path 2387" d="M124.213,238.177a104.742,104.742,0,0,1,16.292,8.53.192.192,0,0,1-.168.336c-5.495-2.675-11.11-5.243-16.46-8.218a.365.365,0,0,1,.336-.648Z" transform="translate(-4.311 -11.042)" fill="#37474f"/>
    <path id="Path_2388" data-name="Path 2388" d="M129.111,221.834c.384,2.016.876,4.031,1.308,6s.72,3.827,1.2,5.687a9.778,9.778,0,0,0,2.651,4.8,29.486,29.486,0,0,0,2.4,1.92c.42.348.888.672,1.332,1.02a4.886,4.886,0,0,0-.156-.816l-.4-2.3c-.288-1.716-.564-3.419-.816-5.135-.516-3.359-1-6.755-1.692-10.09,0-.132.168-.18.2,0,.84,3.3,1.764,6.563,2.5,9.886.36,1.632,1.632,9.694,1.692,10.258s.108,1.2.132,1.776a7.523,7.523,0,0,1,0,1.8.144.144,0,0,1-.276,0h0a7.954,7.954,0,0,1-.516-1.752c-.144-.576-.276-1.2-.372-1.74a6.022,6.022,0,0,0-.1-.648c-.792-.48-1.536-1.116-2.279-1.656s-1.608-1.14-2.4-1.776a9.058,9.058,0,0,1-2.891-4.523,32.513,32.513,0,0,1-.96-5.783c-.252-2.291-.432-4.6-.756-6.874C128.883,221.75,129.087,221.69,129.111,221.834Z" transform="translate(-9.533 -14.315)" fill="#37474f"/>
    <path id="Path_2389" data-name="Path 2389" d="M190.818,151.826c-13.113,28.038-34.457,62.135-46.106,62.758-2.016.1-10.138-.852-13.449-8.4-5.6-12.741-10.906-38.176-11.685-50.281-.348-5.363,35.692-10.87,36.8-5.231,1.56,7.906,2.4,16.4,3.251,16.3,1.428-.168,7.354-9.07,21.283-23.863C198.221,124.687,195.689,141.364,190.818,151.826Z" transform="translate(-53.232 -31.672)" fill="#ffc4c0"/>
    <path id="Path_2390" data-name="Path 2390" d="M151.526,144.478c.924,7.546,8.878,22.243,12.165,25.039s28.7-9.826,29.562-14.217-4.259-29.514-9.814-34.936S150.554,136.656,151.526,144.478Z" transform="translate(-90.459 -34.737)" fill="#ffc4c0"/>
    <path id="Path_2391" data-name="Path 2391" d="M149.734,151.4a63.2,63.2,0,0,1,7.2-16.868c4.043-6.107,10.8-14.721,7.546-17.024-6.575-4.715-23.275,16.8-23.275,16.8s-5.855,10.666.252,15.921a8.014,8.014,0,0,0,8.278,1.176Z" transform="translate(-47.061 -35.272)" fill="#ffc4c0"/>
    <path id="Path_2392" data-name="Path 2392" d="M162.036,146.16l-8.746-4,11.553-25.315,11.074,5.051Z" transform="translate(-75.175 -35.268)" fill="#15ace5"/>
    <path id="Path_2393" data-name="Path 2393" d="M175.917,121.889l-5.291,9.262-8.59,15.009-8.746-3.983,11.553-25.327Z" transform="translate(-75.175 -35.268)" fill="#15ace5"/>
    <path id="Path_2394" data-name="Path 2394" d="M168.767,121.889l-5.291,9.262-10.186-4.643,4.4-9.658Z" transform="translate(-68.024 -35.268)" opacity="0.1"/>
    <rect id="Rectangle_557" data-name="Rectangle 557" width="15.129" height="11.494" transform="translate(91.066 74.081) rotate(24.52)" fill="#15ace5"/>
    <path id="Path_2395" data-name="Path 2395" d="M146.3,119.624l-11.182-3.815,7.714-16.928,10.21,5.951Z" transform="translate(-30.503 -38.857)" fill="#15ace5"/>
    <path id="Path_2396" data-name="Path 2396" d="M225.979,101.446l-11.4,24.979-18.92-6.047L146.94,116.7,174.294,56.72,209.015,91.1Z" transform="translate(-117.618 -47.278)" fill="#15ace5"/>
    <path id="Path_2397" data-name="Path 2397" d="M214.712,90.807c-7.582,16.652-18.08,28.158-23.431,25.722s-3.527-17.912,4.067-34.553,18.08-28.17,23.431-25.722S222.306,74.2,214.712,90.807Z" transform="translate(-163.003 -47.436)" fill="#15ace5"/>
    <ellipse id="Ellipse_144" data-name="Ellipse 144" cx="8.722" cy="29.406" rx="8.722" ry="29.406" transform="translate(37.487 68.635) rotate(-155.48)" opacity="0.2"/>
    <path id="Path_2398" data-name="Path 2398" d="M205.7,84.938c-.9,1.968-1.836,3.863-2.8,5.651a6.587,6.587,0,0,1-7.642-9.106l1.3-2.843A6.575,6.575,0,0,1,208.4,78.4C207.619,80.535,206.707,82.73,205.7,84.938Z" transform="translate(-157.302 -43.667)" fill="#15ace5"/>
    <path id="Path_2399" data-name="Path 2399" d="M159.651,126.325l-21.631-7.366L152.957,86.23l19.736,11.494Z" transform="translate(-53.63 -41.384)" fill="#15ace5"/>
    <path id="Path_2400" data-name="Path 2400" d="M159.651,126.325l-21.631-7.366L152.957,86.23l19.736,11.494Z" transform="translate(-53.63 -41.384)" opacity="0.2"/>
    <path id="Path_2401" data-name="Path 2401" d="M212.971,61.21a20.468,20.468,0,0,1,.456,7.4,46.353,46.353,0,0,1-1.3,7.342c-.276,1.2-.66,2.4-1.008,3.6s-.792,2.4-1.2,3.515-.876,2.327-1.368,3.467-.96,2.292-1.488,3.419a81.581,81.581,0,0,1-7.366,12.993,42.625,42.625,0,0,1-4.8,5.687,17.864,17.864,0,0,1-6.167,4.1,18.248,18.248,0,0,0,5.915-4.355,41.16,41.16,0,0,0,4.619-5.759,85.792,85.792,0,0,0,7.138-12.933,87.759,87.759,0,0,0,5.207-13.833,44.981,44.981,0,0,0,1.476-7.2,21.391,21.391,0,0,0-.12-7.45Z" transform="translate(-155.359 -46.381)" opacity="0.2"/>
    <path id="Path_2402" data-name="Path 2402" d="M198.13,51.71c1.044,1.38,2,2.8,2.963,4.211s1.872,2.879,2.783,4.331,1.8,2.915,2.639,4.415l1.26,2.244c.4.756.816,1.5,1.2,2.28-.528-.684-1.008-1.392-1.524-2.088l-1.44-2.124c-.972-1.416-1.884-2.867-2.8-4.319s-1.788-2.927-2.627-4.415S198.9,53.258,198.13,51.71Z" transform="translate(-162.03 -48.279)" fill="#263238"/>
    <path id="Path_2403" data-name="Path 2403" d="M233.059,94.506c-1.944,0-3.875-.072-5.807-.168s-3.851-.24-5.783-.384-3.851-.336-5.771-.564l-2.879-.348c-.96-.144-1.92-.264-2.879-.432h2.9l2.9.132c1.932.084,3.863.24,5.783.384s3.851.336,5.771.564S231.151,94.194,233.059,94.506Z" transform="translate(-200.282 -40.109)" fill="#263238"/>
    <path id="Path_2404" data-name="Path 2404" d="M209.57,81.31c2.8.492,5.579,1.08,8.4,1.668s5.555,1.2,8.314,1.86,5.531,1.32,8.278,2.04l4.127,1.092c1.368.384,2.747.744,4.1,1.2-1.4-.24-2.8-.528-4.187-.792l-4.175-.864c-2.783-.588-5.555-1.2-8.314-1.872s-5.531-1.32-8.278-2.04S212.281,82.138,209.57,81.31Z" transform="translate(-209.57 -42.366)" fill="#263238"/>
    <path id="Path_2405" data-name="Path 2405" d="M201.73,48.85c1.956,2.124,3.851,4.3,5.735,6.479s3.731,4.391,5.579,6.6,3.6,4.463,5.447,6.719l2.663,3.407c.876,1.2,1.764,2.28,2.6,3.455-.984-1.056-1.932-2.148-2.891-3.215l-2.843-3.263c-1.9-2.172-3.731-4.391-5.579-6.6s-3.659-4.463-5.435-6.731S203.434,51.178,201.73,48.85Z" transform="translate(-181.13 -48.85)" fill="#263238"/>
    <path id="Path_2406" data-name="Path 2406" d="M242.55,82.042c-3.083-1.272-6.119-2.615-9.166-3.971s-6-2.771-9.07-4.151-6-2.855-9.01-4.319l-4.475-2.22c-1.476-.768-2.963-1.5-4.439-2.292,1.548.624,3.071,1.3,4.607,1.944l4.559,2.028c3.047,1.356,6,2.771,9.082,4.151s6,2.855,9,4.319S239.611,80.483,242.55,82.042Z" transform="translate(-205.514 -45.606)" fill="#263238"/>
    <path id="Path_2407" data-name="Path 2407" d="M193.093,132.258c-1.644,3.671-5.039-.372-5.039-.372s3.479,7.007.312,10.138-6.982-2.016-7.258-2.4c.18.372,3.2,6.887-.3,9.718s-6.719-2.8-6.91-3.167c.06.408.768,5.771-2.4,7.306-5.423,2.651-7.606-11.026-11.685-13.713,0,0-5.339,6.371-5.531,6.527,0,0-2.4-12.957,1.572-18.248a4.223,4.223,0,0,1,5.087-1.4s-1.2-4.091,1.464-6.407c1.38-1.2,4.511,0,4.511,0a5.267,5.267,0,0,1,1.668-5.219c2.016-1.524,4.8-.132,4.8-.132s.672-3.6,3.227-4.451C181.78,108.611,196.572,124.339,193.093,132.258Z" transform="translate(-93.203 -36.578)" fill="#ffc4c0"/>
    <path id="Path_2408" data-name="Path 2408" d="M158.089,114.266v-.1a37.576,37.576,0,0,1,14.277,17.144c.084.228-.24.468-.384.228a76.784,76.784,0,0,0-13.893-17.276Z" transform="translate(-77.394 -35.803)" fill="#263238"/>
    <path id="Path_2409" data-name="Path 2409" d="M163.768,118.509s0-.156.108-.108a35.068,35.068,0,0,1,14.4,19.664c.072.288-.144.612-.252.288C176.209,132.954,168.975,123.176,163.768,118.509Z" transform="translate(-90.116 -34.96)" fill="#263238"/>
    <path id="Path_2410" data-name="Path 2410" d="M182.5,144.092c-2.327-7.858-6.946-14.181-12.621-20-.072-.072,0-.168.12-.12,3.6,2.088,6.779,6.167,9.022,9.6a21.476,21.476,0,0,1,3.743,10.486A.136.136,0,0,1,182.5,144.092Z" transform="translate(-101.889 -33.848)" fill="#263238"/>
    <path id="Path_2411" data-name="Path 2411" d="M184.816,128.32c.108.276-.408.132-.312.4.4,1.2,2.208,8.3,0,9.67-1.8,1.092-4.511-.564-5.3-1.608l-2-2.639.96,3.167a13.737,13.737,0,0,1,.624,4.343,4.8,4.8,0,0,1-1.5,3.6,2.759,2.759,0,0,1-3.467.252,8.4,8.4,0,0,1-2.663-3.239l-1.764-3.491.528,3.863a12.727,12.727,0,0,1,0,3.239,5.231,5.231,0,0,1-1.1,2.819,2.483,2.483,0,0,1-2.5.792,5.531,5.531,0,0,1-2.4-1.932,42.434,42.434,0,0,1-3.515-5.807c-.552-1-1.1-2.016-1.7-3a8.086,8.086,0,0,0-2.232-2.615,9.01,9.01,0,0,1,1.956,2.771c.516,1.02.984,2.064,1.464,3.107a36.73,36.73,0,0,0,3.275,6.119,6.443,6.443,0,0,0,2.807,2.4,3.527,3.527,0,0,0,3.731-1.02,6.431,6.431,0,0,0,1.452-3.455,13.99,13.99,0,0,0,0-3.6l-1.2.372a9.6,9.6,0,0,0,3.107,3.839,3.959,3.959,0,0,0,2.615.7,4.523,4.523,0,0,0,2.4-1.08,6.143,6.143,0,0,0,1.9-4.643,14.482,14.482,0,0,0-.756-4.8l-1.032.528c1.056,1.3,3.887,3.479,6.9,2.136C188.751,137.258,185.512,129.664,184.816,128.32Z" transform="translate(-89.868 -32.977)" fill="#263238"/>
    <path id="Path_2412" data-name="Path 2412" d="M153.316,128.869a8.037,8.037,0,0,0,2.136,1.2,1.908,1.908,0,0,0,1.884-.252,3.791,3.791,0,0,0,1-1.932c.192-.78.36-1.62.492-2.5a6.335,6.335,0,0,1,.372,2.639,3.731,3.731,0,0,1-1.14,2.651,2.723,2.723,0,0,1-1.5.576,2.843,2.843,0,0,1-1.464-.4,4.235,4.235,0,0,1-1.776-1.992Z" transform="translate(-58.501 -33.562)" fill="#263238"/>
    <path id="Path_2413" data-name="Path 2413" d="M117.6,165.914,160.335,149.6s2.915,16.988,3.419,17.072,12.993-18.056,26.394-29.226,11.613,2.723,7.546,14.4c-5.219,15.009-26.958,62.231-36.88,65.53s-25.195-3.6-27.4-7.786C130.377,203.814,117.6,165.914,117.6,165.914Z" transform="translate(-57.097 -31.975)" fill="#37474f"/>
    <path id="Path_2414" data-name="Path 2414" d="M125.35,138.04v33.725h.336c.744-1.644,1.476-3.239,2.16-4.8V136l-1.2.936Z" transform="translate(6.417 -31.443)" opacity="0.1"/>
    <path id="Path_2415" data-name="Path 2415" d="M152.482,166.891c1.416-.756,14.757-5.615,17.684-6.611l8.77-2.975c3.023-1.008,6-2.2,9.154-2.975a.12.12,0,0,1,.084.216c-2.9,1.332-6,2.3-9,3.407l-8.854,3.251c-2.963,1.068-16.268,5.591-17.792,5.891C152.4,167.131,152.386,166.939,152.482,166.891Z" transform="translate(-86.437 -27.781)" fill="#263238"/>
    <path id="Path_2416" data-name="Path 2416" d="M117.573,215.6c5.627,2.232,12.753,3.515,18.236,1.692,9.922-3.287,31.649-50.509,36.892-65.518,2.555-7.33,4.223-15.6,1.776-17.852Z" transform="translate(-32.079 -31.858)" opacity="0.1"/>
    <path id="Path_2417" data-name="Path 2417" d="M148.222,161.3c.288,2.3.444,4.619.564,6.935s.156,4.643.144,6.959-.084,4.643-.276,6.958a58.171,58.171,0,0,1-.876,6.911c0-1.2.084-2.315.084-3.467s0-2.315.072-3.467l.06-6.934.072-6.947v-3.467C148.162,163.615,148.162,162.464,148.222,161.3Z" transform="translate(-41.577 -26.389)" fill="#263238"/>
    <path id="Path_2418" data-name="Path 2418" d="M84.313,224.988c1.032,1.32,74.384,6.623,74.78,6.191,1.116-1.2-11.134-78.559-26.67-92.98-3.347-3.1-16.976-3.6-18.884-3.035-2.172.672-8.878,10.366-12.189,18.416C94.691,169.656,83.4,223.788,84.313,224.988Z" transform="translate(24.395 -31.65)" fill="#ebebeb"/>
    <path id="Path_2419" data-name="Path 2419" d="M126.732,151.912l-1.92-7.222-5.243,3.251.912,6,4.3.864Z" transform="translate(14.465 -29.707)" fill="#263238"/>
    <path id="Path_2420" data-name="Path 2420" d="M136.3,153.264l-1.38,48.877-10.27,15.465L121.2,199.142,132.01,152.4Z" transform="translate(2.937 -28.167)" fill="#263238"/>
    <path id="Path_2421" data-name="Path 2421" d="M79.861,240.47s9.6.732,22.579,1.644c1.416-4.451,4.607-15.345,4.8-15.321.108.264,2.327,11.422,2.951,15.885,12.549.876,26.754,1.86,37.96,2.543s19.568,1.068,20.036.78-3.959-15.945-4.391-18.224c-3.287-18-8.71-53.772-14.481-67.509a120.032,120.032,0,0,0-9.142-18c-.36-.552-.7-1.068-1.008-1.524l-2.3-3.347-24.919,38.824c0-.8,2.1-38.488,2.1-38.488a99.578,99.578,0,0,0-15.825,27.906c-6.839,18.944-10.054,47.282-12.873,60.671C85.356,226.313,79.9,240.194,79.861,240.47Z" transform="translate(20.617 -31.163)" fill="#37474f"/>
    <path id="Path_2422" data-name="Path 2422" d="M131.475,169.76c-.636,4.187-1.14,8.4-1.632,12.6s-.912,8.4-1.32,12.633-.756,8.4-1.044,12.657l-.42,6.335c-.1,2.112-.24,4.223-.3,6.347.336-2.1.588-4.2.888-6.3l.756-6.3c.492-4.211.912-8.4,1.308-12.633s.768-8.4,1.044-12.657S131.331,174,131.475,169.76Z" transform="translate(1.096 -24.699)" fill="#263238"/>
    <path id="Path_2423" data-name="Path 2423" d="M122.588,182.669a2.112,2.112,0,1,0,.813-1.423,2.112,2.112,0,0,0-.813,1.423Z" transform="translate(10.799 -22.492)" fill="#263238"/>
    <ellipse id="Ellipse_145" data-name="Ellipse 145" cx="2.112" cy="2.112" rx="2.112" ry="2.112" transform="translate(132.607 170.291)" fill="#263238"/>
    <path id="Path_2424" data-name="Path 2424" d="M123.868,202.609a2.124,2.124,0,1,0,.816-1.419,2.112,2.112,0,0,0-.816,1.419Z" transform="translate(7.983 -18.509)" fill="#263238"/>
    <path id="Path_2425" data-name="Path 2425" d="M69.914,142.411c25.279,21.163,58.991,67.461,54.576,77.947-4.943,11.661-40.179-18-40.239-19.9,0-1.452-14.193-30.2-24.847-51.073S63.663,137.18,69.914,142.411Z" transform="translate(92.975 -31.423)" fill="#ffc4c0"/>
    <path id="Path_2426" data-name="Path 2426" d="M83.69,200.575c-1.3-3.1-20.4-40.959-26.022-52.981s-1.884-16.257,11.745-6.071,44.774,45.59,52.993,65.206c7.906,18.884-2.112,19.844-16.2,12.153C94.679,212.573,83.69,200.575,83.69,200.575Z" transform="translate(93.296 -31.484)" fill="#37474f"/>
    <path id="Path_2427" data-name="Path 2427" d="M58.85,205.45v3.971a10.8,10.8,0,0,0,2.5,0v-3.947Z" transform="translate(152.7 -17.571)" opacity="0.1"/>
    <path id="Path_2428" data-name="Path 2428" d="M106.663,164.591a13.618,13.618,0,0,0-1.764-2.555,14.578,14.578,0,0,0-2.22-2.136,13.929,13.929,0,0,0,1.764,2.543,14.1,14.1,0,0,0,2.22,2.148Z" transform="translate(54.798 -26.669)" fill="#263238"/>
    <path id="Path_2429" data-name="Path 2429" d="M108.954,190.881c-1.272-2.939-2.627-5.831-4.007-8.71s-2.819-5.723-4.235-8.59-2.915-5.675-4.427-8.482-3.035-5.615-4.655-8.4c1.272,2.927,2.639,5.819,4.007,8.7s2.831,5.723,4.235,8.59,2.915,5.675,4.427,8.482S107.311,188.121,108.954,190.881Z" transform="translate(65.764 -27.308)" fill="#263238"/>
    <path id="Path_2430" data-name="Path 2430" d="M109.126,149.17c4.235,1.428,13.293-4.967,16.8-10.066.228-.36,0-4.283,0-9.082a82.4,82.4,0,0,1,.336-9.082l-18.908,2.771a46.983,46.983,0,0,1,.732,11.494,6.071,6.071,0,0,1-.24,1.2.78.78,0,0,0,0,.192C107.218,138.864,105.083,147.79,109.126,149.17Z" transform="translate(30.356 -34.451)" fill="#ffc4c0"/>
    <path id="Path_2431" data-name="Path 2431" d="M108.2,136.375v.192a11.994,11.994,0,0,0,1.884.288c10.726.744,14.469-12.117,15.3-15.765l-4.727.7-12.909,1.908a46.847,46.847,0,0,1,.732,11.482A7.091,7.091,0,0,1,108.2,136.375Z" transform="translate(30.014 -34.421)" fill="#263238"/>
    <path id="Path_2432" data-name="Path 2432" d="M111.231,133.13l1.932,11.53,16.1-10.486,2.8,5.111s-17.54,18.488-17.408,17.5l-2.4-10.09-7.69,4.979,4.007-15.849Z" transform="translate(27.147 -32.016)" fill="#ebebeb"/>
    <path id="Path_2433" data-name="Path 2433" d="M107.29,143.248c.744-2.591,1.428-5.231,2.292-7.786,0-.084.192-.1.192,0,0,2.663-2.951,12.561-3.467,14.973h0c.324-.216,7.066-4.307,7.1-4.211.636,1.656,2.4,9.01,2.471,9.658,2.771-2.927,13.269-13.521,16.388-16.2a.1.1,0,0,1,.132.132c-2.579,3.179-16.532,17.48-16.688,17.4a106.4,106.4,0,0,1-2.4-10.654c-1.2.948-8.146,5.711-8.074,5.315a84.843,84.843,0,0,1,2.052-8.626Z" transform="translate(25.977 -31.564)" fill="#263238"/>
    <path id="Path_2434" data-name="Path 2434" d="M136.9,105.193c1.416,6.887-3.923,25.9-9.094,29.766-7.486,5.615-18.848,5.159-23.383-3.6-4.4-8.53,3-33.185,8.686-36.616C121.485,89.669,134.838,95.019,136.9,105.193Z" transform="translate(23.839 -40.071)" fill="#ffc4c0"/>
    <path id="Path_2435" data-name="Path 2435" d="M118.676,111.76s.084.084,0,.144c-.384,1.272-.624,2.8.42,3.6h0C117.764,114.915,118.1,112.9,118.676,111.76Z" transform="translate(23.781 -36.284)" fill="#263238"/>
    <path id="Path_2436" data-name="Path 2436" d="M118.164,110.913c2.112.408,1.128,4.583-.828,4.211S116.4,110.565,118.164,110.913Z" transform="translate(25.805 -36.457)" fill="#263238"/>
    <path id="Path_2437" data-name="Path 2437" d="M126.684,110.26s-.12,0-.132.084c-.252,1.308-.78,2.759-2.052,2.915v.072C125.976,113.463,126.648,111.532,126.684,110.26Z" transform="translate(8.599 -36.584)" fill="#263238"/>
    <path id="Path_2438" data-name="Path 2438" d="M126.754,108.921c-2.052-.648-3.191,3.491-1.3,4.091S128.47,109.461,126.754,108.921Z" transform="translate(7.688 -36.865)" fill="#263238"/>
    <path id="Path_2439" data-name="Path 2439" d="M117.26,110.913a17.289,17.289,0,0,1-1.344-1.2,2.891,2.891,0,0,1-1.2-1.428.9.9,0,0,1,.528-.972,2.244,2.244,0,0,1,2.208.588,3.347,3.347,0,0,1,1.2,2.028.972.972,0,0,1-1.392.984Z" transform="translate(28.376 -37.189)" fill="#263238"/>
    <path id="Path_2440" data-name="Path 2440" d="M124.032,106.942a14.394,14.394,0,0,0,1.764,0,2.891,2.891,0,0,0,1.788-.384.9.9,0,0,0,.2-1.092,2.232,2.232,0,0,0-2.088-.924,3.263,3.263,0,0,0-2.255.768.96.96,0,0,0,.588,1.632Z" transform="translate(8.995 -37.729)" fill="#263238"/>
    <path id="Path_2441" data-name="Path 2441" d="M122.113,121.874c-.384.228-.792.576-1.272.5a3.6,3.6,0,0,1-1.32-.648h-.072a1.824,1.824,0,0,0,1.488,1.092,1.4,1.4,0,0,0,1.284-.912S122.161,121.838,122.113,121.874Z" transform="translate(19.12 -34.293)" fill="#263238"/>
    <path id="Path_2442" data-name="Path 2442" d="M127.315,120.9a4.5,4.5,0,0,1-3.407,1.272,5.591,5.591,0,0,1-1.6-.288l-.3-.108-.276-.108a.36.36,0,0,1-.192-.36h0a.431.431,0,0,1,0-.132h0v-.108c.2-1.008.648-2.507.648-2.507-.4.1-2.4.5-2.3,0a68.135,68.135,0,0,1,4.8-12.945c.06-.132.276,0,.228.084-1.056,4.139-2.831,8.062-3.959,12.2a7.631,7.631,0,0,1,2.232-.144c.132.072-.924,2.867-.984,3.323h0a6.251,6.251,0,0,0,4.895-.348C127.339,120.712,127.411,120.82,127.315,120.9Z" transform="translate(13.462 -37.522)" fill="#263238"/>
    <path id="Path_2443" data-name="Path 2443" d="M119.9,119.262a5.243,5.243,0,0,0,1.824,1.956,2.4,2.4,0,0,0,1.4.324c1.068-.108,1.2-1.044,1.2-1.884a5.4,5.4,0,0,0-.252-1.308A6.766,6.766,0,0,1,119.9,119.262Z" transform="translate(16.474 -34.968)" fill="#263238"/>
    <path id="Path_2444" data-name="Path 2444" d="M119.9,121a2.4,2.4,0,0,0,1.4.324c1.068-.108,1.2-1.044,1.2-1.884a2.4,2.4,0,0,0-2.6,1.56Z" transform="translate(18.298 -34.754)" fill="#ff98b9"/>
    <path id="Path_2445" data-name="Path 2445" d="M101.619,103.616c5.927,6.431,17.216,1.344,17.216,1.344a7.846,7.846,0,0,0,6.647,6.623s-1.344,12.225,1.788,12.921c4.8,1.068,9.994-14.829,9.214-18.368s-4.643-5.279-4.643-5.279a8,8,0,0,0-2.16-5.483c-2.7-3.239-14.733-2.4-14.733-2.4a10.858,10.858,0,0,0-1.992-4.559,3.035,3.035,0,0,0-4.343-.588,7.283,7.283,0,0,1,.468,3.191c-.24,3.6-3.083,2.963-2.328-.192a5.051,5.051,0,0,1,1.86-3c-.936-2.4-3.071-3.6-4.715-2.807C100.911,86.4,96.688,98.242,101.619,103.616Z" transform="translate(28.888 -41.674)" fill="#263238"/>
    <path id="Path_2446" data-name="Path 2446" d="M117.082,119.213a5.771,5.771,0,1,0-4.6-7.858h0a5.759,5.759,0,0,0,4.6,7.858Zm1.416-10.678a5.5,5.5,0,0,1,1.2.324,4.967,4.967,0,1,1-1.2-.324Z" transform="translate(26.574 -37.091)" fill="#455a64"/>
    <path id="Path_2447" data-name="Path 2447" d="M127.272,116.457c2.2.18,4.379-1.908,4.979-4.8a6.946,6.946,0,0,0-.384-4.2,3.6,3.6,0,0,0-6-1.2,6.994,6.994,0,0,0-2,3.719c-.624,3.107.744,6,3.071,6.5Zm1.476-10.654h.288a3.1,3.1,0,0,1,2.124,1.884,6,6,0,0,1,.336,3.719c-.54,2.7-2.531,4.6-4.451,4.2s-3-2.891-2.459-5.6a6.131,6.131,0,0,1,1.764-3.287,3.167,3.167,0,0,1,2.435-.912Z" transform="translate(3.812 -37.61)" fill="#455a64"/>
    <path id="Path_2448" data-name="Path 2448" d="M124.3,111.673l.624-.444c-.66-.924-2.4-2.4-4.115-1.272l.408.648C122.778,109.61,124.241,111.6,124.3,111.673Z" transform="translate(14.785 -36.726)" fill="#455a64"/>
    <path id="Path_2449" data-name="Path 2449" d="M114.217,118.9l.744-.168c-.072-.36-.84-3.443-2.4-4.139s-11.757-2.256-12.2-2.327l-.12.768c2.951.456,10.858,1.764,12,2.268S114.049,118.065,114.217,118.9Z" transform="translate(49.428 -36.182)" fill="#455a64"/>
    <path id="Path_2450" data-name="Path 2450" d="M103.236,115.8s5.075-5.747,7.738-3.863-1.656,10.546-5.123,11.41a3.407,3.407,0,0,1-4.331-2.328Z" transform="translate(51.051 -36.325)" fill="#ffc4c0"/>
    <path id="Path_2451" data-name="Path 2451" d="M109.678,113.91v.1c-2.4.684-3.911,2.7-5.027,4.8a1.884,1.884,0,0,1,2.855-.192s0,.144-.084.12a2.076,2.076,0,0,0-2.4.468,9.215,9.215,0,0,0-1.308,1.728c-.132.192-.5,0-.4-.192h0C103.679,117.749,106.439,113.85,109.678,113.91Z" transform="translate(51.039 -35.855)" fill="#263238"/>
    <path id="Path_2452" data-name="Path 2452" d="M131.3,140c.24,2.4.552,4.7.828,7.042s.624,4.691.936,7.03l.456-.492c-1.68-.144-3.371-.312-5.051-.42l-5.051-.36-.936-.072.4.852c1.56,3.311,3.083,6.623,4.7,9.91l.228-.756c-4.007,2.3-8.05,4.547-12,6.91s-7.978,4.691-11.9,7.2c4.139-2.076,8.23-4.223,12.309-6.407s8.122-4.415,12.177-6.635l.468-.252-.228-.492c-1.524-3.323-3.143-6.6-4.739-9.886l-.528.78,5.051.3c1.692.108,3.383.156,5.063.24h.552l-.1-.528q-.63-3.491-1.2-6.971C132.356,144.679,131.78,142.3,131.3,140Z" transform="translate(25.95 -30.644)" fill="#263238"/>
    <path id="Path_2453" data-name="Path 2453" d="M134.906,138c-.744.876-1.464,1.764-2.184,2.663s-1.452,1.776-2.148,2.687l-4.235,5.435-.528.684.876.12,4.919.684-.276-1.02c-2.1,1.632-4.2,3.263-6.275,4.931l-.276.228.06.348q1.116,5.615,2.4,11.218c.816,3.743,1.668,7.474,2.6,11.182-.528-3.791-1.128-7.57-1.776-11.338s-1.308-7.534-2.028-11.29l-.2.576c2.1-1.632,4.175-3.3,6.251-4.955l1.092-.864-1.38-.156-4.931-.552.348.8,3.827-5.639c.66-.936,1.284-1.908,1.92-2.855S134.294,138.972,134.906,138Z" transform="translate(0.041 -31.043)" fill="#263238"/>
    <path id="Path_2454" data-name="Path 2454" d="M120.45,151.692,131,217.113l10.174-1.332-7.342-65.842Z" transform="translate(-1.028 -28.658)" fill="#263238"/>
    <path id="Path_2455" data-name="Path 2455" d="M133.072,134.526h0a10.69,10.69,0,0,1,12,9.2l.48,3.671a10.006,10.006,0,0,1-8.626,11.218l-1.344.18a10.006,10.006,0,0,1-11.218-8.626l-.48-3.659a10.678,10.678,0,0,1,9.19-11.985Z" transform="translate(-9.499 -31.756)" fill="#a6a6a6"/>
    <rect id="Rectangle_558" data-name="Rectangle 558" width="22.723" height="2.328" transform="translate(136.648 115.431) rotate(172.54)" fill="#c7c7c7"/>
    <rect id="Rectangle_559" data-name="Rectangle 559" width="23.671" height="22.651" transform="matrix(-0.989, 0.146, -0.146, -0.989, 141.252, 145.589)" fill="#15ace5"/>
    <g id="freepik--aizgp2--inject-43-2" data-name="freepik--aizgp2--inject-43" transform="translate(119.692 127.832)">
      <path id="Path_2456" data-name="Path 2456" d="M124,158.642a10.7,10.7,0,0,1,1.2,3.215h0l2.879-.432h0v-.3a9.038,9.038,0,0,0-.372-1.14,9.525,9.525,0,0,0-.936-1.716H126.7l-2.675.408Z" transform="translate(-111.888 -154.826)" fill="#fff"/>
      <path id="Path_2457" data-name="Path 2457" d="M123.855,165.381h0l2.651-.408h0a8.218,8.218,0,0,0,.36-2.148,7.717,7.717,0,0,0,0-1.056v-.12h0l-2.855.432v.06a2.92,2.92,0,0,0,.06.72,7.176,7.176,0,0,1,0,1.14,10.605,10.605,0,0,1-.192,1.38Z" transform="translate(-110.519 -154.151)" fill="#fff"/>
      <path id="Path_2458" data-name="Path 2458" d="M130.41,166.965h0a9.2,9.2,0,0,0,.924.888,8.577,8.577,0,0,0,1.284.864,8.4,8.4,0,0,0,1.392.6,9.6,9.6,0,0,0,1.44.324,7.486,7.486,0,0,0,1.2.06h.108a8.649,8.649,0,0,1-2.4-1.74,9.515,9.515,0,0,1-1.092-1.32.084.084,0,0,0-.072,0l-2.723.42Z" transform="translate(-128.328 -153.155)" fill="#fff"/>
      <path id="Path_2459" data-name="Path 2459" d="M131.008,163.081l3.755-.528-.5-3.323h0l-2.927.444h0a9.023,9.023,0,0,0-.312,2.04v1.08A.766.766,0,0,0,131.008,163.081Z" transform="translate(-126.97 -154.634)" fill="#fff"/>
      <path id="Path_2460" data-name="Path 2460" d="M130.514,163.27a1.709,1.709,0,0,0,0,.24,2.217,2.217,0,0,0,.132.54,7.813,7.813,0,0,0,.252.744,9.13,9.13,0,0,0,.732,1.548h.084l2.987-.456h0l-.48-3.215Z" transform="translate(-126.321 -153.947)" fill="#fff"/>
      <path id="Path_2461" data-name="Path 2461" d="M127.15,159.168l.5,3.323,3.719-.564v-.252a3.072,3.072,0,0,0-.144-.54c-.06-.18-.18-.552-.288-.828a8.508,8.508,0,0,0-.78-1.548h-.072l-2.831.432Z" transform="translate(-118.961 -154.728)" fill="#fff"/>
      <path id="Path_2462" data-name="Path 2462" d="M127.051,162.724l.468,3.131h0l2.915-.432a.072.072,0,0,0,.06-.06,8.684,8.684,0,0,0,.252-1.752V162.1h0l-3.6.552S127.039,162.688,127.051,162.724Z" transform="translate(-118.214 -154.061)" fill="#fff"/>
      <path id="Path_2463" data-name="Path 2463" d="M134.716,163.653l3.119-.468a10.8,10.8,0,0,1,.216-3.455h0l-2.855.432h-.06a7.978,7.978,0,0,0-.408,2.2,9.82,9.82,0,0,0,0,1.2Z" transform="translate(-134.71 -154.534)" fill="#fff"/>
      <path id="Path_2464" data-name="Path 2464" d="M133.9,163.734v.216a2.935,2.935,0,0,0,.228.828,8.47,8.47,0,0,0,.864,1.788l.168.264h.06l2.855-.432h0l-.156-.276a10.464,10.464,0,0,1-.612-1.464,8.82,8.82,0,0,1-.3-1.1,2.7,2.7,0,0,1-.06-.264h0Z" transform="translate(-133.762 -153.823)" fill="#fff"/>
      <path id="Path_2465" data-name="Path 2465" d="M132.48,160.005h0l2.723-.42a.06.06,0,0,0,.06,0,9.526,9.526,0,0,1,1.044-2.208,8.844,8.844,0,0,1,.888-1.116l.516-.492h0v-.06a8.278,8.278,0,0,0-2.627,1.2,8.074,8.074,0,0,0-2.6,3.1Z" transform="translate(-131.694 -155.337)" fill="#fff"/>
      <path id="Path_2466" data-name="Path 2466" d="M124.4,169.677h.084a6.706,6.706,0,0,0,.864-.312,7.2,7.2,0,0,0,1.488-.828,7.846,7.846,0,0,0,1.452-1.3,7.461,7.461,0,0,0,.828-1.116,8.586,8.586,0,0,0,.48-.936h0l-2.543.384h0a9.12,9.12,0,0,1-.7,1.656,9.8,9.8,0,0,1-.912,1.38,8.148,8.148,0,0,1-.924,1.008Z" transform="translate(-113.884 -153.444)" fill="#fff"/>
      <path id="Path_2467" data-name="Path 2467" d="M125.7,155.448l.42.228a8.781,8.781,0,0,1,1.4.96,8.158,8.158,0,0,1,1.572,1.644l.084.12h.132l2.483-.372a8.194,8.194,0,0,0-6.131-2.627h0Z" transform="translate(-117.591 -155.399)" fill="#fff"/>
      <path id="Path_2468" data-name="Path 2468" d="M129.95,166.5a9.01,9.01,0,0,0,1.512,1.512,8.266,8.266,0,0,0,1.62,1l-.444-2.915Z" transform="translate(-124.029 -153.264)" fill="#fff"/>
      <path id="Path_2469" data-name="Path 2469" d="M127.47,166.066l.432,2.855a8.4,8.4,0,0,0,2.148-3.251Z" transform="translate(-118.022 -153.348)" fill="#fff"/>
      <path id="Path_2470" data-name="Path 2470" d="M131.49,159.319l2.579-.4-.42-2.723a7.906,7.906,0,0,0-1.2,1.428,8.781,8.781,0,0,0-.96,1.692Z" transform="translate(-126.865 -155.239)" fill="#fff"/>
      <path id="Path_2471" data-name="Path 2471" d="M128.71,156.16l.408,2.663,2.471-.372a7.882,7.882,0,0,0-2.879-2.291Z" transform="translate(-121.049 -155.247)" fill="#fff"/>
    </g>
    <path id="Path_2472" data-name="Path 2472" d="M118.446,214.623c-7.69,4.8-23.995,1.284-59.351-6-4.883-1.008-4.307-37.984.972-37.192,6.635,1.02,32.177,6.407,34,7.042C109.4,183.8,123.653,211.323,118.446,214.623Z" transform="translate(98.227 -24.368)" fill="#ffc4c0"/>
    <path id="Path_2473" data-name="Path 2473" d="M103.365,167.093a5.747,5.747,0,0,0,.756,6.527A8.518,8.518,0,0,0,100.2,177.9c-1.2,3.3,3.467,6.623,3.467,6.623a10.51,10.51,0,0,0-3.407,5.171c-.816,3.275,3.4,7.294,3.4,7.294a9.238,9.238,0,0,0-.132,6.443c2.184,5.507,11.074,7.2,16.712,8.242s22.687-1.056,25.974-1.14l7.354-36.16s-23.9-12.141-30.713-12.489C117.126,161.586,105.644,163.229,103.365,167.093Z" transform="translate(11.115 -26.279)" fill="#ffc4c0"/>
    <path id="Path_2474" data-name="Path 2474" d="M125.421,171.326c6.191-1.2,12.369-.408,18.6,0a.108.108,0,1,1,0,.216c-6.179-.456-12.369.312-18.548.108C125.313,171.614,125.253,171.35,125.421,171.326Z" transform="translate(-9.826 -24.514)" fill="#263238"/>
    <path id="Path_2475" data-name="Path 2475" d="M126.669,180.38a16.558,16.558,0,0,1,4.283.192c1.512.168,3.011.372,4.523.588,3.011.444,6,.948,8.986,1.548.132,0,.132.228,0,.216-3-.432-6-.828-9.022-1.128q-2.267-.24-4.535-.432a19.354,19.354,0,0,1-4.247-.564.216.216,0,0,1,.012-.42Z" transform="translate(-11.674 -22.59)" fill="#263238"/>
    <path id="Path_2476" data-name="Path 2476" d="M127.981,191.155a11.385,11.385,0,0,1,3.851.384l4.1.66c2.735.432,5.483.852,8.23,1.2.132,0,.12.228,0,.216-2.807-.324-5.6-.612-8.4-.96-1.38-.168-2.747-.348-4.115-.54a10.666,10.666,0,0,1-3.683-.8.084.084,0,0,1,.012-.156Z" transform="translate(-13.082 -20.432)" fill="#263238"/>
    <path id="Path_2477" data-name="Path 2477" d="M55.713,170.86l15.2,44.558s31.685,5.483,39.04-.144c4.8-3.707-8.674-32.525-26.058-37.1Z" transform="translate(106.876 -24.48)" fill="#37474f"/>
    <path id="Path_2478" data-name="Path 2478" d="M109.363,191.58a41.247,41.247,0,0,0-12.2-11.566c-6.383-3.863-29.022-8.4-33.365-9.214-.084,0-.144.12,0,.144,3.5,1.032,27.594,6.575,33.077,9.826a59.784,59.784,0,0,1,12.441,10.906C109.3,191.747,109.411,191.663,109.363,191.58Z" transform="translate(98.84 -24.492)" fill="#263238"/>
    <path id="Path_2479" data-name="Path 2479" d="M93.969,212.439c-1.416-4.907-3.1-9.73-4.8-14.553s-3.383-9.6-5.195-14.4c-1.02-2.7-2.028-5.411-3.155-8.074,0-.072-.144,0-.132,0,1.416,4.907,3.083,9.742,4.8,14.565s3.371,9.6,5.123,14.4c1,2.711,2.04,5.411,3.155,8.074C93.777,212.643,94,212.583,93.969,212.439Z" transform="translate(93.875 -23.576)" fill="#263238"/>
    <path id="Path_2480" data-name="Path 2480" d="M91.094,209.411a59.394,59.394,0,0,0-6.695-1.2l.18.168c-.348-.876-.708-1.74-1.14-2.579a26.7,26.7,0,0,0,.66,2.735v.132h.156a26.972,26.972,0,0,0,6.8.744Z" transform="translate(93.45 -17.501)" fill="#263238"/>
  </g>
  <g id="freepik--speech-bubbles--inject-43" transform="translate(301.755 20.452)">
    <path id="Path_2481" data-name="Path 2481" d="M104.1,82.552a26.178,26.178,0,0,1-41.787,21.019L49.45,106.847l5.339-12a26.178,26.178,0,1,1,49.309-12.3Z" transform="translate(84.78 -56.202)" fill="#15ace5"/>
    <path id="Path_2482" data-name="Path 2482" d="M104.962,82.587a26.238,26.238,0,0,1-3.971,13.689A27.762,27.762,0,0,1,98.9,99.215a28.279,28.279,0,0,1-2.507,2.579,24,24,0,0,1-5.927,4.031,24.846,24.846,0,0,1-10.354,2.627,23.718,23.718,0,0,1-3.6-.06,25.77,25.77,0,0,1-13.1-5.135l-.168-.12h-.2l-12.825,3.2.612.732,5.387-11.925.12-.252-.132-.252a26.01,26.01,0,0,1-3.011-11.1,25.711,25.711,0,0,1,2.136-11.338,26.958,26.958,0,0,1,6.875-9.3A25.794,25.794,0,0,1,72.5,57.536a26.154,26.154,0,0,1,11.649-.384,26.562,26.562,0,0,1,10.666,4.8A26.274,26.274,0,0,1,104.962,82.587Zm0,0a26.481,26.481,0,0,0-43.335-20.3,26.946,26.946,0,0,0-7.27,9.6,26.55,26.55,0,0,0,.828,23.431v-.5l-5.291,12-.444,1.008,1.056-.288,12.8-3.359-.36-.072a26.454,26.454,0,0,0,13.569,5,21.776,21.776,0,0,0,3.6,0,26.286,26.286,0,0,0,16.376-7.03,27.09,27.09,0,0,0,2.5-2.615,26.779,26.779,0,0,0,2.076-2.963,26.394,26.394,0,0,0,3.9-13.9Z" transform="translate(83.917 -56.237)" fill="#263238"/>
    <path id="Path_2483" data-name="Path 2483" d="M58.94,79.493a2.3,2.3,0,1,0,2.3-2.3,2.3,2.3,0,0,0-2.3,2.3Z" transform="translate(113.946 -52.052)" fill="#263238"/>
    <path id="Path_2484" data-name="Path 2484" d="M69.01,79.493a2.292,2.292,0,1,0,.667-1.628A2.3,2.3,0,0,0,69.01,79.493Z" transform="translate(91.795 -52.052)" fill="#263238"/>
    <path id="Path_2485" data-name="Path 2485" d="M79.09,79.493a2.3,2.3,0,1,0,.679-1.633,2.3,2.3,0,0,0-.679,1.633Z" transform="translate(69.621 -52.052)" fill="#263238"/>
    <path id="Path_2486" data-name="Path 2486" d="M212.167,172.386a16.2,16.2,0,0,1,2.783,8.974c0,11.386-12.5,20.612-27.906,20.612s-27.894-9.226-27.894-20.612,12.477-20.6,27.894-20.6a33.473,33.473,0,0,1,19.2,5.7l9.6-2.4Z" transform="translate(-158.571 -35.36)" fill="#fffefd"/>
    <path id="Path_2487" data-name="Path 2487" d="M212.5,172.468a16.449,16.449,0,0,1,2.627,8.494,15.957,15.957,0,0,1-2.4,8.506,25.2,25.2,0,0,1-14.085,10.354,37.12,37.12,0,0,1-17.648,1.14,31.193,31.193,0,0,1-8.47-2.675,26.155,26.155,0,0,1-7.2-5.039,18,18,0,0,1-4.571-7.378,14.817,14.817,0,0,1-.12-8.578,18.2,18.2,0,0,1,4.463-7.45,26.131,26.131,0,0,1,7.2-5.135,31.949,31.949,0,0,1,8.4-2.747,36.784,36.784,0,0,1,8.89-.612,32.633,32.633,0,0,1,16.8,5.423l.108.072h.12l9.6-2.567-.168-.2Zm0,0,3.851-8.314.12-.264-.288.072-9.6,2.315h.228a33.245,33.245,0,0,0-17.108-5.831,35.824,35.824,0,0,0-17.852,3.275,26.73,26.73,0,0,0-7.5,5.315,19.2,19.2,0,0,0-4.8,7.894,15.825,15.825,0,0,0,.084,9.262,19.448,19.448,0,0,0,4.895,7.834,27.343,27.343,0,0,0,7.57,5.219,33,33,0,0,0,8.758,2.723,38.151,38.151,0,0,0,9.13.444,37.409,37.409,0,0,0,8.962-1.824,29.287,29.287,0,0,0,8.122-4.175,21.967,21.967,0,0,0,6.155-6.719,16.461,16.461,0,0,0,2.184-8.782,16.268,16.268,0,0,0-2.915-8.446Z" transform="translate(-158.9 -35.442)" fill="#263238"/>
    <path id="Path_2488" data-name="Path 2488" d="M197.293,178.409a2.891,2.891,0,1,0-.843,2.052,2.891,2.891,0,0,0,.843-2.052Z" transform="translate(-178.849 -32.41)" fill="#263238"/>
    <path id="Path_2489" data-name="Path 2489" d="M186.537,178.413a2.891,2.891,0,1,0-.847,2.057,2.9,2.9,0,0,0,.847-2.057Z" transform="translate(-155.16 -32.414)" fill="#263238"/>
    <path id="Path_2490" data-name="Path 2490" d="M175.783,178.409a2.891,2.891,0,1,0-.843,2.052,2.891,2.891,0,0,0,.843-2.052Z" transform="translate(-131.533 -32.41)" fill="#263238"/>
  </g>
  <g id="freepik--magnifying-glass--inject-43" transform="translate(22.027 91.123)">
    <rect id="Rectangle_560" data-name="Rectangle 560" width="13.269" height="77.431" transform="matrix(0.743, 0.669, -0.669, 0.743, 80.67, 99.99)" fill="#c7c7c7"/>
    <path id="Path_2491" data-name="Path 2491" d="M412.363,289.046,397.45,275.621h0l36.184-40.191h0l14.913,13.425h0Z" transform="translate(-397.45 -91.116)" fill="#263238"/>
    <path id="Path_2492" data-name="Path 2492" d="M358.879,236.461a60.455,60.455,0,1,0-71.025-47.618,60.455,60.455,0,0,0,71.025,47.618Zm-1.344-6.791a53.532,53.532,0,1,1,42.159-62.878,53.532,53.532,0,0,1-42.159,62.878Z" transform="translate(-223.669 -114.834)" fill="#37474f"/>
    <path id="Path_2493" data-name="Path 2493" d="M286.621,162.589a62.554,62.554,0,1,0,8.794-19.8A62.554,62.554,0,0,0,286.621,162.589Zm117.454,28.866a58.679,58.679,0,1,1,.576-25.351A58.679,58.679,0,0,1,404.075,191.455Zm-110.724-27.21a55.356,55.356,0,0,0,64.45,67.5h0a55.269,55.269,0,1,0-64.45-67.5ZM357.105,228.2a51.793,51.793,0,1,1,32.933-21.955A51.793,51.793,0,0,1,357.105,228.2Z" transform="translate(-223.586 -115.143)" fill="#37474f"/>
    <g id="Group_234" data-name="Group 234" transform="translate(72.077 10.867)" opacity="0.2">
      <path id="Path_2494" data-name="Path 2494" d="M397.018,172.957a51.433,51.433,0,1,1-54.06-48.686,51.433,51.433,0,0,1,54.06,48.686Z" transform="translate(-294.221 -124.2)" fill="#fff"/>
      <path id="Path_2495" data-name="Path 2495" d="M356.787,176.92a51.493,51.493,0,0,1-61.427,38.392Z" transform="translate(-255.285 -113.67)" fill="#ebebeb"/>
      <path id="Path_2496" data-name="Path 2496" d="M394.3,137.579l-84.15,52.561a51.59,51.59,0,0,1-2.076-12,50.135,50.135,0,0,1,1.2-13.941L371.4,125.39a51.409,51.409,0,0,1,22.9,12.189Z" transform="translate(-307.962 -123.962)" fill="#ebebeb"/>
      <path id="Path_2497" data-name="Path 2497" d="M382.565,162.21,302.41,212.275a51.914,51.914,0,0,1-7.69-6.539l85.35-53.317a49.842,49.842,0,0,1,2.5,9.79Z" transform="translate(-280.296 -118.563)" fill="#ebebeb"/>
      <path id="Path_2498" data-name="Path 2498" d="M391.257,140.056l-86.5,53.988c-.264-.564-.516-1.2-.756-1.716l86.057-53.688C390.441,139.072,390.861,139.564,391.257,140.056Z" transform="translate(-300.121 -121.316)" fill="#ebebeb"/>
      <path id="Path_2499" data-name="Path 2499" d="M379.882,124.43,341.49,148.425c.8-1.308,1.692-2.579,2.615-3.815L375.3,125.1C376.87,124.8,378.346,124.574,379.882,124.43Z" transform="translate(-333.724 -124.154)" fill="#ebebeb"/>
    </g>
    <path id="Path_2500" data-name="Path 2500" d="M301.143,209.343a41.307,41.307,0,0,0,15.321-6.946,43.583,43.583,0,0,0,6.455-5.639,46.187,46.187,0,0,0,5.219-6.863,40.971,40.971,0,0,0,5.531-16.209,44.547,44.547,0,0,0-1.26-16.8,79.571,79.571,0,0,1-1.512,16.316,50.677,50.677,0,0,1-2.328,7.678,40.954,40.954,0,0,1-3.515,7.126,51.519,51.519,0,0,1-10.318,12.177,68.78,68.78,0,0,1-13.593,9.154Z" transform="translate(-167.324 -106.804)" fill="#fff"/>
  </g>
</svg>
