<svg xmlns="http://www.w3.org/2000/svg" width="50" height="50" viewBox="0 0 50 50">
  <g id="Group_32" data-name="Group 32" transform="translate(0)">
    <rect id="Rectangle_53" data-name="Rectangle 53" width="50" height="50" rx="25" transform="translate(0)" fill="#3498db"/>
    <g id="linkedin" transform="translate(18 17)">
      <path id="Path_2" data-name="Path 2" d="M18.164,17.824h0V12.331c0-2.687-.578-4.757-3.72-4.757a3.261,3.261,0,0,0-2.937,1.614h-.044V7.825H8.489v10h3.1V12.872c0-1.3.247-2.564,1.861-2.564,1.591,0,1.614,1.488,1.614,2.648v4.868Z" transform="translate(-3.192 -2.848)" fill="#fff"/>
      <path id="Path_3" data-name="Path 3" d="M.4,7.977H3.5v10H.4Z" transform="translate(-0.149 -2.999)" fill="#fff"/>
      <path id="Path_4" data-name="Path 4" d="M1.8,0A1.807,1.807,0,1,0,3.6,1.8,1.8,1.8,0,0,0,1.8,0Z" transform="translate(0)" fill="#fff"/>
    </g>
  </g>
</svg>
