<svg xmlns="http://www.w3.org/2000/svg" width="693.299" height="642.447" viewBox="0 0 693.299 642.447">
  <g id="Prototyping_process-bro" data-name="Prototyping process-bro" transform="translate(-17.267 -26.05)">
    <g id="freepik--background-simple--inject-39" transform="translate(17.267 26.05)" opacity="0.26">
      <path id="Path_198" data-name="Path 198" d="M482.429,38.52S368.757-1.711,257.186,62.348,89.278,253.546,40.931,355.395s-20.561,205.466,64.619,252.7,143.088-22.4,262.575-25.787,151.665,13.61,250.885-53.578,117.064-225.874,38.86-343.276S482.429,38.52,482.429,38.52Z" transform="translate(-17.267 -26.05)" fill="#15ace5"/>
      <path id="Path_199" data-name="Path 199" d="M482.429,38.52S368.757-1.711,257.186,62.348,89.278,253.546,40.931,355.395s-20.561,205.466,64.619,252.7,143.088-22.4,262.575-25.787,151.665,13.61,250.885-53.578,117.064-225.874,38.86-343.276S482.429,38.52,482.429,38.52Z" transform="translate(-17.267 -26.05)" fill="#fff" opacity="0.7"/>
    </g>
    <g id="freepik--Plants--inject-39" transform="translate(48.117 401.089)">
      <path id="Path_200" data-name="Path 200" d="M42.175,283.3s2.732,5.184.308,10.045-5.478,9.737-3.657,12.175,7.343,5.478,6.7,10.647-7.916,15.523-3.348,21.31,12.175,5.478,12.483,11.867-7.343,11.558-5.184,17.344,14.686,7.005,14.686,10.956-4.876,8.224-.911,12.483,23.087,15.376,25.76,10.809,8.254-17.2,4.626-35.13c-.617-3.011-4.905-3.686-5.507-7.945S89.347,346,86.307,341.707s-12.792-5.786-13.394-9.135,3.642-11.558-.617-16.728-14.3-7.578-14.3-10.956,3.055-7.608-1.2-12.175S42.175,283.3,42.175,283.3Z" transform="translate(-38.273 -283.3)" fill="#15ace5"/>
      <path id="Path_201" data-name="Path 201" d="M50.85,307.72c6.344,19.092,17.447,45.043,21.956,57.57,5.478,15.215,10.28,26.23,12.674,41.445s3.774,117.123,3.774,117.123" transform="translate(-32.38 -271.856)" fill="none" stroke="#263238" stroke-linecap="round" stroke-linejoin="round" stroke-width="1"/>
      <path id="Path_202" data-name="Path 202" d="M42,284.55s5.17,4.259,9.737,22.822c.294,1.19.632,2.453,1,3.789" transform="translate(-36.527 -282.714)" fill="none" stroke="#263238" stroke-linecap="round" stroke-linejoin="round" stroke-width="1"/>
      <path id="Path_203" data-name="Path 203" d="M119.145,306.91a9.6,9.6,0,0,0-.235,8.048c1.939,3.892,4.406,7.784,2.937,9.737s-5.874,4.406-5.36,8.518,6.33,12.425,2.673,17.051-9.737,4.406-9.987,9.5,5.874,9.252,4.142,13.879-11.749,5.61-11.749,8.812,3.907,6.579.734,9.987-18.446,12.263-20.634,8.591-6.594-13.761-3.7-28.109c.485-2.409,3.921-2.937,4.406-6.359s-.969-9.5,1.469-12.909,10.28-4.626,10.706-7.343-2.937-9.252.485-13.394,11.455-6.095,11.455-8.812-2.438-6.095.969-9.752S119.145,306.91,119.145,306.91Z" transform="translate(-20.12 -272.236)" fill="#15ace5"/>
      <path id="Path_204" data-name="Path 204" d="M107.578,326.45c-5.067,15.318-13.952,36.055-17.623,46.071-4.406,12.19-8.195,21-10.133,33.176s-3.011,93.728-3.011,93.728" transform="translate(-20.214 -263.079)" fill="none" stroke="#263238" stroke-linecap="round" stroke-linejoin="round" stroke-width="1"/>
      <path id="Path_205" data-name="Path 205" d="M107.611,307.91s-4.142,3.407-7.784,18.27c-.235.954-.514,1.968-.808,3.025" transform="translate(-9.806 -271.767)" fill="none" stroke="#263238" stroke-linecap="round" stroke-linejoin="round" stroke-width="1"/>
      <path id="Path_206" data-name="Path 206" d="M49.515,353.87a8.048,8.048,0,0,1,.206,6.712c-1.63,3.26-3.672,6.506-2.453,8.136s4.891,3.672,4.479,7.123-5.287,10.383-2.232,14.246,8.136,3.657,8.342,7.931-4.935,7.74-3.466,11.6,9.766,4.685,9.766,7.343-3.246,5.493-.6,8.342,15.435,10.28,17.271,7.226,5.522-11.5,3.084-23.5c-.4-2.012-3.26-2.467-3.672-5.316s.808-7.931-1.219-10.78-8.547-3.862-8.959-6.11,2.438-7.725-.411-11.191-9.561-5.081-9.561-7.343,2.041-5.1-.808-8.151S49.515,353.87,49.515,353.87Z" transform="translate(-34.232 -250.229)" fill="#15ace5"/>
      <path id="Path_207" data-name="Path 207" d="M55.31,370.2C59.554,382.992,66.971,400.307,70,408.678c3.672,10.177,6.858,17.623,8.474,27.713S81,484.327,81,484.327" transform="translate(-30.289 -242.577)" fill="none" stroke="#263238" stroke-linecap="round" stroke-linejoin="round" stroke-width="1"/>
      <path id="Path_208" data-name="Path 208" d="M49.37,354.7s3.466,2.849,6.506,15.259c.206.808.426,1.645.676,2.526" transform="translate(-33.073 -249.84)" fill="none" stroke="#263238" stroke-linecap="round" stroke-linejoin="round" stroke-width="1"/>
      <path id="Path_209" data-name="Path 209" d="M135.835,350.42a8,8,0,0,0-1.733,6.491c.837,3.539,2.085,7.167.514,8.474s-5.581,2.453-5.977,5.874,2.776,11.308-1.087,14.378-8.812,1.689-9.943,5.874,2.937,8.636.72,12.072-10.574,2.32-11.191,4.905,1.924,6.08-1.307,8.254-17.33,6.491-18.461,3.069-2.732-12.454,2.364-23.571c.866-1.865,3.76-1.645,4.8-4.332s1.028-7.9,3.657-10.207,9.208-1.821,10.119-3.907-.617-8.077,2.937-10.794,10.471-2.761,10.985-4.949-.822-5.4,2.658-7.725S135.835,350.42,135.835,350.42Z" transform="translate(-15.81 -251.846)" fill="#15ace5"/>
      <path id="Path_210" data-name="Path 210" d="M122.676,364.79c-7.049,11.485-18.24,26.655-23.087,34.116-5.875,9.061-12.968,14.862-14.6,25.04s-2.511,47.936-2.511,47.936" transform="translate(-17.557 -245.112)" fill="none" stroke="#263238" stroke-linecap="round" stroke-linejoin="round" stroke-width="1"/>
      <path id="Path_211" data-name="Path 211" d="M122.713,351.07s-4.024,1.983-9.825,13.365c-.382.734-.793,1.469-1.248,2.306" transform="translate(-3.892 -251.541)" fill="none" stroke="#263238" stroke-linecap="round" stroke-linejoin="round" stroke-width="1"/>
      <path id="Path_212" data-name="Path 212" d="M77.314,485.166H99.946c11.911-6.139,20.37-21.677,20.37-39.9a50.77,50.77,0,0,0-9.517-30.5H66.461A50.77,50.77,0,0,0,57,445.263C57,463.489,65.4,479.027,77.314,485.166Z" transform="translate(-29.5 -221.695)" fill="#fff" stroke="#263238" stroke-linecap="round" stroke-linejoin="round" stroke-width="1"/>
      <rect id="Rectangle_137" data-name="Rectangle 137" width="23.043" height="3.378" transform="translate(47.814 263.471)" fill="#fff" stroke="#263238" stroke-linecap="round" stroke-linejoin="round" stroke-width="1"/>
    </g>
    <g id="freepik--Board--inject-39" transform="translate(72.301 97.939)">
      <rect id="Rectangle_138" data-name="Rectangle 138" width="360.753" height="273.046" fill="none" stroke="#263238" stroke-linecap="round" stroke-linejoin="round" stroke-width="1"/>
      <rect id="Rectangle_139" data-name="Rectangle 139" width="343.908" height="258.581" transform="translate(8.415 7.24)" fill="none" stroke="#263238" stroke-linecap="round" stroke-linejoin="round" stroke-width="1"/>
      <path id="Path_213" data-name="Path 213" d="M152.044,106.069S95.855,102,91.126,110.813s-1.366,169.92,1.351,171.946,78.527,3.378,85.973.676-2.688-166.542-2.688-171.286-17.623-6.77-17.623-6.77" transform="translate(-38.799 -60.88)" fill="none" stroke="#263238" stroke-linecap="round" stroke-linejoin="round" stroke-width="2"/>
      <path id="Path_214" data-name="Path 214" d="M94.32,235.452c.117,21.236.573,36.8,1.645,37.23,3.378,1.351,75.135,7.446,77.161.676S167.707,113.6,167.707,113.6" transform="translate(-36.192 -56.911)" fill="none" stroke="#263238" stroke-linecap="round" stroke-linejoin="round" stroke-width="2"/>
      <path id="Path_215" data-name="Path 215" d="M165.01,113.467s-68.364-2.7-69.025.676c-.441,2.159-1.689,65.589-1.674,111.7" transform="translate(-36.197 -57.453)" fill="none" stroke="#263238" stroke-linecap="round" stroke-linejoin="round" stroke-width="2"/>
      <line id="Line_10" data-name="Line 10" x2="66.338" transform="translate(61.8 68.203)" fill="none" stroke="#263238" stroke-linecap="round" stroke-linejoin="round" stroke-width="2"/>
      <path id="Path_216" data-name="Path 216" d="M155.774,122.69c-4.053,4.288,0,0,2.717-6.124s-2.717,1.219-8.812,6.124-2.7,1.234-.676-5.507-2.027,0-7.446,4.288-2.7,2.453-.676-4.905,0,0-8.121,4.905-4.068,4.891,0-2.453-2.7,0-10.148,2.453,0,0,2.7-6.741-4.744,1.836-10.148,5.507,0,0,1.351-4.288-3.393,1.234-8.812,6.741,0,0,.676-4.905-6.095,7.975-6.095,7.975,2.027-12.263.676-9.194a26.435,26.435,0,0,1-3.393,5.507" transform="translate(-33.732 -57.557)" fill="none" stroke="#15ace5" stroke-linecap="round" stroke-linejoin="round" stroke-width="2"/>
      <rect id="Rectangle_140" data-name="Rectangle 140" width="33.176" height="34.527" transform="translate(65.178 79.702)" fill="none" stroke="#15ace5" stroke-linecap="round" stroke-linejoin="round" stroke-width="2"/>
      <path id="Path_217" data-name="Path 217" d="M105.89,129.27l-5.4,6.095,11.5-4.053-11.5,10.824,18.945-12.19-18.945,20.311L126.2,131.311,99.12,156.351l32.5-22.338L99.12,163.8l32.5-21.662-23.013,20.311L132.3,149.581,117.4,161.771l14.216-4.744-2.717,4.744" transform="translate(-33.942 -49.568)" fill="none" stroke="#15ace5" stroke-linecap="round" stroke-linejoin="round" stroke-width="2"/>
      <rect id="Rectangle_141" data-name="Rectangle 141" width="25.363" height="26.406" transform="translate(101.585 185.311)" fill="none" stroke="#15ace5" stroke-linecap="round" stroke-linejoin="round" stroke-width="2"/>
      <path id="Path_218" data-name="Path 218" d="M129.08,201.18l-4.142,4.656,8.8-3.1-8.8,8.283,14.5-9.326-14.5,15.538,19.665-14.5L123.91,221.888l24.834-17.08L123.91,227.586l24.834-16.566L131.15,226.543l18.123-9.84-11.4,9.326,10.868-3.628-2.071,3.628" transform="translate(-22.325 -15.869)" fill="none" stroke="#15ace5" stroke-linecap="round" stroke-linejoin="round" stroke-width="2"/>
      <line id="Line_11" data-name="Line 11" x2="64.987" transform="translate(64.502 127.095)" fill="none" stroke="#263238" stroke-linecap="round" stroke-linejoin="round" stroke-width="2"/>
      <line id="Line_12" data-name="Line 12" x2="64.311" y2="0.676" transform="translate(63.826 133.189)" fill="none" stroke="#263238" stroke-linecap="round" stroke-linejoin="round" stroke-width="2"/>
      <line id="Line_13" data-name="Line 13" x2="20.987" transform="translate(105.124 81.744)" fill="none" stroke="#263238" stroke-linecap="round" stroke-linejoin="round" stroke-width="2"/>
      <line id="Line_14" data-name="Line 14" x2="20.987" transform="translate(105.124 89.865)" fill="none" stroke="#263238" stroke-linecap="round" stroke-linejoin="round" stroke-width="2"/>
      <line id="Line_15" data-name="Line 15" x2="20.987" transform="translate(105.124 97.987)" fill="none" stroke="#263238" stroke-linecap="round" stroke-linejoin="round" stroke-width="2"/>
      <line id="Line_16" data-name="Line 16" x2="20.987" transform="translate(105.124 106.108)" fill="none" stroke="#263238" stroke-linecap="round" stroke-linejoin="round" stroke-width="2"/>
      <rect id="Rectangle_142" data-name="Rectangle 142" width="62.96" height="30.459" transform="translate(65.178 137.243)" fill="none" stroke="#15ace5" stroke-linecap="round" stroke-linejoin="round" stroke-width="2"/>
      <path id="Path_219" data-name="Path 219" d="M99.091,174.545l8.8-5.419L97.74,184.693l16.919-15.567L99.767,191.478l26.406-23.028-23.013,27.081,28.433-26.406L109.93,195.531l31.135-27.081-25.04,29.784,31.135-29.108L123.47,196.883l31.81-28.433-24.364,29.784,31.81-29.784-23.013,29.108,21.662-18.945-14.216,17.594,14.216-9.473-2.79,4.523-2.629,4.274" transform="translate(-34.589 -31.207)" fill="none" stroke="#15ace5" stroke-linecap="round" stroke-linejoin="round" stroke-width="2"/>
      <line id="Line_17" data-name="Line 17" x2="58.216" transform="translate(67.894 175.838)" fill="none" stroke="#263238" stroke-linecap="round" stroke-linejoin="round" stroke-width="2"/>
      <line id="Line_18" data-name="Line 18" x2="18.945" transform="translate(66.543 183.284)" fill="none" stroke="#263238" stroke-linecap="round" stroke-linejoin="round" stroke-width="2"/>
      <line id="Line_19" data-name="Line 19" y1="5.713" x2="46.467" transform="translate(139.651 54.368)" fill="none" stroke="#263238" stroke-linecap="round" stroke-linejoin="round" stroke-width="2"/>
      <line id="Line_20" data-name="Line 20" x2="48.729" transform="translate(132.206 93.243)" fill="none" stroke="#263238" stroke-linecap="round" stroke-linejoin="round" stroke-width="2"/>
      <line id="Line_21" data-name="Line 21" x1="20.987" y2="7.446" transform="translate(34.043 154.852)" fill="none" stroke="#263238" stroke-linecap="round" stroke-linejoin="round" stroke-width="2"/>
      <path id="Path_220" data-name="Path 220" d="M132.836,222.38s-4.053,20.987,23.689,26.435" transform="translate(-18.239 -5.934)" fill="none" stroke="#263238" stroke-linecap="round" stroke-linejoin="round" stroke-width="2"/>
      <path id="Path_221" data-name="Path 221" d="M147.007,236.67l6.77,6.095-9.487,2.7" transform="translate(-12.775 0.762)" fill="none" stroke="#263238" stroke-linecap="round" stroke-linejoin="round" stroke-width="2"/>
      <path id="Path_222" data-name="Path 222" d="M173.79,134.34l10.838,6.77-9.473,4.068" transform="translate(1.05 -47.192)" fill="none" stroke="#263238" stroke-linecap="round" stroke-linejoin="round" stroke-width="2"/>
      <path id="Path_223" data-name="Path 223" d="M175.48,110.64l11.5,1.351-8.122,7.446" transform="translate(1.842 -58.298)" fill="none" stroke="#263238" stroke-linecap="round" stroke-linejoin="round" stroke-width="2"/>
      <path id="Path_224" data-name="Path 224" d="M83.429,180.9l-11.5,9.473,14.216.676" transform="translate(-46.684 -25.373)" fill="none" stroke="#263238" stroke-linecap="round" stroke-linejoin="round" stroke-width="2"/>
      <rect id="Rectangle_143" data-name="Rectangle 143" width="25.73" height="27.081" transform="translate(189.056 87.148)" fill="#15ace5"/>
      <line id="Line_22" data-name="Line 22" x2="14.892" y2="0.676" transform="translate(195.151 93.243)" fill="none" stroke="#263238" stroke-linecap="round" stroke-linejoin="round" stroke-width="2"/>
      <line id="Line_23" data-name="Line 23" x2="14.892" y2="0.676" transform="translate(195.151 98.662)" fill="none" stroke="#263238" stroke-linecap="round" stroke-linejoin="round" stroke-width="2"/>
      <line id="Line_24" data-name="Line 24" x2="14.892" y2="0.676" transform="translate(195.151 104.081)" fill="none" stroke="#263238" stroke-linecap="round" stroke-linejoin="round" stroke-width="2"/>
      <rect id="Rectangle_144" data-name="Rectangle 144" width="25.73" height="27.081" transform="translate(148.315 126.651) rotate(-6.73)" fill="#15ace5"/>
      <line id="Line_25" data-name="Line 25" y1="1.072" x2="14.862" transform="translate(155.072 130.928)" fill="none" stroke="#263238" stroke-linecap="round" stroke-linejoin="round" stroke-width="2"/>
      <line id="Line_26" data-name="Line 26" y1="1.072" x2="14.862" transform="translate(155.703 136.303)" fill="none" stroke="#263238" stroke-linecap="round" stroke-linejoin="round" stroke-width="2"/>
      <line id="Line_27" data-name="Line 27" y1="1.072" x2="14.877" transform="translate(156.335 141.678)" fill="none" stroke="#263238" stroke-linecap="round" stroke-linejoin="round" stroke-width="2"/>
      <rect id="Rectangle_145" data-name="Rectangle 145" width="25.73" height="27.081" transform="translate(14.976 172.685) rotate(-6.73)" fill="#15ace5"/>
      <line id="Line_28" data-name="Line 28" y1="1.072" x2="14.877" transform="translate(21.706 176.954)" fill="none" stroke="#263238" stroke-linecap="round" stroke-linejoin="round" stroke-width="2"/>
      <line id="Line_29" data-name="Line 29" y1="1.072" x2="14.877" transform="translate(22.338 182.344)" fill="none" stroke="#263238" stroke-linecap="round" stroke-linejoin="round" stroke-width="2"/>
      <line id="Line_30" data-name="Line 30" y1="1.072" x2="14.862" transform="translate(22.984 187.719)" fill="none" stroke="#263238" stroke-linecap="round" stroke-linejoin="round" stroke-width="2"/>
      <rect id="Rectangle_146" data-name="Rectangle 146" width="25.73" height="27.081" transform="translate(147.897 223.292) rotate(6.07)" fill="#15ace5"/>
      <line id="Line_31" data-name="Line 31" x2="14.73" y2="2.247" transform="translate(153.339 229.986)" fill="none" stroke="#263238" stroke-linecap="round" stroke-linejoin="round" stroke-width="2"/>
      <line id="Line_32" data-name="Line 32" x2="14.73" y2="2.247" transform="translate(152.766 235.376)" fill="none" stroke="#263238" stroke-linecap="round" stroke-linejoin="round" stroke-width="2"/>
      <line id="Line_33" data-name="Line 33" x2="14.73" y2="2.247" transform="translate(152.193 240.766)" fill="none" stroke="#263238" stroke-linecap="round" stroke-linejoin="round" stroke-width="2"/>
      <rect id="Rectangle_147" data-name="Rectangle 147" width="360.738" height="9.223" transform="translate(0 273.047)" fill="#263238" stroke="#263238" stroke-linecap="round" stroke-linejoin="round" stroke-width="1"/>
    </g>
    <g id="freepik--Device--inject-39" transform="translate(444.861 270.942)">
      <path id="Path_225" data-name="Path 225" d="M417.947,311.422V294.21h-51.8v17.212a24.57,24.57,0,0,1-5.507,15.479l-2.262,2.805h67.336l-2.262-2.805a24.57,24.57,0,0,1-5.507-15.479Z" transform="translate(-285.008 -146.76)" fill="#263238" stroke="#263238" stroke-linecap="round" stroke-linejoin="round" stroke-width="1"/>
      <path id="Path_226" data-name="Path 226" d="M415.947,311.422V294.21h-51.8v17.212a24.57,24.57,0,0,1-5.507,15.479l-2.262,2.805h67.336l-2.262-2.805a24.569,24.569,0,0,1-5.507-15.479Z" transform="translate(-285.945 -146.76)" fill="#fff" stroke="#263238" stroke-linecap="round" stroke-linejoin="round" stroke-width="1"/>
      <rect id="Rectangle_148" data-name="Rectangle 148" width="52.004" height="5.272" transform="translate(78.41 152.311)" fill="#263238"/>
      <rect id="Rectangle_149" data-name="Rectangle 149" width="208.192" height="152.869" rx="8.48" fill="#263238" stroke="#263238" stroke-linecap="round" stroke-linejoin="round" stroke-width="1"/>
      <rect id="Rectangle_150" data-name="Rectangle 150" width="208.192" height="152.869" rx="8.48" transform="translate(5.595)" fill="#263238" stroke="#263238" stroke-linecap="round" stroke-linejoin="round" stroke-width="1"/>
      <path id="Path_227" data-name="Path 227" d="M308.42,281.72H516.627v11.308a12.454,12.454,0,0,1-12.454,12.454H320.889a12.454,12.454,0,0,1-12.454-12.454V281.72Z" transform="translate(-308.42 -152.613)" fill="#fff" stroke="#263238" stroke-linecap="round" stroke-linejoin="round" stroke-width="1"/>
      <rect id="Rectangle_151" data-name="Rectangle 151" width="187.249" height="108.003" transform="translate(10.471 9.517)" fill="#fff"/>
      <rect id="Rectangle_152" data-name="Rectangle 152" width="45.762" height="85.004" rx="3.04" transform="translate(34.336 20.766)" fill="#263238"/>
      <rect id="Rectangle_153" data-name="Rectangle 153" width="38.081" height="70.729" transform="translate(38.184 27.889)" fill="#15ace5"/>
      <rect id="Rectangle_154" data-name="Rectangle 154" width="34.469" height="3.569" transform="translate(91.995 29.079)" fill="#263238"/>
      <rect id="Rectangle_155" data-name="Rectangle 155" width="16.052" height="16.64" transform="translate(92.597 36.818)" fill="#15ace5"/>
      <rect id="Rectangle_156" data-name="Rectangle 156" width="8.591" height="8.915" transform="translate(115.493 87.926)" fill="#15ace5"/>
      <rect id="Rectangle_157" data-name="Rectangle 157" width="32.692" height="16.64" transform="translate(92.993 65.339)" fill="#15ace5"/>
      <line id="Line_34" data-name="Line 34" x2="13.071" transform="translate(111.615 38.008)" fill="none" stroke="#263238" stroke-linecap="round" stroke-linejoin="round" stroke-width="1"/>
      <line id="Line_35" data-name="Line 35" x2="13.071" transform="translate(111.615 42.164)" fill="none" stroke="#263238" stroke-linecap="round" stroke-linejoin="round" stroke-width="1"/>
      <line id="Line_36" data-name="Line 36" x2="13.071" transform="translate(111.615 46.32)" fill="none" stroke="#263238" stroke-linecap="round" stroke-linejoin="round" stroke-width="1"/>
      <line id="Line_37" data-name="Line 37" x2="13.071" transform="translate(111.615 50.477)" fill="none" stroke="#263238" stroke-linecap="round" stroke-linejoin="round" stroke-width="1"/>
      <line id="Line_38" data-name="Line 38" x2="31.502" transform="translate(93.581 59.993)" fill="none" stroke="#263238" stroke-linecap="round" stroke-linejoin="round" stroke-width="1"/>
      <line id="Line_39" data-name="Line 39" x2="31.502" transform="translate(93.581 86.149)" fill="none" stroke="#263238" stroke-linecap="round" stroke-linejoin="round" stroke-width="1"/>
      <rect id="Rectangle_158" data-name="Rectangle 158" width="40.417" height="74.9" transform="translate(89.028 25.525)" fill="none" stroke="#263238" stroke-linecap="round" stroke-linejoin="round" stroke-width="1"/>
      <rect id="Rectangle_159" data-name="Rectangle 159" width="38.037" height="27.933" transform="translate(140.738 25.525)" fill="#bfbfbf"/>
      <rect id="Rectangle_160" data-name="Rectangle 160" width="38.037" height="5.948" transform="translate(140.738 25.525)" fill="#263238"/>
      <rect id="Rectangle_161" data-name="Rectangle 161" width="9.943" height="9.619" transform="translate(143.69 35.79)" fill="none" stroke="#263238" stroke-linecap="round" stroke-linejoin="round" stroke-width="1"/>
      <rect id="Rectangle_162" data-name="Rectangle 162" width="9.943" height="9.619" transform="translate(163.575 35.79)" fill="none" stroke="#263238" stroke-linecap="round" stroke-linejoin="round" stroke-width="1"/>
      <path id="Path_228" data-name="Path 228" d="M428.6,213.959a1.469,1.469,0,1,1-1.469-1.469A1.469,1.469,0,0,1,428.6,213.959Z" transform="translate(-253.479 -185.056)" fill="#fff"/>
      <circle id="Ellipse_94" data-name="Ellipse 94" cx="1.439" cy="1.439" r="1.439" transform="translate(165.338 27.463)" fill="#fff"/>
      <rect id="Rectangle_163" data-name="Rectangle 163" width="29.123" height="21.398" transform="translate(146.613 68.599)" fill="#bfbfbf"/>
      <rect id="Rectangle_164" data-name="Rectangle 164" width="29.123" height="4.553" transform="translate(146.613 68.599)" fill="#263238"/>
      <path id="Path_229" data-name="Path 229" d="M426.892,242.631a1.116,1.116,0,1,1-1.116-1.1,1.116,1.116,0,0,1,1.116,1.1Z" transform="translate(-253.947 -171.447)" fill="#fff"/>
      <path id="Path_230" data-name="Path 230" d="M423.283,242.631a1.1,1.1,0,1,1-1.1-1.1,1.1,1.1,0,0,1,1.1,1.1Z" transform="translate(-255.625 -171.447)" fill="#fff"/>
      <rect id="Rectangle_165" data-name="Rectangle 165" width="12.234" height="95.945" transform="translate(16.639 15.186)" fill="#bfbfbf"/>
      <rect id="Rectangle_166" data-name="Rectangle 166" width="12.234" height="4.406" transform="translate(16.639 15.186)" fill="#263238"/>
      <rect id="Rectangle_167" data-name="Rectangle 167" width="5.874" height="6.858" transform="translate(19.577 22.529)" fill="none" stroke="#263238" stroke-linecap="round" stroke-linejoin="round" stroke-width="1"/>
      <rect id="Rectangle_168" data-name="Rectangle 168" width="5.874" height="6.858" transform="translate(19.577 33.778)" fill="none" stroke="#263238" stroke-linecap="round" stroke-linejoin="round" stroke-width="1"/>
      <rect id="Rectangle_169" data-name="Rectangle 169" width="5.874" height="6.858" transform="translate(19.577 45.043)" fill="none" stroke="#263238" stroke-linecap="round" stroke-linejoin="round" stroke-width="1"/>
      <rect id="Rectangle_170" data-name="Rectangle 170" width="5.874" height="6.858" transform="translate(19.577 56.307)" fill="none" stroke="#263238" stroke-linecap="round" stroke-linejoin="round" stroke-width="1"/>
      <rect id="Rectangle_171" data-name="Rectangle 171" width="5.874" height="6.858" transform="translate(19.577 67.557)" fill="none" stroke="#263238" stroke-linecap="round" stroke-linejoin="round" stroke-width="1"/>
      <rect id="Rectangle_172" data-name="Rectangle 172" width="5.874" height="6.858" transform="translate(19.577 78.821)" fill="none" stroke="#263238" stroke-linecap="round" stroke-linejoin="round" stroke-width="1"/>
      <rect id="Rectangle_173" data-name="Rectangle 173" width="5.874" height="6.858" transform="translate(19.577 90.085)" fill="none" stroke="#263238" stroke-linecap="round" stroke-linejoin="round" stroke-width="1"/>
      <rect id="Rectangle_174" data-name="Rectangle 174" width="5.874" height="6.858" transform="translate(19.577 101.335)" fill="none" stroke="#263238" stroke-linecap="round" stroke-linejoin="round" stroke-width="1"/>
      <rect id="Rectangle_175" data-name="Rectangle 175" width="155.674" height="3.921" transform="translate(36.716 14.202)" fill="#bfbfbf"/>
      <rect id="Rectangle_176" data-name="Rectangle 176" width="155.674" height="3.921" transform="translate(36.716 109.177)" fill="#bfbfbf"/>
      <rect id="Rectangle_177" data-name="Rectangle 177" width="67.351" height="3.069" transform="translate(70.435 182.946)" fill="#263238" stroke="#263238" stroke-linecap="round" stroke-linejoin="round" stroke-width="1"/>
      <rect id="Rectangle_178" data-name="Rectangle 178" width="156.364" height="5.581" transform="translate(25.451 180.435)" fill="#fff" stroke="#263238" stroke-linecap="round" stroke-linejoin="round" stroke-width="1"/>
    </g>
    <g id="freepik--Desk--inject-39" transform="translate(301.906 454.987)">
      <path id="Path_231" data-name="Path 231" d="M233.386,527.172h-6.359L223.84,332.33h12.733Z" transform="translate(-205.1 -314.222)" fill="#fff" stroke="#263238" stroke-linecap="round" stroke-linejoin="round" stroke-width="1"/>
      <path id="Path_232" data-name="Path 232" d="M231.235,527.172H228.43l.382-194.842h5.61Z" transform="translate(-202.949 -314.222)" fill="#263238" stroke="#263238" stroke-linecap="round" stroke-linejoin="round" stroke-width="1"/>
      <path id="Path_233" data-name="Path 233" d="M295.116,527.172h-6.359L285.57,332.33H298.3Z" transform="translate(-176.172 -314.222)" fill="#fff" stroke="#263238" stroke-linecap="round" stroke-linejoin="round" stroke-width="1"/>
      <path id="Path_234" data-name="Path 234" d="M292.965,527.172H290.16l.382-194.842h5.61Z" transform="translate(-174.021 -314.222)" fill="#263238" stroke="#263238" stroke-linecap="round" stroke-linejoin="round" stroke-width="1"/>
      <path id="Path_235" data-name="Path 235" d="M273.016,527.172h-6.374L263.47,332.33h12.718Z" transform="translate(-186.529 -314.222)" fill="#263238" stroke="#263238" stroke-linecap="round" stroke-linejoin="round" stroke-width="1"/>
      <path id="Path_236" data-name="Path 236" d="M270.865,527.172H268.06l.367-194.842h5.61Z" transform="translate(-184.378 -314.222)" fill="#263238" stroke="#263238" stroke-linecap="round" stroke-linejoin="round" stroke-width="1"/>
      <path id="Path_237" data-name="Path 237" d="M314.726,527.172h-6.374L305.18,332.33H317.9Z" transform="translate(-166.983 -314.222)" fill="#263238" stroke="#263238" stroke-linecap="round" stroke-linejoin="round" stroke-width="1"/>
      <path id="Path_238" data-name="Path 238" d="M312.58,527.172h-2.82l.382-194.842h5.61Z" transform="translate(-164.836 -314.222)" fill="#263238" stroke="#263238" stroke-linecap="round" stroke-linejoin="round" stroke-width="1"/>
      <rect id="Rectangle_179" data-name="Rectangle 179" width="99.837" height="121.896" transform="translate(52.68 21.089)" fill="#263238" stroke="#263238" stroke-linecap="round" stroke-linejoin="round" stroke-width="1"/>
      <rect id="Rectangle_180" data-name="Rectangle 180" width="99.837" height="121.896" transform="translate(25.113 21.089)" fill="#fff" stroke="#263238" stroke-linecap="round" stroke-linejoin="round" stroke-width="1"/>
      <path id="Path_239" data-name="Path 239" d="M436.506,527.172h-6.359L426.96,332.33h12.733Z" transform="translate(-109.914 -314.222)" fill="#fff" stroke="#263238" stroke-linecap="round" stroke-linejoin="round" stroke-width="1"/>
      <path id="Path_240" data-name="Path 240" d="M434.355,527.172H431.55l.382-194.842h5.61Z" transform="translate(-107.763 -314.222)" fill="#263238" stroke="#263238" stroke-linecap="round" stroke-linejoin="round" stroke-width="1"/>
      <path id="Path_241" data-name="Path 241" d="M476.136,527.172h-6.374L466.59,332.33h12.718Z" transform="translate(-91.342 -314.222)" fill="#263238" stroke="#263238" stroke-linecap="round" stroke-linejoin="round" stroke-width="1"/>
      <path id="Path_242" data-name="Path 242" d="M473.985,527.172H471.18l.367-194.842h5.61Z" transform="translate(-89.191 -314.222)" fill="#263238" stroke="#263238" stroke-linecap="round" stroke-linejoin="round" stroke-width="1"/>
      <rect id="Rectangle_181" data-name="Rectangle 181" width="381.637" height="13.409" transform="translate(10.354 10.765)" fill="#fff" stroke="#263238" stroke-linecap="round" stroke-linejoin="round" stroke-width="1"/>
      <rect id="Rectangle_182" data-name="Rectangle 182" width="381.637" height="6.697" transform="translate(10.354 10.765)" fill="#263238" stroke="#263238" stroke-linecap="round" stroke-linejoin="round" stroke-width="1"/>
      <rect id="Rectangle_183" data-name="Rectangle 183" width="56.336" height="13.409" transform="translate(335.654 10.765)" fill="#263238" stroke="#263238" stroke-linecap="round" stroke-linejoin="round" stroke-width="1"/>
      <rect id="Rectangle_184" data-name="Rectangle 184" width="404.327" height="13.409" fill="#fff" stroke="#263238" stroke-linecap="round" stroke-linejoin="round" stroke-width="1"/>
      <rect id="Rectangle_185" data-name="Rectangle 185" width="56.336" height="13.409" transform="translate(347.99)" fill="#263238" stroke="#263238" stroke-linecap="round" stroke-linejoin="round" stroke-width="1"/>
      <rect id="Rectangle_186" data-name="Rectangle 186" width="87.383" height="42.59" transform="translate(31.458 32.794)" fill="#fff" stroke="#263238" stroke-linecap="round" stroke-linejoin="round" stroke-width="1"/>
      <rect id="Rectangle_187" data-name="Rectangle 187" width="19.092" height="6.609" transform="translate(65.603 49.684)" fill="#263238" stroke="#263238" stroke-linecap="round" stroke-linejoin="round" stroke-width="1"/>
      <rect id="Rectangle_188" data-name="Rectangle 188" width="87.383" height="42.59" transform="translate(31.458 86.399)" fill="#fff" stroke="#263238" stroke-linecap="round" stroke-linejoin="round" stroke-width="1"/>
      <rect id="Rectangle_189" data-name="Rectangle 189" width="19.092" height="6.609" transform="translate(65.603 103.288)" fill="#263238" stroke="#263238" stroke-linecap="round" stroke-linejoin="round" stroke-width="1"/>
    </g>
    <g id="freepik--Chair--inject-39" transform="translate(455.406 349.922)">
      <rect id="Rectangle_190" data-name="Rectangle 190" width="26.112" height="52.518" transform="translate(125.964 204.153) rotate(180)" fill="#263238"/>
      <rect id="Rectangle_191" data-name="Rectangle 191" width="13.056" height="72.726" transform="translate(119.444 258.228) rotate(180)" fill="#263238"/>
      <path id="Path_243" data-name="Path 243" d="M398.181,420.48s10.971,12.454,39.168,16.786c14.892,2.291,30.4,5.14,43.853,12.263,8.65,4.582,25.877,14.613,25.877,26.068a10.28,10.28,0,1,1-17.741-6.991,48.567,48.567,0,0,0-30.415-20.634c-21.442-4.67-37.1-2.761-67.263-22.822Z" transform="translate(-279.956 -167.847)" fill="#263238"/>
      <path id="Path_244" data-name="Path 244" d="M424.5,420.48s-10.971,12.454-39.168,16.786c-14.892,2.291-30.4,5.14-43.853,12.263-8.665,4.582-25.877,14.613-25.877,26.068a10.28,10.28,0,1,0,17.726-6.991,48.612,48.612,0,0,1,30.415-20.634c21.457-4.67,37.112-2.761,67.278-22.822Z" transform="translate(-315.6 -167.847)" fill="#263238"/>
      <rect id="Rectangle_192" data-name="Rectangle 192" width="11.793" height="19.268" rx="0.66" transform="translate(119.282 318.016) rotate(180)" fill="#263238"/>
      <rect id="Rectangle_193" data-name="Rectangle 193" width="5.595" height="63.635" transform="translate(116.183 318.016) rotate(180)" fill="#263238"/>
      <path id="Path_245" data-name="Path 245" d="M482.86,248.46a357.012,357.012,0,0,0-5.874,52.665c-.426,13.629-.646,25.3-.852,35.6-.617,32-.969,49.742-6.007,54.515-.646.441-4.817,3.011-13.541,3.745-2.438.206-10.192.308-20.737.367-33.441-.1-68.585-.382-69.143-.382h-2.041c-.088,0-.162.161-.235.235-20.091-.118-25.26-.235-25.628-.235h-2.041c-4.215,3.657-1.7,8.356,1.968,8.386,2.746,0,50.609.426,83.344.426h38.184c17.139,0,31.34-.117,35.247-.441,12.116-1,17.55-5.1,18.123-5.566,8.077-7.167,8.386-22.9,9.135-60.874.191-10.28.426-21.941.837-35.511a349.364,349.364,0,0,1,6.021-52.87Z" transform="translate(-306.713 -248.46)" fill="#263238"/>
    </g>
    <g id="freepik--Character--inject-39" transform="translate(231.938 112.723)">
      <path id="Path_246" data-name="Path 246" d="M267.68,435.846l3.3,17.256s-2.937,6.242-14.319,11.382-16.889,7.343-16.889,8.812-.734,4.773,2.2,5.875,65.354,0,65.354,0,3.3-1.469,3.3-8.445S307.7,450.9,307.7,447.962s-2.071-10.016-2.071-11.015-25.1.367-25.1.367S273.187,430.338,267.68,435.846Z" transform="translate(-127.704 75.559)" fill="#fff" stroke="#263238" stroke-linecap="round" stroke-linejoin="round" stroke-width="1"/>
      <path id="Path_247" data-name="Path 247" d="M267.5,436.17s1.836,16.522,2.937,17.623,24.232,1.1,24.232,1.1" transform="translate(-114.673 76.704)" fill="#fff" stroke="#263238" stroke-linecap="round" stroke-linejoin="round" stroke-width="1"/>
      <line id="Line_40" data-name="Line 40" x1="25.701" y2="0.367" transform="translate(154.295 523.521)" fill="#fff" stroke="#263238" stroke-linecap="round" stroke-linejoin="round" stroke-width="1"/>
      <line id="Line_41" data-name="Line 41" x2="70.127" transform="translate(112.072 551.792)" fill="#fff" stroke="#263238" stroke-linecap="round" stroke-linejoin="round" stroke-width="1"/>
      <path id="Path_248" data-name="Path 248" d="M302.217,294.25s-20.355,68.526-22.852,77.969,11.925,92.362,11.925,93.845,1.983,5.963,1.983,10.927-1.983,6.447-.984,7.945,4.406,4.964,3.965,7.945a8.709,8.709,0,0,1-2.937,5.963,9.546,9.546,0,0,1-3.965,2.482H277.426s-2.937-22.352-10.927-81.435,4.979-92.861,7.461-103.788a94.136,94.136,0,0,1,7.446-20.355Z" transform="translate(-116.346 10.197)" fill="#263238" stroke="#263238" stroke-linecap="round" stroke-linejoin="round" stroke-width="1"/>
      <path id="Path_249" data-name="Path 249" d="M256.18,435.846l3.3,17.256s-2.937,6.242-14.319,11.382-16.889,7.343-16.889,8.812-.734,4.773,2.2,5.875,65.354,0,65.354,0,3.3-1.469,3.3-8.445S296.2,450.9,296.2,447.962s-2.071-10.016-2.071-11.015-25.1.367-25.1.367S261.687,430.338,256.18,435.846Z" transform="translate(-133.093 75.559)" fill="#fff" stroke="#263238" stroke-linecap="round" stroke-linejoin="round" stroke-width="1"/>
      <path id="Path_250" data-name="Path 250" d="M256,436.17s1.836,16.522,2.937,17.623,24.232,1.1,24.232,1.1" transform="translate(-120.062 76.704)" fill="#fff" stroke="#263238" stroke-linecap="round" stroke-linejoin="round" stroke-width="1"/>
      <line id="Line_42" data-name="Line 42" x1="25.701" y2="0.367" transform="translate(137.406 523.521)" fill="#fff" stroke="#263238" stroke-linecap="round" stroke-linejoin="round" stroke-width="1"/>
      <line id="Line_43" data-name="Line 43" x2="70.127" transform="translate(95.183 551.792)" fill="#fff" stroke="#263238" stroke-linecap="round" stroke-linejoin="round" stroke-width="1"/>
      <path id="Path_251" data-name="Path 251" d="M234.223,294.25s-.5,43.207,1.983,61.579,11.925,61.08,13.409,84.417,3.98,34.278,3.98,34.278-3.525,2.937-3.525,5.875,1.983,2.937,1.469,7.461-2.482,5.948-.984,7.945,2.482,5.948,7.446,6.947,28.3.5,33.264-.5,7.446-5.963,7.446-9.928-1.469-6.947-1.469-11.426,2.482-8.43,2.482-11.411-1-4.479-1-7.461-6.447-50.638-6.447-60.566-.5-43.706.984-52.151,8.944-48.656,8.944-48.656Z" transform="translate(-130.287 10.197)" fill="#15ace5" stroke="#263238" stroke-linecap="round" stroke-linejoin="round" stroke-width="1"/>
      <path id="Path_252" data-name="Path 252" d="M255.64,306.588a67.909,67.909,0,0,0,18.27,3.569,109.6,109.6,0,0,1,14.275,1.336l2.673-12.483Z" transform="translate(-120.231 13.6)" fill="#263238" stroke="#263238" stroke-linecap="round" stroke-linejoin="round" stroke-width="1"/>
      <path id="Path_253" data-name="Path 253" d="M251.93,305.63s2.438,68.232,7.343,90.981,11.367,60.111,9.752,64.987-4.068,16.243-4.068,16.243,8.944-1.616,8.944,3.246-13,8.136-9.752,10.574,6.477,5.111,6.477,5.111" transform="translate(-121.97 15.53)" fill="none" stroke="#263238" stroke-linecap="round" stroke-linejoin="round" stroke-width="1"/>
      <path id="Path_254" data-name="Path 254" d="M278.179,424.383s-26.964,4.406-19.312,5.874,22.235-.367,22.969-2.188S280.367,424.016,278.179,424.383Z" transform="translate(-119.36 71.161)" fill="#263238" stroke="#263238" stroke-linecap="round" stroke-linejoin="round" stroke-width="1"/>
      <path id="Path_255" data-name="Path 255" d="M190.779,103.23l-.749,30.489,28.756-.25.25-30.489Z" transform="translate(-150.977 -76.672)" fill="#15ace5"/>
      <path id="Path_256" data-name="Path 256" d="M217.8,159.276s-6.2-6.2-8.929-11.9-6.682-9.164-6.682-13.13,1.733-13.218.984-16.86,0-11.4,2.482-11.4a3.818,3.818,0,0,1,3.716,4.7c-.5,2.482,1.469,11.162,1.469,11.162s1.983-16.61,2.232-17.623,3.716-1,5.214-.25,3.216.485,3.216,3.716-.749,6.932-.749,7.681,6.947,4.714,7.2,7.681-.5,10.163-2.232,13.218a30.839,30.839,0,0,0-2.937,5.874c-.25.984,6.7,11.4,6.7,11.4Z" transform="translate(-145.279 -76.455)" fill="#fff" stroke="#263238" stroke-linecap="round" stroke-linejoin="round" stroke-width="1"/>
      <path id="Path_257" data-name="Path 257" d="M226.079,134.33,209.19,147.239s28.8,59.582,29.8,61.506,21.838,14.907,21.838,14.907l31.282-38.742S252.882,172.5,251.9,171.016,226.079,134.33,226.079,134.33Z" transform="translate(-141.999 -61.981)" fill="#263238" stroke="#263238" stroke-linecap="round" stroke-linejoin="round" stroke-width="1"/>
      <path id="Path_258" data-name="Path 258" d="M234.719,283.537l-1.469,23.131s19.092,8.077,39.653,7.71,48.1-8.445,48.1-8.445l4.039-22.764s-49.566,4.039-64.619,2.57S234.719,283.537,234.719,283.537Z" transform="translate(-130.724 6.242)" fill="#fff" stroke="#263238" stroke-linecap="round" stroke-linejoin="round" stroke-width="1"/>
      <path id="Path_259" data-name="Path 259" d="M224.6,278.42l-1.1,6.609s15.553,8.489,49.933,11.749a161.429,161.429,0,0,0,62.784-6.609l.367-11.382a242.474,242.474,0,0,1-55.808,6.609A290.271,290.271,0,0,1,224.6,278.42Z" transform="translate(-135.293 4.086)" fill="#263238" stroke="#263238" stroke-linecap="round" stroke-linejoin="round" stroke-width="1"/>
      <path id="Path_260" data-name="Path 260" d="M252.633,192.245s-12.116,21.3-16.155,37.817-12.116,92.89-13.218,97.3,24.6,13.218,41.489,13.585,54.706,1.1,61.315-1.469,12.85-6.242,12.85-10.28.367-19.092.367-31.208-3.672-76-6.976-90.687-5.507-24.967-6.609-26.8-9.179-10.648-25.7-9.546a88.646,88.646,0,0,0-36.716,11.015,38.022,38.022,0,0,0-10.647,10.28Z" transform="translate(-135.421 -45.763)" fill="#263238" stroke="#263238" stroke-linecap="round" stroke-linejoin="round" stroke-width="1"/>
      <path id="Path_261" data-name="Path 261" d="M169.917,201.929s-5.963,2.482-6.462,8.445,10.442,11.911,16.889,20.854,14.892,18.314,14.892,18.314l12.924,17.873,15.391-12.909-39.726-46.085s1.983-4.406-.5-5.963a17.389,17.389,0,0,0-13.409-.529Z" transform="translate(-163.439 -31.772)" fill="#fff" stroke="#263238" stroke-linecap="round" stroke-linejoin="round" stroke-width="1"/>
      <path id="Path_262" data-name="Path 262" d="M168.53,215.807,213.279,200.9s2.937,12.425,16.375,25.334a220.571,220.571,0,0,0,25.833,21.354l-40.226,22.837Z" transform="translate(-161.053 -31.747)" fill="#fff" stroke="#263238" stroke-linecap="round" stroke-linejoin="round" stroke-width="1"/>
      <path id="Path_263" data-name="Path 263" d="M168.83,219.607a13.922,13.922,0,0,0,3.466-7.945,5.537,5.537,0,0,0-4.406-5.963l44.191-12.909s8.445,2.937,1.469,11.911Z" transform="translate(-161.353 -35.409)" fill="#fff" stroke="#263238" stroke-linecap="round" stroke-linejoin="round" stroke-width="1"/>
      <path id="Path_264" data-name="Path 264" d="M224.282,254.439s-9.928-1.469-10.427-4.406-2.482-9.429-4.406-11.911-11.426-7.446-14.407-10.927-4.964-8.445-6.947-7.945-4.964,2.482-3.98,4.406,5.463,10.442,5.463,10.442l1,3.466s-8.944-1.469-10.427-1.983a2.746,2.746,0,0,0-3.481,2.937c0,2.482-1.983,2.482.5,3.965s5.463,3.481,5.463,3.481,3.481,7.945,4.406,9.429,8.944,4.979,10.427,5.963,9.443,3.481,13.409,4.406,12.909,4.479,12.909,4.479l2.482-11.426Z" transform="translate(-157.59 -23.276)" fill="#fff" stroke="#263238" stroke-linecap="round" stroke-linejoin="round" stroke-width="1"/>
      <path id="Path_265" data-name="Path 265" d="M314.9,203.649s-1,42.208-1,44.191,1.469,42.708-2.937,46.174-26.318,7.945-58.1,6.961-45.689-7.945-45.689-7.945l2.482-20.854,60.581-4.406s-6.447-46.174-5.463-62.064,13.908-24.335,13.908-24.335" transform="translate(-142.941 -40.829)" fill="#263238" stroke="#263238" stroke-linecap="round" stroke-linejoin="round" stroke-width="1"/>
      <path id="Path_266" data-name="Path 266" d="M235,291.339s60.125,2.1,63.3-5.287,3.158-80.172,3.158-80.172" transform="translate(-129.903 -29.489)" fill="none" stroke="#707070" stroke-linecap="round" stroke-linejoin="round" stroke-width="1"/>
      <path id="Path_267" data-name="Path 267" d="M261.754,187.2s-12.674,13.717-10.559,31.649,6.345,46.115,6.345,46.115l-23.219,1.366" transform="translate(-130.222 -38.071)" fill="none" stroke="#707070" stroke-linecap="round" stroke-linejoin="round" stroke-width="1"/>
      <path id="Path_268" data-name="Path 268" d="M240.035,110.854s-8.327,14.407-6.726,16.316.323,5.449.323,5.449-8.327,6.4-7.681,8.636,7.343,8.327,7.343,8.327,1.278,17.286,2.937,18.887,12.483,3.51,14.686,3.833a12.615,12.615,0,0,1,3.525.969l6.389,34.557,35.849-32.31-5.757-15.362s-3.2-20.561-2.937-30.077-16.331-21.134-26.244-24.012S240.035,110.854,240.035,110.854Z" transform="translate(-134.161 -75.529)" fill="#fff" stroke="#263238" stroke-linecap="round" stroke-linejoin="round" stroke-width="1"/>
      <path id="Path_269" data-name="Path 269" d="M247.91,100.859s-8.312-8.636-18.24-1.909-7.035,17.623,1.924,21.442,19.518.955,16.008,4.8-4.406,12.16.955,13.761,4.479,7.681,4.479,10.28,4.406,2.247,5.449,0,3.51-8.312,9.59-5.757,5.772,16.64,3.525,20.164-4.479,3.2-4.479,3.2,3.525,1.278,1.278,5.434l-2.232,4.171s5.111,6.08,17.917,3.833,15.685-8,13.761-12.792-6.4-5.449-1.6-12.483,16.654-15.376,15.685-31.37c-.632-10.559-25.6-20.561-25.6-20.561s5.757-9.6-7.343-15.685-28.153.969-27.2,7.343S247.91,100.859,247.91,100.859Z" transform="translate(-135.323 -85.067)" fill="#263238" stroke="#263238" stroke-linecap="round" stroke-linejoin="round" stroke-width="1"/>
      <path id="Path_270" data-name="Path 270" d="M232.344,119.548s-4.068-1.087-4.406.837,0,11.514,0,11.514a7.005,7.005,0,0,0,4.8.969c2.247-.646.955-8.65.955-8.65" transform="translate(-133.283 -69.051)" fill="none" stroke="#263238" stroke-linecap="round" stroke-linejoin="round" stroke-width="1"/>
      <path id="Path_271" data-name="Path 271" d="M257.575,128.916,228.1,124.04l.029-1.85,29.446,6.726" transform="translate(-133.137 -67.67)" fill="#263238" stroke="#263238" stroke-linecap="round" stroke-linejoin="round" stroke-width="1"/>
      <path id="Path_272" data-name="Path 272" d="M293.826,146.467s-16.331,11.837-27.537,24-24.644,25.613-25.246,29.769.631,10.559,7.035,3.833,18.24-15.67,27.214-16.316,22.72,3.848,29.754,4.8,11.529,2.937,14.084-.955-4.156-12.483-4.156-16.977.955-12.16-2.247-17.623S299.26,144.866,293.826,146.467Z" transform="translate(-127.135 -56.906)" fill="#757575" stroke="#263238" stroke-linecap="round" stroke-linejoin="round" stroke-width="1"/>
      <path id="Path_273" data-name="Path 273" d="M301.33,157.18a45.205,45.205,0,0,1-3.7,8.959c-1.865,2.776-28.109,8.033-28.109,8.033s21.618-1.234,25.628-1.234,8.65,3.7,8.65,3.7l-2.159-5.874S302.535,159.97,301.33,157.18Z" transform="translate(-113.727 -51.816)" fill="#263238" stroke="#263238" stroke-linecap="round" stroke-linejoin="round" stroke-width="1"/>
    </g>
    <g id="freepik--Floor--inject-39" transform="translate(38.904 667.938)">
      <line id="Line_44" data-name="Line 44" x2="671.161" fill="none" stroke="#263238" stroke-linecap="round" stroke-linejoin="round" stroke-width="1"/>
    </g>
  </g>
</svg>
