<svg id="_1" data-name="1" xmlns="http://www.w3.org/2000/svg" width="186.059" height="186.059" viewBox="0 0 186.059 186.059">
  <path id="Path_93" data-name="Path 93" d="M186.059,96.03V71.951a14.913,14.913,0,0,0-10.693-14.372l-19.317-5.8V47.225a20.982,20.982,0,0,0,9-17.213V21.007a21.006,21.006,0,1,0-42.013,0v9a20.976,20.976,0,0,0,9,17.213v4.559l-17.024,5.108a34.681,34.681,0,0,0-45.738-.525L54.017,51.784V47.225a20.984,20.984,0,0,0,9-17.213V21.007a21.007,21.007,0,1,0-42.013,0v9a20.975,20.975,0,0,0,9,17.213v4.559l-19.317,5.8A14.918,14.918,0,0,0,0,71.951V96.03H6V71.951a8.943,8.943,0,0,1,6.417-8.622l19.323-5.8c1.747,2.268,5.126,5.489,10.272,5.489s8.525-3.221,10.272-5.489l12.307,3.691a34.639,34.639,0,0,0-7.3,17.436A20.978,20.978,0,0,0,21.007,93.029v9a20.976,20.976,0,0,0,9,17.213V123.8l-19.317,5.8A14.918,14.918,0,0,0,0,143.974v27.08H36.011a3.007,3.007,0,0,1,3,3v12H147.046v-12a3.008,3.008,0,0,1,3-3h36.011v-27.08A14.913,14.913,0,0,0,175.366,129.6l-19.317-5.8v-4.559a20.983,20.983,0,0,0,9-17.213v-9a20.988,20.988,0,0,0-36.011-14.675V75.513a16.137,16.137,0,0,0-8.247-14.083l12.98-3.9c1.747,2.265,5.126,5.486,10.272,5.486s8.526-3.221,10.271-5.489l19.327,5.8a8.944,8.944,0,0,1,6.413,8.622V96.03ZM42.013,6a15.022,15.022,0,0,1,15,15H43.256a7.294,7.294,0,0,1-5.123-2.122l-2.122-2.122L33.89,18.885a7.294,7.294,0,0,1-5.123,2.122H27.008A15.022,15.022,0,0,1,42.013,6Zm-15,24.008v-3h1.758a13.142,13.142,0,0,0,7.245-2.151,13.142,13.142,0,0,0,7.245,2.151H57.018v3a15,15,0,0,1-30.01,0Zm15,27.008c-3.19,0-5.257-2.68-6-3.826V50.134a20.825,20.825,0,0,0,12,0v3.058C47.271,54.341,45.2,57.018,42.013,57.018ZM124.5,109.69a21.1,21.1,0,0,0,7.539,9.558v4.559l-19.314,5.8a14.721,14.721,0,0,0-1.858.708l-2.835-.654v-5.913a24.135,24.135,0,0,0,7.287-9.842A14.945,14.945,0,0,0,124.5,109.69ZM93.029,129.041a23.843,23.843,0,0,0,9-1.767v3.268l-9,6.752-9-6.752v-3.268A23.844,23.844,0,0,0,93.029,129.041ZM80.341,135.28l7.316,5.489-7.526,4.516-1.9-9.516Zm9.372,23.77h6.632l2.334,21.007h-11.3Zm7.154-6H89.189l-1.723-5.167,5.564-3.337,5.561,3.337ZM98.4,140.769l7.316-5.489,2.113.487-1.9,9.516Zm22.3-35.682a9,9,0,0,1-3.791,2.425,24.319,24.319,0,0,0,.129-2.479V90.673a9.061,9.061,0,0,1,5.956,7.461A8.952,8.952,0,0,1,120.7,105.087Zm-9.664-.054a18.006,18.006,0,0,1-36.011,0v-15H85.212a38.593,38.593,0,0,0,18.593-4.751l2.374,4.751h4.856Zm-41.884,2.479a8.873,8.873,0,0,1-.129-16.836v14.357A24.319,24.319,0,0,0,69.151,107.512Zm1.587,6.389a24.082,24.082,0,0,0,7.287,9.842v5.913l-2.835.654a15.509,15.509,0,0,0-1.855-.708l-19.317-5.8v-4.559a21.118,21.118,0,0,0,7.539-9.558A14.945,14.945,0,0,0,70.738,113.9ZM42.013,78.025a15.022,15.022,0,0,1,15,15H55.26a7.3,7.3,0,0,1-5.123-2.122l-2.122-2.122-2.122,2.122a7.3,7.3,0,0,1-5.123,2.122H27.008A15.022,15.022,0,0,1,42.013,78.025Zm-15,24.008v-3H40.771a13.142,13.142,0,0,0,7.245-2.151,13.142,13.142,0,0,0,7.244,2.151h1.758v3a15,15,0,1,1-30.01,0Zm15,21.007a20.883,20.883,0,0,0,6-.885v3.058c-.744,1.152-2.812,3.829-6,3.829s-5.257-2.68-6-3.826v-3.058A20.982,20.982,0,0,0,42.013,123.039Zm-6,42.013h-12V144.045h-6v21.006H6V143.974a8.943,8.943,0,0,1,6.417-8.622l19.323-5.8c1.747,2.268,5.126,5.489,10.272,5.489s8.525-3.221,10.272-5.489l11.38,3.416-8.37,1.93a20.914,20.914,0,0,0-16.282,20.469v3.682h6v-3.682a14.94,14.94,0,0,1,11.632-14.621l15.731-3.631,3.537,17.694,6.279-3.766,1.776,5.33-3.3,29.685H66.021V156.049h-6v30.009h-15v-12A9.015,9.015,0,0,0,36.011,165.051Zm137.629-29.7a8.942,8.942,0,0,1,6.416,8.622v21.078h-12V144.045h-6v21.006h-12a9.015,9.015,0,0,0-9,9v12h-15V156.049h-6v30.009H105.927l-3.841-29.685,1.776-5.33,6.279,3.766,3.537-17.694,15.734,3.631a14.94,14.94,0,0,1,11.632,14.621v3.682h6v-3.682A20.914,20.914,0,0,0,130.764,134.9l-8.37-1.93,11.38-3.416c1.747,2.268,5.126,5.489,10.272,5.489s8.526-3.221,10.271-5.489Zm-23.593-10.137c-.744,1.149-2.813,3.826-6,3.826s-5.266-2.689-6-3.826v-3.061a20.793,20.793,0,0,0,12,0Zm-6-8.178a15.022,15.022,0,0,1-15-15v-3H130.8a13.142,13.142,0,0,0,7.244-2.151,13.143,13.143,0,0,0,7.245,2.151H159.05v3A15.022,15.022,0,0,1,144.045,117.037Zm0-39.012a15.022,15.022,0,0,1,15,15H145.288a7.3,7.3,0,0,1-5.123-2.122l-2.122-2.122-2.122,2.122a7.3,7.3,0,0,1-5.123,2.122h-1.758A15.022,15.022,0,0,1,144.045,78.025Zm-21.007,9.258a15.766,15.766,0,0,0-9.519-3.256h-3.631L106.2,76.644l-2.828,1.884a32.626,32.626,0,0,1-18.158,5.5H72.538a15.765,15.765,0,0,0-9.519,3.256V82.844a28.829,28.829,0,0,1,49.212-20.385l3.184,3.184.673.226a10.153,10.153,0,0,1,6.95,9.642ZM144.045,6a15.022,15.022,0,0,1,15,15h-1.757a7.3,7.3,0,0,1-5.124-2.122l-2.121-2.122-2.122,2.122a7.293,7.293,0,0,1-5.123,2.122H129.041A15.022,15.022,0,0,1,144.045,6Zm-15,24.008v-3H142.8a13.145,13.145,0,0,0,7.245-2.151,13.142,13.142,0,0,0,7.245,2.151h1.757v3a15,15,0,1,1-30.009,0Zm15,27.008c-3.2,0-5.266-2.689-6-3.826V50.131a20.793,20.793,0,0,0,12,0v3.058C149.3,54.341,147.235,57.018,144.045,57.018Z" fill="#bdc3c7"/>
  <path id="Path_94" data-name="Path 94" d="M47.484,0h6V6h-6Z" transform="translate(21.538)" fill="#bdc3c7"/>
  <path id="Path_95" data-name="Path 95" d="M47.484,8.258h6v33.01h-6Z" transform="translate(21.538 3.746)" fill="#bdc3c7"/>
  <path id="Path_96" data-name="Path 96" d="M76.387,0h6V6h-6Z" transform="translate(34.648)" fill="#bdc3c7"/>
  <path id="Path_97" data-name="Path 97" d="M76.387,8.258h6v33.01h-6Z" transform="translate(34.648 3.746)" fill="#bdc3c7"/>
  <path id="Path_98" data-name="Path 98" d="M55.742,8.258h6V29.265h-6Z" transform="translate(25.284 3.746)" fill="#bdc3c7"/>
  <path id="Path_99" data-name="Path 99" d="M55.742,26.839h6v6h-6Z" transform="translate(25.284 12.174)" fill="#bdc3c7"/>
  <path id="Path_100" data-name="Path 100" d="M68.129,8.258h6V29.265h-6Z" transform="translate(30.902 3.746)" fill="#bdc3c7"/>
  <path id="Path_101" data-name="Path 101" d="M68.129,26.839h6v6h-6Z" transform="translate(30.902 12.174)" fill="#bdc3c7"/>
</svg>
