<svg xmlns="http://www.w3.org/2000/svg" xmlns:xlink="http://www.w3.org/1999/xlink" width="186" height="186" viewBox="0 0 186 186">
  <defs>
    <clipPath id="clip-path">
      <rect id="Rectangle_80" data-name="Rectangle 80" width="186" height="186" fill="#bdc3c7"/>
    </clipPath>
  </defs>
  <g id="social_facebook" clip-path="url(#clip-path)">
    <path id="Path_116" data-name="Path 116" d="M173.739,105.567l-4.1-.747a19.3,19.3,0,0,0,2.909-3.336l2.58-3.874-2.269-1.7A27.143,27.143,0,0,1,162.051,74.3V63a13.781,13.781,0,0,0-7.2-12.156l-3.086-3.084a22.1,22.1,0,0,0-37.727,15.625V74.3a27.143,27.143,0,0,1-10.807,21.607l-2.268,1.7,2.58,3.874a19.272,19.272,0,0,0,2.909,3.336l-4.1.747a14.928,14.928,0,0,0-9.318,5.836,14.928,14.928,0,0,0-9.318-5.836l-20.692-3.76V97.069a15.013,15.013,0,0,0,3-4.052l4.421-8.837a15.153,15.153,0,0,0,1.581-6.71V63a13.782,13.782,0,0,0-7.2-12.156l-3.086-3.084A22.1,22.1,0,0,0,24.008,63.389V77.47a15.155,15.155,0,0,0,1.581,6.71l4.421,8.834a15.01,15.01,0,0,0,3,4.052V101.8l-20.692,3.76A15,15,0,0,0,0,120.329v47H186.059v-47A15,15,0,0,0,173.739,105.567Zm-6.71-6.686a13.9,13.9,0,0,1-5.9,4.393l-8.085-1.467V97.069a14.994,14.994,0,0,0,3-4.052l2.775-5.548A33.157,33.157,0,0,0,167.03,98.881ZM120.038,74.3h3.517a23.3,23.3,0,0,0,14.489-5,23.3,23.3,0,0,0,14.488,5h3.518V77.47A9.073,9.073,0,0,1,155.1,81.5l-4.422,8.834a8.948,8.948,0,0,1-8.051,4.976h-9.173a8.949,8.949,0,0,1-8.052-4.976L120.983,81.5a9.1,9.1,0,0,1-.945-4.027Zm5.252,33.2,7.857,5.893-7.986,6.389-1.984-11.9Zm3.751-4.688v-2.176a15.013,15.013,0,0,0,4.418.675h9.173a15.106,15.106,0,0,0,4.417-.673v2.173l-9,6.752ZM150.8,107.5l2.114.384-1.984,11.9-7.986-6.389ZM136.134,47.292a16,16,0,0,1,11.384,4.714l3.752,3.754.438.22A7.812,7.812,0,0,1,156.049,63V68.3h-3.518a17.366,17.366,0,0,1-12.367-5.123l-2.122-2.125-2.122,2.125A17.371,17.371,0,0,1,123.555,68.3h-3.517v-4.91A16.113,16.113,0,0,1,136.134,47.292ZM109.057,98.881a33.14,33.14,0,0,0,8.206-11.415l2.775,5.548a15.013,15.013,0,0,0,3,4.052V101.8l-8.084,1.47A13.888,13.888,0,0,1,109.057,98.881Zm-5.636,12.593,13.85-2.519,3.649,21.9,14.123-11.3V167.33H117.271c-.387-5.311-2.158-16.559-4.541-21.321a16.083,16.083,0,0,1,0-14.374l1.306-2.609v-6.709h-6v5.294l-.673,1.342a22.083,22.083,0,0,0,0,19.74c1.969,3.932,3.3,14.255,3.673,18.639h-15v-47A9,9,0,0,1,103.421,111.474ZM50.8,145.3l-2.788,2.787L45.227,145.3l2.33-13.976h.917ZM35.261,107.5l7.857,5.893-7.986,6.389-1.984-11.9ZM49.41,125.317H46.62l-3.064-4.594,4.459-3.567,4.456,3.567Zm3.505-11.929,7.857-5.893,2.113.384-1.984,11.9Zm-6.809-66.1A16,16,0,0,1,57.49,52.006l3.751,3.754.438.22A7.813,7.813,0,0,1,66.021,63V65.3H56.5a17.366,17.366,0,0,1-12.367-5.123L42.013,58.05l-2.122,2.125A17.346,17.346,0,0,1,30.01,65.1V63.389A16.113,16.113,0,0,1,46.106,47.292ZM30.958,81.5a9.066,9.066,0,0,1-.948-4.027V71.1a23.229,23.229,0,0,0,12-4.79A23.317,23.317,0,0,0,56.5,71.3h9.519v6.17a9.064,9.064,0,0,1-.948,4.027l-4.421,8.834A8.949,8.949,0,0,1,52.6,95.307H43.427a8.949,8.949,0,0,1-8.052-4.976ZM43.43,101.309H52.6a15.114,15.114,0,0,0,4.418-.673v2.173l-9,6.752-9-6.752v-2.176A14.979,14.979,0,0,0,43.43,101.309ZM6,120.329a9,9,0,0,1,7.391-8.858l13.85-2.519,3.649,21.9,7.961-6.368,3.008,4.507L38.8,147.352l9.215,9.217,9.215-9.217-3.061-18.359,3.008-4.507,7.961,6.368,3.649-21.9,13.85,2.519a9,9,0,0,1,7.391,8.858v47h-12V122.316h-6V167.33H24.008V122.316h-6V167.33H6Zm174.055,47H165.051c.372-4.384,1.705-14.707,3.675-18.639a22.093,22.093,0,0,0,0-19.74l-.673-1.342v-5.294h-6v6.709l1.305,2.612a16.08,16.08,0,0,1,0,14.372c-2.38,4.762-4.154,16.01-4.541,21.321H141.044V119.558l14.123,11.3,3.648-21.9,13.85,2.519a9,9,0,0,1,7.391,8.855Z" transform="translate(0 18.729)" fill="#bdc3c7"/>
    <path id="Path_117" data-name="Path 117" d="M101.161,105.29h6v6h-6Z" transform="translate(45.885 47.758)" fill="#bdc3c7"/>
    <path id="Path_118" data-name="Path 118" d="M101.161,115.613h6v6h-6Z" transform="translate(45.885 52.44)" fill="#bdc3c7"/>
    <path id="Path_119" data-name="Path 119" d="M75.237,72.023A36.011,36.011,0,1,0,39.226,36.011,36.051,36.051,0,0,0,75.237,72.023ZM75.237,6a30.009,30.009,0,1,1-30.01,30.009A30.043,30.043,0,0,1,75.237,6Z" transform="translate(17.792)" fill="#bdc3c7"/>
    <path id="Path_120" data-name="Path 120" d="M63.808,17.6a7.5,7.5,0,0,0,1.5,14.852h3a1.5,1.5,0,0,1,0,3h-3a1.5,1.5,0,0,1-1.5-1.5v-1.5h-6v1.5a7.514,7.514,0,0,0,6,7.35v3.153h6V41.308a7.5,7.5,0,0,0-1.5-14.852h-3a1.5,1.5,0,0,1,0-3h3a1.5,1.5,0,0,1,1.5,1.5v1.5h6v-1.5a7.514,7.514,0,0,0-6-7.35V14.452h-6Z" transform="translate(26.22 6.555)" fill="#bdc3c7"/>
    <path id="Path_121" data-name="Path 121" d="M81.2,32.182a18.078,18.078,0,0,1-15.431,17.8l.85,5.939a23.98,23.98,0,0,0,0-47.476l-.85,5.939A18.078,18.078,0,0,1,81.2,32.182Z" transform="translate(29.833 3.83)" fill="#bdc3c7"/>
    <path id="Path_122" data-name="Path 122" d="M68.064,55.92l.85-5.939a17.981,17.981,0,0,1,0-35.6l-.853-5.939a23.98,23.98,0,0,0,0,47.476Z" transform="translate(21.538 3.83)" fill="#bdc3c7"/>
    <path id="Path_123" data-name="Path 123" d="M26.839,8.258h6v6h-6Z" transform="translate(12.174 3.746)" fill="#bdc3c7"/>
    <path id="Path_124" data-name="Path 124" d="M22.71,12.387h6v6h-6Z" transform="translate(10.301 5.619)" fill="#bdc3c7"/>
    <path id="Path_125" data-name="Path 125" d="M26.839,16.516h6v6h-6Z" transform="translate(12.174 7.491)" fill="#bdc3c7"/>
    <path id="Path_126" data-name="Path 126" d="M30.968,12.387h6v6h-6Z" transform="translate(14.046 5.619)" fill="#bdc3c7"/>
    <path id="Path_127" data-name="Path 127" d="M99.1,20.645h6v6h-6Z" transform="translate(44.949 9.364)" fill="#bdc3c7"/>
    <path id="Path_128" data-name="Path 128" d="M94.968,24.774h6v6h-6Z" transform="translate(43.076 11.237)" fill="#bdc3c7"/>
    <path id="Path_129" data-name="Path 129" d="M99.1,28.9h6v6h-6Z" transform="translate(44.949 13.11)" fill="#bdc3c7"/>
    <path id="Path_130" data-name="Path 130" d="M103.226,24.774h6v6h-6Z" transform="translate(46.822 11.237)" fill="#bdc3c7"/>
  </g>
</svg>
