<svg id="Comment" xmlns="http://www.w3.org/2000/svg" width="41.343" height="41" viewBox="0 0 41.343 41">
  <path id="Path_37" data-name="Path 37" d="M38.759,0H2.584A2.584,2.584,0,0,0,0,2.584V24.978a2.584,2.584,0,0,0,2.584,2.584c13.643,0,11.964.112,11.593-.258a3.376,3.376,0,0,1-.861-1.464H5.168V1.723H38.759a.861.861,0,0,1,.861.861V27.407a2.584,2.584,0,0,0,1.723-2.429V2.584A2.584,2.584,0,0,0,38.759,0ZM2.584,14.642a.861.861,0,1,1,.861-.861A.861.861,0,0,1,2.584,14.642Z" fill="#42a5f5"/>
  <path id="Path_38" data-name="Path 38" d="M35.458,19.693a2.584,2.584,0,0,0-3.747-1.568,2.584,2.584,0,0,0-3.04-1.051V6.584A2.584,2.584,0,0,0,26.087,4h-15.5A2.584,2.584,0,0,0,8,6.584V16.92A2.584,2.584,0,0,0,10.584,19.5h9.173l3.747,3v2.412l-2.653-1.525c-2.86-1.619-6.133,1.473-4.35,3.256l6.244,6.244a2.584,2.584,0,0,1,.758,1.826v.293h1.723a4.358,4.358,0,0,0-1.258-3.342l-6.244-6.244a1.723,1.723,0,0,1,2.265-.534l3.945,2.257a.861.861,0,0,0,1.292-.749V13.474a.861.861,0,1,1,1.723,0v12.92a.861.861,0,1,0,1.723,0V19.5a.861.861,0,1,1,1.723,0v6.89a.861.861,0,1,0,1.723,0V20.365a.861.861,0,0,1,1.723,0v6.029a.861.861,0,1,0,1.723,0V22.087a.861.861,0,1,1,1.723,0c0,8.846.353,6.822-1.266,10.086a5.4,5.4,0,0,0-.456,2.834h1.723c0-1.852-.086-1.335,1.266-4.057.6-1.2.456-1.361.456-8.863a2.584,2.584,0,0,0-3.549-2.394Zm-8.51-8.648A2.584,2.584,0,0,0,23.5,13.474V20.3L20.592,17.97c-.327-.267.267-.189-10.008-.189a.861.861,0,0,1-.861-.861V6.584a.861.861,0,0,1,.861-.861h15.5a.861.861,0,0,1,.861.861Z" transform="translate(-1.11 -0.555)" fill="#424242"/>
  <path id="Path_39" data-name="Path 39" d="M24.92,9.723H12.861a.861.861,0,1,1,0-1.723H24.92a.861.861,0,1,1,0,1.723Z" transform="translate(-1.664 -1.11)" fill="#42a5f5"/>
  <path id="Path_40" data-name="Path 40" d="M21.474,13.723H12.861a.861.861,0,1,1,0-1.723h8.613a.861.861,0,0,1,0,1.723Z" transform="translate(-1.664 -1.664)" fill="#42a5f5"/>
  <path id="Path_41" data-name="Path 41" d="M21.474,17.723H12.861a.861.861,0,1,1,0-1.723h8.613a.861.861,0,0,1,0,1.723Z" transform="translate(-1.664 -2.219)" fill="#42a5f5"/>
  <rect id="Rectangle_16" data-name="Rectangle 16" width="17" height="5" rx="1" transform="translate(21 36)" fill="#42a5f5"/>
</svg>
