<svg xmlns="http://www.w3.org/2000/svg" width="42.653" height="42.663" viewBox="0 0 42.653 42.663">
  <g id="Graph_Analytic" data-name="Graph Analytic" transform="translate(0 0.011)">
    <path id="Path_57" data-name="Path 57" d="M3.732,4C2.719,5.99,3.377,5.777,2.666,5.777a.889.889,0,0,0-.889.889V27.1H0V6.666A2.666,2.666,0,0,1,2.666,4Z" transform="translate(0 -0.447)" fill="#424242"/>
    <path id="Path_58" data-name="Path 58" d="M45.3,6.666V27.1H43.525V6.666a.889.889,0,0,0-.889-.889H24.482A8.7,8.7,0,0,0,23.78,4H42.636A2.666,2.666,0,0,1,45.3,6.666Z" transform="translate(-2.649 -0.447)" fill="#424242"/>
    <path id="Path_59" data-name="Path 59" d="M0,32v4.443a2.666,2.666,0,0,0,2.666,2.666h13.08l-1.333,5.332H13.329a.889.889,0,0,0,0,1.777H29.324a.889.889,0,0,0,0-1.777H28.24l-1.333-5.332h13.08a2.666,2.666,0,0,0,2.666-2.666V32Zm21.327,2.666a.889.889,0,1,1-.889.889A.889.889,0,0,1,21.327,34.666Zm-5.083,9.775,1.333-5.332h7.5l1.333,5.332Z" transform="translate(0 -3.566)" fill="#42a5f5"/>
    <path id="Path_60" data-name="Path 60" d="M17.976,1.776C11.907,7.819,12.1,7.481,12.1,8V15.94A8,8,0,1,1,17.976,1.776Z" transform="translate(-0.55)" fill="#42a5f5"/>
    <path id="Path_61" data-name="Path 61" d="M15,16.322V8.742L20.332,3.41A8,8,0,0,1,15,16.322Z" transform="translate(-1.671 -0.381)" fill="#42a5f5"/>
    <path id="Path_62" data-name="Path 62" d="M36.99,12a2.666,2.666,0,0,0-2.239,4.1l-3.146,4.052a2.6,2.6,0,0,0-2.924.889l-3.243-1.093a2.666,2.666,0,1,0-5.189.844l-3.11,2.319A2.666,2.666,0,1,0,18.2,24.538l3.1-2.319a2.666,2.666,0,0,0,3.554-.586L28.1,22.717A2.666,2.666,0,1,0,33,21.233l3.146-4.052A2.666,2.666,0,1,0,36.99,12ZM15.664,26.218a.889.889,0,1,1,.889-.889A.889.889,0,0,1,15.664,26.218Zm7.109-5.332A.889.889,0,1,1,23.661,20,.889.889,0,0,1,22.773,20.886Zm8,2.666a.889.889,0,1,1,.889-.889A.889.889,0,0,1,30.77,23.552Zm6.22-8a.889.889,0,1,1,.889-.889A.889.889,0,0,1,36.99,15.554Z" transform="translate(-1.446 -1.338)" fill="#424242"/>
  </g>
</svg>
