<svg id="noun_tester_4102307" xmlns="http://www.w3.org/2000/svg" width="58.885" height="59.104" viewBox="0 0 58.885 59.104">
  <g id="Layer_21" data-name="Layer 21">
    <path id="Path_169" data-name="Path 169" d="M30.443,30.553H27.593v-1.29a9.539,9.539,0,0,0,4.749-8.243v-.953h.95a2.86,2.86,0,0,0,0-5.72h-.455l.52-1.212A7.711,7.711,0,0,0,29.493,3.077l-2.65-1.212a9.711,9.711,0,0,0-9.719,1.059l-1.5,1.127h0a5.937,5.937,0,0,0-3.811,8.4l.945,1.9H12.4a2.86,2.86,0,0,0,0,5.72h.95v.953A9.539,9.539,0,0,0,18.1,29.264v1.29H15.246A14.289,14.289,0,0,0,1,44.853v5.72a.952.952,0,0,0,.95.953H2.9v7.626H4.8V51.526H8.6v7.626a.952.952,0,0,0,.95.953H36.141a.952.952,0,0,0,.95-.953V51.526h3.8v7.626h1.9V51.526h.95a.952.952,0,0,0,.95-.953v-5.72A14.289,14.289,0,0,0,30.443,30.553Zm3.8-13.346a.952.952,0,0,1-.95.953h-.95V16.254h.95A.952.952,0,0,1,34.242,17.207ZM13.664,7.726a4.034,4.034,0,0,1,3.444-1.958,4.431,4.431,0,0,1,3.7,1.987l.3.449,1.58-1.058-.3-.448a6.329,6.329,0,0,0-3.582-2.6,7.78,7.78,0,0,1,7.249-.5L28.7,4.814a5.8,5.8,0,0,1,2.908,7.568l-.064.149L30.343,10.11a.948.948,0,0,0-1.425-.337L27.4,10.917a7.576,7.576,0,0,1-9.118,0l-1.52-1.144a.948.948,0,0,0-1.425.337l-1.277,2.582L13.516,11.6a4.024,4.024,0,0,1,.148-3.876ZM12.4,18.161a.953.953,0,0,1,0-1.907h.95v1.907Zm2.849,2.86V14.572l1.29-2.59.61.459a9.469,9.469,0,0,0,11.4,0l.61-.459,1.29,2.59V21.02a7.6,7.6,0,1,1-15.2,0Zm7.6,9.533a9.453,9.453,0,0,0,2.85-.44v1.393a2.849,2.849,0,1,1-5.7,0V30.114A9.452,9.452,0,0,0,22.845,30.553ZM35.191,58.2H10.5V41.993a.952.952,0,0,1,.95-.953H34.242a.952.952,0,0,1,.95.953Zm7.6-8.58h-5.7V41.993a2.855,2.855,0,0,0-2.849-2.86H11.447A2.855,2.855,0,0,0,8.6,41.993v7.626H2.9V44.853A12.384,12.384,0,0,1,15.246,32.46h2.944a4.745,4.745,0,0,0,9.308,0h2.944A12.384,12.384,0,0,1,42.79,44.853Z" transform="translate(-1 -1.001)" fill="#bdc3c7"/>
    <path id="Path_170" data-name="Path 170" d="M23.8,47a3.813,3.813,0,1,0,3.8,3.813A3.806,3.806,0,0,0,23.8,47Zm0,5.72a1.907,1.907,0,1,1,1.9-1.907A1.9,1.9,0,0,1,23.8,52.72Z" transform="translate(-1.955 -3.148)" fill="#bdc3c7"/>
    <path id="Path_171" data-name="Path 171" d="M51.447,1A10.486,10.486,0,1,0,61.895,11.486,10.467,10.467,0,0,0,51.447,1Zm0,19.066A8.58,8.58,0,1,1,60,11.486a8.564,8.564,0,0,1-8.548,8.58Z" transform="translate(-3.01 -1)" fill="#bdc3c7"/>
    <path id="Path_172" data-name="Path 172" d="M58.018,8.186l-1.9-1.907a.947.947,0,0,0-1.343,0l-5.027,5.046-1.228-1.233a.947.947,0,0,0-1.343,0L45.278,12a.956.956,0,0,0,0,1.348l3.8,3.813a.947.947,0,0,0,1.343,0l7.6-7.626A.956.956,0,0,0,58.018,8.186Zm-8.27,6.952-2.456-2.465.557-.559,1.228,1.233a.947.947,0,0,0,1.343,0L55.447,8.3,56,8.86Z" transform="translate(-3.211 -1.234)" fill="#bdc3c7"/>
  </g>
</svg>
