<svg xmlns="http://www.w3.org/2000/svg" width="40.717" height="37.345" viewBox="0 0 40.717 37.345">
  <g id="Positive_Feedback" data-name="Positive Feedback" transform="translate(0 -2)">
    <path id="Path_49" data-name="Path 49" d="M28.579,34.69a2.545,2.545,0,0,1-.848,3.393,2.545,2.545,0,0,1-2.205,3.792c-12.139,0-12.122.2-13.759-.594a4.971,4.971,0,0,0,.187-1.841c1.315.984,1.7.738,13.572.738a.848.848,0,1,0,0-1.7H21.284a.848.848,0,1,1,0-1.7h5.09a.848.848,0,1,0,0-1.7h-5.09a.848.848,0,1,1,0-1.7h5.938a.848.848,0,1,0,0-1.7H21.284a.848.848,0,0,1,0-1.7h5.09a.848.848,0,0,0,0-1.7H18.739a.848.848,0,0,1-.848-1.077l1.052-3.7c.492-1.7-.992-3.1-1.527-2.986-.271.059-.1-.161-2.307,4.793a8.483,8.483,0,0,1-3.156,3.605,4.19,4.19,0,0,0-.263-1.926c1.6-1.2,1.7-1.976,3.927-6.93a2.129,2.129,0,0,1,3.215-.848,4.3,4.3,0,0,1,1.781,4.742l-.746,2.63h6.506A2.545,2.545,0,0,1,28.579,30.4a2.545,2.545,0,0,1,0,4.292Z" transform="translate(-1.774 -2.552)" fill="#424242"/>
    <path id="Path_50" data-name="Path 50" d="M35.7,5.96l.6.95,1.094.28-.721.865.076,1.128L35.7,8.768l-1.052.416.076-1.128L34,7.19l1.094-.28Z" transform="translate(-5.159 -0.601)" fill="#424242"/>
    <path id="Path_51" data-name="Path 51" d="M32.7,11.96l.6.95,1.094.28-.721.865.076,1.128L32.7,14.768l-1.052.416.076-1.128L31,13.19l1.094-.28Z" transform="translate(-4.704 -1.511)" fill="#424242"/>
    <path id="Path_52" data-name="Path 52" d="M29.7,7.96l.6.95,1.094.28-.721.865.076,1.128L29.7,10.768l-1.052.416.076-1.128L28,9.19l1.094-.28Z" transform="translate(-4.249 -0.904)" fill="#424242"/>
    <path id="Path_53" data-name="Path 53" d="M38.7,11.96l-.6.95L37,13.19l.721.865-.076,1.128,1.052-.416,1.052.416-.076-1.128.721-.865L39.3,12.91Z" transform="translate(-5.614 -1.511)" fill="#424242"/>
    <path id="Path_54" data-name="Path 54" d="M41.7,7.96l-.6.95L40,9.19l.721.865-.076,1.128,1.052-.416,1.052.416-.076-1.128.721-.865L42.3,8.91Z" transform="translate(-6.069 -0.904)" fill="#424242"/>
    <path id="Path_55" data-name="Path 55" d="M28.241,20.662a.848.848,0,0,1-.848-.848V17.269h-.848A2.545,2.545,0,0,1,24,14.724V4.545A2.545,2.545,0,0,1,26.545,2H41.814a2.545,2.545,0,0,1,2.545,2.545V14.724a2.545,2.545,0,0,1-2.545,2.545H32.78C28.572,20.662,28.674,20.662,28.241,20.662ZM26.545,3.7a.848.848,0,0,0-.848.848V14.724a.848.848,0,0,0,.848.848h1.7a.848.848,0,0,1,.848.848v1.629c2.884-2.307,2.96-2.477,3.393-2.477h9.331a.848.848,0,0,0,.848-.848V4.545a.848.848,0,0,0-.848-.848Z" transform="translate(-3.642)" fill="#42a5f5"/>
    <path id="Path_56" data-name="Path 56" d="M6.786,28H0V43.269H6.786a1.7,1.7,0,0,0,1.7-1.7V29.7A1.7,1.7,0,0,0,6.786,28ZM2.545,41.572a.848.848,0,1,1,.848-.848A.848.848,0,0,1,2.545,41.572Z" transform="translate(0 -3.945)" fill="#42a5f5"/>
  </g>
</svg>
