<svg xmlns="http://www.w3.org/2000/svg" width="36.691" height="41.945" viewBox="0 0 36.691 41.945">
  <g id="Targeting" transform="translate(-2.998)">
    <path id="Path_42" data-name="Path 42" d="M26.1,45.747H13.874a.874.874,0,1,1,0-1.747H26.1a.874.874,0,1,1,0,1.747Z" transform="translate(-1.265 -5.564)" fill="#42a5f5"/>
    <path id="Path_43" data-name="Path 43" d="M29.529,15.634l-2.56,2.56a8.736,8.736,0,1,1-3.7-3.7l2.56-2.56a12.23,12.23,0,1,0,3.7,3.7Z" transform="translate(-0.506 -1.264)" fill="#42a5f5"/>
    <path id="Path_44" data-name="Path 44" d="M28.717,33.858A15.724,15.724,0,0,0,31.53,12.622l-1.249,1.24a13.977,13.977,0,1,1-3.7-3.7l1.249-1.249A15.619,15.619,0,0,0,18.724,6C4.013,6-2.617,24.5,8.73,33.858c-2.359,8.281-2.42,8.01-2.062,8.482s.358.349,5.067.349a.874.874,0,0,0,.874-.638l1.511-5.3a15.724,15.724,0,0,0,9.277,0l1.441,5.3a.874.874,0,0,0,.874.638c4.674,0,4.708.122,5.067-.349S31.067,42.113,28.717,33.858ZM11.08,40.942H8.529l1.747-6a14.51,14.51,0,0,0,2.21,1.188Zm15.287,0L25,36.129a14.51,14.51,0,0,0,2.21-1.188l1.747,6Z" transform="translate(0 -0.759)" fill="#424242"/>
    <path id="Path_45" data-name="Path 45" d="M26.417,20.263l-1.371,1.371a5.241,5.241,0,1,1-3.7-3.7l1.371-1.371a6.988,6.988,0,1,0,3.7,3.7Z" transform="translate(-1.264 -2.024)" fill="#424242"/>
    <circle id="Ellipse_53" data-name="Ellipse 53" cx="3.494" cy="3.494" r="3.494" transform="translate(15.229 17.471)" fill="#42a5f5"/>
    <path id="Path_46" data-name="Path 46" d="M35.365,8.264,34.09,4.446,38.536,0l1.275,3.809Z" transform="translate(-3.932)" fill="#42a5f5"/>
    <path id="Path_47" data-name="Path 47" d="M35.55,8.815l3.809,1.267,4.446-4.446L40,4.36Z" transform="translate(-4.116 -0.551)" fill="#42a5f5"/>
    <path id="Path_48" data-name="Path 48" d="M20.873,21.988a.874.874,0,0,1-.62-1.494L39.314,1.433a.877.877,0,0,1,1.24,1.24C19.842,23.376,21.406,21.988,20.873,21.988Z" transform="translate(-2.149 -0.149)" fill="#424242"/>
  </g>
</svg>
